%TF.GenerationSoftware,KiCad,Pcbnew,(6.0.0)*%
%TF.CreationDate,2022-02-09T06:53:37-08:00*%
%TF.ProjectId,depth-sensor,64657074-682d-4736-956e-736f722e6b69,1*%
%TF.SameCoordinates,Original*%
%TF.FileFunction,Legend,Top*%
%TF.FilePolarity,Positive*%
%FSLAX46Y46*%
G04 Gerber Fmt 4.6, Leading zero omitted, Abs format (unit mm)*
G04 Created by KiCad (PCBNEW (6.0.0)) date 2022-02-09 06:53:37*
%MOMM*%
%LPD*%
G01*
G04 APERTURE LIST*
%ADD10C,0.150000*%
%ADD11C,0.120000*%
G04 APERTURE END LIST*
D10*
X113371428Y-40775000D02*
X113276190Y-40727380D01*
X113133333Y-40727380D01*
X112990476Y-40775000D01*
X112895238Y-40870238D01*
X112847619Y-40965476D01*
X112800000Y-41155952D01*
X112800000Y-41298809D01*
X112847619Y-41489285D01*
X112895238Y-41584523D01*
X112990476Y-41679761D01*
X113133333Y-41727380D01*
X113228571Y-41727380D01*
X113371428Y-41679761D01*
X113419047Y-41632142D01*
X113419047Y-41298809D01*
X113228571Y-41298809D01*
X113800000Y-41441666D02*
X114276190Y-41441666D01*
X113704761Y-41727380D02*
X114038095Y-40727380D01*
X114371428Y-41727380D01*
X114704761Y-41727380D02*
X114704761Y-40727380D01*
X115180952Y-41727380D02*
X115180952Y-40727380D01*
X115752380Y-41727380D01*
X115752380Y-40727380D01*
X97433095Y-58507380D02*
X97623571Y-58507380D01*
X97718809Y-58555000D01*
X97814047Y-58650238D01*
X97861666Y-58840714D01*
X97861666Y-59174047D01*
X97814047Y-59364523D01*
X97718809Y-59459761D01*
X97623571Y-59507380D01*
X97433095Y-59507380D01*
X97337857Y-59459761D01*
X97242619Y-59364523D01*
X97195000Y-59174047D01*
X97195000Y-58840714D01*
X97242619Y-58650238D01*
X97337857Y-58555000D01*
X97433095Y-58507380D01*
X98623571Y-58983571D02*
X98290238Y-58983571D01*
X98290238Y-59507380D02*
X98290238Y-58507380D01*
X98766428Y-58507380D01*
X99480714Y-58983571D02*
X99147380Y-58983571D01*
X99147380Y-59507380D02*
X99147380Y-58507380D01*
X99623571Y-58507380D01*
X99956904Y-59459761D02*
X100099761Y-59507380D01*
X100337857Y-59507380D01*
X100433095Y-59459761D01*
X100480714Y-59412142D01*
X100528333Y-59316904D01*
X100528333Y-59221666D01*
X100480714Y-59126428D01*
X100433095Y-59078809D01*
X100337857Y-59031190D01*
X100147380Y-58983571D01*
X100052142Y-58935952D01*
X100004523Y-58888333D01*
X99956904Y-58793095D01*
X99956904Y-58697857D01*
X100004523Y-58602619D01*
X100052142Y-58555000D01*
X100147380Y-58507380D01*
X100385476Y-58507380D01*
X100528333Y-58555000D01*
X100956904Y-58983571D02*
X101290238Y-58983571D01*
X101433095Y-59507380D02*
X100956904Y-59507380D01*
X100956904Y-58507380D01*
X101433095Y-58507380D01*
X101718809Y-58507380D02*
X102290238Y-58507380D01*
X102004523Y-59507380D02*
X102004523Y-58507380D01*
%TO.C,U2*%
X111238095Y-53327380D02*
X111238095Y-54136904D01*
X111285714Y-54232142D01*
X111333333Y-54279761D01*
X111428571Y-54327380D01*
X111619047Y-54327380D01*
X111714285Y-54279761D01*
X111761904Y-54232142D01*
X111809523Y-54136904D01*
X111809523Y-53327380D01*
X112238095Y-53422619D02*
X112285714Y-53375000D01*
X112380952Y-53327380D01*
X112619047Y-53327380D01*
X112714285Y-53375000D01*
X112761904Y-53422619D01*
X112809523Y-53517857D01*
X112809523Y-53613095D01*
X112761904Y-53755952D01*
X112190476Y-54327380D01*
X112809523Y-54327380D01*
%TO.C,U1*%
X104238095Y-51452380D02*
X104238095Y-52261904D01*
X104285714Y-52357142D01*
X104333333Y-52404761D01*
X104428571Y-52452380D01*
X104619047Y-52452380D01*
X104714285Y-52404761D01*
X104761904Y-52357142D01*
X104809523Y-52261904D01*
X104809523Y-51452380D01*
X105809523Y-52452380D02*
X105238095Y-52452380D01*
X105523809Y-52452380D02*
X105523809Y-51452380D01*
X105428571Y-51595238D01*
X105333333Y-51690476D01*
X105238095Y-51738095D01*
D11*
%TO.C,J3*%
X122330000Y-47350000D02*
X119670000Y-47350000D01*
X122330000Y-55030000D02*
X122330000Y-47350000D01*
X119670000Y-55030000D02*
X119670000Y-47350000D01*
X122330000Y-55030000D02*
X119670000Y-55030000D01*
X122330000Y-56300000D02*
X122330000Y-57630000D01*
X122330000Y-57630000D02*
X121000000Y-57630000D01*
%TO.C,J2*%
X96670000Y-57650000D02*
X99330000Y-57650000D01*
X96670000Y-49970000D02*
X96670000Y-57650000D01*
X99330000Y-49970000D02*
X99330000Y-57650000D01*
X96670000Y-49970000D02*
X99330000Y-49970000D01*
X96670000Y-48700000D02*
X96670000Y-47370000D01*
X96670000Y-47370000D02*
X98000000Y-47370000D01*
%TO.C,J1*%
X110730000Y-61670000D02*
X110730000Y-64330000D01*
X113330000Y-61670000D02*
X110730000Y-61670000D01*
X113330000Y-64330000D02*
X110730000Y-64330000D01*
X113330000Y-61670000D02*
X113330000Y-64330000D01*
X114600000Y-61670000D02*
X115930000Y-61670000D01*
X115930000Y-61670000D02*
X115930000Y-63000000D01*
%TO.C,U3*%
X118060000Y-51875000D02*
X118060000Y-51225000D01*
X118060000Y-51875000D02*
X118060000Y-52525000D01*
X114940000Y-51875000D02*
X114940000Y-51225000D01*
X114940000Y-51875000D02*
X114940000Y-53550000D01*
%TO.C,U2*%
X114310000Y-53875000D02*
X114310000Y-50425000D01*
X114310000Y-53875000D02*
X114310000Y-55825000D01*
X109190000Y-53875000D02*
X109190000Y-51925000D01*
X109190000Y-53875000D02*
X109190000Y-55825000D01*
%TO.C,U1*%
X102440000Y-52000000D02*
X102440000Y-53950000D01*
X102440000Y-52000000D02*
X102440000Y-50050000D01*
X107560000Y-52000000D02*
X107560000Y-53950000D01*
X107560000Y-52000000D02*
X107560000Y-48550000D01*
%TO.C,RV2*%
X105065000Y-40365000D02*
X111905000Y-40365000D01*
X105065000Y-47605000D02*
X111905000Y-47605000D01*
X111905000Y-43275000D02*
X111905000Y-40365000D01*
X111905000Y-47605000D02*
X111905000Y-44575000D01*
X105065000Y-43275000D02*
X105065000Y-40365000D01*
X105065000Y-47605000D02*
X105065000Y-44575000D01*
%TO.C,RV1*%
X102695000Y-58540000D02*
X105725000Y-58540000D01*
X107025000Y-58540000D02*
X109935000Y-58540000D01*
X102695000Y-65380000D02*
X105725000Y-65380000D01*
X107025000Y-65380000D02*
X109935000Y-65380000D01*
X102695000Y-58540000D02*
X102695000Y-65380000D01*
X109935000Y-58540000D02*
X109935000Y-65380000D01*
%TO.C,R18*%
X116096359Y-48995000D02*
X116403641Y-48995000D01*
X116096359Y-49755000D02*
X116403641Y-49755000D01*
%TO.C,R17*%
X115130000Y-49028641D02*
X115130000Y-48721359D01*
X114370000Y-49028641D02*
X114370000Y-48721359D01*
%TO.C,R14*%
X112846359Y-48245000D02*
X113153641Y-48245000D01*
X112846359Y-49005000D02*
X113153641Y-49005000D01*
%TO.C,R13*%
X108880000Y-54596359D02*
X108880000Y-54903641D01*
X108120000Y-54596359D02*
X108120000Y-54903641D01*
%TO.C,R12*%
X108880000Y-52596359D02*
X108880000Y-52903641D01*
X108120000Y-52596359D02*
X108120000Y-52903641D01*
%TO.C,R11*%
X108846359Y-48870000D02*
X109153641Y-48870000D01*
X108846359Y-49630000D02*
X109153641Y-49630000D01*
%TO.C,R8*%
X104356359Y-56120000D02*
X104663641Y-56120000D01*
X104356359Y-56880000D02*
X104663641Y-56880000D01*
%TO.C,R7*%
X103653641Y-47380000D02*
X103346359Y-47380000D01*
X103653641Y-46620000D02*
X103346359Y-46620000D01*
%TO.C,R5*%
X100846359Y-54880000D02*
X101153641Y-54880000D01*
X100846359Y-54120000D02*
X101153641Y-54120000D01*
%TO.C,R4*%
X100856359Y-52380000D02*
X101163641Y-52380000D01*
X100856359Y-51620000D02*
X101163641Y-51620000D01*
%TO.C,R3*%
X115346359Y-59120000D02*
X115653641Y-59120000D01*
X115346359Y-59880000D02*
X115653641Y-59880000D01*
%TO.C,R2*%
X114653641Y-46620000D02*
X114346359Y-46620000D01*
X114653641Y-47380000D02*
X114346359Y-47380000D01*
%TO.C,R1*%
X116346359Y-58120000D02*
X116653641Y-58120000D01*
X116346359Y-58880000D02*
X116653641Y-58880000D01*
%TO.C,Q2*%
X114940000Y-56000000D02*
X114940000Y-57675000D01*
X114940000Y-56000000D02*
X114940000Y-55350000D01*
X118060000Y-56000000D02*
X118060000Y-56650000D01*
X118060000Y-56000000D02*
X118060000Y-55350000D01*
%TO.C,Q1*%
X116060000Y-44500000D02*
X116060000Y-43850000D01*
X116060000Y-44500000D02*
X116060000Y-45150000D01*
X112940000Y-44500000D02*
X112940000Y-43850000D01*
X112940000Y-44500000D02*
X112940000Y-46175000D01*
%TO.C,C10*%
X116142164Y-48015000D02*
X116357836Y-48015000D01*
X116142164Y-48735000D02*
X116357836Y-48735000D01*
%TO.C,C9*%
X113142164Y-57765000D02*
X113357836Y-57765000D01*
X113142164Y-58485000D02*
X113357836Y-58485000D01*
%TO.C,C8*%
X112892164Y-49265000D02*
X113107836Y-49265000D01*
X112892164Y-49985000D02*
X113107836Y-49985000D01*
%TO.C,C7*%
X107872164Y-55890000D02*
X108087836Y-55890000D01*
X107872164Y-56610000D02*
X108087836Y-56610000D01*
%TO.C,C6*%
X106140000Y-56857836D02*
X106140000Y-56642164D01*
X106860000Y-56857836D02*
X106860000Y-56642164D01*
%TO.C,C5*%
X107872164Y-56890000D02*
X108087836Y-56890000D01*
X107872164Y-57610000D02*
X108087836Y-57610000D01*
%TO.C,C4*%
X104402164Y-57140000D02*
X104617836Y-57140000D01*
X104402164Y-57860000D02*
X104617836Y-57860000D01*
%TO.C,C3*%
X103392164Y-45640000D02*
X103607836Y-45640000D01*
X103392164Y-46360000D02*
X103607836Y-46360000D01*
%TO.C,C2*%
X100902164Y-57360000D02*
X101117836Y-57360000D01*
X100902164Y-56640000D02*
X101117836Y-56640000D01*
%TO.C,C1*%
X100892164Y-49860000D02*
X101107836Y-49860000D01*
X100892164Y-49140000D02*
X101107836Y-49140000D01*
%TD*%
M02*
