%TF.GenerationSoftware,KiCad,Pcbnew,(6.0.0)*%
%TF.CreationDate,2022-02-09T06:53:37-08:00*%
%TF.ProjectId,depth-sensor,64657074-682d-4736-956e-736f722e6b69,1*%
%TF.SameCoordinates,Original*%
%TF.FileFunction,Soldermask,Top*%
%TF.FilePolarity,Negative*%
%FSLAX46Y46*%
G04 Gerber Fmt 4.6, Leading zero omitted, Abs format (unit mm)*
G04 Created by KiCad (PCBNEW (6.0.0)) date 2022-02-09 06:53:37*
%MOMM*%
%LPD*%
G01*
G04 APERTURE LIST*
G04 Aperture macros list*
%AMRoundRect*
0 Rectangle with rounded corners*
0 $1 Rounding radius*
0 $2 $3 $4 $5 $6 $7 $8 $9 X,Y pos of 4 corners*
0 Add a 4 corners polygon primitive as box body*
4,1,4,$2,$3,$4,$5,$6,$7,$8,$9,$2,$3,0*
0 Add four circle primitives for the rounded corners*
1,1,$1+$1,$2,$3*
1,1,$1+$1,$4,$5*
1,1,$1+$1,$6,$7*
1,1,$1+$1,$8,$9*
0 Add four rect primitives between the rounded corners*
20,1,$1+$1,$2,$3,$4,$5,0*
20,1,$1+$1,$4,$5,$6,$7,0*
20,1,$1+$1,$6,$7,$8,$9,0*
20,1,$1+$1,$8,$9,$2,$3,0*%
G04 Aperture macros list end*
%ADD10R,1.700000X1.700000*%
%ADD11O,1.700000X1.700000*%
%ADD12C,3.200000*%
%ADD13RoundRect,0.150000X0.150000X-0.587500X0.150000X0.587500X-0.150000X0.587500X-0.150000X-0.587500X0*%
%ADD14RoundRect,0.150000X-0.150000X0.675000X-0.150000X-0.675000X0.150000X-0.675000X0.150000X0.675000X0*%
%ADD15C,1.440000*%
%ADD16RoundRect,0.135000X-0.135000X-0.185000X0.135000X-0.185000X0.135000X0.185000X-0.135000X0.185000X0*%
%ADD17RoundRect,0.135000X0.185000X-0.135000X0.185000X0.135000X-0.185000X0.135000X-0.185000X-0.135000X0*%
%ADD18RoundRect,0.135000X-0.185000X0.135000X-0.185000X-0.135000X0.185000X-0.135000X0.185000X0.135000X0*%
%ADD19RoundRect,0.135000X0.135000X0.185000X-0.135000X0.185000X-0.135000X-0.185000X0.135000X-0.185000X0*%
%ADD20RoundRect,0.140000X-0.140000X-0.170000X0.140000X-0.170000X0.140000X0.170000X-0.140000X0.170000X0*%
%ADD21RoundRect,0.140000X0.170000X-0.140000X0.170000X0.140000X-0.170000X0.140000X-0.170000X-0.140000X0*%
G04 APERTURE END LIST*
D10*
%TO.C,J3*%
X121000000Y-56300000D03*
D11*
X121000000Y-53760000D03*
X121000000Y-51220000D03*
X121000000Y-48680000D03*
%TD*%
D10*
%TO.C,J2*%
X98000000Y-48700000D03*
D11*
X98000000Y-51240000D03*
X98000000Y-53780000D03*
X98000000Y-56320000D03*
%TD*%
D10*
%TO.C,J1*%
X114600000Y-63000000D03*
D11*
X112060000Y-63000000D03*
%TD*%
D12*
%TO.C,H4*%
X120000000Y-62000000D03*
%TD*%
%TO.C,H3*%
X120000000Y-43000000D03*
%TD*%
%TO.C,H2*%
X99000000Y-62000000D03*
%TD*%
%TO.C,H1*%
X99000000Y-43000000D03*
%TD*%
D13*
%TO.C,U3*%
X115550000Y-52812500D03*
X117450000Y-52812500D03*
X116500000Y-50937500D03*
%TD*%
D14*
%TO.C,U2*%
X113655000Y-56500000D03*
X112385000Y-56500000D03*
X111115000Y-56500000D03*
X109845000Y-56500000D03*
X109845000Y-51250000D03*
X111115000Y-51250000D03*
X112385000Y-51250000D03*
X113655000Y-51250000D03*
%TD*%
%TO.C,U1*%
X106905000Y-49375000D03*
X105635000Y-49375000D03*
X104365000Y-49375000D03*
X103095000Y-49375000D03*
X103095000Y-54625000D03*
X104365000Y-54625000D03*
X105635000Y-54625000D03*
X106905000Y-54625000D03*
%TD*%
D15*
%TO.C,RV2*%
X111025000Y-43925000D03*
X108485000Y-41385000D03*
X105945000Y-43925000D03*
%TD*%
%TO.C,RV1*%
X106375000Y-59420000D03*
X108915000Y-61960000D03*
X106375000Y-64500000D03*
%TD*%
D16*
%TO.C,R18*%
X115740000Y-49375000D03*
X116760000Y-49375000D03*
%TD*%
D17*
%TO.C,R17*%
X114750000Y-48365000D03*
X114750000Y-49385000D03*
%TD*%
D16*
%TO.C,R14*%
X112490000Y-48625000D03*
X113510000Y-48625000D03*
%TD*%
D18*
%TO.C,R13*%
X108500000Y-54240000D03*
X108500000Y-55260000D03*
%TD*%
%TO.C,R12*%
X108500000Y-52240000D03*
X108500000Y-53260000D03*
%TD*%
D16*
%TO.C,R11*%
X108490000Y-49250000D03*
X109510000Y-49250000D03*
%TD*%
%TO.C,R8*%
X104000000Y-56500000D03*
X105020000Y-56500000D03*
%TD*%
D19*
%TO.C,R7*%
X104010000Y-47000000D03*
X102990000Y-47000000D03*
%TD*%
D16*
%TO.C,R5*%
X101510000Y-54500000D03*
X100490000Y-54500000D03*
%TD*%
%TO.C,R4*%
X101520000Y-52000000D03*
X100500000Y-52000000D03*
%TD*%
%TO.C,R3*%
X114990000Y-59500000D03*
X116010000Y-59500000D03*
%TD*%
D19*
%TO.C,R2*%
X113990000Y-47000000D03*
X115010000Y-47000000D03*
%TD*%
D16*
%TO.C,R1*%
X115990000Y-58500000D03*
X117010000Y-58500000D03*
%TD*%
D13*
%TO.C,Q2*%
X116500000Y-55062500D03*
X117450000Y-56937500D03*
X115550000Y-56937500D03*
%TD*%
%TO.C,Q1*%
X113550000Y-45437500D03*
X115450000Y-45437500D03*
X114500000Y-43562500D03*
%TD*%
D20*
%TO.C,C10*%
X115770000Y-48375000D03*
X116730000Y-48375000D03*
%TD*%
%TO.C,C9*%
X112770000Y-58125000D03*
X113730000Y-58125000D03*
%TD*%
%TO.C,C8*%
X112520000Y-49625000D03*
X113480000Y-49625000D03*
%TD*%
%TO.C,C7*%
X107500000Y-56250000D03*
X108460000Y-56250000D03*
%TD*%
D21*
%TO.C,C6*%
X106500000Y-57230000D03*
X106500000Y-56270000D03*
%TD*%
D20*
%TO.C,C5*%
X107500000Y-57250000D03*
X108460000Y-57250000D03*
%TD*%
%TO.C,C4*%
X104030000Y-57500000D03*
X104990000Y-57500000D03*
%TD*%
%TO.C,C3*%
X103020000Y-46000000D03*
X103980000Y-46000000D03*
%TD*%
%TO.C,C2*%
X101490000Y-57000000D03*
X100530000Y-57000000D03*
%TD*%
%TO.C,C1*%
X101480000Y-49500000D03*
X100520000Y-49500000D03*
%TD*%
M02*
