M48
; DRILL file {KiCad (6.0.0)} date Wed Feb  9 06:53:40 2022
; FORMAT={-:-/ absolute / inch / decimal}
; #@! TF.CreationDate,2022-02-09T06:53:40-08:00
; #@! TF.GenerationSoftware,Kicad,Pcbnew,(6.0.0)
; #@! TF.FileFunction,MixedPlating,1,2
FMAT,2
INCH
; #@! TA.AperFunction,Plated,PTH,ViaDrill
T1C0.0157
; #@! TA.AperFunction,Plated,PTH,ComponentDrill
T2C0.0315
; #@! TA.AperFunction,Plated,PTH,ComponentDrill
T3C0.0394
; #@! TA.AperFunction,NonPlated,NPTH,ComponentDrill
T4C0.1260
%
G90
G05
T1
X4.125Y-2.125
X4.175Y-2.225
X4.275Y-1.8
X4.325Y-2.05
X4.375Y-1.625
X4.3898Y-1.8307
X4.4291Y-1.8504
X4.475Y-2.15
X4.5082Y-2.2835
T2
X4.1711Y-1.7293
X4.188Y-2.3394
X4.188Y-2.5394
X4.2711Y-1.6293
X4.288Y-2.4394
X4.3711Y-1.7293
T3
X3.8583Y-1.9173
X3.8583Y-2.0173
X3.8583Y-2.1173
X3.8583Y-2.2173
X4.4118Y-2.4803
X4.5118Y-2.4803
X4.7638Y-1.9165
X4.7638Y-2.0165
X4.7638Y-2.1165
X4.7638Y-2.2165
T4
X3.8976Y-1.6929
X3.8976Y-2.4409
X4.7244Y-1.6929
X4.7244Y-2.4409
T0
M30
