%TF.GenerationSoftware,KiCad,Pcbnew,(6.0.1)*%
%TF.CreationDate,2022-04-08T22:05:58-07:00*%
%TF.ProjectId,well-depth-battery,77656c6c-2d64-4657-9074-682d62617474,1*%
%TF.SameCoordinates,Original*%
%TF.FileFunction,Copper,L2,Bot*%
%TF.FilePolarity,Positive*%
%FSLAX46Y46*%
G04 Gerber Fmt 4.6, Leading zero omitted, Abs format (unit mm)*
G04 Created by KiCad (PCBNEW (6.0.1)) date 2022-04-08 22:05:58*
%MOMM*%
%LPD*%
G01*
G04 APERTURE LIST*
%TA.AperFunction,ComponentPad*%
%ADD10R,1.700000X1.700000*%
%TD*%
%TA.AperFunction,ComponentPad*%
%ADD11O,1.700000X1.700000*%
%TD*%
%TA.AperFunction,ComponentPad*%
%ADD12R,1.300000X1.300000*%
%TD*%
%TA.AperFunction,ComponentPad*%
%ADD13C,1.300000*%
%TD*%
%TA.AperFunction,ComponentPad*%
%ADD14O,1.900000X2.900000*%
%TD*%
%TA.AperFunction,ComponentPad*%
%ADD15O,2.900000X1.900000*%
%TD*%
%TA.AperFunction,ViaPad*%
%ADD16C,0.600000*%
%TD*%
%TA.AperFunction,Conductor*%
%ADD17C,0.400000*%
%TD*%
%TA.AperFunction,Conductor*%
%ADD18C,0.200000*%
%TD*%
G04 APERTURE END LIST*
D10*
%TO.P,J4,1,Pin_1*%
%TO.N,/TXD*%
X78750000Y-78500000D03*
D11*
%TO.P,J4,2,Pin_2*%
%TO.N,/RXD*%
X81290000Y-78500000D03*
%TD*%
D12*
%TO.P,J5,1,VBUS*%
%TO.N,unconnected-(J5-Pad1)*%
X82500000Y-118000000D03*
D13*
%TO.P,J5,2,D-*%
%TO.N,/USB_D-*%
X85000000Y-118000000D03*
%TO.P,J5,3,D+*%
%TO.N,/USB_D+*%
X87000000Y-118000000D03*
%TO.P,J5,4,GND*%
%TO.N,GND*%
X89500000Y-118000000D03*
D14*
%TO.P,J5,5,Shield*%
X92570000Y-117400000D03*
X79430000Y-117400000D03*
D15*
X86000000Y-113220000D03*
%TD*%
D10*
%TO.P,J2,1,Pin_1*%
%TO.N,VDD*%
X73750000Y-84500000D03*
D11*
%TO.P,J2,2,Pin_2*%
%TO.N,Net-(J2-Pad2)*%
X76290000Y-84500000D03*
%TO.P,J2,3,Pin_3*%
%TO.N,Net-(J2-Pad3)*%
X78830000Y-84500000D03*
%TO.P,J2,4,Pin_4*%
%TO.N,GND*%
X81370000Y-84500000D03*
%TD*%
D10*
%TO.P,J3,1,Pin_1*%
%TO.N,+3V3*%
X85750000Y-78500000D03*
D11*
%TO.P,J3,2,Pin_2*%
%TO.N,/SWCLK*%
X88290000Y-78500000D03*
%TO.P,J3,3,Pin_3*%
%TO.N,/SWDIO*%
X90830000Y-78500000D03*
%TO.P,J3,4,Pin_4*%
%TO.N,GND*%
X93370000Y-78500000D03*
%TD*%
D10*
%TO.P,J1,1,Pin_1*%
%TO.N,+9V*%
X104780000Y-89855000D03*
D11*
%TO.P,J1,2,Pin_2*%
%TO.N,GND*%
X104780000Y-92395000D03*
%TD*%
D16*
%TO.N,GND*%
X104700000Y-99300000D03*
X71000000Y-85000000D03*
%TO.N,+9V*%
X92000000Y-96750000D03*
X101500000Y-96250000D03*
%TO.N,/SWDIO*%
X102000000Y-94000000D03*
%TO.N,Net-(D2-Pad2)*%
X97750000Y-87000000D03*
X93750000Y-96000000D03*
%TO.N,GND*%
X92500000Y-95750000D03*
X86000000Y-84000000D03*
X99250000Y-107250000D03*
X93250000Y-105750000D03*
%TO.N,VDD*%
X101000000Y-106500000D03*
%TO.N,/USB_D-*%
X105698608Y-96051599D03*
%TO.N,/USB_D+*%
X106200989Y-95429652D03*
%TO.N,VDD*%
X100500000Y-100000000D03*
%TO.N,Net-(C10-Pad2)*%
X97000000Y-96500000D03*
X101500000Y-90000000D03*
%TO.N,+3V3*%
X93500000Y-85750000D03*
X89500903Y-81799010D03*
%TO.N,/SWCLK*%
X97000000Y-92500000D03*
%TO.N,/A_ON*%
X105500000Y-101250000D03*
X104250000Y-95250000D03*
%TO.N,/TXD*%
X93500000Y-87750000D03*
%TO.N,/RXD*%
X96050500Y-89750000D03*
%TO.N,Net-(C2-Pad2)*%
X85903880Y-95403880D03*
X100750000Y-109750000D03*
%TO.N,Net-(C1-Pad2)*%
X98550500Y-109930110D03*
X85000000Y-104000000D03*
%TO.N,GND*%
X74750000Y-82500000D03*
%TD*%
D17*
%TO.N,GND*%
X103100000Y-94300000D02*
X104780000Y-92620000D01*
X104780000Y-92620000D02*
X104780000Y-92395000D01*
X103100000Y-96800000D02*
X103100000Y-94300000D01*
X104700000Y-99300000D02*
X104700000Y-98400000D01*
X104700000Y-98400000D02*
X103100000Y-96800000D01*
D18*
%TO.N,/USB_D+*%
X106200989Y-95632790D02*
X106200989Y-95429652D01*
X108500000Y-97931801D02*
X106200989Y-95632790D01*
X108500000Y-104318200D02*
X108500000Y-97931801D01*
X100843200Y-111975000D02*
X108500000Y-104318200D01*
X91025000Y-111975000D02*
X100843200Y-111975000D01*
X87000000Y-116000000D02*
X91025000Y-111975000D01*
%TO.N,/USB_D-*%
X108100489Y-104081311D02*
X108100489Y-98453480D01*
X108100489Y-98453480D02*
X105698608Y-96051599D01*
X85000000Y-117080762D02*
X90555762Y-111525000D01*
X90555762Y-111525000D02*
X100656800Y-111525000D01*
%TO.N,/USB_D+*%
X87000000Y-118000000D02*
X87000000Y-116000000D01*
%TO.N,/USB_D-*%
X85000000Y-118000000D02*
X85000000Y-117080762D01*
X100656800Y-111525000D02*
X108100489Y-104081311D01*
D17*
%TO.N,/TXD*%
X92500978Y-87750000D02*
X93500000Y-87750000D01*
X84000000Y-78500000D02*
X84000000Y-79249022D01*
X84000000Y-79249022D02*
X92500978Y-87750000D01*
X82250000Y-76750000D02*
X84000000Y-78500000D01*
X80500000Y-76750000D02*
X82250000Y-76750000D01*
X78750000Y-78500000D02*
X80500000Y-76750000D01*
%TO.N,+9V*%
X92750000Y-97500000D02*
X92000000Y-96750000D01*
X95000000Y-97500000D02*
X92750000Y-97500000D01*
%TO.N,VDD*%
X75250000Y-86000000D02*
X73750000Y-84500000D01*
X82902164Y-86000000D02*
X75250000Y-86000000D01*
X85400489Y-88498325D02*
X82902164Y-86000000D01*
%TO.N,+9V*%
X101500000Y-96250000D02*
X100250000Y-97500000D01*
%TO.N,VDD*%
X94260755Y-100000000D02*
X85400489Y-91139734D01*
%TO.N,+9V*%
X100250000Y-97500000D02*
X95000000Y-97500000D01*
%TO.N,VDD*%
X97500000Y-100000000D02*
X94260755Y-100000000D01*
X85400489Y-91139734D02*
X85400489Y-88498325D01*
%TO.N,/A_ON*%
X104500000Y-96250000D02*
X104500000Y-95500000D01*
X104500000Y-95500000D02*
X104250000Y-95250000D01*
X106000000Y-97750000D02*
X104500000Y-96250000D01*
X106000000Y-100750000D02*
X106000000Y-97750000D01*
X105500000Y-101250000D02*
X106000000Y-100750000D01*
%TO.N,/SWCLK*%
X98449501Y-91050499D02*
X97000000Y-92500000D01*
X98449501Y-86710256D02*
X98449501Y-91050499D01*
X92989245Y-81250000D02*
X98449501Y-86710256D01*
%TO.N,Net-(D2-Pad2)*%
X97750000Y-90000000D02*
X97750000Y-87000000D01*
X93750000Y-94000000D02*
X97750000Y-90000000D01*
X93750000Y-96000000D02*
X93750000Y-94000000D01*
%TO.N,/SWCLK*%
X88290000Y-78500000D02*
X91040000Y-81250000D01*
X91040000Y-81250000D02*
X92989245Y-81250000D01*
%TO.N,/SWDIO*%
X99000000Y-80000000D02*
X99500000Y-80500000D01*
X92330000Y-80000000D02*
X99000000Y-80000000D01*
X90830000Y-78500000D02*
X92330000Y-80000000D01*
X102750000Y-83750000D02*
X99250000Y-80250000D01*
X102750000Y-93250000D02*
X102750000Y-83750000D01*
X102000000Y-94000000D02*
X102750000Y-93250000D01*
%TO.N,+3V3*%
X89049010Y-81799010D02*
X89500903Y-81799010D01*
X85750000Y-78500000D02*
X89049010Y-81799010D01*
X89549010Y-81799010D02*
X89500903Y-81799010D01*
X93500000Y-85750000D02*
X89549010Y-81799010D01*
%TO.N,Net-(C10-Pad2)*%
X96500000Y-96000000D02*
X97000000Y-96500000D01*
X96500000Y-94250000D02*
X96500000Y-96000000D01*
X97347836Y-93402164D02*
X96500000Y-94250000D01*
X98279157Y-93402164D02*
X97347836Y-93402164D01*
X101500000Y-90000000D02*
X101500000Y-90181321D01*
X101500000Y-90181321D02*
X98279157Y-93402164D01*
%TO.N,/RXD*%
X92739245Y-89750000D02*
X96050500Y-89750000D01*
X81489245Y-78500000D02*
X92739245Y-89750000D01*
X81290000Y-78500000D02*
X81489245Y-78500000D01*
%TO.N,GND*%
X86000000Y-84000000D02*
X86000000Y-89250000D01*
X86000000Y-89250000D02*
X92500000Y-95750000D01*
X81370000Y-84500000D02*
X85500000Y-84500000D01*
X85500000Y-84500000D02*
X86000000Y-84000000D01*
%TO.N,VDD*%
X100000000Y-106500000D02*
X101000000Y-106500000D01*
X97500000Y-104000000D02*
X100000000Y-106500000D01*
X97500000Y-100000000D02*
X97500000Y-104000000D01*
%TO.N,Net-(C2-Pad2)*%
X91849510Y-108849510D02*
X99849510Y-108849510D01*
X85903880Y-102903880D02*
X91849510Y-108849510D01*
X85903880Y-95403880D02*
X85903880Y-102903880D01*
X99849510Y-108849510D02*
X100750000Y-109750000D01*
%TO.N,GND*%
X97750000Y-105750000D02*
X99250000Y-107250000D01*
X93250000Y-105750000D02*
X97750000Y-105750000D01*
%TO.N,Net-(C1-Pad2)*%
X85000000Y-104000000D02*
X91000000Y-110000000D01*
X98480610Y-110000000D02*
X98550500Y-109930110D01*
X91000000Y-110000000D02*
X98480610Y-110000000D01*
%TO.N,VDD*%
X100500000Y-100000000D02*
X97500000Y-100000000D01*
%TO.N,GND*%
X74750000Y-82500000D02*
X79370000Y-82500000D01*
X79370000Y-82500000D02*
X81370000Y-84500000D01*
%TD*%
%TA.AperFunction,Conductor*%
%TO.N,GND*%
G36*
X84645913Y-104730965D02*
G01*
X84752443Y-104770583D01*
X84797614Y-104799584D01*
X90478557Y-110480528D01*
X90484411Y-110486793D01*
X90522439Y-110530385D01*
X90574729Y-110567136D01*
X90579971Y-110571028D01*
X90630282Y-110610476D01*
X90637201Y-110613600D01*
X90639493Y-110614988D01*
X90654165Y-110623357D01*
X90656525Y-110624622D01*
X90662739Y-110628990D01*
X90669818Y-110631750D01*
X90669820Y-110631751D01*
X90722275Y-110652202D01*
X90728344Y-110654753D01*
X90774656Y-110675664D01*
X90828510Y-110721927D01*
X90848803Y-110789962D01*
X90829092Y-110858167D01*
X90775635Y-110904889D01*
X90722804Y-110916500D01*
X90603898Y-110916500D01*
X90587455Y-110915422D01*
X90555762Y-110911250D01*
X90547573Y-110912328D01*
X90515888Y-110916499D01*
X90515879Y-110916500D01*
X90515877Y-110916500D01*
X90515871Y-110916501D01*
X90515869Y-110916501D01*
X90416305Y-110929609D01*
X90405098Y-110931084D01*
X90405096Y-110931085D01*
X90396911Y-110932162D01*
X90248886Y-110993476D01*
X90153690Y-111066523D01*
X90153687Y-111066526D01*
X90121775Y-111091013D01*
X90116745Y-111097568D01*
X90102310Y-111116379D01*
X90091443Y-111128770D01*
X88154386Y-113065827D01*
X88092074Y-113099853D01*
X88021259Y-113094788D01*
X87964423Y-113052241D01*
X87940741Y-112995791D01*
X87923950Y-112886067D01*
X87921561Y-112876039D01*
X87850290Y-112657984D01*
X87846293Y-112648475D01*
X87740367Y-112444993D01*
X87734873Y-112436268D01*
X87597131Y-112252813D01*
X87590288Y-112245106D01*
X87424431Y-112086609D01*
X87416425Y-112080126D01*
X87226906Y-111950845D01*
X87217947Y-111945756D01*
X87009855Y-111849163D01*
X87000187Y-111845606D01*
X86779121Y-111784299D01*
X86769001Y-111782368D01*
X86581748Y-111762356D01*
X86575056Y-111762000D01*
X86272115Y-111762000D01*
X86256876Y-111766475D01*
X86255671Y-111767865D01*
X86254000Y-111775548D01*
X86254000Y-114659885D01*
X86258475Y-114675124D01*
X86259865Y-114676329D01*
X86267659Y-114678024D01*
X86329972Y-114712048D01*
X86363998Y-114774359D01*
X86358935Y-114845175D01*
X86329973Y-114890240D01*
X84603766Y-116616447D01*
X84591375Y-116627314D01*
X84566013Y-116646775D01*
X84541526Y-116678687D01*
X84541523Y-116678690D01*
X84541517Y-116678698D01*
X84475367Y-116764906D01*
X84468476Y-116773886D01*
X84437247Y-116849279D01*
X84420525Y-116889650D01*
X84410321Y-116914284D01*
X84410320Y-116914288D01*
X84407162Y-116921912D01*
X84406085Y-116930094D01*
X84406084Y-116930097D01*
X84403330Y-116951017D01*
X84374607Y-117015944D01*
X84342832Y-117042855D01*
X84329922Y-117050536D01*
X84316134Y-117058739D01*
X84156054Y-117199125D01*
X84024238Y-117366333D01*
X84021549Y-117371444D01*
X84021547Y-117371447D01*
X83967085Y-117474961D01*
X83925100Y-117554762D01*
X83912956Y-117593873D01*
X83904832Y-117620036D01*
X83865529Y-117679161D01*
X83800500Y-117707651D01*
X83730391Y-117696461D01*
X83677461Y-117649144D01*
X83658500Y-117582671D01*
X83658500Y-117301866D01*
X83651745Y-117239684D01*
X83600615Y-117103295D01*
X83513261Y-116986739D01*
X83396705Y-116899385D01*
X83260316Y-116848255D01*
X83198134Y-116841500D01*
X81801866Y-116841500D01*
X81739684Y-116848255D01*
X81603295Y-116899385D01*
X81486739Y-116986739D01*
X81399385Y-117103295D01*
X81348255Y-117239684D01*
X81341500Y-117301866D01*
X81341500Y-118698134D01*
X81348255Y-118760316D01*
X81399385Y-118896705D01*
X81486739Y-119013261D01*
X81603295Y-119100615D01*
X81739684Y-119151745D01*
X81801866Y-119158500D01*
X83198134Y-119158500D01*
X83260316Y-119151745D01*
X83396705Y-119100615D01*
X83513261Y-119013261D01*
X83600615Y-118896705D01*
X83651745Y-118760316D01*
X83658500Y-118698134D01*
X83658500Y-118428851D01*
X83678502Y-118360730D01*
X83732158Y-118314237D01*
X83802432Y-118304133D01*
X83867012Y-118333627D01*
X83902631Y-118385850D01*
X83903272Y-118388372D01*
X83905689Y-118393614D01*
X83905690Y-118393618D01*
X83970379Y-118533940D01*
X83992411Y-118581731D01*
X84115296Y-118755609D01*
X84267809Y-118904181D01*
X84272605Y-118907386D01*
X84272608Y-118907388D01*
X84377305Y-118977344D01*
X84444843Y-119022471D01*
X84450146Y-119024749D01*
X84450149Y-119024751D01*
X84635163Y-119104239D01*
X84640470Y-119106519D01*
X84704737Y-119121061D01*
X84842501Y-119152234D01*
X84842506Y-119152235D01*
X84848138Y-119153509D01*
X84853909Y-119153736D01*
X84853911Y-119153736D01*
X84915252Y-119156146D01*
X85060891Y-119161869D01*
X85066600Y-119161041D01*
X85066604Y-119161041D01*
X85265890Y-119132145D01*
X85265894Y-119132144D01*
X85271605Y-119131316D01*
X85473223Y-119062876D01*
X85658993Y-118958840D01*
X85822693Y-118822693D01*
X85851296Y-118788301D01*
X85901508Y-118727928D01*
X85960445Y-118688344D01*
X86031427Y-118686907D01*
X86091918Y-118724075D01*
X86101278Y-118735775D01*
X86110788Y-118749231D01*
X86115296Y-118755609D01*
X86267809Y-118904181D01*
X86272605Y-118907386D01*
X86272608Y-118907388D01*
X86377305Y-118977344D01*
X86444843Y-119022471D01*
X86450146Y-119024749D01*
X86450149Y-119024751D01*
X86635163Y-119104239D01*
X86640470Y-119106519D01*
X86704737Y-119121061D01*
X86842501Y-119152234D01*
X86842506Y-119152235D01*
X86848138Y-119153509D01*
X86853909Y-119153736D01*
X86853911Y-119153736D01*
X86915252Y-119156146D01*
X87060891Y-119161869D01*
X87066600Y-119161041D01*
X87066604Y-119161041D01*
X87265890Y-119132145D01*
X87265894Y-119132144D01*
X87271605Y-119131316D01*
X87473223Y-119062876D01*
X87625952Y-118977344D01*
X88887016Y-118977344D01*
X88896898Y-118989834D01*
X88940279Y-119018820D01*
X88950389Y-119024310D01*
X89135318Y-119103762D01*
X89146261Y-119107317D01*
X89342567Y-119151737D01*
X89353975Y-119153239D01*
X89555096Y-119161140D01*
X89566580Y-119160538D01*
X89765774Y-119131657D01*
X89776957Y-119128972D01*
X89967547Y-119064276D01*
X89978060Y-119059595D01*
X90104766Y-118988635D01*
X90114631Y-118978557D01*
X90111675Y-118970885D01*
X89512812Y-118372022D01*
X89498868Y-118364408D01*
X89497035Y-118364539D01*
X89490420Y-118368790D01*
X88893212Y-118965998D01*
X88887016Y-118977344D01*
X87625952Y-118977344D01*
X87658993Y-118958840D01*
X87822693Y-118822693D01*
X87958840Y-118658993D01*
X88062876Y-118473223D01*
X88131316Y-118271605D01*
X88131815Y-118271774D01*
X88165311Y-118213446D01*
X88228340Y-118180768D01*
X88299031Y-118187354D01*
X88354939Y-118231112D01*
X88374594Y-118273421D01*
X88402323Y-118382604D01*
X88406164Y-118393451D01*
X88490429Y-118576238D01*
X88496178Y-118586195D01*
X88509912Y-118605628D01*
X88520501Y-118614016D01*
X88533802Y-118606988D01*
X89127978Y-118012812D01*
X89134356Y-118001132D01*
X89864408Y-118001132D01*
X89864539Y-118002965D01*
X89868790Y-118009580D01*
X90466971Y-118607761D01*
X90479351Y-118614521D01*
X90485931Y-118609595D01*
X90559595Y-118478060D01*
X90564276Y-118467547D01*
X90628972Y-118276957D01*
X90631657Y-118265774D01*
X90660834Y-118064539D01*
X90661464Y-118057157D01*
X90662864Y-118003704D01*
X90662621Y-117996305D01*
X90659119Y-117958190D01*
X91112000Y-117958190D01*
X91112212Y-117963363D01*
X91126224Y-118133794D01*
X91127907Y-118143956D01*
X91183796Y-118366461D01*
X91187117Y-118376216D01*
X91278591Y-118586590D01*
X91283469Y-118595688D01*
X91408075Y-118788301D01*
X91414359Y-118796461D01*
X91568763Y-118966149D01*
X91576293Y-118973170D01*
X91756332Y-119115356D01*
X91764919Y-119121061D01*
X91965750Y-119231926D01*
X91975162Y-119236156D01*
X92191416Y-119312736D01*
X92201366Y-119315365D01*
X92298164Y-119332607D01*
X92311460Y-119331148D01*
X92315540Y-119318067D01*
X92824000Y-119318067D01*
X92827918Y-119331411D01*
X92842194Y-119333398D01*
X92903933Y-119323950D01*
X92913961Y-119321561D01*
X93132016Y-119250290D01*
X93141525Y-119246293D01*
X93345007Y-119140367D01*
X93353732Y-119134873D01*
X93537187Y-118997131D01*
X93544894Y-118990288D01*
X93703391Y-118824431D01*
X93709874Y-118816425D01*
X93839155Y-118626906D01*
X93844244Y-118617947D01*
X93940837Y-118409855D01*
X93944394Y-118400187D01*
X94005701Y-118179121D01*
X94007632Y-118169001D01*
X94027644Y-117981748D01*
X94028000Y-117975056D01*
X94028000Y-117672115D01*
X94023525Y-117656876D01*
X94022135Y-117655671D01*
X94014452Y-117654000D01*
X92842115Y-117654000D01*
X92826876Y-117658475D01*
X92825671Y-117659865D01*
X92824000Y-117667548D01*
X92824000Y-119318067D01*
X92315540Y-119318067D01*
X92316000Y-119316592D01*
X92316000Y-117672115D01*
X92311525Y-117656876D01*
X92310135Y-117655671D01*
X92302452Y-117654000D01*
X91130115Y-117654000D01*
X91114876Y-117658475D01*
X91113671Y-117659865D01*
X91112000Y-117667548D01*
X91112000Y-117958190D01*
X90659119Y-117958190D01*
X90644016Y-117793824D01*
X90641918Y-117782503D01*
X90587287Y-117588797D01*
X90583163Y-117578050D01*
X90494141Y-117397534D01*
X90490617Y-117391784D01*
X90480595Y-117384262D01*
X90468176Y-117391034D01*
X89872022Y-117987188D01*
X89864408Y-118001132D01*
X89134356Y-118001132D01*
X89135592Y-117998868D01*
X89135461Y-117997035D01*
X89131210Y-117990420D01*
X88531520Y-117390730D01*
X88519140Y-117383970D01*
X88513174Y-117388436D01*
X88428257Y-117549836D01*
X88423853Y-117560469D01*
X88369707Y-117734846D01*
X88330403Y-117793971D01*
X88265374Y-117822462D01*
X88195265Y-117811272D01*
X88142335Y-117763955D01*
X88128105Y-117731684D01*
X88087754Y-117588611D01*
X88087753Y-117588609D01*
X88086186Y-117583052D01*
X88075050Y-117560469D01*
X87994570Y-117397273D01*
X87992015Y-117392092D01*
X87986032Y-117384079D01*
X87899562Y-117268282D01*
X87864622Y-117221491D01*
X87708271Y-117076963D01*
X87703385Y-117073880D01*
X87703377Y-117073874D01*
X87667264Y-117051088D01*
X87641805Y-117022196D01*
X88886307Y-117022196D01*
X88889793Y-117030583D01*
X89487188Y-117627978D01*
X89501132Y-117635592D01*
X89502965Y-117635461D01*
X89509580Y-117631210D01*
X90012905Y-117127885D01*
X91112000Y-117127885D01*
X91116475Y-117143124D01*
X91117865Y-117144329D01*
X91125548Y-117146000D01*
X92297885Y-117146000D01*
X92313124Y-117141525D01*
X92314329Y-117140135D01*
X92316000Y-117132452D01*
X92316000Y-117127885D01*
X92824000Y-117127885D01*
X92828475Y-117143124D01*
X92829865Y-117144329D01*
X92837548Y-117146000D01*
X94009885Y-117146000D01*
X94025124Y-117141525D01*
X94026329Y-117140135D01*
X94028000Y-117132452D01*
X94028000Y-116841810D01*
X94027788Y-116836637D01*
X94013776Y-116666206D01*
X94012093Y-116656044D01*
X93956204Y-116433539D01*
X93952883Y-116423784D01*
X93861409Y-116213410D01*
X93856531Y-116204312D01*
X93731925Y-116011699D01*
X93725641Y-116003539D01*
X93571237Y-115833851D01*
X93563707Y-115826830D01*
X93383668Y-115684644D01*
X93375081Y-115678939D01*
X93291325Y-115632703D01*
X96390743Y-115632703D01*
X96391302Y-115636947D01*
X96391302Y-115636951D01*
X96396830Y-115678939D01*
X96428268Y-115917734D01*
X96504129Y-116195036D01*
X96505813Y-116198984D01*
X96609772Y-116442710D01*
X96616923Y-116459476D01*
X96691473Y-116584040D01*
X96748125Y-116678698D01*
X96764561Y-116706161D01*
X96944313Y-116930528D01*
X96964475Y-116949661D01*
X97135232Y-117111703D01*
X97152851Y-117128423D01*
X97386317Y-117296186D01*
X97390112Y-117298195D01*
X97390113Y-117298196D01*
X97411869Y-117309715D01*
X97640392Y-117430712D01*
X97664699Y-117439607D01*
X97853226Y-117508598D01*
X97910373Y-117529511D01*
X98191264Y-117590755D01*
X98219841Y-117593004D01*
X98414282Y-117608307D01*
X98414291Y-117608307D01*
X98416739Y-117608500D01*
X98572271Y-117608500D01*
X98574407Y-117608354D01*
X98574418Y-117608354D01*
X98782548Y-117594165D01*
X98782554Y-117594164D01*
X98786825Y-117593873D01*
X98791020Y-117593004D01*
X98791022Y-117593004D01*
X99000400Y-117549644D01*
X99068342Y-117535574D01*
X99339343Y-117439607D01*
X99481309Y-117366333D01*
X99591005Y-117309715D01*
X99591006Y-117309715D01*
X99594812Y-117307750D01*
X99598313Y-117305289D01*
X99598317Y-117305287D01*
X99824959Y-117146000D01*
X99830023Y-117142441D01*
X99968229Y-117014012D01*
X100037479Y-116949661D01*
X100037481Y-116949658D01*
X100040622Y-116946740D01*
X100222713Y-116724268D01*
X100372927Y-116479142D01*
X100397228Y-116423784D01*
X100486757Y-116219830D01*
X100488483Y-116215898D01*
X100567244Y-115939406D01*
X100607751Y-115654784D01*
X100607845Y-115636951D01*
X100609235Y-115371583D01*
X100609235Y-115371576D01*
X100609257Y-115367297D01*
X100571732Y-115082266D01*
X100495871Y-114804964D01*
X100433028Y-114657632D01*
X100384763Y-114544476D01*
X100384761Y-114544472D01*
X100383077Y-114540524D01*
X100235439Y-114293839D01*
X100055687Y-114069472D01*
X99847149Y-113871577D01*
X99613683Y-113703814D01*
X99591843Y-113692250D01*
X99568654Y-113679972D01*
X99359608Y-113569288D01*
X99109928Y-113477918D01*
X99093658Y-113471964D01*
X99093656Y-113471963D01*
X99089627Y-113470489D01*
X98808736Y-113409245D01*
X98777685Y-113406801D01*
X98585718Y-113391693D01*
X98585709Y-113391693D01*
X98583261Y-113391500D01*
X98427729Y-113391500D01*
X98425593Y-113391646D01*
X98425582Y-113391646D01*
X98217452Y-113405835D01*
X98217446Y-113405836D01*
X98213175Y-113406127D01*
X98208980Y-113406996D01*
X98208978Y-113406996D01*
X98072417Y-113435276D01*
X97931658Y-113464426D01*
X97660657Y-113560393D01*
X97405188Y-113692250D01*
X97401687Y-113694711D01*
X97401683Y-113694713D01*
X97391594Y-113701804D01*
X97169977Y-113857559D01*
X97154892Y-113871577D01*
X97022066Y-113995007D01*
X96959378Y-114053260D01*
X96777287Y-114275732D01*
X96627073Y-114520858D01*
X96625347Y-114524791D01*
X96625346Y-114524792D01*
X96558082Y-114678024D01*
X96511517Y-114784102D01*
X96510342Y-114788229D01*
X96510341Y-114788230D01*
X96481283Y-114890240D01*
X96432756Y-115060594D01*
X96392249Y-115345216D01*
X96392227Y-115349505D01*
X96392226Y-115349512D01*
X96390765Y-115628417D01*
X96390743Y-115632703D01*
X93291325Y-115632703D01*
X93174250Y-115568074D01*
X93164838Y-115563844D01*
X92948584Y-115487264D01*
X92938634Y-115484635D01*
X92841836Y-115467393D01*
X92828540Y-115468852D01*
X92824000Y-115483408D01*
X92824000Y-117127885D01*
X92316000Y-117127885D01*
X92316000Y-115481933D01*
X92312082Y-115468589D01*
X92297806Y-115466602D01*
X92236067Y-115476050D01*
X92226039Y-115478439D01*
X92007984Y-115549710D01*
X91998475Y-115553707D01*
X91794993Y-115659633D01*
X91786268Y-115665127D01*
X91602813Y-115802869D01*
X91595106Y-115809712D01*
X91436609Y-115975569D01*
X91430126Y-115983575D01*
X91300845Y-116173094D01*
X91295756Y-116182053D01*
X91199163Y-116390145D01*
X91195606Y-116399813D01*
X91134299Y-116620879D01*
X91132368Y-116630999D01*
X91112356Y-116818252D01*
X91112000Y-116824944D01*
X91112000Y-117127885D01*
X90012905Y-117127885D01*
X90106533Y-117034257D01*
X90113293Y-117021877D01*
X90107263Y-117013822D01*
X90032857Y-116966875D01*
X90022609Y-116961654D01*
X89835663Y-116887070D01*
X89824635Y-116883803D01*
X89627230Y-116844537D01*
X89615784Y-116843334D01*
X89414537Y-116840700D01*
X89403057Y-116841603D01*
X89204701Y-116875687D01*
X89193581Y-116878667D01*
X89004748Y-116948331D01*
X88994370Y-116953281D01*
X88895906Y-117011861D01*
X88886307Y-117022196D01*
X87641805Y-117022196D01*
X87620326Y-116997821D01*
X87608500Y-116944527D01*
X87608500Y-116304239D01*
X87628502Y-116236118D01*
X87645405Y-116215144D01*
X91240144Y-112620405D01*
X91302456Y-112586379D01*
X91329239Y-112583500D01*
X100795064Y-112583500D01*
X100811507Y-112584578D01*
X100843200Y-112588750D01*
X100851389Y-112587672D01*
X100883074Y-112583501D01*
X100883084Y-112583500D01*
X100883085Y-112583500D01*
X100982657Y-112570391D01*
X100993864Y-112568916D01*
X100993866Y-112568915D01*
X101002051Y-112567838D01*
X101150076Y-112506524D01*
X101245272Y-112433477D01*
X101245275Y-112433474D01*
X101277187Y-112408987D01*
X101282217Y-112402432D01*
X101296652Y-112383621D01*
X101307519Y-112371230D01*
X108585281Y-105093468D01*
X108647593Y-105059442D01*
X108718408Y-105064507D01*
X108775244Y-105107054D01*
X108800055Y-105173574D01*
X108795948Y-105215673D01*
X108671920Y-105671071D01*
X108670472Y-105675988D01*
X108468629Y-106313091D01*
X108380135Y-106592416D01*
X108378478Y-106597296D01*
X108050914Y-107501059D01*
X108049059Y-107505868D01*
X107684795Y-108395510D01*
X107682763Y-108400196D01*
X107282412Y-109274213D01*
X107280203Y-109278787D01*
X106844455Y-110135676D01*
X106842026Y-110140221D01*
X106371593Y-110978583D01*
X106368979Y-110983025D01*
X105864681Y-111801402D01*
X105861888Y-111805734D01*
X105324522Y-112602833D01*
X105321554Y-112607046D01*
X105311730Y-112620405D01*
X104752043Y-113381497D01*
X104748951Y-113385527D01*
X104148219Y-114136068D01*
X104144932Y-114140008D01*
X103514025Y-114865335D01*
X103510564Y-114869153D01*
X102850539Y-115568052D01*
X102846924Y-115571726D01*
X102165972Y-116236118D01*
X102158871Y-116243046D01*
X102155141Y-116246540D01*
X101440185Y-116889181D01*
X101436282Y-116892547D01*
X100695662Y-117505394D01*
X100691625Y-117508598D01*
X100279070Y-117822462D01*
X99970578Y-118057157D01*
X99926557Y-118090647D01*
X99922395Y-118093681D01*
X99176323Y-118614521D01*
X99134173Y-118643946D01*
X99129894Y-118646805D01*
X98861552Y-118818255D01*
X98319824Y-119164378D01*
X98315424Y-119167064D01*
X97484842Y-119651087D01*
X97480337Y-119653590D01*
X96630693Y-120103220D01*
X96626089Y-120105537D01*
X95758766Y-120520044D01*
X95754072Y-120522171D01*
X95012583Y-120839974D01*
X94870497Y-120900872D01*
X94865719Y-120902805D01*
X93967409Y-121245048D01*
X93962556Y-121246784D01*
X93051000Y-121552005D01*
X93046080Y-121553541D01*
X92122819Y-121821221D01*
X92117841Y-121822555D01*
X91596692Y-121950798D01*
X91184373Y-122052261D01*
X91179360Y-122053386D01*
X90237261Y-122244729D01*
X90232228Y-122245644D01*
X89559152Y-122353897D01*
X89283114Y-122398293D01*
X89278010Y-122399007D01*
X88992900Y-122432969D01*
X88323458Y-122512712D01*
X88318346Y-122513215D01*
X87971217Y-122540224D01*
X87359944Y-122587786D01*
X87354799Y-122588081D01*
X86394142Y-122623395D01*
X86388988Y-122623479D01*
X85919204Y-122621523D01*
X85427681Y-122619477D01*
X85422557Y-122619350D01*
X84462221Y-122576036D01*
X84457109Y-122575701D01*
X84037078Y-122539498D01*
X83499325Y-122493147D01*
X83494200Y-122492599D01*
X82540634Y-122370949D01*
X82535536Y-122370192D01*
X82413423Y-122349507D01*
X81587743Y-122209646D01*
X81582716Y-122208688D01*
X80642244Y-122009507D01*
X80637228Y-122008337D01*
X79908468Y-121822555D01*
X79705716Y-121770868D01*
X79700766Y-121769497D01*
X78779746Y-121494131D01*
X78774839Y-121492554D01*
X78372330Y-121354042D01*
X77865833Y-121179745D01*
X77861003Y-121177971D01*
X76965609Y-120828271D01*
X76960847Y-120826299D01*
X76080439Y-120440244D01*
X76075763Y-120438078D01*
X75389841Y-120103220D01*
X75211902Y-120016352D01*
X75207339Y-120014008D01*
X74361439Y-119557301D01*
X74357005Y-119554790D01*
X73530419Y-119063826D01*
X73526121Y-119061153D01*
X73049321Y-118750892D01*
X72720370Y-118536838D01*
X72716109Y-118533940D01*
X71932488Y-117977123D01*
X71928348Y-117974052D01*
X71907855Y-117958190D01*
X77972000Y-117958190D01*
X77972212Y-117963363D01*
X77986224Y-118133794D01*
X77987907Y-118143956D01*
X78043796Y-118366461D01*
X78047117Y-118376216D01*
X78138591Y-118586590D01*
X78143469Y-118595688D01*
X78268075Y-118788301D01*
X78274359Y-118796461D01*
X78428763Y-118966149D01*
X78436293Y-118973170D01*
X78616332Y-119115356D01*
X78624919Y-119121061D01*
X78825750Y-119231926D01*
X78835162Y-119236156D01*
X79051416Y-119312736D01*
X79061366Y-119315365D01*
X79158164Y-119332607D01*
X79171460Y-119331148D01*
X79175540Y-119318067D01*
X79684000Y-119318067D01*
X79687918Y-119331411D01*
X79702194Y-119333398D01*
X79763933Y-119323950D01*
X79773961Y-119321561D01*
X79992016Y-119250290D01*
X80001525Y-119246293D01*
X80205007Y-119140367D01*
X80213732Y-119134873D01*
X80397187Y-118997131D01*
X80404894Y-118990288D01*
X80563391Y-118824431D01*
X80569874Y-118816425D01*
X80699155Y-118626906D01*
X80704244Y-118617947D01*
X80800837Y-118409855D01*
X80804394Y-118400187D01*
X80865701Y-118179121D01*
X80867632Y-118169001D01*
X80887644Y-117981748D01*
X80888000Y-117975056D01*
X80888000Y-117672115D01*
X80883525Y-117656876D01*
X80882135Y-117655671D01*
X80874452Y-117654000D01*
X79702115Y-117654000D01*
X79686876Y-117658475D01*
X79685671Y-117659865D01*
X79684000Y-117667548D01*
X79684000Y-119318067D01*
X79175540Y-119318067D01*
X79176000Y-119316592D01*
X79176000Y-117672115D01*
X79171525Y-117656876D01*
X79170135Y-117655671D01*
X79162452Y-117654000D01*
X77990115Y-117654000D01*
X77974876Y-117658475D01*
X77973671Y-117659865D01*
X77972000Y-117667548D01*
X77972000Y-117958190D01*
X71907855Y-117958190D01*
X71168147Y-117385646D01*
X71164154Y-117382423D01*
X70428632Y-116763402D01*
X70424817Y-116760056D01*
X69911992Y-116291320D01*
X69875205Y-116230598D01*
X69871000Y-116198317D01*
X69871000Y-115632703D01*
X71390743Y-115632703D01*
X71391302Y-115636947D01*
X71391302Y-115636951D01*
X71396830Y-115678939D01*
X71428268Y-115917734D01*
X71504129Y-116195036D01*
X71505813Y-116198984D01*
X71609772Y-116442710D01*
X71616923Y-116459476D01*
X71691473Y-116584040D01*
X71748125Y-116678698D01*
X71764561Y-116706161D01*
X71944313Y-116930528D01*
X71964475Y-116949661D01*
X72135232Y-117111703D01*
X72152851Y-117128423D01*
X72386317Y-117296186D01*
X72390112Y-117298195D01*
X72390113Y-117298196D01*
X72411869Y-117309715D01*
X72640392Y-117430712D01*
X72664699Y-117439607D01*
X72853226Y-117508598D01*
X72910373Y-117529511D01*
X73191264Y-117590755D01*
X73219841Y-117593004D01*
X73414282Y-117608307D01*
X73414291Y-117608307D01*
X73416739Y-117608500D01*
X73572271Y-117608500D01*
X73574407Y-117608354D01*
X73574418Y-117608354D01*
X73782548Y-117594165D01*
X73782554Y-117594164D01*
X73786825Y-117593873D01*
X73791020Y-117593004D01*
X73791022Y-117593004D01*
X74000400Y-117549644D01*
X74068342Y-117535574D01*
X74339343Y-117439607D01*
X74481309Y-117366333D01*
X74591005Y-117309715D01*
X74591006Y-117309715D01*
X74594812Y-117307750D01*
X74598313Y-117305289D01*
X74598317Y-117305287D01*
X74824959Y-117146000D01*
X74830023Y-117142441D01*
X74845687Y-117127885D01*
X77972000Y-117127885D01*
X77976475Y-117143124D01*
X77977865Y-117144329D01*
X77985548Y-117146000D01*
X79157885Y-117146000D01*
X79173124Y-117141525D01*
X79174329Y-117140135D01*
X79176000Y-117132452D01*
X79176000Y-117127885D01*
X79684000Y-117127885D01*
X79688475Y-117143124D01*
X79689865Y-117144329D01*
X79697548Y-117146000D01*
X80869885Y-117146000D01*
X80885124Y-117141525D01*
X80886329Y-117140135D01*
X80888000Y-117132452D01*
X80888000Y-116841810D01*
X80887788Y-116836637D01*
X80873776Y-116666206D01*
X80872093Y-116656044D01*
X80816204Y-116433539D01*
X80812883Y-116423784D01*
X80721409Y-116213410D01*
X80716531Y-116204312D01*
X80591925Y-116011699D01*
X80585641Y-116003539D01*
X80431237Y-115833851D01*
X80423707Y-115826830D01*
X80243668Y-115684644D01*
X80235081Y-115678939D01*
X80034250Y-115568074D01*
X80024838Y-115563844D01*
X79808584Y-115487264D01*
X79798634Y-115484635D01*
X79701836Y-115467393D01*
X79688540Y-115468852D01*
X79684000Y-115483408D01*
X79684000Y-117127885D01*
X79176000Y-117127885D01*
X79176000Y-115481933D01*
X79172082Y-115468589D01*
X79157806Y-115466602D01*
X79096067Y-115476050D01*
X79086039Y-115478439D01*
X78867984Y-115549710D01*
X78858475Y-115553707D01*
X78654993Y-115659633D01*
X78646268Y-115665127D01*
X78462813Y-115802869D01*
X78455106Y-115809712D01*
X78296609Y-115975569D01*
X78290126Y-115983575D01*
X78160845Y-116173094D01*
X78155756Y-116182053D01*
X78059163Y-116390145D01*
X78055606Y-116399813D01*
X77994299Y-116620879D01*
X77992368Y-116630999D01*
X77972356Y-116818252D01*
X77972000Y-116824944D01*
X77972000Y-117127885D01*
X74845687Y-117127885D01*
X74968229Y-117014012D01*
X75037479Y-116949661D01*
X75037481Y-116949658D01*
X75040622Y-116946740D01*
X75222713Y-116724268D01*
X75372927Y-116479142D01*
X75397228Y-116423784D01*
X75486757Y-116219830D01*
X75488483Y-116215898D01*
X75567244Y-115939406D01*
X75607751Y-115654784D01*
X75607845Y-115636951D01*
X75609235Y-115371583D01*
X75609235Y-115371576D01*
X75609257Y-115367297D01*
X75571732Y-115082266D01*
X75495871Y-114804964D01*
X75433028Y-114657632D01*
X75384763Y-114544476D01*
X75384761Y-114544472D01*
X75383077Y-114540524D01*
X75235439Y-114293839D01*
X75055687Y-114069472D01*
X74847149Y-113871577D01*
X74613683Y-113703814D01*
X74591843Y-113692250D01*
X74568654Y-113679972D01*
X74359608Y-113569288D01*
X74148939Y-113492194D01*
X84066602Y-113492194D01*
X84076050Y-113553933D01*
X84078439Y-113563961D01*
X84149710Y-113782016D01*
X84153707Y-113791525D01*
X84259633Y-113995007D01*
X84265127Y-114003732D01*
X84402869Y-114187187D01*
X84409712Y-114194894D01*
X84575569Y-114353391D01*
X84583575Y-114359874D01*
X84773094Y-114489155D01*
X84782053Y-114494244D01*
X84990145Y-114590837D01*
X84999813Y-114594394D01*
X85220879Y-114655701D01*
X85230999Y-114657632D01*
X85418252Y-114677644D01*
X85424944Y-114678000D01*
X85727885Y-114678000D01*
X85743124Y-114673525D01*
X85744329Y-114672135D01*
X85746000Y-114664452D01*
X85746000Y-113492115D01*
X85741525Y-113476876D01*
X85740135Y-113475671D01*
X85732452Y-113474000D01*
X84081933Y-113474000D01*
X84068589Y-113477918D01*
X84066602Y-113492194D01*
X74148939Y-113492194D01*
X74109928Y-113477918D01*
X74093658Y-113471964D01*
X74093656Y-113471963D01*
X74089627Y-113470489D01*
X73808736Y-113409245D01*
X73777685Y-113406801D01*
X73585718Y-113391693D01*
X73585709Y-113391693D01*
X73583261Y-113391500D01*
X73427729Y-113391500D01*
X73425593Y-113391646D01*
X73425582Y-113391646D01*
X73217452Y-113405835D01*
X73217446Y-113405836D01*
X73213175Y-113406127D01*
X73208980Y-113406996D01*
X73208978Y-113406996D01*
X73072417Y-113435276D01*
X72931658Y-113464426D01*
X72660657Y-113560393D01*
X72405188Y-113692250D01*
X72401687Y-113694711D01*
X72401683Y-113694713D01*
X72391594Y-113701804D01*
X72169977Y-113857559D01*
X72154892Y-113871577D01*
X72022066Y-113995007D01*
X71959378Y-114053260D01*
X71777287Y-114275732D01*
X71627073Y-114520858D01*
X71625347Y-114524791D01*
X71625346Y-114524792D01*
X71558082Y-114678024D01*
X71511517Y-114784102D01*
X71510342Y-114788229D01*
X71510341Y-114788230D01*
X71481283Y-114890240D01*
X71432756Y-115060594D01*
X71392249Y-115345216D01*
X71392227Y-115349505D01*
X71392226Y-115349512D01*
X71390765Y-115628417D01*
X71390743Y-115632703D01*
X69871000Y-115632703D01*
X69871000Y-112948164D01*
X84067393Y-112948164D01*
X84068852Y-112961460D01*
X84083408Y-112966000D01*
X85727885Y-112966000D01*
X85743124Y-112961525D01*
X85744329Y-112960135D01*
X85746000Y-112952452D01*
X85746000Y-111780115D01*
X85741525Y-111764876D01*
X85740135Y-111763671D01*
X85732452Y-111762000D01*
X85441810Y-111762000D01*
X85436637Y-111762212D01*
X85266206Y-111776224D01*
X85256044Y-111777907D01*
X85033539Y-111833796D01*
X85023784Y-111837117D01*
X84813410Y-111928591D01*
X84804312Y-111933469D01*
X84611699Y-112058075D01*
X84603539Y-112064359D01*
X84433851Y-112218763D01*
X84426830Y-112226293D01*
X84284644Y-112406332D01*
X84278939Y-112414919D01*
X84168074Y-112615750D01*
X84163844Y-112625162D01*
X84087264Y-112841416D01*
X84084635Y-112851366D01*
X84067393Y-112948164D01*
X69871000Y-112948164D01*
X69871000Y-111064000D01*
X69891002Y-110995879D01*
X69944658Y-110949386D01*
X69997000Y-110938000D01*
X83959298Y-110938000D01*
X83960069Y-110938002D01*
X84037652Y-110938476D01*
X84046281Y-110936010D01*
X84046286Y-110936009D01*
X84066048Y-110930361D01*
X84082809Y-110926783D01*
X84103152Y-110923870D01*
X84103162Y-110923867D01*
X84112045Y-110922595D01*
X84135395Y-110911979D01*
X84152907Y-110905536D01*
X84168937Y-110900954D01*
X84177565Y-110898488D01*
X84202548Y-110882726D01*
X84217614Y-110874596D01*
X84244510Y-110862367D01*
X84263939Y-110845626D01*
X84278947Y-110834521D01*
X84293039Y-110825630D01*
X84300631Y-110820840D01*
X84320182Y-110798703D01*
X84332374Y-110786659D01*
X84347949Y-110773239D01*
X84347950Y-110773237D01*
X84354747Y-110767381D01*
X84359626Y-110759853D01*
X84359629Y-110759850D01*
X84368696Y-110745861D01*
X84379986Y-110730987D01*
X84387987Y-110721927D01*
X84396956Y-110711772D01*
X84409510Y-110685034D01*
X84417824Y-110670065D01*
X84433893Y-110645273D01*
X84441239Y-110620709D01*
X84447901Y-110603264D01*
X84454983Y-110588179D01*
X84458799Y-110580052D01*
X84463343Y-110550870D01*
X84467126Y-110534151D01*
X84473014Y-110514464D01*
X84473015Y-110514461D01*
X84475587Y-110505859D01*
X84475797Y-110471444D01*
X84475830Y-110470672D01*
X84476000Y-110469577D01*
X84476000Y-110438702D01*
X84476002Y-110437932D01*
X84476452Y-110364284D01*
X84476452Y-110364283D01*
X84476476Y-110360348D01*
X84476092Y-110359004D01*
X84476000Y-110357659D01*
X84476000Y-104849065D01*
X84496002Y-104780944D01*
X84549658Y-104734451D01*
X84619932Y-104724347D01*
X84645913Y-104730965D01*
G37*
%TD.AperFunction*%
%TA.AperFunction,Conductor*%
G36*
X101700407Y-81349274D02*
G01*
X101724247Y-81366149D01*
X102155141Y-81753460D01*
X102158866Y-81756949D01*
X102452244Y-82043192D01*
X102846924Y-82428274D01*
X102850539Y-82431948D01*
X103510564Y-83130847D01*
X103514025Y-83134665D01*
X104144932Y-83859992D01*
X104148219Y-83863932D01*
X104748951Y-84614473D01*
X104752043Y-84618503D01*
X105113237Y-85109673D01*
X105321554Y-85392954D01*
X105324522Y-85397167D01*
X105861888Y-86194266D01*
X105864681Y-86198598D01*
X106368979Y-87016975D01*
X106371593Y-87021417D01*
X106842026Y-87859779D01*
X106844450Y-87864314D01*
X107280203Y-88721213D01*
X107282412Y-88725787D01*
X107682763Y-89599804D01*
X107684795Y-89604490D01*
X107853198Y-90015780D01*
X108049059Y-90494132D01*
X108050914Y-90498941D01*
X108378478Y-91402704D01*
X108380135Y-91407584D01*
X108670472Y-92324012D01*
X108671920Y-92328929D01*
X108924533Y-93256454D01*
X108925785Y-93261453D01*
X108985517Y-93522439D01*
X109135062Y-94175844D01*
X109140250Y-94198514D01*
X109141293Y-94203544D01*
X109217680Y-94613795D01*
X109317259Y-95148607D01*
X109318099Y-95153692D01*
X109433672Y-95955364D01*
X109443382Y-96022717D01*
X109455267Y-96105161D01*
X109455898Y-96110273D01*
X109460499Y-96155106D01*
X109554039Y-97066558D01*
X109554460Y-97071695D01*
X109579137Y-97473326D01*
X109613320Y-98029686D01*
X109613411Y-98031172D01*
X109613621Y-98036303D01*
X109617658Y-98233632D01*
X109633282Y-98997423D01*
X109633282Y-99002577D01*
X109627754Y-99272818D01*
X109620193Y-99642469D01*
X109613622Y-99963678D01*
X109613412Y-99968809D01*
X109588285Y-100377773D01*
X109554460Y-100928305D01*
X109554039Y-100933442D01*
X109455898Y-101889724D01*
X109455267Y-101894839D01*
X109359211Y-102561135D01*
X109329693Y-102625704D01*
X109269953Y-102664066D01*
X109198956Y-102664039D01*
X109139244Y-102625632D01*
X109109776Y-102561041D01*
X109108500Y-102543156D01*
X109108500Y-97979945D01*
X109109578Y-97963499D01*
X109112673Y-97939989D01*
X109113751Y-97931801D01*
X109092838Y-97772950D01*
X109031524Y-97624925D01*
X108958478Y-97529730D01*
X108958474Y-97529726D01*
X108956563Y-97527236D01*
X108939016Y-97504367D01*
X108939013Y-97504364D01*
X108933987Y-97497814D01*
X108927432Y-97492784D01*
X108908621Y-97478349D01*
X108896230Y-97467482D01*
X107042300Y-95613552D01*
X107008274Y-95551240D01*
X107006621Y-95506921D01*
X107013737Y-95456291D01*
X107013737Y-95456288D01*
X107014288Y-95452369D01*
X107014605Y-95429652D01*
X106994386Y-95249397D01*
X106990640Y-95238640D01*
X106937053Y-95084758D01*
X106937051Y-95084755D01*
X106934734Y-95078100D01*
X106898201Y-95019635D01*
X106842348Y-94930250D01*
X106838615Y-94924276D01*
X106824930Y-94910495D01*
X106715767Y-94800567D01*
X106715763Y-94800564D01*
X106710804Y-94795570D01*
X106701158Y-94789448D01*
X106625907Y-94741693D01*
X106557655Y-94698379D01*
X106528452Y-94687980D01*
X106393414Y-94639895D01*
X106393409Y-94639894D01*
X106386779Y-94637533D01*
X106379791Y-94636700D01*
X106379788Y-94636699D01*
X106247417Y-94620915D01*
X106206669Y-94616056D01*
X106199666Y-94616792D01*
X106199665Y-94616792D01*
X106033277Y-94634280D01*
X106033275Y-94634281D01*
X106026277Y-94635016D01*
X105854568Y-94693470D01*
X105848564Y-94697164D01*
X105706084Y-94784818D01*
X105706081Y-94784820D01*
X105700077Y-94788514D01*
X105695042Y-94793445D01*
X105695039Y-94793447D01*
X105581017Y-94905106D01*
X105570482Y-94915423D01*
X105472224Y-95067890D01*
X105469815Y-95074510D01*
X105469813Y-95074513D01*
X105413546Y-95229105D01*
X105410186Y-95238337D01*
X105410142Y-95238689D01*
X105376006Y-95297901D01*
X105351657Y-95314596D01*
X105352169Y-95315428D01*
X105349886Y-95316832D01*
X105347414Y-95317505D01*
X105342642Y-95320777D01*
X105339809Y-95322110D01*
X105338752Y-95319863D01*
X105281382Y-95335479D01*
X105213671Y-95314130D01*
X105168507Y-95260147D01*
X105157561Y-95235210D01*
X105155069Y-95229105D01*
X105135173Y-95176452D01*
X105135173Y-95176451D01*
X105132487Y-95169344D01*
X105128184Y-95163083D01*
X105126947Y-95160717D01*
X105118720Y-95145937D01*
X105117369Y-95143652D01*
X105114315Y-95136695D01*
X105109695Y-95130675D01*
X105109692Y-95130669D01*
X105075421Y-95086009D01*
X105071541Y-95080668D01*
X105035357Y-95028018D01*
X105036325Y-95027353D01*
X105017293Y-94994785D01*
X104986064Y-94905106D01*
X104986062Y-94905103D01*
X104983745Y-94898448D01*
X104902030Y-94767675D01*
X104891359Y-94750598D01*
X104887626Y-94744624D01*
X104865521Y-94722364D01*
X104764778Y-94620915D01*
X104764774Y-94620912D01*
X104759815Y-94615918D01*
X104751951Y-94610927D01*
X104700538Y-94578300D01*
X104606666Y-94518727D01*
X104544032Y-94496424D01*
X104442425Y-94460243D01*
X104442420Y-94460242D01*
X104435790Y-94457881D01*
X104428802Y-94457048D01*
X104428799Y-94457047D01*
X104305698Y-94442368D01*
X104255680Y-94436404D01*
X104248677Y-94437140D01*
X104248676Y-94437140D01*
X104082288Y-94454628D01*
X104082286Y-94454629D01*
X104075288Y-94455364D01*
X103903579Y-94513818D01*
X103880785Y-94527841D01*
X103755095Y-94605166D01*
X103755092Y-94605168D01*
X103749088Y-94608862D01*
X103744053Y-94613793D01*
X103744050Y-94613795D01*
X103629244Y-94726222D01*
X103619493Y-94735771D01*
X103521235Y-94888238D01*
X103518826Y-94894858D01*
X103518824Y-94894861D01*
X103467384Y-95036192D01*
X103459197Y-95058685D01*
X103436463Y-95238640D01*
X103454163Y-95419160D01*
X103511418Y-95591273D01*
X103515065Y-95597295D01*
X103515066Y-95597297D01*
X103601264Y-95739627D01*
X103605380Y-95746424D01*
X103610269Y-95751487D01*
X103610270Y-95751488D01*
X103655741Y-95798574D01*
X103731382Y-95876902D01*
X103737279Y-95880761D01*
X103742703Y-95885248D01*
X103741308Y-95886934D01*
X103780544Y-95932981D01*
X103791500Y-95984370D01*
X103791500Y-96221088D01*
X103791208Y-96229658D01*
X103788273Y-96272717D01*
X103787275Y-96287352D01*
X103788580Y-96294829D01*
X103788580Y-96294830D01*
X103798261Y-96350299D01*
X103799223Y-96356821D01*
X103806898Y-96420242D01*
X103809581Y-96427343D01*
X103810222Y-96429952D01*
X103814685Y-96446262D01*
X103815450Y-96448798D01*
X103816757Y-96456284D01*
X103837687Y-96503962D01*
X103842442Y-96514795D01*
X103844933Y-96520899D01*
X103867513Y-96580656D01*
X103871817Y-96586919D01*
X103873054Y-96589285D01*
X103881299Y-96604097D01*
X103882632Y-96606351D01*
X103885685Y-96613305D01*
X103912281Y-96647964D01*
X103924579Y-96663991D01*
X103928459Y-96669332D01*
X103960339Y-96715720D01*
X103960344Y-96715725D01*
X103964643Y-96721981D01*
X103970313Y-96727032D01*
X103970314Y-96727034D01*
X104011170Y-96763435D01*
X104016446Y-96768416D01*
X105254595Y-98006566D01*
X105288621Y-98068878D01*
X105291500Y-98095661D01*
X105291500Y-100376659D01*
X105271498Y-100444780D01*
X105217842Y-100491273D01*
X105206108Y-100495936D01*
X105153579Y-100513818D01*
X105130785Y-100527841D01*
X105005095Y-100605166D01*
X105005092Y-100605168D01*
X104999088Y-100608862D01*
X104994053Y-100613793D01*
X104994050Y-100613795D01*
X104874525Y-100730843D01*
X104869493Y-100735771D01*
X104771235Y-100888238D01*
X104768826Y-100894858D01*
X104768824Y-100894861D01*
X104747511Y-100953418D01*
X104709197Y-101058685D01*
X104686463Y-101238640D01*
X104704163Y-101419160D01*
X104761418Y-101591273D01*
X104765065Y-101597295D01*
X104765066Y-101597297D01*
X104775978Y-101615314D01*
X104855380Y-101746424D01*
X104981382Y-101876902D01*
X105133159Y-101976222D01*
X105139763Y-101978678D01*
X105139765Y-101978679D01*
X105296558Y-102036990D01*
X105296560Y-102036990D01*
X105303168Y-102039448D01*
X105386995Y-102050633D01*
X105475980Y-102062507D01*
X105475984Y-102062507D01*
X105482961Y-102063438D01*
X105489972Y-102062800D01*
X105489976Y-102062800D01*
X105632459Y-102049832D01*
X105663600Y-102046998D01*
X105670302Y-102044820D01*
X105670304Y-102044820D01*
X105829409Y-101993124D01*
X105829412Y-101993123D01*
X105836108Y-101990947D01*
X105991912Y-101898069D01*
X106123266Y-101772982D01*
X106223643Y-101621902D01*
X106271372Y-101496256D01*
X106300065Y-101451905D01*
X106480520Y-101271450D01*
X106486785Y-101265596D01*
X106524660Y-101232555D01*
X106530385Y-101227561D01*
X106567114Y-101175300D01*
X106571046Y-101170005D01*
X106605791Y-101125694D01*
X106610477Y-101119718D01*
X106613602Y-101112796D01*
X106614964Y-101110548D01*
X106623368Y-101095815D01*
X106624622Y-101093476D01*
X106628990Y-101087261D01*
X106631749Y-101080185D01*
X106631751Y-101080181D01*
X106652200Y-101027731D01*
X106654749Y-101021666D01*
X106681045Y-100963427D01*
X106682429Y-100955962D01*
X106683226Y-100953418D01*
X106687859Y-100937152D01*
X106688521Y-100934572D01*
X106691282Y-100927491D01*
X106699622Y-100864143D01*
X106700653Y-100857629D01*
X106704940Y-100834500D01*
X106712296Y-100794813D01*
X106708709Y-100732607D01*
X106708500Y-100725353D01*
X106708500Y-98226230D01*
X106728502Y-98158109D01*
X106782158Y-98111616D01*
X106852432Y-98101512D01*
X106917012Y-98131006D01*
X106923595Y-98137135D01*
X107455084Y-98668624D01*
X107489110Y-98730936D01*
X107491989Y-98757719D01*
X107491989Y-103777073D01*
X107471987Y-103845194D01*
X107455084Y-103866168D01*
X101739179Y-109582072D01*
X101676867Y-109616098D01*
X101606052Y-109611033D01*
X101549216Y-109568486D01*
X101531096Y-109534422D01*
X101483745Y-109398448D01*
X101387626Y-109244624D01*
X101382664Y-109239627D01*
X101264778Y-109120915D01*
X101264774Y-109120912D01*
X101259815Y-109115918D01*
X101106666Y-109018727D01*
X100999908Y-108980712D01*
X100953078Y-108951108D01*
X100370960Y-108368990D01*
X100365106Y-108362725D01*
X100364711Y-108362272D01*
X100327071Y-108319125D01*
X100274790Y-108282381D01*
X100269496Y-108278449D01*
X100225203Y-108243719D01*
X100219228Y-108239034D01*
X100212312Y-108235911D01*
X100210026Y-108234527D01*
X100195345Y-108226153D01*
X100192985Y-108224888D01*
X100186771Y-108220520D01*
X100179692Y-108217760D01*
X100179690Y-108217759D01*
X100127235Y-108197308D01*
X100121166Y-108194757D01*
X100062937Y-108168465D01*
X100055470Y-108167081D01*
X100052915Y-108166280D01*
X100036662Y-108161651D01*
X100034082Y-108160988D01*
X100027001Y-108158228D01*
X100019470Y-108157237D01*
X100019468Y-108157236D01*
X99989849Y-108153337D01*
X99963649Y-108149888D01*
X99957151Y-108148858D01*
X99894324Y-108137214D01*
X99886744Y-108137651D01*
X99886743Y-108137651D01*
X99832118Y-108140801D01*
X99824864Y-108141010D01*
X92195171Y-108141010D01*
X92127050Y-108121008D01*
X92106076Y-108104105D01*
X86649285Y-102647315D01*
X86615259Y-102585003D01*
X86612380Y-102558220D01*
X86612380Y-95834012D01*
X86625863Y-95778280D01*
X86627523Y-95775782D01*
X86640473Y-95741693D01*
X86689435Y-95612800D01*
X86689436Y-95612798D01*
X86691935Y-95606218D01*
X86693189Y-95597297D01*
X86716628Y-95430519D01*
X86716628Y-95430516D01*
X86717179Y-95426597D01*
X86717496Y-95403880D01*
X86697277Y-95223625D01*
X86694960Y-95216971D01*
X86639944Y-95058986D01*
X86639942Y-95058983D01*
X86637625Y-95052328D01*
X86617196Y-95019635D01*
X86545239Y-94904478D01*
X86541506Y-94898504D01*
X86532715Y-94889651D01*
X86418658Y-94774795D01*
X86418654Y-94774792D01*
X86413695Y-94769798D01*
X86402577Y-94762742D01*
X86301156Y-94698379D01*
X86260546Y-94672607D01*
X86201768Y-94651677D01*
X86096305Y-94614123D01*
X86096300Y-94614122D01*
X86089670Y-94611761D01*
X86082682Y-94610928D01*
X86082679Y-94610927D01*
X85954652Y-94595661D01*
X85909560Y-94590284D01*
X85902557Y-94591020D01*
X85902556Y-94591020D01*
X85736168Y-94608508D01*
X85736166Y-94608509D01*
X85729168Y-94609244D01*
X85557459Y-94667698D01*
X85511432Y-94696014D01*
X85408975Y-94759046D01*
X85408972Y-94759048D01*
X85402968Y-94762742D01*
X85397933Y-94767673D01*
X85397930Y-94767675D01*
X85351199Y-94813438D01*
X85273373Y-94889651D01*
X85175115Y-95042118D01*
X85172706Y-95048738D01*
X85172704Y-95048741D01*
X85137328Y-95145937D01*
X85113077Y-95212565D01*
X85090343Y-95392520D01*
X85108043Y-95573040D01*
X85165298Y-95745153D01*
X85168945Y-95751176D01*
X85168946Y-95751177D01*
X85177156Y-95764733D01*
X85195380Y-95830004D01*
X85195380Y-102874968D01*
X85195088Y-102883538D01*
X85191155Y-102941232D01*
X85192460Y-102948709D01*
X85192460Y-102948710D01*
X85202141Y-103004179D01*
X85203104Y-103010705D01*
X85208297Y-103053619D01*
X85196624Y-103123650D01*
X85148942Y-103176252D01*
X85080391Y-103194724D01*
X85068291Y-103193870D01*
X85005680Y-103186404D01*
X84998677Y-103187140D01*
X84998676Y-103187140D01*
X84832288Y-103204628D01*
X84832286Y-103204629D01*
X84825288Y-103205364D01*
X84653579Y-103263818D01*
X84653110Y-103264107D01*
X84585494Y-103274618D01*
X84520581Y-103245865D01*
X84481517Y-103186581D01*
X84476000Y-103149704D01*
X84476000Y-91396953D01*
X84496002Y-91328832D01*
X84549658Y-91282339D01*
X84619932Y-91272235D01*
X84684512Y-91301729D01*
X84717373Y-91346307D01*
X84742931Y-91404529D01*
X84745422Y-91410633D01*
X84768002Y-91470390D01*
X84772306Y-91476653D01*
X84773543Y-91479019D01*
X84781788Y-91493831D01*
X84783121Y-91496085D01*
X84786174Y-91503039D01*
X84790796Y-91509062D01*
X84825068Y-91553725D01*
X84828948Y-91559066D01*
X84860828Y-91605454D01*
X84860833Y-91605459D01*
X84865132Y-91611715D01*
X84870802Y-91616766D01*
X84870803Y-91616768D01*
X84911659Y-91653169D01*
X84916935Y-91658150D01*
X93739312Y-100480528D01*
X93745166Y-100486793D01*
X93768742Y-100513818D01*
X93783194Y-100530385D01*
X93835484Y-100567136D01*
X93840726Y-100571028D01*
X93891037Y-100610476D01*
X93897956Y-100613600D01*
X93900248Y-100614988D01*
X93914920Y-100623357D01*
X93917280Y-100624622D01*
X93923494Y-100628990D01*
X93930573Y-100631750D01*
X93930575Y-100631751D01*
X93983030Y-100652202D01*
X93989099Y-100654753D01*
X94047328Y-100681045D01*
X94054801Y-100682430D01*
X94057367Y-100683234D01*
X94073590Y-100687855D01*
X94076182Y-100688520D01*
X94083264Y-100691282D01*
X94090799Y-100692274D01*
X94146616Y-100699622D01*
X94153132Y-100700654D01*
X94191525Y-100707770D01*
X94215941Y-100712295D01*
X94223521Y-100711858D01*
X94223522Y-100711858D01*
X94278135Y-100708709D01*
X94285388Y-100708500D01*
X96665500Y-100708500D01*
X96733621Y-100728502D01*
X96780114Y-100782158D01*
X96791500Y-100834500D01*
X96791500Y-103971088D01*
X96791208Y-103979658D01*
X96787275Y-104037352D01*
X96788580Y-104044829D01*
X96788580Y-104044830D01*
X96798261Y-104100299D01*
X96799223Y-104106821D01*
X96806898Y-104170242D01*
X96809581Y-104177343D01*
X96810222Y-104179952D01*
X96814685Y-104196262D01*
X96815450Y-104198798D01*
X96816757Y-104206284D01*
X96819811Y-104213241D01*
X96842442Y-104264795D01*
X96844933Y-104270899D01*
X96867513Y-104330656D01*
X96871817Y-104336919D01*
X96873054Y-104339285D01*
X96881299Y-104354097D01*
X96882632Y-104356351D01*
X96885685Y-104363305D01*
X96890307Y-104369328D01*
X96924579Y-104413991D01*
X96928459Y-104419332D01*
X96960339Y-104465720D01*
X96960344Y-104465725D01*
X96964643Y-104471981D01*
X96970313Y-104477032D01*
X96970314Y-104477034D01*
X97011170Y-104513435D01*
X97016446Y-104518416D01*
X99478550Y-106980520D01*
X99484404Y-106986785D01*
X99522439Y-107030385D01*
X99528653Y-107034752D01*
X99574719Y-107067128D01*
X99580014Y-107071061D01*
X99630282Y-107110476D01*
X99637198Y-107113599D01*
X99639484Y-107114983D01*
X99654165Y-107123357D01*
X99656525Y-107124622D01*
X99662739Y-107128990D01*
X99669818Y-107131750D01*
X99669820Y-107131751D01*
X99722275Y-107152202D01*
X99728344Y-107154753D01*
X99786573Y-107181045D01*
X99794040Y-107182429D01*
X99796595Y-107183230D01*
X99812848Y-107187859D01*
X99815428Y-107188522D01*
X99822509Y-107191282D01*
X99830040Y-107192273D01*
X99830042Y-107192274D01*
X99859661Y-107196173D01*
X99885861Y-107199622D01*
X99892359Y-107200652D01*
X99955186Y-107212296D01*
X99962766Y-107211859D01*
X99962767Y-107211859D01*
X100017392Y-107208709D01*
X100024646Y-107208500D01*
X100569800Y-107208500D01*
X100626609Y-107222033D01*
X100627260Y-107222362D01*
X100633159Y-107226222D01*
X100639767Y-107228680D01*
X100639768Y-107228680D01*
X100796558Y-107286990D01*
X100796560Y-107286990D01*
X100803168Y-107289448D01*
X100886995Y-107300633D01*
X100975980Y-107312507D01*
X100975984Y-107312507D01*
X100982961Y-107313438D01*
X100989972Y-107312800D01*
X100989976Y-107312800D01*
X101132459Y-107299832D01*
X101163600Y-107296998D01*
X101170302Y-107294820D01*
X101170304Y-107294820D01*
X101329409Y-107243124D01*
X101329412Y-107243123D01*
X101336108Y-107240947D01*
X101441840Y-107177918D01*
X101485860Y-107151677D01*
X101485862Y-107151676D01*
X101491912Y-107148069D01*
X101623266Y-107022982D01*
X101723643Y-106871902D01*
X101788055Y-106702338D01*
X101803158Y-106594872D01*
X101812748Y-106526639D01*
X101812748Y-106526636D01*
X101813299Y-106522717D01*
X101813616Y-106500000D01*
X101793397Y-106319745D01*
X101791080Y-106313091D01*
X101736064Y-106155106D01*
X101736062Y-106155103D01*
X101733745Y-106148448D01*
X101637626Y-105994624D01*
X101632664Y-105989627D01*
X101514778Y-105870915D01*
X101514774Y-105870912D01*
X101509815Y-105865918D01*
X101356666Y-105768727D01*
X101316979Y-105754595D01*
X101192425Y-105710243D01*
X101192420Y-105710242D01*
X101185790Y-105707881D01*
X101178802Y-105707048D01*
X101178799Y-105707047D01*
X101055698Y-105692368D01*
X101005680Y-105686404D01*
X100998677Y-105687140D01*
X100998676Y-105687140D01*
X100832288Y-105704628D01*
X100832286Y-105704629D01*
X100825288Y-105705364D01*
X100735094Y-105736068D01*
X100660249Y-105761547D01*
X100660246Y-105761548D01*
X100653579Y-105763818D01*
X100647576Y-105767511D01*
X100647574Y-105767512D01*
X100638949Y-105772818D01*
X100572928Y-105791500D01*
X100345660Y-105791500D01*
X100277539Y-105771498D01*
X100256565Y-105754595D01*
X98245405Y-103743435D01*
X98211379Y-103681123D01*
X98208500Y-103654340D01*
X98208500Y-100834500D01*
X98228502Y-100766379D01*
X98282158Y-100719886D01*
X98334500Y-100708500D01*
X100069800Y-100708500D01*
X100126609Y-100722033D01*
X100127260Y-100722362D01*
X100133159Y-100726222D01*
X100139767Y-100728680D01*
X100139768Y-100728680D01*
X100296558Y-100786990D01*
X100296560Y-100786990D01*
X100303168Y-100789448D01*
X100386995Y-100800633D01*
X100475980Y-100812507D01*
X100475984Y-100812507D01*
X100482961Y-100813438D01*
X100489972Y-100812800D01*
X100489976Y-100812800D01*
X100632459Y-100799832D01*
X100663600Y-100796998D01*
X100670302Y-100794820D01*
X100670304Y-100794820D01*
X100829409Y-100743124D01*
X100829412Y-100743123D01*
X100836108Y-100740947D01*
X100941840Y-100677918D01*
X100985860Y-100651677D01*
X100985862Y-100651676D01*
X100991912Y-100648069D01*
X101123266Y-100522982D01*
X101223643Y-100371902D01*
X101288055Y-100202338D01*
X101313299Y-100022717D01*
X101313616Y-100000000D01*
X101293397Y-99819745D01*
X101233745Y-99648448D01*
X101137626Y-99494624D01*
X101132664Y-99489627D01*
X101014778Y-99370915D01*
X101014774Y-99370912D01*
X101009815Y-99365918D01*
X100856666Y-99268727D01*
X100816979Y-99254595D01*
X100692425Y-99210243D01*
X100692420Y-99210242D01*
X100685790Y-99207881D01*
X100678802Y-99207048D01*
X100678799Y-99207047D01*
X100555698Y-99192368D01*
X100505680Y-99186404D01*
X100498677Y-99187140D01*
X100498676Y-99187140D01*
X100332288Y-99204628D01*
X100332286Y-99204629D01*
X100325288Y-99205364D01*
X100235094Y-99236068D01*
X100160249Y-99261547D01*
X100160246Y-99261548D01*
X100153579Y-99263818D01*
X100147576Y-99267511D01*
X100147574Y-99267512D01*
X100138949Y-99272818D01*
X100072928Y-99291500D01*
X97508762Y-99291500D01*
X97508102Y-99291498D01*
X97422372Y-99291049D01*
X97422371Y-99291049D01*
X97417969Y-99291026D01*
X97416452Y-99291390D01*
X97414550Y-99291500D01*
X94606415Y-99291500D01*
X94538294Y-99271498D01*
X94517320Y-99254595D01*
X93686320Y-98423595D01*
X93652294Y-98361283D01*
X93657359Y-98290468D01*
X93699906Y-98233632D01*
X93766426Y-98208821D01*
X93775415Y-98208500D01*
X100221088Y-98208500D01*
X100229658Y-98208792D01*
X100279776Y-98212209D01*
X100279780Y-98212209D01*
X100287352Y-98212725D01*
X100294829Y-98211420D01*
X100294830Y-98211420D01*
X100321308Y-98206799D01*
X100350303Y-98201738D01*
X100356821Y-98200777D01*
X100420242Y-98193102D01*
X100427343Y-98190419D01*
X100429952Y-98189778D01*
X100446262Y-98185315D01*
X100448798Y-98184550D01*
X100456284Y-98183243D01*
X100514800Y-98157556D01*
X100520904Y-98155065D01*
X100573548Y-98135173D01*
X100573549Y-98135172D01*
X100580656Y-98132487D01*
X100586919Y-98128183D01*
X100589285Y-98126946D01*
X100604097Y-98118701D01*
X100606351Y-98117368D01*
X100613305Y-98114315D01*
X100664002Y-98075413D01*
X100669332Y-98071541D01*
X100715720Y-98039661D01*
X100715725Y-98039656D01*
X100721981Y-98035357D01*
X100763436Y-97988829D01*
X100768416Y-97983554D01*
X101703493Y-97048477D01*
X101753651Y-97017739D01*
X101829411Y-96993123D01*
X101836108Y-96990947D01*
X101991912Y-96898069D01*
X102123266Y-96772982D01*
X102223643Y-96621902D01*
X102268445Y-96503962D01*
X102285555Y-96458920D01*
X102285556Y-96458918D01*
X102288055Y-96452338D01*
X102293444Y-96413991D01*
X102312748Y-96276639D01*
X102312748Y-96276636D01*
X102313299Y-96272717D01*
X102313616Y-96250000D01*
X102293397Y-96069745D01*
X102282117Y-96037352D01*
X102236064Y-95905106D01*
X102236062Y-95905103D01*
X102233745Y-95898448D01*
X102157492Y-95776417D01*
X102141359Y-95750598D01*
X102137626Y-95744624D01*
X102097375Y-95704091D01*
X102014778Y-95620915D01*
X102014774Y-95620912D01*
X102009815Y-95615918D01*
X101998697Y-95608862D01*
X101940482Y-95571918D01*
X101856666Y-95518727D01*
X101823511Y-95506921D01*
X101692425Y-95460243D01*
X101692420Y-95460242D01*
X101685790Y-95457881D01*
X101678802Y-95457048D01*
X101678799Y-95457047D01*
X101555698Y-95442368D01*
X101505680Y-95436404D01*
X101498677Y-95437140D01*
X101498676Y-95437140D01*
X101332288Y-95454628D01*
X101332286Y-95454629D01*
X101325288Y-95455364D01*
X101153579Y-95513818D01*
X101147575Y-95517512D01*
X101005095Y-95605166D01*
X101005092Y-95605168D01*
X100999088Y-95608862D01*
X100994053Y-95613793D01*
X100994050Y-95613795D01*
X100874525Y-95730843D01*
X100869493Y-95735771D01*
X100771235Y-95888238D01*
X100768825Y-95894858D01*
X100768824Y-95894861D01*
X100730110Y-96001226D01*
X100700804Y-96047226D01*
X99993435Y-96754595D01*
X99931123Y-96788621D01*
X99904340Y-96791500D01*
X97920471Y-96791500D01*
X97852350Y-96771498D01*
X97805857Y-96717842D01*
X97795697Y-96647964D01*
X97812748Y-96526640D01*
X97812748Y-96526635D01*
X97813299Y-96522717D01*
X97813616Y-96500000D01*
X97793397Y-96319745D01*
X97782117Y-96287352D01*
X97736064Y-96155106D01*
X97736062Y-96155103D01*
X97733745Y-96148448D01*
X97705099Y-96102604D01*
X97641359Y-96000598D01*
X97637626Y-95994624D01*
X97631684Y-95988640D01*
X97514778Y-95870915D01*
X97514774Y-95870912D01*
X97509815Y-95865918D01*
X97356666Y-95768727D01*
X97292231Y-95745783D01*
X97234770Y-95704091D01*
X97208969Y-95637948D01*
X97208500Y-95627085D01*
X97208500Y-94595661D01*
X97228502Y-94527540D01*
X97245405Y-94506565D01*
X97604403Y-94147568D01*
X97666715Y-94113543D01*
X97693498Y-94110664D01*
X98250245Y-94110664D01*
X98258815Y-94110956D01*
X98308933Y-94114373D01*
X98308937Y-94114373D01*
X98316509Y-94114889D01*
X98323986Y-94113584D01*
X98323987Y-94113584D01*
X98350465Y-94108963D01*
X98379460Y-94103902D01*
X98385978Y-94102941D01*
X98449399Y-94095266D01*
X98456500Y-94092583D01*
X98459109Y-94091942D01*
X98475419Y-94087479D01*
X98477955Y-94086714D01*
X98485441Y-94085407D01*
X98543957Y-94059720D01*
X98550061Y-94057229D01*
X98602705Y-94037337D01*
X98602706Y-94037336D01*
X98609813Y-94034651D01*
X98616076Y-94030347D01*
X98618442Y-94029110D01*
X98633254Y-94020865D01*
X98635508Y-94019532D01*
X98642462Y-94016479D01*
X98693159Y-93977577D01*
X98698489Y-93973705D01*
X98744877Y-93941825D01*
X98744882Y-93941820D01*
X98751138Y-93937521D01*
X98792593Y-93890993D01*
X98797573Y-93885718D01*
X101826405Y-90856886D01*
X101888717Y-90822860D01*
X101959532Y-90827925D01*
X102016368Y-90870472D01*
X102041179Y-90936992D01*
X102041500Y-90945981D01*
X102041500Y-92904340D01*
X102021498Y-92972461D01*
X102004595Y-92993435D01*
X101796563Y-93201467D01*
X101748074Y-93231650D01*
X101653579Y-93263818D01*
X101618256Y-93285549D01*
X101505095Y-93355166D01*
X101505092Y-93355168D01*
X101499088Y-93358862D01*
X101494053Y-93363793D01*
X101494050Y-93363795D01*
X101417466Y-93438792D01*
X101369493Y-93485771D01*
X101271235Y-93638238D01*
X101268826Y-93644858D01*
X101268824Y-93644861D01*
X101217245Y-93786573D01*
X101209197Y-93808685D01*
X101186463Y-93988640D01*
X101204163Y-94169160D01*
X101261418Y-94341273D01*
X101265065Y-94347295D01*
X101265066Y-94347297D01*
X101332038Y-94457881D01*
X101355380Y-94496424D01*
X101360269Y-94501487D01*
X101360270Y-94501488D01*
X101385719Y-94527841D01*
X101481382Y-94626902D01*
X101633159Y-94726222D01*
X101639763Y-94728678D01*
X101639765Y-94728679D01*
X101796558Y-94786990D01*
X101796560Y-94786990D01*
X101803168Y-94789448D01*
X101886499Y-94800567D01*
X101975980Y-94812507D01*
X101975984Y-94812507D01*
X101982961Y-94813438D01*
X101989972Y-94812800D01*
X101989976Y-94812800D01*
X102132459Y-94799832D01*
X102163600Y-94796998D01*
X102170302Y-94794820D01*
X102170304Y-94794820D01*
X102329409Y-94743124D01*
X102329412Y-94743123D01*
X102336108Y-94740947D01*
X102450749Y-94672607D01*
X102485860Y-94651677D01*
X102485862Y-94651676D01*
X102491912Y-94648069D01*
X102623266Y-94522982D01*
X102723643Y-94371902D01*
X102771371Y-94246258D01*
X102800064Y-94201906D01*
X103013331Y-93988640D01*
X103230536Y-93771435D01*
X103236801Y-93765582D01*
X103274664Y-93732552D01*
X103274665Y-93732551D01*
X103280385Y-93727561D01*
X103317136Y-93675271D01*
X103321028Y-93670029D01*
X103360476Y-93619718D01*
X103363600Y-93612799D01*
X103364988Y-93610507D01*
X103373357Y-93595835D01*
X103374622Y-93593475D01*
X103378990Y-93587261D01*
X103381816Y-93580014D01*
X103402202Y-93527725D01*
X103404759Y-93521642D01*
X103406654Y-93517447D01*
X103431045Y-93463427D01*
X103432430Y-93455954D01*
X103433234Y-93453388D01*
X103437855Y-93437165D01*
X103438520Y-93434573D01*
X103441282Y-93427491D01*
X103449622Y-93364139D01*
X103450654Y-93357623D01*
X103460911Y-93302281D01*
X103462295Y-93294814D01*
X103461858Y-93287232D01*
X103462335Y-93279649D01*
X103465189Y-93279829D01*
X103478216Y-93223647D01*
X103529100Y-93174135D01*
X103598673Y-93159993D01*
X103664849Y-93185709D01*
X103683206Y-93203039D01*
X103823218Y-93364673D01*
X103830580Y-93371883D01*
X103994434Y-93507916D01*
X104002881Y-93513831D01*
X104186756Y-93621279D01*
X104196042Y-93625729D01*
X104395001Y-93701703D01*
X104404899Y-93704579D01*
X104508250Y-93725606D01*
X104522299Y-93724410D01*
X104526000Y-93714065D01*
X104526000Y-93713517D01*
X105034000Y-93713517D01*
X105038064Y-93727359D01*
X105051478Y-93729393D01*
X105058184Y-93728534D01*
X105068262Y-93726392D01*
X105272255Y-93665191D01*
X105281842Y-93661433D01*
X105473095Y-93567739D01*
X105481945Y-93562464D01*
X105655328Y-93438792D01*
X105663200Y-93432139D01*
X105814052Y-93281812D01*
X105820730Y-93273965D01*
X105945003Y-93101020D01*
X105950313Y-93092183D01*
X106044670Y-92901267D01*
X106048469Y-92891672D01*
X106110377Y-92687910D01*
X106112555Y-92677837D01*
X106113986Y-92666962D01*
X106111775Y-92652778D01*
X106098617Y-92649000D01*
X105052115Y-92649000D01*
X105036876Y-92653475D01*
X105035671Y-92654865D01*
X105034000Y-92662548D01*
X105034000Y-93713517D01*
X104526000Y-93713517D01*
X104526000Y-92267000D01*
X104546002Y-92198879D01*
X104599658Y-92152386D01*
X104652000Y-92141000D01*
X106098344Y-92141000D01*
X106111875Y-92137027D01*
X106113180Y-92127947D01*
X106071214Y-91960875D01*
X106067894Y-91951124D01*
X105982972Y-91755814D01*
X105978105Y-91746739D01*
X105862426Y-91567926D01*
X105856136Y-91559757D01*
X105712293Y-91401677D01*
X105681241Y-91337831D01*
X105689635Y-91267333D01*
X105734812Y-91212564D01*
X105761256Y-91198895D01*
X105868297Y-91158767D01*
X105876705Y-91155615D01*
X105993261Y-91068261D01*
X106080615Y-90951705D01*
X106131745Y-90815316D01*
X106138500Y-90753134D01*
X106138500Y-88956866D01*
X106131745Y-88894684D01*
X106080615Y-88758295D01*
X105993261Y-88641739D01*
X105876705Y-88554385D01*
X105740316Y-88503255D01*
X105678134Y-88496500D01*
X103881866Y-88496500D01*
X103819684Y-88503255D01*
X103683295Y-88554385D01*
X103672458Y-88562507D01*
X103660065Y-88571795D01*
X103593559Y-88596643D01*
X103524176Y-88581590D01*
X103473946Y-88531416D01*
X103458500Y-88470969D01*
X103458500Y-83778911D01*
X103458792Y-83770342D01*
X103462209Y-83720223D01*
X103462209Y-83720219D01*
X103462725Y-83712647D01*
X103451736Y-83649685D01*
X103450777Y-83643182D01*
X103450199Y-83638401D01*
X103443102Y-83579758D01*
X103440416Y-83572649D01*
X103439784Y-83570078D01*
X103435324Y-83553772D01*
X103434549Y-83551204D01*
X103433242Y-83543716D01*
X103417068Y-83506870D01*
X103407561Y-83485212D01*
X103405069Y-83479105D01*
X103385173Y-83426452D01*
X103385173Y-83426451D01*
X103382487Y-83419344D01*
X103378184Y-83413083D01*
X103376947Y-83410717D01*
X103368720Y-83395937D01*
X103367369Y-83393652D01*
X103364315Y-83386695D01*
X103359695Y-83380675D01*
X103359692Y-83380669D01*
X103325421Y-83336009D01*
X103321541Y-83330668D01*
X103289661Y-83284280D01*
X103289656Y-83284275D01*
X103285357Y-83278019D01*
X103264165Y-83259137D01*
X103238830Y-83236565D01*
X103233554Y-83231584D01*
X101550927Y-81548957D01*
X101516901Y-81486645D01*
X101521966Y-81415830D01*
X101564513Y-81358994D01*
X101631033Y-81334183D01*
X101700407Y-81349274D01*
G37*
%TD.AperFunction*%
%TA.AperFunction,Conductor*%
G36*
X79805654Y-76276023D02*
G01*
X79835465Y-76340458D01*
X79825707Y-76410781D01*
X79799932Y-76448098D01*
X79143435Y-77104595D01*
X79081123Y-77138621D01*
X79054340Y-77141500D01*
X77851866Y-77141500D01*
X77789684Y-77148255D01*
X77653295Y-77199385D01*
X77536739Y-77286739D01*
X77449385Y-77403295D01*
X77398255Y-77539684D01*
X77391500Y-77601866D01*
X77391500Y-79398134D01*
X77398255Y-79460316D01*
X77449385Y-79596705D01*
X77536739Y-79713261D01*
X77653295Y-79800615D01*
X77789684Y-79851745D01*
X77851866Y-79858500D01*
X79648134Y-79858500D01*
X79710316Y-79851745D01*
X79846705Y-79800615D01*
X79963261Y-79713261D01*
X80050615Y-79596705D01*
X80055346Y-79584086D01*
X80094598Y-79479382D01*
X80137240Y-79422618D01*
X80203802Y-79397918D01*
X80273150Y-79413126D01*
X80307817Y-79441114D01*
X80336250Y-79473938D01*
X80508126Y-79616632D01*
X80701000Y-79729338D01*
X80705825Y-79731180D01*
X80705826Y-79731181D01*
X80778612Y-79758975D01*
X80909692Y-79809030D01*
X80914760Y-79810061D01*
X80914763Y-79810062D01*
X80974891Y-79822295D01*
X81128597Y-79853567D01*
X81133772Y-79853757D01*
X81133774Y-79853757D01*
X81346673Y-79861564D01*
X81346677Y-79861564D01*
X81351837Y-79861753D01*
X81356957Y-79861097D01*
X81356959Y-79861097D01*
X81568288Y-79834025D01*
X81568289Y-79834025D01*
X81573416Y-79833368D01*
X81578366Y-79831883D01*
X81691503Y-79797940D01*
X81762499Y-79797524D01*
X81816806Y-79829531D01*
X92217795Y-90230520D01*
X92223649Y-90236785D01*
X92261684Y-90280385D01*
X92267902Y-90284755D01*
X92313942Y-90317112D01*
X92319238Y-90321045D01*
X92369527Y-90360477D01*
X92376449Y-90363602D01*
X92378697Y-90364964D01*
X92393430Y-90373368D01*
X92395769Y-90374622D01*
X92401984Y-90378990D01*
X92409060Y-90381749D01*
X92409064Y-90381751D01*
X92461519Y-90402202D01*
X92467597Y-90404757D01*
X92525819Y-90431045D01*
X92533290Y-90432429D01*
X92535844Y-90433230D01*
X92552123Y-90437867D01*
X92554678Y-90438523D01*
X92561754Y-90441282D01*
X92590207Y-90445028D01*
X92625096Y-90449621D01*
X92631612Y-90450653D01*
X92673951Y-90458500D01*
X92694432Y-90462296D01*
X92702012Y-90461859D01*
X92702013Y-90461859D01*
X92756643Y-90458709D01*
X92763896Y-90458500D01*
X95620300Y-90458500D01*
X95677109Y-90472033D01*
X95677760Y-90472362D01*
X95683659Y-90476222D01*
X95690267Y-90478680D01*
X95690268Y-90478680D01*
X95847058Y-90536990D01*
X95847060Y-90536990D01*
X95853668Y-90539448D01*
X95884562Y-90543570D01*
X95914101Y-90547512D01*
X95978977Y-90576348D01*
X96017965Y-90635682D01*
X96018685Y-90706675D01*
X95986530Y-90761500D01*
X93269480Y-93478550D01*
X93263215Y-93484404D01*
X93219615Y-93522439D01*
X93215248Y-93528653D01*
X93182872Y-93574719D01*
X93178939Y-93580014D01*
X93139524Y-93630282D01*
X93136401Y-93637198D01*
X93135017Y-93639484D01*
X93126643Y-93654165D01*
X93125378Y-93656525D01*
X93121010Y-93662739D01*
X93118250Y-93669818D01*
X93118249Y-93669820D01*
X93097798Y-93722275D01*
X93095247Y-93728344D01*
X93068955Y-93786573D01*
X93067571Y-93794040D01*
X93066770Y-93796595D01*
X93062141Y-93812848D01*
X93061478Y-93815428D01*
X93058718Y-93822509D01*
X93050397Y-93885718D01*
X93050379Y-93885852D01*
X93049348Y-93892359D01*
X93037704Y-93955186D01*
X93038141Y-93962766D01*
X93038141Y-93962767D01*
X93041291Y-94017392D01*
X93041500Y-94024646D01*
X93041500Y-95569710D01*
X93025341Y-95624598D01*
X93028183Y-95626009D01*
X93025053Y-95632313D01*
X93021235Y-95638238D01*
X93018826Y-95644858D01*
X93018824Y-95644861D01*
X92964242Y-95794825D01*
X92959197Y-95808685D01*
X92936463Y-95988640D01*
X92954163Y-96169160D01*
X93011418Y-96341273D01*
X93015065Y-96347295D01*
X93015066Y-96347297D01*
X93085284Y-96463241D01*
X93105380Y-96496424D01*
X93110269Y-96501487D01*
X93110270Y-96501488D01*
X93123171Y-96514847D01*
X93156103Y-96577743D01*
X93149803Y-96648460D01*
X93106271Y-96704544D01*
X93039328Y-96728191D01*
X92970228Y-96711891D01*
X92943439Y-96691469D01*
X92798673Y-96546703D01*
X92768777Y-96499046D01*
X92767738Y-96496062D01*
X92733745Y-96398448D01*
X92705682Y-96353537D01*
X92641359Y-96250598D01*
X92637626Y-96244624D01*
X92614254Y-96221088D01*
X92514778Y-96120915D01*
X92514774Y-96120912D01*
X92509815Y-96115918D01*
X92498697Y-96108862D01*
X92437058Y-96069745D01*
X92356666Y-96018727D01*
X92315201Y-96003962D01*
X92192425Y-95960243D01*
X92192420Y-95960242D01*
X92185790Y-95957881D01*
X92178802Y-95957048D01*
X92178799Y-95957047D01*
X92055698Y-95942368D01*
X92005680Y-95936404D01*
X91998677Y-95937140D01*
X91998676Y-95937140D01*
X91832288Y-95954628D01*
X91832286Y-95954629D01*
X91825288Y-95955364D01*
X91653579Y-96013818D01*
X91504903Y-96105285D01*
X91436403Y-96123943D01*
X91368689Y-96102604D01*
X91349787Y-96087062D01*
X86145894Y-90883169D01*
X86111868Y-90820857D01*
X86108989Y-90794074D01*
X86108989Y-88527237D01*
X86109281Y-88518667D01*
X86112698Y-88468549D01*
X86112698Y-88468545D01*
X86113214Y-88460973D01*
X86102227Y-88398022D01*
X86101265Y-88391500D01*
X86094503Y-88335623D01*
X86093591Y-88328083D01*
X86090908Y-88320982D01*
X86090267Y-88318373D01*
X86085804Y-88302063D01*
X86085039Y-88299527D01*
X86083732Y-88292041D01*
X86058045Y-88233525D01*
X86055554Y-88227421D01*
X86035662Y-88174777D01*
X86035661Y-88174776D01*
X86032976Y-88167669D01*
X86028672Y-88161406D01*
X86027435Y-88159040D01*
X86019190Y-88144228D01*
X86017857Y-88141974D01*
X86014804Y-88135020D01*
X85975902Y-88084323D01*
X85972030Y-88078993D01*
X85940150Y-88032605D01*
X85940145Y-88032600D01*
X85935846Y-88026344D01*
X85889318Y-87984889D01*
X85884043Y-87979909D01*
X83423614Y-85519480D01*
X83417760Y-85513215D01*
X83417365Y-85512762D01*
X83379725Y-85469615D01*
X83327444Y-85432871D01*
X83322150Y-85428939D01*
X83282863Y-85398134D01*
X83271882Y-85389524D01*
X83264966Y-85386401D01*
X83262680Y-85385017D01*
X83247999Y-85376643D01*
X83245639Y-85375378D01*
X83239425Y-85371010D01*
X83232346Y-85368250D01*
X83232344Y-85368249D01*
X83179889Y-85347798D01*
X83173820Y-85345247D01*
X83115591Y-85318955D01*
X83108124Y-85317571D01*
X83105569Y-85316770D01*
X83089316Y-85312141D01*
X83086736Y-85311478D01*
X83079655Y-85308718D01*
X83072124Y-85307727D01*
X83072122Y-85307726D01*
X83042503Y-85303827D01*
X83016303Y-85300378D01*
X83009805Y-85299348D01*
X82946978Y-85287704D01*
X82939398Y-85288141D01*
X82939397Y-85288141D01*
X82884772Y-85291291D01*
X82877518Y-85291500D01*
X82696521Y-85291500D01*
X82628400Y-85271498D01*
X82581907Y-85217842D01*
X82571803Y-85147568D01*
X82583564Y-85109673D01*
X82634670Y-85006267D01*
X82638469Y-84996672D01*
X82700377Y-84792910D01*
X82702555Y-84782837D01*
X82703986Y-84771962D01*
X82701775Y-84757778D01*
X82688617Y-84754000D01*
X81242000Y-84754000D01*
X81173879Y-84733998D01*
X81127386Y-84680342D01*
X81116000Y-84628000D01*
X81116000Y-84227885D01*
X81624000Y-84227885D01*
X81628475Y-84243124D01*
X81629865Y-84244329D01*
X81637548Y-84246000D01*
X82688344Y-84246000D01*
X82701875Y-84242027D01*
X82703180Y-84232947D01*
X82661214Y-84065875D01*
X82657894Y-84056124D01*
X82572972Y-83860814D01*
X82568105Y-83851739D01*
X82452426Y-83672926D01*
X82446136Y-83664757D01*
X82302806Y-83507240D01*
X82295273Y-83500215D01*
X82128139Y-83368222D01*
X82119552Y-83362517D01*
X81933117Y-83259599D01*
X81923705Y-83255369D01*
X81722959Y-83184280D01*
X81712988Y-83181646D01*
X81641837Y-83168972D01*
X81628540Y-83170432D01*
X81624000Y-83184989D01*
X81624000Y-84227885D01*
X81116000Y-84227885D01*
X81116000Y-83183102D01*
X81112082Y-83169758D01*
X81097806Y-83167771D01*
X81059324Y-83173660D01*
X81049288Y-83176051D01*
X80846868Y-83242212D01*
X80837359Y-83246209D01*
X80648463Y-83344542D01*
X80639738Y-83350036D01*
X80469433Y-83477905D01*
X80461726Y-83484748D01*
X80314590Y-83638717D01*
X80308109Y-83646722D01*
X80203498Y-83800074D01*
X80148587Y-83845076D01*
X80078062Y-83853247D01*
X80014315Y-83821993D01*
X79993618Y-83797509D01*
X79912822Y-83672617D01*
X79912820Y-83672614D01*
X79910014Y-83668277D01*
X79759670Y-83503051D01*
X79755619Y-83499852D01*
X79755615Y-83499848D01*
X79588414Y-83367800D01*
X79588410Y-83367798D01*
X79584359Y-83364598D01*
X79548028Y-83344542D01*
X79522895Y-83330668D01*
X79388789Y-83256638D01*
X79383920Y-83254914D01*
X79383916Y-83254912D01*
X79183087Y-83183795D01*
X79183083Y-83183794D01*
X79178212Y-83182069D01*
X79173119Y-83181162D01*
X79173116Y-83181161D01*
X78963373Y-83143800D01*
X78963367Y-83143799D01*
X78958284Y-83142894D01*
X78884452Y-83141992D01*
X78740081Y-83140228D01*
X78740079Y-83140228D01*
X78734911Y-83140165D01*
X78514091Y-83173955D01*
X78301756Y-83243357D01*
X78103607Y-83346507D01*
X78099474Y-83349610D01*
X78099471Y-83349612D01*
X77932193Y-83475208D01*
X77924965Y-83480635D01*
X77921393Y-83484373D01*
X77813729Y-83597037D01*
X77770629Y-83642138D01*
X77663201Y-83799621D01*
X77608293Y-83844621D01*
X77537768Y-83852792D01*
X77474021Y-83821538D01*
X77453324Y-83797054D01*
X77372822Y-83672617D01*
X77372820Y-83672614D01*
X77370014Y-83668277D01*
X77219670Y-83503051D01*
X77215619Y-83499852D01*
X77215615Y-83499848D01*
X77048414Y-83367800D01*
X77048410Y-83367798D01*
X77044359Y-83364598D01*
X77008028Y-83344542D01*
X76982895Y-83330668D01*
X76848789Y-83256638D01*
X76843920Y-83254914D01*
X76843916Y-83254912D01*
X76643087Y-83183795D01*
X76643083Y-83183794D01*
X76638212Y-83182069D01*
X76633119Y-83181162D01*
X76633116Y-83181161D01*
X76423373Y-83143800D01*
X76423367Y-83143799D01*
X76418284Y-83142894D01*
X76344452Y-83141992D01*
X76200081Y-83140228D01*
X76200079Y-83140228D01*
X76194911Y-83140165D01*
X75974091Y-83173955D01*
X75761756Y-83243357D01*
X75563607Y-83346507D01*
X75559474Y-83349610D01*
X75559471Y-83349612D01*
X75392193Y-83475208D01*
X75384965Y-83480635D01*
X75324684Y-83543716D01*
X75304283Y-83565064D01*
X75242759Y-83600494D01*
X75171846Y-83597037D01*
X75114060Y-83555791D01*
X75095207Y-83522243D01*
X75053767Y-83411703D01*
X75050615Y-83403295D01*
X74963261Y-83286739D01*
X74846705Y-83199385D01*
X74710316Y-83148255D01*
X74648134Y-83141500D01*
X72851866Y-83141500D01*
X72789684Y-83148255D01*
X72653295Y-83199385D01*
X72536739Y-83286739D01*
X72449385Y-83403295D01*
X72398255Y-83539684D01*
X72391500Y-83601866D01*
X72391500Y-85398134D01*
X72398255Y-85460316D01*
X72449385Y-85596705D01*
X72536739Y-85713261D01*
X72653295Y-85800615D01*
X72789684Y-85851745D01*
X72851866Y-85858500D01*
X74054339Y-85858500D01*
X74122460Y-85878502D01*
X74143434Y-85895405D01*
X74728557Y-86480528D01*
X74734411Y-86486793D01*
X74772439Y-86530385D01*
X74824729Y-86567136D01*
X74829971Y-86571028D01*
X74880282Y-86610476D01*
X74887201Y-86613600D01*
X74889493Y-86614988D01*
X74904165Y-86623357D01*
X74906525Y-86624622D01*
X74912739Y-86628990D01*
X74919818Y-86631750D01*
X74919820Y-86631751D01*
X74972275Y-86652202D01*
X74978344Y-86654753D01*
X75036573Y-86681045D01*
X75044046Y-86682430D01*
X75046612Y-86683234D01*
X75062835Y-86687855D01*
X75065427Y-86688520D01*
X75072509Y-86691282D01*
X75080044Y-86692274D01*
X75135861Y-86699622D01*
X75142377Y-86700654D01*
X75180770Y-86707770D01*
X75205186Y-86712295D01*
X75212766Y-86711858D01*
X75212767Y-86711858D01*
X75267380Y-86708709D01*
X75274633Y-86708500D01*
X82556504Y-86708500D01*
X82624625Y-86728502D01*
X82645599Y-86745405D01*
X82747099Y-86846905D01*
X82781125Y-86909217D01*
X82776060Y-86980032D01*
X82733513Y-87036868D01*
X82666993Y-87061679D01*
X82658004Y-87062000D01*
X69997000Y-87062000D01*
X69928879Y-87041998D01*
X69882386Y-86988342D01*
X69871000Y-86936000D01*
X69871000Y-81801683D01*
X69891002Y-81733562D01*
X69911992Y-81708679D01*
X70063772Y-81569948D01*
X70424817Y-81239944D01*
X70428632Y-81236598D01*
X71164154Y-80617577D01*
X71168147Y-80614354D01*
X71928348Y-80025948D01*
X71932488Y-80022877D01*
X72716109Y-79466060D01*
X72720370Y-79463162D01*
X73258712Y-79112854D01*
X73526121Y-78938847D01*
X73530419Y-78936174D01*
X74357005Y-78445210D01*
X74361446Y-78442695D01*
X74569497Y-78330367D01*
X75207339Y-77985992D01*
X75211902Y-77983648D01*
X75594119Y-77797054D01*
X76075763Y-77561922D01*
X76080439Y-77559756D01*
X76909462Y-77196233D01*
X76960850Y-77173700D01*
X76965609Y-77171729D01*
X76972668Y-77168972D01*
X77861011Y-76822026D01*
X77865833Y-76820255D01*
X78774839Y-76507446D01*
X78779746Y-76505869D01*
X79674744Y-76238283D01*
X79745740Y-76237934D01*
X79805654Y-76276023D01*
G37*
%TD.AperFunction*%
%TA.AperFunction,Conductor*%
G36*
X86394142Y-75376605D02*
G01*
X87354799Y-75411919D01*
X87359944Y-75412214D01*
X87971217Y-75459776D01*
X88318346Y-75486785D01*
X88323458Y-75487288D01*
X88800738Y-75544141D01*
X89278010Y-75600993D01*
X89283114Y-75601707D01*
X89559152Y-75646103D01*
X90232228Y-75754356D01*
X90237261Y-75755271D01*
X91179360Y-75946614D01*
X91184373Y-75947739D01*
X91557974Y-76039674D01*
X92117841Y-76177445D01*
X92122819Y-76178779D01*
X93046080Y-76446459D01*
X93051000Y-76447995D01*
X93962556Y-76753216D01*
X93967409Y-76754952D01*
X94865719Y-77097195D01*
X94870494Y-77099127D01*
X95213662Y-77246209D01*
X95754072Y-77477829D01*
X95758766Y-77479956D01*
X96626089Y-77894463D01*
X96630693Y-77896780D01*
X97480337Y-78346410D01*
X97484842Y-78348913D01*
X98315424Y-78832936D01*
X98319824Y-78835622D01*
X98669944Y-79059322D01*
X98716579Y-79112854D01*
X98726869Y-79183101D01*
X98697547Y-79247760D01*
X98637922Y-79286302D01*
X98602104Y-79291500D01*
X94696521Y-79291500D01*
X94628400Y-79271498D01*
X94581907Y-79217842D01*
X94571803Y-79147568D01*
X94583564Y-79109673D01*
X94634670Y-79006267D01*
X94638469Y-78996672D01*
X94700377Y-78792910D01*
X94702555Y-78782837D01*
X94703986Y-78771962D01*
X94701775Y-78757778D01*
X94688617Y-78754000D01*
X93242000Y-78754000D01*
X93173879Y-78733998D01*
X93127386Y-78680342D01*
X93116000Y-78628000D01*
X93116000Y-78227885D01*
X93624000Y-78227885D01*
X93628475Y-78243124D01*
X93629865Y-78244329D01*
X93637548Y-78246000D01*
X94688344Y-78246000D01*
X94701875Y-78242027D01*
X94703180Y-78232947D01*
X94661214Y-78065875D01*
X94657894Y-78056124D01*
X94572972Y-77860814D01*
X94568105Y-77851739D01*
X94452426Y-77672926D01*
X94446136Y-77664757D01*
X94302806Y-77507240D01*
X94295273Y-77500215D01*
X94128139Y-77368222D01*
X94119552Y-77362517D01*
X93933117Y-77259599D01*
X93923705Y-77255369D01*
X93722959Y-77184280D01*
X93712988Y-77181646D01*
X93641837Y-77168972D01*
X93628540Y-77170432D01*
X93624000Y-77184989D01*
X93624000Y-78227885D01*
X93116000Y-78227885D01*
X93116000Y-77183102D01*
X93112082Y-77169758D01*
X93097806Y-77167771D01*
X93059324Y-77173660D01*
X93049288Y-77176051D01*
X92846868Y-77242212D01*
X92837359Y-77246209D01*
X92648463Y-77344542D01*
X92639738Y-77350036D01*
X92469433Y-77477905D01*
X92461726Y-77484748D01*
X92314590Y-77638717D01*
X92308109Y-77646722D01*
X92203498Y-77800074D01*
X92148587Y-77845076D01*
X92078062Y-77853247D01*
X92014315Y-77821993D01*
X91993618Y-77797509D01*
X91912822Y-77672617D01*
X91912820Y-77672614D01*
X91910014Y-77668277D01*
X91759670Y-77503051D01*
X91755619Y-77499852D01*
X91755615Y-77499848D01*
X91588414Y-77367800D01*
X91588410Y-77367798D01*
X91584359Y-77364598D01*
X91548028Y-77344542D01*
X91532136Y-77335769D01*
X91388789Y-77256638D01*
X91383920Y-77254914D01*
X91383916Y-77254912D01*
X91183087Y-77183795D01*
X91183083Y-77183794D01*
X91178212Y-77182069D01*
X91173119Y-77181162D01*
X91173116Y-77181161D01*
X90963373Y-77143800D01*
X90963367Y-77143799D01*
X90958284Y-77142894D01*
X90884452Y-77141992D01*
X90740081Y-77140228D01*
X90740079Y-77140228D01*
X90734911Y-77140165D01*
X90514091Y-77173955D01*
X90301756Y-77243357D01*
X90103607Y-77346507D01*
X90099474Y-77349610D01*
X90099471Y-77349612D01*
X89929100Y-77477530D01*
X89924965Y-77480635D01*
X89921393Y-77484373D01*
X89810995Y-77599898D01*
X89770629Y-77642138D01*
X89663201Y-77799621D01*
X89608293Y-77844621D01*
X89537768Y-77852792D01*
X89474021Y-77821538D01*
X89453324Y-77797054D01*
X89372822Y-77672617D01*
X89372820Y-77672614D01*
X89370014Y-77668277D01*
X89219670Y-77503051D01*
X89215619Y-77499852D01*
X89215615Y-77499848D01*
X89048414Y-77367800D01*
X89048410Y-77367798D01*
X89044359Y-77364598D01*
X89008028Y-77344542D01*
X88992136Y-77335769D01*
X88848789Y-77256638D01*
X88843920Y-77254914D01*
X88843916Y-77254912D01*
X88643087Y-77183795D01*
X88643083Y-77183794D01*
X88638212Y-77182069D01*
X88633119Y-77181162D01*
X88633116Y-77181161D01*
X88423373Y-77143800D01*
X88423367Y-77143799D01*
X88418284Y-77142894D01*
X88344452Y-77141992D01*
X88200081Y-77140228D01*
X88200079Y-77140228D01*
X88194911Y-77140165D01*
X87974091Y-77173955D01*
X87761756Y-77243357D01*
X87563607Y-77346507D01*
X87559474Y-77349610D01*
X87559471Y-77349612D01*
X87389100Y-77477530D01*
X87384965Y-77480635D01*
X87307286Y-77561922D01*
X87304283Y-77565064D01*
X87242759Y-77600494D01*
X87171846Y-77597037D01*
X87114060Y-77555791D01*
X87095207Y-77522243D01*
X87053767Y-77411703D01*
X87050615Y-77403295D01*
X86963261Y-77286739D01*
X86846705Y-77199385D01*
X86710316Y-77148255D01*
X86648134Y-77141500D01*
X84851866Y-77141500D01*
X84789684Y-77148255D01*
X84653295Y-77199385D01*
X84536739Y-77286739D01*
X84449385Y-77403295D01*
X84398255Y-77539684D01*
X84397402Y-77547536D01*
X84397401Y-77547540D01*
X84391714Y-77599898D01*
X84364473Y-77665460D01*
X84306110Y-77705887D01*
X84235156Y-77708343D01*
X84177356Y-77675386D01*
X82771450Y-76269480D01*
X82765596Y-76263215D01*
X82765201Y-76262762D01*
X82727561Y-76219615D01*
X82675280Y-76182871D01*
X82669986Y-76178939D01*
X82625693Y-76144209D01*
X82619718Y-76139524D01*
X82612802Y-76136401D01*
X82610516Y-76135017D01*
X82595835Y-76126643D01*
X82593475Y-76125378D01*
X82587261Y-76121010D01*
X82580182Y-76118250D01*
X82580180Y-76118249D01*
X82527725Y-76097798D01*
X82521656Y-76095247D01*
X82463427Y-76068955D01*
X82455960Y-76067571D01*
X82453405Y-76066770D01*
X82437152Y-76062141D01*
X82434572Y-76061478D01*
X82427491Y-76058718D01*
X82419960Y-76057727D01*
X82419958Y-76057726D01*
X82390339Y-76053827D01*
X82364139Y-76050378D01*
X82357641Y-76049348D01*
X82294814Y-76037704D01*
X82287234Y-76038141D01*
X82287233Y-76038141D01*
X82232608Y-76041291D01*
X82225354Y-76041500D01*
X81604467Y-76041500D01*
X81536346Y-76021498D01*
X81489853Y-75967842D01*
X81479749Y-75897568D01*
X81509243Y-75832988D01*
X81568969Y-75794604D01*
X81578348Y-75792237D01*
X81581481Y-75791573D01*
X81582691Y-75791317D01*
X81587743Y-75790354D01*
X82535533Y-75629808D01*
X82540634Y-75629051D01*
X83494200Y-75507401D01*
X83499325Y-75506853D01*
X84037078Y-75460502D01*
X84457109Y-75424299D01*
X84462221Y-75423964D01*
X85422557Y-75380650D01*
X85427681Y-75380523D01*
X85919204Y-75378477D01*
X86388988Y-75376521D01*
X86394142Y-75376605D01*
G37*
%TD.AperFunction*%
%TD*%
M02*
