M48
; DRILL file {KiCad (6.0.0)} date Tue May  3 19:57:34 2022
; FORMAT={-:-/ absolute / inch / decimal}
; #@! TF.CreationDate,2022-05-03T19:57:34-07:00
; #@! TF.GenerationSoftware,Kicad,Pcbnew,(6.0.0)
; #@! TF.FileFunction,MixedPlating,1,2
FMAT,2
INCH
; #@! TA.AperFunction,Plated,PTH,ViaDrill
T1C0.0157
; #@! TA.AperFunction,Plated,PTH,ComponentDrill
T2C0.0276
; #@! TA.AperFunction,Plated,PTH,ComponentDrill
T3C0.0354
; #@! TA.AperFunction,Plated,PTH,ComponentDrill
T4C0.0394
; #@! TA.AperFunction,Plated,PTH,ComponentDrill
T5C0.0512
; #@! TA.AperFunction,NonPlated,NPTH,ComponentDrill
T6C0.1260
%
G90
G05
T1
X2.7953Y-3.3465
X3.3366Y-3.8878
X3.3366Y-4.1831
X3.4252Y-3.8091
X3.4547Y-3.5531
X3.4864Y-3.8799
X3.5433Y-3.5827
X3.557Y-3.6263
X3.5796Y-3.6027
X3.6319Y-3.6075
X3.6417Y-4.065
X3.6516Y-3.2185
X3.6694Y-3.7534
X3.6713Y-4.1634
X3.7008Y-3.878
X3.7008Y-3.9862
X3.7106Y-4.1043
X3.7125Y-3.4505
X3.7205Y-3.7992
X3.7598Y-3.7756
X3.8799Y-4.328
X3.8819Y-3.748
X3.9067Y-4.2342
X3.9195Y-3.7351
X3.9567Y-3.4843
X3.9665Y-4.3209
X3.9826Y-4.2054
X3.9955Y-3.5797
X4.0016Y-3.6105
X4.01Y-3.6811
X4.0157Y-3.6417
X4.0481Y-3.5418
X4.0551Y-3.5069
X4.065Y-3.7402
X4.1213Y-4.013
X4.1715Y-3.8128
T2
X4.1043Y-3.4055
T3
X3.248Y-4.6457
X3.3465Y-4.6457
X3.4252Y-4.6457
X3.5236Y-4.6457
T4
X2.9035Y-3.3268
X3.0035Y-3.3268
X3.1035Y-3.3268
X3.2035Y-3.3268
X3.3947Y-3.0709
X3.4947Y-3.0709
X4.1831Y-3.5376
X4.1831Y-3.6376
T6
X2.8937Y-4.5472
X3.878Y-3.248
X3.878Y-4.5472
T5
G00X3.1272Y-4.6417
M15
G01X3.1272Y-4.6024
M16
G05
G00X3.3661Y-4.4575
M15
G01X3.4055Y-4.4575
M16
G05
G00X3.6445Y-4.6024
M15
G01X3.6445Y-4.6417
M16
G05
T0
M30
