M48
; DRILL file {KiCad (6.0.1)} date Fri Apr  8 22:06:00 2022
; FORMAT={-:-/ absolute / inch / decimal}
; #@! TF.CreationDate,2022-04-08T22:06:00-07:00
; #@! TF.GenerationSoftware,Kicad,Pcbnew,(6.0.1)
; #@! TF.FileFunction,MixedPlating,1,2
FMAT,2
INCH
; #@! TA.AperFunction,Plated,PTH,ViaDrill
T1C0.0157
; #@! TA.AperFunction,Plated,PTH,ComponentDrill
T2C0.0354
; #@! TA.AperFunction,Plated,PTH,ComponentDrill
T3C0.0394
; #@! TA.AperFunction,Plated,PTH,ComponentDrill
T4C0.0512
; #@! TA.AperFunction,NonPlated,NPTH,ComponentDrill
T5C0.1260
%
G90
G05
T1
X2.7953Y-3.3465
X2.9429Y-3.248
X3.3465Y-4.0945
X3.382Y-3.7561
X3.3858Y-3.3071
X3.5237Y-3.2204
X3.622Y-3.8091
X3.6417Y-3.7697
X3.6713Y-4.1634
X3.6811Y-3.376
X3.6811Y-3.4547
X3.6909Y-3.7795
X3.7815Y-3.5335
X3.8189Y-3.6417
X3.8189Y-3.7992
X3.8484Y-3.4252
X3.8799Y-4.328
X3.9075Y-4.2224
X3.9567Y-3.937
X3.9665Y-4.3209
X3.9764Y-4.1929
X3.9961Y-3.5433
X3.9961Y-3.7894
X4.0157Y-3.7008
X4.1043Y-3.75
X4.122Y-3.9094
X4.1535Y-3.9862
X4.1614Y-3.7816
X4.1811Y-3.7571
T2
X3.248Y-4.6457
X3.3465Y-4.6457
X3.4252Y-4.6457
X3.5236Y-4.6457
T3
X2.9035Y-3.3268
X3.0035Y-3.3268
X3.1004Y-3.0906
X3.1035Y-3.3268
X3.2004Y-3.0906
X3.2035Y-3.3268
X3.376Y-3.0906
X3.476Y-3.0906
X3.576Y-3.0906
X3.676Y-3.0906
X4.1252Y-3.5376
X4.1252Y-3.6376
T5
X2.8937Y-4.5472
X3.878Y-3.248
X3.878Y-4.5472
T4
G00X3.1272Y-4.6417
M15
G01X3.1272Y-4.6024
M16
G05
G00X3.3661Y-4.4575
M15
G01X3.4055Y-4.4575
M16
G05
G00X3.6445Y-4.6024
M15
G01X3.6445Y-4.6417
M16
G05
T0
M30
