%TF.GenerationSoftware,KiCad,Pcbnew,(6.0.0)*%
%TF.CreationDate,2022-05-03T19:57:31-07:00*%
%TF.ProjectId,well-depth-battery,77656c6c-2d64-4657-9074-682d62617474,1*%
%TF.SameCoordinates,Original*%
%TF.FileFunction,Legend,Bot*%
%TF.FilePolarity,Positive*%
%FSLAX46Y46*%
G04 Gerber Fmt 4.6, Leading zero omitted, Abs format (unit mm)*
G04 Created by KiCad (PCBNEW (6.0.0)) date 2022-05-03 19:57:31*
%MOMM*%
%LPD*%
G01*
G04 APERTURE LIST*
%ADD10C,0.150000*%
%ADD11C,0.120000*%
G04 APERTURE END LIST*
D10*
X85702380Y-80692738D02*
X85702380Y-81264166D01*
X86702380Y-80978452D02*
X85702380Y-80978452D01*
X85702380Y-81502261D02*
X86702380Y-82168928D01*
X85702380Y-82168928D02*
X86702380Y-81502261D01*
X89202380Y-81157023D02*
X88726190Y-80823690D01*
X89202380Y-80585595D02*
X88202380Y-80585595D01*
X88202380Y-80966547D01*
X88250000Y-81061785D01*
X88297619Y-81109404D01*
X88392857Y-81157023D01*
X88535714Y-81157023D01*
X88630952Y-81109404D01*
X88678571Y-81061785D01*
X88726190Y-80966547D01*
X88726190Y-80585595D01*
X88202380Y-81490357D02*
X89202380Y-82157023D01*
X88202380Y-82157023D02*
X89202380Y-81490357D01*
X103640595Y-92000000D02*
X103735833Y-91952380D01*
X103878690Y-91952380D01*
X104021547Y-92000000D01*
X104116785Y-92095238D01*
X104164404Y-92190476D01*
X104212023Y-92380952D01*
X104212023Y-92523809D01*
X104164404Y-92714285D01*
X104116785Y-92809523D01*
X104021547Y-92904761D01*
X103878690Y-92952380D01*
X103783452Y-92952380D01*
X103640595Y-92904761D01*
X103592976Y-92857142D01*
X103592976Y-92523809D01*
X103783452Y-92523809D01*
X103164404Y-92952380D02*
X103164404Y-91952380D01*
X102592976Y-92952380D01*
X102592976Y-91952380D01*
X102116785Y-92952380D02*
X102116785Y-91952380D01*
X101878690Y-91952380D01*
X101735833Y-92000000D01*
X101640595Y-92095238D01*
X101592976Y-92190476D01*
X101545357Y-92380952D01*
X101545357Y-92523809D01*
X101592976Y-92714285D01*
X101640595Y-92809523D01*
X101735833Y-92904761D01*
X101878690Y-92952380D01*
X102116785Y-92952380D01*
X104414404Y-89821428D02*
X103652500Y-89821428D01*
X104033452Y-90202380D02*
X104033452Y-89440476D01*
X103128690Y-90202380D02*
X102938214Y-90202380D01*
X102842976Y-90154761D01*
X102795357Y-90107142D01*
X102700119Y-89964285D01*
X102652500Y-89773809D01*
X102652500Y-89392857D01*
X102700119Y-89297619D01*
X102747738Y-89250000D01*
X102842976Y-89202380D01*
X103033452Y-89202380D01*
X103128690Y-89250000D01*
X103176309Y-89297619D01*
X103223928Y-89392857D01*
X103223928Y-89630952D01*
X103176309Y-89726190D01*
X103128690Y-89773809D01*
X103033452Y-89821428D01*
X102842976Y-89821428D01*
X102747738Y-89773809D01*
X102700119Y-89726190D01*
X102652500Y-89630952D01*
X102366785Y-89202380D02*
X102033452Y-90202380D01*
X101700119Y-89202380D01*
X81880952Y-82321428D02*
X81119047Y-82321428D01*
X74130952Y-82321428D02*
X73369047Y-82321428D01*
X73750000Y-82702380D02*
X73750000Y-81940476D01*
D11*
%TO.C,J3*%
X102990641Y-96375300D02*
X103471600Y-96375300D01*
X88028400Y-96375300D02*
X100420161Y-96375300D01*
X88028400Y-110624700D02*
X88028400Y-105230440D01*
X88028400Y-103269560D02*
X88028400Y-100767976D01*
X103471600Y-96375300D02*
X103471600Y-109068759D01*
X101420162Y-110624700D02*
X88028400Y-110624700D01*
X88028400Y-97569560D02*
X88028400Y-96375300D01*
%TO.C,J6*%
X98850000Y-89000000D02*
X95500000Y-89000000D01*
X98850000Y-89000000D02*
X98850000Y-94000000D01*
X86150000Y-94000000D02*
X86150000Y-89000000D01*
X86150000Y-89000000D02*
X89500000Y-89000000D01*
X98850000Y-94000000D02*
X95500000Y-94000000D01*
X91500000Y-87500000D02*
X93500000Y-87500000D01*
X86150000Y-94000000D02*
X89500000Y-94000000D01*
%TO.C,Q3*%
X84240000Y-97937500D02*
X84240000Y-98587500D01*
X87360000Y-97937500D02*
X87360000Y-97287500D01*
X87360000Y-97937500D02*
X87360000Y-98587500D01*
X84240000Y-97937500D02*
X84240000Y-96262500D01*
%TD*%
M02*
