%TF.GenerationSoftware,KiCad,Pcbnew,(6.0.1)*%
%TF.CreationDate,2022-04-08T22:05:58-07:00*%
%TF.ProjectId,well-depth-battery,77656c6c-2d64-4657-9074-682d62617474,1*%
%TF.SameCoordinates,Original*%
%TF.FileFunction,Copper,L1,Top*%
%TF.FilePolarity,Positive*%
%FSLAX46Y46*%
G04 Gerber Fmt 4.6, Leading zero omitted, Abs format (unit mm)*
G04 Created by KiCad (PCBNEW (6.0.1)) date 2022-04-08 22:05:58*
%MOMM*%
%LPD*%
G01*
G04 APERTURE LIST*
G04 Aperture macros list*
%AMRoundRect*
0 Rectangle with rounded corners*
0 $1 Rounding radius*
0 $2 $3 $4 $5 $6 $7 $8 $9 X,Y pos of 4 corners*
0 Add a 4 corners polygon primitive as box body*
4,1,4,$2,$3,$4,$5,$6,$7,$8,$9,$2,$3,0*
0 Add four circle primitives for the rounded corners*
1,1,$1+$1,$2,$3*
1,1,$1+$1,$4,$5*
1,1,$1+$1,$6,$7*
1,1,$1+$1,$8,$9*
0 Add four rect primitives between the rounded corners*
20,1,$1+$1,$2,$3,$4,$5,0*
20,1,$1+$1,$4,$5,$6,$7,0*
20,1,$1+$1,$6,$7,$8,$9,0*
20,1,$1+$1,$8,$9,$2,$3,0*%
G04 Aperture macros list end*
%TA.AperFunction,SMDPad,CuDef*%
%ADD10RoundRect,0.140000X0.140000X0.170000X-0.140000X0.170000X-0.140000X-0.170000X0.140000X-0.170000X0*%
%TD*%
%TA.AperFunction,SMDPad,CuDef*%
%ADD11RoundRect,0.150000X0.587500X0.150000X-0.587500X0.150000X-0.587500X-0.150000X0.587500X-0.150000X0*%
%TD*%
%TA.AperFunction,SMDPad,CuDef*%
%ADD12RoundRect,0.140000X0.170000X-0.140000X0.170000X0.140000X-0.170000X0.140000X-0.170000X-0.140000X0*%
%TD*%
%TA.AperFunction,SMDPad,CuDef*%
%ADD13RoundRect,0.135000X0.185000X-0.135000X0.185000X0.135000X-0.185000X0.135000X-0.185000X-0.135000X0*%
%TD*%
%TA.AperFunction,ComponentPad*%
%ADD14R,1.700000X1.700000*%
%TD*%
%TA.AperFunction,ComponentPad*%
%ADD15O,1.700000X1.700000*%
%TD*%
%TA.AperFunction,SMDPad,CuDef*%
%ADD16RoundRect,0.140000X-0.170000X0.140000X-0.170000X-0.140000X0.170000X-0.140000X0.170000X0.140000X0*%
%TD*%
%TA.AperFunction,SMDPad,CuDef*%
%ADD17R,0.600000X1.200000*%
%TD*%
%TA.AperFunction,SMDPad,CuDef*%
%ADD18RoundRect,0.250000X0.250000X0.475000X-0.250000X0.475000X-0.250000X-0.475000X0.250000X-0.475000X0*%
%TD*%
%TA.AperFunction,ComponentPad*%
%ADD19R,1.300000X1.300000*%
%TD*%
%TA.AperFunction,ComponentPad*%
%ADD20C,1.300000*%
%TD*%
%TA.AperFunction,ComponentPad*%
%ADD21O,1.900000X2.900000*%
%TD*%
%TA.AperFunction,ComponentPad*%
%ADD22O,2.900000X1.900000*%
%TD*%
%TA.AperFunction,SMDPad,CuDef*%
%ADD23RoundRect,0.135000X0.135000X0.185000X-0.135000X0.185000X-0.135000X-0.185000X0.135000X-0.185000X0*%
%TD*%
%TA.AperFunction,SMDPad,CuDef*%
%ADD24RoundRect,0.140000X-0.140000X-0.170000X0.140000X-0.170000X0.140000X0.170000X-0.140000X0.170000X0*%
%TD*%
%TA.AperFunction,SMDPad,CuDef*%
%ADD25R,0.600000X2.200000*%
%TD*%
%TA.AperFunction,SMDPad,CuDef*%
%ADD26R,3.450000X2.150000*%
%TD*%
%TA.AperFunction,SMDPad,CuDef*%
%ADD27R,0.600000X0.450000*%
%TD*%
%TA.AperFunction,SMDPad,CuDef*%
%ADD28RoundRect,0.150000X-0.675000X-0.150000X0.675000X-0.150000X0.675000X0.150000X-0.675000X0.150000X0*%
%TD*%
%TA.AperFunction,SMDPad,CuDef*%
%ADD29RoundRect,0.135000X-0.185000X0.135000X-0.185000X-0.135000X0.185000X-0.135000X0.185000X0.135000X0*%
%TD*%
%TA.AperFunction,SMDPad,CuDef*%
%ADD30RoundRect,0.150000X0.150000X-0.587500X0.150000X0.587500X-0.150000X0.587500X-0.150000X-0.587500X0*%
%TD*%
%TA.AperFunction,SMDPad,CuDef*%
%ADD31RoundRect,0.243750X0.456250X-0.243750X0.456250X0.243750X-0.456250X0.243750X-0.456250X-0.243750X0*%
%TD*%
%TA.AperFunction,SMDPad,CuDef*%
%ADD32RoundRect,0.200000X0.200000X0.275000X-0.200000X0.275000X-0.200000X-0.275000X0.200000X-0.275000X0*%
%TD*%
%TA.AperFunction,SMDPad,CuDef*%
%ADD33RoundRect,0.135000X-0.135000X-0.185000X0.135000X-0.185000X0.135000X0.185000X-0.135000X0.185000X0*%
%TD*%
%TA.AperFunction,SMDPad,CuDef*%
%ADD34RoundRect,0.150000X-0.825000X-0.150000X0.825000X-0.150000X0.825000X0.150000X-0.825000X0.150000X0*%
%TD*%
%TA.AperFunction,SMDPad,CuDef*%
%ADD35RoundRect,0.150000X0.150000X-0.825000X0.150000X0.825000X-0.150000X0.825000X-0.150000X-0.825000X0*%
%TD*%
%TA.AperFunction,ViaPad*%
%ADD36C,0.600000*%
%TD*%
%TA.AperFunction,Conductor*%
%ADD37C,0.400000*%
%TD*%
%TA.AperFunction,Conductor*%
%ADD38C,0.200000*%
%TD*%
G04 APERTURE END LIST*
D10*
%TO.P,C15,1*%
%TO.N,GND*%
X88510000Y-99992500D03*
%TO.P,C15,2*%
%TO.N,+3V3*%
X87550000Y-99992500D03*
%TD*%
D11*
%TO.P,Q2,1,G*%
%TO.N,Net-(Q2-Pad1)*%
X103467500Y-98305000D03*
%TO.P,Q2,2,S*%
%TO.N,+9V*%
X103467500Y-96405000D03*
%TO.P,Q2,3,D*%
%TO.N,VDD*%
X101592500Y-97355000D03*
%TD*%
D12*
%TO.P,C3,1*%
%TO.N,Net-(C3-Pad1)*%
X94030000Y-108305000D03*
%TO.P,C3,2*%
%TO.N,Net-(C3-Pad2)*%
X94030000Y-107345000D03*
%TD*%
D13*
%TO.P,R1,1*%
%TO.N,Net-(Q2-Pad1)*%
X105030000Y-97865000D03*
%TO.P,R1,2*%
%TO.N,+9V*%
X105030000Y-96845000D03*
%TD*%
D12*
%TO.P,C7,1*%
%TO.N,GND*%
X104280000Y-106625000D03*
%TO.P,C7,2*%
%TO.N,Net-(C5-Pad2)*%
X104280000Y-105665000D03*
%TD*%
D14*
%TO.P,J4,1,Pin_1*%
%TO.N,/TXD*%
X78750000Y-78500000D03*
D15*
%TO.P,J4,2,Pin_2*%
%TO.N,/RXD*%
X81290000Y-78500000D03*
%TD*%
D16*
%TO.P,C9,1*%
%TO.N,GND*%
X104655000Y-99770000D03*
%TO.P,C9,2*%
%TO.N,VDD*%
X104655000Y-100730000D03*
%TD*%
D12*
%TO.P,C12,1*%
%TO.N,Net-(C12-Pad1)*%
X89850000Y-98065000D03*
%TO.P,C12,2*%
%TO.N,GND*%
X89850000Y-97105000D03*
%TD*%
D10*
%TO.P,C6,1*%
%TO.N,GND*%
X105260000Y-107625000D03*
%TO.P,C6,2*%
%TO.N,VDD*%
X104300000Y-107625000D03*
%TD*%
D13*
%TO.P,R5,1*%
%TO.N,Net-(J2-Pad3)*%
X78532000Y-82020000D03*
%TO.P,R5,2*%
%TO.N,Net-(C2-Pad2)*%
X78532000Y-81000000D03*
%TD*%
%TO.P,R8,1*%
%TO.N,Net-(C4-Pad1)*%
X104530000Y-110125000D03*
%TO.P,R8,2*%
%TO.N,Net-(C4-Pad2)*%
X104530000Y-109105000D03*
%TD*%
D17*
%TO.P,Y1,1,1*%
%TO.N,Net-(C12-Pad1)*%
X88450000Y-97585000D03*
%TO.P,Y1,2,2*%
%TO.N,Net-(C11-Pad1)*%
X87250000Y-97585000D03*
%TD*%
D13*
%TO.P,R9,1*%
%TO.N,/SDA*%
X92780000Y-89625000D03*
%TO.P,R9,2*%
%TO.N,+3V3*%
X92780000Y-88605000D03*
%TD*%
%TO.P,R21,1*%
%TO.N,GND*%
X106280000Y-106615000D03*
%TO.P,R21,2*%
%TO.N,Net-(C5-Pad2)*%
X106280000Y-105595000D03*
%TD*%
D18*
%TO.P,C13,1*%
%TO.N,Net-(C13-Pad1)*%
X89052000Y-84230000D03*
%TO.P,C13,2*%
%TO.N,GND*%
X87152000Y-84230000D03*
%TD*%
D19*
%TO.P,J5,1,VBUS*%
%TO.N,unconnected-(J5-Pad1)*%
X82500000Y-118000000D03*
D20*
%TO.P,J5,2,D-*%
%TO.N,/USB_D-*%
X85000000Y-118000000D03*
%TO.P,J5,3,D+*%
%TO.N,/USB_D+*%
X87000000Y-118000000D03*
%TO.P,J5,4,GND*%
%TO.N,GND*%
X89500000Y-118000000D03*
D21*
%TO.P,J5,5,Shield*%
X92570000Y-117400000D03*
X79430000Y-117400000D03*
D22*
X86000000Y-113220000D03*
%TD*%
D23*
%TO.P,R2,1*%
%TO.N,GND*%
X107672000Y-104000000D03*
%TO.P,R2,2*%
%TO.N,/A_ON*%
X106652000Y-104000000D03*
%TD*%
D14*
%TO.P,J2,1,Pin_1*%
%TO.N,VDD*%
X73750000Y-84500000D03*
D15*
%TO.P,J2,2,Pin_2*%
%TO.N,Net-(J2-Pad2)*%
X76290000Y-84500000D03*
%TO.P,J2,3,Pin_3*%
%TO.N,Net-(J2-Pad3)*%
X78830000Y-84500000D03*
%TO.P,J2,4,Pin_4*%
%TO.N,GND*%
X81370000Y-84500000D03*
%TD*%
D24*
%TO.P,C14,1*%
%TO.N,GND*%
X89530000Y-99992500D03*
%TO.P,C14,2*%
%TO.N,+9V*%
X90490000Y-99992500D03*
%TD*%
D12*
%TO.P,C8,1*%
%TO.N,Net-(C8-Pad1)*%
X96155000Y-101335000D03*
%TO.P,C8,2*%
%TO.N,Net-(C8-Pad2)*%
X96155000Y-100375000D03*
%TD*%
D16*
%TO.P,C11,1*%
%TO.N,Net-(C11-Pad1)*%
X85850000Y-97520000D03*
%TO.P,C11,2*%
%TO.N,GND*%
X85850000Y-98480000D03*
%TD*%
D25*
%TO.P,U6,1,~{SHDN}*%
%TO.N,+9V*%
X91050000Y-101855000D03*
%TO.P,U6,2,VIN*%
X89780000Y-101855000D03*
%TO.P,U6,3,GND*%
%TO.N,GND*%
X88510000Y-101855000D03*
%TO.P,U6,4,VOUT*%
%TO.N,+3V3*%
X87240000Y-101855000D03*
%TO.P,U6,5,NC*%
%TO.N,unconnected-(U6-Pad5)*%
X85970000Y-101855000D03*
D26*
%TO.P,U6,6,GND*%
%TO.N,GND*%
X88510000Y-108155000D03*
%TD*%
D14*
%TO.P,J3,1,Pin_1*%
%TO.N,+3V3*%
X85750000Y-78500000D03*
D15*
%TO.P,J3,2,Pin_2*%
%TO.N,/SWCLK*%
X88290000Y-78500000D03*
%TO.P,J3,3,Pin_3*%
%TO.N,/SWDIO*%
X90830000Y-78500000D03*
%TO.P,J3,4,Pin_4*%
%TO.N,GND*%
X93370000Y-78500000D03*
%TD*%
D27*
%TO.P,D3,1,K*%
%TO.N,/VOUT*%
X101982000Y-86000000D03*
%TO.P,D3,2,A*%
%TO.N,GND*%
X104082000Y-86000000D03*
%TD*%
D28*
%TO.P,U2,1*%
%TO.N,Net-(C8-Pad2)*%
X97780000Y-100200000D03*
%TO.P,U2,2,-*%
%TO.N,Net-(C8-Pad1)*%
X97780000Y-101470000D03*
%TO.P,U2,3,+*%
%TO.N,Net-(R12-Pad2)*%
X97780000Y-102740000D03*
%TO.P,U2,4,V-*%
%TO.N,GND*%
X97780000Y-104010000D03*
%TO.P,U2,5,+*%
%TO.N,Net-(C5-Pad2)*%
X103030000Y-104010000D03*
%TO.P,U2,6,-*%
%TO.N,Net-(R13-Pad2)*%
X103030000Y-102740000D03*
%TO.P,U2,7*%
X103030000Y-101470000D03*
%TO.P,U2,8,V+*%
%TO.N,VDD*%
X103030000Y-100200000D03*
%TD*%
D12*
%TO.P,C4,1*%
%TO.N,Net-(C4-Pad1)*%
X105530000Y-110095000D03*
%TO.P,C4,2*%
%TO.N,Net-(C4-Pad2)*%
X105530000Y-109135000D03*
%TD*%
D29*
%TO.P,R19,1*%
%TO.N,/VOUT*%
X101530000Y-88345000D03*
%TO.P,R19,2*%
%TO.N,Net-(C10-Pad2)*%
X101530000Y-89365000D03*
%TD*%
D30*
%TO.P,Q1,1,G*%
%TO.N,/A_ON*%
X105960000Y-102325000D03*
%TO.P,Q1,2,S*%
%TO.N,GND*%
X107860000Y-102325000D03*
%TO.P,Q1,3,D*%
%TO.N,Net-(Q1-Pad3)*%
X106910000Y-100450000D03*
%TD*%
D23*
%TO.P,R20,1*%
%TO.N,Net-(C4-Pad1)*%
X105540000Y-111125000D03*
%TO.P,R20,2*%
%TO.N,Net-(C3-Pad1)*%
X104520000Y-111125000D03*
%TD*%
D13*
%TO.P,R3,1*%
%TO.N,Net-(Q1-Pad3)*%
X106030000Y-98865000D03*
%TO.P,R3,2*%
%TO.N,Net-(Q2-Pad1)*%
X106030000Y-97845000D03*
%TD*%
D31*
%TO.P,D2,1,K*%
%TO.N,Net-(D2-Pad1)*%
X93280000Y-99292500D03*
%TO.P,D2,2,A*%
%TO.N,Net-(D2-Pad2)*%
X93280000Y-97417500D03*
%TD*%
D12*
%TO.P,C2,1*%
%TO.N,GND*%
X81032000Y-81980000D03*
%TO.P,C2,2*%
%TO.N,Net-(C2-Pad2)*%
X81032000Y-81020000D03*
%TD*%
D32*
%TO.P,JP1,1,A*%
%TO.N,GND*%
X92427000Y-82730000D03*
%TO.P,JP1,2,B*%
%TO.N,Net-(C13-Pad1)*%
X90777000Y-82730000D03*
%TD*%
D33*
%TO.P,R13,1*%
%TO.N,Net-(R12-Pad2)*%
X102270000Y-105625000D03*
%TO.P,R13,2*%
%TO.N,Net-(R13-Pad2)*%
X103290000Y-105625000D03*
%TD*%
D30*
%TO.P,Q3,1,G*%
%TO.N,Net-(C13-Pad1)*%
X90652000Y-86667500D03*
%TO.P,Q3,2,S*%
%TO.N,+3V3*%
X92552000Y-86667500D03*
%TO.P,Q3,3,D*%
%TO.N,Net-(Q3-Pad3)*%
X91602000Y-84792500D03*
%TD*%
D12*
%TO.P,C1,1*%
%TO.N,GND*%
X73532000Y-81990000D03*
%TO.P,C1,2*%
%TO.N,Net-(C1-Pad2)*%
X73532000Y-81030000D03*
%TD*%
D34*
%TO.P,U5,1,PA05*%
%TO.N,/A_ON*%
X94805000Y-87045000D03*
%TO.P,U5,2,PA08/XIN*%
%TO.N,/TXD*%
X94805000Y-88315000D03*
%TO.P,U5,3,PA09/XOUT*%
%TO.N,/RXD*%
X94805000Y-89585000D03*
%TO.P,U5,4,PA14*%
%TO.N,/SDA*%
X94805000Y-90855000D03*
%TO.P,U5,5,PA15*%
%TO.N,/SCL*%
X94805000Y-92125000D03*
%TO.P,U5,6,PA28/~{RST}*%
%TO.N,unconnected-(U5-Pad6)*%
X94805000Y-93395000D03*
%TO.P,U5,7,PA30/SWCLK*%
%TO.N,/SWCLK*%
X94805000Y-94665000D03*
%TO.P,U5,8,PA31/SWDIO*%
%TO.N,/SWDIO*%
X99755000Y-94665000D03*
%TO.P,U5,9,PA24*%
%TO.N,/USB_D-*%
X99755000Y-93395000D03*
%TO.P,U5,10,PA25*%
%TO.N,/USB_D+*%
X99755000Y-92125000D03*
%TO.P,U5,11,GND*%
%TO.N,GND*%
X99755000Y-90855000D03*
%TO.P,U5,12,VDD*%
%TO.N,Net-(Q3-Pad3)*%
X99755000Y-89585000D03*
%TO.P,U5,13,PA02*%
%TO.N,/VOUT*%
X99755000Y-88315000D03*
%TO.P,U5,14,PA04*%
%TO.N,Net-(D2-Pad2)*%
X99755000Y-87045000D03*
%TD*%
D23*
%TO.P,R17,1*%
%TO.N,Net-(R17-Pad1)*%
X95915000Y-99105000D03*
%TO.P,R17,2*%
%TO.N,GND*%
X94895000Y-99105000D03*
%TD*%
D29*
%TO.P,R16,1*%
%TO.N,Net-(D2-Pad1)*%
X93280000Y-100845000D03*
%TO.P,R16,2*%
%TO.N,GND*%
X93280000Y-101865000D03*
%TD*%
%TO.P,R7,1*%
%TO.N,Net-(C3-Pad2)*%
X95530000Y-107315000D03*
%TO.P,R7,2*%
%TO.N,Net-(C3-Pad1)*%
X95530000Y-108335000D03*
%TD*%
%TO.P,R10,1*%
%TO.N,/SCL*%
X92780000Y-92345000D03*
%TO.P,R10,2*%
%TO.N,+3V3*%
X92780000Y-93365000D03*
%TD*%
D27*
%TO.P,D1,1,K*%
%TO.N,Net-(D1-Pad1)*%
X87052000Y-86730000D03*
%TO.P,D1,2,A*%
%TO.N,Net-(C13-Pad1)*%
X89152000Y-86730000D03*
%TD*%
D12*
%TO.P,C5,1*%
%TO.N,GND*%
X105280000Y-106625000D03*
%TO.P,C5,2*%
%TO.N,Net-(C5-Pad2)*%
X105280000Y-105665000D03*
%TD*%
D13*
%TO.P,R14,1*%
%TO.N,Net-(C8-Pad1)*%
X95155000Y-101365000D03*
%TO.P,R14,2*%
%TO.N,Net-(C8-Pad2)*%
X95155000Y-100345000D03*
%TD*%
%TO.P,R18,1*%
%TO.N,Net-(R17-Pad1)*%
X95905000Y-98115000D03*
%TO.P,R18,2*%
%TO.N,Net-(C10-Pad2)*%
X95905000Y-97095000D03*
%TD*%
D33*
%TO.P,R15,1*%
%TO.N,Net-(C13-Pad1)*%
X88592000Y-82730000D03*
%TO.P,R15,2*%
%TO.N,+3V3*%
X89612000Y-82730000D03*
%TD*%
D12*
%TO.P,C10,1*%
%TO.N,GND*%
X94905000Y-98085000D03*
%TO.P,C10,2*%
%TO.N,Net-(C10-Pad2)*%
X94905000Y-97125000D03*
%TD*%
D13*
%TO.P,R6,1*%
%TO.N,Net-(C5-Pad2)*%
X104680000Y-103865000D03*
%TO.P,R6,2*%
%TO.N,VDD*%
X104680000Y-102845000D03*
%TD*%
D33*
%TO.P,R12,1*%
%TO.N,Net-(C4-Pad2)*%
X100270000Y-105625000D03*
%TO.P,R12,2*%
%TO.N,Net-(R12-Pad2)*%
X101290000Y-105625000D03*
%TD*%
D13*
%TO.P,R11,2*%
%TO.N,Net-(C8-Pad1)*%
X96100000Y-102345000D03*
%TO.P,R11,1*%
%TO.N,Net-(C3-Pad2)*%
X96100000Y-103365000D03*
%TD*%
%TO.P,R4,1*%
%TO.N,Net-(J2-Pad2)*%
X76032000Y-82010000D03*
%TO.P,R4,2*%
%TO.N,Net-(C1-Pad2)*%
X76032000Y-80990000D03*
%TD*%
D35*
%TO.P,U4,1,OSCI*%
%TO.N,Net-(C11-Pad1)*%
X87375000Y-94830000D03*
%TO.P,U4,2,OSCO*%
%TO.N,Net-(C12-Pad1)*%
X88645000Y-94830000D03*
%TO.P,U4,3,VBAT*%
%TO.N,+3V3*%
X89915000Y-94830000D03*
%TO.P,U4,4,VSS*%
%TO.N,GND*%
X91185000Y-94830000D03*
%TO.P,U4,5,SDA*%
%TO.N,/SDA*%
X91185000Y-89880000D03*
%TO.P,U4,6,SCL*%
%TO.N,/SCL*%
X89915000Y-89880000D03*
%TO.P,U4,7,~{INTA}*%
%TO.N,Net-(D1-Pad1)*%
X88645000Y-89880000D03*
%TO.P,U4,8,VDD*%
%TO.N,+3V3*%
X87375000Y-89880000D03*
%TD*%
D14*
%TO.P,J1,1,Pin_1*%
%TO.N,+9V*%
X104780000Y-89855000D03*
D15*
%TO.P,J1,2,Pin_2*%
%TO.N,GND*%
X104780000Y-92395000D03*
%TD*%
D28*
%TO.P,U1,1*%
%TO.N,Net-(C3-Pad2)*%
X97375000Y-107345000D03*
%TO.P,U1,2,-*%
%TO.N,Net-(C3-Pad1)*%
X97375000Y-108615000D03*
%TO.P,U1,3,+*%
%TO.N,Net-(C1-Pad2)*%
X97375000Y-109885000D03*
%TO.P,U1,4,V-*%
%TO.N,GND*%
X97375000Y-111155000D03*
%TO.P,U1,5,+*%
%TO.N,Net-(C2-Pad2)*%
X102625000Y-111155000D03*
%TO.P,U1,6,-*%
%TO.N,Net-(C4-Pad1)*%
X102625000Y-109885000D03*
%TO.P,U1,7*%
%TO.N,Net-(C4-Pad2)*%
X102625000Y-108615000D03*
%TO.P,U1,8,V+*%
%TO.N,VDD*%
X102625000Y-107345000D03*
%TD*%
D11*
%TO.P,U3,1,K*%
%TO.N,Net-(C8-Pad2)*%
X99342500Y-98305000D03*
%TO.P,U3,2,REF*%
X99342500Y-96405000D03*
%TO.P,U3,3,A*%
%TO.N,Net-(R17-Pad1)*%
X97467500Y-97355000D03*
%TD*%
D36*
%TO.N,GND*%
X104700000Y-99300000D03*
X71000000Y-85000000D03*
%TO.N,+9V*%
X92000000Y-96750000D03*
X101500000Y-96250000D03*
%TO.N,/SWDIO*%
X102000000Y-94000000D03*
%TO.N,Net-(D2-Pad2)*%
X97750000Y-87000000D03*
X93750000Y-96000000D03*
%TO.N,GND*%
X92500000Y-95750000D03*
X86000000Y-84000000D03*
X99250000Y-107250000D03*
X93250000Y-105750000D03*
%TO.N,VDD*%
X101000000Y-106500000D03*
%TO.N,/USB_D-*%
X105698608Y-96051599D03*
%TO.N,/USB_D+*%
X106200989Y-95429652D03*
%TO.N,VDD*%
X100500000Y-100000000D03*
%TO.N,Net-(C10-Pad2)*%
X97000000Y-96500000D03*
X101500000Y-90000000D03*
%TO.N,+3V3*%
X93500000Y-85750000D03*
X89500903Y-81799010D03*
%TO.N,/SWCLK*%
X97000000Y-92500000D03*
%TO.N,/A_ON*%
X105500000Y-101250000D03*
X104250000Y-95250000D03*
%TO.N,/TXD*%
X93500000Y-87750000D03*
%TO.N,/RXD*%
X96050500Y-89750000D03*
%TO.N,Net-(C2-Pad2)*%
X85903880Y-95403880D03*
X100750000Y-109750000D03*
%TO.N,Net-(C1-Pad2)*%
X98550500Y-109930110D03*
X85000000Y-104000000D03*
%TO.N,GND*%
X74750000Y-82500000D03*
%TD*%
D37*
%TO.N,Net-(C3-Pad1)*%
X102895000Y-112750000D02*
X104520000Y-111125000D01*
X95530000Y-111730000D02*
X96550000Y-112750000D01*
X95530000Y-108335000D02*
X95530000Y-111730000D01*
X96550000Y-112750000D02*
X102895000Y-112750000D01*
%TO.N,GND*%
X104655000Y-99345000D02*
X104700000Y-99300000D01*
X104655000Y-99770000D02*
X104655000Y-99345000D01*
%TO.N,VDD*%
X104542004Y-100730000D02*
X104655000Y-100730000D01*
X104012004Y-100200000D02*
X104542004Y-100730000D01*
X103030000Y-100200000D02*
X104012004Y-100200000D01*
%TO.N,Net-(C3-Pad2)*%
X96280000Y-106565000D02*
X95530000Y-107315000D01*
X96280000Y-103545000D02*
X96280000Y-106565000D01*
X96100000Y-103365000D02*
X96280000Y-103545000D01*
%TO.N,Net-(C8-Pad1)*%
X96155000Y-102290000D02*
X96155000Y-101335000D01*
X96100000Y-102345000D02*
X96155000Y-102290000D01*
%TO.N,+9V*%
X92000000Y-98482500D02*
X90490000Y-99992500D01*
X92000000Y-96750000D02*
X92000000Y-98482500D01*
X101655000Y-96405000D02*
X101500000Y-96250000D01*
X103467500Y-96405000D02*
X101655000Y-96405000D01*
%TO.N,/A_ON*%
X104135480Y-95364520D02*
X104250000Y-95250000D01*
X97699501Y-89199501D02*
X97699501Y-94361639D01*
X95545000Y-87045000D02*
X97699501Y-89199501D01*
X98702382Y-95364520D02*
X104135480Y-95364520D01*
X97699501Y-94361639D02*
X98702382Y-95364520D01*
%TO.N,Net-(D2-Pad2)*%
X99710000Y-87000000D02*
X97750000Y-87000000D01*
X99755000Y-87045000D02*
X99710000Y-87000000D01*
%TO.N,/SWCLK*%
X97000000Y-93093559D02*
X97000000Y-92500000D01*
X95428559Y-94665000D02*
X97000000Y-93093559D01*
X94805000Y-94665000D02*
X95428559Y-94665000D01*
%TO.N,/SWDIO*%
X101335000Y-94665000D02*
X102000000Y-94000000D01*
X99755000Y-94665000D02*
X101335000Y-94665000D01*
%TO.N,GND*%
X92427000Y-82730000D02*
X93370000Y-81787000D01*
X90796511Y-81099511D02*
X92427000Y-82730000D01*
X87152000Y-82945836D02*
X88998326Y-81099510D01*
X87152000Y-84230000D02*
X87152000Y-82945836D01*
%TO.N,+3V3*%
X89500903Y-82618903D02*
X89500903Y-81799010D01*
X89612000Y-82730000D02*
X89500903Y-82618903D01*
%TO.N,GND*%
X93370000Y-81787000D02*
X93370000Y-78500000D01*
X88998326Y-81099510D02*
X90796511Y-81099511D01*
%TO.N,Net-(Q3-Pad3)*%
X94480362Y-84792500D02*
X91602000Y-84792500D01*
X99272862Y-89585000D02*
X94480362Y-84792500D01*
X99755000Y-89585000D02*
X99272862Y-89585000D01*
%TO.N,/TXD*%
X94065000Y-88315000D02*
X93500000Y-87750000D01*
X94805000Y-88315000D02*
X94065000Y-88315000D01*
%TO.N,/RXD*%
X95885500Y-89585000D02*
X96050500Y-89750000D01*
X94805000Y-89585000D02*
X95885500Y-89585000D01*
%TO.N,Net-(D2-Pad2)*%
X93280000Y-96470000D02*
X93750000Y-96000000D01*
X93280000Y-97417500D02*
X93280000Y-96470000D01*
%TO.N,Net-(C10-Pad2)*%
X96500000Y-96500000D02*
X97000000Y-96500000D01*
X95905000Y-97095000D02*
X96500000Y-96500000D01*
%TO.N,GND*%
X104760000Y-87510000D02*
X103240000Y-87510000D01*
X107500000Y-90250000D02*
X104760000Y-87510000D01*
X107500000Y-99000000D02*
X107500000Y-90250000D01*
X103240000Y-87510000D02*
X103240000Y-90855000D01*
X103240000Y-86842000D02*
X103240000Y-87510000D01*
D38*
%TO.N,/USB_D-*%
X105698608Y-95766807D02*
X105698608Y-96051599D01*
X102916802Y-92985001D02*
X105698608Y-95766807D01*
X100164999Y-92985001D02*
X102916802Y-92985001D01*
X99755000Y-93395000D02*
X100164999Y-92985001D01*
%TO.N,/USB_D+*%
X105997851Y-95429652D02*
X106200989Y-95429652D01*
X103103198Y-92534999D02*
X105997851Y-95429652D01*
X100164999Y-92534999D02*
X103103198Y-92534999D01*
D37*
%TO.N,+9V*%
X106900489Y-96001675D02*
X106057164Y-96845000D01*
X104780000Y-89855000D02*
X106900489Y-91975489D01*
X106900489Y-91975489D02*
X106900489Y-96001675D01*
X106057164Y-96845000D02*
X105030000Y-96845000D01*
D38*
%TO.N,/USB_D+*%
X99755000Y-92125000D02*
X100164999Y-92534999D01*
D37*
%TO.N,GND*%
X92105000Y-95750000D02*
X91185000Y-94830000D01*
X92500000Y-95750000D02*
X92105000Y-95750000D01*
X86000000Y-84000000D02*
X86922000Y-84000000D01*
X86922000Y-84000000D02*
X87152000Y-84230000D01*
X97780000Y-105780000D02*
X97780000Y-104010000D01*
X99250000Y-107250000D02*
X97780000Y-105780000D01*
X99250000Y-110750000D02*
X99250000Y-107250000D01*
X98845000Y-111155000D02*
X99250000Y-110750000D01*
X97375000Y-111155000D02*
X98845000Y-111155000D01*
%TO.N,VDD*%
X102625000Y-107345000D02*
X101845000Y-107345000D01*
X101845000Y-107345000D02*
X101000000Y-106500000D01*
%TO.N,Net-(C2-Pad2)*%
X100750000Y-110010758D02*
X100750000Y-109750000D01*
X102625000Y-111155000D02*
X101894242Y-111155000D01*
X101894242Y-111155000D02*
X100750000Y-110010758D01*
%TO.N,GND*%
X90845000Y-108155000D02*
X93250000Y-105750000D01*
X88510000Y-108155000D02*
X90845000Y-108155000D01*
%TO.N,+3V3*%
X86000000Y-88505000D02*
X87375000Y-89880000D01*
X87573011Y-85750000D02*
X86000000Y-85750000D01*
X86000000Y-85750000D02*
X86000000Y-88505000D01*
X88250000Y-87152022D02*
X88250000Y-86426989D01*
X92780000Y-88605000D02*
X92175000Y-88000000D01*
X92175000Y-88000000D02*
X89097978Y-88000000D01*
X89097978Y-88000000D02*
X88250000Y-87152022D01*
X88250000Y-86426989D02*
X87573011Y-85750000D01*
%TO.N,Net-(D1-Pad1)*%
X88645000Y-88895000D02*
X88645000Y-89880000D01*
X87052000Y-87302000D02*
X88645000Y-88895000D01*
X87052000Y-86730000D02*
X87052000Y-87302000D01*
%TO.N,Net-(C2-Pad2)*%
X85400489Y-85275493D02*
X85400489Y-94900489D01*
X85400489Y-94900489D02*
X85903880Y-95403880D01*
X81144996Y-81020000D02*
X85400489Y-85275493D01*
X81032000Y-81020000D02*
X81144996Y-81020000D01*
%TO.N,GND*%
X93280000Y-101865000D02*
X91135000Y-104010000D01*
X88510000Y-104010000D02*
X88510000Y-101855000D01*
X88510000Y-108155000D02*
X88510000Y-104010000D01*
X91135000Y-104010000D02*
X88510000Y-104010000D01*
%TO.N,Net-(C4-Pad2)*%
X101125755Y-108615000D02*
X102625000Y-108615000D01*
X100270000Y-107759245D02*
X101125755Y-108615000D01*
X100270000Y-105625000D02*
X100270000Y-107759245D01*
%TO.N,Net-(R12-Pad2)*%
X101290000Y-105569075D02*
X98460925Y-102740000D01*
X101290000Y-105625000D02*
X101290000Y-105569075D01*
X98460925Y-102740000D02*
X97780000Y-102740000D01*
%TO.N,Net-(C1-Pad2)*%
X97375000Y-109885000D02*
X97420110Y-109930110D01*
X97420110Y-109930110D02*
X98550500Y-109930110D01*
%TO.N,GND*%
X79430000Y-117400000D02*
X83610000Y-113220000D01*
X83610000Y-113220000D02*
X86000000Y-113220000D01*
X89500000Y-116720000D02*
X86000000Y-113220000D01*
X89500000Y-118000000D02*
X89500000Y-116720000D01*
X89500000Y-118000000D02*
X91970000Y-118000000D01*
X91970000Y-118000000D02*
X92570000Y-117400000D01*
X86000000Y-110665000D02*
X88510000Y-108155000D01*
X86000000Y-113220000D02*
X86000000Y-110665000D01*
%TO.N,+3V3*%
X86675480Y-90579520D02*
X87375000Y-89880000D01*
X86675480Y-95621524D02*
X86675480Y-90579520D01*
X85000000Y-98702996D02*
X85000000Y-97297004D01*
X86289504Y-99992500D02*
X85000000Y-98702996D01*
%TO.N,Net-(C1-Pad2)*%
X84400490Y-103400490D02*
X85000000Y-104000000D01*
%TO.N,+3V3*%
X87550000Y-99992500D02*
X86289504Y-99992500D01*
%TO.N,Net-(C1-Pad2)*%
X84400490Y-86900490D02*
X84400490Y-103400490D01*
X78750000Y-86500000D02*
X84000000Y-86500000D01*
X84000000Y-86500000D02*
X84400490Y-86900490D01*
X77580489Y-85330489D02*
X78750000Y-86500000D01*
X77580489Y-82482564D02*
X77580489Y-85330489D01*
%TO.N,+3V3*%
X85000000Y-97297004D02*
X86675480Y-95621524D01*
%TO.N,Net-(C1-Pad2)*%
X76087925Y-80990000D02*
X77580489Y-82482564D01*
X76032000Y-80990000D02*
X76087925Y-80990000D01*
%TO.N,GND*%
X85954511Y-98584511D02*
X85850000Y-98480000D01*
X87215007Y-98584511D02*
X85954511Y-98584511D01*
X88510000Y-99879504D02*
X87215007Y-98584511D01*
X88510000Y-99992500D02*
X88510000Y-99879504D01*
X89962996Y-97105000D02*
X89850000Y-97105000D01*
X90750000Y-97892004D02*
X89962996Y-97105000D01*
X90750000Y-98750000D02*
X90750000Y-97892004D01*
X89530000Y-99879504D02*
X90659504Y-98750000D01*
X89530000Y-99992500D02*
X89530000Y-99879504D01*
X90659504Y-98750000D02*
X90750000Y-98750000D01*
%TO.N,/A_ON*%
X105960000Y-101710000D02*
X105500000Y-101250000D01*
X105960000Y-102325000D02*
X105960000Y-101710000D01*
%TO.N,GND*%
X107860000Y-99360000D02*
X107500000Y-99000000D01*
X107860000Y-102325000D02*
X107860000Y-99360000D01*
%TO.N,VDD*%
X100700000Y-100200000D02*
X100500000Y-100000000D01*
X103030000Y-100200000D02*
X100700000Y-100200000D01*
%TO.N,Net-(C10-Pad2)*%
X101530000Y-89365000D02*
X101530000Y-89970000D01*
X101530000Y-89970000D02*
X101500000Y-90000000D01*
%TO.N,+3V3*%
X87375000Y-90362138D02*
X87375000Y-89880000D01*
X89915000Y-92902138D02*
X87375000Y-90362138D01*
X89915000Y-94830000D02*
X89915000Y-92902138D01*
%TO.N,GND*%
X97398461Y-78500000D02*
X93370000Y-78500000D01*
X104082000Y-85183539D02*
X97398461Y-78500000D01*
X104082000Y-86000000D02*
X104082000Y-85183539D01*
X104082000Y-86000000D02*
X103240000Y-86842000D01*
%TO.N,+3V3*%
X93469500Y-85750000D02*
X92552000Y-86667500D01*
X93500000Y-85750000D02*
X93469500Y-85750000D01*
%TO.N,/A_ON*%
X94805000Y-87045000D02*
X95545000Y-87045000D01*
%TO.N,GND*%
X94435480Y-99564520D02*
X94895000Y-99105000D01*
X73532000Y-81990000D02*
X74240000Y-81990000D01*
X88510000Y-101855000D02*
X88510000Y-99992500D01*
X107750000Y-106250000D02*
X107750000Y-104078000D01*
X94435480Y-100814520D02*
X94435480Y-99564520D01*
X105260000Y-106645000D02*
X105280000Y-106625000D01*
X106280000Y-106615000D02*
X107385000Y-106615000D01*
X106270000Y-106625000D02*
X106280000Y-106615000D01*
X93280000Y-101865000D02*
X93385000Y-101865000D01*
X81370000Y-82318000D02*
X81032000Y-81980000D01*
X107750000Y-104078000D02*
X107672000Y-104000000D01*
X93385000Y-101865000D02*
X94435480Y-100814520D01*
X91185000Y-94830000D02*
X91185000Y-95770000D01*
X91185000Y-95770000D02*
X89850000Y-97105000D01*
X81370000Y-84500000D02*
X81370000Y-82318000D01*
X94905000Y-98085000D02*
X94905000Y-99095000D01*
X107672000Y-104000000D02*
X107672000Y-102513000D01*
X107385000Y-106615000D02*
X107750000Y-106250000D01*
X104280000Y-106625000D02*
X106270000Y-106625000D01*
X99755000Y-90855000D02*
X103240000Y-90855000D01*
X105260000Y-107625000D02*
X105260000Y-106645000D01*
X74240000Y-81990000D02*
X74750000Y-82500000D01*
X107672000Y-102513000D02*
X107860000Y-102325000D01*
X89530000Y-99992500D02*
X88510000Y-99992500D01*
X94905000Y-99095000D02*
X94895000Y-99105000D01*
X103240000Y-90855000D02*
X104780000Y-92395000D01*
%TO.N,Net-(C1-Pad2)*%
X76032000Y-80990000D02*
X73572000Y-80990000D01*
X73572000Y-80990000D02*
X73532000Y-81030000D01*
%TO.N,Net-(C2-Pad2)*%
X81032000Y-81020000D02*
X78552000Y-81020000D01*
X78552000Y-81020000D02*
X78532000Y-81000000D01*
%TO.N,Net-(C3-Pad1)*%
X97065000Y-108305000D02*
X97375000Y-108615000D01*
X94030000Y-108305000D02*
X97065000Y-108305000D01*
%TO.N,Net-(C3-Pad2)*%
X94030000Y-107345000D02*
X97375000Y-107345000D01*
%TO.N,Net-(C4-Pad1)*%
X105540000Y-111125000D02*
X105540000Y-110105000D01*
X105500000Y-110125000D02*
X105530000Y-110095000D01*
X104530000Y-110125000D02*
X105500000Y-110125000D01*
X105540000Y-110105000D02*
X105530000Y-110095000D01*
X104290000Y-109885000D02*
X102625000Y-109885000D01*
X104530000Y-110125000D02*
X104290000Y-109885000D01*
%TO.N,Net-(C4-Pad2)*%
X105500000Y-109105000D02*
X105530000Y-109135000D01*
X104040000Y-108615000D02*
X104530000Y-109105000D01*
X104530000Y-109105000D02*
X105500000Y-109105000D01*
X102625000Y-108615000D02*
X104040000Y-108615000D01*
%TO.N,Net-(C5-Pad2)*%
X106280000Y-105595000D02*
X104350000Y-105595000D01*
X104680000Y-103865000D02*
X104680000Y-105065000D01*
X103175000Y-103865000D02*
X103030000Y-104010000D01*
X104680000Y-105065000D02*
X105280000Y-105665000D01*
X104680000Y-103865000D02*
X103175000Y-103865000D01*
X104350000Y-105595000D02*
X104280000Y-105665000D01*
%TO.N,VDD*%
X103095000Y-107345000D02*
X103500000Y-107750000D01*
X104680000Y-102845000D02*
X104680000Y-100799520D01*
X101592500Y-98762500D02*
X101592500Y-97355000D01*
X103030000Y-100200000D02*
X101592500Y-98762500D01*
X104175000Y-107750000D02*
X104300000Y-107625000D01*
X103500000Y-107750000D02*
X104175000Y-107750000D01*
X102625000Y-107345000D02*
X103095000Y-107345000D01*
%TO.N,Net-(C8-Pad1)*%
X95155000Y-101365000D02*
X97675000Y-101365000D01*
X97675000Y-101365000D02*
X97780000Y-101470000D01*
%TO.N,Net-(C8-Pad2)*%
X95155000Y-100345000D02*
X97635000Y-100345000D01*
X97635000Y-100345000D02*
X97780000Y-100200000D01*
X99342500Y-96405000D02*
X99342500Y-98637500D01*
X99342500Y-98637500D02*
X97780000Y-100200000D01*
%TO.N,Net-(C10-Pad2)*%
X94935000Y-97095000D02*
X94905000Y-97125000D01*
X95905000Y-97095000D02*
X94935000Y-97095000D01*
%TO.N,+9V*%
X105030000Y-96845000D02*
X104590000Y-96405000D01*
X104590000Y-96405000D02*
X103467500Y-96405000D01*
X91050000Y-101855000D02*
X91050000Y-100552500D01*
X89780000Y-101855000D02*
X91050000Y-101855000D01*
X91050000Y-100552500D02*
X90490000Y-99992500D01*
%TO.N,Net-(J2-Pad2)*%
X76032000Y-84242000D02*
X76290000Y-84500000D01*
X76032000Y-82010000D02*
X76032000Y-84242000D01*
%TO.N,Net-(J2-Pad3)*%
X78830000Y-82318000D02*
X78532000Y-82020000D01*
X78830000Y-84500000D02*
X78830000Y-82318000D01*
%TO.N,Net-(C11-Pad1)*%
X87230000Y-97565000D02*
X87250000Y-97585000D01*
X85850000Y-97565000D02*
X87230000Y-97565000D01*
X87375000Y-94830000D02*
X87375000Y-97460000D01*
X87375000Y-97460000D02*
X87250000Y-97585000D01*
%TO.N,Net-(Q1-Pad3)*%
X106030000Y-99570000D02*
X106910000Y-100450000D01*
X106030000Y-98865000D02*
X106030000Y-99570000D01*
%TO.N,Net-(Q2-Pad1)*%
X104590000Y-98305000D02*
X105030000Y-97865000D01*
X103467500Y-98305000D02*
X104590000Y-98305000D01*
X105050000Y-97845000D02*
X105030000Y-97865000D01*
X106030000Y-97845000D02*
X105050000Y-97845000D01*
%TO.N,Net-(R12-Pad2)*%
X102270000Y-105625000D02*
X101290000Y-105625000D01*
%TO.N,Net-(R13-Pad2)*%
X101750000Y-103500000D02*
X102510000Y-102740000D01*
X102510000Y-102740000D02*
X103030000Y-102740000D01*
X101750000Y-104332138D02*
X101750000Y-103500000D01*
X102470925Y-104750000D02*
X102167862Y-104750000D01*
X103290000Y-105569075D02*
X102470925Y-104750000D01*
X103290000Y-105625000D02*
X103290000Y-105569075D01*
X102167862Y-104750000D02*
X101750000Y-104332138D01*
X103030000Y-101470000D02*
X103030000Y-102740000D01*
%TO.N,Net-(R17-Pad1)*%
X96707500Y-98115000D02*
X97467500Y-97355000D01*
X95915000Y-99105000D02*
X95915000Y-98125000D01*
X95915000Y-98125000D02*
X95905000Y-98115000D01*
X95905000Y-98115000D02*
X96707500Y-98115000D01*
%TO.N,Net-(C12-Pad1)*%
X88645000Y-97390000D02*
X88450000Y-97585000D01*
X88930000Y-98065000D02*
X89850000Y-98065000D01*
X88450000Y-97585000D02*
X88930000Y-98065000D01*
X88645000Y-94830000D02*
X88645000Y-97390000D01*
%TO.N,Net-(C13-Pad1)*%
X90777000Y-82730000D02*
X89277000Y-84230000D01*
X89052000Y-84230000D02*
X89052000Y-86630000D01*
X88592000Y-82730000D02*
X88592000Y-83770000D01*
X89214500Y-86667500D02*
X89152000Y-86730000D01*
X90652000Y-86667500D02*
X89214500Y-86667500D01*
X89277000Y-84230000D02*
X89052000Y-84230000D01*
X88592000Y-83770000D02*
X89052000Y-84230000D01*
X89052000Y-86630000D02*
X89152000Y-86730000D01*
%TO.N,+3V3*%
X87240000Y-101855000D02*
X87240000Y-100302500D01*
X92552000Y-88377000D02*
X92780000Y-88605000D01*
X90897862Y-93365000D02*
X89915000Y-94347862D01*
X92780000Y-93365000D02*
X90897862Y-93365000D01*
X89915000Y-94347862D02*
X89915000Y-94830000D01*
X92552000Y-86667500D02*
X92552000Y-88377000D01*
X87240000Y-100302500D02*
X87550000Y-99992500D01*
%TO.N,Net-(D2-Pad1)*%
X93280000Y-100845000D02*
X93280000Y-99292500D01*
%TO.N,/VOUT*%
X101530000Y-88345000D02*
X101530000Y-86452000D01*
X101530000Y-86452000D02*
X101982000Y-86000000D01*
X101500000Y-88315000D02*
X101530000Y-88345000D01*
X99755000Y-88315000D02*
X101500000Y-88315000D01*
%TO.N,/A_ON*%
X106652000Y-103017000D02*
X105960000Y-102325000D01*
X106652000Y-104000000D02*
X106652000Y-103017000D01*
%TO.N,/SDA*%
X94805000Y-90855000D02*
X94010000Y-90855000D01*
X94010000Y-90855000D02*
X92780000Y-89625000D01*
X92525000Y-89880000D02*
X92780000Y-89625000D01*
X91185000Y-89880000D02*
X92525000Y-89880000D01*
%TO.N,/SCL*%
X89915000Y-90362138D02*
X89915000Y-89880000D01*
X91897862Y-92345000D02*
X89915000Y-90362138D01*
X92780000Y-92345000D02*
X94585000Y-92345000D01*
X92780000Y-92345000D02*
X91897862Y-92345000D01*
X94585000Y-92345000D02*
X94805000Y-92125000D01*
%TD*%
%TA.AperFunction,Conductor*%
%TO.N,GND*%
G36*
X87903166Y-98635958D02*
G01*
X87903295Y-98635615D01*
X87907981Y-98637372D01*
X87907985Y-98637373D01*
X87911696Y-98638764D01*
X87911699Y-98638766D01*
X87975144Y-98662550D01*
X88039684Y-98686745D01*
X88101866Y-98693500D01*
X88567788Y-98693500D01*
X88613558Y-98702107D01*
X88652274Y-98717202D01*
X88658352Y-98719757D01*
X88716574Y-98746045D01*
X88724045Y-98747429D01*
X88726599Y-98748230D01*
X88742878Y-98752867D01*
X88745433Y-98753523D01*
X88752509Y-98756282D01*
X88780962Y-98760028D01*
X88815851Y-98764621D01*
X88822367Y-98765653D01*
X88864706Y-98773500D01*
X88885187Y-98777296D01*
X88892767Y-98776859D01*
X88892768Y-98776859D01*
X88947398Y-98773709D01*
X88954651Y-98773500D01*
X89332849Y-98773500D01*
X89396988Y-98791047D01*
X89412660Y-98800315D01*
X89420403Y-98804894D01*
X89428014Y-98807105D01*
X89428016Y-98807106D01*
X89478995Y-98821916D01*
X89577746Y-98850606D01*
X89584151Y-98851110D01*
X89584156Y-98851111D01*
X89612060Y-98853307D01*
X89612068Y-98853307D01*
X89614516Y-98853500D01*
X90085484Y-98853500D01*
X90087932Y-98853307D01*
X90087940Y-98853307D01*
X90115844Y-98851111D01*
X90115849Y-98851110D01*
X90122254Y-98850606D01*
X90221005Y-98821916D01*
X90271984Y-98807106D01*
X90271986Y-98807105D01*
X90279597Y-98804894D01*
X90332682Y-98773500D01*
X90390355Y-98739392D01*
X90459171Y-98721933D01*
X90526502Y-98744450D01*
X90570972Y-98799794D01*
X90578460Y-98870395D01*
X90543589Y-98936941D01*
X90341280Y-99139250D01*
X90278968Y-99173276D01*
X90262069Y-99175767D01*
X90259751Y-99175949D01*
X90254158Y-99176389D01*
X90254155Y-99176390D01*
X90247746Y-99176894D01*
X90149751Y-99205364D01*
X90098016Y-99220394D01*
X90098014Y-99220395D01*
X90090403Y-99222606D01*
X90083576Y-99226643D01*
X90083577Y-99226643D01*
X90073647Y-99232515D01*
X90004830Y-99249974D01*
X89945372Y-99232516D01*
X89936222Y-99227105D01*
X89921784Y-99220857D01*
X89801395Y-99185881D01*
X89787295Y-99185921D01*
X89784000Y-99193191D01*
X89784000Y-99471121D01*
X89766454Y-99535260D01*
X89759159Y-99547596D01*
X89750106Y-99562903D01*
X89747895Y-99570514D01*
X89747894Y-99570516D01*
X89737192Y-99607352D01*
X89704394Y-99720246D01*
X89703890Y-99726651D01*
X89703889Y-99726656D01*
X89702957Y-99738500D01*
X89701500Y-99757016D01*
X89701500Y-100120500D01*
X89681498Y-100188621D01*
X89627842Y-100235114D01*
X89575500Y-100246500D01*
X88782115Y-100246500D01*
X88766876Y-100250975D01*
X88765671Y-100252365D01*
X88764000Y-100260048D01*
X88764000Y-103444884D01*
X88768475Y-103460123D01*
X88769865Y-103461328D01*
X88777548Y-103462999D01*
X88854669Y-103462999D01*
X88861490Y-103462629D01*
X88912352Y-103457105D01*
X88927604Y-103453479D01*
X89048054Y-103408324D01*
X89063648Y-103399786D01*
X89069019Y-103395761D01*
X89135526Y-103370914D01*
X89204908Y-103385968D01*
X89220147Y-103395761D01*
X89226109Y-103400230D01*
X89226111Y-103400231D01*
X89233295Y-103405615D01*
X89369684Y-103456745D01*
X89431866Y-103463500D01*
X90128134Y-103463500D01*
X90190316Y-103456745D01*
X90326705Y-103405615D01*
X90339435Y-103396074D01*
X90405939Y-103371226D01*
X90475322Y-103386278D01*
X90490559Y-103396070D01*
X90503295Y-103405615D01*
X90639684Y-103456745D01*
X90701866Y-103463500D01*
X91398134Y-103463500D01*
X91460316Y-103456745D01*
X91596705Y-103405615D01*
X91713261Y-103318261D01*
X91800615Y-103201705D01*
X91851745Y-103065316D01*
X91858500Y-103003134D01*
X91858500Y-102130871D01*
X92463434Y-102130871D01*
X92497981Y-102249783D01*
X92504230Y-102264222D01*
X92578854Y-102390405D01*
X92588501Y-102402841D01*
X92692159Y-102506499D01*
X92704595Y-102516146D01*
X92830778Y-102590770D01*
X92845217Y-102597019D01*
X92987436Y-102638338D01*
X93000023Y-102640637D01*
X93007943Y-102641260D01*
X93023030Y-102638090D01*
X93026000Y-102626626D01*
X93026000Y-102624566D01*
X93534000Y-102624566D01*
X93538344Y-102639361D01*
X93550003Y-102641421D01*
X93559977Y-102640637D01*
X93572564Y-102638338D01*
X93714783Y-102597019D01*
X93729222Y-102590770D01*
X93855405Y-102516146D01*
X93867841Y-102506499D01*
X93971499Y-102402841D01*
X93981146Y-102390405D01*
X94055770Y-102264222D01*
X94062019Y-102249783D01*
X94094961Y-102136395D01*
X94094921Y-102122295D01*
X94087651Y-102119000D01*
X93552115Y-102119000D01*
X93536876Y-102123475D01*
X93535671Y-102124865D01*
X93534000Y-102132548D01*
X93534000Y-102624566D01*
X93026000Y-102624566D01*
X93026000Y-102137115D01*
X93021525Y-102121876D01*
X93020135Y-102120671D01*
X93012452Y-102119000D01*
X92478100Y-102119000D01*
X92464569Y-102122973D01*
X92463434Y-102130871D01*
X91858500Y-102130871D01*
X91858500Y-100706866D01*
X91851745Y-100644684D01*
X91800615Y-100508295D01*
X91770429Y-100468018D01*
X91746168Y-100407592D01*
X91746068Y-100406765D01*
X91743102Y-100382258D01*
X91740418Y-100375154D01*
X91739776Y-100372541D01*
X91735313Y-100356228D01*
X91734548Y-100353695D01*
X91733243Y-100346217D01*
X91707552Y-100287690D01*
X91705067Y-100281602D01*
X91685172Y-100228949D01*
X91685171Y-100228947D01*
X91682487Y-100221844D01*
X91678186Y-100215585D01*
X91676949Y-100213220D01*
X91668727Y-100198448D01*
X91667372Y-100196156D01*
X91664316Y-100189195D01*
X91659691Y-100183168D01*
X91659689Y-100183164D01*
X91625407Y-100138487D01*
X91621529Y-100133150D01*
X91619789Y-100130617D01*
X91585357Y-100080519D01*
X91579688Y-100075468D01*
X91577960Y-100073508D01*
X91547916Y-100009182D01*
X91557419Y-99938824D01*
X91583381Y-99901090D01*
X91868224Y-99616247D01*
X91930536Y-99582221D01*
X92001351Y-99587286D01*
X92058187Y-99629833D01*
X92080481Y-99678750D01*
X92081672Y-99684266D01*
X92082384Y-99691129D01*
X92137898Y-99857526D01*
X92230203Y-100006689D01*
X92354347Y-100130617D01*
X92360577Y-100134457D01*
X92360578Y-100134458D01*
X92495043Y-100217343D01*
X92542536Y-100270115D01*
X92553960Y-100340187D01*
X92537380Y-100388743D01*
X92499731Y-100452404D01*
X92454371Y-100608534D01*
X92453867Y-100614941D01*
X92453866Y-100614945D01*
X92451693Y-100642556D01*
X92451500Y-100645011D01*
X92451501Y-101044988D01*
X92454371Y-101081466D01*
X92499731Y-101237596D01*
X92531523Y-101291353D01*
X92548982Y-101360166D01*
X92531522Y-101419630D01*
X92504229Y-101465780D01*
X92497981Y-101480217D01*
X92465039Y-101593605D01*
X92465079Y-101607705D01*
X92472349Y-101611000D01*
X92942458Y-101611000D01*
X92977610Y-101616003D01*
X92987353Y-101618834D01*
X92987360Y-101618835D01*
X92993534Y-101620629D01*
X92999941Y-101621133D01*
X92999945Y-101621134D01*
X93027556Y-101623307D01*
X93027562Y-101623307D01*
X93030011Y-101623500D01*
X93279848Y-101623500D01*
X93529988Y-101623499D01*
X93566466Y-101620629D01*
X93572648Y-101618833D01*
X93572653Y-101618832D01*
X93582390Y-101616003D01*
X93617542Y-101611000D01*
X94081900Y-101611000D01*
X94097139Y-101606525D01*
X94111355Y-101590119D01*
X94079504Y-101540401D01*
X94062019Y-101480217D01*
X94055771Y-101465780D01*
X94028478Y-101419630D01*
X94011018Y-101350813D01*
X94028477Y-101291354D01*
X94060269Y-101237596D01*
X94079503Y-101171392D01*
X94117716Y-101111557D01*
X94154895Y-101094449D01*
X94128697Y-101071878D01*
X94108500Y-101003455D01*
X94108500Y-100855000D01*
X94108499Y-100706541D01*
X94128501Y-100638422D01*
X94170020Y-100602445D01*
X94117989Y-100578683D01*
X94079504Y-100518611D01*
X94062481Y-100460017D01*
X94062480Y-100460015D01*
X94060269Y-100452404D01*
X94036479Y-100412177D01*
X94022689Y-100388859D01*
X94005230Y-100320042D01*
X94027747Y-100252711D01*
X94064837Y-100217578D01*
X94134199Y-100174655D01*
X94202648Y-100155818D01*
X94270418Y-100176979D01*
X94315989Y-100231419D01*
X94326500Y-100281799D01*
X94326501Y-100483457D01*
X94306499Y-100551578D01*
X94264980Y-100587555D01*
X94317011Y-100611317D01*
X94355496Y-100671389D01*
X94371427Y-100726222D01*
X94374731Y-100737596D01*
X94378767Y-100744421D01*
X94378769Y-100744425D01*
X94406231Y-100790861D01*
X94423691Y-100859677D01*
X94406231Y-100919139D01*
X94378769Y-100965575D01*
X94378767Y-100965579D01*
X94374731Y-100972404D01*
X94372520Y-100980015D01*
X94372519Y-100980017D01*
X94355497Y-101038608D01*
X94317284Y-101098443D01*
X94280105Y-101115551D01*
X94306303Y-101138122D01*
X94326500Y-101206545D01*
X94326501Y-101360166D01*
X94326501Y-101505248D01*
X94306499Y-101573368D01*
X94305501Y-101574233D01*
X94310341Y-101577343D01*
X94336125Y-101624715D01*
X94362647Y-101716002D01*
X94374731Y-101757596D01*
X94457494Y-101897541D01*
X94572459Y-102012506D01*
X94579280Y-102016540D01*
X94598278Y-102027775D01*
X94712404Y-102095269D01*
X94720015Y-102097480D01*
X94720017Y-102097481D01*
X94799838Y-102120671D01*
X94868534Y-102140629D01*
X94874941Y-102141133D01*
X94874945Y-102141134D01*
X94902556Y-102143307D01*
X94902562Y-102143307D01*
X94905011Y-102143500D01*
X94912050Y-102143500D01*
X95145500Y-102143499D01*
X95213620Y-102163501D01*
X95260113Y-102217156D01*
X95271500Y-102269499D01*
X95271501Y-102427356D01*
X95271501Y-102544988D01*
X95274371Y-102581466D01*
X95319731Y-102737596D01*
X95323767Y-102744421D01*
X95323769Y-102744425D01*
X95351231Y-102790861D01*
X95368691Y-102859677D01*
X95351231Y-102919139D01*
X95323769Y-102965575D01*
X95323767Y-102965579D01*
X95319731Y-102972404D01*
X95317520Y-102980015D01*
X95317519Y-102980017D01*
X95311796Y-102999717D01*
X95274371Y-103128534D01*
X95273867Y-103134941D01*
X95273866Y-103134945D01*
X95271693Y-103162556D01*
X95271500Y-103165011D01*
X95271501Y-103564988D01*
X95274371Y-103601466D01*
X95288021Y-103648448D01*
X95315877Y-103744329D01*
X95319731Y-103757596D01*
X95323766Y-103764418D01*
X95323766Y-103764419D01*
X95356486Y-103819745D01*
X95402494Y-103897541D01*
X95517459Y-104012506D01*
X95523091Y-104015837D01*
X95564294Y-104072895D01*
X95571500Y-104114894D01*
X95571500Y-106219340D01*
X95551498Y-106287461D01*
X95534595Y-106308435D01*
X95341664Y-106501366D01*
X95279352Y-106535392D01*
X95262452Y-106537883D01*
X95243534Y-106539371D01*
X95168436Y-106561189D01*
X95095017Y-106582519D01*
X95095015Y-106582520D01*
X95087404Y-106584731D01*
X95029538Y-106618953D01*
X95029536Y-106618954D01*
X94965397Y-106636500D01*
X94547151Y-106636500D01*
X94483012Y-106618953D01*
X94466425Y-106609144D01*
X94466424Y-106609144D01*
X94459597Y-106605106D01*
X94451986Y-106602895D01*
X94451984Y-106602894D01*
X94381851Y-106582519D01*
X94302254Y-106559394D01*
X94295849Y-106558890D01*
X94295844Y-106558889D01*
X94267940Y-106556693D01*
X94267932Y-106556693D01*
X94265484Y-106556500D01*
X93794516Y-106556500D01*
X93792068Y-106556693D01*
X93792060Y-106556693D01*
X93764156Y-106558889D01*
X93764151Y-106558890D01*
X93757746Y-106559394D01*
X93678149Y-106582519D01*
X93608016Y-106602894D01*
X93608014Y-106602895D01*
X93600403Y-106605106D01*
X93593581Y-106609141D01*
X93593580Y-106609141D01*
X93466192Y-106684478D01*
X93459371Y-106688512D01*
X93343512Y-106804371D01*
X93339480Y-106811189D01*
X93339478Y-106811192D01*
X93299377Y-106879000D01*
X93260106Y-106945403D01*
X93214394Y-107102746D01*
X93213890Y-107109151D01*
X93213889Y-107109156D01*
X93211693Y-107137060D01*
X93211500Y-107139516D01*
X93211500Y-107550484D01*
X93214394Y-107587254D01*
X93260106Y-107744597D01*
X93264141Y-107751420D01*
X93264142Y-107751422D01*
X93269725Y-107760863D01*
X93287183Y-107829680D01*
X93269725Y-107889137D01*
X93264142Y-107898578D01*
X93260106Y-107905403D01*
X93257895Y-107913014D01*
X93257894Y-107913016D01*
X93253109Y-107929487D01*
X93214394Y-108062746D01*
X93213890Y-108069151D01*
X93213889Y-108069156D01*
X93211693Y-108097060D01*
X93211500Y-108099516D01*
X93211500Y-108510484D01*
X93214394Y-108547254D01*
X93260106Y-108704597D01*
X93264141Y-108711419D01*
X93264141Y-108711420D01*
X93282827Y-108743016D01*
X93343512Y-108845629D01*
X93459371Y-108961488D01*
X93466192Y-108965522D01*
X93553200Y-109016978D01*
X93600403Y-109044894D01*
X93608014Y-109047105D01*
X93608016Y-109047106D01*
X93625151Y-109052084D01*
X93757746Y-109090606D01*
X93764151Y-109091110D01*
X93764156Y-109091111D01*
X93792060Y-109093307D01*
X93792068Y-109093307D01*
X93794516Y-109093500D01*
X94265484Y-109093500D01*
X94267932Y-109093307D01*
X94267940Y-109093307D01*
X94295844Y-109091111D01*
X94295849Y-109091110D01*
X94302254Y-109090606D01*
X94434849Y-109052084D01*
X94451984Y-109047106D01*
X94451986Y-109047105D01*
X94459597Y-109044894D01*
X94466425Y-109040856D01*
X94483012Y-109031047D01*
X94547151Y-109013500D01*
X94695500Y-109013500D01*
X94763621Y-109033502D01*
X94810114Y-109087158D01*
X94821500Y-109139500D01*
X94821500Y-111701088D01*
X94821208Y-111709658D01*
X94821062Y-111711807D01*
X94817275Y-111767352D01*
X94818580Y-111774829D01*
X94818580Y-111774830D01*
X94828261Y-111830299D01*
X94829223Y-111836821D01*
X94836898Y-111900242D01*
X94839581Y-111907343D01*
X94840222Y-111909952D01*
X94844685Y-111926262D01*
X94845450Y-111928798D01*
X94846757Y-111936284D01*
X94857415Y-111960562D01*
X94872442Y-111994795D01*
X94874933Y-112000899D01*
X94897513Y-112060656D01*
X94901817Y-112066919D01*
X94903054Y-112069285D01*
X94911299Y-112084097D01*
X94912632Y-112086351D01*
X94915685Y-112093305D01*
X94920307Y-112099328D01*
X94954579Y-112143991D01*
X94958459Y-112149332D01*
X94990339Y-112195720D01*
X94990344Y-112195725D01*
X94994643Y-112201981D01*
X95000313Y-112207032D01*
X95000314Y-112207034D01*
X95041170Y-112243435D01*
X95046446Y-112248416D01*
X96028550Y-113230520D01*
X96034404Y-113236785D01*
X96072439Y-113280385D01*
X96078657Y-113284755D01*
X96124697Y-113317112D01*
X96129993Y-113321045D01*
X96180282Y-113360477D01*
X96187204Y-113363602D01*
X96189452Y-113364964D01*
X96204185Y-113373368D01*
X96206524Y-113374622D01*
X96212739Y-113378990D01*
X96219815Y-113381749D01*
X96219819Y-113381751D01*
X96272269Y-113402200D01*
X96278334Y-113404749D01*
X96336573Y-113431045D01*
X96344038Y-113432429D01*
X96346582Y-113433226D01*
X96362848Y-113437859D01*
X96365428Y-113438521D01*
X96372509Y-113441282D01*
X96380042Y-113442274D01*
X96380043Y-113442274D01*
X96393261Y-113444014D01*
X96435857Y-113449622D01*
X96442355Y-113450650D01*
X96505187Y-113462296D01*
X96512767Y-113461859D01*
X96512768Y-113461859D01*
X96567393Y-113458709D01*
X96574647Y-113458500D01*
X97340437Y-113458500D01*
X97408558Y-113478502D01*
X97455051Y-113532158D01*
X97465155Y-113602432D01*
X97435661Y-113667012D01*
X97406606Y-113691518D01*
X97405188Y-113692250D01*
X97169977Y-113857559D01*
X97154892Y-113871577D01*
X97022066Y-113995007D01*
X96959378Y-114053260D01*
X96777287Y-114275732D01*
X96627073Y-114520858D01*
X96625347Y-114524791D01*
X96625346Y-114524792D01*
X96513243Y-114780170D01*
X96511517Y-114784102D01*
X96510342Y-114788229D01*
X96510341Y-114788230D01*
X96472137Y-114922348D01*
X96432756Y-115060594D01*
X96392249Y-115345216D01*
X96392227Y-115349505D01*
X96392226Y-115349512D01*
X96390765Y-115628417D01*
X96390743Y-115632703D01*
X96391302Y-115636947D01*
X96391302Y-115636951D01*
X96396830Y-115678939D01*
X96428268Y-115917734D01*
X96504129Y-116195036D01*
X96505813Y-116198984D01*
X96609772Y-116442710D01*
X96616923Y-116459476D01*
X96628693Y-116479142D01*
X96734567Y-116656044D01*
X96764561Y-116706161D01*
X96944313Y-116930528D01*
X96968290Y-116953281D01*
X97135232Y-117111703D01*
X97152851Y-117128423D01*
X97386317Y-117296186D01*
X97390112Y-117298195D01*
X97390113Y-117298196D01*
X97411869Y-117309715D01*
X97640392Y-117430712D01*
X97664699Y-117439607D01*
X97853226Y-117508598D01*
X97910373Y-117529511D01*
X98191264Y-117590755D01*
X98219841Y-117593004D01*
X98414282Y-117608307D01*
X98414291Y-117608307D01*
X98416739Y-117608500D01*
X98572271Y-117608500D01*
X98574407Y-117608354D01*
X98574418Y-117608354D01*
X98782548Y-117594165D01*
X98782554Y-117594164D01*
X98786825Y-117593873D01*
X98791020Y-117593004D01*
X98791022Y-117593004D01*
X99000400Y-117549644D01*
X99068342Y-117535574D01*
X99339343Y-117439607D01*
X99481309Y-117366333D01*
X99591005Y-117309715D01*
X99591006Y-117309715D01*
X99594812Y-117307750D01*
X99598313Y-117305289D01*
X99598317Y-117305287D01*
X99824959Y-117146000D01*
X99830023Y-117142441D01*
X99970544Y-117011861D01*
X100037479Y-116949661D01*
X100037481Y-116949658D01*
X100040622Y-116946740D01*
X100222713Y-116724268D01*
X100372927Y-116479142D01*
X100397228Y-116423784D01*
X100486757Y-116219830D01*
X100488483Y-116215898D01*
X100567244Y-115939406D01*
X100607751Y-115654784D01*
X100607845Y-115636951D01*
X100609235Y-115371583D01*
X100609235Y-115371576D01*
X100609257Y-115367297D01*
X100571732Y-115082266D01*
X100495871Y-114804964D01*
X100441716Y-114678000D01*
X100384763Y-114544476D01*
X100384761Y-114544472D01*
X100383077Y-114540524D01*
X100308527Y-114415960D01*
X100237643Y-114297521D01*
X100237640Y-114297517D01*
X100235439Y-114293839D01*
X100055687Y-114069472D01*
X99847149Y-113871577D01*
X99613683Y-113703814D01*
X99598647Y-113695853D01*
X99547806Y-113646302D01*
X99531824Y-113577128D01*
X99555777Y-113510294D01*
X99612061Y-113467020D01*
X99657608Y-113458500D01*
X102866088Y-113458500D01*
X102874658Y-113458792D01*
X102924776Y-113462209D01*
X102924780Y-113462209D01*
X102932352Y-113462725D01*
X102939829Y-113461420D01*
X102939830Y-113461420D01*
X102966308Y-113456799D01*
X102995303Y-113451738D01*
X103001821Y-113450777D01*
X103065242Y-113443102D01*
X103072343Y-113440419D01*
X103074952Y-113439778D01*
X103091262Y-113435315D01*
X103093798Y-113434550D01*
X103101284Y-113433243D01*
X103159800Y-113407556D01*
X103165904Y-113405065D01*
X103170319Y-113403397D01*
X103225656Y-113382487D01*
X103231919Y-113378183D01*
X103234285Y-113376946D01*
X103249097Y-113368701D01*
X103251351Y-113367368D01*
X103258305Y-113364315D01*
X103309002Y-113325413D01*
X103314332Y-113321541D01*
X103360720Y-113289661D01*
X103360725Y-113289656D01*
X103366981Y-113285357D01*
X103408436Y-113238829D01*
X103413416Y-113233554D01*
X104658336Y-111988634D01*
X104720648Y-111954608D01*
X104737548Y-111952117D01*
X104756466Y-111950629D01*
X104882045Y-111914145D01*
X104904983Y-111907481D01*
X104904985Y-111907480D01*
X104912596Y-111905269D01*
X104919421Y-111901233D01*
X104919425Y-111901231D01*
X104965861Y-111873769D01*
X105034677Y-111856309D01*
X105094139Y-111873769D01*
X105140575Y-111901231D01*
X105140579Y-111901233D01*
X105147404Y-111905269D01*
X105155015Y-111907480D01*
X105155017Y-111907481D01*
X105219662Y-111926262D01*
X105303534Y-111950629D01*
X105309941Y-111951133D01*
X105309945Y-111951134D01*
X105337556Y-111953307D01*
X105337562Y-111953307D01*
X105340011Y-111953500D01*
X105525370Y-111953500D01*
X105593491Y-111973502D01*
X105639984Y-112027158D01*
X105650088Y-112097432D01*
X105629846Y-112149932D01*
X105566811Y-112243435D01*
X105324522Y-112602833D01*
X105321554Y-112607046D01*
X105308232Y-112625162D01*
X104752043Y-113381497D01*
X104748951Y-113385527D01*
X104148219Y-114136068D01*
X104144932Y-114140008D01*
X103514025Y-114865335D01*
X103510564Y-114869153D01*
X102850539Y-115568052D01*
X102846924Y-115571726D01*
X102182666Y-116219830D01*
X102158871Y-116243046D01*
X102155141Y-116246540D01*
X101440185Y-116889181D01*
X101436282Y-116892547D01*
X100695662Y-117505394D01*
X100691625Y-117508598D01*
X100279070Y-117822462D01*
X99970578Y-118057157D01*
X99926557Y-118090647D01*
X99922395Y-118093681D01*
X99176323Y-118614521D01*
X99134173Y-118643946D01*
X99129894Y-118646805D01*
X98861552Y-118818255D01*
X98319824Y-119164378D01*
X98315424Y-119167064D01*
X97484842Y-119651087D01*
X97480337Y-119653590D01*
X96630693Y-120103220D01*
X96626089Y-120105537D01*
X95758766Y-120520044D01*
X95754072Y-120522171D01*
X95012583Y-120839974D01*
X94870497Y-120900872D01*
X94865719Y-120902805D01*
X93967409Y-121245048D01*
X93962556Y-121246784D01*
X93051000Y-121552005D01*
X93046080Y-121553541D01*
X92122819Y-121821221D01*
X92117841Y-121822555D01*
X91596692Y-121950798D01*
X91184373Y-122052261D01*
X91179360Y-122053386D01*
X90237261Y-122244729D01*
X90232228Y-122245644D01*
X89559152Y-122353897D01*
X89283114Y-122398293D01*
X89278010Y-122399007D01*
X88992900Y-122432969D01*
X88323458Y-122512712D01*
X88318346Y-122513215D01*
X87971217Y-122540224D01*
X87359944Y-122587786D01*
X87354799Y-122588081D01*
X86394142Y-122623395D01*
X86388988Y-122623479D01*
X85919204Y-122621523D01*
X85427681Y-122619477D01*
X85422557Y-122619350D01*
X84462221Y-122576036D01*
X84457109Y-122575701D01*
X84037078Y-122539498D01*
X83499325Y-122493147D01*
X83494200Y-122492599D01*
X82540634Y-122370949D01*
X82535536Y-122370192D01*
X82413423Y-122349507D01*
X81587743Y-122209646D01*
X81582716Y-122208688D01*
X80642244Y-122009507D01*
X80637228Y-122008337D01*
X79908468Y-121822555D01*
X79705716Y-121770868D01*
X79700766Y-121769497D01*
X78779746Y-121494131D01*
X78774839Y-121492554D01*
X78372330Y-121354042D01*
X77865833Y-121179745D01*
X77861003Y-121177971D01*
X76965609Y-120828271D01*
X76960847Y-120826299D01*
X76080439Y-120440244D01*
X76075763Y-120438078D01*
X75389841Y-120103220D01*
X75211902Y-120016352D01*
X75207339Y-120014008D01*
X74361439Y-119557301D01*
X74357005Y-119554790D01*
X73530419Y-119063826D01*
X73526121Y-119061153D01*
X73049321Y-118750892D01*
X72720370Y-118536838D01*
X72716109Y-118533940D01*
X71932488Y-117977123D01*
X71928348Y-117974052D01*
X71907855Y-117958190D01*
X77972000Y-117958190D01*
X77972212Y-117963363D01*
X77986224Y-118133794D01*
X77987907Y-118143956D01*
X78043796Y-118366461D01*
X78047117Y-118376216D01*
X78138591Y-118586590D01*
X78143469Y-118595688D01*
X78268075Y-118788301D01*
X78274359Y-118796461D01*
X78428763Y-118966149D01*
X78436293Y-118973170D01*
X78616332Y-119115356D01*
X78624919Y-119121061D01*
X78825750Y-119231926D01*
X78835162Y-119236156D01*
X79051416Y-119312736D01*
X79061366Y-119315365D01*
X79158164Y-119332607D01*
X79171460Y-119331148D01*
X79175540Y-119318067D01*
X79684000Y-119318067D01*
X79687918Y-119331411D01*
X79702194Y-119333398D01*
X79763933Y-119323950D01*
X79773961Y-119321561D01*
X79992016Y-119250290D01*
X80001525Y-119246293D01*
X80205007Y-119140367D01*
X80213732Y-119134873D01*
X80397187Y-118997131D01*
X80404894Y-118990288D01*
X80563391Y-118824431D01*
X80569874Y-118816425D01*
X80650567Y-118698134D01*
X81341500Y-118698134D01*
X81348255Y-118760316D01*
X81399385Y-118896705D01*
X81486739Y-119013261D01*
X81603295Y-119100615D01*
X81739684Y-119151745D01*
X81801866Y-119158500D01*
X83198134Y-119158500D01*
X83260316Y-119151745D01*
X83396705Y-119100615D01*
X83513261Y-119013261D01*
X83600615Y-118896705D01*
X83651745Y-118760316D01*
X83658500Y-118698134D01*
X83658500Y-118428851D01*
X83678502Y-118360730D01*
X83732158Y-118314237D01*
X83802432Y-118304133D01*
X83867012Y-118333627D01*
X83902631Y-118385850D01*
X83903272Y-118388372D01*
X83905689Y-118393614D01*
X83905690Y-118393618D01*
X83970379Y-118533940D01*
X83992411Y-118581731D01*
X84115296Y-118755609D01*
X84267809Y-118904181D01*
X84272605Y-118907386D01*
X84272608Y-118907388D01*
X84377305Y-118977344D01*
X84444843Y-119022471D01*
X84450146Y-119024749D01*
X84450149Y-119024751D01*
X84635163Y-119104239D01*
X84640470Y-119106519D01*
X84704737Y-119121061D01*
X84842501Y-119152234D01*
X84842506Y-119152235D01*
X84848138Y-119153509D01*
X84853909Y-119153736D01*
X84853911Y-119153736D01*
X84915252Y-119156146D01*
X85060891Y-119161869D01*
X85066600Y-119161041D01*
X85066604Y-119161041D01*
X85265890Y-119132145D01*
X85265894Y-119132144D01*
X85271605Y-119131316D01*
X85473223Y-119062876D01*
X85658993Y-118958840D01*
X85822693Y-118822693D01*
X85851296Y-118788301D01*
X85901508Y-118727928D01*
X85960445Y-118688344D01*
X86031427Y-118686907D01*
X86091918Y-118724075D01*
X86101278Y-118735775D01*
X86110788Y-118749231D01*
X86115296Y-118755609D01*
X86267809Y-118904181D01*
X86272605Y-118907386D01*
X86272608Y-118907388D01*
X86377305Y-118977344D01*
X86444843Y-119022471D01*
X86450146Y-119024749D01*
X86450149Y-119024751D01*
X86635163Y-119104239D01*
X86640470Y-119106519D01*
X86704737Y-119121061D01*
X86842501Y-119152234D01*
X86842506Y-119152235D01*
X86848138Y-119153509D01*
X86853909Y-119153736D01*
X86853911Y-119153736D01*
X86915252Y-119156146D01*
X87060891Y-119161869D01*
X87066600Y-119161041D01*
X87066604Y-119161041D01*
X87265890Y-119132145D01*
X87265894Y-119132144D01*
X87271605Y-119131316D01*
X87473223Y-119062876D01*
X87625952Y-118977344D01*
X88887016Y-118977344D01*
X88896898Y-118989834D01*
X88940279Y-119018820D01*
X88950389Y-119024310D01*
X89135318Y-119103762D01*
X89146261Y-119107317D01*
X89342567Y-119151737D01*
X89353975Y-119153239D01*
X89555096Y-119161140D01*
X89566580Y-119160538D01*
X89765774Y-119131657D01*
X89776957Y-119128972D01*
X89967547Y-119064276D01*
X89978060Y-119059595D01*
X90104766Y-118988635D01*
X90114631Y-118978557D01*
X90111675Y-118970885D01*
X89512812Y-118372022D01*
X89498868Y-118364408D01*
X89497035Y-118364539D01*
X89490420Y-118368790D01*
X88893212Y-118965998D01*
X88887016Y-118977344D01*
X87625952Y-118977344D01*
X87658993Y-118958840D01*
X87822693Y-118822693D01*
X87958840Y-118658993D01*
X88062876Y-118473223D01*
X88131316Y-118271605D01*
X88131815Y-118271774D01*
X88165311Y-118213446D01*
X88228340Y-118180768D01*
X88299031Y-118187354D01*
X88354939Y-118231112D01*
X88374594Y-118273421D01*
X88402323Y-118382604D01*
X88406164Y-118393451D01*
X88490429Y-118576238D01*
X88496178Y-118586195D01*
X88509912Y-118605628D01*
X88520501Y-118614016D01*
X88533802Y-118606988D01*
X89127978Y-118012812D01*
X89134356Y-118001132D01*
X89864408Y-118001132D01*
X89864539Y-118002965D01*
X89868790Y-118009580D01*
X90466971Y-118607761D01*
X90479351Y-118614521D01*
X90485931Y-118609595D01*
X90559595Y-118478060D01*
X90564276Y-118467547D01*
X90628972Y-118276957D01*
X90631657Y-118265774D01*
X90660834Y-118064539D01*
X90661464Y-118057157D01*
X90662864Y-118003704D01*
X90662621Y-117996305D01*
X90659119Y-117958190D01*
X91112000Y-117958190D01*
X91112212Y-117963363D01*
X91126224Y-118133794D01*
X91127907Y-118143956D01*
X91183796Y-118366461D01*
X91187117Y-118376216D01*
X91278591Y-118586590D01*
X91283469Y-118595688D01*
X91408075Y-118788301D01*
X91414359Y-118796461D01*
X91568763Y-118966149D01*
X91576293Y-118973170D01*
X91756332Y-119115356D01*
X91764919Y-119121061D01*
X91965750Y-119231926D01*
X91975162Y-119236156D01*
X92191416Y-119312736D01*
X92201366Y-119315365D01*
X92298164Y-119332607D01*
X92311460Y-119331148D01*
X92315540Y-119318067D01*
X92824000Y-119318067D01*
X92827918Y-119331411D01*
X92842194Y-119333398D01*
X92903933Y-119323950D01*
X92913961Y-119321561D01*
X93132016Y-119250290D01*
X93141525Y-119246293D01*
X93345007Y-119140367D01*
X93353732Y-119134873D01*
X93537187Y-118997131D01*
X93544894Y-118990288D01*
X93703391Y-118824431D01*
X93709874Y-118816425D01*
X93839155Y-118626906D01*
X93844244Y-118617947D01*
X93940837Y-118409855D01*
X93944394Y-118400187D01*
X94005701Y-118179121D01*
X94007632Y-118169001D01*
X94027644Y-117981748D01*
X94028000Y-117975056D01*
X94028000Y-117672115D01*
X94023525Y-117656876D01*
X94022135Y-117655671D01*
X94014452Y-117654000D01*
X92842115Y-117654000D01*
X92826876Y-117658475D01*
X92825671Y-117659865D01*
X92824000Y-117667548D01*
X92824000Y-119318067D01*
X92315540Y-119318067D01*
X92316000Y-119316592D01*
X92316000Y-117672115D01*
X92311525Y-117656876D01*
X92310135Y-117655671D01*
X92302452Y-117654000D01*
X91130115Y-117654000D01*
X91114876Y-117658475D01*
X91113671Y-117659865D01*
X91112000Y-117667548D01*
X91112000Y-117958190D01*
X90659119Y-117958190D01*
X90644016Y-117793824D01*
X90641918Y-117782503D01*
X90587287Y-117588797D01*
X90583163Y-117578050D01*
X90494141Y-117397534D01*
X90490617Y-117391784D01*
X90480595Y-117384262D01*
X90468176Y-117391034D01*
X89872022Y-117987188D01*
X89864408Y-118001132D01*
X89134356Y-118001132D01*
X89135592Y-117998868D01*
X89135461Y-117997035D01*
X89131210Y-117990420D01*
X88531520Y-117390730D01*
X88519140Y-117383970D01*
X88513174Y-117388436D01*
X88428257Y-117549836D01*
X88423853Y-117560469D01*
X88369707Y-117734846D01*
X88330403Y-117793971D01*
X88265374Y-117822462D01*
X88195265Y-117811272D01*
X88142335Y-117763955D01*
X88128105Y-117731684D01*
X88087754Y-117588611D01*
X88087753Y-117588609D01*
X88086186Y-117583052D01*
X88075050Y-117560469D01*
X87994570Y-117397273D01*
X87992015Y-117392092D01*
X87986032Y-117384079D01*
X87899563Y-117268283D01*
X87864622Y-117221491D01*
X87708271Y-117076963D01*
X87621471Y-117022196D01*
X88886307Y-117022196D01*
X88889793Y-117030583D01*
X89487188Y-117627978D01*
X89501132Y-117635592D01*
X89502965Y-117635461D01*
X89509580Y-117631210D01*
X90012905Y-117127885D01*
X91112000Y-117127885D01*
X91116475Y-117143124D01*
X91117865Y-117144329D01*
X91125548Y-117146000D01*
X92297885Y-117146000D01*
X92313124Y-117141525D01*
X92314329Y-117140135D01*
X92316000Y-117132452D01*
X92316000Y-117127885D01*
X92824000Y-117127885D01*
X92828475Y-117143124D01*
X92829865Y-117144329D01*
X92837548Y-117146000D01*
X94009885Y-117146000D01*
X94025124Y-117141525D01*
X94026329Y-117140135D01*
X94028000Y-117132452D01*
X94028000Y-116841810D01*
X94027788Y-116836637D01*
X94013776Y-116666206D01*
X94012093Y-116656044D01*
X93956204Y-116433539D01*
X93952883Y-116423784D01*
X93861409Y-116213410D01*
X93856531Y-116204312D01*
X93731925Y-116011699D01*
X93725641Y-116003539D01*
X93571237Y-115833851D01*
X93563707Y-115826830D01*
X93383668Y-115684644D01*
X93375081Y-115678939D01*
X93174250Y-115568074D01*
X93164838Y-115563844D01*
X92948584Y-115487264D01*
X92938634Y-115484635D01*
X92841836Y-115467393D01*
X92828540Y-115468852D01*
X92824000Y-115483408D01*
X92824000Y-117127885D01*
X92316000Y-117127885D01*
X92316000Y-115481933D01*
X92312082Y-115468589D01*
X92297806Y-115466602D01*
X92236067Y-115476050D01*
X92226039Y-115478439D01*
X92007984Y-115549710D01*
X91998475Y-115553707D01*
X91794993Y-115659633D01*
X91786268Y-115665127D01*
X91602813Y-115802869D01*
X91595106Y-115809712D01*
X91436609Y-115975569D01*
X91430126Y-115983575D01*
X91300845Y-116173094D01*
X91295756Y-116182053D01*
X91199163Y-116390145D01*
X91195606Y-116399813D01*
X91134299Y-116620879D01*
X91132368Y-116630999D01*
X91112356Y-116818252D01*
X91112000Y-116824944D01*
X91112000Y-117127885D01*
X90012905Y-117127885D01*
X90106533Y-117034257D01*
X90113293Y-117021877D01*
X90107263Y-117013822D01*
X90032857Y-116966875D01*
X90022609Y-116961654D01*
X89835663Y-116887070D01*
X89824635Y-116883803D01*
X89627230Y-116844537D01*
X89615784Y-116843334D01*
X89414537Y-116840700D01*
X89403057Y-116841603D01*
X89204701Y-116875687D01*
X89193581Y-116878667D01*
X89004748Y-116948331D01*
X88994370Y-116953281D01*
X88895906Y-117011861D01*
X88886307Y-117022196D01*
X87621471Y-117022196D01*
X87528201Y-116963347D01*
X87330441Y-116884449D01*
X87324781Y-116883323D01*
X87324777Y-116883322D01*
X87127282Y-116844038D01*
X87127280Y-116844038D01*
X87121615Y-116842911D01*
X87115840Y-116842835D01*
X87115836Y-116842835D01*
X87009161Y-116841439D01*
X86908716Y-116840124D01*
X86903019Y-116841103D01*
X86903018Y-116841103D01*
X86704564Y-116875203D01*
X86704561Y-116875204D01*
X86698874Y-116876181D01*
X86499116Y-116949875D01*
X86316134Y-117058739D01*
X86156054Y-117199125D01*
X86152483Y-117203655D01*
X86152482Y-117203656D01*
X86099471Y-117270900D01*
X86041590Y-117312013D01*
X85970670Y-117315307D01*
X85909227Y-117279735D01*
X85899563Y-117268283D01*
X85868074Y-117226114D01*
X85864622Y-117221491D01*
X85708271Y-117076963D01*
X85528201Y-116963347D01*
X85330441Y-116884449D01*
X85324781Y-116883323D01*
X85324777Y-116883322D01*
X85127282Y-116844038D01*
X85127280Y-116844038D01*
X85121615Y-116842911D01*
X85115840Y-116842835D01*
X85115836Y-116842835D01*
X85009161Y-116841439D01*
X84908716Y-116840124D01*
X84903019Y-116841103D01*
X84903018Y-116841103D01*
X84704564Y-116875203D01*
X84704561Y-116875204D01*
X84698874Y-116876181D01*
X84499116Y-116949875D01*
X84316134Y-117058739D01*
X84156054Y-117199125D01*
X84024238Y-117366333D01*
X84021549Y-117371444D01*
X84021547Y-117371447D01*
X83967085Y-117474961D01*
X83925100Y-117554762D01*
X83912956Y-117593873D01*
X83904832Y-117620036D01*
X83865529Y-117679161D01*
X83800500Y-117707651D01*
X83730391Y-117696461D01*
X83677461Y-117649144D01*
X83658500Y-117582671D01*
X83658500Y-117301866D01*
X83651745Y-117239684D01*
X83600615Y-117103295D01*
X83513261Y-116986739D01*
X83396705Y-116899385D01*
X83260316Y-116848255D01*
X83198134Y-116841500D01*
X81801866Y-116841500D01*
X81739684Y-116848255D01*
X81603295Y-116899385D01*
X81486739Y-116986739D01*
X81399385Y-117103295D01*
X81348255Y-117239684D01*
X81341500Y-117301866D01*
X81341500Y-118698134D01*
X80650567Y-118698134D01*
X80699155Y-118626906D01*
X80704244Y-118617947D01*
X80800837Y-118409855D01*
X80804394Y-118400187D01*
X80865701Y-118179121D01*
X80867632Y-118169001D01*
X80887644Y-117981748D01*
X80888000Y-117975056D01*
X80888000Y-117672115D01*
X80883525Y-117656876D01*
X80882135Y-117655671D01*
X80874452Y-117654000D01*
X79702115Y-117654000D01*
X79686876Y-117658475D01*
X79685671Y-117659865D01*
X79684000Y-117667548D01*
X79684000Y-119318067D01*
X79175540Y-119318067D01*
X79176000Y-119316592D01*
X79176000Y-117672115D01*
X79171525Y-117656876D01*
X79170135Y-117655671D01*
X79162452Y-117654000D01*
X77990115Y-117654000D01*
X77974876Y-117658475D01*
X77973671Y-117659865D01*
X77972000Y-117667548D01*
X77972000Y-117958190D01*
X71907855Y-117958190D01*
X71168147Y-117385646D01*
X71164154Y-117382423D01*
X70428632Y-116763402D01*
X70424817Y-116760056D01*
X69911992Y-116291320D01*
X69875205Y-116230598D01*
X69871000Y-116198317D01*
X69871000Y-115632703D01*
X71390743Y-115632703D01*
X71391302Y-115636947D01*
X71391302Y-115636951D01*
X71396830Y-115678939D01*
X71428268Y-115917734D01*
X71504129Y-116195036D01*
X71505813Y-116198984D01*
X71609772Y-116442710D01*
X71616923Y-116459476D01*
X71628693Y-116479142D01*
X71734567Y-116656044D01*
X71764561Y-116706161D01*
X71944313Y-116930528D01*
X71968290Y-116953281D01*
X72135232Y-117111703D01*
X72152851Y-117128423D01*
X72386317Y-117296186D01*
X72390112Y-117298195D01*
X72390113Y-117298196D01*
X72411869Y-117309715D01*
X72640392Y-117430712D01*
X72664699Y-117439607D01*
X72853226Y-117508598D01*
X72910373Y-117529511D01*
X73191264Y-117590755D01*
X73219841Y-117593004D01*
X73414282Y-117608307D01*
X73414291Y-117608307D01*
X73416739Y-117608500D01*
X73572271Y-117608500D01*
X73574407Y-117608354D01*
X73574418Y-117608354D01*
X73782548Y-117594165D01*
X73782554Y-117594164D01*
X73786825Y-117593873D01*
X73791020Y-117593004D01*
X73791022Y-117593004D01*
X74000400Y-117549644D01*
X74068342Y-117535574D01*
X74339343Y-117439607D01*
X74481309Y-117366333D01*
X74591005Y-117309715D01*
X74591006Y-117309715D01*
X74594812Y-117307750D01*
X74598313Y-117305289D01*
X74598317Y-117305287D01*
X74824959Y-117146000D01*
X74830023Y-117142441D01*
X74845687Y-117127885D01*
X77972000Y-117127885D01*
X77976475Y-117143124D01*
X77977865Y-117144329D01*
X77985548Y-117146000D01*
X79157885Y-117146000D01*
X79173124Y-117141525D01*
X79174329Y-117140135D01*
X79176000Y-117132452D01*
X79176000Y-117127885D01*
X79684000Y-117127885D01*
X79688475Y-117143124D01*
X79689865Y-117144329D01*
X79697548Y-117146000D01*
X80869885Y-117146000D01*
X80885124Y-117141525D01*
X80886329Y-117140135D01*
X80888000Y-117132452D01*
X80888000Y-116841810D01*
X80887788Y-116836637D01*
X80873776Y-116666206D01*
X80872093Y-116656044D01*
X80816204Y-116433539D01*
X80812883Y-116423784D01*
X80721409Y-116213410D01*
X80716531Y-116204312D01*
X80591925Y-116011699D01*
X80585641Y-116003539D01*
X80431237Y-115833851D01*
X80423707Y-115826830D01*
X80243668Y-115684644D01*
X80235081Y-115678939D01*
X80034250Y-115568074D01*
X80024838Y-115563844D01*
X79808584Y-115487264D01*
X79798634Y-115484635D01*
X79701836Y-115467393D01*
X79688540Y-115468852D01*
X79684000Y-115483408D01*
X79684000Y-117127885D01*
X79176000Y-117127885D01*
X79176000Y-115481933D01*
X79172082Y-115468589D01*
X79157806Y-115466602D01*
X79096067Y-115476050D01*
X79086039Y-115478439D01*
X78867984Y-115549710D01*
X78858475Y-115553707D01*
X78654993Y-115659633D01*
X78646268Y-115665127D01*
X78462813Y-115802869D01*
X78455106Y-115809712D01*
X78296609Y-115975569D01*
X78290126Y-115983575D01*
X78160845Y-116173094D01*
X78155756Y-116182053D01*
X78059163Y-116390145D01*
X78055606Y-116399813D01*
X77994299Y-116620879D01*
X77992368Y-116630999D01*
X77972356Y-116818252D01*
X77972000Y-116824944D01*
X77972000Y-117127885D01*
X74845687Y-117127885D01*
X74970544Y-117011861D01*
X75037479Y-116949661D01*
X75037481Y-116949658D01*
X75040622Y-116946740D01*
X75222713Y-116724268D01*
X75372927Y-116479142D01*
X75397228Y-116423784D01*
X75486757Y-116219830D01*
X75488483Y-116215898D01*
X75567244Y-115939406D01*
X75607751Y-115654784D01*
X75607845Y-115636951D01*
X75609235Y-115371583D01*
X75609235Y-115371576D01*
X75609257Y-115367297D01*
X75571732Y-115082266D01*
X75495871Y-114804964D01*
X75441716Y-114678000D01*
X75384763Y-114544476D01*
X75384761Y-114544472D01*
X75383077Y-114540524D01*
X75308527Y-114415960D01*
X75237643Y-114297521D01*
X75237640Y-114297517D01*
X75235439Y-114293839D01*
X75055687Y-114069472D01*
X74847149Y-113871577D01*
X74613683Y-113703814D01*
X74591843Y-113692250D01*
X74505062Y-113646302D01*
X74359608Y-113569288D01*
X74148939Y-113492194D01*
X84066602Y-113492194D01*
X84076050Y-113553933D01*
X84078439Y-113563961D01*
X84149710Y-113782016D01*
X84153707Y-113791525D01*
X84259633Y-113995007D01*
X84265127Y-114003732D01*
X84402869Y-114187187D01*
X84409712Y-114194894D01*
X84575569Y-114353391D01*
X84583575Y-114359874D01*
X84773094Y-114489155D01*
X84782053Y-114494244D01*
X84990145Y-114590837D01*
X84999813Y-114594394D01*
X85220879Y-114655701D01*
X85230999Y-114657632D01*
X85418252Y-114677644D01*
X85424944Y-114678000D01*
X85727885Y-114678000D01*
X85743124Y-114673525D01*
X85744329Y-114672135D01*
X85746000Y-114664452D01*
X85746000Y-114659885D01*
X86254000Y-114659885D01*
X86258475Y-114675124D01*
X86259865Y-114676329D01*
X86267548Y-114678000D01*
X86558190Y-114678000D01*
X86563363Y-114677788D01*
X86733794Y-114663776D01*
X86743956Y-114662093D01*
X86966461Y-114606204D01*
X86976216Y-114602883D01*
X87186590Y-114511409D01*
X87195688Y-114506531D01*
X87388301Y-114381925D01*
X87396461Y-114375641D01*
X87566149Y-114221237D01*
X87573170Y-114213707D01*
X87715356Y-114033668D01*
X87721061Y-114025081D01*
X87831926Y-113824250D01*
X87836156Y-113814838D01*
X87912736Y-113598584D01*
X87915365Y-113588634D01*
X87932607Y-113491836D01*
X87931148Y-113478540D01*
X87916592Y-113474000D01*
X86272115Y-113474000D01*
X86256876Y-113478475D01*
X86255671Y-113479865D01*
X86254000Y-113487548D01*
X86254000Y-114659885D01*
X85746000Y-114659885D01*
X85746000Y-113492115D01*
X85741525Y-113476876D01*
X85740135Y-113475671D01*
X85732452Y-113474000D01*
X84081933Y-113474000D01*
X84068589Y-113477918D01*
X84066602Y-113492194D01*
X74148939Y-113492194D01*
X74148723Y-113492115D01*
X74093658Y-113471964D01*
X74093656Y-113471963D01*
X74089627Y-113470489D01*
X73808736Y-113409245D01*
X73770452Y-113406232D01*
X73585718Y-113391693D01*
X73585709Y-113391693D01*
X73583261Y-113391500D01*
X73427729Y-113391500D01*
X73425593Y-113391646D01*
X73425582Y-113391646D01*
X73217452Y-113405835D01*
X73217446Y-113405836D01*
X73213175Y-113406127D01*
X73208980Y-113406996D01*
X73208978Y-113406996D01*
X73107935Y-113427921D01*
X72931658Y-113464426D01*
X72660657Y-113560393D01*
X72405188Y-113692250D01*
X72401687Y-113694711D01*
X72401683Y-113694713D01*
X72391594Y-113701804D01*
X72169977Y-113857559D01*
X72154892Y-113871577D01*
X72022066Y-113995007D01*
X71959378Y-114053260D01*
X71777287Y-114275732D01*
X71627073Y-114520858D01*
X71625347Y-114524791D01*
X71625346Y-114524792D01*
X71513243Y-114780170D01*
X71511517Y-114784102D01*
X71510342Y-114788229D01*
X71510341Y-114788230D01*
X71472137Y-114922348D01*
X71432756Y-115060594D01*
X71392249Y-115345216D01*
X71392227Y-115349505D01*
X71392226Y-115349512D01*
X71390765Y-115628417D01*
X71390743Y-115632703D01*
X69871000Y-115632703D01*
X69871000Y-112948164D01*
X84067393Y-112948164D01*
X84068852Y-112961460D01*
X84083408Y-112966000D01*
X85727885Y-112966000D01*
X85743124Y-112961525D01*
X85744329Y-112960135D01*
X85746000Y-112952452D01*
X85746000Y-112947885D01*
X86254000Y-112947885D01*
X86258475Y-112963124D01*
X86259865Y-112964329D01*
X86267548Y-112966000D01*
X87918067Y-112966000D01*
X87931411Y-112962082D01*
X87933398Y-112947806D01*
X87923950Y-112886067D01*
X87921561Y-112876039D01*
X87850290Y-112657984D01*
X87846293Y-112648475D01*
X87740367Y-112444993D01*
X87734873Y-112436268D01*
X87597131Y-112252813D01*
X87590288Y-112245106D01*
X87424431Y-112086609D01*
X87416425Y-112080126D01*
X87226906Y-111950845D01*
X87217947Y-111945756D01*
X87009855Y-111849163D01*
X87000187Y-111845606D01*
X86779121Y-111784299D01*
X86769001Y-111782368D01*
X86581748Y-111762356D01*
X86575056Y-111762000D01*
X86272115Y-111762000D01*
X86256876Y-111766475D01*
X86255671Y-111767865D01*
X86254000Y-111775548D01*
X86254000Y-112947885D01*
X85746000Y-112947885D01*
X85746000Y-111780115D01*
X85741525Y-111764876D01*
X85740135Y-111763671D01*
X85732452Y-111762000D01*
X85441810Y-111762000D01*
X85436637Y-111762212D01*
X85266206Y-111776224D01*
X85256044Y-111777907D01*
X85033539Y-111833796D01*
X85023784Y-111837117D01*
X84813410Y-111928591D01*
X84804312Y-111933469D01*
X84611699Y-112058075D01*
X84603539Y-112064359D01*
X84433851Y-112218763D01*
X84426830Y-112226293D01*
X84284644Y-112406332D01*
X84278939Y-112414919D01*
X84168074Y-112615750D01*
X84163844Y-112625162D01*
X84087264Y-112841416D01*
X84084635Y-112851366D01*
X84067393Y-112948164D01*
X69871000Y-112948164D01*
X69871000Y-111064000D01*
X69891002Y-110995879D01*
X69944658Y-110949386D01*
X69997000Y-110938000D01*
X83959298Y-110938000D01*
X83960069Y-110938002D01*
X84037652Y-110938476D01*
X84046281Y-110936010D01*
X84046286Y-110936009D01*
X84066048Y-110930361D01*
X84082809Y-110926783D01*
X84103152Y-110923870D01*
X84103162Y-110923867D01*
X84112045Y-110922595D01*
X84135395Y-110911979D01*
X84152907Y-110905536D01*
X84168937Y-110900954D01*
X84177565Y-110898488D01*
X84202548Y-110882726D01*
X84217614Y-110874596D01*
X84244510Y-110862367D01*
X84263939Y-110845626D01*
X84278947Y-110834521D01*
X84293039Y-110825630D01*
X84300631Y-110820840D01*
X84320182Y-110798703D01*
X84332374Y-110786659D01*
X84347949Y-110773239D01*
X84347950Y-110773237D01*
X84354747Y-110767381D01*
X84359626Y-110759853D01*
X84359629Y-110759850D01*
X84368696Y-110745861D01*
X84379986Y-110730987D01*
X84383825Y-110726640D01*
X84396956Y-110711772D01*
X84409510Y-110685034D01*
X84417824Y-110670065D01*
X84433893Y-110645273D01*
X84441239Y-110620709D01*
X84447901Y-110603264D01*
X84454983Y-110588179D01*
X84458799Y-110580052D01*
X84463343Y-110550870D01*
X84467126Y-110534151D01*
X84473014Y-110514464D01*
X84473015Y-110514461D01*
X84475587Y-110505859D01*
X84475797Y-110471444D01*
X84475830Y-110470672D01*
X84476000Y-110469577D01*
X84476000Y-110438702D01*
X84476002Y-110437932D01*
X84476452Y-110364284D01*
X84476452Y-110364283D01*
X84476476Y-110360348D01*
X84476092Y-110359004D01*
X84476000Y-110357659D01*
X84476000Y-109274669D01*
X86277001Y-109274669D01*
X86277371Y-109281490D01*
X86282895Y-109332352D01*
X86286521Y-109347604D01*
X86331676Y-109468054D01*
X86340214Y-109483649D01*
X86416715Y-109585724D01*
X86429276Y-109598285D01*
X86531351Y-109674786D01*
X86546946Y-109683324D01*
X86667394Y-109728478D01*
X86682649Y-109732105D01*
X86733514Y-109737631D01*
X86740328Y-109738000D01*
X88237885Y-109738000D01*
X88253124Y-109733525D01*
X88254329Y-109732135D01*
X88256000Y-109724452D01*
X88256000Y-109719884D01*
X88764000Y-109719884D01*
X88768475Y-109735123D01*
X88769865Y-109736328D01*
X88777548Y-109737999D01*
X90279669Y-109737999D01*
X90286490Y-109737629D01*
X90337352Y-109732105D01*
X90352604Y-109728479D01*
X90473054Y-109683324D01*
X90488649Y-109674786D01*
X90590724Y-109598285D01*
X90603285Y-109585724D01*
X90679786Y-109483649D01*
X90688324Y-109468054D01*
X90733478Y-109347606D01*
X90737105Y-109332351D01*
X90742631Y-109281486D01*
X90743000Y-109274672D01*
X90743000Y-108427115D01*
X90738525Y-108411876D01*
X90737135Y-108410671D01*
X90729452Y-108409000D01*
X88782115Y-108409000D01*
X88766876Y-108413475D01*
X88765671Y-108414865D01*
X88764000Y-108422548D01*
X88764000Y-109719884D01*
X88256000Y-109719884D01*
X88256000Y-108427115D01*
X88251525Y-108411876D01*
X88250135Y-108410671D01*
X88242452Y-108409000D01*
X86295116Y-108409000D01*
X86279877Y-108413475D01*
X86278672Y-108414865D01*
X86277001Y-108422548D01*
X86277001Y-109274669D01*
X84476000Y-109274669D01*
X84476000Y-107882885D01*
X86277000Y-107882885D01*
X86281475Y-107898124D01*
X86282865Y-107899329D01*
X86290548Y-107901000D01*
X88237885Y-107901000D01*
X88253124Y-107896525D01*
X88254329Y-107895135D01*
X88256000Y-107887452D01*
X88256000Y-107882885D01*
X88764000Y-107882885D01*
X88768475Y-107898124D01*
X88769865Y-107899329D01*
X88777548Y-107901000D01*
X90724884Y-107901000D01*
X90740123Y-107896525D01*
X90741328Y-107895135D01*
X90742999Y-107887452D01*
X90742999Y-107035331D01*
X90742629Y-107028510D01*
X90737105Y-106977648D01*
X90733479Y-106962396D01*
X90688324Y-106841946D01*
X90679786Y-106826351D01*
X90603285Y-106724276D01*
X90590724Y-106711715D01*
X90488649Y-106635214D01*
X90473054Y-106626676D01*
X90352606Y-106581522D01*
X90337351Y-106577895D01*
X90286486Y-106572369D01*
X90279672Y-106572000D01*
X88782115Y-106572000D01*
X88766876Y-106576475D01*
X88765671Y-106577865D01*
X88764000Y-106585548D01*
X88764000Y-107882885D01*
X88256000Y-107882885D01*
X88256000Y-106590116D01*
X88251525Y-106574877D01*
X88250135Y-106573672D01*
X88242452Y-106572001D01*
X86740331Y-106572001D01*
X86733510Y-106572371D01*
X86682648Y-106577895D01*
X86667396Y-106581521D01*
X86546946Y-106626676D01*
X86531351Y-106635214D01*
X86429276Y-106711715D01*
X86416715Y-106724276D01*
X86340214Y-106826351D01*
X86331676Y-106841946D01*
X86286522Y-106962394D01*
X86282895Y-106977649D01*
X86277369Y-107028514D01*
X86277000Y-107035328D01*
X86277000Y-107882885D01*
X84476000Y-107882885D01*
X84476000Y-104849065D01*
X84496002Y-104780944D01*
X84549658Y-104734451D01*
X84619932Y-104724347D01*
X84645913Y-104730965D01*
X84803168Y-104789448D01*
X84878203Y-104799460D01*
X84975980Y-104812507D01*
X84975984Y-104812507D01*
X84982961Y-104813438D01*
X84989972Y-104812800D01*
X84989976Y-104812800D01*
X85136548Y-104799460D01*
X85163600Y-104796998D01*
X85170302Y-104794820D01*
X85170304Y-104794820D01*
X85329409Y-104743124D01*
X85329412Y-104743123D01*
X85336108Y-104740947D01*
X85491912Y-104648069D01*
X85623266Y-104522982D01*
X85723643Y-104371902D01*
X85788055Y-104202338D01*
X85798358Y-104129029D01*
X85812748Y-104026639D01*
X85812748Y-104026636D01*
X85813299Y-104022717D01*
X85813616Y-104000000D01*
X85793397Y-103819745D01*
X85774131Y-103764419D01*
X85736065Y-103655110D01*
X85733745Y-103648448D01*
X85730639Y-103643478D01*
X85719320Y-103573867D01*
X85747619Y-103508755D01*
X85806628Y-103469278D01*
X85844346Y-103463500D01*
X86318134Y-103463500D01*
X86380316Y-103456745D01*
X86516705Y-103405615D01*
X86529435Y-103396074D01*
X86595939Y-103371226D01*
X86665322Y-103386278D01*
X86680559Y-103396070D01*
X86693295Y-103405615D01*
X86829684Y-103456745D01*
X86891866Y-103463500D01*
X87588134Y-103463500D01*
X87650316Y-103456745D01*
X87786705Y-103405615D01*
X87793889Y-103400231D01*
X87793891Y-103400230D01*
X87799853Y-103395761D01*
X87866359Y-103370914D01*
X87935742Y-103385967D01*
X87950981Y-103395761D01*
X87956352Y-103399786D01*
X87971946Y-103408324D01*
X88092394Y-103453478D01*
X88107649Y-103457105D01*
X88158514Y-103462631D01*
X88165328Y-103463000D01*
X88237885Y-103463000D01*
X88253124Y-103458525D01*
X88254329Y-103457135D01*
X88256000Y-103449452D01*
X88256000Y-100513879D01*
X88273546Y-100449740D01*
X88285859Y-100428920D01*
X88285859Y-100428919D01*
X88289894Y-100422097D01*
X88299551Y-100388859D01*
X88313959Y-100339265D01*
X88335606Y-100264754D01*
X88336267Y-100256362D01*
X88338307Y-100230440D01*
X88338307Y-100230432D01*
X88338500Y-100227984D01*
X88338500Y-99757016D01*
X88337043Y-99738500D01*
X88336111Y-99726656D01*
X88336110Y-99726651D01*
X88335617Y-99720385D01*
X88764000Y-99720385D01*
X88768475Y-99735624D01*
X88769865Y-99736829D01*
X88777548Y-99738500D01*
X89257885Y-99738500D01*
X89273124Y-99734025D01*
X89274329Y-99732635D01*
X89276000Y-99724952D01*
X89276000Y-99198942D01*
X89272027Y-99185411D01*
X89264129Y-99184276D01*
X89138216Y-99220857D01*
X89123778Y-99227105D01*
X89084140Y-99250547D01*
X89015323Y-99268007D01*
X88955860Y-99250547D01*
X88916222Y-99227105D01*
X88901784Y-99220857D01*
X88781395Y-99185881D01*
X88767295Y-99185921D01*
X88764000Y-99193191D01*
X88764000Y-99720385D01*
X88335617Y-99720385D01*
X88335606Y-99720246D01*
X88302808Y-99607352D01*
X88292106Y-99570516D01*
X88292105Y-99570514D01*
X88289894Y-99562903D01*
X88280842Y-99547596D01*
X88273546Y-99535260D01*
X88256000Y-99471121D01*
X88256000Y-99198942D01*
X88252027Y-99185411D01*
X88244129Y-99184276D01*
X88118216Y-99220857D01*
X88103778Y-99227105D01*
X88094628Y-99232516D01*
X88025812Y-99249974D01*
X87966353Y-99232515D01*
X87956423Y-99226643D01*
X87956424Y-99226643D01*
X87949597Y-99222606D01*
X87941986Y-99220395D01*
X87941984Y-99220394D01*
X87890249Y-99205364D01*
X87792254Y-99176894D01*
X87785849Y-99176390D01*
X87785844Y-99176389D01*
X87757940Y-99174193D01*
X87757932Y-99174193D01*
X87755484Y-99174000D01*
X87344516Y-99174000D01*
X87342068Y-99174193D01*
X87342060Y-99174193D01*
X87314156Y-99176389D01*
X87314151Y-99176390D01*
X87307746Y-99176894D01*
X87209751Y-99205364D01*
X87158016Y-99220394D01*
X87158014Y-99220395D01*
X87150403Y-99222606D01*
X87143581Y-99226641D01*
X87143580Y-99226641D01*
X87076260Y-99266454D01*
X87012121Y-99284000D01*
X86635164Y-99284000D01*
X86567043Y-99263998D01*
X86546069Y-99247095D01*
X86516787Y-99217813D01*
X86482761Y-99155501D01*
X86487826Y-99084686D01*
X86516787Y-99039623D01*
X86530484Y-99025926D01*
X86540124Y-99013499D01*
X86615396Y-98886220D01*
X86621642Y-98871786D01*
X86653609Y-98761757D01*
X86691822Y-98701922D01*
X86756319Y-98672245D01*
X86818837Y-98678930D01*
X86839684Y-98686745D01*
X86901866Y-98693500D01*
X87598134Y-98693500D01*
X87660316Y-98686745D01*
X87724856Y-98662550D01*
X87788301Y-98638766D01*
X87788304Y-98638764D01*
X87796705Y-98635615D01*
X87797024Y-98636466D01*
X87858849Y-98622945D01*
X87903166Y-98635958D01*
G37*
%TD.AperFunction*%
%TA.AperFunction,Conductor*%
G36*
X97976121Y-103776002D02*
G01*
X98022614Y-103829658D01*
X98034000Y-103882000D01*
X98034000Y-104799884D01*
X98038475Y-104815123D01*
X98039865Y-104816328D01*
X98047548Y-104817999D01*
X98518984Y-104817999D01*
X98523920Y-104817805D01*
X98552336Y-104815570D01*
X98564931Y-104813270D01*
X98710790Y-104770893D01*
X98725221Y-104764648D01*
X98854678Y-104688089D01*
X98867104Y-104678449D01*
X98973449Y-104572104D01*
X98983091Y-104559675D01*
X99010231Y-104513782D01*
X99062123Y-104465329D01*
X99131974Y-104452623D01*
X99197605Y-104479698D01*
X99207780Y-104488825D01*
X99605339Y-104886384D01*
X99639365Y-104948696D01*
X99634300Y-105019511D01*
X99621756Y-105042022D01*
X99622494Y-105042459D01*
X99539731Y-105182404D01*
X99494371Y-105338534D01*
X99493867Y-105344941D01*
X99493866Y-105344945D01*
X99491693Y-105372556D01*
X99491500Y-105375011D01*
X99491501Y-105874988D01*
X99494371Y-105911466D01*
X99539731Y-106067596D01*
X99543769Y-106074423D01*
X99543769Y-106074424D01*
X99543953Y-106074736D01*
X99544038Y-106075047D01*
X99546915Y-106081695D01*
X99545969Y-106082104D01*
X99561500Y-106138875D01*
X99561500Y-107730333D01*
X99561208Y-107738903D01*
X99560355Y-107751422D01*
X99557275Y-107796597D01*
X99558580Y-107804074D01*
X99558580Y-107804075D01*
X99568261Y-107859544D01*
X99569223Y-107866066D01*
X99576898Y-107929487D01*
X99579581Y-107936588D01*
X99580222Y-107939197D01*
X99584685Y-107955507D01*
X99585450Y-107958043D01*
X99586757Y-107965529D01*
X99589811Y-107972486D01*
X99612442Y-108024040D01*
X99614933Y-108030144D01*
X99637513Y-108089901D01*
X99641817Y-108096164D01*
X99643054Y-108098530D01*
X99651299Y-108113342D01*
X99652632Y-108115596D01*
X99655685Y-108122550D01*
X99660307Y-108128573D01*
X99694579Y-108173236D01*
X99698459Y-108178577D01*
X99730339Y-108224965D01*
X99730344Y-108224970D01*
X99734643Y-108231226D01*
X99740313Y-108236277D01*
X99740314Y-108236279D01*
X99781161Y-108272672D01*
X99786438Y-108277653D01*
X100364455Y-108855671D01*
X100398480Y-108917983D01*
X100393415Y-108988799D01*
X100350868Y-109045634D01*
X100341402Y-109052070D01*
X100249088Y-109108862D01*
X100244053Y-109113793D01*
X100244050Y-109113795D01*
X100124525Y-109230843D01*
X100119493Y-109235771D01*
X100021235Y-109388238D01*
X99959197Y-109558685D01*
X99936463Y-109738640D01*
X99954163Y-109919160D01*
X100011418Y-110091273D01*
X100015064Y-110097294D01*
X100015068Y-110097302D01*
X100042446Y-110142509D01*
X100056282Y-110175911D01*
X100056898Y-110181000D01*
X100059582Y-110188103D01*
X100060226Y-110190725D01*
X100064685Y-110207020D01*
X100065450Y-110209556D01*
X100066757Y-110217042D01*
X100069811Y-110223999D01*
X100092442Y-110275553D01*
X100094933Y-110281657D01*
X100117513Y-110341414D01*
X100121817Y-110347677D01*
X100123054Y-110350043D01*
X100131299Y-110364855D01*
X100132632Y-110367109D01*
X100135685Y-110374063D01*
X100172271Y-110421741D01*
X100174579Y-110424749D01*
X100178459Y-110430090D01*
X100210339Y-110476478D01*
X100210344Y-110476483D01*
X100214643Y-110482739D01*
X100220313Y-110487790D01*
X100220314Y-110487792D01*
X100261170Y-110524193D01*
X100266446Y-110529174D01*
X101372792Y-111635520D01*
X101378642Y-111641781D01*
X101388081Y-111652600D01*
X101401584Y-111671287D01*
X101425547Y-111711807D01*
X101540145Y-111826405D01*
X101574171Y-111888717D01*
X101569106Y-111959532D01*
X101526559Y-112016368D01*
X101460039Y-112041179D01*
X101451050Y-112041500D01*
X98548243Y-112041500D01*
X98480122Y-112021498D01*
X98433629Y-111967842D01*
X98423525Y-111897568D01*
X98453019Y-111832988D01*
X98459148Y-111826405D01*
X98568449Y-111717104D01*
X98578089Y-111704678D01*
X98654648Y-111575221D01*
X98660893Y-111560790D01*
X98699939Y-111426395D01*
X98699899Y-111412294D01*
X98692630Y-111409000D01*
X97247000Y-111409000D01*
X97178879Y-111388998D01*
X97132386Y-111335342D01*
X97121000Y-111283000D01*
X97121000Y-111027000D01*
X97141002Y-110958879D01*
X97194658Y-110912386D01*
X97247000Y-110901000D01*
X98686878Y-110901000D01*
X98700409Y-110897027D01*
X98701544Y-110889128D01*
X98693682Y-110862067D01*
X98693883Y-110791070D01*
X98732436Y-110731454D01*
X98775740Y-110707080D01*
X98828906Y-110689805D01*
X98879909Y-110673234D01*
X98879912Y-110673233D01*
X98886608Y-110671057D01*
X98986115Y-110611739D01*
X99036360Y-110581787D01*
X99036362Y-110581786D01*
X99042412Y-110578179D01*
X99173766Y-110453092D01*
X99274143Y-110302012D01*
X99334733Y-110142509D01*
X99336055Y-110139030D01*
X99336056Y-110139028D01*
X99338555Y-110132448D01*
X99339535Y-110125476D01*
X99363248Y-109956749D01*
X99363248Y-109956746D01*
X99363799Y-109952827D01*
X99364116Y-109930110D01*
X99343897Y-109749855D01*
X99339640Y-109737631D01*
X99286564Y-109585216D01*
X99286562Y-109585213D01*
X99284245Y-109578558D01*
X99188126Y-109424734D01*
X99151884Y-109388238D01*
X99065278Y-109301025D01*
X99065274Y-109301022D01*
X99060315Y-109296028D01*
X99037401Y-109281486D01*
X98965365Y-109235771D01*
X98907166Y-109198837D01*
X98749433Y-109142671D01*
X98691969Y-109100977D01*
X98666169Y-109034834D01*
X98670703Y-108988820D01*
X98703767Y-108875011D01*
X98703768Y-108875007D01*
X98705562Y-108868831D01*
X98707389Y-108845629D01*
X98708307Y-108833958D01*
X98708307Y-108833950D01*
X98708500Y-108831502D01*
X98708500Y-108398498D01*
X98708307Y-108396042D01*
X98706067Y-108367579D01*
X98706066Y-108367574D01*
X98705562Y-108361169D01*
X98676528Y-108261231D01*
X98661357Y-108209012D01*
X98661356Y-108209010D01*
X98659145Y-108201399D01*
X98574453Y-108058193D01*
X98571771Y-108055511D01*
X98546498Y-107991139D01*
X98560400Y-107921516D01*
X98570572Y-107905688D01*
X98574453Y-107901807D01*
X98659145Y-107758601D01*
X98663214Y-107744597D01*
X98703767Y-107605008D01*
X98705562Y-107598831D01*
X98706474Y-107587254D01*
X98708307Y-107563958D01*
X98708307Y-107563950D01*
X98708500Y-107561502D01*
X98708500Y-107128498D01*
X98706542Y-107103621D01*
X98706067Y-107097579D01*
X98706066Y-107097574D01*
X98705562Y-107091169D01*
X98672582Y-106977649D01*
X98661357Y-106939012D01*
X98661356Y-106939010D01*
X98659145Y-106931399D01*
X98629857Y-106881876D01*
X98578491Y-106795020D01*
X98578489Y-106795017D01*
X98574453Y-106788193D01*
X98456807Y-106670547D01*
X98449983Y-106666511D01*
X98449980Y-106666509D01*
X98320427Y-106589892D01*
X98320428Y-106589892D01*
X98313601Y-106585855D01*
X98305990Y-106583644D01*
X98305988Y-106583643D01*
X98228699Y-106561189D01*
X98153831Y-106539438D01*
X98147426Y-106538934D01*
X98147421Y-106538933D01*
X98118958Y-106536693D01*
X98118950Y-106536693D01*
X98116502Y-106536500D01*
X97114500Y-106536500D01*
X97046379Y-106516498D01*
X96999886Y-106462842D01*
X96988500Y-106410500D01*
X96988500Y-104944000D01*
X97008502Y-104875879D01*
X97062158Y-104829386D01*
X97114500Y-104818000D01*
X97507885Y-104818000D01*
X97523124Y-104813525D01*
X97524329Y-104812135D01*
X97526000Y-104804452D01*
X97526000Y-103882000D01*
X97546002Y-103813879D01*
X97599658Y-103767386D01*
X97652000Y-103756000D01*
X97908000Y-103756000D01*
X97976121Y-103776002D01*
G37*
%TD.AperFunction*%
%TA.AperFunction,Conductor*%
G36*
X86394142Y-75376605D02*
G01*
X87354799Y-75411919D01*
X87359944Y-75412214D01*
X87971217Y-75459776D01*
X88318346Y-75486785D01*
X88323458Y-75487288D01*
X88800738Y-75544141D01*
X89278010Y-75600993D01*
X89283114Y-75601707D01*
X89559152Y-75646103D01*
X90232228Y-75754356D01*
X90237261Y-75755271D01*
X91179360Y-75946614D01*
X91184373Y-75947739D01*
X91358110Y-75990492D01*
X92117841Y-76177445D01*
X92122819Y-76178779D01*
X93046080Y-76446459D01*
X93051000Y-76447995D01*
X93962556Y-76753216D01*
X93967409Y-76754952D01*
X94865719Y-77097195D01*
X94870494Y-77099127D01*
X95213662Y-77246209D01*
X95754072Y-77477829D01*
X95758766Y-77479956D01*
X96626089Y-77894463D01*
X96630693Y-77896780D01*
X97480337Y-78346410D01*
X97484842Y-78348913D01*
X98315424Y-78832936D01*
X98319824Y-78835622D01*
X99060708Y-79308990D01*
X99129888Y-79353191D01*
X99134166Y-79356050D01*
X99817897Y-79833368D01*
X99922392Y-79906317D01*
X99926557Y-79909353D01*
X100691625Y-80491402D01*
X100695662Y-80494606D01*
X101436282Y-81107453D01*
X101440174Y-81110810D01*
X102155141Y-81753460D01*
X102158866Y-81756949D01*
X102660584Y-82246466D01*
X102846924Y-82428274D01*
X102850539Y-82431948D01*
X103510564Y-83130847D01*
X103514025Y-83134665D01*
X104144932Y-83859992D01*
X104148219Y-83863932D01*
X104748951Y-84614473D01*
X104752043Y-84618503D01*
X104980648Y-84929372D01*
X105321554Y-85392954D01*
X105324522Y-85397167D01*
X105861888Y-86194266D01*
X105864681Y-86198598D01*
X106368979Y-87016975D01*
X106371593Y-87021417D01*
X106842026Y-87859779D01*
X106844450Y-87864314D01*
X107280203Y-88721213D01*
X107282412Y-88725787D01*
X107682763Y-89599804D01*
X107684795Y-89604490D01*
X107845124Y-89996062D01*
X108049059Y-90494132D01*
X108050914Y-90498941D01*
X108378478Y-91402704D01*
X108380135Y-91407584D01*
X108670472Y-92324012D01*
X108671916Y-92328916D01*
X108762976Y-92663262D01*
X108924533Y-93256454D01*
X108925785Y-93261453D01*
X108956516Y-93395725D01*
X109139530Y-94195366D01*
X109140250Y-94198514D01*
X109141293Y-94203544D01*
X109212089Y-94583769D01*
X109317259Y-95148607D01*
X109318099Y-95153692D01*
X109429523Y-95926589D01*
X109446942Y-96047411D01*
X109455267Y-96105161D01*
X109455898Y-96110273D01*
X109464179Y-96190968D01*
X109554039Y-97066558D01*
X109554460Y-97071695D01*
X109576931Y-97437433D01*
X109610707Y-97987158D01*
X109613411Y-98031172D01*
X109613621Y-98036303D01*
X109623262Y-98507596D01*
X109633282Y-98997423D01*
X109633282Y-99002577D01*
X109627838Y-99268727D01*
X109613853Y-99952404D01*
X109613622Y-99963678D01*
X109613412Y-99968809D01*
X109587611Y-100388743D01*
X109554460Y-100928305D01*
X109554039Y-100933442D01*
X109455898Y-101889724D01*
X109455267Y-101894839D01*
X109318099Y-102846308D01*
X109317259Y-102851393D01*
X109252033Y-103201705D01*
X109148827Y-103756000D01*
X109141297Y-103796439D01*
X109140254Y-103801468D01*
X109071126Y-104103510D01*
X108925785Y-104738547D01*
X108924533Y-104743546D01*
X108671920Y-105671071D01*
X108670472Y-105675988D01*
X108424207Y-106453307D01*
X108380135Y-106592416D01*
X108378478Y-106597296D01*
X108050914Y-107501059D01*
X108049059Y-107505868D01*
X107948695Y-107750988D01*
X107684795Y-108395510D01*
X107682763Y-108400196D01*
X107282412Y-109274213D01*
X107280203Y-109278787D01*
X106844455Y-110135676D01*
X106842026Y-110140221D01*
X106508574Y-110734468D01*
X106457795Y-110784087D01*
X106388251Y-110798376D01*
X106322022Y-110772798D01*
X106280135Y-110715475D01*
X106277694Y-110707961D01*
X106272481Y-110690018D01*
X106270269Y-110682404D01*
X106266233Y-110675579D01*
X106263085Y-110668305D01*
X106264900Y-110667520D01*
X106250020Y-110608870D01*
X106267479Y-110549410D01*
X106295857Y-110501424D01*
X106295858Y-110501421D01*
X106299894Y-110494597D01*
X106306792Y-110470856D01*
X106330159Y-110390423D01*
X106345606Y-110337254D01*
X106347152Y-110317618D01*
X106348307Y-110302940D01*
X106348307Y-110302932D01*
X106348500Y-110300484D01*
X106348500Y-109889516D01*
X106345606Y-109852746D01*
X106314493Y-109745653D01*
X106302106Y-109703016D01*
X106302105Y-109703014D01*
X106299894Y-109695403D01*
X106292751Y-109683324D01*
X106290275Y-109679137D01*
X106272817Y-109610320D01*
X106290275Y-109550863D01*
X106295858Y-109541422D01*
X106295859Y-109541420D01*
X106299894Y-109534597D01*
X106345606Y-109377254D01*
X106347940Y-109347606D01*
X106348307Y-109342940D01*
X106348307Y-109342932D01*
X106348500Y-109340484D01*
X106348500Y-108929516D01*
X106348307Y-108927060D01*
X106346111Y-108899156D01*
X106346110Y-108899151D01*
X106345606Y-108892746D01*
X106299894Y-108735403D01*
X106281676Y-108704597D01*
X106220522Y-108601192D01*
X106216488Y-108594371D01*
X106100629Y-108478512D01*
X105959597Y-108395106D01*
X105956797Y-108394292D01*
X105903935Y-108350309D01*
X105882573Y-108282602D01*
X105901208Y-108214094D01*
X105908990Y-108202852D01*
X105920124Y-108188499D01*
X105995396Y-108061220D01*
X106001643Y-108046784D01*
X106043312Y-107903359D01*
X106044768Y-107895391D01*
X106041948Y-107881969D01*
X106030487Y-107879000D01*
X105214500Y-107879000D01*
X105146379Y-107858998D01*
X105099886Y-107805342D01*
X105088500Y-107753000D01*
X105088500Y-107389516D01*
X105088307Y-107387060D01*
X105087324Y-107374566D01*
X106534000Y-107374566D01*
X106538344Y-107389361D01*
X106550003Y-107391421D01*
X106559977Y-107390637D01*
X106572564Y-107388338D01*
X106714783Y-107347019D01*
X106729222Y-107340770D01*
X106855405Y-107266146D01*
X106867841Y-107256499D01*
X106971499Y-107152841D01*
X106981146Y-107140405D01*
X107055770Y-107014222D01*
X107062019Y-106999783D01*
X107094961Y-106886395D01*
X107094921Y-106872295D01*
X107087651Y-106869000D01*
X106552115Y-106869000D01*
X106536876Y-106873475D01*
X106535671Y-106874865D01*
X106534000Y-106882548D01*
X106534000Y-107374566D01*
X105087324Y-107374566D01*
X105086111Y-107359156D01*
X105086110Y-107359151D01*
X105085617Y-107352885D01*
X105534000Y-107352885D01*
X105538475Y-107368124D01*
X105539865Y-107369329D01*
X105547548Y-107371000D01*
X106007885Y-107371000D01*
X106023124Y-107366525D01*
X106024329Y-107365135D01*
X106026000Y-107357452D01*
X106026000Y-106897115D01*
X106021525Y-106881876D01*
X106020135Y-106880671D01*
X106012452Y-106879000D01*
X105552115Y-106879000D01*
X105536876Y-106883475D01*
X105535671Y-106884865D01*
X105534000Y-106892548D01*
X105534000Y-107352885D01*
X105085617Y-107352885D01*
X105085606Y-107352746D01*
X105039894Y-107195403D01*
X105023546Y-107167760D01*
X105006000Y-107103621D01*
X105006000Y-106897115D01*
X105001525Y-106881876D01*
X105000135Y-106880671D01*
X104992452Y-106879000D01*
X104774470Y-106879000D01*
X104710331Y-106861454D01*
X104706420Y-106859141D01*
X104706419Y-106859141D01*
X104699597Y-106855106D01*
X104691986Y-106852895D01*
X104691984Y-106852894D01*
X104641005Y-106838084D01*
X104542254Y-106809394D01*
X104535849Y-106808890D01*
X104535844Y-106808889D01*
X104507940Y-106806693D01*
X104507932Y-106806693D01*
X104505484Y-106806500D01*
X104152000Y-106806500D01*
X104083879Y-106786498D01*
X104037386Y-106732842D01*
X104026000Y-106680500D01*
X104026000Y-106579500D01*
X104046002Y-106511379D01*
X104099658Y-106464886D01*
X104152000Y-106453500D01*
X104515484Y-106453500D01*
X104517932Y-106453307D01*
X104517940Y-106453307D01*
X104545844Y-106451111D01*
X104545849Y-106451110D01*
X104552254Y-106450606D01*
X104690301Y-106410500D01*
X104701984Y-106407106D01*
X104701986Y-106407105D01*
X104709597Y-106404894D01*
X104716419Y-106400859D01*
X104723697Y-106397710D01*
X104724278Y-106399053D01*
X104784685Y-106383731D01*
X104835851Y-106398755D01*
X104836303Y-106397710D01*
X104843581Y-106400859D01*
X104850403Y-106404894D01*
X104858014Y-106407105D01*
X104858016Y-106407106D01*
X104869699Y-106410500D01*
X105007746Y-106450606D01*
X105014151Y-106451110D01*
X105014156Y-106451111D01*
X105042060Y-106453307D01*
X105042068Y-106453307D01*
X105044516Y-106453500D01*
X105515484Y-106453500D01*
X105517932Y-106453307D01*
X105517940Y-106453307D01*
X105545844Y-106451111D01*
X105545849Y-106451110D01*
X105552254Y-106450606D01*
X105690301Y-106410500D01*
X105701984Y-106407106D01*
X105701986Y-106407105D01*
X105709597Y-106404894D01*
X105716422Y-106400858D01*
X105716426Y-106400856D01*
X105754149Y-106378547D01*
X105818288Y-106361000D01*
X105942458Y-106361000D01*
X105977610Y-106366003D01*
X105987353Y-106368834D01*
X105987360Y-106368835D01*
X105993534Y-106370629D01*
X105999941Y-106371133D01*
X105999945Y-106371134D01*
X106027556Y-106373307D01*
X106027562Y-106373307D01*
X106030011Y-106373500D01*
X106279848Y-106373500D01*
X106529988Y-106373499D01*
X106566466Y-106370629D01*
X106572648Y-106368833D01*
X106572653Y-106368832D01*
X106582390Y-106366003D01*
X106617542Y-106361000D01*
X107081900Y-106361000D01*
X107095431Y-106357027D01*
X107096566Y-106349129D01*
X107062019Y-106230217D01*
X107055771Y-106215780D01*
X107028478Y-106169630D01*
X107011018Y-106100813D01*
X107028477Y-106041354D01*
X107060269Y-105987596D01*
X107105629Y-105831466D01*
X107108500Y-105794989D01*
X107108499Y-105395012D01*
X107105629Y-105358534D01*
X107060269Y-105202404D01*
X106977506Y-105062459D01*
X106924599Y-105009552D01*
X106890573Y-104947240D01*
X106895638Y-104876425D01*
X106938185Y-104819589D01*
X106978541Y-104799460D01*
X107036983Y-104782481D01*
X107036985Y-104782480D01*
X107044596Y-104780269D01*
X107098353Y-104748477D01*
X107167166Y-104731018D01*
X107226630Y-104748478D01*
X107272780Y-104775771D01*
X107287217Y-104782019D01*
X107400605Y-104814961D01*
X107414705Y-104814921D01*
X107418000Y-104807651D01*
X107418000Y-104801900D01*
X107926000Y-104801900D01*
X107929973Y-104815431D01*
X107937871Y-104816566D01*
X108056783Y-104782019D01*
X108071222Y-104775770D01*
X108197405Y-104701146D01*
X108209841Y-104691499D01*
X108313499Y-104587841D01*
X108323146Y-104575405D01*
X108397770Y-104449222D01*
X108404019Y-104434783D01*
X108445338Y-104292564D01*
X108447637Y-104279977D01*
X108448260Y-104272057D01*
X108445090Y-104256970D01*
X108433626Y-104254000D01*
X107944115Y-104254000D01*
X107928876Y-104258475D01*
X107927671Y-104259865D01*
X107926000Y-104267548D01*
X107926000Y-104801900D01*
X107418000Y-104801900D01*
X107418000Y-104337542D01*
X107423003Y-104302390D01*
X107425834Y-104292647D01*
X107425835Y-104292640D01*
X107427629Y-104286466D01*
X107428135Y-104280047D01*
X107430307Y-104252444D01*
X107430307Y-104252438D01*
X107430500Y-104249989D01*
X107430499Y-103750012D01*
X107428758Y-103727885D01*
X107926000Y-103727885D01*
X107930475Y-103743124D01*
X107931865Y-103744329D01*
X107939548Y-103746000D01*
X108431566Y-103746000D01*
X108446361Y-103741656D01*
X108448421Y-103729997D01*
X108447637Y-103720023D01*
X108445338Y-103707436D01*
X108404019Y-103565217D01*
X108402934Y-103562710D01*
X108402671Y-103560577D01*
X108401807Y-103557604D01*
X108402287Y-103557465D01*
X108394238Y-103492248D01*
X108429477Y-103423576D01*
X108528449Y-103324604D01*
X108538089Y-103312178D01*
X108614648Y-103182721D01*
X108620893Y-103168290D01*
X108663269Y-103022435D01*
X108665570Y-103009833D01*
X108667807Y-102981416D01*
X108668000Y-102976486D01*
X108668000Y-102597115D01*
X108663525Y-102581876D01*
X108662135Y-102580671D01*
X108654452Y-102579000D01*
X108132115Y-102579000D01*
X108116876Y-102583475D01*
X108115671Y-102584865D01*
X108114000Y-102592548D01*
X108114000Y-103484500D01*
X108093998Y-103552621D01*
X108040342Y-103599114D01*
X107988000Y-103610500D01*
X107944115Y-103610500D01*
X107928876Y-103614975D01*
X107927671Y-103616365D01*
X107926000Y-103624048D01*
X107926000Y-103727885D01*
X107428758Y-103727885D01*
X107427629Y-103713534D01*
X107423003Y-103697610D01*
X107418000Y-103662458D01*
X107418000Y-103258000D01*
X107438002Y-103189879D01*
X107491658Y-103143386D01*
X107544000Y-103132000D01*
X107587885Y-103132000D01*
X107603124Y-103127525D01*
X107604329Y-103126135D01*
X107606000Y-103118452D01*
X107606000Y-102052885D01*
X108114000Y-102052885D01*
X108118475Y-102068124D01*
X108119865Y-102069329D01*
X108127548Y-102071000D01*
X108649884Y-102071000D01*
X108665123Y-102066525D01*
X108666328Y-102065135D01*
X108667999Y-102057452D01*
X108667999Y-101673517D01*
X108667805Y-101668580D01*
X108665570Y-101640164D01*
X108663270Y-101627569D01*
X108620893Y-101481710D01*
X108614648Y-101467279D01*
X108538089Y-101337822D01*
X108528449Y-101325396D01*
X108422104Y-101219051D01*
X108409678Y-101209411D01*
X108280221Y-101132852D01*
X108265790Y-101126607D01*
X108131395Y-101087561D01*
X108117294Y-101087601D01*
X108114000Y-101094870D01*
X108114000Y-102052885D01*
X107606000Y-102052885D01*
X107606000Y-101442342D01*
X107623547Y-101378203D01*
X107665108Y-101307927D01*
X107669145Y-101301101D01*
X107715562Y-101141331D01*
X107716230Y-101132852D01*
X107718307Y-101106458D01*
X107718307Y-101106450D01*
X107718500Y-101104002D01*
X107718500Y-99795998D01*
X107718307Y-99793542D01*
X107716067Y-99765079D01*
X107716066Y-99765074D01*
X107715562Y-99758669D01*
X107669145Y-99598899D01*
X107643822Y-99556080D01*
X107588491Y-99462520D01*
X107588489Y-99462517D01*
X107584453Y-99455693D01*
X107466807Y-99338047D01*
X107459983Y-99334011D01*
X107459980Y-99334009D01*
X107330427Y-99257392D01*
X107330428Y-99257392D01*
X107323601Y-99253355D01*
X107315990Y-99251144D01*
X107315988Y-99251143D01*
X107251872Y-99232516D01*
X107163831Y-99206938D01*
X107157426Y-99206434D01*
X107157421Y-99206433D01*
X107128958Y-99204193D01*
X107128950Y-99204193D01*
X107126502Y-99204000D01*
X106983866Y-99204000D01*
X106915745Y-99183998D01*
X106869252Y-99130342D01*
X106858580Y-99069950D01*
X106858209Y-99069935D01*
X106858276Y-99068228D01*
X106858255Y-99068109D01*
X106858306Y-99067459D01*
X106858306Y-99067449D01*
X106858500Y-99064989D01*
X106858499Y-98665012D01*
X106855629Y-98628534D01*
X106820493Y-98507596D01*
X106812481Y-98480017D01*
X106812480Y-98480015D01*
X106810269Y-98472404D01*
X106806233Y-98465579D01*
X106806231Y-98465575D01*
X106778769Y-98419139D01*
X106761309Y-98350323D01*
X106778769Y-98290861D01*
X106806231Y-98244425D01*
X106806233Y-98244421D01*
X106810269Y-98237596D01*
X106819751Y-98204961D01*
X106853834Y-98087644D01*
X106855629Y-98081466D01*
X106858500Y-98044989D01*
X106858499Y-97645012D01*
X106855629Y-97608534D01*
X106821949Y-97492606D01*
X106812481Y-97460017D01*
X106812480Y-97460015D01*
X106810269Y-97452404D01*
X106727506Y-97312459D01*
X106730219Y-97310855D01*
X106709604Y-97258415D01*
X106723475Y-97188786D01*
X106746010Y-97158125D01*
X107381016Y-96523118D01*
X107387282Y-96517264D01*
X107425149Y-96484230D01*
X107430874Y-96479236D01*
X107467603Y-96426975D01*
X107471535Y-96421680D01*
X107473511Y-96419160D01*
X107510966Y-96371393D01*
X107514091Y-96364471D01*
X107515453Y-96362223D01*
X107523857Y-96347490D01*
X107525111Y-96345151D01*
X107529479Y-96338936D01*
X107532238Y-96331860D01*
X107532240Y-96331856D01*
X107552689Y-96279406D01*
X107555238Y-96273341D01*
X107581534Y-96215102D01*
X107582918Y-96207637D01*
X107583715Y-96205093D01*
X107588348Y-96188827D01*
X107589010Y-96186247D01*
X107591771Y-96179166D01*
X107593626Y-96165080D01*
X107600110Y-96115822D01*
X107601142Y-96109304D01*
X107602815Y-96100282D01*
X107612785Y-96046488D01*
X107609198Y-95984277D01*
X107608989Y-95977024D01*
X107608989Y-92004401D01*
X107609281Y-91995831D01*
X107612698Y-91945713D01*
X107612698Y-91945709D01*
X107613214Y-91938137D01*
X107602228Y-91875192D01*
X107601266Y-91868671D01*
X107594504Y-91812793D01*
X107593591Y-91805247D01*
X107590905Y-91798139D01*
X107590268Y-91795545D01*
X107585807Y-91779239D01*
X107585037Y-91776688D01*
X107583731Y-91769205D01*
X107580679Y-91762252D01*
X107558050Y-91710701D01*
X107555558Y-91704594D01*
X107535662Y-91651941D01*
X107535662Y-91651940D01*
X107532976Y-91644833D01*
X107528673Y-91638572D01*
X107527436Y-91636206D01*
X107519209Y-91621426D01*
X107517858Y-91619141D01*
X107514804Y-91612184D01*
X107510184Y-91606164D01*
X107510181Y-91606158D01*
X107479749Y-91566501D01*
X107475902Y-91561487D01*
X107472030Y-91556157D01*
X107440150Y-91509769D01*
X107440145Y-91509764D01*
X107435846Y-91503508D01*
X107389318Y-91462053D01*
X107384043Y-91457073D01*
X106175405Y-90248435D01*
X106141379Y-90186123D01*
X106138500Y-90159340D01*
X106138500Y-88956866D01*
X106131745Y-88894684D01*
X106080615Y-88758295D01*
X105993261Y-88641739D01*
X105876705Y-88554385D01*
X105740316Y-88503255D01*
X105678134Y-88496500D01*
X103881866Y-88496500D01*
X103819684Y-88503255D01*
X103683295Y-88554385D01*
X103566739Y-88641739D01*
X103479385Y-88758295D01*
X103428255Y-88894684D01*
X103421500Y-88956866D01*
X103421500Y-90753134D01*
X103428255Y-90815316D01*
X103479385Y-90951705D01*
X103566739Y-91068261D01*
X103683295Y-91155615D01*
X103691704Y-91158767D01*
X103691705Y-91158768D01*
X103800960Y-91199726D01*
X103857725Y-91242367D01*
X103882425Y-91308929D01*
X103867218Y-91378278D01*
X103847825Y-91404759D01*
X103724590Y-91533717D01*
X103718104Y-91541727D01*
X103598098Y-91717649D01*
X103593002Y-91726619D01*
X103506588Y-91912782D01*
X103459764Y-91966148D01*
X103391520Y-91985729D01*
X103344082Y-91976140D01*
X103318133Y-91965392D01*
X103262049Y-91942161D01*
X103253862Y-91941083D01*
X103253861Y-91941083D01*
X103242656Y-91939608D01*
X103211460Y-91935501D01*
X103143083Y-91926499D01*
X103143080Y-91926499D01*
X103143072Y-91926498D01*
X103111387Y-91922327D01*
X103103198Y-91921249D01*
X103071505Y-91925421D01*
X103055062Y-91926499D01*
X101346240Y-91926499D01*
X101278119Y-91906497D01*
X101231626Y-91852841D01*
X101225243Y-91835651D01*
X101213591Y-91795545D01*
X101189145Y-91711399D01*
X101134523Y-91619038D01*
X101108493Y-91575024D01*
X101108492Y-91575023D01*
X101104453Y-91568193D01*
X101101513Y-91565253D01*
X101076180Y-91500734D01*
X101090079Y-91431111D01*
X101102126Y-91412364D01*
X101108090Y-91404676D01*
X101184648Y-91275221D01*
X101190893Y-91260790D01*
X101229939Y-91126395D01*
X101229899Y-91112294D01*
X101222630Y-91109000D01*
X99627000Y-91109000D01*
X99558879Y-91088998D01*
X99512386Y-91035342D01*
X99501000Y-90983000D01*
X99501000Y-90727000D01*
X99521002Y-90658879D01*
X99574658Y-90612386D01*
X99627000Y-90601000D01*
X100905941Y-90601000D01*
X100974062Y-90621002D01*
X100979577Y-90625033D01*
X100981382Y-90626902D01*
X100987278Y-90630760D01*
X100987279Y-90630761D01*
X101013729Y-90648069D01*
X101133159Y-90726222D01*
X101139763Y-90728678D01*
X101139765Y-90728679D01*
X101296558Y-90786990D01*
X101296560Y-90786990D01*
X101303168Y-90789448D01*
X101386995Y-90800633D01*
X101475980Y-90812507D01*
X101475984Y-90812507D01*
X101482961Y-90813438D01*
X101489972Y-90812800D01*
X101489976Y-90812800D01*
X101632459Y-90799832D01*
X101663600Y-90796998D01*
X101670302Y-90794820D01*
X101670304Y-90794820D01*
X101829409Y-90743124D01*
X101829412Y-90743123D01*
X101836108Y-90740947D01*
X101991912Y-90648069D01*
X102123266Y-90522982D01*
X102223643Y-90371902D01*
X102284067Y-90212836D01*
X102285555Y-90208920D01*
X102285556Y-90208918D01*
X102288055Y-90202338D01*
X102299360Y-90121902D01*
X102312748Y-90026639D01*
X102312748Y-90026636D01*
X102313299Y-90022717D01*
X102313616Y-90000000D01*
X102294848Y-89832682D01*
X102304426Y-89768595D01*
X102306232Y-89764423D01*
X102310269Y-89757596D01*
X102355629Y-89601466D01*
X102358500Y-89564989D01*
X102358499Y-89165012D01*
X102355629Y-89128534D01*
X102310269Y-88972404D01*
X102306233Y-88965579D01*
X102306231Y-88965575D01*
X102278769Y-88919139D01*
X102261309Y-88850323D01*
X102278769Y-88790861D01*
X102306231Y-88744425D01*
X102306233Y-88744421D01*
X102310269Y-88737596D01*
X102314373Y-88723472D01*
X102353834Y-88587644D01*
X102355629Y-88581466D01*
X102357761Y-88554385D01*
X102358307Y-88547444D01*
X102358307Y-88547438D01*
X102358500Y-88544989D01*
X102358499Y-88145012D01*
X102355629Y-88108534D01*
X102317062Y-87975786D01*
X102312481Y-87960017D01*
X102312480Y-87960015D01*
X102310269Y-87952404D01*
X102306233Y-87945579D01*
X102306231Y-87945575D01*
X102256047Y-87860718D01*
X102238500Y-87796579D01*
X102238500Y-86856508D01*
X102258502Y-86788387D01*
X102312158Y-86741894D01*
X102350892Y-86731245D01*
X102392316Y-86726745D01*
X102528705Y-86675615D01*
X102645261Y-86588261D01*
X102732615Y-86471705D01*
X102783745Y-86335316D01*
X102790500Y-86273134D01*
X102790500Y-86269669D01*
X103274001Y-86269669D01*
X103274371Y-86276490D01*
X103279895Y-86327352D01*
X103283521Y-86342604D01*
X103328676Y-86463054D01*
X103337214Y-86478649D01*
X103413715Y-86580724D01*
X103426276Y-86593285D01*
X103528351Y-86669786D01*
X103543946Y-86678324D01*
X103664394Y-86723478D01*
X103679649Y-86727105D01*
X103730514Y-86732631D01*
X103737328Y-86733000D01*
X103838885Y-86733000D01*
X103854124Y-86728525D01*
X103855329Y-86727135D01*
X103857000Y-86719452D01*
X103857000Y-86714884D01*
X104307000Y-86714884D01*
X104311475Y-86730123D01*
X104312865Y-86731328D01*
X104320548Y-86732999D01*
X104426669Y-86732999D01*
X104433490Y-86732629D01*
X104484352Y-86727105D01*
X104499604Y-86723479D01*
X104620054Y-86678324D01*
X104635649Y-86669786D01*
X104737724Y-86593285D01*
X104750285Y-86580724D01*
X104826786Y-86478649D01*
X104835324Y-86463054D01*
X104880478Y-86342606D01*
X104884105Y-86327351D01*
X104889631Y-86276486D01*
X104890000Y-86269672D01*
X104890000Y-86243115D01*
X104885525Y-86227876D01*
X104884135Y-86226671D01*
X104876452Y-86225000D01*
X104325115Y-86225000D01*
X104309876Y-86229475D01*
X104308671Y-86230865D01*
X104307000Y-86238548D01*
X104307000Y-86714884D01*
X103857000Y-86714884D01*
X103857000Y-86243115D01*
X103852525Y-86227876D01*
X103851135Y-86226671D01*
X103843452Y-86225000D01*
X103292116Y-86225000D01*
X103276877Y-86229475D01*
X103275672Y-86230865D01*
X103274001Y-86238548D01*
X103274001Y-86269669D01*
X102790500Y-86269669D01*
X102790500Y-85756885D01*
X103274000Y-85756885D01*
X103278475Y-85772124D01*
X103279865Y-85773329D01*
X103287548Y-85775000D01*
X103838885Y-85775000D01*
X103854124Y-85770525D01*
X103855329Y-85769135D01*
X103857000Y-85761452D01*
X103857000Y-85756885D01*
X104307000Y-85756885D01*
X104311475Y-85772124D01*
X104312865Y-85773329D01*
X104320548Y-85775000D01*
X104871884Y-85775000D01*
X104887123Y-85770525D01*
X104888328Y-85769135D01*
X104889999Y-85761452D01*
X104889999Y-85730331D01*
X104889629Y-85723510D01*
X104884105Y-85672648D01*
X104880479Y-85657396D01*
X104835324Y-85536946D01*
X104826786Y-85521351D01*
X104750285Y-85419276D01*
X104737724Y-85406715D01*
X104635649Y-85330214D01*
X104620054Y-85321676D01*
X104499606Y-85276522D01*
X104484351Y-85272895D01*
X104433486Y-85267369D01*
X104426672Y-85267000D01*
X104325115Y-85267000D01*
X104309876Y-85271475D01*
X104308671Y-85272865D01*
X104307000Y-85280548D01*
X104307000Y-85756885D01*
X103857000Y-85756885D01*
X103857000Y-85285116D01*
X103852525Y-85269877D01*
X103851135Y-85268672D01*
X103843452Y-85267001D01*
X103737331Y-85267001D01*
X103730510Y-85267371D01*
X103679648Y-85272895D01*
X103664396Y-85276521D01*
X103543946Y-85321676D01*
X103528351Y-85330214D01*
X103426276Y-85406715D01*
X103413715Y-85419276D01*
X103337214Y-85521351D01*
X103328676Y-85536946D01*
X103283522Y-85657394D01*
X103279895Y-85672649D01*
X103274369Y-85723514D01*
X103274000Y-85730328D01*
X103274000Y-85756885D01*
X102790500Y-85756885D01*
X102790500Y-85726866D01*
X102783745Y-85664684D01*
X102732615Y-85528295D01*
X102645261Y-85411739D01*
X102528705Y-85324385D01*
X102392316Y-85273255D01*
X102330134Y-85266500D01*
X101633866Y-85266500D01*
X101571684Y-85273255D01*
X101435295Y-85324385D01*
X101318739Y-85411739D01*
X101231385Y-85528295D01*
X101180255Y-85664684D01*
X101173500Y-85726866D01*
X101173500Y-85754340D01*
X101153498Y-85822461D01*
X101136595Y-85843435D01*
X101049472Y-85930558D01*
X101043206Y-85936412D01*
X101005340Y-85969444D01*
X101005337Y-85969447D01*
X100999615Y-85974439D01*
X100977692Y-86005632D01*
X100962872Y-86026719D01*
X100958939Y-86032014D01*
X100919524Y-86082282D01*
X100916401Y-86089198D01*
X100915017Y-86091484D01*
X100906643Y-86106165D01*
X100905378Y-86108525D01*
X100901010Y-86114739D01*
X100898250Y-86121818D01*
X100898249Y-86121820D01*
X100877798Y-86174275D01*
X100875247Y-86180344D01*
X100874446Y-86182119D01*
X100828175Y-86235963D01*
X100760137Y-86256245D01*
X100724468Y-86251243D01*
X100690014Y-86241234D01*
X100690011Y-86241233D01*
X100683831Y-86239438D01*
X100677426Y-86238934D01*
X100677421Y-86238933D01*
X100648958Y-86236693D01*
X100648950Y-86236693D01*
X100646502Y-86236500D01*
X98863498Y-86236500D01*
X98861050Y-86236693D01*
X98861042Y-86236693D01*
X98832579Y-86238933D01*
X98832574Y-86238934D01*
X98826169Y-86239438D01*
X98666399Y-86285855D01*
X98665867Y-86284025D01*
X98629762Y-86291500D01*
X98179158Y-86291500D01*
X98119624Y-86274205D01*
X98118948Y-86275590D01*
X98112609Y-86272498D01*
X98106666Y-86268727D01*
X98092880Y-86263818D01*
X97942425Y-86210243D01*
X97942420Y-86210242D01*
X97935790Y-86207881D01*
X97928802Y-86207048D01*
X97928799Y-86207047D01*
X97785996Y-86190019D01*
X97755680Y-86186404D01*
X97748677Y-86187140D01*
X97748676Y-86187140D01*
X97582288Y-86204628D01*
X97582286Y-86204629D01*
X97575288Y-86205364D01*
X97403579Y-86263818D01*
X97367759Y-86285855D01*
X97255095Y-86355166D01*
X97255092Y-86355168D01*
X97249088Y-86358862D01*
X97236928Y-86370770D01*
X97174268Y-86404141D01*
X97103509Y-86398338D01*
X97059675Y-86369843D01*
X95001812Y-84311980D01*
X94995958Y-84305715D01*
X94971223Y-84277361D01*
X94957923Y-84262115D01*
X94905642Y-84225371D01*
X94900348Y-84221439D01*
X94856055Y-84186709D01*
X94850080Y-84182024D01*
X94843164Y-84178901D01*
X94840878Y-84177517D01*
X94826197Y-84169143D01*
X94823837Y-84167878D01*
X94817623Y-84163510D01*
X94810544Y-84160750D01*
X94810542Y-84160749D01*
X94763584Y-84142441D01*
X94758085Y-84140297D01*
X94752018Y-84137747D01*
X94693789Y-84111455D01*
X94686322Y-84110071D01*
X94683767Y-84109270D01*
X94667514Y-84104641D01*
X94664934Y-84103978D01*
X94657853Y-84101218D01*
X94650322Y-84100227D01*
X94650320Y-84100226D01*
X94620701Y-84096327D01*
X94594501Y-84092878D01*
X94588003Y-84091848D01*
X94525176Y-84080204D01*
X94517596Y-84080641D01*
X94517595Y-84080641D01*
X94462970Y-84083791D01*
X94455716Y-84084000D01*
X92497178Y-84084000D01*
X92429057Y-84063998D01*
X92382564Y-84010342D01*
X92376181Y-83993153D01*
X92363357Y-83949012D01*
X92363356Y-83949010D01*
X92361145Y-83941399D01*
X92336892Y-83900390D01*
X92280491Y-83805020D01*
X92280489Y-83805017D01*
X92276453Y-83798193D01*
X92209905Y-83731645D01*
X92189831Y-83694884D01*
X92681000Y-83694884D01*
X92685475Y-83710123D01*
X92686865Y-83711328D01*
X92691294Y-83712291D01*
X92750315Y-83706868D01*
X92763351Y-83704257D01*
X92913243Y-83657285D01*
X92926988Y-83651079D01*
X93060574Y-83570176D01*
X93072443Y-83560869D01*
X93182869Y-83450443D01*
X93192176Y-83438574D01*
X93273079Y-83304988D01*
X93279285Y-83291243D01*
X93326256Y-83141356D01*
X93328869Y-83128306D01*
X93334734Y-83064479D01*
X93335000Y-83058691D01*
X93335000Y-83002115D01*
X93330525Y-82986876D01*
X93329135Y-82985671D01*
X93321452Y-82984000D01*
X92699115Y-82984000D01*
X92683876Y-82988475D01*
X92682671Y-82989865D01*
X92681000Y-82997548D01*
X92681000Y-83694884D01*
X92189831Y-83694884D01*
X92175879Y-83669333D01*
X92173000Y-83642550D01*
X92173000Y-82632703D01*
X96390743Y-82632703D01*
X96391302Y-82636947D01*
X96391302Y-82636951D01*
X96393084Y-82650488D01*
X96428268Y-82917734D01*
X96504129Y-83195036D01*
X96505813Y-83198984D01*
X96606980Y-83436164D01*
X96616923Y-83459476D01*
X96677613Y-83560882D01*
X96739602Y-83664457D01*
X96764561Y-83706161D01*
X96944313Y-83930528D01*
X97043483Y-84024637D01*
X97138266Y-84114582D01*
X97152851Y-84128423D01*
X97386317Y-84296186D01*
X97390112Y-84298195D01*
X97390113Y-84298196D01*
X97410396Y-84308935D01*
X97640392Y-84430712D01*
X97910373Y-84529511D01*
X98191264Y-84590755D01*
X98219841Y-84593004D01*
X98414282Y-84608307D01*
X98414291Y-84608307D01*
X98416739Y-84608500D01*
X98572271Y-84608500D01*
X98574407Y-84608354D01*
X98574418Y-84608354D01*
X98782548Y-84594165D01*
X98782554Y-84594164D01*
X98786825Y-84593873D01*
X98791020Y-84593004D01*
X98791022Y-84593004D01*
X98927584Y-84564723D01*
X99068342Y-84535574D01*
X99339343Y-84439607D01*
X99594812Y-84307750D01*
X99598313Y-84305289D01*
X99598317Y-84305287D01*
X99792030Y-84169143D01*
X99830023Y-84142441D01*
X99914438Y-84063998D01*
X100037479Y-83949661D01*
X100037481Y-83949658D01*
X100040622Y-83946740D01*
X100222713Y-83724268D01*
X100372927Y-83479142D01*
X100406222Y-83403295D01*
X100486757Y-83219830D01*
X100488483Y-83215898D01*
X100506962Y-83151029D01*
X100566068Y-82943534D01*
X100567244Y-82939406D01*
X100607751Y-82654784D01*
X100607776Y-82650124D01*
X100609235Y-82371583D01*
X100609235Y-82371576D01*
X100609257Y-82367297D01*
X100603681Y-82324938D01*
X100579076Y-82138048D01*
X100571732Y-82082266D01*
X100563784Y-82053211D01*
X100535183Y-81948665D01*
X100495871Y-81804964D01*
X100414710Y-81614685D01*
X100384763Y-81544476D01*
X100384761Y-81544472D01*
X100383077Y-81540524D01*
X100282415Y-81372330D01*
X100237643Y-81297521D01*
X100237640Y-81297517D01*
X100235439Y-81293839D01*
X100055687Y-81069472D01*
X99847149Y-80871577D01*
X99613683Y-80703814D01*
X99591843Y-80692250D01*
X99568654Y-80679972D01*
X99359608Y-80569288D01*
X99151029Y-80492959D01*
X99093658Y-80471964D01*
X99093656Y-80471963D01*
X99089627Y-80470489D01*
X98808736Y-80409245D01*
X98777685Y-80406801D01*
X98585718Y-80391693D01*
X98585709Y-80391693D01*
X98583261Y-80391500D01*
X98427729Y-80391500D01*
X98425593Y-80391646D01*
X98425582Y-80391646D01*
X98217452Y-80405835D01*
X98217446Y-80405836D01*
X98213175Y-80406127D01*
X98208980Y-80406996D01*
X98208978Y-80406996D01*
X98072416Y-80435277D01*
X97931658Y-80464426D01*
X97660657Y-80560393D01*
X97405188Y-80692250D01*
X97401687Y-80694711D01*
X97401683Y-80694713D01*
X97398065Y-80697256D01*
X97169977Y-80857559D01*
X97154892Y-80871577D01*
X96986868Y-81027715D01*
X96959378Y-81053260D01*
X96777287Y-81275732D01*
X96627073Y-81520858D01*
X96625347Y-81524791D01*
X96625346Y-81524792D01*
X96532632Y-81736000D01*
X96511517Y-81784102D01*
X96510342Y-81788229D01*
X96510341Y-81788230D01*
X96472136Y-81922348D01*
X96432756Y-82060594D01*
X96392249Y-82345216D01*
X96392227Y-82349505D01*
X96392226Y-82349512D01*
X96391132Y-82558421D01*
X96390743Y-82632703D01*
X92173000Y-82632703D01*
X92173000Y-82457885D01*
X92681000Y-82457885D01*
X92685475Y-82473124D01*
X92686865Y-82474329D01*
X92694548Y-82476000D01*
X93316884Y-82476000D01*
X93332123Y-82471525D01*
X93333328Y-82470135D01*
X93334999Y-82462452D01*
X93334999Y-82401295D01*
X93334736Y-82395546D01*
X93328868Y-82331685D01*
X93326257Y-82318649D01*
X93279285Y-82168757D01*
X93273079Y-82155012D01*
X93192176Y-82021426D01*
X93182869Y-82009557D01*
X93072443Y-81899131D01*
X93060574Y-81889824D01*
X92926988Y-81808921D01*
X92913243Y-81802715D01*
X92763356Y-81755744D01*
X92750306Y-81753131D01*
X92695414Y-81748087D01*
X92683876Y-81751475D01*
X92682671Y-81752865D01*
X92681000Y-81760548D01*
X92681000Y-82457885D01*
X92173000Y-82457885D01*
X92173000Y-81765116D01*
X92168525Y-81749877D01*
X92167135Y-81748672D01*
X92162706Y-81747709D01*
X92103685Y-81753132D01*
X92090649Y-81755743D01*
X91940757Y-81802715D01*
X91927012Y-81808921D01*
X91793426Y-81889824D01*
X91781557Y-81899131D01*
X91691449Y-81989239D01*
X91629137Y-82023265D01*
X91558322Y-82018200D01*
X91513259Y-81989239D01*
X91417381Y-81893361D01*
X91270699Y-81804528D01*
X91263452Y-81802257D01*
X91263450Y-81802256D01*
X91192973Y-81780170D01*
X91107062Y-81753247D01*
X91033635Y-81746500D01*
X91030737Y-81746500D01*
X90776335Y-81746501D01*
X90520366Y-81746501D01*
X90517508Y-81746764D01*
X90517499Y-81746764D01*
X90483619Y-81749877D01*
X90446938Y-81753247D01*
X90445286Y-81753765D01*
X90376418Y-81747694D01*
X90320293Y-81704214D01*
X90297180Y-81644429D01*
X90295085Y-81625753D01*
X90294300Y-81618755D01*
X90291983Y-81612101D01*
X90236967Y-81454116D01*
X90236965Y-81454113D01*
X90234648Y-81447458D01*
X90211861Y-81410991D01*
X90142262Y-81299608D01*
X90138529Y-81293634D01*
X90123432Y-81278431D01*
X90015681Y-81169925D01*
X90015677Y-81169922D01*
X90010718Y-81164928D01*
X89999600Y-81157872D01*
X89951441Y-81127310D01*
X89857569Y-81067737D01*
X89808710Y-81050339D01*
X89693328Y-81009253D01*
X89693323Y-81009252D01*
X89686693Y-81006891D01*
X89679705Y-81006058D01*
X89679702Y-81006057D01*
X89556601Y-80991378D01*
X89506583Y-80985414D01*
X89499580Y-80986150D01*
X89499579Y-80986150D01*
X89333191Y-81003638D01*
X89333189Y-81003639D01*
X89326191Y-81004374D01*
X89154482Y-81062828D01*
X89140360Y-81071516D01*
X89005998Y-81154176D01*
X89005995Y-81154178D01*
X88999991Y-81157872D01*
X88994956Y-81162803D01*
X88994953Y-81162805D01*
X88876880Y-81278431D01*
X88870396Y-81284781D01*
X88772138Y-81437248D01*
X88769729Y-81443868D01*
X88769727Y-81443871D01*
X88743037Y-81517201D01*
X88710100Y-81607695D01*
X88687366Y-81787650D01*
X88685174Y-81787373D01*
X88667343Y-81845098D01*
X88613041Y-81890835D01*
X88562310Y-81901500D01*
X88397477Y-81901501D01*
X88392012Y-81901501D01*
X88355534Y-81904371D01*
X88263178Y-81931203D01*
X88207017Y-81947519D01*
X88207015Y-81947520D01*
X88199404Y-81949731D01*
X88059459Y-82032494D01*
X87944494Y-82147459D01*
X87940460Y-82154280D01*
X87880380Y-82255871D01*
X87861731Y-82287404D01*
X87816371Y-82443534D01*
X87815867Y-82449941D01*
X87815866Y-82449945D01*
X87813693Y-82477556D01*
X87813500Y-82480011D01*
X87813501Y-82725396D01*
X87813501Y-82918311D01*
X87793499Y-82986432D01*
X87739844Y-83032925D01*
X87669570Y-83043029D01*
X87647834Y-83037904D01*
X87563293Y-83009863D01*
X87549914Y-83006995D01*
X87455562Y-82997328D01*
X87449145Y-82997000D01*
X87424115Y-82997000D01*
X87408876Y-83001475D01*
X87407671Y-83002865D01*
X87406000Y-83010548D01*
X87406000Y-84358000D01*
X87385998Y-84426121D01*
X87332342Y-84472614D01*
X87280000Y-84484000D01*
X86162116Y-84484000D01*
X86146877Y-84488475D01*
X86145672Y-84489865D01*
X86144001Y-84497548D01*
X86144001Y-84707953D01*
X86123999Y-84776074D01*
X86070343Y-84822567D01*
X86000069Y-84832671D01*
X85934183Y-84802030D01*
X85889320Y-84762059D01*
X85884043Y-84757077D01*
X85084851Y-83957885D01*
X86144000Y-83957885D01*
X86148475Y-83973124D01*
X86149865Y-83974329D01*
X86157548Y-83976000D01*
X86879885Y-83976000D01*
X86895124Y-83971525D01*
X86896329Y-83970135D01*
X86898000Y-83962452D01*
X86898000Y-83015116D01*
X86893525Y-82999877D01*
X86892135Y-82998672D01*
X86884452Y-82997001D01*
X86854905Y-82997001D01*
X86848386Y-82997338D01*
X86752794Y-83007257D01*
X86739400Y-83010149D01*
X86585216Y-83061588D01*
X86572038Y-83067761D01*
X86434193Y-83153063D01*
X86422792Y-83162099D01*
X86308261Y-83276829D01*
X86299249Y-83288240D01*
X86214184Y-83426243D01*
X86208037Y-83439424D01*
X86156862Y-83593710D01*
X86153995Y-83607086D01*
X86144328Y-83701438D01*
X86144000Y-83707855D01*
X86144000Y-83957885D01*
X85084851Y-83957885D01*
X81847099Y-80720133D01*
X81815197Y-80666192D01*
X81804105Y-80628014D01*
X81801894Y-80620403D01*
X81794207Y-80607404D01*
X81722522Y-80486192D01*
X81718488Y-80479371D01*
X81602629Y-80363512D01*
X81583999Y-80352494D01*
X81468420Y-80284141D01*
X81468419Y-80284141D01*
X81461597Y-80280106D01*
X81453986Y-80277895D01*
X81453984Y-80277894D01*
X81383851Y-80257519D01*
X81304254Y-80234394D01*
X81297849Y-80233890D01*
X81297844Y-80233889D01*
X81269940Y-80231693D01*
X81269932Y-80231693D01*
X81267484Y-80231500D01*
X80796516Y-80231500D01*
X80794068Y-80231693D01*
X80794060Y-80231693D01*
X80766156Y-80233889D01*
X80766151Y-80233890D01*
X80759746Y-80234394D01*
X80680149Y-80257519D01*
X80610016Y-80277894D01*
X80610014Y-80277895D01*
X80602403Y-80280106D01*
X80595576Y-80284144D01*
X80595575Y-80284144D01*
X80578988Y-80293953D01*
X80514849Y-80311500D01*
X79079694Y-80311500D01*
X79015555Y-80293954D01*
X78981419Y-80273766D01*
X78981418Y-80273766D01*
X78974596Y-80269731D01*
X78966985Y-80267520D01*
X78966983Y-80267519D01*
X78824644Y-80226166D01*
X78824645Y-80226166D01*
X78818466Y-80224371D01*
X78812059Y-80223867D01*
X78812055Y-80223866D01*
X78784444Y-80221693D01*
X78784438Y-80221693D01*
X78781989Y-80221500D01*
X78532152Y-80221500D01*
X78282012Y-80221501D01*
X78245534Y-80224371D01*
X78170436Y-80246189D01*
X78097017Y-80267519D01*
X78097015Y-80267520D01*
X78089404Y-80269731D01*
X78082582Y-80273766D01*
X78082581Y-80273766D01*
X78048447Y-80293953D01*
X77949459Y-80352494D01*
X77834494Y-80467459D01*
X77751731Y-80607404D01*
X77749520Y-80615015D01*
X77749519Y-80615017D01*
X77748771Y-80617591D01*
X77706371Y-80763534D01*
X77705867Y-80769941D01*
X77705866Y-80769945D01*
X77704465Y-80787746D01*
X77703500Y-80800011D01*
X77703501Y-81199988D01*
X77706371Y-81236466D01*
X77718976Y-81279853D01*
X77720978Y-81286743D01*
X77720775Y-81357739D01*
X77682221Y-81417355D01*
X77617557Y-81446664D01*
X77547312Y-81436360D01*
X77510886Y-81410991D01*
X76882226Y-80782331D01*
X76850324Y-80728389D01*
X76814481Y-80605017D01*
X76814480Y-80605015D01*
X76812269Y-80597404D01*
X76729506Y-80457459D01*
X76614541Y-80342494D01*
X76532464Y-80293954D01*
X76481419Y-80263766D01*
X76481418Y-80263766D01*
X76474596Y-80259731D01*
X76466985Y-80257520D01*
X76466983Y-80257519D01*
X76376250Y-80231159D01*
X76318466Y-80214371D01*
X76312059Y-80213867D01*
X76312055Y-80213866D01*
X76284444Y-80211693D01*
X76284438Y-80211693D01*
X76281989Y-80211500D01*
X76032152Y-80211500D01*
X75782012Y-80211501D01*
X75745534Y-80214371D01*
X75651491Y-80241693D01*
X75597017Y-80257519D01*
X75597015Y-80257520D01*
X75589404Y-80259731D01*
X75582577Y-80263769D01*
X75582576Y-80263769D01*
X75582264Y-80263953D01*
X75581953Y-80264038D01*
X75575305Y-80266915D01*
X75574896Y-80265969D01*
X75518125Y-80281500D01*
X73949907Y-80281500D01*
X73914754Y-80276497D01*
X73891465Y-80269731D01*
X73804254Y-80244394D01*
X73797849Y-80243890D01*
X73797844Y-80243889D01*
X73769940Y-80241693D01*
X73769932Y-80241693D01*
X73767484Y-80241500D01*
X73296516Y-80241500D01*
X73294068Y-80241693D01*
X73294060Y-80241693D01*
X73266156Y-80243889D01*
X73266151Y-80243890D01*
X73259746Y-80244394D01*
X73185484Y-80265969D01*
X73110016Y-80287894D01*
X73110014Y-80287895D01*
X73102403Y-80290106D01*
X73095581Y-80294141D01*
X73095580Y-80294141D01*
X72987431Y-80358100D01*
X72961371Y-80373512D01*
X72845512Y-80489371D01*
X72841478Y-80496192D01*
X72775708Y-80607404D01*
X72762106Y-80630403D01*
X72716394Y-80787746D01*
X72715890Y-80794151D01*
X72715889Y-80794156D01*
X72715234Y-80802480D01*
X72713500Y-80824516D01*
X72713500Y-81235484D01*
X72713693Y-81237932D01*
X72713693Y-81237940D01*
X72715823Y-81264996D01*
X72716394Y-81272254D01*
X72745084Y-81371005D01*
X72756701Y-81410991D01*
X72762106Y-81429597D01*
X72766143Y-81436423D01*
X72772015Y-81446353D01*
X72789474Y-81515170D01*
X72772016Y-81574628D01*
X72766605Y-81583778D01*
X72760357Y-81598216D01*
X72725381Y-81718605D01*
X72725421Y-81732705D01*
X72732691Y-81736000D01*
X73010621Y-81736000D01*
X73074760Y-81753546D01*
X73102403Y-81769894D01*
X73110014Y-81772105D01*
X73110016Y-81772106D01*
X73160995Y-81786916D01*
X73259746Y-81815606D01*
X73266151Y-81816110D01*
X73266156Y-81816111D01*
X73294060Y-81818307D01*
X73294068Y-81818307D01*
X73296516Y-81818500D01*
X73767484Y-81818500D01*
X73769932Y-81818307D01*
X73769940Y-81818307D01*
X73797844Y-81816111D01*
X73797849Y-81816110D01*
X73804254Y-81815606D01*
X73903005Y-81786916D01*
X73953984Y-81772106D01*
X73953986Y-81772105D01*
X73961597Y-81769894D01*
X73989240Y-81753546D01*
X74053379Y-81736000D01*
X74325558Y-81736000D01*
X74354080Y-81727625D01*
X74391457Y-81703604D01*
X74426956Y-81698500D01*
X75077500Y-81698500D01*
X75145621Y-81718502D01*
X75192114Y-81772158D01*
X75203500Y-81824500D01*
X75203501Y-82018200D01*
X75203501Y-82209988D01*
X75206371Y-82246466D01*
X75227342Y-82318649D01*
X75245685Y-82381784D01*
X75251731Y-82402596D01*
X75255767Y-82409421D01*
X75255769Y-82409425D01*
X75305953Y-82494282D01*
X75323500Y-82558421D01*
X75323500Y-83436164D01*
X75303498Y-83504285D01*
X75249842Y-83550778D01*
X75179568Y-83560882D01*
X75114988Y-83531388D01*
X75079518Y-83480393D01*
X75053768Y-83411705D01*
X75053767Y-83411703D01*
X75050615Y-83403295D01*
X74963261Y-83286739D01*
X74846705Y-83199385D01*
X74710316Y-83148255D01*
X74648134Y-83141500D01*
X72851866Y-83141500D01*
X72789684Y-83148255D01*
X72653295Y-83199385D01*
X72536739Y-83286739D01*
X72449385Y-83403295D01*
X72398255Y-83539684D01*
X72391500Y-83601866D01*
X72391500Y-85398134D01*
X72398255Y-85460316D01*
X72449385Y-85596705D01*
X72536739Y-85713261D01*
X72653295Y-85800615D01*
X72789684Y-85851745D01*
X72851866Y-85858500D01*
X74648134Y-85858500D01*
X74710316Y-85851745D01*
X74846705Y-85800615D01*
X74963261Y-85713261D01*
X75050615Y-85596705D01*
X75063942Y-85561156D01*
X75094598Y-85479382D01*
X75137240Y-85422618D01*
X75203802Y-85397918D01*
X75273150Y-85413126D01*
X75307817Y-85441114D01*
X75336250Y-85473938D01*
X75508126Y-85616632D01*
X75701000Y-85729338D01*
X75705825Y-85731180D01*
X75705826Y-85731181D01*
X75773138Y-85756885D01*
X75909692Y-85809030D01*
X75914760Y-85810061D01*
X75914763Y-85810062D01*
X76017166Y-85830896D01*
X76128597Y-85853567D01*
X76133772Y-85853757D01*
X76133774Y-85853757D01*
X76346673Y-85861564D01*
X76346677Y-85861564D01*
X76351837Y-85861753D01*
X76356957Y-85861097D01*
X76356959Y-85861097D01*
X76568288Y-85834025D01*
X76568289Y-85834025D01*
X76573416Y-85833368D01*
X76644169Y-85812141D01*
X76782438Y-85770658D01*
X76782439Y-85770658D01*
X76787384Y-85769174D01*
X76792030Y-85766898D01*
X76865420Y-85730945D01*
X76935394Y-85718938D01*
X77000751Y-85746668D01*
X77024693Y-85772731D01*
X77040828Y-85796209D01*
X77040833Y-85796214D01*
X77045132Y-85802470D01*
X77050802Y-85807521D01*
X77050803Y-85807523D01*
X77091659Y-85843924D01*
X77096935Y-85848905D01*
X78094934Y-86846905D01*
X78128960Y-86909217D01*
X78123895Y-86980033D01*
X78081348Y-87036868D01*
X78014828Y-87061679D01*
X78005839Y-87062000D01*
X69997000Y-87062000D01*
X69928879Y-87041998D01*
X69882386Y-86988342D01*
X69871000Y-86936000D01*
X69871000Y-82255871D01*
X72723776Y-82255871D01*
X72760357Y-82381784D01*
X72766604Y-82396220D01*
X72841876Y-82523499D01*
X72851516Y-82535926D01*
X72956074Y-82640484D01*
X72968501Y-82650124D01*
X73095780Y-82725396D01*
X73110216Y-82731643D01*
X73253641Y-82773312D01*
X73261609Y-82774768D01*
X73275031Y-82771948D01*
X73278000Y-82760487D01*
X73278000Y-82758424D01*
X73786000Y-82758424D01*
X73790344Y-82773219D01*
X73800775Y-82775063D01*
X73810359Y-82773312D01*
X73953784Y-82731643D01*
X73968220Y-82725396D01*
X74095499Y-82650124D01*
X74107926Y-82640484D01*
X74212484Y-82535926D01*
X74222124Y-82523499D01*
X74297396Y-82396220D01*
X74303643Y-82381784D01*
X74338619Y-82261395D01*
X74338579Y-82247295D01*
X74331309Y-82244000D01*
X73804115Y-82244000D01*
X73788876Y-82248475D01*
X73787671Y-82249865D01*
X73786000Y-82257548D01*
X73786000Y-82758424D01*
X73278000Y-82758424D01*
X73278000Y-82262115D01*
X73273525Y-82246876D01*
X73272135Y-82245671D01*
X73264452Y-82244000D01*
X72738442Y-82244000D01*
X72724911Y-82247973D01*
X72723776Y-82255871D01*
X69871000Y-82255871D01*
X69871000Y-81801683D01*
X69891002Y-81733562D01*
X69911992Y-81708679D01*
X69916877Y-81704214D01*
X70424817Y-81239944D01*
X70428632Y-81236598D01*
X71164154Y-80617577D01*
X71168147Y-80614354D01*
X71928348Y-80025948D01*
X71932488Y-80022877D01*
X72716109Y-79466060D01*
X72720370Y-79463162D01*
X72820303Y-79398134D01*
X77391500Y-79398134D01*
X77398255Y-79460316D01*
X77449385Y-79596705D01*
X77536739Y-79713261D01*
X77653295Y-79800615D01*
X77789684Y-79851745D01*
X77851866Y-79858500D01*
X79648134Y-79858500D01*
X79710316Y-79851745D01*
X79846705Y-79800615D01*
X79963261Y-79713261D01*
X80050615Y-79596705D01*
X80072799Y-79537529D01*
X80094598Y-79479382D01*
X80137240Y-79422618D01*
X80203802Y-79397918D01*
X80273150Y-79413126D01*
X80307817Y-79441114D01*
X80336250Y-79473938D01*
X80508126Y-79616632D01*
X80701000Y-79729338D01*
X80705825Y-79731180D01*
X80705826Y-79731181D01*
X80778612Y-79758975D01*
X80909692Y-79809030D01*
X80914760Y-79810061D01*
X80914763Y-79810062D01*
X81009862Y-79829410D01*
X81128597Y-79853567D01*
X81133772Y-79853757D01*
X81133774Y-79853757D01*
X81346673Y-79861564D01*
X81346677Y-79861564D01*
X81351837Y-79861753D01*
X81356957Y-79861097D01*
X81356959Y-79861097D01*
X81568288Y-79834025D01*
X81568289Y-79834025D01*
X81573416Y-79833368D01*
X81578366Y-79831883D01*
X81782429Y-79770661D01*
X81782434Y-79770659D01*
X81787384Y-79769174D01*
X81987994Y-79670896D01*
X82169860Y-79541173D01*
X82313400Y-79398134D01*
X84391500Y-79398134D01*
X84398255Y-79460316D01*
X84449385Y-79596705D01*
X84536739Y-79713261D01*
X84653295Y-79800615D01*
X84789684Y-79851745D01*
X84851866Y-79858500D01*
X86648134Y-79858500D01*
X86710316Y-79851745D01*
X86846705Y-79800615D01*
X86963261Y-79713261D01*
X87050615Y-79596705D01*
X87072799Y-79537529D01*
X87094598Y-79479382D01*
X87137240Y-79422618D01*
X87203802Y-79397918D01*
X87273150Y-79413126D01*
X87307817Y-79441114D01*
X87336250Y-79473938D01*
X87508126Y-79616632D01*
X87701000Y-79729338D01*
X87705825Y-79731180D01*
X87705826Y-79731181D01*
X87778612Y-79758975D01*
X87909692Y-79809030D01*
X87914760Y-79810061D01*
X87914763Y-79810062D01*
X88009862Y-79829410D01*
X88128597Y-79853567D01*
X88133772Y-79853757D01*
X88133774Y-79853757D01*
X88346673Y-79861564D01*
X88346677Y-79861564D01*
X88351837Y-79861753D01*
X88356957Y-79861097D01*
X88356959Y-79861097D01*
X88568288Y-79834025D01*
X88568289Y-79834025D01*
X88573416Y-79833368D01*
X88578366Y-79831883D01*
X88782429Y-79770661D01*
X88782434Y-79770659D01*
X88787384Y-79769174D01*
X88987994Y-79670896D01*
X89169860Y-79541173D01*
X89328096Y-79383489D01*
X89458453Y-79202077D01*
X89459776Y-79203028D01*
X89506645Y-79159857D01*
X89576580Y-79147625D01*
X89642026Y-79175144D01*
X89669875Y-79206994D01*
X89729987Y-79305088D01*
X89876250Y-79473938D01*
X90048126Y-79616632D01*
X90241000Y-79729338D01*
X90245825Y-79731180D01*
X90245826Y-79731181D01*
X90318612Y-79758975D01*
X90449692Y-79809030D01*
X90454760Y-79810061D01*
X90454763Y-79810062D01*
X90549862Y-79829410D01*
X90668597Y-79853567D01*
X90673772Y-79853757D01*
X90673774Y-79853757D01*
X90886673Y-79861564D01*
X90886677Y-79861564D01*
X90891837Y-79861753D01*
X90896957Y-79861097D01*
X90896959Y-79861097D01*
X91108288Y-79834025D01*
X91108289Y-79834025D01*
X91113416Y-79833368D01*
X91118366Y-79831883D01*
X91322429Y-79770661D01*
X91322434Y-79770659D01*
X91327384Y-79769174D01*
X91527994Y-79670896D01*
X91709860Y-79541173D01*
X91868096Y-79383489D01*
X91998453Y-79202077D01*
X91999640Y-79202930D01*
X92046960Y-79159362D01*
X92116897Y-79147145D01*
X92182338Y-79174678D01*
X92210166Y-79206511D01*
X92267694Y-79300388D01*
X92273777Y-79308699D01*
X92413213Y-79469667D01*
X92420580Y-79476883D01*
X92584434Y-79612916D01*
X92592881Y-79618831D01*
X92776756Y-79726279D01*
X92786042Y-79730729D01*
X92985001Y-79806703D01*
X92994899Y-79809579D01*
X93098250Y-79830606D01*
X93112299Y-79829410D01*
X93116000Y-79819065D01*
X93116000Y-79818517D01*
X93624000Y-79818517D01*
X93628064Y-79832359D01*
X93641478Y-79834393D01*
X93648184Y-79833534D01*
X93658262Y-79831392D01*
X93862255Y-79770191D01*
X93871842Y-79766433D01*
X94063095Y-79672739D01*
X94071945Y-79667464D01*
X94245328Y-79543792D01*
X94253200Y-79537139D01*
X94404052Y-79386812D01*
X94410730Y-79378965D01*
X94535003Y-79206020D01*
X94540313Y-79197183D01*
X94634670Y-79006267D01*
X94638469Y-78996672D01*
X94700377Y-78792910D01*
X94702555Y-78782837D01*
X94703986Y-78771962D01*
X94701775Y-78757778D01*
X94688617Y-78754000D01*
X93642115Y-78754000D01*
X93626876Y-78758475D01*
X93625671Y-78759865D01*
X93624000Y-78767548D01*
X93624000Y-79818517D01*
X93116000Y-79818517D01*
X93116000Y-78227885D01*
X93624000Y-78227885D01*
X93628475Y-78243124D01*
X93629865Y-78244329D01*
X93637548Y-78246000D01*
X94688344Y-78246000D01*
X94701875Y-78242027D01*
X94703180Y-78232947D01*
X94661214Y-78065875D01*
X94657894Y-78056124D01*
X94572972Y-77860814D01*
X94568105Y-77851739D01*
X94452426Y-77672926D01*
X94446136Y-77664757D01*
X94302806Y-77507240D01*
X94295273Y-77500215D01*
X94128139Y-77368222D01*
X94119552Y-77362517D01*
X93933117Y-77259599D01*
X93923705Y-77255369D01*
X93722959Y-77184280D01*
X93712988Y-77181646D01*
X93641837Y-77168972D01*
X93628540Y-77170432D01*
X93624000Y-77184989D01*
X93624000Y-78227885D01*
X93116000Y-78227885D01*
X93116000Y-77183102D01*
X93112082Y-77169758D01*
X93097806Y-77167771D01*
X93059324Y-77173660D01*
X93049288Y-77176051D01*
X92846868Y-77242212D01*
X92837359Y-77246209D01*
X92648463Y-77344542D01*
X92639738Y-77350036D01*
X92469433Y-77477905D01*
X92461726Y-77484748D01*
X92314590Y-77638717D01*
X92308109Y-77646722D01*
X92203498Y-77800074D01*
X92148587Y-77845076D01*
X92078062Y-77853247D01*
X92014315Y-77821993D01*
X91993618Y-77797509D01*
X91912822Y-77672617D01*
X91912820Y-77672614D01*
X91910014Y-77668277D01*
X91759670Y-77503051D01*
X91755619Y-77499852D01*
X91755615Y-77499848D01*
X91588414Y-77367800D01*
X91588410Y-77367798D01*
X91584359Y-77364598D01*
X91548028Y-77344542D01*
X91532136Y-77335769D01*
X91388789Y-77256638D01*
X91383920Y-77254914D01*
X91383916Y-77254912D01*
X91183087Y-77183795D01*
X91183083Y-77183794D01*
X91178212Y-77182069D01*
X91173119Y-77181162D01*
X91173116Y-77181161D01*
X90963373Y-77143800D01*
X90963367Y-77143799D01*
X90958284Y-77142894D01*
X90884452Y-77141992D01*
X90740081Y-77140228D01*
X90740079Y-77140228D01*
X90734911Y-77140165D01*
X90514091Y-77173955D01*
X90301756Y-77243357D01*
X90103607Y-77346507D01*
X90099474Y-77349610D01*
X90099471Y-77349612D01*
X89929100Y-77477530D01*
X89924965Y-77480635D01*
X89921393Y-77484373D01*
X89813729Y-77597037D01*
X89770629Y-77642138D01*
X89663201Y-77799621D01*
X89608293Y-77844621D01*
X89537768Y-77852792D01*
X89474021Y-77821538D01*
X89453324Y-77797054D01*
X89372822Y-77672617D01*
X89372820Y-77672614D01*
X89370014Y-77668277D01*
X89219670Y-77503051D01*
X89215619Y-77499852D01*
X89215615Y-77499848D01*
X89048414Y-77367800D01*
X89048410Y-77367798D01*
X89044359Y-77364598D01*
X89008028Y-77344542D01*
X88992136Y-77335769D01*
X88848789Y-77256638D01*
X88843920Y-77254914D01*
X88843916Y-77254912D01*
X88643087Y-77183795D01*
X88643083Y-77183794D01*
X88638212Y-77182069D01*
X88633119Y-77181162D01*
X88633116Y-77181161D01*
X88423373Y-77143800D01*
X88423367Y-77143799D01*
X88418284Y-77142894D01*
X88344452Y-77141992D01*
X88200081Y-77140228D01*
X88200079Y-77140228D01*
X88194911Y-77140165D01*
X87974091Y-77173955D01*
X87761756Y-77243357D01*
X87563607Y-77346507D01*
X87559474Y-77349610D01*
X87559471Y-77349612D01*
X87389100Y-77477530D01*
X87384965Y-77480635D01*
X87307286Y-77561922D01*
X87304283Y-77565064D01*
X87242759Y-77600494D01*
X87171846Y-77597037D01*
X87114060Y-77555791D01*
X87095207Y-77522243D01*
X87053767Y-77411703D01*
X87050615Y-77403295D01*
X86963261Y-77286739D01*
X86846705Y-77199385D01*
X86710316Y-77148255D01*
X86648134Y-77141500D01*
X84851866Y-77141500D01*
X84789684Y-77148255D01*
X84653295Y-77199385D01*
X84536739Y-77286739D01*
X84449385Y-77403295D01*
X84398255Y-77539684D01*
X84391500Y-77601866D01*
X84391500Y-79398134D01*
X82313400Y-79398134D01*
X82328096Y-79383489D01*
X82458453Y-79202077D01*
X82471995Y-79174678D01*
X82555136Y-79006453D01*
X82555137Y-79006451D01*
X82557430Y-79001811D01*
X82607922Y-78835622D01*
X82620865Y-78793023D01*
X82620865Y-78793021D01*
X82622370Y-78788069D01*
X82651529Y-78566590D01*
X82653156Y-78500000D01*
X82634852Y-78277361D01*
X82580431Y-78060702D01*
X82491354Y-77855840D01*
X82370014Y-77668277D01*
X82219670Y-77503051D01*
X82215619Y-77499852D01*
X82215615Y-77499848D01*
X82048414Y-77367800D01*
X82048410Y-77367798D01*
X82044359Y-77364598D01*
X82008028Y-77344542D01*
X81992136Y-77335769D01*
X81848789Y-77256638D01*
X81843920Y-77254914D01*
X81843916Y-77254912D01*
X81643087Y-77183795D01*
X81643083Y-77183794D01*
X81638212Y-77182069D01*
X81633119Y-77181162D01*
X81633116Y-77181161D01*
X81423373Y-77143800D01*
X81423367Y-77143799D01*
X81418284Y-77142894D01*
X81344452Y-77141992D01*
X81200081Y-77140228D01*
X81200079Y-77140228D01*
X81194911Y-77140165D01*
X80974091Y-77173955D01*
X80761756Y-77243357D01*
X80563607Y-77346507D01*
X80559474Y-77349610D01*
X80559471Y-77349612D01*
X80389100Y-77477530D01*
X80384965Y-77480635D01*
X80307286Y-77561922D01*
X80304283Y-77565064D01*
X80242759Y-77600494D01*
X80171846Y-77597037D01*
X80114060Y-77555791D01*
X80095207Y-77522243D01*
X80053767Y-77411703D01*
X80050615Y-77403295D01*
X79963261Y-77286739D01*
X79846705Y-77199385D01*
X79710316Y-77148255D01*
X79648134Y-77141500D01*
X77851866Y-77141500D01*
X77789684Y-77148255D01*
X77653295Y-77199385D01*
X77536739Y-77286739D01*
X77449385Y-77403295D01*
X77398255Y-77539684D01*
X77391500Y-77601866D01*
X77391500Y-79398134D01*
X72820303Y-79398134D01*
X73167645Y-79172113D01*
X73526121Y-78938847D01*
X73530419Y-78936174D01*
X74357005Y-78445210D01*
X74361446Y-78442695D01*
X74539783Y-78346410D01*
X75207339Y-77985992D01*
X75211902Y-77983648D01*
X75594119Y-77797054D01*
X76075763Y-77561922D01*
X76080439Y-77559756D01*
X76909462Y-77196233D01*
X76960850Y-77173700D01*
X76965609Y-77171729D01*
X76972668Y-77168972D01*
X77861011Y-76822026D01*
X77865833Y-76820255D01*
X78774839Y-76507446D01*
X78779746Y-76505869D01*
X79635600Y-76249986D01*
X79700766Y-76230503D01*
X79705716Y-76229132D01*
X80637231Y-75991662D01*
X80642248Y-75990492D01*
X81582716Y-75791312D01*
X81587743Y-75790354D01*
X82535533Y-75629808D01*
X82540634Y-75629051D01*
X83494200Y-75507401D01*
X83499325Y-75506853D01*
X84037078Y-75460502D01*
X84457109Y-75424299D01*
X84462221Y-75423964D01*
X85422557Y-75380650D01*
X85427681Y-75380523D01*
X85919204Y-75378477D01*
X86388988Y-75376521D01*
X86394142Y-75376605D01*
G37*
%TD.AperFunction*%
%TA.AperFunction,Conductor*%
G36*
X95018621Y-97933502D02*
G01*
X95065114Y-97987158D01*
X95076500Y-98039500D01*
X95076501Y-98183502D01*
X95076501Y-98314988D01*
X95079371Y-98351466D01*
X95081168Y-98357650D01*
X95116719Y-98480017D01*
X95124731Y-98507596D01*
X95128767Y-98514421D01*
X95128769Y-98514425D01*
X95141453Y-98535873D01*
X95159000Y-98600012D01*
X95159000Y-98733038D01*
X95153997Y-98768191D01*
X95139371Y-98818534D01*
X95138867Y-98824941D01*
X95138866Y-98824945D01*
X95136807Y-98851111D01*
X95136500Y-98855011D01*
X95136501Y-99101466D01*
X95136501Y-99233000D01*
X95116499Y-99301120D01*
X95062844Y-99347613D01*
X95010501Y-99359000D01*
X94767000Y-99359000D01*
X94698879Y-99338998D01*
X94652386Y-99285342D01*
X94641000Y-99233000D01*
X94641000Y-98282970D01*
X94643879Y-98256187D01*
X94651000Y-98223452D01*
X94651000Y-98039500D01*
X94671002Y-97971379D01*
X94724658Y-97924886D01*
X94777000Y-97913500D01*
X94950500Y-97913500D01*
X95018621Y-97933502D01*
G37*
%TD.AperFunction*%
%TA.AperFunction,Conductor*%
G36*
X92322896Y-94089031D02*
G01*
X92323305Y-94088085D01*
X92329953Y-94090962D01*
X92330264Y-94091047D01*
X92330576Y-94091231D01*
X92337404Y-94095269D01*
X92345015Y-94097480D01*
X92345017Y-94097481D01*
X92435750Y-94123841D01*
X92493534Y-94140629D01*
X92499941Y-94141133D01*
X92499945Y-94141134D01*
X92527556Y-94143307D01*
X92527562Y-94143307D01*
X92530011Y-94143500D01*
X92779848Y-94143500D01*
X93029988Y-94143499D01*
X93066466Y-94140629D01*
X93164699Y-94112090D01*
X93213971Y-94097775D01*
X93284968Y-94097978D01*
X93344584Y-94136532D01*
X93373892Y-94201197D01*
X93370121Y-94253924D01*
X93326531Y-94403965D01*
X93324438Y-94411169D01*
X93321500Y-94448498D01*
X93321500Y-94881502D01*
X93324438Y-94918831D01*
X93370855Y-95078601D01*
X93396873Y-95122594D01*
X93414331Y-95191408D01*
X93391814Y-95258740D01*
X93354441Y-95294048D01*
X93249088Y-95358862D01*
X93244053Y-95363793D01*
X93244050Y-95363795D01*
X93126122Y-95479279D01*
X93119493Y-95485771D01*
X93021235Y-95638238D01*
X93018825Y-95644858D01*
X93018824Y-95644861D01*
X92980110Y-95751226D01*
X92950804Y-95797226D01*
X92799480Y-95948550D01*
X92793215Y-95954404D01*
X92749615Y-95992439D01*
X92728484Y-96022506D01*
X92712872Y-96044719D01*
X92708953Y-96049996D01*
X92678467Y-96088877D01*
X92620694Y-96130140D01*
X92549783Y-96133620D01*
X92510756Y-96114435D01*
X92509815Y-96115918D01*
X92356666Y-96018727D01*
X92305754Y-96000598D01*
X92192425Y-95960243D01*
X92192420Y-95960242D01*
X92185790Y-95957881D01*
X92178804Y-95957048D01*
X92178800Y-95957047D01*
X92113324Y-95949240D01*
X92088231Y-95946248D01*
X92022959Y-95918321D01*
X91983146Y-95859537D01*
X91982155Y-95785979D01*
X91988268Y-95764941D01*
X91990570Y-95752333D01*
X91992807Y-95723916D01*
X91993000Y-95718986D01*
X91993000Y-95102115D01*
X91988525Y-95086876D01*
X91987135Y-95085671D01*
X91979452Y-95084000D01*
X91457115Y-95084000D01*
X91441876Y-95088475D01*
X91440671Y-95089865D01*
X91439000Y-95097548D01*
X91439000Y-96114739D01*
X91418998Y-96182860D01*
X91401158Y-96204762D01*
X91384625Y-96220953D01*
X91369493Y-96235771D01*
X91271235Y-96388238D01*
X91268826Y-96394858D01*
X91268824Y-96394861D01*
X91224273Y-96517264D01*
X91209197Y-96558685D01*
X91186463Y-96738640D01*
X91204163Y-96919160D01*
X91261418Y-97091273D01*
X91265065Y-97097296D01*
X91265066Y-97097297D01*
X91273276Y-97110853D01*
X91291500Y-97176124D01*
X91291500Y-98136840D01*
X91271498Y-98204961D01*
X91254595Y-98225935D01*
X90751941Y-98728589D01*
X90689629Y-98762615D01*
X90618814Y-98757550D01*
X90561978Y-98715003D01*
X90537167Y-98648483D01*
X90554392Y-98575355D01*
X90615859Y-98471420D01*
X90615859Y-98471419D01*
X90619894Y-98464597D01*
X90622862Y-98454383D01*
X90650965Y-98357650D01*
X90665606Y-98307254D01*
X90666897Y-98290861D01*
X90668307Y-98272940D01*
X90668307Y-98272932D01*
X90668500Y-98270484D01*
X90668500Y-97859516D01*
X90665606Y-97822746D01*
X90619894Y-97665403D01*
X90609985Y-97648647D01*
X90592526Y-97579830D01*
X90609984Y-97520372D01*
X90615395Y-97511222D01*
X90621643Y-97496784D01*
X90656619Y-97376395D01*
X90656579Y-97362295D01*
X90649309Y-97359000D01*
X90371379Y-97359000D01*
X90307240Y-97341454D01*
X90286420Y-97329141D01*
X90286419Y-97329141D01*
X90279597Y-97325106D01*
X90271986Y-97322895D01*
X90271984Y-97322894D01*
X90221005Y-97308084D01*
X90122254Y-97279394D01*
X90115849Y-97278890D01*
X90115844Y-97278889D01*
X90087940Y-97276693D01*
X90087932Y-97276693D01*
X90085484Y-97276500D01*
X89722000Y-97276500D01*
X89653879Y-97256498D01*
X89607386Y-97202842D01*
X89596000Y-97150500D01*
X89596000Y-96977000D01*
X89616002Y-96908879D01*
X89669658Y-96862386D01*
X89722000Y-96851000D01*
X90643558Y-96851000D01*
X90657089Y-96847027D01*
X90658224Y-96839129D01*
X90621643Y-96713216D01*
X90615396Y-96698780D01*
X90540124Y-96571501D01*
X90530484Y-96559074D01*
X90425926Y-96454516D01*
X90413497Y-96444874D01*
X90401636Y-96437860D01*
X90353183Y-96385968D01*
X90340477Y-96316118D01*
X90367551Y-96250486D01*
X90401633Y-96220954D01*
X90471807Y-96179453D01*
X90474747Y-96176513D01*
X90539271Y-96151179D01*
X90608894Y-96165080D01*
X90627640Y-96177129D01*
X90635323Y-96183089D01*
X90764779Y-96259648D01*
X90779210Y-96265893D01*
X90913605Y-96304939D01*
X90927706Y-96304899D01*
X90931000Y-96297630D01*
X90931000Y-94702000D01*
X90951002Y-94633879D01*
X91004658Y-94587386D01*
X91057000Y-94576000D01*
X91974884Y-94576000D01*
X91990123Y-94571525D01*
X91991328Y-94570135D01*
X91992999Y-94562452D01*
X91992999Y-94199500D01*
X92013001Y-94131379D01*
X92066657Y-94084886D01*
X92118999Y-94073500D01*
X92266125Y-94073500D01*
X92322896Y-94089031D01*
G37*
%TD.AperFunction*%
%TA.AperFunction,Conductor*%
G36*
X80578988Y-81746047D02*
G01*
X80591473Y-81753430D01*
X80602403Y-81759894D01*
X80610014Y-81762105D01*
X80610016Y-81762106D01*
X80660995Y-81776916D01*
X80759746Y-81805606D01*
X80766151Y-81806110D01*
X80766156Y-81806111D01*
X80794060Y-81808307D01*
X80794068Y-81808307D01*
X80796516Y-81808500D01*
X80879336Y-81808500D01*
X80947457Y-81828502D01*
X80968431Y-81845405D01*
X81249095Y-82126069D01*
X81283121Y-82188381D01*
X81286000Y-82215164D01*
X81286000Y-82748424D01*
X81290344Y-82763219D01*
X81300775Y-82765063D01*
X81310359Y-82763312D01*
X81453784Y-82721643D01*
X81468220Y-82715396D01*
X81595494Y-82640127D01*
X81602138Y-82634973D01*
X81668223Y-82609025D01*
X81737846Y-82622923D01*
X81768462Y-82645436D01*
X82333113Y-83210087D01*
X82367139Y-83272399D01*
X82362074Y-83343214D01*
X82319527Y-83400050D01*
X82253007Y-83424861D01*
X82183633Y-83409770D01*
X82165926Y-83398064D01*
X82128139Y-83368222D01*
X82119552Y-83362517D01*
X81933117Y-83259599D01*
X81923705Y-83255369D01*
X81722959Y-83184280D01*
X81712988Y-83181646D01*
X81641837Y-83168972D01*
X81628540Y-83170432D01*
X81624000Y-83184989D01*
X81624000Y-84227885D01*
X81628475Y-84243124D01*
X81629865Y-84244329D01*
X81637548Y-84246000D01*
X82688344Y-84246000D01*
X82701875Y-84242027D01*
X82703180Y-84232947D01*
X82661214Y-84065875D01*
X82657894Y-84056124D01*
X82572972Y-83860814D01*
X82568105Y-83851739D01*
X82468728Y-83698124D01*
X82448521Y-83630064D01*
X82468317Y-83561883D01*
X82521833Y-83515229D01*
X82592076Y-83504913D01*
X82656745Y-83534211D01*
X82663615Y-83540589D01*
X84655084Y-85532058D01*
X84689110Y-85594370D01*
X84691989Y-85621153D01*
X84691989Y-85880914D01*
X84671987Y-85949035D01*
X84618331Y-85995528D01*
X84548057Y-86005632D01*
X84481996Y-85974699D01*
X84477561Y-85969615D01*
X84425280Y-85932871D01*
X84419986Y-85928939D01*
X84375693Y-85894209D01*
X84369718Y-85889524D01*
X84362802Y-85886401D01*
X84360516Y-85885017D01*
X84345835Y-85876643D01*
X84343475Y-85875378D01*
X84337261Y-85871010D01*
X84330182Y-85868250D01*
X84330180Y-85868249D01*
X84277725Y-85847798D01*
X84271656Y-85845247D01*
X84213427Y-85818955D01*
X84205960Y-85817571D01*
X84203405Y-85816770D01*
X84187152Y-85812141D01*
X84184572Y-85811478D01*
X84177491Y-85808718D01*
X84169960Y-85807727D01*
X84169958Y-85807726D01*
X84139884Y-85803767D01*
X84114139Y-85800378D01*
X84107641Y-85799348D01*
X84044814Y-85787704D01*
X84037234Y-85788141D01*
X84037233Y-85788141D01*
X83982608Y-85791291D01*
X83975354Y-85791500D01*
X82291677Y-85791500D01*
X82223556Y-85771498D01*
X82177063Y-85717842D01*
X82166959Y-85647568D01*
X82196453Y-85582988D01*
X82218509Y-85562921D01*
X82245328Y-85543792D01*
X82253200Y-85537139D01*
X82404052Y-85386812D01*
X82410730Y-85378965D01*
X82535003Y-85206020D01*
X82540313Y-85197183D01*
X82634670Y-85006267D01*
X82638469Y-84996672D01*
X82700377Y-84792910D01*
X82702555Y-84782837D01*
X82703986Y-84771962D01*
X82701775Y-84757778D01*
X82688617Y-84754000D01*
X81242000Y-84754000D01*
X81173879Y-84733998D01*
X81127386Y-84680342D01*
X81116000Y-84628000D01*
X81116000Y-83183102D01*
X81112082Y-83169758D01*
X81097806Y-83167771D01*
X81059324Y-83173660D01*
X81049288Y-83176051D01*
X80846868Y-83242212D01*
X80837359Y-83246209D01*
X80648463Y-83344542D01*
X80639738Y-83350036D01*
X80469433Y-83477905D01*
X80461726Y-83484748D01*
X80314590Y-83638717D01*
X80308109Y-83646722D01*
X80203498Y-83800074D01*
X80148587Y-83845076D01*
X80078062Y-83853247D01*
X80014315Y-83821993D01*
X79993618Y-83797509D01*
X79912822Y-83672617D01*
X79912820Y-83672614D01*
X79910014Y-83668277D01*
X79759670Y-83503051D01*
X79755619Y-83499852D01*
X79755615Y-83499848D01*
X79586408Y-83366216D01*
X79545345Y-83308298D01*
X79538500Y-83267334D01*
X79538500Y-82346927D01*
X79538792Y-82338358D01*
X79542210Y-82288225D01*
X79542210Y-82288221D01*
X79542726Y-82280648D01*
X79536656Y-82245871D01*
X80223776Y-82245871D01*
X80260357Y-82371784D01*
X80266604Y-82386220D01*
X80341876Y-82513499D01*
X80351516Y-82525926D01*
X80456074Y-82630484D01*
X80468501Y-82640124D01*
X80595780Y-82715396D01*
X80610216Y-82721643D01*
X80753641Y-82763312D01*
X80761609Y-82764768D01*
X80775031Y-82761948D01*
X80778000Y-82750487D01*
X80778000Y-82252115D01*
X80773525Y-82236876D01*
X80772135Y-82235671D01*
X80764452Y-82234000D01*
X80238442Y-82234000D01*
X80224911Y-82237973D01*
X80223776Y-82245871D01*
X79536656Y-82245871D01*
X79531736Y-82217681D01*
X79530775Y-82211165D01*
X79530633Y-82209988D01*
X79523102Y-82147758D01*
X79520419Y-82140657D01*
X79519778Y-82138048D01*
X79515313Y-82121728D01*
X79514548Y-82119195D01*
X79513243Y-82111717D01*
X79487552Y-82053190D01*
X79485067Y-82047102D01*
X79465172Y-81994449D01*
X79465171Y-81994447D01*
X79462487Y-81987344D01*
X79458186Y-81981085D01*
X79456949Y-81978720D01*
X79448727Y-81963948D01*
X79447372Y-81961656D01*
X79444316Y-81954695D01*
X79439693Y-81948671D01*
X79439690Y-81948665D01*
X79426291Y-81931203D01*
X79400691Y-81864983D01*
X79414956Y-81795434D01*
X79464558Y-81744638D01*
X79526254Y-81728500D01*
X80514849Y-81728500D01*
X80578988Y-81746047D01*
G37*
%TD.AperFunction*%
%TD*%
M02*
