%TF.GenerationSoftware,KiCad,Pcbnew,(6.0.0)*%
%TF.CreationDate,2022-05-03T19:57:31-07:00*%
%TF.ProjectId,well-depth-battery,77656c6c-2d64-4657-9074-682d62617474,1*%
%TF.SameCoordinates,Original*%
%TF.FileFunction,Copper,L1,Top*%
%TF.FilePolarity,Positive*%
%FSLAX46Y46*%
G04 Gerber Fmt 4.6, Leading zero omitted, Abs format (unit mm)*
G04 Created by KiCad (PCBNEW (6.0.0)) date 2022-05-03 19:57:31*
%MOMM*%
%LPD*%
G01*
G04 APERTURE LIST*
G04 Aperture macros list*
%AMRoundRect*
0 Rectangle with rounded corners*
0 $1 Rounding radius*
0 $2 $3 $4 $5 $6 $7 $8 $9 X,Y pos of 4 corners*
0 Add a 4 corners polygon primitive as box body*
4,1,4,$2,$3,$4,$5,$6,$7,$8,$9,$2,$3,0*
0 Add four circle primitives for the rounded corners*
1,1,$1+$1,$2,$3*
1,1,$1+$1,$4,$5*
1,1,$1+$1,$6,$7*
1,1,$1+$1,$8,$9*
0 Add four rect primitives between the rounded corners*
20,1,$1+$1,$2,$3,$4,$5,0*
20,1,$1+$1,$4,$5,$6,$7,0*
20,1,$1+$1,$6,$7,$8,$9,0*
20,1,$1+$1,$8,$9,$2,$3,0*%
G04 Aperture macros list end*
%TA.AperFunction,SMDPad,CuDef*%
%ADD10RoundRect,0.140000X0.140000X0.170000X-0.140000X0.170000X-0.140000X-0.170000X0.140000X-0.170000X0*%
%TD*%
%TA.AperFunction,SMDPad,CuDef*%
%ADD11RoundRect,0.150000X0.587500X0.150000X-0.587500X0.150000X-0.587500X-0.150000X0.587500X-0.150000X0*%
%TD*%
%TA.AperFunction,SMDPad,CuDef*%
%ADD12RoundRect,0.140000X0.170000X-0.140000X0.170000X0.140000X-0.170000X0.140000X-0.170000X-0.140000X0*%
%TD*%
%TA.AperFunction,SMDPad,CuDef*%
%ADD13RoundRect,0.135000X0.185000X-0.135000X0.185000X0.135000X-0.185000X0.135000X-0.185000X-0.135000X0*%
%TD*%
%TA.AperFunction,ComponentPad*%
%ADD14R,1.700000X1.700000*%
%TD*%
%TA.AperFunction,ComponentPad*%
%ADD15O,1.700000X1.700000*%
%TD*%
%TA.AperFunction,SMDPad,CuDef*%
%ADD16RoundRect,0.140000X-0.170000X0.140000X-0.170000X-0.140000X0.170000X-0.140000X0.170000X0.140000X0*%
%TD*%
%TA.AperFunction,SMDPad,CuDef*%
%ADD17R,1.200000X0.600000*%
%TD*%
%TA.AperFunction,SMDPad,CuDef*%
%ADD18RoundRect,0.250000X0.475000X-0.250000X0.475000X0.250000X-0.475000X0.250000X-0.475000X-0.250000X0*%
%TD*%
%TA.AperFunction,ComponentPad*%
%ADD19R,1.300000X1.300000*%
%TD*%
%TA.AperFunction,ComponentPad*%
%ADD20C,1.300000*%
%TD*%
%TA.AperFunction,ComponentPad*%
%ADD21O,1.900000X2.900000*%
%TD*%
%TA.AperFunction,ComponentPad*%
%ADD22O,2.900000X1.900000*%
%TD*%
%TA.AperFunction,SMDPad,CuDef*%
%ADD23RoundRect,0.135000X0.135000X0.185000X-0.135000X0.185000X-0.135000X-0.185000X0.135000X-0.185000X0*%
%TD*%
%TA.AperFunction,SMDPad,CuDef*%
%ADD24RoundRect,0.140000X-0.140000X-0.170000X0.140000X-0.170000X0.140000X0.170000X-0.140000X0.170000X0*%
%TD*%
%TA.AperFunction,SMDPad,CuDef*%
%ADD25R,0.600000X2.200000*%
%TD*%
%TA.AperFunction,SMDPad,CuDef*%
%ADD26R,3.450000X2.150000*%
%TD*%
%TA.AperFunction,SMDPad,CuDef*%
%ADD27R,0.450000X0.600000*%
%TD*%
%TA.AperFunction,SMDPad,CuDef*%
%ADD28RoundRect,0.150000X-0.675000X-0.150000X0.675000X-0.150000X0.675000X0.150000X-0.675000X0.150000X0*%
%TD*%
%TA.AperFunction,SMDPad,CuDef*%
%ADD29RoundRect,0.135000X-0.185000X0.135000X-0.185000X-0.135000X0.185000X-0.135000X0.185000X0.135000X0*%
%TD*%
%TA.AperFunction,SMDPad,CuDef*%
%ADD30RoundRect,0.150000X0.150000X-0.587500X0.150000X0.587500X-0.150000X0.587500X-0.150000X-0.587500X0*%
%TD*%
%TA.AperFunction,SMDPad,CuDef*%
%ADD31RoundRect,0.243750X0.243750X0.456250X-0.243750X0.456250X-0.243750X-0.456250X0.243750X-0.456250X0*%
%TD*%
%TA.AperFunction,SMDPad,CuDef*%
%ADD32RoundRect,0.135000X-0.135000X-0.185000X0.135000X-0.185000X0.135000X0.185000X-0.135000X0.185000X0*%
%TD*%
%TA.AperFunction,SMDPad,CuDef*%
%ADD33RoundRect,0.062500X-0.337500X-0.062500X0.337500X-0.062500X0.337500X0.062500X-0.337500X0.062500X0*%
%TD*%
%TA.AperFunction,SMDPad,CuDef*%
%ADD34RoundRect,0.062500X-0.062500X-0.337500X0.062500X-0.337500X0.062500X0.337500X-0.062500X0.337500X0*%
%TD*%
%TA.AperFunction,SMDPad,CuDef*%
%ADD35R,3.600000X3.600000*%
%TD*%
%TA.AperFunction,ComponentPad*%
%ADD36R,1.500000X1.500000*%
%TD*%
%TA.AperFunction,SMDPad,CuDef*%
%ADD37R,1.500000X2.000000*%
%TD*%
%TA.AperFunction,SMDPad,CuDef*%
%ADD38R,3.800000X2.000000*%
%TD*%
%TA.AperFunction,ViaPad*%
%ADD39C,0.600000*%
%TD*%
%TA.AperFunction,Conductor*%
%ADD40C,0.400000*%
%TD*%
%TA.AperFunction,Conductor*%
%ADD41C,0.200000*%
%TD*%
G04 APERTURE END LIST*
D10*
%TO.P,C15,1*%
%TO.N,GND*%
X88510000Y-99992500D03*
%TO.P,C15,2*%
%TO.N,+3V3*%
X87550000Y-99992500D03*
%TD*%
D11*
%TO.P,Q2,1,G*%
%TO.N,Net-(Q2-Pad1)*%
X103467500Y-98305000D03*
%TO.P,Q2,2,S*%
%TO.N,+9V*%
X103467500Y-96405000D03*
%TO.P,Q2,3,D*%
%TO.N,VDD*%
X101592500Y-97355000D03*
%TD*%
D10*
%TO.P,C19,1*%
%TO.N,GND*%
X97730000Y-86750000D03*
%TO.P,C19,2*%
%TO.N,+3V3*%
X96770000Y-86750000D03*
%TD*%
D12*
%TO.P,C3,1*%
%TO.N,Net-(C3-Pad1)*%
X94030000Y-108305000D03*
%TO.P,C3,2*%
%TO.N,Net-(C3-Pad2)*%
X94030000Y-107345000D03*
%TD*%
D13*
%TO.P,R1,1*%
%TO.N,Net-(Q2-Pad1)*%
X105030000Y-97865000D03*
%TO.P,R1,2*%
%TO.N,+9V*%
X105030000Y-96845000D03*
%TD*%
D12*
%TO.P,C7,1*%
%TO.N,GND*%
X104280000Y-106625000D03*
%TO.P,C7,2*%
%TO.N,Net-(C5-Pad2)*%
X104280000Y-105665000D03*
%TD*%
D14*
%TO.P,J4,1,Pin_1*%
%TO.N,/TXD*%
X86225000Y-78000000D03*
D15*
%TO.P,J4,2,Pin_2*%
%TO.N,/RXD*%
X88765000Y-78000000D03*
%TD*%
D13*
%TO.P,FB1,1*%
%TO.N,Net-(C18-Pad2)*%
X94250000Y-95260000D03*
%TO.P,FB1,2*%
%TO.N,+3V3*%
X94250000Y-94240000D03*
%TD*%
D16*
%TO.P,C9,1*%
%TO.N,GND*%
X104655000Y-99770000D03*
%TO.P,C9,2*%
%TO.N,VDD*%
X104655000Y-100730000D03*
%TD*%
D10*
%TO.P,C12,1*%
%TO.N,Net-(C12-Pad1)*%
X93980000Y-92250000D03*
%TO.P,C12,2*%
%TO.N,GND*%
X93020000Y-92250000D03*
%TD*%
%TO.P,C6,1*%
%TO.N,GND*%
X105260000Y-107625000D03*
%TO.P,C6,2*%
%TO.N,VDD*%
X104300000Y-107625000D03*
%TD*%
D13*
%TO.P,R5,1*%
%TO.N,Net-(J2-Pad3)*%
X78532000Y-82020000D03*
%TO.P,R5,2*%
%TO.N,Net-(C2-Pad2)*%
X78532000Y-81000000D03*
%TD*%
%TO.P,R8,1*%
%TO.N,Net-(C4-Pad1)*%
X104530000Y-110125000D03*
%TO.P,R8,2*%
%TO.N,Net-(C4-Pad2)*%
X104530000Y-109105000D03*
%TD*%
D17*
%TO.P,Y1,1,1*%
%TO.N,Net-(C12-Pad1)*%
X93500000Y-91100000D03*
%TO.P,Y1,2,2*%
%TO.N,Net-(C11-Pad1)*%
X93500000Y-89900000D03*
%TD*%
D13*
%TO.P,R21,1*%
%TO.N,GND*%
X106280000Y-106615000D03*
%TO.P,R21,2*%
%TO.N,Net-(C5-Pad2)*%
X106280000Y-105595000D03*
%TD*%
D18*
%TO.P,C13,1*%
%TO.N,GND*%
X91500000Y-98700000D03*
%TO.P,C13,2*%
%TO.N,VDD*%
X91500000Y-96800000D03*
%TD*%
%TO.P,C16,1*%
%TO.N,GND*%
X89250000Y-98700000D03*
%TO.P,C16,2*%
%TO.N,Net-(C16-Pad2)*%
X89250000Y-96800000D03*
%TD*%
D19*
%TO.P,J5,1,VBUS*%
%TO.N,Net-(C16-Pad2)*%
X82500000Y-118000000D03*
D20*
%TO.P,J5,2,D-*%
%TO.N,/USB_D-*%
X85000000Y-118000000D03*
%TO.P,J5,3,D+*%
%TO.N,/USB_D+*%
X87000000Y-118000000D03*
%TO.P,J5,4,GND*%
%TO.N,GND*%
X89500000Y-118000000D03*
D21*
%TO.P,J5,5,Shield*%
X92570000Y-117400000D03*
X79430000Y-117400000D03*
D22*
X86000000Y-113220000D03*
%TD*%
D23*
%TO.P,R2,1*%
%TO.N,GND*%
X107672000Y-104000000D03*
%TO.P,R2,2*%
%TO.N,/A_ON*%
X106652000Y-104000000D03*
%TD*%
D14*
%TO.P,J2,1,Pin_1*%
%TO.N,VDD*%
X73750000Y-84500000D03*
D15*
%TO.P,J2,2,Pin_2*%
%TO.N,Net-(J2-Pad2)*%
X76290000Y-84500000D03*
%TO.P,J2,3,Pin_3*%
%TO.N,Net-(J2-Pad3)*%
X78830000Y-84500000D03*
%TO.P,J2,4,Pin_4*%
%TO.N,GND*%
X81370000Y-84500000D03*
%TD*%
D24*
%TO.P,C14,1*%
%TO.N,GND*%
X89530000Y-99992500D03*
%TO.P,C14,2*%
%TO.N,+9V*%
X90490000Y-99992500D03*
%TD*%
D12*
%TO.P,C8,1*%
%TO.N,Net-(C8-Pad1)*%
X96100000Y-101980000D03*
%TO.P,C8,2*%
%TO.N,Net-(C8-Pad2)*%
X96100000Y-101020000D03*
%TD*%
D24*
%TO.P,C11,1*%
%TO.N,Net-(C11-Pad1)*%
X93270000Y-88750000D03*
%TO.P,C11,2*%
%TO.N,GND*%
X94230000Y-88750000D03*
%TD*%
D25*
%TO.P,U6,1,~{SHDN}*%
%TO.N,+9V*%
X91050000Y-101855000D03*
%TO.P,U6,2,VIN*%
X89780000Y-101855000D03*
%TO.P,U6,3,GND*%
%TO.N,GND*%
X88510000Y-101855000D03*
%TO.P,U6,4,VOUT*%
%TO.N,+3V3*%
X87240000Y-101855000D03*
%TO.P,U6,5,NC*%
%TO.N,unconnected-(U6-Pad5)*%
X85970000Y-101855000D03*
D26*
%TO.P,U6,6,GND*%
%TO.N,GND*%
X88510000Y-108155000D03*
%TD*%
D27*
%TO.P,D3,1,K*%
%TO.N,/VOUT*%
X103250000Y-91700000D03*
%TO.P,D3,2,A*%
%TO.N,GND*%
X103250000Y-93800000D03*
%TD*%
D28*
%TO.P,U2,1*%
%TO.N,Net-(C8-Pad2)*%
X97780000Y-100200000D03*
%TO.P,U2,2,-*%
%TO.N,Net-(C8-Pad1)*%
X97780000Y-101470000D03*
%TO.P,U2,3,+*%
%TO.N,Net-(R12-Pad2)*%
X97780000Y-102740000D03*
%TO.P,U2,4,V-*%
%TO.N,GND*%
X97780000Y-104010000D03*
%TO.P,U2,5,+*%
%TO.N,Net-(C5-Pad2)*%
X103030000Y-104010000D03*
%TO.P,U2,6,-*%
%TO.N,Net-(R13-Pad2)*%
X103030000Y-102740000D03*
%TO.P,U2,7*%
X103030000Y-101470000D03*
%TO.P,U2,8,V+*%
%TO.N,VDD*%
X103030000Y-100200000D03*
%TD*%
D12*
%TO.P,C4,1*%
%TO.N,Net-(C4-Pad1)*%
X105530000Y-110095000D03*
%TO.P,C4,2*%
%TO.N,Net-(C4-Pad2)*%
X105530000Y-109135000D03*
%TD*%
D29*
%TO.P,R19,1*%
%TO.N,/VOUT*%
X93750000Y-96240000D03*
%TO.P,R19,2*%
%TO.N,Net-(C10-Pad2)*%
X93750000Y-97260000D03*
%TD*%
D30*
%TO.P,Q1,1,G*%
%TO.N,/A_ON*%
X105960000Y-102325000D03*
%TO.P,Q1,2,S*%
%TO.N,GND*%
X107860000Y-102325000D03*
%TO.P,Q1,3,D*%
%TO.N,Net-(Q1-Pad3)*%
X106910000Y-100450000D03*
%TD*%
D23*
%TO.P,R20,1*%
%TO.N,Net-(C4-Pad1)*%
X105540000Y-111125000D03*
%TO.P,R20,2*%
%TO.N,Net-(C3-Pad1)*%
X104520000Y-111125000D03*
%TD*%
D13*
%TO.P,R3,1*%
%TO.N,Net-(Q1-Pad3)*%
X106030000Y-98865000D03*
%TO.P,R3,2*%
%TO.N,Net-(Q2-Pad1)*%
X106030000Y-97845000D03*
%TD*%
D31*
%TO.P,D2,1,K*%
%TO.N,Net-(D2-Pad1)*%
X107437500Y-95250000D03*
%TO.P,D2,2,A*%
%TO.N,Net-(D2-Pad2)*%
X105562500Y-95250000D03*
%TD*%
D12*
%TO.P,C2,1*%
%TO.N,GND*%
X81032000Y-81980000D03*
%TO.P,C2,2*%
%TO.N,Net-(C2-Pad2)*%
X81032000Y-81020000D03*
%TD*%
D32*
%TO.P,R13,1*%
%TO.N,Net-(R12-Pad2)*%
X102270000Y-105625000D03*
%TO.P,R13,2*%
%TO.N,Net-(R13-Pad2)*%
X103290000Y-105625000D03*
%TD*%
D12*
%TO.P,C1,1*%
%TO.N,GND*%
X73532000Y-81990000D03*
%TO.P,C1,2*%
%TO.N,Net-(C1-Pad2)*%
X73532000Y-81030000D03*
%TD*%
D33*
%TO.P,U5,1,PA00*%
%TO.N,Net-(C11-Pad1)*%
X95550000Y-89750000D03*
%TO.P,U5,2,PA01*%
%TO.N,Net-(C12-Pad1)*%
X95550000Y-90250000D03*
%TO.P,U5,3,PA02*%
%TO.N,/VOUT*%
X95550000Y-90750000D03*
%TO.P,U5,4,PA03*%
%TO.N,unconnected-(U5-Pad4)*%
X95550000Y-91250000D03*
%TO.P,U5,5,PA04*%
%TO.N,unconnected-(U5-Pad5)*%
X95550000Y-91750000D03*
%TO.P,U5,6,PA05*%
%TO.N,unconnected-(U5-Pad6)*%
X95550000Y-92250000D03*
%TO.P,U5,7,PA06*%
%TO.N,unconnected-(U5-Pad7)*%
X95550000Y-92750000D03*
%TO.P,U5,8,PA07*%
%TO.N,unconnected-(U5-Pad8)*%
X95550000Y-93250000D03*
D34*
%TO.P,U5,9,VDDANA*%
%TO.N,Net-(C18-Pad2)*%
X96250000Y-93950000D03*
%TO.P,U5,10,GND*%
%TO.N,GND*%
X96750000Y-93950000D03*
%TO.P,U5,11,PA08*%
%TO.N,/SD_POW_~{EN}*%
X97250000Y-93950000D03*
%TO.P,U5,12,PA09*%
%TO.N,/A_ON*%
X97750000Y-93950000D03*
%TO.P,U5,13,PA10*%
%TO.N,/TXD*%
X98250000Y-93950000D03*
%TO.P,U5,14,PA11*%
%TO.N,/RXD*%
X98750000Y-93950000D03*
%TO.P,U5,15,PA14*%
%TO.N,unconnected-(U5-Pad15)*%
X99250000Y-93950000D03*
%TO.P,U5,16,PA15*%
%TO.N,Net-(D2-Pad2)*%
X99750000Y-93950000D03*
D33*
%TO.P,U5,17,PA16*%
%TO.N,/SDO*%
X100450000Y-93250000D03*
%TO.P,U5,18,PA17*%
%TO.N,/SCK*%
X100450000Y-92750000D03*
%TO.P,U5,19,PA18*%
%TO.N,/~{CS}*%
X100450000Y-92250000D03*
%TO.P,U5,20,PA19*%
%TO.N,/SDI*%
X100450000Y-91750000D03*
%TO.P,U5,21,PA22*%
%TO.N,unconnected-(U5-Pad21)*%
X100450000Y-91250000D03*
%TO.P,U5,22,PA23*%
%TO.N,unconnected-(U5-Pad22)*%
X100450000Y-90750000D03*
%TO.P,U5,23,PA24*%
%TO.N,/USB_D-*%
X100450000Y-90250000D03*
%TO.P,U5,24,PA25*%
%TO.N,/USB_D+*%
X100450000Y-89750000D03*
D34*
%TO.P,U5,25,PA27*%
%TO.N,unconnected-(U5-Pad25)*%
X99750000Y-89050000D03*
%TO.P,U5,26,~{RESET}*%
%TO.N,/~{SRST}*%
X99250000Y-89050000D03*
%TO.P,U5,27,PA28*%
%TO.N,unconnected-(U5-Pad27)*%
X98750000Y-89050000D03*
%TO.P,U5,28,GND*%
%TO.N,GND*%
X98250000Y-89050000D03*
%TO.P,U5,29,VDDCORE*%
%TO.N,Net-(C17-Pad2)*%
X97750000Y-89050000D03*
%TO.P,U5,30,VDDIN*%
%TO.N,+3V3*%
X97250000Y-89050000D03*
%TO.P,U5,31,PA30*%
%TO.N,/SWCLK*%
X96750000Y-89050000D03*
%TO.P,U5,32,PA31*%
%TO.N,/SWDIO*%
X96250000Y-89050000D03*
D35*
%TO.P,U5,33,EP*%
%TO.N,GND*%
X98000000Y-91500000D03*
%TD*%
D23*
%TO.P,R17,1*%
%TO.N,Net-(R17-Pad1)*%
X95915000Y-99250000D03*
%TO.P,R17,2*%
%TO.N,GND*%
X94895000Y-99250000D03*
%TD*%
D29*
%TO.P,R16,1*%
%TO.N,Net-(D2-Pad1)*%
X107500000Y-96990000D03*
%TO.P,R16,2*%
%TO.N,GND*%
X107500000Y-98010000D03*
%TD*%
D10*
%TO.P,C17,1*%
%TO.N,GND*%
X98730000Y-87750000D03*
%TO.P,C17,2*%
%TO.N,Net-(C17-Pad2)*%
X97770000Y-87750000D03*
%TD*%
D29*
%TO.P,R7,1*%
%TO.N,Net-(C3-Pad2)*%
X95530000Y-107315000D03*
%TO.P,R7,2*%
%TO.N,Net-(C3-Pad1)*%
X95530000Y-108335000D03*
%TD*%
D12*
%TO.P,C5,1*%
%TO.N,GND*%
X105280000Y-106625000D03*
%TO.P,C5,2*%
%TO.N,Net-(C5-Pad2)*%
X105280000Y-105665000D03*
%TD*%
D13*
%TO.P,R14,1*%
%TO.N,Net-(C8-Pad1)*%
X95100000Y-102010000D03*
%TO.P,R14,2*%
%TO.N,Net-(C8-Pad2)*%
X95100000Y-100990000D03*
%TD*%
%TO.P,R18,1*%
%TO.N,Net-(R17-Pad1)*%
X95905000Y-98260000D03*
%TO.P,R18,2*%
%TO.N,Net-(C10-Pad2)*%
X95905000Y-97240000D03*
%TD*%
D12*
%TO.P,C10,1*%
%TO.N,GND*%
X94905000Y-98230000D03*
%TO.P,C10,2*%
%TO.N,Net-(C10-Pad2)*%
X94905000Y-97270000D03*
%TD*%
D13*
%TO.P,R6,1*%
%TO.N,Net-(C5-Pad2)*%
X104680000Y-103865000D03*
%TO.P,R6,2*%
%TO.N,VDD*%
X104680000Y-102845000D03*
%TD*%
D32*
%TO.P,R12,1*%
%TO.N,Net-(C4-Pad2)*%
X100270000Y-105625000D03*
%TO.P,R12,2*%
%TO.N,Net-(R12-Pad2)*%
X101290000Y-105625000D03*
%TD*%
D13*
%TO.P,R11,1*%
%TO.N,Net-(C3-Pad2)*%
X96100000Y-104110000D03*
%TO.P,R11,2*%
%TO.N,Net-(C8-Pad1)*%
X96100000Y-103090000D03*
%TD*%
D36*
%TO.P,TP1,1,1*%
%TO.N,/VOUT*%
X104250000Y-86500000D03*
%TD*%
D10*
%TO.P,C18,1*%
%TO.N,GND*%
X96730000Y-95100000D03*
%TO.P,C18,2*%
%TO.N,Net-(C18-Pad2)*%
X95770000Y-95100000D03*
%TD*%
D13*
%TO.P,R4,1*%
%TO.N,Net-(J2-Pad2)*%
X76032000Y-82010000D03*
%TO.P,R4,2*%
%TO.N,Net-(C1-Pad2)*%
X76032000Y-80990000D03*
%TD*%
D37*
%TO.P,U4,1,GND*%
%TO.N,GND*%
X86200000Y-94150000D03*
%TO.P,U4,2,VO*%
%TO.N,Net-(C16-Pad2)*%
X88500000Y-94150000D03*
D38*
X88500000Y-87850000D03*
D37*
%TO.P,U4,3,VI*%
%TO.N,VDD*%
X90800000Y-94150000D03*
%TD*%
D14*
%TO.P,J1,1,Pin_1*%
%TO.N,+9V*%
X106250000Y-89855000D03*
D15*
%TO.P,J1,2,Pin_2*%
%TO.N,GND*%
X106250000Y-92395000D03*
%TD*%
D28*
%TO.P,U1,1*%
%TO.N,Net-(C3-Pad2)*%
X97375000Y-107345000D03*
%TO.P,U1,2,-*%
%TO.N,Net-(C3-Pad1)*%
X97375000Y-108615000D03*
%TO.P,U1,3,+*%
%TO.N,Net-(C1-Pad2)*%
X97375000Y-109885000D03*
%TO.P,U1,4,V-*%
%TO.N,GND*%
X97375000Y-111155000D03*
%TO.P,U1,5,+*%
%TO.N,Net-(C2-Pad2)*%
X102625000Y-111155000D03*
%TO.P,U1,6,-*%
%TO.N,Net-(C4-Pad1)*%
X102625000Y-109885000D03*
%TO.P,U1,7*%
%TO.N,Net-(C4-Pad2)*%
X102625000Y-108615000D03*
%TO.P,U1,8,V+*%
%TO.N,VDD*%
X102625000Y-107345000D03*
%TD*%
D11*
%TO.P,U3,1,K*%
%TO.N,Net-(C8-Pad2)*%
X99342500Y-98305000D03*
%TO.P,U3,2,REF*%
X99342500Y-96405000D03*
%TO.P,U3,3,A*%
%TO.N,Net-(R17-Pad1)*%
X97467500Y-97355000D03*
%TD*%
D39*
%TO.N,+9V*%
X105955000Y-96845000D03*
%TO.N,GND*%
X88555400Y-98550000D03*
%TO.N,/~{CS}*%
X102000000Y-92500000D03*
%TO.N,GND*%
X94000000Y-98500000D03*
X94000000Y-101250000D03*
%TO.N,/USB_D-*%
X102821879Y-89961617D03*
%TO.N,/USB_D+*%
X103000000Y-89075000D03*
%TO.N,+9V*%
X92500000Y-103250000D03*
%TO.N,+3V3*%
X93201891Y-95336349D03*
%TO.N,VDD*%
X87750000Y-90250000D03*
X94250000Y-104250000D03*
%TO.N,Net-(C16-Pad2)*%
X84750000Y-106250000D03*
%TO.N,GND*%
X71000000Y-85000000D03*
X94297261Y-87643281D03*
X92250000Y-91630498D03*
X99229372Y-107549011D03*
X93250000Y-105750000D03*
%TO.N,Net-(C1-Pad2)*%
X84750000Y-98750000D03*
X98550500Y-109930110D03*
%TO.N,Net-(C2-Pad2)*%
X92750000Y-81750000D03*
X100750000Y-109750000D03*
%TO.N,VDD*%
X101157688Y-106818411D03*
X104680000Y-101930000D03*
%TO.N,+3V3*%
X90000000Y-91000000D03*
X87000000Y-96750000D03*
%TO.N,/VOUT*%
X101484952Y-90923835D03*
X94500000Y-96500000D03*
%TO.N,/SWCLK*%
X90921329Y-91509410D03*
%TO.N,/SWDIO*%
X90347833Y-92108910D03*
%TO.N,/TXD*%
X98600000Y-95200000D03*
%TO.N,/RXD*%
X99555217Y-94872352D03*
%TO.N,/SDI*%
X101640950Y-91707970D03*
%TO.N,/SCK*%
X101853872Y-93500000D03*
%TO.N,/SDO*%
X103250000Y-95000000D03*
%TO.N,/~{SRST}*%
X100500000Y-88500000D03*
%TO.N,/SD_POW_~{EN}*%
X95500000Y-95900500D03*
%TD*%
D40*
%TO.N,Net-(C8-Pad1)*%
X96730000Y-101470000D02*
X97780000Y-101470000D01*
X96220000Y-101980000D02*
X96730000Y-101470000D01*
X96100000Y-101980000D02*
X96220000Y-101980000D01*
X96070000Y-102010000D02*
X96100000Y-101980000D01*
X95100000Y-102010000D02*
X96070000Y-102010000D01*
X96100000Y-103090000D02*
X96100000Y-101980000D01*
D41*
%TO.N,GND*%
X105360480Y-104260480D02*
X105850000Y-104750000D01*
D40*
X107750000Y-104750000D02*
X107750000Y-104078000D01*
D41*
X105850000Y-104750000D02*
X107750000Y-104750000D01*
X105360480Y-100554520D02*
X105360480Y-104260480D01*
X105400000Y-100515000D02*
X105360480Y-100554520D01*
X104655000Y-99770000D02*
X105400000Y-100515000D01*
D40*
X107750000Y-106250000D02*
X107750000Y-104750000D01*
D41*
%TO.N,/A_ON*%
X105960000Y-100060000D02*
X105960000Y-102325000D01*
X102700000Y-99000000D02*
X104900000Y-99000000D01*
D40*
%TO.N,Net-(Q1-Pad3)*%
X106030000Y-98865000D02*
X106910000Y-99745000D01*
X106910000Y-99745000D02*
X106910000Y-100450000D01*
D41*
%TO.N,/A_ON*%
X104900000Y-99000000D02*
X105960000Y-100060000D01*
X102320717Y-98620717D02*
X102700000Y-99000000D01*
X102320717Y-98000000D02*
X102320717Y-98620717D01*
D40*
%TO.N,VDD*%
X101821206Y-97583706D02*
X101592500Y-97355000D01*
X101821206Y-98991206D02*
X101821206Y-97583706D01*
X103030000Y-100200000D02*
X101821206Y-98991206D01*
D41*
%TO.N,/A_ON*%
X102800000Y-97110717D02*
X102800000Y-97520717D01*
X102800000Y-97520717D02*
X102320717Y-98000000D01*
X101000000Y-95800000D02*
X101700000Y-96500000D01*
X97750000Y-95350000D02*
X98200000Y-95800000D01*
X102189283Y-96500000D02*
X102800000Y-97110717D01*
X101800000Y-96500000D02*
X102189283Y-96500000D01*
X101700000Y-96500000D02*
X101800000Y-96500000D01*
X98200000Y-95800000D02*
X101000000Y-95800000D01*
X97750000Y-93950000D02*
X97750000Y-95350000D01*
D40*
%TO.N,+9V*%
X107499511Y-93250489D02*
X107499511Y-91104511D01*
X106500000Y-94250000D02*
X107499511Y-93250489D01*
X106155000Y-96845000D02*
X106500000Y-96500000D01*
X106500000Y-96500000D02*
X106500000Y-94250000D01*
X107499511Y-91104511D02*
X106250000Y-89855000D01*
X105030000Y-96845000D02*
X106155000Y-96845000D01*
%TO.N,Net-(C8-Pad2)*%
X95130000Y-101020000D02*
X95100000Y-100990000D01*
X96100000Y-101020000D02*
X95130000Y-101020000D01*
X96920000Y-100200000D02*
X96100000Y-101020000D01*
X97780000Y-100200000D02*
X96920000Y-100200000D01*
%TO.N,Net-(C3-Pad2)*%
X96280000Y-104290000D02*
X96100000Y-104110000D01*
X96280000Y-106565000D02*
X96280000Y-104290000D01*
D41*
%TO.N,/TXD*%
X98250000Y-94850000D02*
X98600000Y-95200000D01*
X98250000Y-93950000D02*
X98250000Y-94850000D01*
%TO.N,/RXD*%
X99260379Y-94872352D02*
X99555217Y-94872352D01*
X98750000Y-93950000D02*
X98750000Y-94361973D01*
%TO.N,Net-(D2-Pad2)*%
X101550000Y-95750000D02*
X105062500Y-95750000D01*
%TO.N,/RXD*%
X98750000Y-94361973D02*
X99260379Y-94872352D01*
%TO.N,Net-(D2-Pad2)*%
X99750000Y-93950000D02*
X101550000Y-95750000D01*
X105062500Y-95750000D02*
X105562500Y-95250000D01*
%TO.N,/SD_POW_~{EN}*%
X96861075Y-95900500D02*
X95500000Y-95900500D01*
X97309520Y-95452055D02*
X96861075Y-95900500D01*
X97309520Y-94009520D02*
X97309520Y-95452055D01*
X97250000Y-93950000D02*
X97309520Y-94009520D01*
%TO.N,Net-(C11-Pad1)*%
X93270000Y-89670000D02*
X93500000Y-89900000D01*
X93270000Y-88750000D02*
X93270000Y-89670000D01*
%TO.N,GND*%
X88705400Y-98700000D02*
X88555400Y-98550000D01*
X89250000Y-98700000D02*
X88705400Y-98700000D01*
%TO.N,/~{CS}*%
X101939133Y-92439133D02*
X102000000Y-92500000D01*
X101368248Y-92439133D02*
X101939133Y-92439133D01*
%TO.N,/VOUT*%
X103250000Y-91000000D02*
X101561117Y-91000000D01*
X101561117Y-91000000D02*
X101484952Y-90923835D01*
%TO.N,/SDI*%
X101598920Y-91750000D02*
X101640950Y-91707970D01*
X100450000Y-91750000D02*
X101598920Y-91750000D01*
%TO.N,/USB_D-*%
X100474999Y-90225001D02*
X101343199Y-90225001D01*
X101843199Y-89725001D02*
X102585263Y-89725001D01*
X101343199Y-90225001D02*
X101843199Y-89725001D01*
X100450000Y-90250000D02*
X100474999Y-90225001D01*
X102585263Y-89725001D02*
X102821879Y-89961617D01*
%TO.N,/SDO*%
X102347824Y-95000000D02*
X103250000Y-95000000D01*
X100597824Y-93250000D02*
X102347824Y-95000000D01*
X100450000Y-93250000D02*
X100597824Y-93250000D01*
%TO.N,/~{CS}*%
X101179115Y-92250000D02*
X101368248Y-92439133D01*
X100450000Y-92250000D02*
X101179115Y-92250000D01*
%TO.N,/SCK*%
X101103872Y-92750000D02*
X101853872Y-93500000D01*
X100450000Y-92750000D02*
X101103872Y-92750000D01*
%TO.N,/USB_D+*%
X102800001Y-89274999D02*
X103000000Y-89075000D01*
X101156801Y-89774999D02*
X101656801Y-89274999D01*
X101656801Y-89274999D02*
X102800001Y-89274999D01*
X100474999Y-89774999D02*
X101156801Y-89774999D01*
X100450000Y-89750000D02*
X100474999Y-89774999D01*
D40*
%TO.N,+9V*%
X92500000Y-103250000D02*
X92445000Y-103250000D01*
%TO.N,GND*%
X99250000Y-107569639D02*
X99229372Y-107549011D01*
X99250000Y-110750000D02*
X99250000Y-107569639D01*
X98845000Y-111155000D02*
X99250000Y-110750000D01*
X97780000Y-106099639D02*
X99229372Y-107549011D01*
%TO.N,+9V*%
X92445000Y-103250000D02*
X91050000Y-101855000D01*
%TO.N,VDD*%
X101684277Y-107345000D02*
X101157688Y-106818411D01*
%TO.N,GND*%
X97780000Y-104010000D02*
X97780000Y-106099639D01*
X97375000Y-111155000D02*
X98845000Y-111155000D01*
%TO.N,Net-(R12-Pad2)*%
X98392164Y-102740000D02*
X97780000Y-102740000D01*
X101290000Y-105569075D02*
X100570436Y-104849511D01*
X101290000Y-105625000D02*
X101290000Y-105569075D01*
X100570436Y-104849511D02*
X100501675Y-104849511D01*
%TO.N,VDD*%
X102625000Y-107345000D02*
X101684277Y-107345000D01*
%TO.N,Net-(R12-Pad2)*%
X100501675Y-104849511D02*
X98392164Y-102740000D01*
%TO.N,+3V3*%
X93201891Y-95232184D02*
X93201891Y-95336349D01*
X94194075Y-94240000D02*
X93201891Y-95232184D01*
X94250000Y-94240000D02*
X94194075Y-94240000D01*
D41*
%TO.N,/VOUT*%
X93212986Y-96240000D02*
X93750000Y-96240000D01*
X92522742Y-94770842D02*
X92522742Y-95549756D01*
X92522742Y-95549756D02*
X93212986Y-96240000D01*
X94750000Y-91138027D02*
X94750000Y-92543584D01*
X95474520Y-90825480D02*
X95062547Y-90825480D01*
X95062547Y-90825480D02*
X94750000Y-91138027D01*
X95550000Y-90750000D02*
X95474520Y-90825480D01*
X94750000Y-92543584D02*
X92522742Y-94770842D01*
D40*
%TO.N,Net-(C1-Pad2)*%
X72000000Y-86250000D02*
X71750000Y-86000000D01*
X71750000Y-86000000D02*
X71750000Y-82699004D01*
X73419004Y-81030000D02*
X73532000Y-81030000D01*
X83750000Y-86250000D02*
X72000000Y-86250000D01*
X84750000Y-87250000D02*
X83750000Y-86250000D01*
X71750000Y-82699004D02*
X73419004Y-81030000D01*
X84750000Y-98750000D02*
X84750000Y-87250000D01*
%TO.N,Net-(C16-Pad2)*%
X86500000Y-91900000D02*
X88500000Y-93900000D01*
X86500000Y-88750000D02*
X86500000Y-91900000D01*
X87400000Y-87850000D02*
X86500000Y-88750000D01*
X88500000Y-87850000D02*
X87400000Y-87850000D01*
X88500000Y-93900000D02*
X88500000Y-94150000D01*
%TO.N,VDD*%
X89649511Y-92149511D02*
X87750000Y-90250000D01*
X89649511Y-93149511D02*
X89649511Y-92149511D01*
X90650000Y-94150000D02*
X89649511Y-93149511D01*
X90800000Y-94150000D02*
X90650000Y-94150000D01*
D41*
%TO.N,/SWCLK*%
X91214046Y-91216693D02*
X90921329Y-91509410D01*
X91250988Y-91216693D02*
X91214046Y-91216693D01*
X91750000Y-88435006D02*
X91750000Y-90717680D01*
X93540736Y-86644270D02*
X91750000Y-88435006D01*
X94711066Y-86644269D02*
X93540736Y-86644270D01*
X95267778Y-87200980D02*
X94711066Y-86644269D01*
X95312953Y-87200980D02*
X95267778Y-87200980D01*
X96750000Y-89050000D02*
X96750000Y-88638027D01*
%TO.N,/SWDIO*%
X91331570Y-92108910D02*
X90347833Y-92108910D01*
X91650499Y-91382175D02*
X91650499Y-91789981D01*
X92250000Y-90782674D02*
X91650499Y-91382175D01*
X92250000Y-88500000D02*
X92250000Y-90782674D01*
X94545584Y-87043780D02*
X93706220Y-87043780D01*
%TO.N,/SWCLK*%
X91750000Y-90717680D02*
X91250988Y-91216693D01*
%TO.N,/SWDIO*%
X94896762Y-87394958D02*
X94545584Y-87043780D01*
X94896762Y-87831768D02*
X94896762Y-87394958D01*
%TO.N,/SWCLK*%
X96750000Y-88638027D02*
X95312953Y-87200980D01*
%TO.N,/SWDIO*%
X96114994Y-89050000D02*
X94896762Y-87831768D01*
X91650499Y-91789981D02*
X91331570Y-92108910D01*
X96250000Y-89050000D02*
X96114994Y-89050000D01*
X93706220Y-87043780D02*
X92250000Y-88500000D01*
D40*
%TO.N,GND*%
X107500000Y-98010000D02*
X107500000Y-99000000D01*
%TO.N,VDD*%
X94250000Y-103500000D02*
X94250000Y-104250000D01*
X93250000Y-102500000D02*
X94250000Y-103500000D01*
%TO.N,Net-(C16-Pad2)*%
X85750000Y-96500000D02*
X86500000Y-95750000D01*
X85750000Y-99500000D02*
X85750000Y-96500000D01*
X84750000Y-100500000D02*
X85750000Y-99500000D01*
X88500000Y-94150000D02*
X88500000Y-95750000D01*
X88500000Y-95750000D02*
X88500000Y-96050000D01*
X84750000Y-106250000D02*
X84750000Y-100500000D01*
X86500000Y-95750000D02*
X88500000Y-95750000D01*
%TO.N,GND*%
X107860000Y-99360000D02*
X107500000Y-99000000D01*
D41*
X98250000Y-89050000D02*
X98250000Y-88230000D01*
X98250000Y-88230000D02*
X98730000Y-87750000D01*
D40*
X91970000Y-118000000D02*
X92570000Y-117400000D01*
X90845000Y-108155000D02*
X93250000Y-105750000D01*
X93020000Y-92250000D02*
X92869502Y-92250000D01*
X88510000Y-101855000D02*
X88510000Y-99992500D01*
X92869502Y-92250000D02*
X92250000Y-91630498D01*
X105260000Y-106645000D02*
X105280000Y-106625000D01*
X106280000Y-106615000D02*
X107385000Y-106615000D01*
X106270000Y-106625000D02*
X106280000Y-106615000D01*
X88510000Y-104010000D02*
X88510000Y-101855000D01*
X88510000Y-108155000D02*
X88510000Y-104010000D01*
D41*
X96750000Y-92750000D02*
X98000000Y-91500000D01*
X96730000Y-95250000D02*
X96730000Y-93970000D01*
X96730000Y-93970000D02*
X96750000Y-93950000D01*
D40*
X83610000Y-113220000D02*
X86000000Y-113220000D01*
X107750000Y-104078000D02*
X107672000Y-104000000D01*
D41*
X94480000Y-87826020D02*
X94297261Y-87643281D01*
D40*
X107860000Y-102325000D02*
X107860000Y-99360000D01*
X88510000Y-108155000D02*
X90845000Y-108155000D01*
X89500000Y-118000000D02*
X89500000Y-116720000D01*
X89500000Y-118000000D02*
X91970000Y-118000000D01*
X86000000Y-113220000D02*
X86000000Y-110665000D01*
D41*
X96750000Y-93950000D02*
X96750000Y-92750000D01*
D40*
X107672000Y-104000000D02*
X107672000Y-102513000D01*
D41*
X94480000Y-88750000D02*
X94480000Y-87826020D01*
D40*
X79430000Y-117400000D02*
X83610000Y-113220000D01*
X107385000Y-106615000D02*
X107750000Y-106250000D01*
X104280000Y-106625000D02*
X106270000Y-106625000D01*
X105260000Y-107625000D02*
X105260000Y-106645000D01*
X86000000Y-110665000D02*
X88510000Y-108155000D01*
D41*
X98250000Y-91250000D02*
X98000000Y-91500000D01*
X98250000Y-89050000D02*
X98250000Y-91250000D01*
D40*
X107672000Y-102513000D02*
X107860000Y-102325000D01*
X89500000Y-116720000D02*
X86000000Y-113220000D01*
%TO.N,Net-(C1-Pad2)*%
X97375000Y-109885000D02*
X97420110Y-109930110D01*
X97420110Y-109930110D02*
X98550500Y-109930110D01*
D41*
X75992000Y-81030000D02*
X73532000Y-81030000D01*
X76032000Y-80990000D02*
X75992000Y-81030000D01*
D40*
%TO.N,Net-(C2-Pad2)*%
X102625000Y-111155000D02*
X101894242Y-111155000D01*
X81032000Y-81020000D02*
X92020000Y-81020000D01*
D41*
X81032000Y-81020000D02*
X78552000Y-81020000D01*
X78552000Y-81020000D02*
X78532000Y-81000000D01*
D40*
X92020000Y-81020000D02*
X92750000Y-81750000D01*
X100750000Y-110010758D02*
X100750000Y-109750000D01*
X101894242Y-111155000D02*
X100750000Y-110010758D01*
%TO.N,Net-(C3-Pad1)*%
X97065000Y-108305000D02*
X97375000Y-108615000D01*
X96550000Y-112750000D02*
X102895000Y-112750000D01*
X102895000Y-112750000D02*
X104520000Y-111125000D01*
X95530000Y-111730000D02*
X96550000Y-112750000D01*
X94030000Y-108305000D02*
X97065000Y-108305000D01*
X95530000Y-108335000D02*
X95530000Y-111730000D01*
%TO.N,Net-(C3-Pad2)*%
X94030000Y-107345000D02*
X97375000Y-107345000D01*
X96280000Y-106565000D02*
X95530000Y-107315000D01*
%TO.N,Net-(C4-Pad1)*%
X105540000Y-111125000D02*
X105540000Y-110105000D01*
X105500000Y-110125000D02*
X105530000Y-110095000D01*
X104530000Y-110125000D02*
X105500000Y-110125000D01*
X105540000Y-110105000D02*
X105530000Y-110095000D01*
X104290000Y-109885000D02*
X102625000Y-109885000D01*
X104530000Y-110125000D02*
X104290000Y-109885000D01*
%TO.N,Net-(C4-Pad2)*%
X101125755Y-108615000D02*
X102625000Y-108615000D01*
X105500000Y-109105000D02*
X105530000Y-109135000D01*
X100270000Y-105625000D02*
X100270000Y-107759245D01*
X104040000Y-108615000D02*
X104530000Y-109105000D01*
X104530000Y-109105000D02*
X105500000Y-109105000D01*
X102625000Y-108615000D02*
X104040000Y-108615000D01*
X100270000Y-107759245D02*
X101125755Y-108615000D01*
%TO.N,Net-(C5-Pad2)*%
X106280000Y-105595000D02*
X104350000Y-105595000D01*
X104680000Y-103865000D02*
X104680000Y-105065000D01*
X103175000Y-103865000D02*
X103030000Y-104010000D01*
X104680000Y-105065000D02*
X105280000Y-105665000D01*
X104680000Y-103865000D02*
X103175000Y-103865000D01*
X104350000Y-105595000D02*
X104280000Y-105665000D01*
%TO.N,VDD*%
X104680000Y-102845000D02*
X104680000Y-101930000D01*
X90800000Y-94150000D02*
X90800000Y-96100000D01*
X104680000Y-101930000D02*
X104680000Y-100799520D01*
X104012004Y-100200000D02*
X104542004Y-100730000D01*
X90800000Y-96100000D02*
X91500000Y-96800000D01*
X103095000Y-107345000D02*
X103500000Y-107750000D01*
X91500000Y-96800000D02*
X91550000Y-96800000D01*
X103030000Y-100200000D02*
X104012004Y-100200000D01*
X93250000Y-98500000D02*
X93250000Y-102500000D01*
X91550000Y-96800000D02*
X93250000Y-98500000D01*
X104175000Y-107750000D02*
X104300000Y-107625000D01*
X103500000Y-107750000D02*
X104175000Y-107750000D01*
X102625000Y-107345000D02*
X103095000Y-107345000D01*
X104542004Y-100730000D02*
X104655000Y-100730000D01*
%TO.N,Net-(C8-Pad2)*%
X99342500Y-96405000D02*
X99342500Y-98305000D01*
X97780000Y-100200000D02*
X97780000Y-99867500D01*
X97780000Y-99867500D02*
X99342500Y-98305000D01*
%TO.N,Net-(C10-Pad2)*%
X93770000Y-97240000D02*
X93750000Y-97260000D01*
X95905000Y-97240000D02*
X93770000Y-97240000D01*
%TO.N,+9V*%
X91050000Y-101855000D02*
X91050000Y-100552500D01*
X105030000Y-96845000D02*
X104590000Y-96405000D01*
X104590000Y-96405000D02*
X103467500Y-96405000D01*
X91050000Y-100552500D02*
X90490000Y-99992500D01*
X89780000Y-101855000D02*
X91050000Y-101855000D01*
D41*
%TO.N,Net-(J2-Pad2)*%
X76290000Y-84500000D02*
X76290000Y-82268000D01*
X76290000Y-82268000D02*
X76032000Y-82010000D01*
%TO.N,Net-(J2-Pad3)*%
X78532000Y-82020000D02*
X78830000Y-82318000D01*
X78830000Y-82318000D02*
X78830000Y-84500000D01*
%TO.N,Net-(C11-Pad1)*%
X95550000Y-89750000D02*
X94150000Y-89750000D01*
X94150000Y-89750000D02*
X94000000Y-89900000D01*
D40*
%TO.N,Net-(Q2-Pad1)*%
X104590000Y-98305000D02*
X105030000Y-97865000D01*
X103467500Y-98305000D02*
X104590000Y-98305000D01*
X105050000Y-97845000D02*
X105030000Y-97865000D01*
X106030000Y-97845000D02*
X105050000Y-97845000D01*
%TO.N,Net-(R12-Pad2)*%
X102270000Y-105625000D02*
X101290000Y-105625000D01*
%TO.N,Net-(R13-Pad2)*%
X101750000Y-103500000D02*
X102510000Y-102740000D01*
X102510000Y-102740000D02*
X103030000Y-102740000D01*
X101750000Y-104332138D02*
X101750000Y-103500000D01*
X102470925Y-104750000D02*
X102167862Y-104750000D01*
X103290000Y-105569075D02*
X102470925Y-104750000D01*
X103290000Y-105625000D02*
X103290000Y-105569075D01*
X102167862Y-104750000D02*
X101750000Y-104332138D01*
X103030000Y-101470000D02*
X103030000Y-102740000D01*
%TO.N,Net-(R17-Pad1)*%
X97467500Y-97355000D02*
X96562500Y-98260000D01*
X95915000Y-98270000D02*
X95905000Y-98260000D01*
X95915000Y-99250000D02*
X95915000Y-98270000D01*
X96562500Y-98260000D02*
X95905000Y-98260000D01*
D41*
%TO.N,Net-(C12-Pad1)*%
X94000000Y-92020000D02*
X93750000Y-92270000D01*
X95550000Y-90250000D02*
X94850000Y-90250000D01*
X94000000Y-91100000D02*
X94000000Y-92020000D01*
X94850000Y-90250000D02*
X94000000Y-91100000D01*
D40*
%TO.N,Net-(C16-Pad2)*%
X88500000Y-96050000D02*
X89250000Y-96800000D01*
D41*
%TO.N,+3V3*%
X97250000Y-89050000D02*
X97190480Y-88990480D01*
D40*
X96250000Y-86750000D02*
X95250000Y-85750000D01*
X92750000Y-85750000D02*
X90799511Y-87700489D01*
X87240000Y-101855000D02*
X87240000Y-100302500D01*
D41*
X97190480Y-88990480D02*
X97190480Y-87170480D01*
D40*
X95250000Y-85750000D02*
X92750000Y-85750000D01*
X87000000Y-99442500D02*
X87000000Y-96750000D01*
D41*
X97190480Y-87170480D02*
X96770000Y-86750000D01*
D40*
X96770000Y-86750000D02*
X96250000Y-86750000D01*
X90799511Y-90200489D02*
X90000000Y-91000000D01*
X87550000Y-99992500D02*
X87000000Y-99442500D01*
X90799511Y-87700489D02*
X90799511Y-90200489D01*
D41*
%TO.N,Net-(D2-Pad1)*%
X107437500Y-96927500D02*
X107500000Y-96990000D01*
X107437500Y-95250000D02*
X107437500Y-96927500D01*
%TO.N,/VOUT*%
X104369520Y-86619520D02*
X104250000Y-86500000D01*
X103250000Y-91700000D02*
X103250000Y-91000000D01*
X103750000Y-90500000D02*
X104369520Y-89880480D01*
X93750000Y-96240000D02*
X94240000Y-96240000D01*
X103250000Y-91000000D02*
X103750000Y-90500000D01*
X94240000Y-96240000D02*
X94500000Y-96500000D01*
X104369520Y-89880480D02*
X104369520Y-86619520D01*
%TO.N,Net-(C17-Pad2)*%
X97750000Y-87770000D02*
X97770000Y-87750000D01*
X97750000Y-89050000D02*
X97750000Y-87770000D01*
D40*
%TO.N,/A_ON*%
X106652000Y-103017000D02*
X105960000Y-102325000D01*
X106652000Y-104000000D02*
X106652000Y-103017000D01*
D41*
%TO.N,Net-(C18-Pad2)*%
X94250000Y-95260000D02*
X95990000Y-95260000D01*
X95990000Y-95260000D02*
X95980000Y-95250000D01*
X95980000Y-95250000D02*
X95770000Y-95250000D01*
X95770000Y-94430000D02*
X96250000Y-93950000D01*
X95770000Y-95250000D02*
X95770000Y-94430000D01*
%TO.N,/~{SRST}*%
X100350480Y-88350480D02*
X99537547Y-88350480D01*
X99250000Y-88638027D02*
X99250000Y-89050000D01*
X99537547Y-88350480D02*
X99250000Y-88638027D01*
X100500000Y-88500000D02*
X100350480Y-88350480D01*
%TD*%
%TA.AperFunction,Conductor*%
%TO.N,GND*%
G36*
X86237371Y-75066538D02*
G01*
X87197933Y-75095178D01*
X87202387Y-75095311D01*
X87207490Y-75095567D01*
X88170514Y-75163437D01*
X88175602Y-75163899D01*
X89135122Y-75270760D01*
X89140187Y-75271429D01*
X90094546Y-75417095D01*
X90099581Y-75417968D01*
X91047259Y-75602209D01*
X91052253Y-75603285D01*
X91991695Y-75825796D01*
X91996642Y-75827074D01*
X92926298Y-76087490D01*
X92931189Y-76088968D01*
X93849509Y-76386856D01*
X93854336Y-76388531D01*
X94759820Y-76723401D01*
X94764575Y-76725270D01*
X95655743Y-77096577D01*
X95660418Y-77098637D01*
X95968560Y-77241950D01*
X96535803Y-77505768D01*
X96540369Y-77508005D01*
X96725945Y-77603649D01*
X97398546Y-77950301D01*
X97403039Y-77952733D01*
X97832291Y-78196478D01*
X98242588Y-78429460D01*
X98246952Y-78432057D01*
X98479126Y-78576646D01*
X99066460Y-78942415D01*
X99070741Y-78945203D01*
X99450039Y-79203327D01*
X99868903Y-79488376D01*
X99873039Y-79491316D01*
X100278813Y-79792231D01*
X100648518Y-80066398D01*
X100652559Y-80069524D01*
X101383169Y-80658704D01*
X101404067Y-80675557D01*
X101407978Y-80678844D01*
X102134314Y-81314859D01*
X102138062Y-81318277D01*
X102548944Y-81708605D01*
X102838020Y-81983220D01*
X102841652Y-81986813D01*
X103336969Y-82497119D01*
X103462197Y-82626136D01*
X103514063Y-82679572D01*
X103517545Y-82683308D01*
X104158029Y-83399081D01*
X104161326Y-83402766D01*
X104164651Y-83406637D01*
X104452799Y-83756200D01*
X104778725Y-84151592D01*
X104781894Y-84155599D01*
X105322730Y-84868751D01*
X105365272Y-84924848D01*
X105368270Y-84928973D01*
X105496514Y-85113134D01*
X105919977Y-85721235D01*
X105922811Y-85725486D01*
X106441940Y-86539455D01*
X106444600Y-86543818D01*
X106930307Y-87378174D01*
X106932787Y-87382640D01*
X107384263Y-88235985D01*
X107386561Y-88240549D01*
X107803083Y-89111526D01*
X107805193Y-89116179D01*
X107808619Y-89124158D01*
X108176269Y-89980514D01*
X108186052Y-90003302D01*
X108187969Y-90008029D01*
X108531276Y-90906528D01*
X108532559Y-90909886D01*
X108534273Y-90914660D01*
X108842030Y-91829786D01*
X108843541Y-91834599D01*
X108961941Y-92240432D01*
X109113930Y-92761400D01*
X109115262Y-92766333D01*
X109204093Y-93124184D01*
X109346127Y-93696365D01*
X109347860Y-93703347D01*
X109348986Y-93708312D01*
X109524709Y-94563046D01*
X109543403Y-94653978D01*
X109544330Y-94659002D01*
X109700244Y-95611748D01*
X109700967Y-95616806D01*
X109818129Y-96575108D01*
X109818646Y-96580191D01*
X109896862Y-97542458D01*
X109897172Y-97547558D01*
X109936311Y-98512168D01*
X109936415Y-98517276D01*
X109936415Y-99482724D01*
X109936311Y-99487832D01*
X109897172Y-100452442D01*
X109896862Y-100457542D01*
X109818646Y-101419809D01*
X109818129Y-101424892D01*
X109700967Y-102383194D01*
X109700244Y-102388252D01*
X109544330Y-103340998D01*
X109543403Y-103346022D01*
X109349662Y-104288403D01*
X109348990Y-104291670D01*
X109347864Y-104296636D01*
X109252973Y-104678901D01*
X109115262Y-105233667D01*
X109113930Y-105238600D01*
X109012588Y-105585967D01*
X108843541Y-106165401D01*
X108842030Y-106170214D01*
X108534273Y-107085340D01*
X108532566Y-107090094D01*
X108193708Y-107976950D01*
X108187972Y-107991963D01*
X108186055Y-107996690D01*
X108024681Y-108372574D01*
X107805193Y-108883821D01*
X107803083Y-108888474D01*
X107386561Y-109759451D01*
X107384263Y-109764015D01*
X106932787Y-110617360D01*
X106930307Y-110621826D01*
X106444600Y-111456182D01*
X106441940Y-111460545D01*
X105922811Y-112274514D01*
X105919977Y-112278765D01*
X105655901Y-112657984D01*
X105379100Y-113055476D01*
X105368276Y-113071019D01*
X105365278Y-113075144D01*
X105059353Y-113478540D01*
X104781894Y-113844401D01*
X104778725Y-113848408D01*
X104250551Y-114489155D01*
X104164655Y-114593358D01*
X104161329Y-114597230D01*
X103697298Y-115115809D01*
X103517547Y-115316690D01*
X103514063Y-115320428D01*
X102841652Y-116013187D01*
X102838020Y-116016780D01*
X102138062Y-116681723D01*
X102134314Y-116685141D01*
X101540118Y-117205448D01*
X101407978Y-117321156D01*
X101404067Y-117324443D01*
X100652559Y-117930476D01*
X100648517Y-117933602D01*
X99873039Y-118508684D01*
X99868903Y-118511624D01*
X99462342Y-118788301D01*
X99070741Y-119054797D01*
X99066460Y-119057585D01*
X98763442Y-119246293D01*
X98246952Y-119567943D01*
X98242588Y-119570540D01*
X97897015Y-119766769D01*
X97403039Y-120047267D01*
X97398546Y-120049699D01*
X96984652Y-120263016D01*
X96540369Y-120491995D01*
X96535803Y-120494232D01*
X96132172Y-120681956D01*
X95660418Y-120901363D01*
X95655743Y-120903423D01*
X94764575Y-121274730D01*
X94759820Y-121276599D01*
X93854336Y-121611469D01*
X93849509Y-121613144D01*
X92931189Y-121911032D01*
X92926298Y-121912510D01*
X91996642Y-122172926D01*
X91991695Y-122174204D01*
X91052253Y-122396715D01*
X91047259Y-122397791D01*
X90099581Y-122582032D01*
X90094546Y-122582905D01*
X89140187Y-122728571D01*
X89135122Y-122729240D01*
X88175602Y-122836101D01*
X88170514Y-122836563D01*
X87207490Y-122904433D01*
X87202387Y-122904689D01*
X86237371Y-122933462D01*
X86232299Y-122933511D01*
X85704674Y-122927841D01*
X85266888Y-122923137D01*
X85261781Y-122922978D01*
X84297645Y-122873476D01*
X84292549Y-122873111D01*
X83763640Y-122824395D01*
X83331152Y-122784559D01*
X83326115Y-122783991D01*
X82369108Y-122656535D01*
X82364095Y-122655764D01*
X81413052Y-122489617D01*
X81408038Y-122488636D01*
X80464517Y-122284070D01*
X80459547Y-122282886D01*
X80038736Y-122173614D01*
X79525107Y-122040240D01*
X79520231Y-122038868D01*
X78596376Y-121758531D01*
X78591519Y-121756949D01*
X77679804Y-121439395D01*
X77675014Y-121437617D01*
X76776924Y-121083361D01*
X76772210Y-121081390D01*
X75889233Y-120691022D01*
X75884603Y-120688862D01*
X75018173Y-120263016D01*
X75013634Y-120260670D01*
X74165159Y-119800035D01*
X74160719Y-119797506D01*
X73331654Y-119302875D01*
X73327321Y-119300169D01*
X72518971Y-118772321D01*
X72514750Y-118769442D01*
X71728425Y-118209227D01*
X71724368Y-118206210D01*
X71404522Y-117958190D01*
X77972000Y-117958190D01*
X77972212Y-117963363D01*
X77986224Y-118133794D01*
X77987907Y-118143956D01*
X78043796Y-118366461D01*
X78047117Y-118376216D01*
X78138591Y-118586590D01*
X78143469Y-118595688D01*
X78268075Y-118788301D01*
X78274359Y-118796461D01*
X78428763Y-118966149D01*
X78436293Y-118973170D01*
X78616332Y-119115356D01*
X78624919Y-119121061D01*
X78825750Y-119231926D01*
X78835162Y-119236156D01*
X79051416Y-119312736D01*
X79061366Y-119315365D01*
X79158164Y-119332607D01*
X79171460Y-119331148D01*
X79175540Y-119318067D01*
X79684000Y-119318067D01*
X79687918Y-119331411D01*
X79702194Y-119333398D01*
X79763933Y-119323950D01*
X79773961Y-119321561D01*
X79992016Y-119250290D01*
X80001525Y-119246293D01*
X80205007Y-119140367D01*
X80213732Y-119134873D01*
X80397187Y-118997131D01*
X80404894Y-118990288D01*
X80417264Y-118977344D01*
X88887016Y-118977344D01*
X88896898Y-118989834D01*
X88940279Y-119018820D01*
X88950389Y-119024310D01*
X89135318Y-119103762D01*
X89146261Y-119107317D01*
X89342567Y-119151737D01*
X89353975Y-119153239D01*
X89555096Y-119161140D01*
X89566580Y-119160538D01*
X89765774Y-119131657D01*
X89776957Y-119128972D01*
X89967547Y-119064276D01*
X89978060Y-119059595D01*
X90104766Y-118988635D01*
X90114631Y-118978557D01*
X90111675Y-118970885D01*
X89512812Y-118372022D01*
X89498868Y-118364408D01*
X89497035Y-118364539D01*
X89490420Y-118368790D01*
X88893212Y-118965998D01*
X88887016Y-118977344D01*
X80417264Y-118977344D01*
X80563391Y-118824431D01*
X80569874Y-118816425D01*
X80669930Y-118669748D01*
X81649500Y-118669748D01*
X81661133Y-118728231D01*
X81705448Y-118794552D01*
X81771769Y-118838867D01*
X81783938Y-118841288D01*
X81783939Y-118841288D01*
X81823354Y-118849128D01*
X81830252Y-118850500D01*
X83169748Y-118850500D01*
X83176646Y-118849128D01*
X83216061Y-118841288D01*
X83216062Y-118841288D01*
X83228231Y-118838867D01*
X83294552Y-118794552D01*
X83338867Y-118728231D01*
X83350500Y-118669748D01*
X83350500Y-118000000D01*
X84144815Y-118000000D01*
X84145505Y-118006565D01*
X84159946Y-118143956D01*
X84163503Y-118177803D01*
X84165543Y-118184080D01*
X84165543Y-118184082D01*
X84192087Y-118265774D01*
X84218750Y-118347835D01*
X84308141Y-118502665D01*
X84312559Y-118507572D01*
X84312560Y-118507573D01*
X84411942Y-118617947D01*
X84427770Y-118635526D01*
X84572407Y-118740612D01*
X84578435Y-118743296D01*
X84578437Y-118743297D01*
X84709036Y-118801443D01*
X84735733Y-118813329D01*
X84823171Y-118831915D01*
X84904152Y-118849128D01*
X84904156Y-118849128D01*
X84910609Y-118850500D01*
X85089391Y-118850500D01*
X85095844Y-118849128D01*
X85095848Y-118849128D01*
X85176829Y-118831915D01*
X85264267Y-118813329D01*
X85290964Y-118801443D01*
X85421563Y-118743297D01*
X85421565Y-118743296D01*
X85427593Y-118740612D01*
X85572230Y-118635526D01*
X85588059Y-118617947D01*
X85687440Y-118507573D01*
X85687441Y-118507572D01*
X85691859Y-118502665D01*
X85781250Y-118347835D01*
X85807913Y-118265774D01*
X85834457Y-118184082D01*
X85834457Y-118184080D01*
X85836497Y-118177803D01*
X85840055Y-118143956D01*
X85854495Y-118006565D01*
X85855185Y-118000000D01*
X86144815Y-118000000D01*
X86145505Y-118006565D01*
X86159946Y-118143956D01*
X86163503Y-118177803D01*
X86165543Y-118184080D01*
X86165543Y-118184082D01*
X86192087Y-118265774D01*
X86218750Y-118347835D01*
X86308141Y-118502665D01*
X86312559Y-118507572D01*
X86312560Y-118507573D01*
X86411942Y-118617947D01*
X86427770Y-118635526D01*
X86572407Y-118740612D01*
X86578435Y-118743296D01*
X86578437Y-118743297D01*
X86709036Y-118801443D01*
X86735733Y-118813329D01*
X86823171Y-118831915D01*
X86904152Y-118849128D01*
X86904156Y-118849128D01*
X86910609Y-118850500D01*
X87089391Y-118850500D01*
X87095844Y-118849128D01*
X87095848Y-118849128D01*
X87176829Y-118831915D01*
X87264267Y-118813329D01*
X87290964Y-118801443D01*
X87421563Y-118743297D01*
X87421565Y-118743296D01*
X87427593Y-118740612D01*
X87572230Y-118635526D01*
X87588059Y-118617947D01*
X87687440Y-118507573D01*
X87687441Y-118507572D01*
X87691859Y-118502665D01*
X87781250Y-118347835D01*
X87807913Y-118265774D01*
X87834457Y-118184082D01*
X87834457Y-118184080D01*
X87836497Y-118177803D01*
X87840055Y-118143956D01*
X87854495Y-118006565D01*
X87855185Y-118000000D01*
X87852591Y-117975323D01*
X88337816Y-117975323D01*
X88350979Y-118176159D01*
X88352779Y-118187527D01*
X88402323Y-118382604D01*
X88406164Y-118393451D01*
X88490429Y-118576238D01*
X88496178Y-118586195D01*
X88509912Y-118605628D01*
X88520501Y-118614016D01*
X88533802Y-118606988D01*
X89127978Y-118012812D01*
X89134356Y-118001132D01*
X89864408Y-118001132D01*
X89864539Y-118002965D01*
X89868790Y-118009580D01*
X90466971Y-118607761D01*
X90479351Y-118614521D01*
X90485931Y-118609595D01*
X90559595Y-118478060D01*
X90564276Y-118467547D01*
X90628972Y-118276957D01*
X90631657Y-118265774D01*
X90660834Y-118064539D01*
X90661464Y-118057157D01*
X90662864Y-118003704D01*
X90662621Y-117996305D01*
X90659119Y-117958190D01*
X91112000Y-117958190D01*
X91112212Y-117963363D01*
X91126224Y-118133794D01*
X91127907Y-118143956D01*
X91183796Y-118366461D01*
X91187117Y-118376216D01*
X91278591Y-118586590D01*
X91283469Y-118595688D01*
X91408075Y-118788301D01*
X91414359Y-118796461D01*
X91568763Y-118966149D01*
X91576293Y-118973170D01*
X91756332Y-119115356D01*
X91764919Y-119121061D01*
X91965750Y-119231926D01*
X91975162Y-119236156D01*
X92191416Y-119312736D01*
X92201366Y-119315365D01*
X92298164Y-119332607D01*
X92311460Y-119331148D01*
X92315540Y-119318067D01*
X92824000Y-119318067D01*
X92827918Y-119331411D01*
X92842194Y-119333398D01*
X92903933Y-119323950D01*
X92913961Y-119321561D01*
X93132016Y-119250290D01*
X93141525Y-119246293D01*
X93345007Y-119140367D01*
X93353732Y-119134873D01*
X93537187Y-118997131D01*
X93544894Y-118990288D01*
X93703391Y-118824431D01*
X93709874Y-118816425D01*
X93839155Y-118626906D01*
X93844244Y-118617947D01*
X93940837Y-118409855D01*
X93944394Y-118400187D01*
X94005701Y-118179121D01*
X94007632Y-118169001D01*
X94027644Y-117981748D01*
X94028000Y-117975056D01*
X94028000Y-117672115D01*
X94023525Y-117656876D01*
X94022135Y-117655671D01*
X94014452Y-117654000D01*
X92842115Y-117654000D01*
X92826876Y-117658475D01*
X92825671Y-117659865D01*
X92824000Y-117667548D01*
X92824000Y-119318067D01*
X92315540Y-119318067D01*
X92316000Y-119316592D01*
X92316000Y-117672115D01*
X92311525Y-117656876D01*
X92310135Y-117655671D01*
X92302452Y-117654000D01*
X91130115Y-117654000D01*
X91114876Y-117658475D01*
X91113671Y-117659865D01*
X91112000Y-117667548D01*
X91112000Y-117958190D01*
X90659119Y-117958190D01*
X90644016Y-117793824D01*
X90641918Y-117782503D01*
X90587287Y-117588797D01*
X90583163Y-117578050D01*
X90494141Y-117397534D01*
X90490617Y-117391784D01*
X90480595Y-117384262D01*
X90468176Y-117391034D01*
X89872022Y-117987188D01*
X89864408Y-118001132D01*
X89134356Y-118001132D01*
X89135592Y-117998868D01*
X89135461Y-117997035D01*
X89131210Y-117990420D01*
X88531520Y-117390730D01*
X88519140Y-117383970D01*
X88513174Y-117388436D01*
X88428257Y-117549836D01*
X88423848Y-117560479D01*
X88364167Y-117752684D01*
X88361773Y-117763946D01*
X88338117Y-117963821D01*
X88337816Y-117975323D01*
X87852591Y-117975323D01*
X87836497Y-117822197D01*
X87781250Y-117652165D01*
X87691859Y-117497335D01*
X87687440Y-117492427D01*
X87576645Y-117369377D01*
X87576643Y-117369376D01*
X87572230Y-117364474D01*
X87514925Y-117322839D01*
X87432935Y-117263269D01*
X87432933Y-117263268D01*
X87427593Y-117259388D01*
X87421565Y-117256704D01*
X87421563Y-117256703D01*
X87270298Y-117189356D01*
X87270297Y-117189356D01*
X87264267Y-117186671D01*
X87176549Y-117168026D01*
X87095848Y-117150872D01*
X87095844Y-117150872D01*
X87089391Y-117149500D01*
X86910609Y-117149500D01*
X86904156Y-117150872D01*
X86904152Y-117150872D01*
X86823451Y-117168026D01*
X86735733Y-117186671D01*
X86729703Y-117189356D01*
X86729702Y-117189356D01*
X86578438Y-117256703D01*
X86578436Y-117256704D01*
X86572408Y-117259388D01*
X86567067Y-117263268D01*
X86567066Y-117263269D01*
X86535221Y-117286406D01*
X86427770Y-117364474D01*
X86423357Y-117369376D01*
X86423355Y-117369377D01*
X86312560Y-117492427D01*
X86308141Y-117497335D01*
X86218750Y-117652165D01*
X86163503Y-117822197D01*
X86144815Y-118000000D01*
X85855185Y-118000000D01*
X85836497Y-117822197D01*
X85781250Y-117652165D01*
X85691859Y-117497335D01*
X85687440Y-117492427D01*
X85576645Y-117369377D01*
X85576643Y-117369376D01*
X85572230Y-117364474D01*
X85514925Y-117322839D01*
X85432935Y-117263269D01*
X85432933Y-117263268D01*
X85427593Y-117259388D01*
X85421565Y-117256704D01*
X85421563Y-117256703D01*
X85270298Y-117189356D01*
X85270297Y-117189356D01*
X85264267Y-117186671D01*
X85176549Y-117168026D01*
X85095848Y-117150872D01*
X85095844Y-117150872D01*
X85089391Y-117149500D01*
X84910609Y-117149500D01*
X84904156Y-117150872D01*
X84904152Y-117150872D01*
X84823451Y-117168026D01*
X84735733Y-117186671D01*
X84729703Y-117189356D01*
X84729702Y-117189356D01*
X84578438Y-117256703D01*
X84578436Y-117256704D01*
X84572408Y-117259388D01*
X84567067Y-117263268D01*
X84567066Y-117263269D01*
X84535221Y-117286406D01*
X84427770Y-117364474D01*
X84423357Y-117369376D01*
X84423355Y-117369377D01*
X84312560Y-117492427D01*
X84308141Y-117497335D01*
X84218750Y-117652165D01*
X84163503Y-117822197D01*
X84144815Y-118000000D01*
X83350500Y-118000000D01*
X83350500Y-117330252D01*
X83344267Y-117298915D01*
X83341288Y-117283939D01*
X83341288Y-117283938D01*
X83338867Y-117271769D01*
X83294552Y-117205448D01*
X83228231Y-117161133D01*
X83216062Y-117158712D01*
X83216061Y-117158712D01*
X83175816Y-117150707D01*
X83169748Y-117149500D01*
X81830252Y-117149500D01*
X81824184Y-117150707D01*
X81783939Y-117158712D01*
X81783938Y-117158712D01*
X81771769Y-117161133D01*
X81705448Y-117205448D01*
X81661133Y-117271769D01*
X81658712Y-117283938D01*
X81658712Y-117283939D01*
X81655733Y-117298915D01*
X81649500Y-117330252D01*
X81649500Y-118669748D01*
X80669930Y-118669748D01*
X80699155Y-118626906D01*
X80704244Y-118617947D01*
X80800837Y-118409855D01*
X80804394Y-118400187D01*
X80865701Y-118179121D01*
X80867632Y-118169001D01*
X80887644Y-117981748D01*
X80888000Y-117975056D01*
X80888000Y-117672115D01*
X80883525Y-117656876D01*
X80882135Y-117655671D01*
X80874452Y-117654000D01*
X79702115Y-117654000D01*
X79686876Y-117658475D01*
X79685671Y-117659865D01*
X79684000Y-117667548D01*
X79684000Y-119318067D01*
X79175540Y-119318067D01*
X79176000Y-119316592D01*
X79176000Y-117672115D01*
X79171525Y-117656876D01*
X79170135Y-117655671D01*
X79162452Y-117654000D01*
X77990115Y-117654000D01*
X77974876Y-117658475D01*
X77973671Y-117659865D01*
X77972000Y-117667548D01*
X77972000Y-117958190D01*
X71404522Y-117958190D01*
X70961442Y-117614610D01*
X70957468Y-117611398D01*
X70219140Y-116989341D01*
X70215301Y-116985971D01*
X69603976Y-116427006D01*
X69567200Y-116366276D01*
X69563000Y-116334017D01*
X69563000Y-115542095D01*
X71645028Y-115542095D01*
X71670534Y-115809431D01*
X71671619Y-115813865D01*
X71671620Y-115813871D01*
X71733279Y-116065851D01*
X71734364Y-116070285D01*
X71736076Y-116074511D01*
X71736077Y-116074515D01*
X71792336Y-116213410D01*
X71835182Y-116319192D01*
X71970875Y-116550938D01*
X72054930Y-116656044D01*
X72085225Y-116693925D01*
X72138601Y-116760669D01*
X72334846Y-116943991D01*
X72360307Y-116961654D01*
X72551746Y-117094461D01*
X72551751Y-117094464D01*
X72555499Y-117097064D01*
X72559584Y-117099096D01*
X72559587Y-117099098D01*
X72648084Y-117143124D01*
X72795938Y-117216680D01*
X72800272Y-117218101D01*
X72800275Y-117218102D01*
X73046793Y-117298915D01*
X73046798Y-117298916D01*
X73051126Y-117300335D01*
X73055617Y-117301115D01*
X73055618Y-117301115D01*
X73311936Y-117345620D01*
X73311944Y-117345621D01*
X73315717Y-117346276D01*
X73319554Y-117346467D01*
X73398996Y-117350422D01*
X73399004Y-117350422D01*
X73400567Y-117350500D01*
X73568223Y-117350500D01*
X73570491Y-117350335D01*
X73570503Y-117350335D01*
X73700823Y-117340879D01*
X73767846Y-117336016D01*
X73772301Y-117335032D01*
X73772304Y-117335032D01*
X74025620Y-117279105D01*
X74025624Y-117279104D01*
X74030080Y-117278120D01*
X74240083Y-117198557D01*
X74276941Y-117184593D01*
X74276944Y-117184592D01*
X74281211Y-117182975D01*
X74380391Y-117127885D01*
X77972000Y-117127885D01*
X77976475Y-117143124D01*
X77977865Y-117144329D01*
X77985548Y-117146000D01*
X79157885Y-117146000D01*
X79173124Y-117141525D01*
X79174329Y-117140135D01*
X79176000Y-117132452D01*
X79176000Y-117127885D01*
X79684000Y-117127885D01*
X79688475Y-117143124D01*
X79689865Y-117144329D01*
X79697548Y-117146000D01*
X80869885Y-117146000D01*
X80885124Y-117141525D01*
X80886329Y-117140135D01*
X80888000Y-117132452D01*
X80888000Y-117022196D01*
X88886307Y-117022196D01*
X88889793Y-117030583D01*
X89487188Y-117627978D01*
X89501132Y-117635592D01*
X89502965Y-117635461D01*
X89509580Y-117631210D01*
X90012905Y-117127885D01*
X91112000Y-117127885D01*
X91116475Y-117143124D01*
X91117865Y-117144329D01*
X91125548Y-117146000D01*
X92297885Y-117146000D01*
X92313124Y-117141525D01*
X92314329Y-117140135D01*
X92316000Y-117132452D01*
X92316000Y-117127885D01*
X92824000Y-117127885D01*
X92828475Y-117143124D01*
X92829865Y-117144329D01*
X92837548Y-117146000D01*
X94009885Y-117146000D01*
X94025124Y-117141525D01*
X94026329Y-117140135D01*
X94028000Y-117132452D01*
X94028000Y-116841810D01*
X94027788Y-116836637D01*
X94013776Y-116666206D01*
X94012093Y-116656044D01*
X93956204Y-116433539D01*
X93952883Y-116423784D01*
X93861409Y-116213410D01*
X93856531Y-116204312D01*
X93731925Y-116011699D01*
X93725641Y-116003539D01*
X93571237Y-115833851D01*
X93563707Y-115826830D01*
X93383668Y-115684644D01*
X93375081Y-115678939D01*
X93174250Y-115568074D01*
X93164838Y-115563844D01*
X93103421Y-115542095D01*
X96645028Y-115542095D01*
X96670534Y-115809431D01*
X96671619Y-115813865D01*
X96671620Y-115813871D01*
X96733279Y-116065851D01*
X96734364Y-116070285D01*
X96736076Y-116074511D01*
X96736077Y-116074515D01*
X96792336Y-116213410D01*
X96835182Y-116319192D01*
X96970875Y-116550938D01*
X97054930Y-116656044D01*
X97085225Y-116693925D01*
X97138601Y-116760669D01*
X97334846Y-116943991D01*
X97360307Y-116961654D01*
X97551746Y-117094461D01*
X97551751Y-117094464D01*
X97555499Y-117097064D01*
X97559584Y-117099096D01*
X97559587Y-117099098D01*
X97648084Y-117143124D01*
X97795938Y-117216680D01*
X97800272Y-117218101D01*
X97800275Y-117218102D01*
X98046793Y-117298915D01*
X98046798Y-117298916D01*
X98051126Y-117300335D01*
X98055617Y-117301115D01*
X98055618Y-117301115D01*
X98311936Y-117345620D01*
X98311944Y-117345621D01*
X98315717Y-117346276D01*
X98319554Y-117346467D01*
X98398996Y-117350422D01*
X98399004Y-117350422D01*
X98400567Y-117350500D01*
X98568223Y-117350500D01*
X98570491Y-117350335D01*
X98570503Y-117350335D01*
X98700823Y-117340879D01*
X98767846Y-117336016D01*
X98772301Y-117335032D01*
X98772304Y-117335032D01*
X99025620Y-117279105D01*
X99025624Y-117279104D01*
X99030080Y-117278120D01*
X99240083Y-117198557D01*
X99276941Y-117184593D01*
X99276944Y-117184592D01*
X99281211Y-117182975D01*
X99515976Y-117052574D01*
X99598831Y-116989341D01*
X99725833Y-116892417D01*
X99725837Y-116892413D01*
X99729458Y-116889650D01*
X99781282Y-116836637D01*
X99913999Y-116700873D01*
X99917185Y-116697614D01*
X100023948Y-116550938D01*
X100072538Y-116484183D01*
X100072540Y-116484180D01*
X100075225Y-116480491D01*
X100135316Y-116366276D01*
X100198140Y-116246868D01*
X100198143Y-116246862D01*
X100200265Y-116242828D01*
X100213867Y-116204312D01*
X100288165Y-115993916D01*
X100288165Y-115993915D01*
X100289688Y-115989603D01*
X100320387Y-115833851D01*
X100340739Y-115730594D01*
X100340740Y-115730588D01*
X100341620Y-115726122D01*
X100343969Y-115678939D01*
X100354745Y-115462474D01*
X100354745Y-115462468D01*
X100354972Y-115457905D01*
X100329466Y-115190569D01*
X100265636Y-114929715D01*
X100164818Y-114680808D01*
X100029125Y-114449062D01*
X99918211Y-114310371D01*
X99864251Y-114242897D01*
X99864250Y-114242895D01*
X99861399Y-114239331D01*
X99665154Y-114056009D01*
X99505436Y-113945208D01*
X99448254Y-113905539D01*
X99448249Y-113905536D01*
X99444501Y-113902936D01*
X99440416Y-113900904D01*
X99440413Y-113900902D01*
X99267416Y-113814838D01*
X99204062Y-113783320D01*
X99199728Y-113781899D01*
X99199725Y-113781898D01*
X98953207Y-113701085D01*
X98953202Y-113701084D01*
X98948874Y-113699665D01*
X98944382Y-113698885D01*
X98688064Y-113654380D01*
X98688056Y-113654379D01*
X98684283Y-113653724D01*
X98675622Y-113653293D01*
X98601004Y-113649578D01*
X98600996Y-113649578D01*
X98599433Y-113649500D01*
X98431777Y-113649500D01*
X98429509Y-113649665D01*
X98429497Y-113649665D01*
X98299177Y-113659121D01*
X98232154Y-113663984D01*
X98227699Y-113664968D01*
X98227696Y-113664968D01*
X97974380Y-113720895D01*
X97974376Y-113720896D01*
X97969920Y-113721880D01*
X97844354Y-113769453D01*
X97723059Y-113815407D01*
X97723056Y-113815408D01*
X97718789Y-113817025D01*
X97484024Y-113947426D01*
X97480392Y-113950198D01*
X97274167Y-114107583D01*
X97274163Y-114107587D01*
X97270542Y-114110350D01*
X97082815Y-114302386D01*
X96924775Y-114519509D01*
X96885376Y-114594394D01*
X96801860Y-114753132D01*
X96801857Y-114753138D01*
X96799735Y-114757172D01*
X96798215Y-114761477D01*
X96798213Y-114761481D01*
X96738804Y-114929715D01*
X96710312Y-115010397D01*
X96658380Y-115273878D01*
X96658153Y-115278431D01*
X96658153Y-115278434D01*
X96647758Y-115487264D01*
X96645028Y-115542095D01*
X93103421Y-115542095D01*
X92948584Y-115487264D01*
X92938634Y-115484635D01*
X92841836Y-115467393D01*
X92828540Y-115468852D01*
X92824000Y-115483408D01*
X92824000Y-117127885D01*
X92316000Y-117127885D01*
X92316000Y-115481933D01*
X92312082Y-115468589D01*
X92297806Y-115466602D01*
X92236067Y-115476050D01*
X92226039Y-115478439D01*
X92007984Y-115549710D01*
X91998475Y-115553707D01*
X91794993Y-115659633D01*
X91786268Y-115665127D01*
X91602813Y-115802869D01*
X91595106Y-115809712D01*
X91436609Y-115975569D01*
X91430126Y-115983575D01*
X91300845Y-116173094D01*
X91295756Y-116182053D01*
X91199163Y-116390145D01*
X91195606Y-116399813D01*
X91134299Y-116620879D01*
X91132368Y-116630999D01*
X91112356Y-116818252D01*
X91112000Y-116824944D01*
X91112000Y-117127885D01*
X90012905Y-117127885D01*
X90106533Y-117034257D01*
X90113293Y-117021877D01*
X90107263Y-117013822D01*
X90032857Y-116966875D01*
X90022609Y-116961654D01*
X89835663Y-116887070D01*
X89824635Y-116883803D01*
X89627230Y-116844537D01*
X89615784Y-116843334D01*
X89414537Y-116840700D01*
X89403057Y-116841603D01*
X89204701Y-116875687D01*
X89193581Y-116878667D01*
X89004748Y-116948331D01*
X88994370Y-116953281D01*
X88895906Y-117011861D01*
X88886307Y-117022196D01*
X80888000Y-117022196D01*
X80888000Y-116841810D01*
X80887788Y-116836637D01*
X80873776Y-116666206D01*
X80872093Y-116656044D01*
X80816204Y-116433539D01*
X80812883Y-116423784D01*
X80721409Y-116213410D01*
X80716531Y-116204312D01*
X80591925Y-116011699D01*
X80585641Y-116003539D01*
X80431237Y-115833851D01*
X80423707Y-115826830D01*
X80243668Y-115684644D01*
X80235081Y-115678939D01*
X80034250Y-115568074D01*
X80024838Y-115563844D01*
X79808584Y-115487264D01*
X79798634Y-115484635D01*
X79701836Y-115467393D01*
X79688540Y-115468852D01*
X79684000Y-115483408D01*
X79684000Y-117127885D01*
X79176000Y-117127885D01*
X79176000Y-115481933D01*
X79172082Y-115468589D01*
X79157806Y-115466602D01*
X79096067Y-115476050D01*
X79086039Y-115478439D01*
X78867984Y-115549710D01*
X78858475Y-115553707D01*
X78654993Y-115659633D01*
X78646268Y-115665127D01*
X78462813Y-115802869D01*
X78455106Y-115809712D01*
X78296609Y-115975569D01*
X78290126Y-115983575D01*
X78160845Y-116173094D01*
X78155756Y-116182053D01*
X78059163Y-116390145D01*
X78055606Y-116399813D01*
X77994299Y-116620879D01*
X77992368Y-116630999D01*
X77972356Y-116818252D01*
X77972000Y-116824944D01*
X77972000Y-117127885D01*
X74380391Y-117127885D01*
X74515976Y-117052574D01*
X74598831Y-116989341D01*
X74725833Y-116892417D01*
X74725837Y-116892413D01*
X74729458Y-116889650D01*
X74781282Y-116836637D01*
X74913999Y-116700873D01*
X74917185Y-116697614D01*
X75023948Y-116550938D01*
X75072538Y-116484183D01*
X75072540Y-116484180D01*
X75075225Y-116480491D01*
X75135316Y-116366276D01*
X75198140Y-116246868D01*
X75198143Y-116246862D01*
X75200265Y-116242828D01*
X75213867Y-116204312D01*
X75288165Y-115993916D01*
X75288165Y-115993915D01*
X75289688Y-115989603D01*
X75320387Y-115833851D01*
X75340739Y-115730594D01*
X75340740Y-115730588D01*
X75341620Y-115726122D01*
X75343969Y-115678939D01*
X75354745Y-115462474D01*
X75354745Y-115462468D01*
X75354972Y-115457905D01*
X75329466Y-115190569D01*
X75265636Y-114929715D01*
X75164818Y-114680808D01*
X75029125Y-114449062D01*
X74918211Y-114310371D01*
X74864251Y-114242897D01*
X74864250Y-114242895D01*
X74861399Y-114239331D01*
X74665154Y-114056009D01*
X74505436Y-113945208D01*
X74448254Y-113905539D01*
X74448249Y-113905536D01*
X74444501Y-113902936D01*
X74440416Y-113900904D01*
X74440413Y-113900902D01*
X74267416Y-113814838D01*
X74204062Y-113783320D01*
X74199728Y-113781899D01*
X74199725Y-113781898D01*
X73953207Y-113701085D01*
X73953202Y-113701084D01*
X73948874Y-113699665D01*
X73944382Y-113698885D01*
X73688064Y-113654380D01*
X73688056Y-113654379D01*
X73684283Y-113653724D01*
X73675622Y-113653293D01*
X73601004Y-113649578D01*
X73600996Y-113649578D01*
X73599433Y-113649500D01*
X73431777Y-113649500D01*
X73429509Y-113649665D01*
X73429497Y-113649665D01*
X73299177Y-113659121D01*
X73232154Y-113663984D01*
X73227699Y-113664968D01*
X73227696Y-113664968D01*
X72974380Y-113720895D01*
X72974376Y-113720896D01*
X72969920Y-113721880D01*
X72844354Y-113769453D01*
X72723059Y-113815407D01*
X72723056Y-113815408D01*
X72718789Y-113817025D01*
X72484024Y-113947426D01*
X72480392Y-113950198D01*
X72274167Y-114107583D01*
X72274163Y-114107587D01*
X72270542Y-114110350D01*
X72082815Y-114302386D01*
X71924775Y-114519509D01*
X71885376Y-114594394D01*
X71801860Y-114753132D01*
X71801857Y-114753138D01*
X71799735Y-114757172D01*
X71798215Y-114761477D01*
X71798213Y-114761481D01*
X71738804Y-114929715D01*
X71710312Y-115010397D01*
X71658380Y-115273878D01*
X71658153Y-115278431D01*
X71658153Y-115278434D01*
X71647758Y-115487264D01*
X71645028Y-115542095D01*
X69563000Y-115542095D01*
X69563000Y-113492194D01*
X84066602Y-113492194D01*
X84076050Y-113553933D01*
X84078439Y-113563961D01*
X84149710Y-113782016D01*
X84153707Y-113791525D01*
X84259633Y-113995007D01*
X84265127Y-114003732D01*
X84402869Y-114187187D01*
X84409712Y-114194894D01*
X84575569Y-114353391D01*
X84583575Y-114359874D01*
X84773094Y-114489155D01*
X84782053Y-114494244D01*
X84990145Y-114590837D01*
X84999813Y-114594394D01*
X85220879Y-114655701D01*
X85230999Y-114657632D01*
X85418252Y-114677644D01*
X85424944Y-114678000D01*
X85727885Y-114678000D01*
X85743124Y-114673525D01*
X85744329Y-114672135D01*
X85746000Y-114664452D01*
X85746000Y-114659885D01*
X86254000Y-114659885D01*
X86258475Y-114675124D01*
X86259865Y-114676329D01*
X86267548Y-114678000D01*
X86558190Y-114678000D01*
X86563363Y-114677788D01*
X86733794Y-114663776D01*
X86743956Y-114662093D01*
X86966461Y-114606204D01*
X86976216Y-114602883D01*
X87186590Y-114511409D01*
X87195688Y-114506531D01*
X87388301Y-114381925D01*
X87396461Y-114375641D01*
X87566149Y-114221237D01*
X87573170Y-114213707D01*
X87715356Y-114033668D01*
X87721061Y-114025081D01*
X87831926Y-113824250D01*
X87836156Y-113814838D01*
X87912736Y-113598584D01*
X87915365Y-113588634D01*
X87932607Y-113491836D01*
X87931148Y-113478540D01*
X87916592Y-113474000D01*
X86272115Y-113474000D01*
X86256876Y-113478475D01*
X86255671Y-113479865D01*
X86254000Y-113487548D01*
X86254000Y-114659885D01*
X85746000Y-114659885D01*
X85746000Y-113492115D01*
X85741525Y-113476876D01*
X85740135Y-113475671D01*
X85732452Y-113474000D01*
X84081933Y-113474000D01*
X84068589Y-113477918D01*
X84066602Y-113492194D01*
X69563000Y-113492194D01*
X69563000Y-112948164D01*
X84067393Y-112948164D01*
X84068852Y-112961460D01*
X84083408Y-112966000D01*
X85727885Y-112966000D01*
X85743124Y-112961525D01*
X85744329Y-112960135D01*
X85746000Y-112952452D01*
X85746000Y-112947885D01*
X86254000Y-112947885D01*
X86258475Y-112963124D01*
X86259865Y-112964329D01*
X86267548Y-112966000D01*
X87918067Y-112966000D01*
X87931411Y-112962082D01*
X87933398Y-112947806D01*
X87923950Y-112886067D01*
X87921561Y-112876039D01*
X87850290Y-112657984D01*
X87846293Y-112648475D01*
X87740367Y-112444993D01*
X87734873Y-112436268D01*
X87597131Y-112252813D01*
X87590288Y-112245106D01*
X87424431Y-112086609D01*
X87416425Y-112080126D01*
X87226906Y-111950845D01*
X87217947Y-111945756D01*
X87009855Y-111849163D01*
X87000187Y-111845606D01*
X86779121Y-111784299D01*
X86769001Y-111782368D01*
X86581748Y-111762356D01*
X86575056Y-111762000D01*
X86272115Y-111762000D01*
X86256876Y-111766475D01*
X86255671Y-111767865D01*
X86254000Y-111775548D01*
X86254000Y-112947885D01*
X85746000Y-112947885D01*
X85746000Y-111780115D01*
X85741525Y-111764876D01*
X85740135Y-111763671D01*
X85732452Y-111762000D01*
X85441810Y-111762000D01*
X85436637Y-111762212D01*
X85266206Y-111776224D01*
X85256044Y-111777907D01*
X85033539Y-111833796D01*
X85023784Y-111837117D01*
X84813410Y-111928591D01*
X84804312Y-111933469D01*
X84611699Y-112058075D01*
X84603539Y-112064359D01*
X84433851Y-112218763D01*
X84426830Y-112226293D01*
X84284644Y-112406332D01*
X84278939Y-112414919D01*
X84168074Y-112615750D01*
X84163844Y-112625162D01*
X84087264Y-112841416D01*
X84084635Y-112851366D01*
X84067393Y-112948164D01*
X69563000Y-112948164D01*
X69563000Y-110756000D01*
X69583002Y-110687879D01*
X69636658Y-110641386D01*
X69689000Y-110630000D01*
X83962123Y-110630000D01*
X83999258Y-110630033D01*
X83999260Y-110630033D01*
X84013449Y-110630045D01*
X84026242Y-110623902D01*
X84031210Y-110622773D01*
X84038535Y-110620215D01*
X84043125Y-110618006D01*
X84056962Y-110614850D01*
X84068061Y-110606006D01*
X84072985Y-110603636D01*
X84078647Y-110600084D01*
X84082916Y-110596688D01*
X84095705Y-110590547D01*
X84104568Y-110579464D01*
X84108554Y-110576293D01*
X84114048Y-110570809D01*
X84117227Y-110566827D01*
X84128323Y-110557985D01*
X84134486Y-110545207D01*
X84137896Y-110540936D01*
X84141454Y-110535286D01*
X84143832Y-110530366D01*
X84152694Y-110519285D01*
X84155874Y-110505457D01*
X84158088Y-110500876D01*
X84160661Y-110493551D01*
X84161799Y-110488580D01*
X84167965Y-110475798D01*
X84167985Y-110452787D01*
X84169997Y-110452789D01*
X84170012Y-110452723D01*
X84168000Y-110452723D01*
X84168000Y-110435877D01*
X84168045Y-110384551D01*
X84172850Y-110384555D01*
X84172856Y-110384457D01*
X84168000Y-110384457D01*
X84168000Y-109274669D01*
X86277001Y-109274669D01*
X86277371Y-109281490D01*
X86282895Y-109332352D01*
X86286521Y-109347604D01*
X86331676Y-109468054D01*
X86340214Y-109483649D01*
X86416715Y-109585724D01*
X86429276Y-109598285D01*
X86531351Y-109674786D01*
X86546946Y-109683324D01*
X86667394Y-109728478D01*
X86682649Y-109732105D01*
X86733514Y-109737631D01*
X86740328Y-109738000D01*
X88237885Y-109738000D01*
X88253124Y-109733525D01*
X88254329Y-109732135D01*
X88256000Y-109724452D01*
X88256000Y-109719884D01*
X88764000Y-109719884D01*
X88768475Y-109735123D01*
X88769865Y-109736328D01*
X88777548Y-109737999D01*
X90279669Y-109737999D01*
X90286490Y-109737629D01*
X90337352Y-109732105D01*
X90352604Y-109728479D01*
X90473054Y-109683324D01*
X90488649Y-109674786D01*
X90590724Y-109598285D01*
X90603285Y-109585724D01*
X90679786Y-109483649D01*
X90688324Y-109468054D01*
X90733478Y-109347606D01*
X90737105Y-109332351D01*
X90742631Y-109281486D01*
X90743000Y-109274672D01*
X90743000Y-108427115D01*
X90738525Y-108411876D01*
X90737135Y-108410671D01*
X90729452Y-108409000D01*
X88782115Y-108409000D01*
X88766876Y-108413475D01*
X88765671Y-108414865D01*
X88764000Y-108422548D01*
X88764000Y-109719884D01*
X88256000Y-109719884D01*
X88256000Y-108427115D01*
X88251525Y-108411876D01*
X88250135Y-108410671D01*
X88242452Y-108409000D01*
X86295116Y-108409000D01*
X86279877Y-108413475D01*
X86278672Y-108414865D01*
X86277001Y-108422548D01*
X86277001Y-109274669D01*
X84168000Y-109274669D01*
X84168000Y-107882885D01*
X86277000Y-107882885D01*
X86281475Y-107898124D01*
X86282865Y-107899329D01*
X86290548Y-107901000D01*
X88237885Y-107901000D01*
X88253124Y-107896525D01*
X88254329Y-107895135D01*
X88256000Y-107887452D01*
X88256000Y-107882885D01*
X88764000Y-107882885D01*
X88768475Y-107898124D01*
X88769865Y-107899329D01*
X88777548Y-107901000D01*
X90724884Y-107901000D01*
X90740123Y-107896525D01*
X90741328Y-107895135D01*
X90742999Y-107887452D01*
X90742999Y-107035331D01*
X90742629Y-107028510D01*
X90737105Y-106977648D01*
X90733479Y-106962396D01*
X90688324Y-106841946D01*
X90679786Y-106826351D01*
X90603285Y-106724276D01*
X90590724Y-106711715D01*
X90488649Y-106635214D01*
X90473054Y-106626676D01*
X90352606Y-106581522D01*
X90337351Y-106577895D01*
X90286486Y-106572369D01*
X90279672Y-106572000D01*
X88782115Y-106572000D01*
X88766876Y-106576475D01*
X88765671Y-106577865D01*
X88764000Y-106585548D01*
X88764000Y-107882885D01*
X88256000Y-107882885D01*
X88256000Y-106590116D01*
X88251525Y-106574877D01*
X88250135Y-106573672D01*
X88242452Y-106572001D01*
X86740331Y-106572001D01*
X86733510Y-106572371D01*
X86682648Y-106577895D01*
X86667396Y-106581521D01*
X86546946Y-106626676D01*
X86531351Y-106635214D01*
X86429276Y-106711715D01*
X86416715Y-106724276D01*
X86340214Y-106826351D01*
X86331676Y-106841946D01*
X86286522Y-106962394D01*
X86282895Y-106977649D01*
X86277369Y-107028514D01*
X86277000Y-107035328D01*
X86277000Y-107882885D01*
X84168000Y-107882885D01*
X84168000Y-106681233D01*
X84188002Y-106613112D01*
X84241658Y-106566619D01*
X84311932Y-106556515D01*
X84376512Y-106586009D01*
X84390443Y-106600149D01*
X84412970Y-106626948D01*
X84420447Y-106631925D01*
X84508148Y-106690304D01*
X84532313Y-106706390D01*
X84669157Y-106749142D01*
X84678129Y-106749306D01*
X84678132Y-106749307D01*
X84743463Y-106750504D01*
X84812499Y-106751770D01*
X84821533Y-106749307D01*
X84942158Y-106716421D01*
X84942160Y-106716420D01*
X84950817Y-106714060D01*
X85072991Y-106639045D01*
X85082597Y-106628433D01*
X85163178Y-106539407D01*
X85169200Y-106532754D01*
X85231710Y-106403733D01*
X85255496Y-106262354D01*
X85255647Y-106250000D01*
X85246844Y-106188528D01*
X85236596Y-106116968D01*
X85236595Y-106116965D01*
X85235323Y-106108082D01*
X85175984Y-105977572D01*
X85170312Y-105970989D01*
X85150500Y-105903241D01*
X85150500Y-102974748D01*
X85469500Y-102974748D01*
X85481133Y-103033231D01*
X85525448Y-103099552D01*
X85591769Y-103143867D01*
X85603938Y-103146288D01*
X85603939Y-103146288D01*
X85638156Y-103153094D01*
X85650252Y-103155500D01*
X86289748Y-103155500D01*
X86301844Y-103153094D01*
X86336061Y-103146288D01*
X86336062Y-103146288D01*
X86348231Y-103143867D01*
X86414552Y-103099552D01*
X86458867Y-103033231D01*
X86470500Y-102974748D01*
X86470500Y-100735252D01*
X86465806Y-100711652D01*
X86461288Y-100688939D01*
X86461288Y-100688938D01*
X86458867Y-100676769D01*
X86414552Y-100610448D01*
X86364900Y-100577271D01*
X86358547Y-100573026D01*
X86348231Y-100566133D01*
X86336062Y-100563712D01*
X86336061Y-100563712D01*
X86295816Y-100555707D01*
X86289748Y-100554500D01*
X85650252Y-100554500D01*
X85591769Y-100566133D01*
X85585869Y-100570075D01*
X85518938Y-100577271D01*
X85469849Y-100552699D01*
X85493952Y-100617321D01*
X85485339Y-100670475D01*
X85481133Y-100676769D01*
X85469500Y-100735252D01*
X85469500Y-102974748D01*
X85150500Y-102974748D01*
X85150500Y-100718083D01*
X85170502Y-100649962D01*
X85187405Y-100628988D01*
X85279178Y-100537215D01*
X85341490Y-100503189D01*
X85412305Y-100508254D01*
X85450179Y-100536606D01*
X85419224Y-100484434D01*
X85421758Y-100413482D01*
X85452215Y-100364178D01*
X86055484Y-99760909D01*
X86055487Y-99760905D01*
X86078050Y-99738342D01*
X86087709Y-99719386D01*
X86088037Y-99718743D01*
X86098366Y-99701887D01*
X86111297Y-99684089D01*
X86118096Y-99663164D01*
X86125660Y-99644903D01*
X86131144Y-99634140D01*
X86131144Y-99634139D01*
X86135646Y-99625304D01*
X86139087Y-99603578D01*
X86143703Y-99584352D01*
X86147435Y-99572867D01*
X86147435Y-99572865D01*
X86150500Y-99563433D01*
X86150500Y-96718084D01*
X86170502Y-96649963D01*
X86187405Y-96628989D01*
X86299190Y-96517204D01*
X86361502Y-96483178D01*
X86432317Y-96488243D01*
X86489153Y-96530790D01*
X86513964Y-96597310D01*
X86512785Y-96625683D01*
X86498748Y-96715842D01*
X86494391Y-96743823D01*
X86495555Y-96752725D01*
X86495555Y-96752728D01*
X86501722Y-96799883D01*
X86512980Y-96885979D01*
X86570720Y-97017203D01*
X86576495Y-97024073D01*
X86580471Y-97030461D01*
X86599500Y-97097043D01*
X86599500Y-99505933D01*
X86602564Y-99515364D01*
X86602565Y-99515368D01*
X86606297Y-99526853D01*
X86610913Y-99546078D01*
X86614354Y-99567804D01*
X86618855Y-99576637D01*
X86618856Y-99576641D01*
X86624341Y-99587406D01*
X86631905Y-99605666D01*
X86638704Y-99626590D01*
X86651639Y-99644393D01*
X86661965Y-99661245D01*
X86671950Y-99680842D01*
X86694503Y-99703395D01*
X86694516Y-99703409D01*
X86835642Y-99844534D01*
X86897274Y-99906166D01*
X86931299Y-99968478D01*
X86926235Y-100039294D01*
X86913974Y-100062134D01*
X86911950Y-100064158D01*
X86854354Y-100177196D01*
X86839500Y-100270981D01*
X86839500Y-100517629D01*
X86819498Y-100585750D01*
X86804432Y-100604445D01*
X86795448Y-100610448D01*
X86788555Y-100620764D01*
X86788554Y-100620765D01*
X86769856Y-100648749D01*
X86751133Y-100676769D01*
X86748712Y-100688938D01*
X86748712Y-100688939D01*
X86744194Y-100711652D01*
X86739500Y-100735252D01*
X86739500Y-102974748D01*
X86751133Y-103033231D01*
X86795448Y-103099552D01*
X86861769Y-103143867D01*
X86873938Y-103146288D01*
X86873939Y-103146288D01*
X86908156Y-103153094D01*
X86920252Y-103155500D01*
X87559748Y-103155500D01*
X87618231Y-103143867D01*
X87618600Y-103145720D01*
X87674107Y-103139753D01*
X87737593Y-103171534D01*
X87762251Y-103203239D01*
X87765210Y-103208643D01*
X87841715Y-103310724D01*
X87854276Y-103323285D01*
X87956351Y-103399786D01*
X87971946Y-103408324D01*
X88092394Y-103453478D01*
X88107649Y-103457105D01*
X88158514Y-103462631D01*
X88165328Y-103463000D01*
X88237885Y-103463000D01*
X88253124Y-103458525D01*
X88254329Y-103457135D01*
X88256000Y-103449452D01*
X88256000Y-99864500D01*
X88276002Y-99796379D01*
X88329658Y-99749886D01*
X88382000Y-99738500D01*
X88977885Y-99738500D01*
X88993124Y-99734025D01*
X88994329Y-99732635D01*
X88996000Y-99724952D01*
X88996000Y-98972115D01*
X88991525Y-98956876D01*
X88990135Y-98955671D01*
X88982452Y-98954000D01*
X88035116Y-98954000D01*
X88019877Y-98958475D01*
X88018672Y-98959865D01*
X88017001Y-98967548D01*
X88017001Y-98997095D01*
X88017338Y-99003614D01*
X88027256Y-99099203D01*
X88030150Y-99112604D01*
X88041984Y-99148076D01*
X88044568Y-99219026D01*
X88008383Y-99280109D01*
X87986600Y-99296404D01*
X87976504Y-99302375D01*
X87964071Y-99312019D01*
X87859519Y-99416571D01*
X87845770Y-99434296D01*
X87788214Y-99475862D01*
X87737970Y-99482799D01*
X87733987Y-99482538D01*
X87729901Y-99482000D01*
X87658083Y-99482000D01*
X87589962Y-99461998D01*
X87568988Y-99445095D01*
X87437405Y-99313512D01*
X87403379Y-99251200D01*
X87400500Y-99224417D01*
X87400500Y-97096724D01*
X87419946Y-97033116D01*
X87419200Y-97032754D01*
X87421522Y-97027961D01*
X87472958Y-96921798D01*
X87477795Y-96911814D01*
X87477795Y-96911813D01*
X87481710Y-96903733D01*
X87505496Y-96762354D01*
X87505647Y-96750000D01*
X87495184Y-96676942D01*
X87486596Y-96616968D01*
X87486595Y-96616965D01*
X87485323Y-96608082D01*
X87476292Y-96588218D01*
X87455939Y-96543455D01*
X87425984Y-96477572D01*
X87332400Y-96368963D01*
X87331255Y-96368221D01*
X87295130Y-96311597D01*
X87295365Y-96240601D01*
X87333947Y-96181002D01*
X87398625Y-96151724D01*
X87416143Y-96150500D01*
X88020641Y-96150500D01*
X88088762Y-96170502D01*
X88132907Y-96219296D01*
X88135640Y-96224659D01*
X88138704Y-96234090D01*
X88151639Y-96251893D01*
X88161965Y-96268745D01*
X88171950Y-96288342D01*
X88194513Y-96310905D01*
X88194516Y-96310909D01*
X88287734Y-96404127D01*
X88321760Y-96466439D01*
X88324248Y-96496166D01*
X88324500Y-96496166D01*
X88324500Y-97103834D01*
X88327481Y-97135369D01*
X88372366Y-97263184D01*
X88377958Y-97270754D01*
X88377959Y-97270757D01*
X88430917Y-97342455D01*
X88452850Y-97372150D01*
X88460421Y-97377742D01*
X88554243Y-97447041D01*
X88554246Y-97447042D01*
X88561816Y-97452634D01*
X88607973Y-97468843D01*
X88665619Y-97510286D01*
X88691707Y-97576316D01*
X88677956Y-97645968D01*
X88628731Y-97697129D01*
X88606101Y-97707250D01*
X88458216Y-97756588D01*
X88445038Y-97762761D01*
X88307193Y-97848063D01*
X88295792Y-97857099D01*
X88181261Y-97971829D01*
X88172249Y-97983240D01*
X88087184Y-98121243D01*
X88081037Y-98134424D01*
X88029862Y-98288710D01*
X88026995Y-98302086D01*
X88017329Y-98396422D01*
X88017000Y-98402855D01*
X88017000Y-98427885D01*
X88021475Y-98443124D01*
X88022865Y-98444329D01*
X88030548Y-98446000D01*
X91628000Y-98446000D01*
X91696121Y-98466002D01*
X91742614Y-98519658D01*
X91754000Y-98572000D01*
X91754000Y-99689884D01*
X91758475Y-99705123D01*
X91759865Y-99706328D01*
X91767548Y-99707999D01*
X92022095Y-99707999D01*
X92028614Y-99707662D01*
X92124206Y-99697743D01*
X92137600Y-99694851D01*
X92291784Y-99643412D01*
X92304962Y-99637239D01*
X92442807Y-99551937D01*
X92454208Y-99542901D01*
X92568739Y-99428171D01*
X92577751Y-99416760D01*
X92616240Y-99354319D01*
X92669012Y-99306826D01*
X92739084Y-99295402D01*
X92804208Y-99323676D01*
X92843707Y-99382670D01*
X92849500Y-99420435D01*
X92849500Y-102563433D01*
X92852564Y-102572864D01*
X92852565Y-102572868D01*
X92856297Y-102584353D01*
X92860913Y-102603578D01*
X92862420Y-102613090D01*
X92864354Y-102625304D01*
X92867965Y-102632391D01*
X92869961Y-102702271D01*
X92833299Y-102763069D01*
X92769586Y-102794394D01*
X92711999Y-102790956D01*
X92595417Y-102756091D01*
X92574739Y-102749907D01*
X92565763Y-102749852D01*
X92565762Y-102749852D01*
X92562647Y-102749833D01*
X92559687Y-102748944D01*
X92556883Y-102748525D01*
X92556943Y-102748120D01*
X92494650Y-102729414D01*
X92474323Y-102712930D01*
X91587405Y-101826012D01*
X91553379Y-101763700D01*
X91550500Y-101736917D01*
X91550500Y-100735252D01*
X91545806Y-100711652D01*
X91541288Y-100688939D01*
X91541288Y-100688938D01*
X91538867Y-100676769D01*
X91520144Y-100648749D01*
X91501446Y-100620765D01*
X91501445Y-100620764D01*
X91494552Y-100610448D01*
X91486501Y-100605068D01*
X91453380Y-100544415D01*
X91450500Y-100517629D01*
X91450500Y-100489067D01*
X91447436Y-100479636D01*
X91447435Y-100479632D01*
X91443703Y-100468147D01*
X91439087Y-100448922D01*
X91437197Y-100436988D01*
X91437197Y-100436987D01*
X91435646Y-100427196D01*
X91431145Y-100418363D01*
X91431144Y-100418359D01*
X91425658Y-100407592D01*
X91418092Y-100389328D01*
X91417578Y-100387744D01*
X91411296Y-100368411D01*
X91405467Y-100360388D01*
X91398365Y-100350613D01*
X91388037Y-100333758D01*
X91382555Y-100322999D01*
X91382554Y-100322997D01*
X91378050Y-100314158D01*
X91355487Y-100291595D01*
X91355484Y-100291591D01*
X91007404Y-99943511D01*
X90973378Y-99881199D01*
X90970499Y-99854416D01*
X90970499Y-99834000D01*
X90990501Y-99765879D01*
X91044157Y-99719386D01*
X91096499Y-99708000D01*
X91227885Y-99708000D01*
X91243124Y-99703525D01*
X91244329Y-99702135D01*
X91246000Y-99694452D01*
X91246000Y-98972115D01*
X91241525Y-98956876D01*
X91240135Y-98955671D01*
X91232452Y-98954000D01*
X89522115Y-98954000D01*
X89506876Y-98958475D01*
X89505671Y-98959865D01*
X89504000Y-98967548D01*
X89504000Y-99720385D01*
X89508475Y-99735624D01*
X89509865Y-99736829D01*
X89517548Y-99738500D01*
X89658000Y-99738500D01*
X89726121Y-99758502D01*
X89772614Y-99812158D01*
X89784000Y-99864500D01*
X89784000Y-100120500D01*
X89763998Y-100188621D01*
X89710342Y-100235114D01*
X89658000Y-100246500D01*
X88782115Y-100246500D01*
X88766876Y-100250975D01*
X88765671Y-100252365D01*
X88764000Y-100260048D01*
X88764000Y-103444884D01*
X88768475Y-103460123D01*
X88769865Y-103461328D01*
X88777548Y-103462999D01*
X88854669Y-103462999D01*
X88861490Y-103462629D01*
X88912352Y-103457105D01*
X88927604Y-103453479D01*
X89048054Y-103408324D01*
X89063649Y-103399786D01*
X89165724Y-103323285D01*
X89178285Y-103310724D01*
X89254790Y-103208643D01*
X89257749Y-103203239D01*
X89308008Y-103153094D01*
X89377400Y-103138082D01*
X89401741Y-103143849D01*
X89401769Y-103143867D01*
X89460252Y-103155500D01*
X90099748Y-103155500D01*
X90111844Y-103153094D01*
X90146061Y-103146288D01*
X90146062Y-103146288D01*
X90158231Y-103143867D01*
X90224552Y-103099552D01*
X90268867Y-103033231D01*
X90280500Y-102974748D01*
X90280500Y-102381500D01*
X90300502Y-102313379D01*
X90354158Y-102266886D01*
X90406500Y-102255500D01*
X90423500Y-102255500D01*
X90491621Y-102275502D01*
X90538114Y-102329158D01*
X90549500Y-102381500D01*
X90549500Y-102974748D01*
X90561133Y-103033231D01*
X90605448Y-103099552D01*
X90671769Y-103143867D01*
X90683938Y-103146288D01*
X90683939Y-103146288D01*
X90718156Y-103153094D01*
X90730252Y-103155500D01*
X91369748Y-103155500D01*
X91381844Y-103153094D01*
X91416061Y-103146288D01*
X91416062Y-103146288D01*
X91428231Y-103143867D01*
X91494552Y-103099552D01*
X91502824Y-103087172D01*
X91507000Y-103083682D01*
X91510222Y-103080460D01*
X91510510Y-103080748D01*
X91557299Y-103041644D01*
X91627742Y-103032795D01*
X91696685Y-103068078D01*
X91995003Y-103366396D01*
X92021237Y-103404745D01*
X92064780Y-103503704D01*
X92070720Y-103517203D01*
X92076497Y-103524076D01*
X92076498Y-103524077D01*
X92156790Y-103619596D01*
X92162970Y-103626948D01*
X92282313Y-103706390D01*
X92419157Y-103749142D01*
X92428129Y-103749306D01*
X92428132Y-103749307D01*
X92493463Y-103750504D01*
X92562499Y-103751770D01*
X92571533Y-103749307D01*
X92692158Y-103716421D01*
X92692160Y-103716420D01*
X92700817Y-103714060D01*
X92822991Y-103639045D01*
X92836566Y-103624048D01*
X92913178Y-103539407D01*
X92919200Y-103532754D01*
X92981710Y-103403733D01*
X93005496Y-103262354D01*
X93005647Y-103250000D01*
X92987732Y-103124904D01*
X92997875Y-103054636D01*
X93044397Y-103001006D01*
X93112529Y-102981042D01*
X93180639Y-103001082D01*
X93201554Y-103017947D01*
X93812595Y-103628988D01*
X93846621Y-103691300D01*
X93849500Y-103718083D01*
X93849500Y-103903344D01*
X93829607Y-103969862D01*
X93827377Y-103972388D01*
X93766447Y-104102163D01*
X93765066Y-104111035D01*
X93746722Y-104228854D01*
X93744391Y-104243823D01*
X93745555Y-104252725D01*
X93745555Y-104252728D01*
X93750976Y-104294178D01*
X93762980Y-104385979D01*
X93766597Y-104394199D01*
X93794425Y-104457442D01*
X93820720Y-104517203D01*
X93826497Y-104524076D01*
X93826498Y-104524077D01*
X93884470Y-104593043D01*
X93912970Y-104626948D01*
X94032313Y-104706390D01*
X94169157Y-104749142D01*
X94178129Y-104749306D01*
X94178132Y-104749307D01*
X94243463Y-104750504D01*
X94312499Y-104751770D01*
X94321533Y-104749307D01*
X94442158Y-104716421D01*
X94442160Y-104716420D01*
X94450817Y-104714060D01*
X94572991Y-104639045D01*
X94669200Y-104532754D01*
X94706258Y-104456267D01*
X94727795Y-104411814D01*
X94727795Y-104411813D01*
X94731710Y-104403733D01*
X94755496Y-104262354D01*
X94755647Y-104250000D01*
X94743431Y-104164696D01*
X94736596Y-104116968D01*
X94736595Y-104116965D01*
X94735323Y-104108082D01*
X94730244Y-104096910D01*
X94679698Y-103985741D01*
X94675984Y-103977572D01*
X94670312Y-103970989D01*
X94650500Y-103903241D01*
X94650500Y-103436567D01*
X94647435Y-103427132D01*
X94643703Y-103415648D01*
X94639087Y-103396422D01*
X94637197Y-103384489D01*
X94637197Y-103384488D01*
X94635646Y-103374696D01*
X94625660Y-103355097D01*
X94618096Y-103336836D01*
X94611297Y-103315911D01*
X94598366Y-103298113D01*
X94588037Y-103281257D01*
X94582552Y-103270493D01*
X94582551Y-103270492D01*
X94578050Y-103261658D01*
X94555487Y-103239095D01*
X94555484Y-103239091D01*
X93687405Y-102371012D01*
X93653379Y-102308700D01*
X93650500Y-102281917D01*
X93650500Y-99520003D01*
X94118579Y-99520003D01*
X94119363Y-99529977D01*
X94121662Y-99542564D01*
X94162981Y-99684783D01*
X94169230Y-99699222D01*
X94243854Y-99825405D01*
X94253501Y-99837841D01*
X94357159Y-99941499D01*
X94369595Y-99951146D01*
X94495778Y-100025770D01*
X94510217Y-100032019D01*
X94623605Y-100064961D01*
X94637705Y-100064921D01*
X94641000Y-100057651D01*
X94641000Y-99522115D01*
X94636525Y-99506876D01*
X94635135Y-99505671D01*
X94627452Y-99504000D01*
X94135434Y-99504000D01*
X94120639Y-99508344D01*
X94118579Y-99520003D01*
X93650500Y-99520003D01*
X93650500Y-98495871D01*
X94096776Y-98495871D01*
X94133357Y-98621784D01*
X94139604Y-98636219D01*
X94165153Y-98679422D01*
X94182611Y-98748238D01*
X94172336Y-98793597D01*
X94162982Y-98815213D01*
X94121662Y-98957436D01*
X94119363Y-98970023D01*
X94118740Y-98977943D01*
X94121910Y-98993030D01*
X94133374Y-98996000D01*
X94622885Y-98996000D01*
X94638124Y-98991525D01*
X94639329Y-98990135D01*
X94641000Y-98982452D01*
X94641000Y-98502115D01*
X94636525Y-98486876D01*
X94635135Y-98485671D01*
X94627452Y-98484000D01*
X94111442Y-98484000D01*
X94097911Y-98487973D01*
X94096776Y-98495871D01*
X93650500Y-98495871D01*
X93650500Y-98436567D01*
X93647436Y-98427136D01*
X93647435Y-98427132D01*
X93643703Y-98415647D01*
X93639087Y-98396422D01*
X93637197Y-98384488D01*
X93637197Y-98384487D01*
X93635646Y-98374696D01*
X93631145Y-98365863D01*
X93631144Y-98365859D01*
X93625659Y-98355094D01*
X93618093Y-98336830D01*
X93615571Y-98329068D01*
X93611296Y-98315910D01*
X93598361Y-98298107D01*
X93588035Y-98281255D01*
X93582554Y-98270498D01*
X93578050Y-98261658D01*
X93555487Y-98239095D01*
X93555484Y-98239091D01*
X92462405Y-97146012D01*
X92428379Y-97083700D01*
X92425500Y-97056917D01*
X92425500Y-96496166D01*
X92422519Y-96464631D01*
X92377634Y-96336816D01*
X92372042Y-96329246D01*
X92372041Y-96329243D01*
X92302742Y-96235421D01*
X92297150Y-96227850D01*
X92264289Y-96203578D01*
X92195757Y-96152959D01*
X92195754Y-96152958D01*
X92188184Y-96147366D01*
X92060369Y-96102481D01*
X92052723Y-96101758D01*
X92052722Y-96101758D01*
X92043284Y-96100866D01*
X92028834Y-96099500D01*
X91418083Y-96099500D01*
X91349962Y-96079498D01*
X91328988Y-96062595D01*
X91237405Y-95971012D01*
X91203379Y-95908700D01*
X91200500Y-95881917D01*
X91200500Y-95476500D01*
X91220502Y-95408379D01*
X91274158Y-95361886D01*
X91326500Y-95350500D01*
X91569748Y-95350500D01*
X91578782Y-95348703D01*
X91616061Y-95341288D01*
X91616062Y-95341288D01*
X91628231Y-95338867D01*
X91694552Y-95294552D01*
X91738867Y-95228231D01*
X91744483Y-95200000D01*
X91749293Y-95175816D01*
X91750500Y-95169748D01*
X91750500Y-93130252D01*
X91749293Y-93124184D01*
X91741288Y-93083939D01*
X91741288Y-93083938D01*
X91738867Y-93071769D01*
X91694552Y-93005448D01*
X91628231Y-92961133D01*
X91616062Y-92958712D01*
X91616061Y-92958712D01*
X91575816Y-92950707D01*
X91569748Y-92949500D01*
X90176011Y-92949500D01*
X90107890Y-92929498D01*
X90061397Y-92875842D01*
X90050011Y-92823500D01*
X90050011Y-92711634D01*
X90070013Y-92643513D01*
X90123669Y-92597020D01*
X90193943Y-92586916D01*
X90213579Y-92591366D01*
X90266990Y-92608052D01*
X90275962Y-92608216D01*
X90275965Y-92608217D01*
X90341296Y-92609414D01*
X90410332Y-92610680D01*
X90419366Y-92608217D01*
X90539991Y-92575331D01*
X90539993Y-92575330D01*
X90548650Y-92572970D01*
X90636915Y-92518775D01*
X92234937Y-92518775D01*
X92236688Y-92528359D01*
X92278357Y-92671784D01*
X92284604Y-92686220D01*
X92359876Y-92813499D01*
X92369516Y-92825926D01*
X92474074Y-92930484D01*
X92486501Y-92940124D01*
X92613780Y-93015396D01*
X92628216Y-93021643D01*
X92748605Y-93056619D01*
X92762705Y-93056579D01*
X92766000Y-93049309D01*
X92766000Y-92522115D01*
X92761525Y-92506876D01*
X92760135Y-92505671D01*
X92752452Y-92504000D01*
X92251576Y-92504000D01*
X92236781Y-92508344D01*
X92234937Y-92518775D01*
X90636915Y-92518775D01*
X90670824Y-92497955D01*
X90676850Y-92491298D01*
X90713456Y-92450856D01*
X90773999Y-92413774D01*
X90806872Y-92409410D01*
X91279204Y-92409410D01*
X91281877Y-92409606D01*
X91286912Y-92411335D01*
X91298534Y-92410899D01*
X91298536Y-92410899D01*
X91335825Y-92409499D01*
X91340551Y-92409410D01*
X91359518Y-92409410D01*
X91364253Y-92408528D01*
X91367779Y-92408300D01*
X91371519Y-92408159D01*
X91398778Y-92407136D01*
X91409463Y-92402546D01*
X91414063Y-92401509D01*
X91425784Y-92397948D01*
X91430187Y-92396249D01*
X91441623Y-92394119D01*
X91462611Y-92381182D01*
X91478981Y-92372679D01*
X91493458Y-92366459D01*
X91493462Y-92366457D01*
X91501633Y-92362946D01*
X91506519Y-92358932D01*
X91508704Y-92356747D01*
X91510967Y-92354695D01*
X91511112Y-92354855D01*
X91520119Y-92347735D01*
X91527014Y-92341483D01*
X91536918Y-92335378D01*
X91553486Y-92313590D01*
X91564680Y-92300771D01*
X91825951Y-92039500D01*
X91827985Y-92037744D01*
X91832768Y-92035406D01*
X91851223Y-92015512D01*
X91866072Y-91999504D01*
X91869352Y-91996099D01*
X91882747Y-91982704D01*
X91885471Y-91978734D01*
X91887796Y-91976086D01*
X91900989Y-91961863D01*
X91908900Y-91953335D01*
X91913212Y-91942528D01*
X91915731Y-91938543D01*
X91921503Y-91927734D01*
X91923410Y-91923429D01*
X91929992Y-91913835D01*
X91935685Y-91889845D01*
X91941250Y-91872249D01*
X91947085Y-91857623D01*
X91950382Y-91849359D01*
X91950999Y-91843066D01*
X91950999Y-91839984D01*
X91951149Y-91836914D01*
X91951365Y-91836925D01*
X91952697Y-91825550D01*
X91953152Y-91816236D01*
X91955839Y-91804915D01*
X91952150Y-91777808D01*
X91950999Y-91760817D01*
X91950999Y-91558836D01*
X91971001Y-91490715D01*
X91987904Y-91469741D01*
X92425452Y-91032193D01*
X92427486Y-91030437D01*
X92432269Y-91028099D01*
X92450505Y-91008441D01*
X92465573Y-90992197D01*
X92468853Y-90988792D01*
X92482247Y-90975398D01*
X92483544Y-90976695D01*
X92535511Y-90941759D01*
X92606493Y-90940292D01*
X92666999Y-90977434D01*
X92697820Y-91041391D01*
X92699500Y-91061896D01*
X92699500Y-91364743D01*
X92679498Y-91432864D01*
X92623540Y-91480380D01*
X92613784Y-91484602D01*
X92486501Y-91559876D01*
X92474074Y-91569516D01*
X92369516Y-91674074D01*
X92359876Y-91686501D01*
X92284604Y-91813780D01*
X92278357Y-91828216D01*
X92236688Y-91971641D01*
X92235232Y-91979609D01*
X92238052Y-91993031D01*
X92249513Y-91996000D01*
X93148000Y-91996000D01*
X93216121Y-92016002D01*
X93262614Y-92069658D01*
X93274000Y-92122000D01*
X93274000Y-93043558D01*
X93277973Y-93057089D01*
X93285871Y-93058224D01*
X93411784Y-93021643D01*
X93426220Y-93015396D01*
X93553499Y-92940124D01*
X93565926Y-92930484D01*
X93670481Y-92825929D01*
X93684230Y-92808204D01*
X93741786Y-92766638D01*
X93792030Y-92759701D01*
X93796013Y-92759962D01*
X93800099Y-92760500D01*
X93804220Y-92760500D01*
X93808340Y-92760770D01*
X93808274Y-92761778D01*
X93872044Y-92780502D01*
X93918537Y-92834158D01*
X93928641Y-92904432D01*
X93899147Y-92969012D01*
X93893018Y-92975595D01*
X92347290Y-94521323D01*
X92345256Y-94523079D01*
X92340473Y-94525417D01*
X92332561Y-94533946D01*
X92332560Y-94533947D01*
X92307169Y-94561319D01*
X92303889Y-94564724D01*
X92290494Y-94578119D01*
X92287770Y-94582089D01*
X92285445Y-94584737D01*
X92272250Y-94598961D01*
X92272248Y-94598964D01*
X92264341Y-94607488D01*
X92260031Y-94618292D01*
X92257509Y-94622281D01*
X92251748Y-94633069D01*
X92249831Y-94637394D01*
X92243250Y-94646988D01*
X92240564Y-94658307D01*
X92240563Y-94658309D01*
X92237559Y-94670969D01*
X92231994Y-94688566D01*
X92226154Y-94703204D01*
X92222859Y-94711464D01*
X92222242Y-94717757D01*
X92222242Y-94720836D01*
X92222092Y-94723909D01*
X92221876Y-94723898D01*
X92220544Y-94735273D01*
X92220088Y-94744588D01*
X92217402Y-94755908D01*
X92218971Y-94767437D01*
X92218971Y-94767438D01*
X92221091Y-94783015D01*
X92222242Y-94800006D01*
X92222242Y-95497390D01*
X92222046Y-95500063D01*
X92220317Y-95505098D01*
X92220753Y-95516720D01*
X92220753Y-95516722D01*
X92222153Y-95554011D01*
X92222242Y-95558737D01*
X92222242Y-95577704D01*
X92223124Y-95582439D01*
X92223352Y-95585965D01*
X92224516Y-95616964D01*
X92229106Y-95627649D01*
X92230143Y-95632249D01*
X92233704Y-95643970D01*
X92235403Y-95648373D01*
X92237533Y-95659809D01*
X92246641Y-95674585D01*
X92250469Y-95680795D01*
X92258973Y-95697167D01*
X92265193Y-95711644D01*
X92265195Y-95711648D01*
X92268706Y-95719819D01*
X92272720Y-95724705D01*
X92274905Y-95726890D01*
X92276957Y-95729153D01*
X92276797Y-95729298D01*
X92283917Y-95738305D01*
X92290169Y-95745200D01*
X92296274Y-95755104D01*
X92315206Y-95769500D01*
X92318049Y-95771662D01*
X92330878Y-95782863D01*
X92647514Y-96099500D01*
X92963474Y-96415460D01*
X92965223Y-96417486D01*
X92967561Y-96422269D01*
X93003476Y-96455585D01*
X93006855Y-96458841D01*
X93020262Y-96472248D01*
X93024241Y-96474978D01*
X93026870Y-96477286D01*
X93049632Y-96498401D01*
X93060439Y-96502712D01*
X93064434Y-96505238D01*
X93075228Y-96511001D01*
X93079540Y-96512912D01*
X93089132Y-96519492D01*
X93100449Y-96522178D01*
X93100450Y-96522178D01*
X93113113Y-96525183D01*
X93130710Y-96530748D01*
X93145348Y-96536588D01*
X93145351Y-96536589D01*
X93153608Y-96539883D01*
X93159901Y-96540500D01*
X93162980Y-96540500D01*
X93166053Y-96540650D01*
X93166042Y-96540866D01*
X93177416Y-96542198D01*
X93186732Y-96542654D01*
X93198052Y-96545340D01*
X93209581Y-96543771D01*
X93213301Y-96543953D01*
X93280363Y-96567260D01*
X93296239Y-96580708D01*
X93369596Y-96654065D01*
X93368908Y-96654753D01*
X93406869Y-96702247D01*
X93414177Y-96772867D01*
X93382144Y-96836226D01*
X93372504Y-96844579D01*
X93369596Y-96845935D01*
X93285935Y-96929596D01*
X93281275Y-96939588D01*
X93281275Y-96939589D01*
X93241600Y-97024673D01*
X93235932Y-97036827D01*
X93229500Y-97085684D01*
X93229500Y-97434316D01*
X93235932Y-97483173D01*
X93240006Y-97491909D01*
X93240006Y-97491910D01*
X93281128Y-97580095D01*
X93285935Y-97590404D01*
X93369596Y-97674065D01*
X93379588Y-97678725D01*
X93379589Y-97678725D01*
X93447731Y-97710500D01*
X93476827Y-97724068D01*
X93517887Y-97729474D01*
X93521590Y-97729961D01*
X93525684Y-97730500D01*
X93974316Y-97730500D01*
X93978409Y-97729961D01*
X93978411Y-97729961D01*
X93980959Y-97729626D01*
X93981719Y-97729745D01*
X93982521Y-97729692D01*
X93982533Y-97729871D01*
X94051107Y-97740567D01*
X94104205Y-97787696D01*
X94123393Y-97856051D01*
X94118399Y-97889701D01*
X94098381Y-97958605D01*
X94098421Y-97972705D01*
X94105691Y-97976000D01*
X95033000Y-97976000D01*
X95101121Y-97996002D01*
X95147614Y-98049658D01*
X95159000Y-98102000D01*
X95159000Y-99012030D01*
X95156121Y-99038813D01*
X95149000Y-99071548D01*
X95149000Y-100051900D01*
X95152973Y-100065431D01*
X95160871Y-100066566D01*
X95279783Y-100032019D01*
X95294222Y-100025770D01*
X95420405Y-99951146D01*
X95432841Y-99941499D01*
X95536497Y-99837843D01*
X95546148Y-99825402D01*
X95549481Y-99819766D01*
X95601374Y-99771313D01*
X95671224Y-99758608D01*
X95686631Y-99761645D01*
X95691827Y-99764068D01*
X95740684Y-99770500D01*
X96089316Y-99770500D01*
X96138173Y-99764068D01*
X96150110Y-99758502D01*
X96235411Y-99718725D01*
X96235412Y-99718725D01*
X96245404Y-99714065D01*
X96329065Y-99630404D01*
X96333725Y-99620411D01*
X96374994Y-99531910D01*
X96374994Y-99531909D01*
X96379068Y-99523173D01*
X96385500Y-99474316D01*
X96385500Y-99025684D01*
X96379068Y-98976827D01*
X96371159Y-98959865D01*
X96329065Y-98869596D01*
X96332570Y-98867962D01*
X96315500Y-98813833D01*
X96315500Y-98786500D01*
X96335502Y-98718379D01*
X96389158Y-98671886D01*
X96441500Y-98660500D01*
X96625933Y-98660500D01*
X96635364Y-98657436D01*
X96635368Y-98657435D01*
X96646853Y-98653703D01*
X96666078Y-98649087D01*
X96678012Y-98647197D01*
X96678013Y-98647197D01*
X96687804Y-98645646D01*
X96696637Y-98641145D01*
X96696641Y-98641144D01*
X96707406Y-98635659D01*
X96725666Y-98628095D01*
X96746590Y-98621296D01*
X96764393Y-98608361D01*
X96781245Y-98598035D01*
X96792002Y-98592554D01*
X96800842Y-98588050D01*
X96823395Y-98565497D01*
X96823410Y-98565483D01*
X97149802Y-98239091D01*
X97496487Y-97892405D01*
X97558800Y-97858380D01*
X97585583Y-97855500D01*
X98088218Y-97855500D01*
X98092768Y-97854830D01*
X98092771Y-97854830D01*
X98147426Y-97846784D01*
X98147427Y-97846784D01*
X98157112Y-97845358D01*
X98211286Y-97818760D01*
X98252507Y-97798522D01*
X98252509Y-97798521D01*
X98261855Y-97793932D01*
X98325176Y-97730500D01*
X98336935Y-97718721D01*
X98336935Y-97718720D01*
X98344293Y-97711350D01*
X98351245Y-97697129D01*
X98369116Y-97660568D01*
X98395536Y-97606518D01*
X98402899Y-97556047D01*
X98404840Y-97542744D01*
X98404840Y-97542740D01*
X98405500Y-97538218D01*
X98405500Y-97171782D01*
X98404220Y-97163083D01*
X98396784Y-97112574D01*
X98396784Y-97112573D01*
X98395358Y-97102888D01*
X98360924Y-97032754D01*
X98348522Y-97007493D01*
X98348521Y-97007491D01*
X98343932Y-96998145D01*
X98261350Y-96915707D01*
X98248849Y-96909596D01*
X98182315Y-96877074D01*
X98156518Y-96864464D01*
X98126027Y-96860016D01*
X98092744Y-96855160D01*
X98092740Y-96855160D01*
X98088218Y-96854500D01*
X96846782Y-96854500D01*
X96842232Y-96855170D01*
X96842229Y-96855170D01*
X96787574Y-96863216D01*
X96787573Y-96863216D01*
X96777888Y-96864642D01*
X96727992Y-96889140D01*
X96682493Y-96911478D01*
X96682491Y-96911479D01*
X96673145Y-96916068D01*
X96659641Y-96929596D01*
X96595188Y-96994161D01*
X96532906Y-97028240D01*
X96462085Y-97023237D01*
X96405213Y-96980740D01*
X96391821Y-96958394D01*
X96373727Y-96919592D01*
X96373725Y-96919589D01*
X96369065Y-96909596D01*
X96285404Y-96825935D01*
X96275411Y-96821275D01*
X96186910Y-96780006D01*
X96186909Y-96780006D01*
X96178173Y-96775932D01*
X96129316Y-96769500D01*
X95680684Y-96769500D01*
X95631827Y-96775932D01*
X95623091Y-96780006D01*
X95623090Y-96780006D01*
X95579141Y-96800500D01*
X95524596Y-96825935D01*
X95522962Y-96822430D01*
X95468833Y-96839500D01*
X95285647Y-96839500D01*
X95232397Y-96827695D01*
X95173224Y-96800102D01*
X95173223Y-96800102D01*
X95164487Y-96796028D01*
X95114901Y-96789500D01*
X95107838Y-96789500D01*
X95106993Y-96789252D01*
X95106660Y-96789230D01*
X95106665Y-96789156D01*
X95039717Y-96769498D01*
X94993224Y-96715842D01*
X94983584Y-96642595D01*
X94995583Y-96571275D01*
X95005496Y-96512354D01*
X95005647Y-96500000D01*
X94993770Y-96417067D01*
X95003914Y-96346800D01*
X95050437Y-96293171D01*
X95118569Y-96273207D01*
X95188315Y-96294319D01*
X95282313Y-96356890D01*
X95290888Y-96359569D01*
X95295177Y-96360909D01*
X95419157Y-96399642D01*
X95428129Y-96399806D01*
X95428132Y-96399807D01*
X95493463Y-96401004D01*
X95562499Y-96402270D01*
X95571533Y-96399807D01*
X95692158Y-96366921D01*
X95692160Y-96366920D01*
X95700817Y-96364560D01*
X95822991Y-96289545D01*
X95830495Y-96281255D01*
X95865623Y-96242446D01*
X95926166Y-96205364D01*
X95959039Y-96201000D01*
X96808709Y-96201000D01*
X96811382Y-96201196D01*
X96816417Y-96202925D01*
X96828039Y-96202489D01*
X96828041Y-96202489D01*
X96865330Y-96201089D01*
X96870056Y-96201000D01*
X96889023Y-96201000D01*
X96893758Y-96200118D01*
X96897284Y-96199890D01*
X96901024Y-96199749D01*
X96928283Y-96198726D01*
X96938968Y-96194136D01*
X96943568Y-96193099D01*
X96955289Y-96189538D01*
X96959692Y-96187839D01*
X96971128Y-96185709D01*
X96992116Y-96172772D01*
X97008486Y-96164269D01*
X97022963Y-96158049D01*
X97022967Y-96158047D01*
X97031138Y-96154536D01*
X97036024Y-96150522D01*
X97038209Y-96148337D01*
X97040472Y-96146285D01*
X97040617Y-96146445D01*
X97049624Y-96139325D01*
X97056519Y-96133073D01*
X97066423Y-96126968D01*
X97082991Y-96105180D01*
X97094185Y-96092361D01*
X97484972Y-95701574D01*
X97487006Y-95699818D01*
X97491789Y-95697480D01*
X97499701Y-95688951D01*
X97506657Y-95683785D01*
X97573272Y-95659229D01*
X97642588Y-95674585D01*
X97670875Y-95695846D01*
X97950481Y-95975452D01*
X97952237Y-95977486D01*
X97954575Y-95982269D01*
X97963104Y-95990181D01*
X97963105Y-95990182D01*
X97990477Y-96015573D01*
X97993882Y-96018853D01*
X98007277Y-96032248D01*
X98011247Y-96034972D01*
X98013895Y-96037297D01*
X98028119Y-96050492D01*
X98028122Y-96050494D01*
X98036646Y-96058401D01*
X98047450Y-96062711D01*
X98051439Y-96065233D01*
X98062227Y-96070994D01*
X98066552Y-96072911D01*
X98076146Y-96079492D01*
X98087465Y-96082178D01*
X98087467Y-96082179D01*
X98100127Y-96085183D01*
X98117724Y-96090748D01*
X98132362Y-96096588D01*
X98132365Y-96096589D01*
X98140622Y-96099883D01*
X98146915Y-96100500D01*
X98149994Y-96100500D01*
X98153067Y-96100650D01*
X98153056Y-96100866D01*
X98164431Y-96102198D01*
X98173746Y-96102654D01*
X98185066Y-96105340D01*
X98196595Y-96103771D01*
X98196596Y-96103771D01*
X98212173Y-96101651D01*
X98229164Y-96100500D01*
X98278500Y-96100500D01*
X98346621Y-96120502D01*
X98393114Y-96174158D01*
X98404500Y-96226500D01*
X98404500Y-96588218D01*
X98405170Y-96592768D01*
X98405170Y-96592771D01*
X98413216Y-96647426D01*
X98414642Y-96657112D01*
X98427887Y-96684089D01*
X98460248Y-96750000D01*
X98466068Y-96761855D01*
X98500205Y-96795932D01*
X98538072Y-96833733D01*
X98548650Y-96844293D01*
X98558006Y-96848866D01*
X98558007Y-96848867D01*
X98570902Y-96855170D01*
X98653482Y-96895536D01*
X98683973Y-96899984D01*
X98717256Y-96904840D01*
X98717260Y-96904840D01*
X98721782Y-96905500D01*
X98816000Y-96905500D01*
X98884121Y-96925502D01*
X98930614Y-96979158D01*
X98942000Y-97031500D01*
X98942000Y-97678500D01*
X98921998Y-97746621D01*
X98868342Y-97793114D01*
X98816000Y-97804500D01*
X98721782Y-97804500D01*
X98717232Y-97805170D01*
X98717229Y-97805170D01*
X98662574Y-97813216D01*
X98662573Y-97813216D01*
X98652888Y-97814642D01*
X98611346Y-97835038D01*
X98557493Y-97861478D01*
X98557491Y-97861479D01*
X98548145Y-97866068D01*
X98465707Y-97948650D01*
X98414464Y-98053482D01*
X98404500Y-98121782D01*
X98404500Y-98488218D01*
X98405170Y-98492768D01*
X98405170Y-98492771D01*
X98406546Y-98502115D01*
X98414642Y-98557112D01*
X98418955Y-98565897D01*
X98419192Y-98566659D01*
X98420306Y-98637646D01*
X98387963Y-98693144D01*
X97474516Y-99606591D01*
X97474513Y-99606595D01*
X97451950Y-99629158D01*
X97447446Y-99637998D01*
X97441619Y-99646018D01*
X97438703Y-99643899D01*
X97402398Y-99682328D01*
X97338896Y-99699500D01*
X97071782Y-99699500D01*
X97067232Y-99700170D01*
X97067229Y-99700170D01*
X97012574Y-99708216D01*
X97012573Y-99708216D01*
X97002888Y-99709642D01*
X96983042Y-99719386D01*
X96907493Y-99756478D01*
X96907491Y-99756479D01*
X96898145Y-99761068D01*
X96888730Y-99770500D01*
X96883357Y-99775882D01*
X96821074Y-99809962D01*
X96813892Y-99811314D01*
X96794696Y-99814354D01*
X96785863Y-99818855D01*
X96785859Y-99818856D01*
X96775094Y-99824341D01*
X96756834Y-99831905D01*
X96735910Y-99838704D01*
X96727888Y-99844533D01*
X96727885Y-99844534D01*
X96718116Y-99851632D01*
X96701259Y-99861962D01*
X96690493Y-99867448D01*
X96690492Y-99867449D01*
X96681658Y-99871950D01*
X96051012Y-100502596D01*
X95988700Y-100536622D01*
X95961917Y-100539501D01*
X95890100Y-100539501D01*
X95840513Y-100546028D01*
X95831781Y-100550100D01*
X95831778Y-100550101D01*
X95802590Y-100563712D01*
X95731684Y-100596776D01*
X95730199Y-100598261D01*
X95662841Y-100619500D01*
X95576159Y-100619500D01*
X95508038Y-100599498D01*
X95490293Y-100585197D01*
X95488201Y-100583732D01*
X95480404Y-100575935D01*
X95470411Y-100571275D01*
X95381910Y-100530006D01*
X95381909Y-100530006D01*
X95373173Y-100525932D01*
X95324316Y-100519500D01*
X94875684Y-100519500D01*
X94826827Y-100525932D01*
X94818091Y-100530006D01*
X94818090Y-100530006D01*
X94729589Y-100571275D01*
X94719596Y-100575935D01*
X94635935Y-100659596D01*
X94631275Y-100669588D01*
X94631275Y-100669589D01*
X94617704Y-100698693D01*
X94585932Y-100766827D01*
X94579500Y-100815684D01*
X94579500Y-101164316D01*
X94585932Y-101213173D01*
X94590006Y-101221909D01*
X94590006Y-101221910D01*
X94631275Y-101310411D01*
X94635935Y-101320404D01*
X94719596Y-101404065D01*
X94718908Y-101404753D01*
X94756869Y-101452247D01*
X94764177Y-101522867D01*
X94732144Y-101586226D01*
X94722504Y-101594579D01*
X94719596Y-101595935D01*
X94635935Y-101679596D01*
X94631275Y-101689588D01*
X94631275Y-101689589D01*
X94609206Y-101736917D01*
X94585932Y-101786827D01*
X94579500Y-101835684D01*
X94579500Y-102184316D01*
X94585932Y-102233173D01*
X94590006Y-102241909D01*
X94590006Y-102241910D01*
X94615291Y-102296133D01*
X94635935Y-102340404D01*
X94719596Y-102424065D01*
X94826827Y-102474068D01*
X94875684Y-102480500D01*
X95324316Y-102480500D01*
X95373173Y-102474068D01*
X95480404Y-102424065D01*
X95482038Y-102427570D01*
X95536167Y-102410500D01*
X95573500Y-102410500D01*
X95641621Y-102430502D01*
X95688114Y-102484158D01*
X95699500Y-102536500D01*
X95699500Y-102643841D01*
X95679498Y-102711962D01*
X95662595Y-102732936D01*
X95635935Y-102759596D01*
X95631275Y-102769588D01*
X95631275Y-102769589D01*
X95613787Y-102807093D01*
X95585932Y-102866827D01*
X95579500Y-102915684D01*
X95579500Y-103264316D01*
X95585932Y-103313173D01*
X95590006Y-103321909D01*
X95590006Y-103321910D01*
X95629319Y-103406216D01*
X95635935Y-103420404D01*
X95719596Y-103504065D01*
X95718908Y-103504753D01*
X95756869Y-103552247D01*
X95764177Y-103622867D01*
X95732144Y-103686226D01*
X95722504Y-103694579D01*
X95719596Y-103695935D01*
X95635935Y-103779596D01*
X95631275Y-103789588D01*
X95631275Y-103789589D01*
X95612591Y-103829658D01*
X95585932Y-103886827D01*
X95579500Y-103935684D01*
X95579500Y-104284316D01*
X95585932Y-104333173D01*
X95590006Y-104341909D01*
X95590006Y-104341910D01*
X95631275Y-104430411D01*
X95635935Y-104440404D01*
X95719596Y-104524065D01*
X95729588Y-104528725D01*
X95729589Y-104528725D01*
X95806750Y-104564706D01*
X95860035Y-104611624D01*
X95879500Y-104678901D01*
X95879500Y-106346917D01*
X95859498Y-106415038D01*
X95842595Y-106436013D01*
X95471011Y-106807596D01*
X95408699Y-106841621D01*
X95381916Y-106844500D01*
X95305684Y-106844500D01*
X95301598Y-106845038D01*
X95301597Y-106845038D01*
X95297887Y-106845526D01*
X95256827Y-106850932D01*
X95248091Y-106855006D01*
X95248090Y-106855006D01*
X95159589Y-106896275D01*
X95149596Y-106900935D01*
X95141798Y-106908733D01*
X95132774Y-106915052D01*
X95131808Y-106913672D01*
X95080624Y-106941621D01*
X95053841Y-106944500D01*
X94467159Y-106944500D01*
X94399801Y-106923261D01*
X94398316Y-106921776D01*
X94319160Y-106884865D01*
X94298224Y-106875102D01*
X94298223Y-106875102D01*
X94289487Y-106871028D01*
X94239901Y-106864500D01*
X94030077Y-106864500D01*
X93820100Y-106864501D01*
X93770513Y-106871028D01*
X93761779Y-106875101D01*
X93761778Y-106875101D01*
X93671677Y-106917116D01*
X93661684Y-106921776D01*
X93576776Y-107006684D01*
X93572117Y-107016676D01*
X93572116Y-107016677D01*
X93530102Y-107106776D01*
X93526028Y-107115513D01*
X93519500Y-107165099D01*
X93519501Y-107524900D01*
X93526028Y-107574487D01*
X93530101Y-107583221D01*
X93530101Y-107583222D01*
X93571989Y-107673050D01*
X93576776Y-107683316D01*
X93629365Y-107735905D01*
X93663391Y-107798217D01*
X93658326Y-107869032D01*
X93629365Y-107914095D01*
X93576776Y-107966684D01*
X93572117Y-107976676D01*
X93572116Y-107976677D01*
X93532984Y-108060595D01*
X93526028Y-108075513D01*
X93519500Y-108125099D01*
X93519501Y-108484900D01*
X93526028Y-108534487D01*
X93530101Y-108543221D01*
X93530101Y-108543222D01*
X93555456Y-108597595D01*
X93576776Y-108643316D01*
X93661684Y-108728224D01*
X93770513Y-108778972D01*
X93820099Y-108785500D01*
X94029923Y-108785500D01*
X94239900Y-108785499D01*
X94289487Y-108778972D01*
X94398316Y-108728224D01*
X94399801Y-108726739D01*
X94467159Y-108705500D01*
X95003500Y-108705500D01*
X95071621Y-108725502D01*
X95118114Y-108779158D01*
X95129500Y-108831500D01*
X95129500Y-111793433D01*
X95132564Y-111802864D01*
X95132565Y-111802868D01*
X95136297Y-111814353D01*
X95140913Y-111833578D01*
X95141474Y-111837117D01*
X95144354Y-111855304D01*
X95148855Y-111864137D01*
X95148856Y-111864141D01*
X95154341Y-111874906D01*
X95161905Y-111893166D01*
X95168704Y-111914090D01*
X95181639Y-111931893D01*
X95191965Y-111948745D01*
X95201950Y-111968342D01*
X95224513Y-111990905D01*
X95224516Y-111990909D01*
X96289091Y-113055484D01*
X96289095Y-113055487D01*
X96311658Y-113078050D01*
X96320497Y-113082554D01*
X96320499Y-113082555D01*
X96331258Y-113088037D01*
X96348113Y-113098365D01*
X96357888Y-113105467D01*
X96365911Y-113111296D01*
X96386830Y-113118093D01*
X96405092Y-113125658D01*
X96415859Y-113131144D01*
X96415863Y-113131145D01*
X96424696Y-113135646D01*
X96434487Y-113137197D01*
X96434488Y-113137197D01*
X96446422Y-113139087D01*
X96465647Y-113143703D01*
X96477132Y-113147435D01*
X96477136Y-113147436D01*
X96486567Y-113150500D01*
X102958433Y-113150500D01*
X102967864Y-113147436D01*
X102967868Y-113147435D01*
X102979353Y-113143703D01*
X102998578Y-113139087D01*
X103010512Y-113137197D01*
X103010513Y-113137197D01*
X103020304Y-113135646D01*
X103029137Y-113131145D01*
X103029141Y-113131144D01*
X103039906Y-113125659D01*
X103058166Y-113118095D01*
X103079090Y-113111296D01*
X103096893Y-113098361D01*
X103113745Y-113088035D01*
X103124502Y-113082554D01*
X103133342Y-113078050D01*
X103155905Y-113055487D01*
X103155909Y-113055484D01*
X104528988Y-111682405D01*
X104591300Y-111648379D01*
X104618083Y-111645500D01*
X104694316Y-111645500D01*
X104743173Y-111639068D01*
X104850404Y-111589065D01*
X104934065Y-111505404D01*
X104934753Y-111506092D01*
X104982247Y-111468131D01*
X105052867Y-111460823D01*
X105116226Y-111492856D01*
X105124579Y-111502496D01*
X105125935Y-111505404D01*
X105209596Y-111589065D01*
X105316827Y-111639068D01*
X105365684Y-111645500D01*
X105714316Y-111645500D01*
X105763173Y-111639068D01*
X105870404Y-111589065D01*
X105954065Y-111505404D01*
X105959916Y-111492856D01*
X105999994Y-111406910D01*
X105999994Y-111406909D01*
X106004068Y-111398173D01*
X106010500Y-111349316D01*
X106010500Y-110900684D01*
X106004068Y-110851827D01*
X105979036Y-110798145D01*
X105954065Y-110744596D01*
X105957570Y-110742962D01*
X105940500Y-110688833D01*
X105940500Y-110528230D01*
X105960502Y-110460109D01*
X105972880Y-110444750D01*
X105975426Y-110441114D01*
X105983224Y-110433316D01*
X106005372Y-110385821D01*
X106029898Y-110333224D01*
X106029898Y-110333223D01*
X106033972Y-110324487D01*
X106040500Y-110274901D01*
X106040499Y-109915100D01*
X106033972Y-109865513D01*
X105997917Y-109788192D01*
X105987884Y-109766677D01*
X105987883Y-109766676D01*
X105983224Y-109756684D01*
X105930635Y-109704095D01*
X105896609Y-109641783D01*
X105901674Y-109570968D01*
X105930635Y-109525905D01*
X105983224Y-109473316D01*
X105989848Y-109459112D01*
X106029898Y-109373224D01*
X106029898Y-109373223D01*
X106033972Y-109364487D01*
X106040500Y-109314901D01*
X106040499Y-108955100D01*
X106033972Y-108905513D01*
X106011275Y-108856838D01*
X105987884Y-108806677D01*
X105987883Y-108806676D01*
X105983224Y-108796684D01*
X105898316Y-108711776D01*
X105789487Y-108661028D01*
X105739901Y-108654500D01*
X105649555Y-108654500D01*
X105581434Y-108634498D01*
X105540965Y-108587794D01*
X105517873Y-108623726D01*
X105453292Y-108653219D01*
X105435365Y-108654501D01*
X105320100Y-108654501D01*
X105270513Y-108661028D01*
X105261779Y-108665101D01*
X105261778Y-108665101D01*
X105202603Y-108692695D01*
X105149353Y-108704500D01*
X104966167Y-108704500D01*
X104912038Y-108687430D01*
X104910404Y-108690935D01*
X104811910Y-108645006D01*
X104811909Y-108645006D01*
X104803173Y-108640932D01*
X104754316Y-108634500D01*
X104678083Y-108634500D01*
X104609962Y-108614498D01*
X104588988Y-108597595D01*
X104341987Y-108350594D01*
X104307961Y-108288282D01*
X104313026Y-108217467D01*
X104355573Y-108160631D01*
X104422093Y-108135820D01*
X104431082Y-108135499D01*
X104479900Y-108135499D01*
X104483988Y-108134961D01*
X104487969Y-108134700D01*
X104557252Y-108150204D01*
X104595769Y-108183203D01*
X104609519Y-108200929D01*
X104714074Y-108305484D01*
X104726501Y-108315124D01*
X104853780Y-108390396D01*
X104868216Y-108396643D01*
X104988605Y-108431619D01*
X105002705Y-108431579D01*
X105006000Y-108424309D01*
X105006000Y-108418558D01*
X105514000Y-108418558D01*
X105518699Y-108434560D01*
X105542579Y-108471720D01*
X105554331Y-108445988D01*
X105614403Y-108407503D01*
X105651782Y-108396644D01*
X105666220Y-108390396D01*
X105793499Y-108315124D01*
X105805926Y-108305484D01*
X105910484Y-108200926D01*
X105920124Y-108188499D01*
X105995396Y-108061220D01*
X106001643Y-108046784D01*
X106043312Y-107903359D01*
X106044768Y-107895391D01*
X106041948Y-107881969D01*
X106030487Y-107879000D01*
X105532115Y-107879000D01*
X105516876Y-107883475D01*
X105515671Y-107884865D01*
X105514000Y-107892548D01*
X105514000Y-108418558D01*
X105006000Y-108418558D01*
X105006000Y-107374566D01*
X106534000Y-107374566D01*
X106538344Y-107389361D01*
X106550003Y-107391421D01*
X106559977Y-107390637D01*
X106572564Y-107388338D01*
X106714783Y-107347019D01*
X106729222Y-107340770D01*
X106855405Y-107266146D01*
X106867841Y-107256499D01*
X106971499Y-107152841D01*
X106981146Y-107140405D01*
X107055770Y-107014222D01*
X107062019Y-106999783D01*
X107094961Y-106886395D01*
X107094921Y-106872295D01*
X107087651Y-106869000D01*
X106552115Y-106869000D01*
X106536876Y-106873475D01*
X106535671Y-106874865D01*
X106534000Y-106882548D01*
X106534000Y-107374566D01*
X105006000Y-107374566D01*
X105006000Y-107352885D01*
X105534000Y-107352885D01*
X105538475Y-107368124D01*
X105539865Y-107369329D01*
X105547548Y-107371000D01*
X106007885Y-107371000D01*
X106023124Y-107366525D01*
X106024329Y-107365135D01*
X106026000Y-107357452D01*
X106026000Y-106897115D01*
X106021525Y-106881876D01*
X106020135Y-106880671D01*
X106012452Y-106879000D01*
X105552115Y-106879000D01*
X105536876Y-106883475D01*
X105535671Y-106884865D01*
X105534000Y-106892548D01*
X105534000Y-107352885D01*
X105006000Y-107352885D01*
X105006000Y-106897115D01*
X105001525Y-106881876D01*
X105000135Y-106880671D01*
X104992452Y-106879000D01*
X103480861Y-106879000D01*
X103425527Y-106866200D01*
X103423150Y-106865038D01*
X103401518Y-106854464D01*
X103391843Y-106853052D01*
X103391841Y-106853052D01*
X103337744Y-106845160D01*
X103337740Y-106845160D01*
X103333218Y-106844500D01*
X101916782Y-106844500D01*
X101912232Y-106845170D01*
X101912229Y-106845170D01*
X101857572Y-106853216D01*
X101857570Y-106853217D01*
X101851706Y-106854080D01*
X101851705Y-106854080D01*
X101847888Y-106854642D01*
X101847814Y-106854141D01*
X101783969Y-106855143D01*
X101728471Y-106822800D01*
X101682863Y-106777192D01*
X101648837Y-106714880D01*
X101647231Y-106705959D01*
X101644284Y-106685380D01*
X101644284Y-106685378D01*
X101643011Y-106676493D01*
X101583672Y-106545983D01*
X101558873Y-106517203D01*
X101495948Y-106444174D01*
X101495945Y-106444171D01*
X101490088Y-106437374D01*
X101397160Y-106377141D01*
X101350877Y-106323307D01*
X101341046Y-106252994D01*
X101370790Y-106188528D01*
X101430665Y-106150377D01*
X101457450Y-106145680D01*
X101460196Y-106145500D01*
X101464316Y-106145500D01*
X101468401Y-106144962D01*
X101468404Y-106144962D01*
X101478793Y-106143594D01*
X101513173Y-106139068D01*
X101560567Y-106116968D01*
X101610411Y-106093725D01*
X101610412Y-106093725D01*
X101620404Y-106089065D01*
X101647064Y-106062405D01*
X101709376Y-106028379D01*
X101736159Y-106025500D01*
X101823841Y-106025500D01*
X101891962Y-106045502D01*
X101912936Y-106062405D01*
X101939596Y-106089065D01*
X101949588Y-106093725D01*
X101949589Y-106093725D01*
X101999434Y-106116968D01*
X102046827Y-106139068D01*
X102095684Y-106145500D01*
X102444316Y-106145500D01*
X102493173Y-106139068D01*
X102540567Y-106116968D01*
X102590411Y-106093725D01*
X102590412Y-106093725D01*
X102600404Y-106089065D01*
X102684065Y-106005404D01*
X102684753Y-106006092D01*
X102732247Y-105968131D01*
X102802867Y-105960823D01*
X102866226Y-105992856D01*
X102874579Y-106002496D01*
X102875935Y-106005404D01*
X102959596Y-106089065D01*
X102969588Y-106093725D01*
X102969589Y-106093725D01*
X103019434Y-106116968D01*
X103066827Y-106139068D01*
X103115684Y-106145500D01*
X103366025Y-106145500D01*
X103434146Y-106165502D01*
X103480639Y-106219158D01*
X103490743Y-106289432D01*
X103487022Y-106306654D01*
X103473381Y-106353606D01*
X103473421Y-106367705D01*
X103480691Y-106371000D01*
X105393885Y-106371000D01*
X105410559Y-106366104D01*
X105446057Y-106361000D01*
X107081900Y-106361000D01*
X107095431Y-106357027D01*
X107096566Y-106349129D01*
X107062019Y-106230217D01*
X107055770Y-106215778D01*
X106981146Y-106089595D01*
X106971499Y-106077159D01*
X106867843Y-105973503D01*
X106855402Y-105963852D01*
X106849766Y-105960519D01*
X106801313Y-105908626D01*
X106788608Y-105838776D01*
X106791645Y-105823369D01*
X106794068Y-105818173D01*
X106800500Y-105769316D01*
X106800500Y-105420684D01*
X106794068Y-105371827D01*
X106755542Y-105289207D01*
X106748725Y-105274589D01*
X106748725Y-105274588D01*
X106744065Y-105264596D01*
X106660404Y-105180935D01*
X106625155Y-105164498D01*
X106561910Y-105135006D01*
X106561909Y-105135006D01*
X106553173Y-105130932D01*
X106504316Y-105124500D01*
X106055684Y-105124500D01*
X106006827Y-105130932D01*
X105998091Y-105135006D01*
X105998090Y-105135006D01*
X105942486Y-105160935D01*
X105899596Y-105180935D01*
X105897962Y-105177430D01*
X105843833Y-105194500D01*
X105564147Y-105194500D01*
X105539493Y-105190981D01*
X105539487Y-105191028D01*
X105493988Y-105185038D01*
X105493987Y-105185038D01*
X105489901Y-105184500D01*
X105418083Y-105184500D01*
X105349962Y-105164498D01*
X105328988Y-105147595D01*
X105117405Y-104936012D01*
X105083379Y-104873700D01*
X105080500Y-104846917D01*
X105080500Y-104311159D01*
X105100502Y-104243038D01*
X105117405Y-104222064D01*
X105144065Y-104195404D01*
X105148725Y-104185411D01*
X105189994Y-104096910D01*
X105189994Y-104096909D01*
X105194068Y-104088173D01*
X105200500Y-104039316D01*
X105200500Y-103690684D01*
X105194068Y-103641827D01*
X105185778Y-103624048D01*
X105148725Y-103544589D01*
X105148725Y-103544588D01*
X105144065Y-103534596D01*
X105060404Y-103450935D01*
X105061092Y-103450247D01*
X105023131Y-103402753D01*
X105015823Y-103332133D01*
X105047856Y-103268774D01*
X105057496Y-103260421D01*
X105060404Y-103259065D01*
X105144065Y-103175404D01*
X105148725Y-103165411D01*
X105189994Y-103076910D01*
X105189994Y-103076909D01*
X105194068Y-103068173D01*
X105200500Y-103019316D01*
X105200500Y-102670684D01*
X105194068Y-102621827D01*
X105179627Y-102590857D01*
X105148725Y-102524589D01*
X105148725Y-102524588D01*
X105144065Y-102514596D01*
X105117405Y-102487936D01*
X105083379Y-102425624D01*
X105080500Y-102398841D01*
X105080500Y-102276724D01*
X105099946Y-102213116D01*
X105099200Y-102212754D01*
X105101522Y-102207961D01*
X105137955Y-102132763D01*
X105157795Y-102091814D01*
X105157795Y-102091813D01*
X105161710Y-102083733D01*
X105185496Y-101942354D01*
X105185647Y-101930000D01*
X105175529Y-101859346D01*
X105166596Y-101796968D01*
X105166595Y-101796965D01*
X105165323Y-101788082D01*
X105105984Y-101657572D01*
X105100312Y-101650989D01*
X105080500Y-101583241D01*
X105080500Y-101144300D01*
X105102724Y-101073816D01*
X105108224Y-101068316D01*
X105149657Y-100979464D01*
X105154898Y-100968224D01*
X105154898Y-100968223D01*
X105158972Y-100959487D01*
X105165500Y-100909901D01*
X105165499Y-100550100D01*
X105164961Y-100546012D01*
X105164700Y-100542031D01*
X105180204Y-100472748D01*
X105213203Y-100434231D01*
X105230929Y-100420481D01*
X105335484Y-100315926D01*
X105345124Y-100303499D01*
X105423498Y-100170975D01*
X105475391Y-100122522D01*
X105545242Y-100109817D01*
X105610873Y-100136892D01*
X105621047Y-100146019D01*
X105622595Y-100147567D01*
X105656621Y-100209879D01*
X105659500Y-100236662D01*
X105659500Y-101345570D01*
X105639498Y-101413691D01*
X105609112Y-101445638D01*
X105603145Y-101448568D01*
X105595788Y-101455937D01*
X105595789Y-101455937D01*
X105528976Y-101522867D01*
X105520707Y-101531150D01*
X105469464Y-101635982D01*
X105467617Y-101648645D01*
X105461644Y-101689589D01*
X105459500Y-101704282D01*
X105459500Y-102945718D01*
X105460170Y-102950268D01*
X105460170Y-102950271D01*
X105464029Y-102976486D01*
X105469642Y-103014612D01*
X105482914Y-103041644D01*
X105514729Y-103106443D01*
X105521068Y-103119355D01*
X105528438Y-103126712D01*
X105585027Y-103183202D01*
X105603650Y-103201793D01*
X105613006Y-103206366D01*
X105613007Y-103206367D01*
X105645460Y-103222230D01*
X105708482Y-103253036D01*
X105738973Y-103257484D01*
X105772256Y-103262340D01*
X105772260Y-103262340D01*
X105776782Y-103263000D01*
X106125500Y-103263000D01*
X106193621Y-103283002D01*
X106240114Y-103336658D01*
X106251500Y-103389000D01*
X106251500Y-103563833D01*
X106234430Y-103617962D01*
X106237935Y-103619596D01*
X106187932Y-103726827D01*
X106181500Y-103775684D01*
X106181500Y-104224316D01*
X106187932Y-104273173D01*
X106192006Y-104281909D01*
X106192006Y-104281910D01*
X106219985Y-104341910D01*
X106237935Y-104380404D01*
X106321596Y-104464065D01*
X106331588Y-104468725D01*
X106331589Y-104468725D01*
X106419739Y-104509830D01*
X106428827Y-104514068D01*
X106477684Y-104520500D01*
X106826316Y-104520500D01*
X106875173Y-104514068D01*
X106877580Y-104512946D01*
X106944806Y-104513080D01*
X107004455Y-104551583D01*
X107017519Y-104569766D01*
X107020852Y-104575402D01*
X107030503Y-104587843D01*
X107134159Y-104691499D01*
X107146595Y-104701146D01*
X107272778Y-104775770D01*
X107287217Y-104782019D01*
X107400605Y-104814961D01*
X107414705Y-104814921D01*
X107418000Y-104807651D01*
X107418000Y-104801900D01*
X107926000Y-104801900D01*
X107929973Y-104815431D01*
X107937871Y-104816566D01*
X108056783Y-104782019D01*
X108071222Y-104775770D01*
X108197405Y-104701146D01*
X108209841Y-104691499D01*
X108313499Y-104587841D01*
X108323146Y-104575405D01*
X108397770Y-104449222D01*
X108404019Y-104434783D01*
X108445338Y-104292564D01*
X108447637Y-104279977D01*
X108448260Y-104272057D01*
X108445090Y-104256970D01*
X108433626Y-104254000D01*
X107944115Y-104254000D01*
X107928876Y-104258475D01*
X107927671Y-104259865D01*
X107926000Y-104267548D01*
X107926000Y-104801900D01*
X107418000Y-104801900D01*
X107418000Y-103727885D01*
X107926000Y-103727885D01*
X107930475Y-103743124D01*
X107931865Y-103744329D01*
X107939548Y-103746000D01*
X108431566Y-103746000D01*
X108446361Y-103741656D01*
X108448421Y-103729997D01*
X108447637Y-103720023D01*
X108445338Y-103707436D01*
X108404019Y-103565217D01*
X108402934Y-103562710D01*
X108402671Y-103560577D01*
X108401807Y-103557604D01*
X108402287Y-103557465D01*
X108394238Y-103492248D01*
X108429477Y-103423576D01*
X108528449Y-103324604D01*
X108538089Y-103312178D01*
X108614648Y-103182721D01*
X108620893Y-103168290D01*
X108663269Y-103022435D01*
X108665570Y-103009833D01*
X108667807Y-102981416D01*
X108668000Y-102976486D01*
X108668000Y-102597115D01*
X108663525Y-102581876D01*
X108662135Y-102580671D01*
X108654452Y-102579000D01*
X108132115Y-102579000D01*
X108116876Y-102583475D01*
X108115671Y-102584865D01*
X108114000Y-102592548D01*
X108114000Y-103484500D01*
X108093998Y-103552621D01*
X108040342Y-103599114D01*
X107988000Y-103610500D01*
X107944115Y-103610500D01*
X107928876Y-103614975D01*
X107927671Y-103616365D01*
X107926000Y-103624048D01*
X107926000Y-103727885D01*
X107418000Y-103727885D01*
X107418000Y-103258000D01*
X107438002Y-103189879D01*
X107491658Y-103143386D01*
X107544000Y-103132000D01*
X107587885Y-103132000D01*
X107603124Y-103127525D01*
X107604329Y-103126135D01*
X107606000Y-103118452D01*
X107606000Y-102597115D01*
X107601525Y-102581876D01*
X107600135Y-102580671D01*
X107592452Y-102579000D01*
X107070116Y-102579000D01*
X107054877Y-102583475D01*
X107048480Y-102590857D01*
X107020917Y-102641335D01*
X106958604Y-102675360D01*
X106887789Y-102670294D01*
X106842727Y-102641334D01*
X106497405Y-102296012D01*
X106463379Y-102233700D01*
X106460500Y-102206917D01*
X106460500Y-101704282D01*
X106451871Y-101645662D01*
X106451784Y-101645074D01*
X106451784Y-101645073D01*
X106450358Y-101635388D01*
X106398932Y-101530645D01*
X106335455Y-101467279D01*
X106323722Y-101455566D01*
X106323721Y-101455566D01*
X106316350Y-101448207D01*
X106311519Y-101445846D01*
X106269489Y-101392314D01*
X106260500Y-101345576D01*
X106260500Y-101337970D01*
X106280502Y-101269849D01*
X106334158Y-101223356D01*
X106404432Y-101213252D01*
X106469012Y-101242746D01*
X106475514Y-101248794D01*
X106553650Y-101326793D01*
X106563006Y-101331366D01*
X106563007Y-101331367D01*
X106592064Y-101345570D01*
X106658482Y-101378036D01*
X106688973Y-101382484D01*
X106722256Y-101387340D01*
X106722260Y-101387340D01*
X106726782Y-101388000D01*
X106958515Y-101388000D01*
X107026636Y-101408002D01*
X107073129Y-101461658D01*
X107083233Y-101531932D01*
X107079512Y-101549153D01*
X107056732Y-101627562D01*
X107054430Y-101640167D01*
X107052193Y-101668584D01*
X107052000Y-101673514D01*
X107052000Y-102052885D01*
X107056475Y-102068124D01*
X107057865Y-102069329D01*
X107065548Y-102071000D01*
X107587885Y-102071000D01*
X107603124Y-102066525D01*
X107604329Y-102065135D01*
X107606000Y-102057452D01*
X107606000Y-102052885D01*
X108114000Y-102052885D01*
X108118475Y-102068124D01*
X108119865Y-102069329D01*
X108127548Y-102071000D01*
X108649884Y-102071000D01*
X108665123Y-102066525D01*
X108666328Y-102065135D01*
X108667999Y-102057452D01*
X108667999Y-101673517D01*
X108667805Y-101668580D01*
X108665570Y-101640164D01*
X108663270Y-101627569D01*
X108620893Y-101481710D01*
X108614648Y-101467279D01*
X108538089Y-101337822D01*
X108528449Y-101325396D01*
X108422104Y-101219051D01*
X108409678Y-101209411D01*
X108280221Y-101132852D01*
X108265790Y-101126607D01*
X108131395Y-101087561D01*
X108117294Y-101087601D01*
X108114000Y-101094870D01*
X108114000Y-102052885D01*
X107606000Y-102052885D01*
X107606000Y-101100622D01*
X107602027Y-101087091D01*
X107594128Y-101085956D01*
X107571655Y-101092485D01*
X107500658Y-101092284D01*
X107441042Y-101053731D01*
X107411732Y-100989066D01*
X107410500Y-100971489D01*
X107410500Y-99829282D01*
X107408303Y-99814354D01*
X107401784Y-99770074D01*
X107401784Y-99770073D01*
X107400358Y-99760388D01*
X107366837Y-99692113D01*
X107353522Y-99664993D01*
X107353521Y-99664991D01*
X107348932Y-99655645D01*
X107327859Y-99634609D01*
X107299787Y-99606585D01*
X107276539Y-99574617D01*
X107274360Y-99570341D01*
X107271296Y-99560910D01*
X107258361Y-99543107D01*
X107248035Y-99526255D01*
X107244849Y-99520003D01*
X107238050Y-99506658D01*
X107215487Y-99484095D01*
X107215484Y-99484091D01*
X106587405Y-98856012D01*
X106553379Y-98793700D01*
X106550500Y-98766917D01*
X106550500Y-98690684D01*
X106544068Y-98641827D01*
X106535923Y-98624359D01*
X106498725Y-98544589D01*
X106498725Y-98544588D01*
X106494065Y-98534596D01*
X106410404Y-98450935D01*
X106411092Y-98450247D01*
X106373131Y-98402753D01*
X106365823Y-98332133D01*
X106397856Y-98268774D01*
X106407496Y-98260421D01*
X106410404Y-98259065D01*
X106467533Y-98201936D01*
X106529845Y-98167910D01*
X106600660Y-98172975D01*
X106657496Y-98215522D01*
X106677625Y-98255878D01*
X106717981Y-98394783D01*
X106724230Y-98409222D01*
X106798854Y-98535405D01*
X106808501Y-98547841D01*
X106912159Y-98651499D01*
X106924595Y-98661146D01*
X107050778Y-98735770D01*
X107065217Y-98742019D01*
X107207436Y-98783338D01*
X107220023Y-98785637D01*
X107227943Y-98786260D01*
X107243030Y-98783090D01*
X107246000Y-98771626D01*
X107246000Y-98769566D01*
X107754000Y-98769566D01*
X107758344Y-98784361D01*
X107770003Y-98786421D01*
X107779977Y-98785637D01*
X107792564Y-98783338D01*
X107934783Y-98742019D01*
X107949222Y-98735770D01*
X108075405Y-98661146D01*
X108087841Y-98651499D01*
X108191499Y-98547841D01*
X108201146Y-98535405D01*
X108275770Y-98409222D01*
X108282019Y-98394783D01*
X108314961Y-98281395D01*
X108314921Y-98267295D01*
X108307651Y-98264000D01*
X107772115Y-98264000D01*
X107756876Y-98268475D01*
X107755671Y-98269865D01*
X107754000Y-98277548D01*
X107754000Y-98769566D01*
X107246000Y-98769566D01*
X107246000Y-97882000D01*
X107266002Y-97813879D01*
X107319658Y-97767386D01*
X107372000Y-97756000D01*
X108301900Y-97756000D01*
X108315431Y-97752027D01*
X108316566Y-97744129D01*
X108282019Y-97625217D01*
X108275770Y-97610778D01*
X108201146Y-97484595D01*
X108191499Y-97472159D01*
X108087843Y-97368503D01*
X108075402Y-97358852D01*
X108069766Y-97355519D01*
X108021313Y-97303626D01*
X108008608Y-97233776D01*
X108011645Y-97218369D01*
X108014068Y-97213173D01*
X108020500Y-97164316D01*
X108020500Y-96815684D01*
X108014068Y-96766827D01*
X108009716Y-96757493D01*
X107968725Y-96669589D01*
X107968725Y-96669588D01*
X107964065Y-96659596D01*
X107880404Y-96575935D01*
X107810749Y-96543454D01*
X107757465Y-96496538D01*
X107738000Y-96429260D01*
X107738000Y-96246490D01*
X107758002Y-96178369D01*
X107811658Y-96131876D01*
X107822253Y-96127607D01*
X107882592Y-96106418D01*
X107882593Y-96106417D01*
X107891476Y-96103298D01*
X107899046Y-96097706D01*
X107899049Y-96097705D01*
X107981940Y-96036479D01*
X107998930Y-96023930D01*
X108031578Y-95979729D01*
X108072705Y-95924049D01*
X108072706Y-95924046D01*
X108078298Y-95916476D01*
X108122560Y-95790434D01*
X108125500Y-95759333D01*
X108125499Y-94740668D01*
X108122560Y-94709566D01*
X108115186Y-94688566D01*
X108089327Y-94614930D01*
X108078298Y-94583524D01*
X108072706Y-94575954D01*
X108072705Y-94575951D01*
X108015610Y-94498653D01*
X107998930Y-94476070D01*
X107971384Y-94455724D01*
X107899049Y-94402295D01*
X107899046Y-94402294D01*
X107891476Y-94396702D01*
X107765434Y-94352440D01*
X107757788Y-94351717D01*
X107757787Y-94351717D01*
X107752118Y-94351181D01*
X107734333Y-94349500D01*
X107721145Y-94349500D01*
X107271081Y-94349501D01*
X107202961Y-94329499D01*
X107156468Y-94275844D01*
X107146364Y-94205570D01*
X107175857Y-94140989D01*
X107181987Y-94134406D01*
X107804995Y-93511398D01*
X107804998Y-93511394D01*
X107827561Y-93488831D01*
X107837546Y-93469234D01*
X107847872Y-93452382D01*
X107860807Y-93434579D01*
X107867606Y-93413655D01*
X107875170Y-93395395D01*
X107880655Y-93384630D01*
X107880656Y-93384626D01*
X107885157Y-93375793D01*
X107886905Y-93364760D01*
X107888598Y-93354067D01*
X107893214Y-93334842D01*
X107896946Y-93323357D01*
X107896947Y-93323353D01*
X107900011Y-93313922D01*
X107900011Y-91072992D01*
X107900010Y-91072986D01*
X107900010Y-91041078D01*
X107896947Y-91031651D01*
X107896946Y-91031644D01*
X107893214Y-91020158D01*
X107888600Y-91000938D01*
X107886710Y-90989004D01*
X107886708Y-90988996D01*
X107885157Y-90979207D01*
X107880657Y-90970376D01*
X107880656Y-90970372D01*
X107875169Y-90959604D01*
X107867605Y-90941343D01*
X107860807Y-90920421D01*
X107847879Y-90902627D01*
X107837549Y-90885770D01*
X107832063Y-90875004D01*
X107832062Y-90875003D01*
X107827561Y-90866169D01*
X107337405Y-90376013D01*
X107303379Y-90313701D01*
X107300500Y-90286918D01*
X107300500Y-88985252D01*
X107294524Y-88955210D01*
X107291288Y-88938939D01*
X107291288Y-88938938D01*
X107288867Y-88926769D01*
X107244552Y-88860448D01*
X107178231Y-88816133D01*
X107166062Y-88813712D01*
X107166061Y-88813712D01*
X107125816Y-88805707D01*
X107119748Y-88804500D01*
X105380252Y-88804500D01*
X105374184Y-88805707D01*
X105333939Y-88813712D01*
X105333938Y-88813712D01*
X105321769Y-88816133D01*
X105255448Y-88860448D01*
X105211133Y-88926769D01*
X105208712Y-88938938D01*
X105208712Y-88938939D01*
X105205476Y-88955210D01*
X105199500Y-88985252D01*
X105199500Y-90724748D01*
X105200707Y-90730816D01*
X105206919Y-90762044D01*
X105211133Y-90783231D01*
X105255448Y-90849552D01*
X105321769Y-90893867D01*
X105333938Y-90896288D01*
X105333939Y-90896288D01*
X105365808Y-90902627D01*
X105380252Y-90905500D01*
X105655233Y-90905500D01*
X105723354Y-90925502D01*
X105769847Y-90979158D01*
X105779951Y-91049432D01*
X105750457Y-91114012D01*
X105713413Y-91143263D01*
X105528463Y-91239542D01*
X105519738Y-91245036D01*
X105349433Y-91372905D01*
X105341726Y-91379748D01*
X105194590Y-91533717D01*
X105188104Y-91541727D01*
X105068098Y-91717649D01*
X105063000Y-91726623D01*
X104973338Y-91919783D01*
X104969775Y-91929470D01*
X104914389Y-92129183D01*
X104915912Y-92137607D01*
X104928292Y-92141000D01*
X106378000Y-92141000D01*
X106446121Y-92161002D01*
X106492614Y-92214658D01*
X106504000Y-92267000D01*
X106504000Y-92523000D01*
X106483998Y-92591121D01*
X106430342Y-92637614D01*
X106378000Y-92649000D01*
X104933225Y-92649000D01*
X104919694Y-92652973D01*
X104918257Y-92662966D01*
X104948565Y-92797446D01*
X104951645Y-92807275D01*
X105031770Y-93004603D01*
X105036413Y-93013794D01*
X105147694Y-93195388D01*
X105153777Y-93203699D01*
X105293213Y-93364667D01*
X105300580Y-93371883D01*
X105464434Y-93507916D01*
X105472881Y-93513831D01*
X105656756Y-93621279D01*
X105666042Y-93625729D01*
X105865001Y-93701703D01*
X105874899Y-93704579D01*
X106083595Y-93747038D01*
X106093823Y-93748257D01*
X106134374Y-93749744D01*
X106201716Y-93772228D01*
X106246212Y-93827551D01*
X106253735Y-93898148D01*
X106218853Y-93964754D01*
X106194516Y-93989091D01*
X106194513Y-93989095D01*
X106171950Y-94011658D01*
X106167446Y-94020498D01*
X106161965Y-94031255D01*
X106151639Y-94048107D01*
X106138704Y-94065910D01*
X106131907Y-94086830D01*
X106124341Y-94105094D01*
X106118856Y-94115859D01*
X106118855Y-94115863D01*
X106114354Y-94124696D01*
X106112803Y-94134487D01*
X106112803Y-94134488D01*
X106110913Y-94146422D01*
X106106297Y-94165647D01*
X106102565Y-94177132D01*
X106102564Y-94177136D01*
X106099500Y-94186567D01*
X106099500Y-94248067D01*
X106079498Y-94316188D01*
X106025842Y-94362681D01*
X105955568Y-94372785D01*
X105931751Y-94366949D01*
X105897685Y-94354986D01*
X105897683Y-94354985D01*
X105890434Y-94352440D01*
X105882788Y-94351717D01*
X105882787Y-94351717D01*
X105877118Y-94351181D01*
X105859333Y-94349500D01*
X105562651Y-94349500D01*
X105265668Y-94349501D01*
X105262718Y-94349780D01*
X105262713Y-94349780D01*
X105252352Y-94350759D01*
X105234566Y-94352440D01*
X105227325Y-94354983D01*
X105227324Y-94354983D01*
X105182790Y-94370622D01*
X105108524Y-94396702D01*
X105100954Y-94402294D01*
X105100951Y-94402295D01*
X105028616Y-94455724D01*
X105001070Y-94476070D01*
X104984390Y-94498653D01*
X104927295Y-94575951D01*
X104927294Y-94575954D01*
X104921702Y-94583524D01*
X104877440Y-94709566D01*
X104874500Y-94740667D01*
X104874501Y-95077073D01*
X104874501Y-95323500D01*
X104854499Y-95391621D01*
X104800843Y-95438114D01*
X104748501Y-95449500D01*
X103789468Y-95449500D01*
X103721347Y-95429498D01*
X103674854Y-95375842D01*
X103664750Y-95305568D01*
X103676076Y-95268562D01*
X103727795Y-95161814D01*
X103727795Y-95161813D01*
X103731710Y-95153733D01*
X103755496Y-95012354D01*
X103755647Y-95000000D01*
X103746983Y-94939498D01*
X103736596Y-94866968D01*
X103736595Y-94866965D01*
X103735323Y-94858082D01*
X103729488Y-94845247D01*
X103679700Y-94735745D01*
X103675984Y-94727572D01*
X103673817Y-94725057D01*
X103654761Y-94659627D01*
X103674913Y-94591550D01*
X103720250Y-94549385D01*
X103728646Y-94544788D01*
X103830724Y-94468285D01*
X103843285Y-94455724D01*
X103919786Y-94353649D01*
X103928324Y-94338054D01*
X103973478Y-94217606D01*
X103977105Y-94202351D01*
X103982631Y-94151486D01*
X103983000Y-94144672D01*
X103983000Y-94043115D01*
X103978525Y-94027876D01*
X103977135Y-94026671D01*
X103969452Y-94025000D01*
X102535116Y-94025000D01*
X102519877Y-94029475D01*
X102518672Y-94030865D01*
X102517001Y-94038548D01*
X102517001Y-94144669D01*
X102517371Y-94151490D01*
X102522895Y-94202352D01*
X102526521Y-94217604D01*
X102571676Y-94338054D01*
X102580214Y-94353649D01*
X102656715Y-94455724D01*
X102669277Y-94468286D01*
X102675132Y-94472674D01*
X102717647Y-94529533D01*
X102722673Y-94600352D01*
X102688613Y-94662645D01*
X102626281Y-94696635D01*
X102599567Y-94699500D01*
X102524486Y-94699500D01*
X102456365Y-94679498D01*
X102435391Y-94662595D01*
X101958487Y-94185691D01*
X101924461Y-94123379D01*
X101929526Y-94052564D01*
X101972073Y-93995728D01*
X102014439Y-93975033D01*
X102027402Y-93971499D01*
X102046030Y-93966421D01*
X102046032Y-93966420D01*
X102054689Y-93964060D01*
X102176863Y-93889045D01*
X102273072Y-93782754D01*
X102335582Y-93653733D01*
X102337071Y-93644881D01*
X102337101Y-93644788D01*
X102376868Y-93585973D01*
X102442119Y-93557995D01*
X102512138Y-93569736D01*
X102514989Y-93571615D01*
X102530548Y-93575000D01*
X103006885Y-93575000D01*
X103022124Y-93570525D01*
X103023329Y-93569135D01*
X103025000Y-93561452D01*
X103025000Y-93556885D01*
X103475000Y-93556885D01*
X103479475Y-93572124D01*
X103480865Y-93573329D01*
X103488548Y-93575000D01*
X103964884Y-93575000D01*
X103980123Y-93570525D01*
X103981328Y-93569135D01*
X103982999Y-93561452D01*
X103982999Y-93455331D01*
X103982629Y-93448510D01*
X103977105Y-93397648D01*
X103973479Y-93382396D01*
X103928324Y-93261946D01*
X103919786Y-93246351D01*
X103843285Y-93144276D01*
X103830724Y-93131715D01*
X103728649Y-93055214D01*
X103713054Y-93046676D01*
X103592606Y-93001522D01*
X103577351Y-92997895D01*
X103526486Y-92992369D01*
X103519672Y-92992000D01*
X103493115Y-92992000D01*
X103477876Y-92996475D01*
X103476671Y-92997865D01*
X103475000Y-93005548D01*
X103475000Y-93556885D01*
X103025000Y-93556885D01*
X103025000Y-93010116D01*
X103020525Y-92994877D01*
X103019135Y-92993672D01*
X103011452Y-92992001D01*
X102980331Y-92992001D01*
X102973510Y-92992371D01*
X102922648Y-92997895D01*
X102907396Y-93001521D01*
X102786946Y-93046676D01*
X102771351Y-93055214D01*
X102669276Y-93131715D01*
X102656715Y-93144276D01*
X102580214Y-93246351D01*
X102571675Y-93261948D01*
X102553642Y-93310051D01*
X102511001Y-93366816D01*
X102444439Y-93391516D01*
X102375090Y-93376309D01*
X102324972Y-93326023D01*
X102320959Y-93317973D01*
X102283573Y-93235746D01*
X102283571Y-93235743D01*
X102279856Y-93227572D01*
X102208083Y-93144276D01*
X102200655Y-93135655D01*
X102171341Y-93070992D01*
X102181640Y-93000747D01*
X102230179Y-92946032D01*
X102262754Y-92926030D01*
X102322991Y-92889045D01*
X102419200Y-92782754D01*
X102465970Y-92686220D01*
X102477795Y-92661814D01*
X102477795Y-92661813D01*
X102481710Y-92653733D01*
X102505496Y-92512354D01*
X102505647Y-92500000D01*
X102497473Y-92442924D01*
X102486596Y-92366968D01*
X102486595Y-92366965D01*
X102485323Y-92358082D01*
X102425984Y-92227572D01*
X102394720Y-92191288D01*
X102338260Y-92125763D01*
X102338257Y-92125760D01*
X102332400Y-92118963D01*
X102212095Y-92040985D01*
X102199948Y-92037352D01*
X102196872Y-92035353D01*
X102195345Y-92034648D01*
X102195447Y-92034428D01*
X102140416Y-91998670D01*
X102111247Y-91933942D01*
X102116019Y-91878324D01*
X102118745Y-91869784D01*
X102122660Y-91861703D01*
X102146446Y-91720324D01*
X102146597Y-91707970D01*
X102136605Y-91638198D01*
X102127546Y-91574938D01*
X102127545Y-91574935D01*
X102126273Y-91566052D01*
X102086534Y-91478650D01*
X102076548Y-91408361D01*
X102106148Y-91343829D01*
X102165938Y-91305545D01*
X102201235Y-91300500D01*
X102698500Y-91300500D01*
X102766621Y-91320502D01*
X102813114Y-91374158D01*
X102824500Y-91426500D01*
X102824500Y-92019748D01*
X102825707Y-92025816D01*
X102828133Y-92038010D01*
X102836133Y-92078231D01*
X102880448Y-92144552D01*
X102946769Y-92188867D01*
X102958938Y-92191288D01*
X102958939Y-92191288D01*
X102999184Y-92199293D01*
X103005252Y-92200500D01*
X103494748Y-92200500D01*
X103500816Y-92199293D01*
X103541061Y-92191288D01*
X103541062Y-92191288D01*
X103553231Y-92188867D01*
X103619552Y-92144552D01*
X103663867Y-92078231D01*
X103671868Y-92038010D01*
X103674293Y-92025816D01*
X103675500Y-92019748D01*
X103675500Y-91380252D01*
X103668255Y-91343829D01*
X103666288Y-91333939D01*
X103666288Y-91333938D01*
X103663867Y-91321769D01*
X103619552Y-91255448D01*
X103609239Y-91248557D01*
X103606922Y-91246240D01*
X103572896Y-91183928D01*
X103577961Y-91113113D01*
X103606921Y-91068050D01*
X104544978Y-90129993D01*
X104547004Y-90128244D01*
X104551789Y-90125905D01*
X104578050Y-90097596D01*
X104585093Y-90090003D01*
X104588373Y-90086598D01*
X104601768Y-90073203D01*
X104604492Y-90069233D01*
X104606817Y-90066585D01*
X104620010Y-90052362D01*
X104627921Y-90043834D01*
X104632233Y-90033027D01*
X104634752Y-90029042D01*
X104640524Y-90018233D01*
X104642431Y-90013928D01*
X104649013Y-90004334D01*
X104654706Y-89980344D01*
X104660271Y-89962748D01*
X104666106Y-89948122D01*
X104669403Y-89939858D01*
X104670020Y-89933565D01*
X104670020Y-89930483D01*
X104670170Y-89927413D01*
X104670386Y-89927424D01*
X104671718Y-89916049D01*
X104672173Y-89906735D01*
X104674860Y-89895414D01*
X104671171Y-89868307D01*
X104670020Y-89851316D01*
X104670020Y-87576500D01*
X104690022Y-87508379D01*
X104743678Y-87461886D01*
X104796020Y-87450500D01*
X105019748Y-87450500D01*
X105025816Y-87449293D01*
X105066061Y-87441288D01*
X105066062Y-87441288D01*
X105078231Y-87438867D01*
X105144552Y-87394552D01*
X105188867Y-87328231D01*
X105191742Y-87313780D01*
X105199293Y-87275816D01*
X105200500Y-87269748D01*
X105200500Y-85730252D01*
X105188867Y-85671769D01*
X105144552Y-85605448D01*
X105078231Y-85561133D01*
X105066062Y-85558712D01*
X105066061Y-85558712D01*
X105025816Y-85550707D01*
X105019748Y-85549500D01*
X103480252Y-85549500D01*
X103474184Y-85550707D01*
X103433939Y-85558712D01*
X103433938Y-85558712D01*
X103421769Y-85561133D01*
X103355448Y-85605448D01*
X103311133Y-85671769D01*
X103299500Y-85730252D01*
X103299500Y-87269748D01*
X103300707Y-87275816D01*
X103308259Y-87313780D01*
X103311133Y-87328231D01*
X103355448Y-87394552D01*
X103421769Y-87438867D01*
X103433938Y-87441288D01*
X103433939Y-87441288D01*
X103474184Y-87449293D01*
X103480252Y-87450500D01*
X103943020Y-87450500D01*
X104011141Y-87470502D01*
X104057634Y-87524158D01*
X104069020Y-87576500D01*
X104069020Y-89703817D01*
X104049018Y-89771938D01*
X104032116Y-89792912D01*
X103802116Y-90022913D01*
X103575056Y-90249973D01*
X103575051Y-90249977D01*
X103575042Y-90249986D01*
X103575022Y-90250005D01*
X103450091Y-90374936D01*
X103387779Y-90408962D01*
X103316964Y-90403897D01*
X103260128Y-90361350D01*
X103235317Y-90294830D01*
X103247604Y-90230903D01*
X103299674Y-90123431D01*
X103299674Y-90123430D01*
X103303589Y-90115350D01*
X103327375Y-89973971D01*
X103327526Y-89961617D01*
X103311730Y-89851316D01*
X103308475Y-89828585D01*
X103308474Y-89828582D01*
X103307202Y-89819699D01*
X103295162Y-89793217D01*
X103285486Y-89771938D01*
X103247863Y-89689189D01*
X103242001Y-89682386D01*
X103237167Y-89674827D01*
X103238855Y-89673747D01*
X103214312Y-89619614D01*
X103224608Y-89549368D01*
X103273150Y-89494648D01*
X103315340Y-89468744D01*
X103315346Y-89468739D01*
X103322991Y-89464045D01*
X103344973Y-89439760D01*
X103413178Y-89364407D01*
X103419200Y-89357754D01*
X103481710Y-89228733D01*
X103505496Y-89087354D01*
X103505647Y-89075000D01*
X103494807Y-88999307D01*
X103486596Y-88941968D01*
X103486595Y-88941965D01*
X103485323Y-88933082D01*
X103425984Y-88802572D01*
X103401948Y-88774677D01*
X103338260Y-88700763D01*
X103338257Y-88700760D01*
X103332400Y-88693963D01*
X103212095Y-88615985D01*
X103074739Y-88574907D01*
X103065763Y-88574852D01*
X103065762Y-88574852D01*
X103005555Y-88574484D01*
X102931376Y-88574031D01*
X102793529Y-88613428D01*
X102672280Y-88689930D01*
X102577377Y-88797388D01*
X102539530Y-88878000D01*
X102528239Y-88902048D01*
X102481182Y-88955210D01*
X102414184Y-88974499D01*
X101709167Y-88974499D01*
X101706494Y-88974303D01*
X101701459Y-88972574D01*
X101689837Y-88973010D01*
X101689835Y-88973010D01*
X101652546Y-88974410D01*
X101647820Y-88974499D01*
X101628853Y-88974499D01*
X101624118Y-88975381D01*
X101620592Y-88975609D01*
X101616852Y-88975750D01*
X101589593Y-88976773D01*
X101578908Y-88981363D01*
X101574308Y-88982400D01*
X101562587Y-88985961D01*
X101558184Y-88987660D01*
X101546748Y-88989790D01*
X101527313Y-89001770D01*
X101525762Y-89002726D01*
X101509390Y-89011230D01*
X101494910Y-89017451D01*
X101494905Y-89017454D01*
X101486738Y-89020963D01*
X101481852Y-89024976D01*
X101479669Y-89027159D01*
X101477393Y-89029223D01*
X101477247Y-89029062D01*
X101468262Y-89036164D01*
X101461355Y-89042428D01*
X101451453Y-89048531D01*
X101434892Y-89070310D01*
X101423697Y-89083131D01*
X101239667Y-89267162D01*
X101069311Y-89437518D01*
X101006998Y-89471543D01*
X100936183Y-89466479D01*
X100910215Y-89453189D01*
X100900436Y-89446655D01*
X100890117Y-89439760D01*
X100813401Y-89424500D01*
X100792092Y-89424500D01*
X100291436Y-89424501D01*
X100223316Y-89404499D01*
X100190610Y-89374065D01*
X100168284Y-89344275D01*
X100155726Y-89331717D01*
X100125934Y-89309389D01*
X100083420Y-89252529D01*
X100075500Y-89208563D01*
X100075500Y-89053958D01*
X100095502Y-88985837D01*
X100149158Y-88939344D01*
X100219432Y-88929240D01*
X100271320Y-88949073D01*
X100282313Y-88956390D01*
X100419157Y-88999142D01*
X100428129Y-88999306D01*
X100428132Y-88999307D01*
X100493463Y-89000504D01*
X100562499Y-89001770D01*
X100571533Y-88999307D01*
X100692158Y-88966421D01*
X100692160Y-88966420D01*
X100700817Y-88964060D01*
X100822991Y-88889045D01*
X100848876Y-88860448D01*
X100905954Y-88797388D01*
X100919200Y-88782754D01*
X100965802Y-88686567D01*
X100977795Y-88661814D01*
X100977795Y-88661813D01*
X100981710Y-88653733D01*
X101005496Y-88512354D01*
X101005647Y-88500000D01*
X100985323Y-88358082D01*
X100925984Y-88227572D01*
X100889721Y-88185487D01*
X100838260Y-88125763D01*
X100838257Y-88125760D01*
X100832400Y-88118963D01*
X100712095Y-88040985D01*
X100574739Y-87999907D01*
X100565763Y-87999852D01*
X100565762Y-87999852D01*
X100505555Y-87999484D01*
X100431376Y-87999031D01*
X100293529Y-88038428D01*
X100291223Y-88039883D01*
X100243924Y-88049980D01*
X99607419Y-88049980D01*
X99539298Y-88029978D01*
X99517692Y-88012439D01*
X99512420Y-88007091D01*
X99500487Y-88004000D01*
X98602000Y-88004000D01*
X98533879Y-87983998D01*
X98487386Y-87930342D01*
X98476000Y-87878000D01*
X98476000Y-87477885D01*
X98984000Y-87477885D01*
X98988475Y-87493124D01*
X98989865Y-87494329D01*
X98997548Y-87496000D01*
X99498424Y-87496000D01*
X99513219Y-87491656D01*
X99515063Y-87481225D01*
X99513312Y-87471641D01*
X99471643Y-87328216D01*
X99465396Y-87313780D01*
X99390124Y-87186501D01*
X99380484Y-87174074D01*
X99275926Y-87069516D01*
X99263499Y-87059876D01*
X99136220Y-86984604D01*
X99121784Y-86978357D01*
X99001395Y-86943381D01*
X98987295Y-86943421D01*
X98984000Y-86950691D01*
X98984000Y-87477885D01*
X98476000Y-87477885D01*
X98476000Y-87022115D01*
X98471525Y-87006876D01*
X98470135Y-87005671D01*
X98462452Y-87004000D01*
X97602000Y-87004000D01*
X97533879Y-86983998D01*
X97487386Y-86930342D01*
X97476000Y-86878000D01*
X97476000Y-86477885D01*
X97984000Y-86477885D01*
X97988475Y-86493124D01*
X97989865Y-86494329D01*
X97997548Y-86496000D01*
X98498424Y-86496000D01*
X98513219Y-86491656D01*
X98515063Y-86481225D01*
X98513312Y-86471641D01*
X98471643Y-86328216D01*
X98465396Y-86313780D01*
X98390124Y-86186501D01*
X98380484Y-86174074D01*
X98275926Y-86069516D01*
X98263499Y-86059876D01*
X98136220Y-85984604D01*
X98121784Y-85978357D01*
X98001395Y-85943381D01*
X97987295Y-85943421D01*
X97984000Y-85950691D01*
X97984000Y-86477885D01*
X97476000Y-86477885D01*
X97476000Y-85956442D01*
X97472027Y-85942911D01*
X97464129Y-85941776D01*
X97338216Y-85978357D01*
X97323780Y-85984604D01*
X97196501Y-86059876D01*
X97184074Y-86069516D01*
X97079519Y-86174071D01*
X97065770Y-86191796D01*
X97008214Y-86233362D01*
X96957970Y-86240299D01*
X96953987Y-86240038D01*
X96949901Y-86239500D01*
X96770088Y-86239500D01*
X96590100Y-86239501D01*
X96540513Y-86246028D01*
X96531779Y-86250101D01*
X96531778Y-86250101D01*
X96464917Y-86281279D01*
X96394725Y-86291940D01*
X96329913Y-86262960D01*
X96322572Y-86256179D01*
X95510909Y-85444516D01*
X95510905Y-85444513D01*
X95488342Y-85421950D01*
X95468746Y-85411965D01*
X95451893Y-85401639D01*
X95434090Y-85388704D01*
X95413166Y-85381905D01*
X95394906Y-85374341D01*
X95384141Y-85368856D01*
X95384137Y-85368855D01*
X95375304Y-85364354D01*
X95365513Y-85362803D01*
X95365512Y-85362803D01*
X95353578Y-85360913D01*
X95334353Y-85356297D01*
X95322868Y-85352565D01*
X95322864Y-85352564D01*
X95313433Y-85349500D01*
X92686567Y-85349500D01*
X92677136Y-85352564D01*
X92677132Y-85352565D01*
X92665647Y-85356297D01*
X92646422Y-85360913D01*
X92634488Y-85362803D01*
X92634487Y-85362803D01*
X92624696Y-85364354D01*
X92615863Y-85368855D01*
X92615859Y-85368856D01*
X92605094Y-85374341D01*
X92586834Y-85381905D01*
X92565910Y-85388704D01*
X92548107Y-85401639D01*
X92531254Y-85411965D01*
X92511658Y-85421950D01*
X92489095Y-85444513D01*
X92489091Y-85444516D01*
X90815595Y-87118012D01*
X90753283Y-87152038D01*
X90682468Y-87146973D01*
X90625632Y-87104426D01*
X90600821Y-87037906D01*
X90600500Y-87028917D01*
X90600500Y-86830252D01*
X90588867Y-86771769D01*
X90544552Y-86705448D01*
X90512658Y-86684137D01*
X90488547Y-86668026D01*
X90478231Y-86661133D01*
X90466062Y-86658712D01*
X90466061Y-86658712D01*
X90425816Y-86650707D01*
X90419748Y-86649500D01*
X86580252Y-86649500D01*
X86574184Y-86650707D01*
X86533939Y-86658712D01*
X86533938Y-86658712D01*
X86521769Y-86661133D01*
X86511453Y-86668026D01*
X86487342Y-86684137D01*
X86455448Y-86705448D01*
X86411133Y-86771769D01*
X86399500Y-86830252D01*
X86399500Y-88231917D01*
X86379498Y-88300038D01*
X86362595Y-88321012D01*
X86194516Y-88489091D01*
X86194513Y-88489095D01*
X86171950Y-88511658D01*
X86167446Y-88520498D01*
X86161965Y-88531255D01*
X86151639Y-88548107D01*
X86138704Y-88565910D01*
X86131907Y-88586830D01*
X86124341Y-88605094D01*
X86118856Y-88615859D01*
X86118855Y-88615863D01*
X86114354Y-88624696D01*
X86112803Y-88634487D01*
X86112803Y-88634488D01*
X86110913Y-88646422D01*
X86106297Y-88665647D01*
X86102565Y-88677132D01*
X86102564Y-88677136D01*
X86099500Y-88686567D01*
X86099500Y-91963433D01*
X86102564Y-91972864D01*
X86102565Y-91972868D01*
X86106297Y-91984353D01*
X86110913Y-92003578D01*
X86114354Y-92025304D01*
X86118855Y-92034137D01*
X86118856Y-92034141D01*
X86124341Y-92044906D01*
X86131905Y-92063166D01*
X86138704Y-92084090D01*
X86151639Y-92101893D01*
X86161965Y-92118745D01*
X86171950Y-92138342D01*
X86194503Y-92160895D01*
X86194530Y-92160924D01*
X86479256Y-92445650D01*
X86513282Y-92507962D01*
X86508217Y-92578777D01*
X86479506Y-92617130D01*
X86481104Y-92618514D01*
X86455671Y-92647865D01*
X86454000Y-92655548D01*
X86454000Y-94278000D01*
X86433998Y-94346121D01*
X86380342Y-94392614D01*
X86328000Y-94404000D01*
X86072000Y-94404000D01*
X86003879Y-94383998D01*
X85957386Y-94330342D01*
X85946000Y-94278000D01*
X85946000Y-92660116D01*
X85941525Y-92644877D01*
X85940135Y-92643672D01*
X85932452Y-92642001D01*
X85405331Y-92642001D01*
X85398510Y-92642371D01*
X85347648Y-92647895D01*
X85332394Y-92651521D01*
X85320727Y-92655895D01*
X85249920Y-92661077D01*
X85187552Y-92627154D01*
X85153424Y-92564898D01*
X85150500Y-92537912D01*
X85150500Y-87186567D01*
X85143703Y-87165648D01*
X85139087Y-87146422D01*
X85137197Y-87134489D01*
X85135646Y-87124696D01*
X85131144Y-87115860D01*
X85125660Y-87105097D01*
X85118096Y-87086836D01*
X85111297Y-87065911D01*
X85098366Y-87048113D01*
X85088037Y-87031257D01*
X85082552Y-87020493D01*
X85082551Y-87020492D01*
X85078050Y-87011658D01*
X85055487Y-86989095D01*
X85055484Y-86989091D01*
X84010909Y-85944516D01*
X84010905Y-85944513D01*
X83988342Y-85921950D01*
X83968746Y-85911965D01*
X83951893Y-85901639D01*
X83934090Y-85888704D01*
X83913166Y-85881905D01*
X83894906Y-85874341D01*
X83884141Y-85868856D01*
X83884137Y-85868855D01*
X83875304Y-85864354D01*
X83865513Y-85862803D01*
X83865512Y-85862803D01*
X83853578Y-85860913D01*
X83834353Y-85856297D01*
X83822868Y-85852565D01*
X83822864Y-85852564D01*
X83813433Y-85849500D01*
X82210364Y-85849500D01*
X82142243Y-85829498D01*
X82095750Y-85775842D01*
X82085646Y-85705568D01*
X82115140Y-85640988D01*
X82137196Y-85620921D01*
X82245327Y-85543792D01*
X82253200Y-85537139D01*
X82404052Y-85386812D01*
X82410730Y-85378965D01*
X82535003Y-85206020D01*
X82540313Y-85197183D01*
X82634670Y-85006267D01*
X82638469Y-84996672D01*
X82700377Y-84792910D01*
X82702555Y-84782837D01*
X82703986Y-84771962D01*
X82701775Y-84757778D01*
X82688617Y-84754000D01*
X81242000Y-84754000D01*
X81173879Y-84733998D01*
X81127386Y-84680342D01*
X81116000Y-84628000D01*
X81116000Y-84227885D01*
X81624000Y-84227885D01*
X81628475Y-84243124D01*
X81629865Y-84244329D01*
X81637548Y-84246000D01*
X82688344Y-84246000D01*
X82701875Y-84242027D01*
X82703180Y-84232947D01*
X82661214Y-84065875D01*
X82657894Y-84056124D01*
X82572972Y-83860814D01*
X82568105Y-83851739D01*
X82452426Y-83672926D01*
X82446136Y-83664757D01*
X82302806Y-83507240D01*
X82295273Y-83500215D01*
X82128139Y-83368222D01*
X82119552Y-83362517D01*
X81933117Y-83259599D01*
X81923705Y-83255369D01*
X81722959Y-83184280D01*
X81712988Y-83181646D01*
X81641837Y-83168972D01*
X81628540Y-83170432D01*
X81624000Y-83184989D01*
X81624000Y-84227885D01*
X81116000Y-84227885D01*
X81116000Y-83183102D01*
X81112082Y-83169758D01*
X81097806Y-83167771D01*
X81059324Y-83173660D01*
X81049288Y-83176051D01*
X80846868Y-83242212D01*
X80837359Y-83246209D01*
X80648463Y-83344542D01*
X80639738Y-83350036D01*
X80469433Y-83477905D01*
X80461726Y-83484748D01*
X80314590Y-83638717D01*
X80308104Y-83646727D01*
X80188098Y-83822649D01*
X80183000Y-83831623D01*
X80093338Y-84024783D01*
X80089775Y-84034470D01*
X80061012Y-84138185D01*
X80023533Y-84198483D01*
X79959405Y-84228946D01*
X79888986Y-84219903D01*
X79834636Y-84174224D01*
X79818973Y-84140933D01*
X79818143Y-84138185D01*
X79805935Y-84097749D01*
X79709218Y-83915849D01*
X79633206Y-83822649D01*
X79582906Y-83760975D01*
X79582903Y-83760972D01*
X79579011Y-83756200D01*
X79561786Y-83741950D01*
X79425025Y-83628811D01*
X79425021Y-83628809D01*
X79420275Y-83624882D01*
X79239055Y-83526897D01*
X79219241Y-83520764D01*
X79160083Y-83481515D01*
X79131534Y-83416511D01*
X79130500Y-83400399D01*
X79130500Y-82370372D01*
X79130697Y-82367695D01*
X79132426Y-82362658D01*
X79131884Y-82348202D01*
X79130589Y-82313730D01*
X79130500Y-82309003D01*
X79130500Y-82290052D01*
X79129618Y-82285319D01*
X79129390Y-82281792D01*
X79128663Y-82262420D01*
X79128662Y-82262418D01*
X79128226Y-82250792D01*
X79126112Y-82245871D01*
X80223776Y-82245871D01*
X80260357Y-82371784D01*
X80266604Y-82386220D01*
X80341876Y-82513499D01*
X80351516Y-82525926D01*
X80456074Y-82630484D01*
X80468501Y-82640124D01*
X80595780Y-82715396D01*
X80610216Y-82721643D01*
X80753641Y-82763312D01*
X80761609Y-82764768D01*
X80775031Y-82761948D01*
X80778000Y-82750487D01*
X80778000Y-82748424D01*
X81286000Y-82748424D01*
X81290344Y-82763219D01*
X81300775Y-82765063D01*
X81310359Y-82763312D01*
X81453784Y-82721643D01*
X81468220Y-82715396D01*
X81595499Y-82640124D01*
X81607926Y-82630484D01*
X81696315Y-82542095D01*
X96645028Y-82542095D01*
X96670534Y-82809431D01*
X96671619Y-82813865D01*
X96671620Y-82813871D01*
X96680208Y-82848966D01*
X96734364Y-83070285D01*
X96835182Y-83319192D01*
X96970875Y-83550938D01*
X97033152Y-83628811D01*
X97085225Y-83693925D01*
X97138601Y-83760669D01*
X97334846Y-83943991D01*
X97427039Y-84007948D01*
X97551746Y-84094461D01*
X97551751Y-84094464D01*
X97555499Y-84097064D01*
X97559584Y-84099096D01*
X97559587Y-84099098D01*
X97568727Y-84103645D01*
X97795938Y-84216680D01*
X97800272Y-84218101D01*
X97800275Y-84218102D01*
X98046793Y-84298915D01*
X98046798Y-84298916D01*
X98051126Y-84300335D01*
X98055617Y-84301115D01*
X98055618Y-84301115D01*
X98311936Y-84345620D01*
X98311944Y-84345621D01*
X98315717Y-84346276D01*
X98319554Y-84346467D01*
X98398996Y-84350422D01*
X98399004Y-84350422D01*
X98400567Y-84350500D01*
X98568223Y-84350500D01*
X98570491Y-84350335D01*
X98570503Y-84350335D01*
X98700823Y-84340879D01*
X98767846Y-84336016D01*
X98772301Y-84335032D01*
X98772304Y-84335032D01*
X99025620Y-84279105D01*
X99025624Y-84279104D01*
X99030080Y-84278120D01*
X99197617Y-84214646D01*
X99276941Y-84184593D01*
X99276944Y-84184592D01*
X99281211Y-84182975D01*
X99515976Y-84052574D01*
X99658254Y-83943991D01*
X99725833Y-83892417D01*
X99725837Y-83892413D01*
X99729458Y-83889650D01*
X99917185Y-83697614D01*
X100043456Y-83524137D01*
X100072538Y-83484183D01*
X100072540Y-83484180D01*
X100075225Y-83480491D01*
X100162313Y-83314963D01*
X100198140Y-83246868D01*
X100198143Y-83246862D01*
X100200265Y-83242828D01*
X100220941Y-83184280D01*
X100288165Y-82993916D01*
X100288165Y-82993915D01*
X100289688Y-82989603D01*
X100314778Y-82862306D01*
X100340739Y-82730594D01*
X100340740Y-82730588D01*
X100341620Y-82726122D01*
X100343846Y-82681408D01*
X100354745Y-82462474D01*
X100354745Y-82462468D01*
X100354972Y-82457905D01*
X100329466Y-82190569D01*
X100328228Y-82185507D01*
X100266721Y-81934149D01*
X100265636Y-81929715D01*
X100258386Y-81911814D01*
X100166531Y-81685037D01*
X100166531Y-81685036D01*
X100164818Y-81680808D01*
X100029125Y-81449062D01*
X99918211Y-81310371D01*
X99864251Y-81242897D01*
X99864250Y-81242895D01*
X99861399Y-81239331D01*
X99665154Y-81056009D01*
X99505436Y-80945208D01*
X99448254Y-80905539D01*
X99448249Y-80905536D01*
X99444501Y-80902936D01*
X99440416Y-80900904D01*
X99440413Y-80900902D01*
X99271812Y-80817025D01*
X99204062Y-80783320D01*
X99199728Y-80781899D01*
X99199725Y-80781898D01*
X98953207Y-80701085D01*
X98953202Y-80701084D01*
X98948874Y-80699665D01*
X98944382Y-80698885D01*
X98688064Y-80654380D01*
X98688056Y-80654379D01*
X98684283Y-80653724D01*
X98675622Y-80653293D01*
X98601004Y-80649578D01*
X98600996Y-80649578D01*
X98599433Y-80649500D01*
X98431777Y-80649500D01*
X98429509Y-80649665D01*
X98429497Y-80649665D01*
X98299177Y-80659121D01*
X98232154Y-80663984D01*
X98227699Y-80664968D01*
X98227696Y-80664968D01*
X97974380Y-80720895D01*
X97974376Y-80720896D01*
X97969920Y-80721880D01*
X97874345Y-80758090D01*
X97723059Y-80815407D01*
X97723056Y-80815408D01*
X97718789Y-80817025D01*
X97484024Y-80947426D01*
X97480392Y-80950198D01*
X97274167Y-81107583D01*
X97274163Y-81107587D01*
X97270542Y-81110350D01*
X97082815Y-81302386D01*
X97069700Y-81320404D01*
X96932694Y-81508630D01*
X96924775Y-81519509D01*
X96879666Y-81605247D01*
X96801860Y-81753132D01*
X96801857Y-81753138D01*
X96799735Y-81757172D01*
X96798215Y-81761477D01*
X96798213Y-81761481D01*
X96738804Y-81929715D01*
X96710312Y-82010397D01*
X96704594Y-82039407D01*
X96660845Y-82261374D01*
X96658380Y-82273878D01*
X96658153Y-82278431D01*
X96658153Y-82278434D01*
X96645340Y-82535834D01*
X96645028Y-82542095D01*
X81696315Y-82542095D01*
X81712484Y-82525926D01*
X81722124Y-82513499D01*
X81797396Y-82386220D01*
X81803643Y-82371784D01*
X81838619Y-82251395D01*
X81838579Y-82237295D01*
X81831309Y-82234000D01*
X81304115Y-82234000D01*
X81288876Y-82238475D01*
X81287671Y-82239865D01*
X81286000Y-82247548D01*
X81286000Y-82748424D01*
X80778000Y-82748424D01*
X80778000Y-82252115D01*
X80773525Y-82236876D01*
X80772135Y-82235671D01*
X80764452Y-82234000D01*
X80238442Y-82234000D01*
X80224911Y-82237973D01*
X80223776Y-82245871D01*
X79126112Y-82245871D01*
X79123632Y-82240100D01*
X79122595Y-82235497D01*
X79119038Y-82223787D01*
X79117339Y-82219384D01*
X79115209Y-82207947D01*
X79109106Y-82198046D01*
X79109105Y-82198043D01*
X79102271Y-82186956D01*
X79093767Y-82170585D01*
X79087546Y-82156106D01*
X79087544Y-82156103D01*
X79084036Y-82147938D01*
X79080023Y-82143051D01*
X79078945Y-82141973D01*
X79073776Y-82133479D01*
X79075929Y-82132169D01*
X79053352Y-82079057D01*
X79052500Y-82064431D01*
X79052500Y-81845684D01*
X79046068Y-81796827D01*
X79027577Y-81757172D01*
X79000725Y-81699589D01*
X79000725Y-81699588D01*
X78996065Y-81689596D01*
X78912404Y-81605935D01*
X78913092Y-81605247D01*
X78875131Y-81557753D01*
X78867823Y-81487133D01*
X78899856Y-81423774D01*
X78909496Y-81415421D01*
X78912404Y-81414065D01*
X78969064Y-81357405D01*
X79031376Y-81323379D01*
X79058159Y-81320500D01*
X80195491Y-81320500D01*
X80263612Y-81340502D01*
X80310105Y-81394158D01*
X80320209Y-81464432D01*
X80303945Y-81510639D01*
X80266604Y-81573780D01*
X80260357Y-81588216D01*
X80225381Y-81708605D01*
X80225421Y-81722705D01*
X80232691Y-81726000D01*
X81825558Y-81726000D01*
X81839089Y-81722027D01*
X81840224Y-81714129D01*
X81801736Y-81581653D01*
X81801939Y-81510657D01*
X81840493Y-81451040D01*
X81905157Y-81421732D01*
X81922733Y-81420500D01*
X91801917Y-81420500D01*
X91870038Y-81440502D01*
X91891012Y-81457405D01*
X92224177Y-81790570D01*
X92258203Y-81852882D01*
X92260018Y-81863326D01*
X92262980Y-81885979D01*
X92266595Y-81894194D01*
X92315828Y-82006084D01*
X92320720Y-82017203D01*
X92326497Y-82024076D01*
X92326498Y-82024077D01*
X92378039Y-82085393D01*
X92412970Y-82126948D01*
X92428359Y-82137192D01*
X92519774Y-82198043D01*
X92532313Y-82206390D01*
X92669157Y-82249142D01*
X92678129Y-82249306D01*
X92678132Y-82249307D01*
X92743463Y-82250504D01*
X92812499Y-82251770D01*
X92821533Y-82249307D01*
X92942158Y-82216421D01*
X92942160Y-82216420D01*
X92950817Y-82214060D01*
X93072991Y-82139045D01*
X93082006Y-82129086D01*
X93163178Y-82039407D01*
X93169200Y-82032754D01*
X93231710Y-81903733D01*
X93255496Y-81762354D01*
X93255647Y-81750000D01*
X93245738Y-81680808D01*
X93236596Y-81616968D01*
X93236595Y-81616965D01*
X93235323Y-81608082D01*
X93229933Y-81596226D01*
X93210644Y-81553804D01*
X93175984Y-81477572D01*
X93154818Y-81453008D01*
X93088260Y-81375763D01*
X93088257Y-81375760D01*
X93082400Y-81368963D01*
X92962095Y-81290985D01*
X92843188Y-81255424D01*
X92790196Y-81223803D01*
X92280909Y-80714516D01*
X92280905Y-80714513D01*
X92258342Y-80691950D01*
X92238746Y-80681965D01*
X92221893Y-80671639D01*
X92204090Y-80658704D01*
X92183166Y-80651905D01*
X92164906Y-80644341D01*
X92154141Y-80638856D01*
X92154137Y-80638855D01*
X92145304Y-80634354D01*
X92135513Y-80632803D01*
X92135512Y-80632803D01*
X92123578Y-80630913D01*
X92104353Y-80626297D01*
X92092868Y-80622565D01*
X92092864Y-80622564D01*
X92083433Y-80619500D01*
X81469159Y-80619500D01*
X81401801Y-80598261D01*
X81400316Y-80596776D01*
X81291487Y-80546028D01*
X81241901Y-80539500D01*
X81032077Y-80539500D01*
X80822100Y-80539501D01*
X80772513Y-80546028D01*
X80763779Y-80550101D01*
X80763778Y-80550101D01*
X80673677Y-80592116D01*
X80663684Y-80596776D01*
X80578776Y-80681684D01*
X80575921Y-80678829D01*
X80536789Y-80710103D01*
X80489043Y-80719500D01*
X79094262Y-80719500D01*
X79026141Y-80699498D01*
X78996907Y-80671401D01*
X78996065Y-80669596D01*
X78912404Y-80585935D01*
X78880966Y-80571275D01*
X78813910Y-80540006D01*
X78813909Y-80540006D01*
X78805173Y-80535932D01*
X78756316Y-80529500D01*
X78307684Y-80529500D01*
X78258827Y-80535932D01*
X78250091Y-80540006D01*
X78250090Y-80540006D01*
X78183034Y-80571275D01*
X78151596Y-80585935D01*
X78067935Y-80669596D01*
X78063275Y-80679588D01*
X78063275Y-80679589D01*
X78046985Y-80714524D01*
X78017932Y-80776827D01*
X78011500Y-80825684D01*
X78011500Y-81174316D01*
X78017932Y-81223173D01*
X78022006Y-81231909D01*
X78022006Y-81231910D01*
X78063272Y-81320404D01*
X78067935Y-81330404D01*
X78151596Y-81414065D01*
X78150908Y-81414753D01*
X78188869Y-81462247D01*
X78196177Y-81532867D01*
X78164144Y-81596226D01*
X78154504Y-81604579D01*
X78151596Y-81605935D01*
X78067935Y-81689596D01*
X78063275Y-81699588D01*
X78063275Y-81699589D01*
X78036424Y-81757172D01*
X78017932Y-81796827D01*
X78011500Y-81845684D01*
X78011500Y-82194316D01*
X78017932Y-82243173D01*
X78022006Y-82251909D01*
X78022006Y-82251910D01*
X78052948Y-82318265D01*
X78067935Y-82350404D01*
X78151596Y-82434065D01*
X78161588Y-82438725D01*
X78161589Y-82438725D01*
X78250022Y-82479962D01*
X78258827Y-82484068D01*
X78307684Y-82490500D01*
X78403500Y-82490500D01*
X78471621Y-82510502D01*
X78518114Y-82564158D01*
X78529500Y-82616500D01*
X78529500Y-83399081D01*
X78509498Y-83467202D01*
X78455842Y-83513695D01*
X78444123Y-83518069D01*
X78440480Y-83519541D01*
X78434572Y-83521280D01*
X78252002Y-83616726D01*
X78247201Y-83620586D01*
X78247198Y-83620588D01*
X78214688Y-83646727D01*
X78091447Y-83745815D01*
X77959024Y-83903630D01*
X77956056Y-83909028D01*
X77956053Y-83909033D01*
X77875922Y-84054792D01*
X77859776Y-84084162D01*
X77797484Y-84280532D01*
X77796798Y-84286649D01*
X77796797Y-84286653D01*
X77789636Y-84350500D01*
X77774520Y-84485262D01*
X77775036Y-84491406D01*
X77790902Y-84680342D01*
X77791759Y-84690553D01*
X77793458Y-84696478D01*
X77839395Y-84856678D01*
X77848544Y-84888586D01*
X77851359Y-84894063D01*
X77851360Y-84894066D01*
X77939897Y-85066341D01*
X77942712Y-85071818D01*
X78070677Y-85233270D01*
X78075370Y-85237264D01*
X78075371Y-85237265D01*
X78215234Y-85356297D01*
X78227564Y-85366791D01*
X78232942Y-85369797D01*
X78232944Y-85369798D01*
X78271342Y-85391258D01*
X78407398Y-85467297D01*
X78491280Y-85494552D01*
X78597471Y-85529056D01*
X78597475Y-85529057D01*
X78603329Y-85530959D01*
X78807894Y-85555351D01*
X78814029Y-85554879D01*
X78814031Y-85554879D01*
X78870939Y-85550500D01*
X79013300Y-85539546D01*
X79019230Y-85537890D01*
X79019232Y-85537890D01*
X79205797Y-85485800D01*
X79205796Y-85485800D01*
X79211725Y-85484145D01*
X79217214Y-85481372D01*
X79217220Y-85481370D01*
X79354617Y-85411965D01*
X79395610Y-85391258D01*
X79402800Y-85385641D01*
X79553101Y-85268213D01*
X79557951Y-85264424D01*
X79615992Y-85197183D01*
X79688540Y-85113134D01*
X79688540Y-85113133D01*
X79692564Y-85108472D01*
X79713387Y-85071818D01*
X79731056Y-85040714D01*
X79794323Y-84929344D01*
X79803271Y-84902444D01*
X79818496Y-84856678D01*
X79858978Y-84798354D01*
X79924566Y-84771175D01*
X79994437Y-84783770D01*
X80046406Y-84832141D01*
X80060971Y-84868751D01*
X80068564Y-84902444D01*
X80071645Y-84912275D01*
X80151770Y-85109603D01*
X80156413Y-85118794D01*
X80267694Y-85300388D01*
X80273777Y-85308699D01*
X80413213Y-85469667D01*
X80420580Y-85476883D01*
X80584439Y-85612921D01*
X80594959Y-85620287D01*
X80639288Y-85675744D01*
X80646597Y-85746363D01*
X80614567Y-85809724D01*
X80553365Y-85845709D01*
X80522689Y-85849500D01*
X72276500Y-85849500D01*
X72208379Y-85829498D01*
X72161886Y-85775842D01*
X72150500Y-85723500D01*
X72150500Y-85369748D01*
X72699500Y-85369748D01*
X72700707Y-85375816D01*
X72705843Y-85401634D01*
X72711133Y-85428231D01*
X72755448Y-85494552D01*
X72821769Y-85538867D01*
X72833938Y-85541288D01*
X72833939Y-85541288D01*
X72874184Y-85549293D01*
X72880252Y-85550500D01*
X74619748Y-85550500D01*
X74625816Y-85549293D01*
X74666061Y-85541288D01*
X74666062Y-85541288D01*
X74678231Y-85538867D01*
X74744552Y-85494552D01*
X74788867Y-85428231D01*
X74794158Y-85401634D01*
X74799293Y-85375816D01*
X74800500Y-85369748D01*
X74800500Y-83630252D01*
X74788867Y-83571769D01*
X74744552Y-83505448D01*
X74678231Y-83461133D01*
X74666062Y-83458712D01*
X74666061Y-83458712D01*
X74625816Y-83450707D01*
X74619748Y-83449500D01*
X72880252Y-83449500D01*
X72874184Y-83450707D01*
X72833939Y-83458712D01*
X72833938Y-83458712D01*
X72821769Y-83461133D01*
X72755448Y-83505448D01*
X72711133Y-83571769D01*
X72699500Y-83630252D01*
X72699500Y-85369748D01*
X72150500Y-85369748D01*
X72150500Y-82917087D01*
X72170502Y-82848966D01*
X72187405Y-82827992D01*
X72596956Y-82418441D01*
X72659268Y-82384415D01*
X72730083Y-82389480D01*
X72786919Y-82432027D01*
X72794505Y-82443398D01*
X72841874Y-82523497D01*
X72851516Y-82535926D01*
X72956074Y-82640484D01*
X72968501Y-82650124D01*
X73095780Y-82725396D01*
X73110216Y-82731643D01*
X73253641Y-82773312D01*
X73261609Y-82774768D01*
X73275031Y-82771948D01*
X73278000Y-82760487D01*
X73278000Y-82758424D01*
X73786000Y-82758424D01*
X73790344Y-82773219D01*
X73800775Y-82775063D01*
X73810359Y-82773312D01*
X73953784Y-82731643D01*
X73968220Y-82725396D01*
X74095499Y-82650124D01*
X74107926Y-82640484D01*
X74212484Y-82535926D01*
X74222124Y-82523499D01*
X74297396Y-82396220D01*
X74303643Y-82381784D01*
X74338619Y-82261395D01*
X74338579Y-82247295D01*
X74331309Y-82244000D01*
X73804115Y-82244000D01*
X73788876Y-82248475D01*
X73787671Y-82249865D01*
X73786000Y-82257548D01*
X73786000Y-82758424D01*
X73278000Y-82758424D01*
X73278000Y-81862000D01*
X73298002Y-81793879D01*
X73351658Y-81747386D01*
X73404000Y-81736000D01*
X74325558Y-81736000D01*
X74339089Y-81732027D01*
X74340224Y-81724129D01*
X74303643Y-81598216D01*
X74297396Y-81583780D01*
X74260055Y-81520639D01*
X74242596Y-81451822D01*
X74265113Y-81384491D01*
X74320458Y-81340022D01*
X74368509Y-81330500D01*
X75525841Y-81330500D01*
X75593962Y-81350502D01*
X75614936Y-81367405D01*
X75651596Y-81404065D01*
X75650908Y-81404753D01*
X75688869Y-81452247D01*
X75696177Y-81522867D01*
X75664144Y-81586226D01*
X75654504Y-81594579D01*
X75651596Y-81595935D01*
X75567935Y-81679596D01*
X75563275Y-81689588D01*
X75563275Y-81689589D01*
X75537351Y-81745184D01*
X75517932Y-81786827D01*
X75511500Y-81835684D01*
X75511500Y-82184316D01*
X75517932Y-82233173D01*
X75522006Y-82241909D01*
X75522006Y-82241910D01*
X75557611Y-82318265D01*
X75567935Y-82340404D01*
X75651596Y-82424065D01*
X75661588Y-82428725D01*
X75661589Y-82428725D01*
X75733964Y-82462474D01*
X75758827Y-82474068D01*
X75807684Y-82480500D01*
X75863500Y-82480500D01*
X75931621Y-82500502D01*
X75978114Y-82554158D01*
X75989500Y-82606500D01*
X75989500Y-83399081D01*
X75969498Y-83467202D01*
X75915842Y-83513695D01*
X75904123Y-83518069D01*
X75900480Y-83519541D01*
X75894572Y-83521280D01*
X75712002Y-83616726D01*
X75707201Y-83620586D01*
X75707198Y-83620588D01*
X75674688Y-83646727D01*
X75551447Y-83745815D01*
X75419024Y-83903630D01*
X75416056Y-83909028D01*
X75416053Y-83909033D01*
X75335922Y-84054792D01*
X75319776Y-84084162D01*
X75257484Y-84280532D01*
X75256798Y-84286649D01*
X75256797Y-84286653D01*
X75249636Y-84350500D01*
X75234520Y-84485262D01*
X75235036Y-84491406D01*
X75250902Y-84680342D01*
X75251759Y-84690553D01*
X75253458Y-84696478D01*
X75299395Y-84856678D01*
X75308544Y-84888586D01*
X75311359Y-84894063D01*
X75311360Y-84894066D01*
X75399897Y-85066341D01*
X75402712Y-85071818D01*
X75530677Y-85233270D01*
X75535370Y-85237264D01*
X75535371Y-85237265D01*
X75675234Y-85356297D01*
X75687564Y-85366791D01*
X75692942Y-85369797D01*
X75692944Y-85369798D01*
X75731342Y-85391258D01*
X75867398Y-85467297D01*
X75951280Y-85494552D01*
X76057471Y-85529056D01*
X76057475Y-85529057D01*
X76063329Y-85530959D01*
X76267894Y-85555351D01*
X76274029Y-85554879D01*
X76274031Y-85554879D01*
X76330939Y-85550500D01*
X76473300Y-85539546D01*
X76479230Y-85537890D01*
X76479232Y-85537890D01*
X76665797Y-85485800D01*
X76665796Y-85485800D01*
X76671725Y-85484145D01*
X76677214Y-85481372D01*
X76677220Y-85481370D01*
X76814617Y-85411965D01*
X76855610Y-85391258D01*
X76862800Y-85385641D01*
X77013101Y-85268213D01*
X77017951Y-85264424D01*
X77075992Y-85197183D01*
X77148540Y-85113134D01*
X77148540Y-85113133D01*
X77152564Y-85108472D01*
X77173387Y-85071818D01*
X77191056Y-85040714D01*
X77254323Y-84929344D01*
X77319351Y-84733863D01*
X77345171Y-84529474D01*
X77345583Y-84500000D01*
X77325480Y-84294970D01*
X77265935Y-84097749D01*
X77169218Y-83915849D01*
X77093206Y-83822649D01*
X77042906Y-83760975D01*
X77042903Y-83760972D01*
X77039011Y-83756200D01*
X77021786Y-83741950D01*
X76885025Y-83628811D01*
X76885021Y-83628809D01*
X76880275Y-83624882D01*
X76699055Y-83526897D01*
X76679241Y-83520764D01*
X76620083Y-83481515D01*
X76591534Y-83416511D01*
X76590500Y-83400399D01*
X76590500Y-82320366D01*
X76590696Y-82317693D01*
X76592425Y-82312658D01*
X76591577Y-82290052D01*
X76590589Y-82263745D01*
X76590500Y-82259019D01*
X76590500Y-82240052D01*
X76589618Y-82235317D01*
X76589390Y-82231791D01*
X76588662Y-82212415D01*
X76588226Y-82200792D01*
X76583636Y-82190107D01*
X76582599Y-82185507D01*
X76579038Y-82173786D01*
X76577339Y-82169383D01*
X76575209Y-82157947D01*
X76569104Y-82148043D01*
X76564917Y-82137192D01*
X76566959Y-82136404D01*
X76552500Y-82085393D01*
X76552500Y-81835684D01*
X76546068Y-81786827D01*
X76526650Y-81745184D01*
X76500725Y-81689589D01*
X76500725Y-81689588D01*
X76496065Y-81679596D01*
X76412404Y-81595935D01*
X76413092Y-81595247D01*
X76375131Y-81547753D01*
X76367823Y-81477133D01*
X76399856Y-81413774D01*
X76409496Y-81405421D01*
X76412404Y-81404065D01*
X76496065Y-81320404D01*
X76507505Y-81295871D01*
X76541994Y-81221910D01*
X76541994Y-81221909D01*
X76546068Y-81213173D01*
X76552500Y-81164316D01*
X76552500Y-80815684D01*
X76546068Y-80766827D01*
X76524650Y-80720895D01*
X76500725Y-80669589D01*
X76500725Y-80669588D01*
X76496065Y-80659596D01*
X76412404Y-80575935D01*
X76402411Y-80571275D01*
X76313910Y-80530006D01*
X76313909Y-80530006D01*
X76305173Y-80525932D01*
X76256316Y-80519500D01*
X75807684Y-80519500D01*
X75758827Y-80525932D01*
X75750091Y-80530006D01*
X75750090Y-80530006D01*
X75661589Y-80571275D01*
X75651596Y-80575935D01*
X75567935Y-80659596D01*
X75563276Y-80669586D01*
X75558945Y-80675772D01*
X75503487Y-80720100D01*
X75455733Y-80729500D01*
X74074957Y-80729500D01*
X74006836Y-80709498D01*
X73986731Y-80690177D01*
X73985224Y-80691684D01*
X73900316Y-80606776D01*
X73872346Y-80593733D01*
X73800224Y-80560102D01*
X73800223Y-80560102D01*
X73791487Y-80556028D01*
X73741901Y-80549500D01*
X73532077Y-80549500D01*
X73322100Y-80549501D01*
X73272513Y-80556028D01*
X73263779Y-80560101D01*
X73263778Y-80560101D01*
X73185268Y-80596711D01*
X73163684Y-80606776D01*
X73078776Y-80691684D01*
X73074117Y-80701676D01*
X73074116Y-80701677D01*
X73032102Y-80791776D01*
X73028028Y-80800513D01*
X73026770Y-80810070D01*
X73026769Y-80810073D01*
X73025413Y-80820376D01*
X72996691Y-80885304D01*
X72989586Y-80893026D01*
X71444516Y-82438095D01*
X71444513Y-82438099D01*
X71421950Y-82460662D01*
X71414063Y-82476142D01*
X71411965Y-82480259D01*
X71401639Y-82497111D01*
X71388704Y-82514914D01*
X71381907Y-82535834D01*
X71374341Y-82554098D01*
X71368856Y-82564863D01*
X71368855Y-82564867D01*
X71364354Y-82573700D01*
X71362803Y-82583491D01*
X71362803Y-82583492D01*
X71360913Y-82595426D01*
X71356297Y-82614651D01*
X71352565Y-82626136D01*
X71352564Y-82626140D01*
X71349500Y-82635571D01*
X71349500Y-86063433D01*
X71352564Y-86072864D01*
X71352565Y-86072868D01*
X71356297Y-86084353D01*
X71360913Y-86103578D01*
X71364354Y-86125304D01*
X71368855Y-86134137D01*
X71368856Y-86134141D01*
X71374341Y-86144906D01*
X71381905Y-86163166D01*
X71388704Y-86184090D01*
X71401639Y-86201893D01*
X71411965Y-86218745D01*
X71421950Y-86238342D01*
X71444503Y-86260895D01*
X71444516Y-86260909D01*
X71671950Y-86488342D01*
X71761658Y-86578050D01*
X71770494Y-86582552D01*
X71770495Y-86582553D01*
X71781259Y-86588038D01*
X71798116Y-86598368D01*
X71815910Y-86611296D01*
X71836832Y-86618094D01*
X71855093Y-86625658D01*
X71865861Y-86631145D01*
X71865865Y-86631146D01*
X71874696Y-86635646D01*
X71884485Y-86637197D01*
X71884493Y-86637199D01*
X71896427Y-86639089D01*
X71915647Y-86643703D01*
X71927133Y-86647435D01*
X71927140Y-86647436D01*
X71936567Y-86650499D01*
X71968477Y-86650499D01*
X71968481Y-86650500D01*
X83531917Y-86650500D01*
X83600038Y-86670502D01*
X83621012Y-86687405D01*
X84088534Y-87154927D01*
X84122560Y-87217239D01*
X84117495Y-87288054D01*
X84074948Y-87344890D01*
X84047123Y-87355268D01*
X84043239Y-87358634D01*
X84034311Y-87360047D01*
X84008428Y-87369701D01*
X83999336Y-87370022D01*
X83990794Y-87370015D01*
X83990797Y-87366935D01*
X83990723Y-87366946D01*
X83990723Y-87370000D01*
X83973877Y-87370000D01*
X83922551Y-87369955D01*
X83922555Y-87365150D01*
X83922457Y-87365144D01*
X83922457Y-87370000D01*
X69689000Y-87370000D01*
X69620879Y-87349998D01*
X69574386Y-87296342D01*
X69563000Y-87244000D01*
X69563000Y-81665983D01*
X69583002Y-81597862D01*
X69603976Y-81572994D01*
X70215301Y-81014029D01*
X70219140Y-81010659D01*
X70957468Y-80388602D01*
X70961442Y-80385390D01*
X71086881Y-80288120D01*
X71724368Y-79793790D01*
X71728425Y-79790773D01*
X72514761Y-79230551D01*
X72518971Y-79227679D01*
X73067109Y-78869748D01*
X85174500Y-78869748D01*
X85175707Y-78875816D01*
X85183261Y-78913790D01*
X85186133Y-78928231D01*
X85193026Y-78938547D01*
X85209137Y-78962658D01*
X85230448Y-78994552D01*
X85296769Y-79038867D01*
X85308938Y-79041288D01*
X85308939Y-79041288D01*
X85349184Y-79049293D01*
X85355252Y-79050500D01*
X87094748Y-79050500D01*
X87100816Y-79049293D01*
X87141061Y-79041288D01*
X87141062Y-79041288D01*
X87153231Y-79038867D01*
X87219552Y-78994552D01*
X87240863Y-78962658D01*
X87256974Y-78938547D01*
X87263867Y-78928231D01*
X87266740Y-78913790D01*
X87274293Y-78875816D01*
X87275500Y-78869748D01*
X87275500Y-77985262D01*
X87709520Y-77985262D01*
X87726759Y-78190553D01*
X87783544Y-78388586D01*
X87786359Y-78394063D01*
X87786360Y-78394066D01*
X87804546Y-78429452D01*
X87877712Y-78571818D01*
X88005677Y-78733270D01*
X88162564Y-78866791D01*
X88342398Y-78967297D01*
X88423184Y-78993546D01*
X88532471Y-79029056D01*
X88532475Y-79029057D01*
X88538329Y-79030959D01*
X88742894Y-79055351D01*
X88749029Y-79054879D01*
X88749031Y-79054879D01*
X88821625Y-79049293D01*
X88948300Y-79039546D01*
X88954230Y-79037890D01*
X88954232Y-79037890D01*
X89140797Y-78985800D01*
X89140796Y-78985800D01*
X89146725Y-78984145D01*
X89152214Y-78981372D01*
X89152220Y-78981370D01*
X89325116Y-78894033D01*
X89330610Y-78891258D01*
X89492951Y-78764424D01*
X89551042Y-78697125D01*
X89623540Y-78613134D01*
X89623540Y-78613133D01*
X89627564Y-78608472D01*
X89648387Y-78571818D01*
X89666056Y-78540714D01*
X89729323Y-78429344D01*
X89794351Y-78233863D01*
X89820171Y-78029474D01*
X89820583Y-78000000D01*
X89800480Y-77794970D01*
X89740935Y-77597749D01*
X89644218Y-77415849D01*
X89570859Y-77325902D01*
X89517906Y-77260975D01*
X89517903Y-77260972D01*
X89514011Y-77256200D01*
X89496786Y-77241950D01*
X89360025Y-77128811D01*
X89360021Y-77128809D01*
X89355275Y-77124882D01*
X89218091Y-77050707D01*
X89179474Y-77029827D01*
X89174055Y-77026897D01*
X88977254Y-76965977D01*
X88971129Y-76965333D01*
X88971128Y-76965333D01*
X88778498Y-76945087D01*
X88778496Y-76945087D01*
X88772369Y-76944443D01*
X88685529Y-76952346D01*
X88573342Y-76962555D01*
X88573339Y-76962556D01*
X88567203Y-76963114D01*
X88369572Y-77021280D01*
X88364107Y-77024137D01*
X88292729Y-77061453D01*
X88187002Y-77116726D01*
X88182201Y-77120586D01*
X88182198Y-77120588D01*
X88031254Y-77241950D01*
X88026447Y-77245815D01*
X87894024Y-77403630D01*
X87891056Y-77409028D01*
X87891053Y-77409033D01*
X87836640Y-77508011D01*
X87794776Y-77584162D01*
X87732484Y-77780532D01*
X87731798Y-77786649D01*
X87731797Y-77786653D01*
X87721932Y-77874604D01*
X87709520Y-77985262D01*
X87275500Y-77985262D01*
X87275500Y-77130252D01*
X87272241Y-77113869D01*
X87266288Y-77083939D01*
X87266288Y-77083938D01*
X87263867Y-77071769D01*
X87219552Y-77005448D01*
X87153231Y-76961133D01*
X87141062Y-76958712D01*
X87141061Y-76958712D01*
X87100816Y-76950707D01*
X87094748Y-76949500D01*
X85355252Y-76949500D01*
X85349184Y-76950707D01*
X85308939Y-76958712D01*
X85308938Y-76958712D01*
X85296769Y-76961133D01*
X85230448Y-77005448D01*
X85186133Y-77071769D01*
X85183712Y-77083938D01*
X85183712Y-77083939D01*
X85177759Y-77113869D01*
X85174500Y-77130252D01*
X85174500Y-78869748D01*
X73067109Y-78869748D01*
X73327321Y-78699831D01*
X73331654Y-78697125D01*
X74160719Y-78202494D01*
X74165159Y-78199965D01*
X75013634Y-77739330D01*
X75018173Y-77736984D01*
X75884603Y-77311138D01*
X75889233Y-77308978D01*
X76772210Y-76918610D01*
X76776924Y-76916639D01*
X77675014Y-76562383D01*
X77679804Y-76560605D01*
X78591519Y-76243051D01*
X78596376Y-76241469D01*
X78694899Y-76211573D01*
X79520231Y-75961132D01*
X79525107Y-75959760D01*
X80459548Y-75717114D01*
X80464517Y-75715930D01*
X81408038Y-75511364D01*
X81413052Y-75510383D01*
X81560914Y-75484551D01*
X82364095Y-75344236D01*
X82369108Y-75343465D01*
X83326115Y-75216009D01*
X83331152Y-75215441D01*
X83763640Y-75175605D01*
X84292549Y-75126889D01*
X84297645Y-75126524D01*
X85261781Y-75077022D01*
X85266888Y-75076863D01*
X85704674Y-75072159D01*
X86232299Y-75066489D01*
X86237371Y-75066538D01*
G37*
%TD.AperFunction*%
%TA.AperFunction,Conductor*%
G36*
X97976121Y-103776002D02*
G01*
X98022614Y-103829658D01*
X98034000Y-103882000D01*
X98034000Y-104799884D01*
X98038475Y-104815123D01*
X98039865Y-104816328D01*
X98047548Y-104817999D01*
X98518984Y-104817999D01*
X98523920Y-104817805D01*
X98552336Y-104815570D01*
X98564931Y-104813270D01*
X98710790Y-104770893D01*
X98725221Y-104764648D01*
X98854678Y-104688089D01*
X98867104Y-104678449D01*
X98973449Y-104572104D01*
X98983089Y-104559678D01*
X99059648Y-104430221D01*
X99065893Y-104415790D01*
X99104533Y-104282795D01*
X99142747Y-104222960D01*
X99207243Y-104193283D01*
X99277546Y-104203187D01*
X99314625Y-104228854D01*
X100021799Y-104936028D01*
X100055825Y-104998340D01*
X100050760Y-105069155D01*
X100008213Y-105125991D01*
X99985956Y-105139317D01*
X99939596Y-105160935D01*
X99855935Y-105244596D01*
X99851275Y-105254588D01*
X99851275Y-105254589D01*
X99832771Y-105294272D01*
X99805932Y-105351827D01*
X99799500Y-105400684D01*
X99799500Y-105849316D01*
X99805932Y-105898173D01*
X99810006Y-105906909D01*
X99810006Y-105906910D01*
X99855935Y-106005404D01*
X99852430Y-106007038D01*
X99869500Y-106061167D01*
X99869500Y-107822678D01*
X99872564Y-107832109D01*
X99872565Y-107832113D01*
X99876297Y-107843598D01*
X99880913Y-107862823D01*
X99884354Y-107884549D01*
X99888855Y-107893382D01*
X99888856Y-107893386D01*
X99894341Y-107904151D01*
X99901905Y-107922411D01*
X99908704Y-107943335D01*
X99921639Y-107961138D01*
X99931965Y-107977990D01*
X99941950Y-107997587D01*
X99964503Y-108020140D01*
X99964516Y-108020154D01*
X100797705Y-108853342D01*
X100887413Y-108943050D01*
X100896249Y-108947552D01*
X100896250Y-108947553D01*
X100907014Y-108953038D01*
X100923871Y-108963368D01*
X100941665Y-108976296D01*
X100962587Y-108983094D01*
X100980848Y-108990658D01*
X100991616Y-108996145D01*
X100991620Y-108996146D01*
X101000451Y-109000646D01*
X101010240Y-109002197D01*
X101010248Y-109002199D01*
X101022182Y-109004089D01*
X101041402Y-109008703D01*
X101052888Y-109012435D01*
X101052895Y-109012436D01*
X101062322Y-109015499D01*
X101094232Y-109015499D01*
X101094236Y-109015500D01*
X101652664Y-109015500D01*
X101720785Y-109035502D01*
X101727682Y-109041056D01*
X101727802Y-109040888D01*
X101736278Y-109046934D01*
X101743650Y-109054293D01*
X101848482Y-109105536D01*
X101878973Y-109109984D01*
X101912256Y-109114840D01*
X101912260Y-109114840D01*
X101916782Y-109115500D01*
X103333218Y-109115500D01*
X103337768Y-109114830D01*
X103337771Y-109114830D01*
X103392426Y-109106784D01*
X103392427Y-109106784D01*
X103402112Y-109105358D01*
X103496804Y-109058867D01*
X103497507Y-109058522D01*
X103497509Y-109058521D01*
X103506855Y-109053932D01*
X103514212Y-109046562D01*
X103522681Y-109040499D01*
X103524800Y-109043458D01*
X103570564Y-109018407D01*
X103597475Y-109015500D01*
X103821917Y-109015500D01*
X103890038Y-109035502D01*
X103911012Y-109052405D01*
X103972595Y-109113988D01*
X104006621Y-109176300D01*
X104009500Y-109203083D01*
X104009500Y-109279316D01*
X104015932Y-109328173D01*
X104016012Y-109328344D01*
X104015882Y-109394238D01*
X103977380Y-109453888D01*
X103912741Y-109483253D01*
X103895056Y-109484500D01*
X103597336Y-109484500D01*
X103529215Y-109464498D01*
X103522318Y-109458944D01*
X103522198Y-109459112D01*
X103513722Y-109453066D01*
X103506350Y-109445707D01*
X103485273Y-109435404D01*
X103446124Y-109416268D01*
X103401518Y-109394464D01*
X103371027Y-109390016D01*
X103337744Y-109385160D01*
X103337740Y-109385160D01*
X103333218Y-109384500D01*
X101916782Y-109384500D01*
X101912232Y-109385170D01*
X101912229Y-109385170D01*
X101857574Y-109393216D01*
X101857573Y-109393216D01*
X101847888Y-109394642D01*
X101803841Y-109416268D01*
X101752493Y-109441478D01*
X101752491Y-109441479D01*
X101743145Y-109446068D01*
X101660707Y-109528650D01*
X101609464Y-109633482D01*
X101599500Y-109701782D01*
X101599500Y-109989675D01*
X101579498Y-110057796D01*
X101525842Y-110104289D01*
X101455568Y-110114393D01*
X101390988Y-110084899D01*
X101384405Y-110078770D01*
X101274430Y-109968795D01*
X101240404Y-109906483D01*
X101239271Y-109858796D01*
X101254689Y-109767151D01*
X101254689Y-109767150D01*
X101255496Y-109762354D01*
X101255647Y-109750000D01*
X101242426Y-109657682D01*
X101236596Y-109616968D01*
X101236595Y-109616965D01*
X101235323Y-109608082D01*
X101225158Y-109585724D01*
X101203462Y-109538007D01*
X101175984Y-109477572D01*
X101135008Y-109430017D01*
X101088260Y-109375763D01*
X101088257Y-109375760D01*
X101082400Y-109368963D01*
X100962095Y-109290985D01*
X100824739Y-109249907D01*
X100815763Y-109249852D01*
X100815762Y-109249852D01*
X100755555Y-109249484D01*
X100681376Y-109249031D01*
X100543529Y-109288428D01*
X100422280Y-109364930D01*
X100416338Y-109371658D01*
X100416337Y-109371659D01*
X100392228Y-109398958D01*
X100327377Y-109472388D01*
X100266447Y-109602163D01*
X100264448Y-109615001D01*
X100246211Y-109732135D01*
X100244391Y-109743823D01*
X100245555Y-109752725D01*
X100245555Y-109752728D01*
X100250193Y-109788192D01*
X100262980Y-109885979D01*
X100320720Y-110017203D01*
X100326498Y-110024077D01*
X100331240Y-110031695D01*
X100329533Y-110032757D01*
X100348575Y-110074493D01*
X100349500Y-110074192D01*
X100352128Y-110082281D01*
X100352130Y-110082286D01*
X100352564Y-110083620D01*
X100352564Y-110083621D01*
X100356297Y-110095111D01*
X100360913Y-110114336D01*
X100364354Y-110136062D01*
X100368855Y-110144895D01*
X100368856Y-110144899D01*
X100374341Y-110155664D01*
X100381905Y-110173924D01*
X100388704Y-110194848D01*
X100401639Y-110212651D01*
X100411965Y-110229503D01*
X100421950Y-110249100D01*
X100444513Y-110271663D01*
X100444516Y-110271667D01*
X101623479Y-111450630D01*
X101647487Y-111484194D01*
X101661068Y-111511855D01*
X101743650Y-111594293D01*
X101848482Y-111645536D01*
X101867970Y-111648379D01*
X101912256Y-111654840D01*
X101912260Y-111654840D01*
X101916782Y-111655500D01*
X103118917Y-111655500D01*
X103187038Y-111675502D01*
X103233531Y-111729158D01*
X103243635Y-111799432D01*
X103214141Y-111864012D01*
X103208012Y-111870595D01*
X102766012Y-112312595D01*
X102703700Y-112346621D01*
X102676917Y-112349500D01*
X96768083Y-112349500D01*
X96699962Y-112329498D01*
X96678988Y-112312595D01*
X96544488Y-112178095D01*
X96510462Y-112115783D01*
X96515527Y-112044968D01*
X96558074Y-111988132D01*
X96624594Y-111963321D01*
X96633583Y-111963000D01*
X97102885Y-111963000D01*
X97118124Y-111958525D01*
X97119329Y-111957135D01*
X97121000Y-111949452D01*
X97121000Y-111944884D01*
X97629000Y-111944884D01*
X97633475Y-111960123D01*
X97634865Y-111961328D01*
X97642548Y-111962999D01*
X98113984Y-111962999D01*
X98118920Y-111962805D01*
X98147336Y-111960570D01*
X98159931Y-111958270D01*
X98305790Y-111915893D01*
X98320221Y-111909648D01*
X98449678Y-111833089D01*
X98462104Y-111823449D01*
X98568449Y-111717104D01*
X98578089Y-111704678D01*
X98654648Y-111575221D01*
X98660893Y-111560790D01*
X98699939Y-111426395D01*
X98699899Y-111412294D01*
X98692630Y-111409000D01*
X97647115Y-111409000D01*
X97631876Y-111413475D01*
X97630671Y-111414865D01*
X97629000Y-111422548D01*
X97629000Y-111944884D01*
X97121000Y-111944884D01*
X97121000Y-111027000D01*
X97141002Y-110958879D01*
X97194658Y-110912386D01*
X97247000Y-110901000D01*
X98686878Y-110901000D01*
X98700409Y-110897027D01*
X98701544Y-110889129D01*
X98660893Y-110749210D01*
X98654648Y-110734779D01*
X98578722Y-110606394D01*
X98561263Y-110537578D01*
X98583780Y-110470246D01*
X98639125Y-110425777D01*
X98654031Y-110420693D01*
X98751317Y-110394170D01*
X98873491Y-110319155D01*
X98901323Y-110288407D01*
X98963678Y-110219517D01*
X98969700Y-110212864D01*
X99017436Y-110114336D01*
X99028295Y-110091924D01*
X99028295Y-110091923D01*
X99032210Y-110083843D01*
X99055996Y-109942464D01*
X99056147Y-109930110D01*
X99035823Y-109788192D01*
X99024831Y-109764015D01*
X99012834Y-109737631D01*
X98976484Y-109657682D01*
X98944901Y-109621028D01*
X98888760Y-109555873D01*
X98888757Y-109555870D01*
X98882900Y-109549073D01*
X98762595Y-109471095D01*
X98625239Y-109430017D01*
X98616263Y-109429962D01*
X98616262Y-109429962D01*
X98556055Y-109429594D01*
X98481876Y-109429141D01*
X98360551Y-109463816D01*
X98289557Y-109463304D01*
X98258914Y-109448266D01*
X98256350Y-109445707D01*
X98235273Y-109435404D01*
X98196124Y-109416268D01*
X98151518Y-109394464D01*
X98121027Y-109390016D01*
X98087744Y-109385160D01*
X98087740Y-109385160D01*
X98083218Y-109384500D01*
X96666782Y-109384500D01*
X96662232Y-109385170D01*
X96662229Y-109385170D01*
X96607574Y-109393216D01*
X96607573Y-109393216D01*
X96597888Y-109394642D01*
X96553841Y-109416268D01*
X96502493Y-109441478D01*
X96502491Y-109441479D01*
X96493145Y-109446068D01*
X96410707Y-109528650D01*
X96359464Y-109633482D01*
X96349500Y-109701782D01*
X96349500Y-110068218D01*
X96350170Y-110072768D01*
X96350170Y-110072771D01*
X96352990Y-110091924D01*
X96359642Y-110137112D01*
X96411068Y-110241855D01*
X96417924Y-110248699D01*
X96441177Y-110315333D01*
X96424614Y-110384370D01*
X96379474Y-110430102D01*
X96300322Y-110476911D01*
X96287896Y-110486551D01*
X96181551Y-110592896D01*
X96171911Y-110605322D01*
X96164954Y-110617087D01*
X96113061Y-110665539D01*
X96043211Y-110678245D01*
X95977580Y-110651170D01*
X95937005Y-110592910D01*
X95930500Y-110552948D01*
X95930500Y-108831500D01*
X95950502Y-108763379D01*
X96004158Y-108716886D01*
X96056500Y-108705500D01*
X96227041Y-108705500D01*
X96295162Y-108725502D01*
X96341655Y-108779158D01*
X96351698Y-108813149D01*
X96358130Y-108856838D01*
X96359642Y-108867112D01*
X96363958Y-108875902D01*
X96404039Y-108957538D01*
X96411068Y-108971855D01*
X96439909Y-109000646D01*
X96480222Y-109040888D01*
X96493650Y-109054293D01*
X96598482Y-109105536D01*
X96628973Y-109109984D01*
X96662256Y-109114840D01*
X96662260Y-109114840D01*
X96666782Y-109115500D01*
X98083218Y-109115500D01*
X98087768Y-109114830D01*
X98087771Y-109114830D01*
X98142426Y-109106784D01*
X98142427Y-109106784D01*
X98152112Y-109105358D01*
X98246804Y-109058867D01*
X98247507Y-109058522D01*
X98247509Y-109058521D01*
X98256855Y-109053932D01*
X98324512Y-108986157D01*
X98331935Y-108978721D01*
X98331935Y-108978720D01*
X98339293Y-108971350D01*
X98346045Y-108957538D01*
X98371475Y-108905513D01*
X98390536Y-108866518D01*
X98400500Y-108798218D01*
X98400500Y-108431782D01*
X98398554Y-108418558D01*
X98391784Y-108372574D01*
X98391784Y-108372573D01*
X98390358Y-108362888D01*
X98362174Y-108305484D01*
X98343522Y-108267493D01*
X98343521Y-108267491D01*
X98338932Y-108258145D01*
X98256350Y-108175707D01*
X98151518Y-108124464D01*
X98121027Y-108120016D01*
X98087744Y-108115160D01*
X98087740Y-108115160D01*
X98083218Y-108114500D01*
X97493083Y-108114500D01*
X97424962Y-108094498D01*
X97403988Y-108077595D01*
X97386988Y-108060595D01*
X97352962Y-107998283D01*
X97358027Y-107927468D01*
X97400574Y-107870632D01*
X97467094Y-107845821D01*
X97476083Y-107845500D01*
X98083218Y-107845500D01*
X98087768Y-107844830D01*
X98087771Y-107844830D01*
X98142426Y-107836784D01*
X98142427Y-107836784D01*
X98152112Y-107835358D01*
X98246804Y-107788867D01*
X98247507Y-107788522D01*
X98247509Y-107788521D01*
X98256855Y-107783932D01*
X98324512Y-107716157D01*
X98331935Y-107708721D01*
X98331935Y-107708720D01*
X98339293Y-107701350D01*
X98344297Y-107691114D01*
X98359730Y-107659540D01*
X98390536Y-107596518D01*
X98400500Y-107528218D01*
X98400500Y-107161782D01*
X98392403Y-107106776D01*
X98391784Y-107102574D01*
X98391784Y-107102573D01*
X98390358Y-107092888D01*
X98358750Y-107028510D01*
X98343522Y-106997493D01*
X98343521Y-106997491D01*
X98338932Y-106988145D01*
X98256350Y-106905707D01*
X98151518Y-106854464D01*
X98118684Y-106849674D01*
X98087744Y-106845160D01*
X98087740Y-106845160D01*
X98083218Y-106844500D01*
X96787338Y-106844500D01*
X96719217Y-106824498D01*
X96672724Y-106770842D01*
X96662620Y-106700568D01*
X96664470Y-106692611D01*
X96665646Y-106690304D01*
X96669087Y-106668578D01*
X96673703Y-106649353D01*
X96677435Y-106637868D01*
X96677436Y-106637864D01*
X96680500Y-106628433D01*
X96680500Y-104889695D01*
X96700502Y-104821574D01*
X96754158Y-104775081D01*
X96824432Y-104764977D01*
X96841653Y-104768698D01*
X96995062Y-104813268D01*
X97007667Y-104815570D01*
X97036084Y-104817807D01*
X97041014Y-104818000D01*
X97507885Y-104818000D01*
X97523124Y-104813525D01*
X97524329Y-104812135D01*
X97526000Y-104804452D01*
X97526000Y-103882000D01*
X97546002Y-103813879D01*
X97599658Y-103767386D01*
X97652000Y-103756000D01*
X97908000Y-103756000D01*
X97976121Y-103776002D01*
G37*
%TD.AperFunction*%
%TA.AperFunction,Conductor*%
G36*
X94437044Y-87364282D02*
G01*
X94458018Y-87381185D01*
X94559357Y-87482524D01*
X94593383Y-87544836D01*
X94596262Y-87571619D01*
X94596262Y-87779402D01*
X94596066Y-87782075D01*
X94594337Y-87787110D01*
X94594773Y-87798733D01*
X94594773Y-87798735D01*
X94595299Y-87812747D01*
X94577866Y-87881570D01*
X94525991Y-87930042D01*
X94494632Y-87937530D01*
X94488030Y-87941799D01*
X94484000Y-87950691D01*
X94484000Y-88477885D01*
X94488475Y-88493124D01*
X94489865Y-88494329D01*
X94497548Y-88496000D01*
X94998424Y-88496000D01*
X95033060Y-88485830D01*
X95104057Y-88485830D01*
X95157653Y-88517630D01*
X95493579Y-88853557D01*
X95819836Y-89179814D01*
X95853861Y-89242126D01*
X95848796Y-89312942D01*
X95831565Y-89344476D01*
X95809387Y-89374067D01*
X95752527Y-89416581D01*
X95708562Y-89424500D01*
X95207912Y-89424501D01*
X95186600Y-89424501D01*
X95180533Y-89425708D01*
X95180530Y-89425708D01*
X95122054Y-89437339D01*
X95122053Y-89437339D01*
X95109883Y-89439760D01*
X95107036Y-89441662D01*
X95067633Y-89449500D01*
X95030595Y-89449500D01*
X94962474Y-89429498D01*
X94915981Y-89375842D01*
X94905877Y-89305568D01*
X94922141Y-89259361D01*
X94965396Y-89186220D01*
X94971643Y-89171784D01*
X95013312Y-89028359D01*
X95014768Y-89020391D01*
X95011948Y-89006969D01*
X95000487Y-89004000D01*
X94102000Y-89004000D01*
X94033879Y-88983998D01*
X93987386Y-88930342D01*
X93976000Y-88878000D01*
X93976000Y-87956442D01*
X93972027Y-87942911D01*
X93964129Y-87941776D01*
X93838216Y-87978357D01*
X93823780Y-87984604D01*
X93696501Y-88059876D01*
X93684074Y-88069516D01*
X93579519Y-88174071D01*
X93565770Y-88191796D01*
X93508214Y-88233362D01*
X93457970Y-88240299D01*
X93453987Y-88240038D01*
X93449901Y-88239500D01*
X93440253Y-88239500D01*
X93239660Y-88239501D01*
X93171540Y-88219499D01*
X93125047Y-88165844D01*
X93114942Y-88095570D01*
X93144435Y-88030989D01*
X93150565Y-88024406D01*
X93793786Y-87381185D01*
X93856098Y-87347159D01*
X93882881Y-87344280D01*
X94368923Y-87344280D01*
X94437044Y-87364282D01*
G37*
%TD.AperFunction*%
%TD*%
M02*
