%TF.GenerationSoftware,KiCad,Pcbnew,(6.0.1)*%
%TF.CreationDate,2022-04-08T22:05:58-07:00*%
%TF.ProjectId,well-depth-battery,77656c6c-2d64-4657-9074-682d62617474,1*%
%TF.SameCoordinates,Original*%
%TF.FileFunction,Paste,Top*%
%TF.FilePolarity,Positive*%
%FSLAX46Y46*%
G04 Gerber Fmt 4.6, Leading zero omitted, Abs format (unit mm)*
G04 Created by KiCad (PCBNEW (6.0.1)) date 2022-04-08 22:05:58*
%MOMM*%
%LPD*%
G01*
G04 APERTURE LIST*
G04 Aperture macros list*
%AMRoundRect*
0 Rectangle with rounded corners*
0 $1 Rounding radius*
0 $2 $3 $4 $5 $6 $7 $8 $9 X,Y pos of 4 corners*
0 Add a 4 corners polygon primitive as box body*
4,1,4,$2,$3,$4,$5,$6,$7,$8,$9,$2,$3,0*
0 Add four circle primitives for the rounded corners*
1,1,$1+$1,$2,$3*
1,1,$1+$1,$4,$5*
1,1,$1+$1,$6,$7*
1,1,$1+$1,$8,$9*
0 Add four rect primitives between the rounded corners*
20,1,$1+$1,$2,$3,$4,$5,0*
20,1,$1+$1,$4,$5,$6,$7,0*
20,1,$1+$1,$6,$7,$8,$9,0*
20,1,$1+$1,$8,$9,$2,$3,0*%
G04 Aperture macros list end*
%ADD10RoundRect,0.140000X0.140000X0.170000X-0.140000X0.170000X-0.140000X-0.170000X0.140000X-0.170000X0*%
%ADD11RoundRect,0.150000X0.587500X0.150000X-0.587500X0.150000X-0.587500X-0.150000X0.587500X-0.150000X0*%
%ADD12RoundRect,0.140000X0.170000X-0.140000X0.170000X0.140000X-0.170000X0.140000X-0.170000X-0.140000X0*%
%ADD13RoundRect,0.135000X0.185000X-0.135000X0.185000X0.135000X-0.185000X0.135000X-0.185000X-0.135000X0*%
%ADD14RoundRect,0.140000X-0.170000X0.140000X-0.170000X-0.140000X0.170000X-0.140000X0.170000X0.140000X0*%
%ADD15R,0.600000X1.200000*%
%ADD16RoundRect,0.250000X0.250000X0.475000X-0.250000X0.475000X-0.250000X-0.475000X0.250000X-0.475000X0*%
%ADD17RoundRect,0.135000X0.135000X0.185000X-0.135000X0.185000X-0.135000X-0.185000X0.135000X-0.185000X0*%
%ADD18RoundRect,0.140000X-0.140000X-0.170000X0.140000X-0.170000X0.140000X0.170000X-0.140000X0.170000X0*%
%ADD19R,0.600000X2.200000*%
%ADD20R,3.450000X2.150000*%
%ADD21R,0.600000X0.450000*%
%ADD22RoundRect,0.150000X-0.675000X-0.150000X0.675000X-0.150000X0.675000X0.150000X-0.675000X0.150000X0*%
%ADD23RoundRect,0.135000X-0.185000X0.135000X-0.185000X-0.135000X0.185000X-0.135000X0.185000X0.135000X0*%
%ADD24RoundRect,0.150000X0.150000X-0.587500X0.150000X0.587500X-0.150000X0.587500X-0.150000X-0.587500X0*%
%ADD25RoundRect,0.243750X0.456250X-0.243750X0.456250X0.243750X-0.456250X0.243750X-0.456250X-0.243750X0*%
%ADD26RoundRect,0.200000X0.200000X0.275000X-0.200000X0.275000X-0.200000X-0.275000X0.200000X-0.275000X0*%
%ADD27RoundRect,0.135000X-0.135000X-0.185000X0.135000X-0.185000X0.135000X0.185000X-0.135000X0.185000X0*%
%ADD28RoundRect,0.150000X-0.825000X-0.150000X0.825000X-0.150000X0.825000X0.150000X-0.825000X0.150000X0*%
%ADD29RoundRect,0.150000X0.150000X-0.825000X0.150000X0.825000X-0.150000X0.825000X-0.150000X-0.825000X0*%
G04 APERTURE END LIST*
D10*
%TO.C,C15*%
X88510000Y-99992500D03*
X87550000Y-99992500D03*
%TD*%
D11*
%TO.C,Q2*%
X103467500Y-98305000D03*
X103467500Y-96405000D03*
X101592500Y-97355000D03*
%TD*%
D12*
%TO.C,C3*%
X94030000Y-108305000D03*
X94030000Y-107345000D03*
%TD*%
D13*
%TO.C,R1*%
X105030000Y-97865000D03*
X105030000Y-96845000D03*
%TD*%
D12*
%TO.C,C7*%
X104280000Y-106625000D03*
X104280000Y-105665000D03*
%TD*%
D14*
%TO.C,C9*%
X104655000Y-99770000D03*
X104655000Y-100730000D03*
%TD*%
D12*
%TO.C,C12*%
X89850000Y-98065000D03*
X89850000Y-97105000D03*
%TD*%
D10*
%TO.C,C6*%
X105260000Y-107625000D03*
X104300000Y-107625000D03*
%TD*%
D13*
%TO.C,R5*%
X78532000Y-82020000D03*
X78532000Y-81000000D03*
%TD*%
%TO.C,R8*%
X104530000Y-110125000D03*
X104530000Y-109105000D03*
%TD*%
D15*
%TO.C,Y1*%
X88450000Y-97585000D03*
X87250000Y-97585000D03*
%TD*%
D13*
%TO.C,R9*%
X92780000Y-89625000D03*
X92780000Y-88605000D03*
%TD*%
%TO.C,R21*%
X106280000Y-106615000D03*
X106280000Y-105595000D03*
%TD*%
D16*
%TO.C,C13*%
X89052000Y-84230000D03*
X87152000Y-84230000D03*
%TD*%
D17*
%TO.C,R2*%
X107672000Y-104000000D03*
X106652000Y-104000000D03*
%TD*%
D18*
%TO.C,C14*%
X89530000Y-99992500D03*
X90490000Y-99992500D03*
%TD*%
D12*
%TO.C,C8*%
X96155000Y-101335000D03*
X96155000Y-100375000D03*
%TD*%
D14*
%TO.C,C11*%
X85850000Y-97520000D03*
X85850000Y-98480000D03*
%TD*%
D19*
%TO.C,U6*%
X91050000Y-101855000D03*
X89780000Y-101855000D03*
X88510000Y-101855000D03*
X87240000Y-101855000D03*
X85970000Y-101855000D03*
D20*
X88510000Y-108155000D03*
%TD*%
D21*
%TO.C,D3*%
X101982000Y-86000000D03*
X104082000Y-86000000D03*
%TD*%
D22*
%TO.C,U2*%
X97780000Y-100200000D03*
X97780000Y-101470000D03*
X97780000Y-102740000D03*
X97780000Y-104010000D03*
X103030000Y-104010000D03*
X103030000Y-102740000D03*
X103030000Y-101470000D03*
X103030000Y-100200000D03*
%TD*%
D12*
%TO.C,C4*%
X105530000Y-110095000D03*
X105530000Y-109135000D03*
%TD*%
D23*
%TO.C,R19*%
X101530000Y-88345000D03*
X101530000Y-89365000D03*
%TD*%
D24*
%TO.C,Q1*%
X105960000Y-102325000D03*
X107860000Y-102325000D03*
X106910000Y-100450000D03*
%TD*%
D17*
%TO.C,R20*%
X105540000Y-111125000D03*
X104520000Y-111125000D03*
%TD*%
D13*
%TO.C,R3*%
X106030000Y-98865000D03*
X106030000Y-97845000D03*
%TD*%
D25*
%TO.C,D2*%
X93280000Y-99292500D03*
X93280000Y-97417500D03*
%TD*%
D12*
%TO.C,C2*%
X81032000Y-81980000D03*
X81032000Y-81020000D03*
%TD*%
D26*
%TO.C,JP1*%
X92427000Y-82730000D03*
X90777000Y-82730000D03*
%TD*%
D27*
%TO.C,R13*%
X102270000Y-105625000D03*
X103290000Y-105625000D03*
%TD*%
D24*
%TO.C,Q3*%
X90652000Y-86667500D03*
X92552000Y-86667500D03*
X91602000Y-84792500D03*
%TD*%
D12*
%TO.C,C1*%
X73532000Y-81990000D03*
X73532000Y-81030000D03*
%TD*%
D28*
%TO.C,U5*%
X94805000Y-87045000D03*
X94805000Y-88315000D03*
X94805000Y-89585000D03*
X94805000Y-90855000D03*
X94805000Y-92125000D03*
X94805000Y-93395000D03*
X94805000Y-94665000D03*
X99755000Y-94665000D03*
X99755000Y-93395000D03*
X99755000Y-92125000D03*
X99755000Y-90855000D03*
X99755000Y-89585000D03*
X99755000Y-88315000D03*
X99755000Y-87045000D03*
%TD*%
D17*
%TO.C,R17*%
X95915000Y-99105000D03*
X94895000Y-99105000D03*
%TD*%
D23*
%TO.C,R16*%
X93280000Y-100845000D03*
X93280000Y-101865000D03*
%TD*%
%TO.C,R7*%
X95530000Y-107315000D03*
X95530000Y-108335000D03*
%TD*%
%TO.C,R10*%
X92780000Y-92345000D03*
X92780000Y-93365000D03*
%TD*%
D21*
%TO.C,D1*%
X87052000Y-86730000D03*
X89152000Y-86730000D03*
%TD*%
D12*
%TO.C,C5*%
X105280000Y-106625000D03*
X105280000Y-105665000D03*
%TD*%
D13*
%TO.C,R14*%
X95155000Y-101365000D03*
X95155000Y-100345000D03*
%TD*%
%TO.C,R18*%
X95905000Y-98115000D03*
X95905000Y-97095000D03*
%TD*%
D27*
%TO.C,R15*%
X88592000Y-82730000D03*
X89612000Y-82730000D03*
%TD*%
D12*
%TO.C,C10*%
X94905000Y-98085000D03*
X94905000Y-97125000D03*
%TD*%
D13*
%TO.C,R6*%
X104680000Y-103865000D03*
X104680000Y-102845000D03*
%TD*%
D27*
%TO.C,R12*%
X100270000Y-105625000D03*
X101290000Y-105625000D03*
%TD*%
D13*
%TO.C,R11*%
X96100000Y-102345000D03*
X96100000Y-103365000D03*
%TD*%
%TO.C,R4*%
X76032000Y-82010000D03*
X76032000Y-80990000D03*
%TD*%
D29*
%TO.C,U4*%
X87375000Y-94830000D03*
X88645000Y-94830000D03*
X89915000Y-94830000D03*
X91185000Y-94830000D03*
X91185000Y-89880000D03*
X89915000Y-89880000D03*
X88645000Y-89880000D03*
X87375000Y-89880000D03*
%TD*%
D22*
%TO.C,U1*%
X97375000Y-107345000D03*
X97375000Y-108615000D03*
X97375000Y-109885000D03*
X97375000Y-111155000D03*
X102625000Y-111155000D03*
X102625000Y-109885000D03*
X102625000Y-108615000D03*
X102625000Y-107345000D03*
%TD*%
D11*
%TO.C,U3*%
X99342500Y-98305000D03*
X99342500Y-96405000D03*
X97467500Y-97355000D03*
%TD*%
M02*
