%TF.GenerationSoftware,KiCad,Pcbnew,(5.1.6)-1*%
%TF.CreationDate,2021-11-18T16:20:29-08:00*%
%TF.ProjectId,well-monitor,77656c6c-2d6d-46f6-9e69-746f722e6b69,rev?*%
%TF.SameCoordinates,Original*%
%TF.FileFunction,Soldermask,Top*%
%TF.FilePolarity,Negative*%
%FSLAX46Y46*%
G04 Gerber Fmt 4.6, Leading zero omitted, Abs format (unit mm)*
G04 Created by KiCad (PCBNEW (5.1.6)-1) date 2021-11-18 16:20:29*
%MOMM*%
%LPD*%
G01*
G04 APERTURE LIST*
%ADD10O,2.900000X2.900000*%
%ADD11C,2.900000*%
%ADD12R,0.700000X0.550000*%
%ADD13C,3.300000*%
%ADD14R,1.550000X1.250000*%
%ADD15O,2.000000X1.150000*%
%ADD16R,2.000000X1.850000*%
%ADD17R,1.500000X0.500000*%
%ADD18C,2.700000*%
%ADD19R,2.700000X2.700000*%
%ADD20C,17.900000*%
%ADD21R,5.200000X5.200000*%
%ADD22C,1.900000*%
%ADD23R,2.400000X2.600000*%
%ADD24C,2.100000*%
%ADD25R,2.100000X2.100000*%
%ADD26C,1.600000*%
%ADD27R,0.700000X1.300000*%
%ADD28R,3.550000X3.550000*%
%ADD29C,2.600000*%
%ADD30R,1.598600X0.912800*%
%ADD31R,1.039800X1.090600*%
%ADD32R,1.497000X1.395400*%
%ADD33R,2.005000X1.497000*%
%ADD34O,1.800000X1.800000*%
%ADD35R,1.800000X1.800000*%
%ADD36R,1.300000X1.000000*%
%ADD37O,1.700000X1.700000*%
%ADD38R,1.700000X1.700000*%
G04 APERTURE END LIST*
%TO.C,R7*%
G36*
G01*
X158718750Y-107800000D02*
X159281250Y-107800000D01*
G75*
G02*
X159525000Y-108043750I0J-243750D01*
G01*
X159525000Y-108531250D01*
G75*
G02*
X159281250Y-108775000I-243750J0D01*
G01*
X158718750Y-108775000D01*
G75*
G02*
X158475000Y-108531250I0J243750D01*
G01*
X158475000Y-108043750D01*
G75*
G02*
X158718750Y-107800000I243750J0D01*
G01*
G37*
G36*
G01*
X158718750Y-106225000D02*
X159281250Y-106225000D01*
G75*
G02*
X159525000Y-106468750I0J-243750D01*
G01*
X159525000Y-106956250D01*
G75*
G02*
X159281250Y-107200000I-243750J0D01*
G01*
X158718750Y-107200000D01*
G75*
G02*
X158475000Y-106956250I0J243750D01*
G01*
X158475000Y-106468750D01*
G75*
G02*
X158718750Y-106225000I243750J0D01*
G01*
G37*
%TD*%
%TO.C,D8*%
G36*
G01*
X157781250Y-107200000D02*
X157218750Y-107200000D01*
G75*
G02*
X156975000Y-106956250I0J243750D01*
G01*
X156975000Y-106468750D01*
G75*
G02*
X157218750Y-106225000I243750J0D01*
G01*
X157781250Y-106225000D01*
G75*
G02*
X158025000Y-106468750I0J-243750D01*
G01*
X158025000Y-106956250D01*
G75*
G02*
X157781250Y-107200000I-243750J0D01*
G01*
G37*
G36*
G01*
X157781250Y-108775000D02*
X157218750Y-108775000D01*
G75*
G02*
X156975000Y-108531250I0J243750D01*
G01*
X156975000Y-108043750D01*
G75*
G02*
X157218750Y-107800000I243750J0D01*
G01*
X157781250Y-107800000D01*
G75*
G02*
X158025000Y-108043750I0J-243750D01*
G01*
X158025000Y-108531250D01*
G75*
G02*
X157781250Y-108775000I-243750J0D01*
G01*
G37*
%TD*%
D10*
%TO.C,R6*%
X114750000Y-66320000D03*
D11*
X114750000Y-46000000D03*
%TD*%
%TO.C,U5*%
G36*
G01*
X119747512Y-87900000D02*
X119997512Y-87900000D01*
G75*
G02*
X120122512Y-88025000I0J-125000D01*
G01*
X120122512Y-89500000D01*
G75*
G02*
X119997512Y-89625000I-125000J0D01*
G01*
X119747512Y-89625000D01*
G75*
G02*
X119622512Y-89500000I0J125000D01*
G01*
X119622512Y-88025000D01*
G75*
G02*
X119747512Y-87900000I125000J0D01*
G01*
G37*
G36*
G01*
X119097512Y-87900000D02*
X119347512Y-87900000D01*
G75*
G02*
X119472512Y-88025000I0J-125000D01*
G01*
X119472512Y-89500000D01*
G75*
G02*
X119347512Y-89625000I-125000J0D01*
G01*
X119097512Y-89625000D01*
G75*
G02*
X118972512Y-89500000I0J125000D01*
G01*
X118972512Y-88025000D01*
G75*
G02*
X119097512Y-87900000I125000J0D01*
G01*
G37*
G36*
G01*
X118447512Y-87900000D02*
X118697512Y-87900000D01*
G75*
G02*
X118822512Y-88025000I0J-125000D01*
G01*
X118822512Y-89500000D01*
G75*
G02*
X118697512Y-89625000I-125000J0D01*
G01*
X118447512Y-89625000D01*
G75*
G02*
X118322512Y-89500000I0J125000D01*
G01*
X118322512Y-88025000D01*
G75*
G02*
X118447512Y-87900000I125000J0D01*
G01*
G37*
G36*
G01*
X117797512Y-87900000D02*
X118047512Y-87900000D01*
G75*
G02*
X118172512Y-88025000I0J-125000D01*
G01*
X118172512Y-89500000D01*
G75*
G02*
X118047512Y-89625000I-125000J0D01*
G01*
X117797512Y-89625000D01*
G75*
G02*
X117672512Y-89500000I0J125000D01*
G01*
X117672512Y-88025000D01*
G75*
G02*
X117797512Y-87900000I125000J0D01*
G01*
G37*
G36*
G01*
X117797512Y-83675000D02*
X118047512Y-83675000D01*
G75*
G02*
X118172512Y-83800000I0J-125000D01*
G01*
X118172512Y-85275000D01*
G75*
G02*
X118047512Y-85400000I-125000J0D01*
G01*
X117797512Y-85400000D01*
G75*
G02*
X117672512Y-85275000I0J125000D01*
G01*
X117672512Y-83800000D01*
G75*
G02*
X117797512Y-83675000I125000J0D01*
G01*
G37*
G36*
G01*
X118447512Y-83675000D02*
X118697512Y-83675000D01*
G75*
G02*
X118822512Y-83800000I0J-125000D01*
G01*
X118822512Y-85275000D01*
G75*
G02*
X118697512Y-85400000I-125000J0D01*
G01*
X118447512Y-85400000D01*
G75*
G02*
X118322512Y-85275000I0J125000D01*
G01*
X118322512Y-83800000D01*
G75*
G02*
X118447512Y-83675000I125000J0D01*
G01*
G37*
G36*
G01*
X119097512Y-83675000D02*
X119347512Y-83675000D01*
G75*
G02*
X119472512Y-83800000I0J-125000D01*
G01*
X119472512Y-85275000D01*
G75*
G02*
X119347512Y-85400000I-125000J0D01*
G01*
X119097512Y-85400000D01*
G75*
G02*
X118972512Y-85275000I0J125000D01*
G01*
X118972512Y-83800000D01*
G75*
G02*
X119097512Y-83675000I125000J0D01*
G01*
G37*
G36*
G01*
X119747512Y-83675000D02*
X119997512Y-83675000D01*
G75*
G02*
X120122512Y-83800000I0J-125000D01*
G01*
X120122512Y-85275000D01*
G75*
G02*
X119997512Y-85400000I-125000J0D01*
G01*
X119747512Y-85400000D01*
G75*
G02*
X119622512Y-85275000I0J125000D01*
G01*
X119622512Y-83800000D01*
G75*
G02*
X119747512Y-83675000I125000J0D01*
G01*
G37*
%TD*%
D12*
%TO.C,D7*%
X161050000Y-66500000D03*
X158950000Y-66500000D03*
%TD*%
%TO.C,D6*%
X161050000Y-68500000D03*
X158950000Y-68500000D03*
%TD*%
%TO.C,C15*%
G36*
G01*
X162095000Y-51475000D02*
X163405000Y-51475000D01*
G75*
G02*
X163675000Y-51745000I0J-270000D01*
G01*
X163675000Y-52555000D01*
G75*
G02*
X163405000Y-52825000I-270000J0D01*
G01*
X162095000Y-52825000D01*
G75*
G02*
X161825000Y-52555000I0J270000D01*
G01*
X161825000Y-51745000D01*
G75*
G02*
X162095000Y-51475000I270000J0D01*
G01*
G37*
G36*
G01*
X162095000Y-48675000D02*
X163405000Y-48675000D01*
G75*
G02*
X163675000Y-48945000I0J-270000D01*
G01*
X163675000Y-49755000D01*
G75*
G02*
X163405000Y-50025000I-270000J0D01*
G01*
X162095000Y-50025000D01*
G75*
G02*
X161825000Y-49755000I0J270000D01*
G01*
X161825000Y-48945000D01*
G75*
G02*
X162095000Y-48675000I270000J0D01*
G01*
G37*
%TD*%
D13*
%TO.C,H4*%
X100000000Y-116000000D03*
%TD*%
%TO.C,H3*%
X168000000Y-116000000D03*
%TD*%
%TO.C,H2*%
X168000000Y-49000000D03*
%TD*%
%TO.C,H1*%
X100000000Y-49000000D03*
%TD*%
D14*
%TO.C,J6*%
X169320000Y-62320000D03*
X169320000Y-57680000D03*
D15*
X171550000Y-56425000D03*
X171550000Y-63575000D03*
D16*
X171550000Y-61125000D03*
D17*
X168900000Y-60000000D03*
X168900000Y-59350000D03*
X168900000Y-58700000D03*
X168900000Y-61300000D03*
X168900000Y-60650000D03*
D16*
X171550000Y-58875000D03*
%TD*%
D18*
%TO.C,J8*%
X112500000Y-115500000D03*
D19*
X107500000Y-115500000D03*
%TD*%
D18*
%TO.C,J5*%
X100500000Y-65750000D03*
D19*
X100500000Y-60750000D03*
%TD*%
D18*
%TO.C,J3*%
X159500000Y-115500000D03*
X154500000Y-115500000D03*
X149500000Y-115500000D03*
D19*
X144500000Y-115500000D03*
%TD*%
D18*
%TO.C,J2*%
X136000000Y-115500000D03*
X131000000Y-115500000D03*
X126000000Y-115500000D03*
D19*
X121000000Y-115500000D03*
%TD*%
D18*
%TO.C,J1*%
X167500000Y-91000000D03*
X167500000Y-96000000D03*
X167500000Y-101000000D03*
D19*
X167500000Y-106000000D03*
%TD*%
D20*
%TO.C,BT1*%
X105000000Y-92250000D03*
D21*
X105000000Y-105050000D03*
X105000000Y-79450000D03*
%TD*%
D22*
%TO.C,RV1*%
X109400000Y-47750000D03*
X107000000Y-55250000D03*
%TD*%
D23*
%TO.C,D5*%
X158750000Y-52900000D03*
X158750000Y-48600000D03*
%TD*%
D24*
%TO.C,C16*%
X150500000Y-53750000D03*
D25*
X150500000Y-48750000D03*
%TD*%
D26*
%TO.C,Y2*%
X148880000Y-103250000D03*
X144000000Y-103250000D03*
%TD*%
D27*
%TO.C,Y1*%
X119400000Y-81750000D03*
X120600000Y-81750000D03*
%TD*%
%TO.C,U4*%
G36*
G01*
X149980000Y-66200000D02*
X150330000Y-66200000D01*
G75*
G02*
X150505000Y-66375000I0J-175000D01*
G01*
X150505000Y-68075000D01*
G75*
G02*
X150330000Y-68250000I-175000J0D01*
G01*
X149980000Y-68250000D01*
G75*
G02*
X149805000Y-68075000I0J175000D01*
G01*
X149805000Y-66375000D01*
G75*
G02*
X149980000Y-66200000I175000J0D01*
G01*
G37*
G36*
G01*
X148710000Y-66200000D02*
X149060000Y-66200000D01*
G75*
G02*
X149235000Y-66375000I0J-175000D01*
G01*
X149235000Y-68075000D01*
G75*
G02*
X149060000Y-68250000I-175000J0D01*
G01*
X148710000Y-68250000D01*
G75*
G02*
X148535000Y-68075000I0J175000D01*
G01*
X148535000Y-66375000D01*
G75*
G02*
X148710000Y-66200000I175000J0D01*
G01*
G37*
G36*
G01*
X147440000Y-66200000D02*
X147790000Y-66200000D01*
G75*
G02*
X147965000Y-66375000I0J-175000D01*
G01*
X147965000Y-68075000D01*
G75*
G02*
X147790000Y-68250000I-175000J0D01*
G01*
X147440000Y-68250000D01*
G75*
G02*
X147265000Y-68075000I0J175000D01*
G01*
X147265000Y-66375000D01*
G75*
G02*
X147440000Y-66200000I175000J0D01*
G01*
G37*
G36*
G01*
X146170000Y-66200000D02*
X146520000Y-66200000D01*
G75*
G02*
X146695000Y-66375000I0J-175000D01*
G01*
X146695000Y-68075000D01*
G75*
G02*
X146520000Y-68250000I-175000J0D01*
G01*
X146170000Y-68250000D01*
G75*
G02*
X145995000Y-68075000I0J175000D01*
G01*
X145995000Y-66375000D01*
G75*
G02*
X146170000Y-66200000I175000J0D01*
G01*
G37*
G36*
G01*
X146170000Y-61250000D02*
X146520000Y-61250000D01*
G75*
G02*
X146695000Y-61425000I0J-175000D01*
G01*
X146695000Y-63125000D01*
G75*
G02*
X146520000Y-63300000I-175000J0D01*
G01*
X146170000Y-63300000D01*
G75*
G02*
X145995000Y-63125000I0J175000D01*
G01*
X145995000Y-61425000D01*
G75*
G02*
X146170000Y-61250000I175000J0D01*
G01*
G37*
G36*
G01*
X147440000Y-61250000D02*
X147790000Y-61250000D01*
G75*
G02*
X147965000Y-61425000I0J-175000D01*
G01*
X147965000Y-63125000D01*
G75*
G02*
X147790000Y-63300000I-175000J0D01*
G01*
X147440000Y-63300000D01*
G75*
G02*
X147265000Y-63125000I0J175000D01*
G01*
X147265000Y-61425000D01*
G75*
G02*
X147440000Y-61250000I175000J0D01*
G01*
G37*
G36*
G01*
X148710000Y-61250000D02*
X149060000Y-61250000D01*
G75*
G02*
X149235000Y-61425000I0J-175000D01*
G01*
X149235000Y-63125000D01*
G75*
G02*
X149060000Y-63300000I-175000J0D01*
G01*
X148710000Y-63300000D01*
G75*
G02*
X148535000Y-63125000I0J175000D01*
G01*
X148535000Y-61425000D01*
G75*
G02*
X148710000Y-61250000I175000J0D01*
G01*
G37*
G36*
G01*
X149980000Y-61250000D02*
X150330000Y-61250000D01*
G75*
G02*
X150505000Y-61425000I0J-175000D01*
G01*
X150505000Y-63125000D01*
G75*
G02*
X150330000Y-63300000I-175000J0D01*
G01*
X149980000Y-63300000D01*
G75*
G02*
X149805000Y-63125000I0J175000D01*
G01*
X149805000Y-61425000D01*
G75*
G02*
X149980000Y-61250000I175000J0D01*
G01*
G37*
%TD*%
D28*
%TO.C,U3*%
X162500000Y-60750000D03*
G36*
G01*
X160462500Y-62675000D02*
X159662500Y-62675000D01*
G75*
G02*
X159575000Y-62587500I0J87500D01*
G01*
X159575000Y-62412500D01*
G75*
G02*
X159662500Y-62325000I87500J0D01*
G01*
X160462500Y-62325000D01*
G75*
G02*
X160550000Y-62412500I0J-87500D01*
G01*
X160550000Y-62587500D01*
G75*
G02*
X160462500Y-62675000I-87500J0D01*
G01*
G37*
G36*
G01*
X160462500Y-62175000D02*
X159662500Y-62175000D01*
G75*
G02*
X159575000Y-62087500I0J87500D01*
G01*
X159575000Y-61912500D01*
G75*
G02*
X159662500Y-61825000I87500J0D01*
G01*
X160462500Y-61825000D01*
G75*
G02*
X160550000Y-61912500I0J-87500D01*
G01*
X160550000Y-62087500D01*
G75*
G02*
X160462500Y-62175000I-87500J0D01*
G01*
G37*
G36*
G01*
X160462500Y-61675000D02*
X159662500Y-61675000D01*
G75*
G02*
X159575000Y-61587500I0J87500D01*
G01*
X159575000Y-61412500D01*
G75*
G02*
X159662500Y-61325000I87500J0D01*
G01*
X160462500Y-61325000D01*
G75*
G02*
X160550000Y-61412500I0J-87500D01*
G01*
X160550000Y-61587500D01*
G75*
G02*
X160462500Y-61675000I-87500J0D01*
G01*
G37*
G36*
G01*
X160462500Y-61175000D02*
X159662500Y-61175000D01*
G75*
G02*
X159575000Y-61087500I0J87500D01*
G01*
X159575000Y-60912500D01*
G75*
G02*
X159662500Y-60825000I87500J0D01*
G01*
X160462500Y-60825000D01*
G75*
G02*
X160550000Y-60912500I0J-87500D01*
G01*
X160550000Y-61087500D01*
G75*
G02*
X160462500Y-61175000I-87500J0D01*
G01*
G37*
G36*
G01*
X160462500Y-60675000D02*
X159662500Y-60675000D01*
G75*
G02*
X159575000Y-60587500I0J87500D01*
G01*
X159575000Y-60412500D01*
G75*
G02*
X159662500Y-60325000I87500J0D01*
G01*
X160462500Y-60325000D01*
G75*
G02*
X160550000Y-60412500I0J-87500D01*
G01*
X160550000Y-60587500D01*
G75*
G02*
X160462500Y-60675000I-87500J0D01*
G01*
G37*
G36*
G01*
X160462500Y-60175000D02*
X159662500Y-60175000D01*
G75*
G02*
X159575000Y-60087500I0J87500D01*
G01*
X159575000Y-59912500D01*
G75*
G02*
X159662500Y-59825000I87500J0D01*
G01*
X160462500Y-59825000D01*
G75*
G02*
X160550000Y-59912500I0J-87500D01*
G01*
X160550000Y-60087500D01*
G75*
G02*
X160462500Y-60175000I-87500J0D01*
G01*
G37*
G36*
G01*
X160462500Y-59675000D02*
X159662500Y-59675000D01*
G75*
G02*
X159575000Y-59587500I0J87500D01*
G01*
X159575000Y-59412500D01*
G75*
G02*
X159662500Y-59325000I87500J0D01*
G01*
X160462500Y-59325000D01*
G75*
G02*
X160550000Y-59412500I0J-87500D01*
G01*
X160550000Y-59587500D01*
G75*
G02*
X160462500Y-59675000I-87500J0D01*
G01*
G37*
G36*
G01*
X160462500Y-59175000D02*
X159662500Y-59175000D01*
G75*
G02*
X159575000Y-59087500I0J87500D01*
G01*
X159575000Y-58912500D01*
G75*
G02*
X159662500Y-58825000I87500J0D01*
G01*
X160462500Y-58825000D01*
G75*
G02*
X160550000Y-58912500I0J-87500D01*
G01*
X160550000Y-59087500D01*
G75*
G02*
X160462500Y-59175000I-87500J0D01*
G01*
G37*
G36*
G01*
X160837500Y-58800000D02*
X160662500Y-58800000D01*
G75*
G02*
X160575000Y-58712500I0J87500D01*
G01*
X160575000Y-57912500D01*
G75*
G02*
X160662500Y-57825000I87500J0D01*
G01*
X160837500Y-57825000D01*
G75*
G02*
X160925000Y-57912500I0J-87500D01*
G01*
X160925000Y-58712500D01*
G75*
G02*
X160837500Y-58800000I-87500J0D01*
G01*
G37*
G36*
G01*
X161337500Y-58800000D02*
X161162500Y-58800000D01*
G75*
G02*
X161075000Y-58712500I0J87500D01*
G01*
X161075000Y-57912500D01*
G75*
G02*
X161162500Y-57825000I87500J0D01*
G01*
X161337500Y-57825000D01*
G75*
G02*
X161425000Y-57912500I0J-87500D01*
G01*
X161425000Y-58712500D01*
G75*
G02*
X161337500Y-58800000I-87500J0D01*
G01*
G37*
G36*
G01*
X161837500Y-58800000D02*
X161662500Y-58800000D01*
G75*
G02*
X161575000Y-58712500I0J87500D01*
G01*
X161575000Y-57912500D01*
G75*
G02*
X161662500Y-57825000I87500J0D01*
G01*
X161837500Y-57825000D01*
G75*
G02*
X161925000Y-57912500I0J-87500D01*
G01*
X161925000Y-58712500D01*
G75*
G02*
X161837500Y-58800000I-87500J0D01*
G01*
G37*
G36*
G01*
X162337500Y-58800000D02*
X162162500Y-58800000D01*
G75*
G02*
X162075000Y-58712500I0J87500D01*
G01*
X162075000Y-57912500D01*
G75*
G02*
X162162500Y-57825000I87500J0D01*
G01*
X162337500Y-57825000D01*
G75*
G02*
X162425000Y-57912500I0J-87500D01*
G01*
X162425000Y-58712500D01*
G75*
G02*
X162337500Y-58800000I-87500J0D01*
G01*
G37*
G36*
G01*
X162837500Y-58800000D02*
X162662500Y-58800000D01*
G75*
G02*
X162575000Y-58712500I0J87500D01*
G01*
X162575000Y-57912500D01*
G75*
G02*
X162662500Y-57825000I87500J0D01*
G01*
X162837500Y-57825000D01*
G75*
G02*
X162925000Y-57912500I0J-87500D01*
G01*
X162925000Y-58712500D01*
G75*
G02*
X162837500Y-58800000I-87500J0D01*
G01*
G37*
G36*
G01*
X163337500Y-58800000D02*
X163162500Y-58800000D01*
G75*
G02*
X163075000Y-58712500I0J87500D01*
G01*
X163075000Y-57912500D01*
G75*
G02*
X163162500Y-57825000I87500J0D01*
G01*
X163337500Y-57825000D01*
G75*
G02*
X163425000Y-57912500I0J-87500D01*
G01*
X163425000Y-58712500D01*
G75*
G02*
X163337500Y-58800000I-87500J0D01*
G01*
G37*
G36*
G01*
X163837500Y-58800000D02*
X163662500Y-58800000D01*
G75*
G02*
X163575000Y-58712500I0J87500D01*
G01*
X163575000Y-57912500D01*
G75*
G02*
X163662500Y-57825000I87500J0D01*
G01*
X163837500Y-57825000D01*
G75*
G02*
X163925000Y-57912500I0J-87500D01*
G01*
X163925000Y-58712500D01*
G75*
G02*
X163837500Y-58800000I-87500J0D01*
G01*
G37*
G36*
G01*
X164337500Y-58800000D02*
X164162500Y-58800000D01*
G75*
G02*
X164075000Y-58712500I0J87500D01*
G01*
X164075000Y-57912500D01*
G75*
G02*
X164162500Y-57825000I87500J0D01*
G01*
X164337500Y-57825000D01*
G75*
G02*
X164425000Y-57912500I0J-87500D01*
G01*
X164425000Y-58712500D01*
G75*
G02*
X164337500Y-58800000I-87500J0D01*
G01*
G37*
G36*
G01*
X165337500Y-59175000D02*
X164537500Y-59175000D01*
G75*
G02*
X164450000Y-59087500I0J87500D01*
G01*
X164450000Y-58912500D01*
G75*
G02*
X164537500Y-58825000I87500J0D01*
G01*
X165337500Y-58825000D01*
G75*
G02*
X165425000Y-58912500I0J-87500D01*
G01*
X165425000Y-59087500D01*
G75*
G02*
X165337500Y-59175000I-87500J0D01*
G01*
G37*
G36*
G01*
X165337500Y-59675000D02*
X164537500Y-59675000D01*
G75*
G02*
X164450000Y-59587500I0J87500D01*
G01*
X164450000Y-59412500D01*
G75*
G02*
X164537500Y-59325000I87500J0D01*
G01*
X165337500Y-59325000D01*
G75*
G02*
X165425000Y-59412500I0J-87500D01*
G01*
X165425000Y-59587500D01*
G75*
G02*
X165337500Y-59675000I-87500J0D01*
G01*
G37*
G36*
G01*
X165337500Y-60175000D02*
X164537500Y-60175000D01*
G75*
G02*
X164450000Y-60087500I0J87500D01*
G01*
X164450000Y-59912500D01*
G75*
G02*
X164537500Y-59825000I87500J0D01*
G01*
X165337500Y-59825000D01*
G75*
G02*
X165425000Y-59912500I0J-87500D01*
G01*
X165425000Y-60087500D01*
G75*
G02*
X165337500Y-60175000I-87500J0D01*
G01*
G37*
G36*
G01*
X165337500Y-60675000D02*
X164537500Y-60675000D01*
G75*
G02*
X164450000Y-60587500I0J87500D01*
G01*
X164450000Y-60412500D01*
G75*
G02*
X164537500Y-60325000I87500J0D01*
G01*
X165337500Y-60325000D01*
G75*
G02*
X165425000Y-60412500I0J-87500D01*
G01*
X165425000Y-60587500D01*
G75*
G02*
X165337500Y-60675000I-87500J0D01*
G01*
G37*
G36*
G01*
X165337500Y-61175000D02*
X164537500Y-61175000D01*
G75*
G02*
X164450000Y-61087500I0J87500D01*
G01*
X164450000Y-60912500D01*
G75*
G02*
X164537500Y-60825000I87500J0D01*
G01*
X165337500Y-60825000D01*
G75*
G02*
X165425000Y-60912500I0J-87500D01*
G01*
X165425000Y-61087500D01*
G75*
G02*
X165337500Y-61175000I-87500J0D01*
G01*
G37*
G36*
G01*
X165337500Y-61675000D02*
X164537500Y-61675000D01*
G75*
G02*
X164450000Y-61587500I0J87500D01*
G01*
X164450000Y-61412500D01*
G75*
G02*
X164537500Y-61325000I87500J0D01*
G01*
X165337500Y-61325000D01*
G75*
G02*
X165425000Y-61412500I0J-87500D01*
G01*
X165425000Y-61587500D01*
G75*
G02*
X165337500Y-61675000I-87500J0D01*
G01*
G37*
G36*
G01*
X165337500Y-62175000D02*
X164537500Y-62175000D01*
G75*
G02*
X164450000Y-62087500I0J87500D01*
G01*
X164450000Y-61912500D01*
G75*
G02*
X164537500Y-61825000I87500J0D01*
G01*
X165337500Y-61825000D01*
G75*
G02*
X165425000Y-61912500I0J-87500D01*
G01*
X165425000Y-62087500D01*
G75*
G02*
X165337500Y-62175000I-87500J0D01*
G01*
G37*
G36*
G01*
X165337500Y-62675000D02*
X164537500Y-62675000D01*
G75*
G02*
X164450000Y-62587500I0J87500D01*
G01*
X164450000Y-62412500D01*
G75*
G02*
X164537500Y-62325000I87500J0D01*
G01*
X165337500Y-62325000D01*
G75*
G02*
X165425000Y-62412500I0J-87500D01*
G01*
X165425000Y-62587500D01*
G75*
G02*
X165337500Y-62675000I-87500J0D01*
G01*
G37*
G36*
G01*
X164337500Y-63675000D02*
X164162500Y-63675000D01*
G75*
G02*
X164075000Y-63587500I0J87500D01*
G01*
X164075000Y-62787500D01*
G75*
G02*
X164162500Y-62700000I87500J0D01*
G01*
X164337500Y-62700000D01*
G75*
G02*
X164425000Y-62787500I0J-87500D01*
G01*
X164425000Y-63587500D01*
G75*
G02*
X164337500Y-63675000I-87500J0D01*
G01*
G37*
G36*
G01*
X163837500Y-63675000D02*
X163662500Y-63675000D01*
G75*
G02*
X163575000Y-63587500I0J87500D01*
G01*
X163575000Y-62787500D01*
G75*
G02*
X163662500Y-62700000I87500J0D01*
G01*
X163837500Y-62700000D01*
G75*
G02*
X163925000Y-62787500I0J-87500D01*
G01*
X163925000Y-63587500D01*
G75*
G02*
X163837500Y-63675000I-87500J0D01*
G01*
G37*
G36*
G01*
X163337500Y-63675000D02*
X163162500Y-63675000D01*
G75*
G02*
X163075000Y-63587500I0J87500D01*
G01*
X163075000Y-62787500D01*
G75*
G02*
X163162500Y-62700000I87500J0D01*
G01*
X163337500Y-62700000D01*
G75*
G02*
X163425000Y-62787500I0J-87500D01*
G01*
X163425000Y-63587500D01*
G75*
G02*
X163337500Y-63675000I-87500J0D01*
G01*
G37*
G36*
G01*
X162837500Y-63675000D02*
X162662500Y-63675000D01*
G75*
G02*
X162575000Y-63587500I0J87500D01*
G01*
X162575000Y-62787500D01*
G75*
G02*
X162662500Y-62700000I87500J0D01*
G01*
X162837500Y-62700000D01*
G75*
G02*
X162925000Y-62787500I0J-87500D01*
G01*
X162925000Y-63587500D01*
G75*
G02*
X162837500Y-63675000I-87500J0D01*
G01*
G37*
G36*
G01*
X162337500Y-63675000D02*
X162162500Y-63675000D01*
G75*
G02*
X162075000Y-63587500I0J87500D01*
G01*
X162075000Y-62787500D01*
G75*
G02*
X162162500Y-62700000I87500J0D01*
G01*
X162337500Y-62700000D01*
G75*
G02*
X162425000Y-62787500I0J-87500D01*
G01*
X162425000Y-63587500D01*
G75*
G02*
X162337500Y-63675000I-87500J0D01*
G01*
G37*
G36*
G01*
X161837500Y-63675000D02*
X161662500Y-63675000D01*
G75*
G02*
X161575000Y-63587500I0J87500D01*
G01*
X161575000Y-62787500D01*
G75*
G02*
X161662500Y-62700000I87500J0D01*
G01*
X161837500Y-62700000D01*
G75*
G02*
X161925000Y-62787500I0J-87500D01*
G01*
X161925000Y-63587500D01*
G75*
G02*
X161837500Y-63675000I-87500J0D01*
G01*
G37*
G36*
G01*
X161337500Y-63675000D02*
X161162500Y-63675000D01*
G75*
G02*
X161075000Y-63587500I0J87500D01*
G01*
X161075000Y-62787500D01*
G75*
G02*
X161162500Y-62700000I87500J0D01*
G01*
X161337500Y-62700000D01*
G75*
G02*
X161425000Y-62787500I0J-87500D01*
G01*
X161425000Y-63587500D01*
G75*
G02*
X161337500Y-63675000I-87500J0D01*
G01*
G37*
G36*
G01*
X160837500Y-63675000D02*
X160662500Y-63675000D01*
G75*
G02*
X160575000Y-63587500I0J87500D01*
G01*
X160575000Y-62787500D01*
G75*
G02*
X160662500Y-62700000I87500J0D01*
G01*
X160837500Y-62700000D01*
G75*
G02*
X160925000Y-62787500I0J-87500D01*
G01*
X160925000Y-63587500D01*
G75*
G02*
X160837500Y-63675000I-87500J0D01*
G01*
G37*
%TD*%
D29*
%TO.C,U2*%
X141910000Y-47590000D03*
X121590000Y-52670000D03*
X121590000Y-47590000D03*
X141910000Y-57750000D03*
%TD*%
D24*
%TO.C,SW1*%
X133200000Y-104250000D03*
X126800000Y-104250000D03*
%TD*%
%TO.C,R5*%
G36*
G01*
X158718750Y-102550000D02*
X159281250Y-102550000D01*
G75*
G02*
X159525000Y-102793750I0J-243750D01*
G01*
X159525000Y-103281250D01*
G75*
G02*
X159281250Y-103525000I-243750J0D01*
G01*
X158718750Y-103525000D01*
G75*
G02*
X158475000Y-103281250I0J243750D01*
G01*
X158475000Y-102793750D01*
G75*
G02*
X158718750Y-102550000I243750J0D01*
G01*
G37*
G36*
G01*
X158718750Y-100975000D02*
X159281250Y-100975000D01*
G75*
G02*
X159525000Y-101218750I0J-243750D01*
G01*
X159525000Y-101706250D01*
G75*
G02*
X159281250Y-101950000I-243750J0D01*
G01*
X158718750Y-101950000D01*
G75*
G02*
X158475000Y-101706250I0J243750D01*
G01*
X158475000Y-101218750D01*
G75*
G02*
X158718750Y-100975000I243750J0D01*
G01*
G37*
%TD*%
%TO.C,R4*%
G36*
G01*
X123218750Y-87050000D02*
X123781250Y-87050000D01*
G75*
G02*
X124025000Y-87293750I0J-243750D01*
G01*
X124025000Y-87781250D01*
G75*
G02*
X123781250Y-88025000I-243750J0D01*
G01*
X123218750Y-88025000D01*
G75*
G02*
X122975000Y-87781250I0J243750D01*
G01*
X122975000Y-87293750D01*
G75*
G02*
X123218750Y-87050000I243750J0D01*
G01*
G37*
G36*
G01*
X123218750Y-85475000D02*
X123781250Y-85475000D01*
G75*
G02*
X124025000Y-85718750I0J-243750D01*
G01*
X124025000Y-86206250D01*
G75*
G02*
X123781250Y-86450000I-243750J0D01*
G01*
X123218750Y-86450000D01*
G75*
G02*
X122975000Y-86206250I0J243750D01*
G01*
X122975000Y-85718750D01*
G75*
G02*
X123218750Y-85475000I243750J0D01*
G01*
G37*
%TD*%
%TO.C,R3*%
G36*
G01*
X125531250Y-86450000D02*
X124968750Y-86450000D01*
G75*
G02*
X124725000Y-86206250I0J243750D01*
G01*
X124725000Y-85718750D01*
G75*
G02*
X124968750Y-85475000I243750J0D01*
G01*
X125531250Y-85475000D01*
G75*
G02*
X125775000Y-85718750I0J-243750D01*
G01*
X125775000Y-86206250D01*
G75*
G02*
X125531250Y-86450000I-243750J0D01*
G01*
G37*
G36*
G01*
X125531250Y-88025000D02*
X124968750Y-88025000D01*
G75*
G02*
X124725000Y-87781250I0J243750D01*
G01*
X124725000Y-87293750D01*
G75*
G02*
X124968750Y-87050000I243750J0D01*
G01*
X125531250Y-87050000D01*
G75*
G02*
X125775000Y-87293750I0J-243750D01*
G01*
X125775000Y-87781250D01*
G75*
G02*
X125531250Y-88025000I-243750J0D01*
G01*
G37*
%TD*%
%TO.C,R2*%
G36*
G01*
X119468750Y-96837500D02*
X120031250Y-96837500D01*
G75*
G02*
X120275000Y-97081250I0J-243750D01*
G01*
X120275000Y-97568750D01*
G75*
G02*
X120031250Y-97812500I-243750J0D01*
G01*
X119468750Y-97812500D01*
G75*
G02*
X119225000Y-97568750I0J243750D01*
G01*
X119225000Y-97081250D01*
G75*
G02*
X119468750Y-96837500I243750J0D01*
G01*
G37*
G36*
G01*
X119468750Y-95262500D02*
X120031250Y-95262500D01*
G75*
G02*
X120275000Y-95506250I0J-243750D01*
G01*
X120275000Y-95993750D01*
G75*
G02*
X120031250Y-96237500I-243750J0D01*
G01*
X119468750Y-96237500D01*
G75*
G02*
X119225000Y-95993750I0J243750D01*
G01*
X119225000Y-95506250D01*
G75*
G02*
X119468750Y-95262500I243750J0D01*
G01*
G37*
%TD*%
%TO.C,R1*%
G36*
G01*
X114968750Y-109300000D02*
X115531250Y-109300000D01*
G75*
G02*
X115775000Y-109543750I0J-243750D01*
G01*
X115775000Y-110031250D01*
G75*
G02*
X115531250Y-110275000I-243750J0D01*
G01*
X114968750Y-110275000D01*
G75*
G02*
X114725000Y-110031250I0J243750D01*
G01*
X114725000Y-109543750D01*
G75*
G02*
X114968750Y-109300000I243750J0D01*
G01*
G37*
G36*
G01*
X114968750Y-107725000D02*
X115531250Y-107725000D01*
G75*
G02*
X115775000Y-107968750I0J-243750D01*
G01*
X115775000Y-108456250D01*
G75*
G02*
X115531250Y-108700000I-243750J0D01*
G01*
X114968750Y-108700000D01*
G75*
G02*
X114725000Y-108456250I0J243750D01*
G01*
X114725000Y-107968750D01*
G75*
G02*
X114968750Y-107725000I243750J0D01*
G01*
G37*
%TD*%
D30*
%TO.C,J7*%
X168415400Y-75059999D03*
X168015401Y-76159999D03*
X168415400Y-77259999D03*
X168615400Y-78360000D03*
X168415400Y-79460000D03*
X168615400Y-80560000D03*
X168415400Y-81659884D03*
X168415400Y-82759884D03*
D31*
X157330401Y-80560064D03*
D32*
X157555400Y-81950000D03*
X157555400Y-76250000D03*
D33*
X170705401Y-83549999D03*
X171705402Y-70400001D03*
%TD*%
D34*
%TO.C,J4*%
X149710000Y-79670000D03*
X152250000Y-79670000D03*
X149710000Y-82210000D03*
X152250000Y-82210000D03*
X149710000Y-84750000D03*
D35*
X152250000Y-84750000D03*
%TD*%
%TO.C,F1*%
G36*
G01*
X99775000Y-54345000D02*
X99775000Y-55655000D01*
G75*
G02*
X99505000Y-55925000I-270000J0D01*
G01*
X98695000Y-55925000D01*
G75*
G02*
X98425000Y-55655000I0J270000D01*
G01*
X98425000Y-54345000D01*
G75*
G02*
X98695000Y-54075000I270000J0D01*
G01*
X99505000Y-54075000D01*
G75*
G02*
X99775000Y-54345000I0J-270000D01*
G01*
G37*
G36*
G01*
X102575000Y-54345000D02*
X102575000Y-55655000D01*
G75*
G02*
X102305000Y-55925000I-270000J0D01*
G01*
X101495000Y-55925000D01*
G75*
G02*
X101225000Y-55655000I0J270000D01*
G01*
X101225000Y-54345000D01*
G75*
G02*
X101495000Y-54075000I270000J0D01*
G01*
X102305000Y-54075000D01*
G75*
G02*
X102575000Y-54345000I0J-270000D01*
G01*
G37*
%TD*%
%TO.C,D4*%
G36*
G01*
X157781250Y-101950000D02*
X157218750Y-101950000D01*
G75*
G02*
X156975000Y-101706250I0J243750D01*
G01*
X156975000Y-101218750D01*
G75*
G02*
X157218750Y-100975000I243750J0D01*
G01*
X157781250Y-100975000D01*
G75*
G02*
X158025000Y-101218750I0J-243750D01*
G01*
X158025000Y-101706250D01*
G75*
G02*
X157781250Y-101950000I-243750J0D01*
G01*
G37*
G36*
G01*
X157781250Y-103525000D02*
X157218750Y-103525000D01*
G75*
G02*
X156975000Y-103281250I0J243750D01*
G01*
X156975000Y-102793750D01*
G75*
G02*
X157218750Y-102550000I243750J0D01*
G01*
X157781250Y-102550000D01*
G75*
G02*
X158025000Y-102793750I0J-243750D01*
G01*
X158025000Y-103281250D01*
G75*
G02*
X157781250Y-103525000I-243750J0D01*
G01*
G37*
%TD*%
D36*
%TO.C,D3*%
X113250000Y-106850000D03*
X113250000Y-110150000D03*
%TD*%
D12*
%TO.C,D2*%
X154050000Y-65000000D03*
X151950000Y-65000000D03*
%TD*%
%TO.C,D1*%
X154050000Y-67250000D03*
X151950000Y-67250000D03*
%TD*%
%TO.C,C14*%
G36*
G01*
X149218750Y-108050000D02*
X149781250Y-108050000D01*
G75*
G02*
X150025000Y-108293750I0J-243750D01*
G01*
X150025000Y-108781250D01*
G75*
G02*
X149781250Y-109025000I-243750J0D01*
G01*
X149218750Y-109025000D01*
G75*
G02*
X148975000Y-108781250I0J243750D01*
G01*
X148975000Y-108293750D01*
G75*
G02*
X149218750Y-108050000I243750J0D01*
G01*
G37*
G36*
G01*
X149218750Y-106475000D02*
X149781250Y-106475000D01*
G75*
G02*
X150025000Y-106718750I0J-243750D01*
G01*
X150025000Y-107206250D01*
G75*
G02*
X149781250Y-107450000I-243750J0D01*
G01*
X149218750Y-107450000D01*
G75*
G02*
X148975000Y-107206250I0J243750D01*
G01*
X148975000Y-106718750D01*
G75*
G02*
X149218750Y-106475000I243750J0D01*
G01*
G37*
%TD*%
%TO.C,C13*%
G36*
G01*
X143781250Y-107450000D02*
X143218750Y-107450000D01*
G75*
G02*
X142975000Y-107206250I0J243750D01*
G01*
X142975000Y-106718750D01*
G75*
G02*
X143218750Y-106475000I243750J0D01*
G01*
X143781250Y-106475000D01*
G75*
G02*
X144025000Y-106718750I0J-243750D01*
G01*
X144025000Y-107206250D01*
G75*
G02*
X143781250Y-107450000I-243750J0D01*
G01*
G37*
G36*
G01*
X143781250Y-109025000D02*
X143218750Y-109025000D01*
G75*
G02*
X142975000Y-108781250I0J243750D01*
G01*
X142975000Y-108293750D01*
G75*
G02*
X143218750Y-108050000I243750J0D01*
G01*
X143781250Y-108050000D01*
G75*
G02*
X144025000Y-108293750I0J-243750D01*
G01*
X144025000Y-108781250D01*
G75*
G02*
X143781250Y-109025000I-243750J0D01*
G01*
G37*
%TD*%
%TO.C,C12*%
G36*
G01*
X119550000Y-92031250D02*
X119550000Y-91468750D01*
G75*
G02*
X119793750Y-91225000I243750J0D01*
G01*
X120281250Y-91225000D01*
G75*
G02*
X120525000Y-91468750I0J-243750D01*
G01*
X120525000Y-92031250D01*
G75*
G02*
X120281250Y-92275000I-243750J0D01*
G01*
X119793750Y-92275000D01*
G75*
G02*
X119550000Y-92031250I0J243750D01*
G01*
G37*
G36*
G01*
X117975000Y-92031250D02*
X117975000Y-91468750D01*
G75*
G02*
X118218750Y-91225000I243750J0D01*
G01*
X118706250Y-91225000D01*
G75*
G02*
X118950000Y-91468750I0J-243750D01*
G01*
X118950000Y-92031250D01*
G75*
G02*
X118706250Y-92275000I-243750J0D01*
G01*
X118218750Y-92275000D01*
G75*
G02*
X117975000Y-92031250I0J243750D01*
G01*
G37*
%TD*%
%TO.C,C11*%
G36*
G01*
X146050000Y-87781250D02*
X146050000Y-87218750D01*
G75*
G02*
X146293750Y-86975000I243750J0D01*
G01*
X146781250Y-86975000D01*
G75*
G02*
X147025000Y-87218750I0J-243750D01*
G01*
X147025000Y-87781250D01*
G75*
G02*
X146781250Y-88025000I-243750J0D01*
G01*
X146293750Y-88025000D01*
G75*
G02*
X146050000Y-87781250I0J243750D01*
G01*
G37*
G36*
G01*
X144475000Y-87781250D02*
X144475000Y-87218750D01*
G75*
G02*
X144718750Y-86975000I243750J0D01*
G01*
X145206250Y-86975000D01*
G75*
G02*
X145450000Y-87218750I0J-243750D01*
G01*
X145450000Y-87781250D01*
G75*
G02*
X145206250Y-88025000I-243750J0D01*
G01*
X144718750Y-88025000D01*
G75*
G02*
X144475000Y-87781250I0J243750D01*
G01*
G37*
%TD*%
%TO.C,C10*%
G36*
G01*
X140450000Y-98968750D02*
X140450000Y-99531250D01*
G75*
G02*
X140206250Y-99775000I-243750J0D01*
G01*
X139718750Y-99775000D01*
G75*
G02*
X139475000Y-99531250I0J243750D01*
G01*
X139475000Y-98968750D01*
G75*
G02*
X139718750Y-98725000I243750J0D01*
G01*
X140206250Y-98725000D01*
G75*
G02*
X140450000Y-98968750I0J-243750D01*
G01*
G37*
G36*
G01*
X142025000Y-98968750D02*
X142025000Y-99531250D01*
G75*
G02*
X141781250Y-99775000I-243750J0D01*
G01*
X141293750Y-99775000D01*
G75*
G02*
X141050000Y-99531250I0J243750D01*
G01*
X141050000Y-98968750D01*
G75*
G02*
X141293750Y-98725000I243750J0D01*
G01*
X141781250Y-98725000D01*
G75*
G02*
X142025000Y-98968750I0J-243750D01*
G01*
G37*
%TD*%
%TO.C,C9*%
G36*
G01*
X160950000Y-64468750D02*
X160950000Y-65031250D01*
G75*
G02*
X160706250Y-65275000I-243750J0D01*
G01*
X160218750Y-65275000D01*
G75*
G02*
X159975000Y-65031250I0J243750D01*
G01*
X159975000Y-64468750D01*
G75*
G02*
X160218750Y-64225000I243750J0D01*
G01*
X160706250Y-64225000D01*
G75*
G02*
X160950000Y-64468750I0J-243750D01*
G01*
G37*
G36*
G01*
X162525000Y-64468750D02*
X162525000Y-65031250D01*
G75*
G02*
X162281250Y-65275000I-243750J0D01*
G01*
X161793750Y-65275000D01*
G75*
G02*
X161550000Y-65031250I0J243750D01*
G01*
X161550000Y-64468750D01*
G75*
G02*
X161793750Y-64225000I243750J0D01*
G01*
X162281250Y-64225000D01*
G75*
G02*
X162525000Y-64468750I0J-243750D01*
G01*
G37*
%TD*%
%TO.C,C8*%
G36*
G01*
X166450000Y-84718750D02*
X166450000Y-85281250D01*
G75*
G02*
X166206250Y-85525000I-243750J0D01*
G01*
X165718750Y-85525000D01*
G75*
G02*
X165475000Y-85281250I0J243750D01*
G01*
X165475000Y-84718750D01*
G75*
G02*
X165718750Y-84475000I243750J0D01*
G01*
X166206250Y-84475000D01*
G75*
G02*
X166450000Y-84718750I0J-243750D01*
G01*
G37*
G36*
G01*
X168025000Y-84718750D02*
X168025000Y-85281250D01*
G75*
G02*
X167781250Y-85525000I-243750J0D01*
G01*
X167293750Y-85525000D01*
G75*
G02*
X167050000Y-85281250I0J243750D01*
G01*
X167050000Y-84718750D01*
G75*
G02*
X167293750Y-84475000I243750J0D01*
G01*
X167781250Y-84475000D01*
G75*
G02*
X168025000Y-84718750I0J-243750D01*
G01*
G37*
%TD*%
%TO.C,C7*%
G36*
G01*
X141300000Y-87781250D02*
X141300000Y-87218750D01*
G75*
G02*
X141543750Y-86975000I243750J0D01*
G01*
X142031250Y-86975000D01*
G75*
G02*
X142275000Y-87218750I0J-243750D01*
G01*
X142275000Y-87781250D01*
G75*
G02*
X142031250Y-88025000I-243750J0D01*
G01*
X141543750Y-88025000D01*
G75*
G02*
X141300000Y-87781250I0J243750D01*
G01*
G37*
G36*
G01*
X139725000Y-87781250D02*
X139725000Y-87218750D01*
G75*
G02*
X139968750Y-86975000I243750J0D01*
G01*
X140456250Y-86975000D01*
G75*
G02*
X140700000Y-87218750I0J-243750D01*
G01*
X140700000Y-87781250D01*
G75*
G02*
X140456250Y-88025000I-243750J0D01*
G01*
X139968750Y-88025000D01*
G75*
G02*
X139725000Y-87781250I0J243750D01*
G01*
G37*
%TD*%
%TO.C,C6*%
G36*
G01*
X121218750Y-96800000D02*
X121781250Y-96800000D01*
G75*
G02*
X122025000Y-97043750I0J-243750D01*
G01*
X122025000Y-97531250D01*
G75*
G02*
X121781250Y-97775000I-243750J0D01*
G01*
X121218750Y-97775000D01*
G75*
G02*
X120975000Y-97531250I0J243750D01*
G01*
X120975000Y-97043750D01*
G75*
G02*
X121218750Y-96800000I243750J0D01*
G01*
G37*
G36*
G01*
X121218750Y-95225000D02*
X121781250Y-95225000D01*
G75*
G02*
X122025000Y-95468750I0J-243750D01*
G01*
X122025000Y-95956250D01*
G75*
G02*
X121781250Y-96200000I-243750J0D01*
G01*
X121218750Y-96200000D01*
G75*
G02*
X120975000Y-95956250I0J243750D01*
G01*
X120975000Y-95468750D01*
G75*
G02*
X121218750Y-95225000I243750J0D01*
G01*
G37*
%TD*%
%TO.C,C5*%
G36*
G01*
X119281250Y-78950000D02*
X118718750Y-78950000D01*
G75*
G02*
X118475000Y-78706250I0J243750D01*
G01*
X118475000Y-78218750D01*
G75*
G02*
X118718750Y-77975000I243750J0D01*
G01*
X119281250Y-77975000D01*
G75*
G02*
X119525000Y-78218750I0J-243750D01*
G01*
X119525000Y-78706250D01*
G75*
G02*
X119281250Y-78950000I-243750J0D01*
G01*
G37*
G36*
G01*
X119281250Y-80525000D02*
X118718750Y-80525000D01*
G75*
G02*
X118475000Y-80281250I0J243750D01*
G01*
X118475000Y-79793750D01*
G75*
G02*
X118718750Y-79550000I243750J0D01*
G01*
X119281250Y-79550000D01*
G75*
G02*
X119525000Y-79793750I0J-243750D01*
G01*
X119525000Y-80281250D01*
G75*
G02*
X119281250Y-80525000I-243750J0D01*
G01*
G37*
%TD*%
%TO.C,C4*%
G36*
G01*
X120718750Y-79550000D02*
X121281250Y-79550000D01*
G75*
G02*
X121525000Y-79793750I0J-243750D01*
G01*
X121525000Y-80281250D01*
G75*
G02*
X121281250Y-80525000I-243750J0D01*
G01*
X120718750Y-80525000D01*
G75*
G02*
X120475000Y-80281250I0J243750D01*
G01*
X120475000Y-79793750D01*
G75*
G02*
X120718750Y-79550000I243750J0D01*
G01*
G37*
G36*
G01*
X120718750Y-77975000D02*
X121281250Y-77975000D01*
G75*
G02*
X121525000Y-78218750I0J-243750D01*
G01*
X121525000Y-78706250D01*
G75*
G02*
X121281250Y-78950000I-243750J0D01*
G01*
X120718750Y-78950000D01*
G75*
G02*
X120475000Y-78706250I0J243750D01*
G01*
X120475000Y-78218750D01*
G75*
G02*
X120718750Y-77975000I243750J0D01*
G01*
G37*
%TD*%
%TO.C,C3*%
G36*
G01*
X149200000Y-59718750D02*
X149200000Y-60281250D01*
G75*
G02*
X148956250Y-60525000I-243750J0D01*
G01*
X148468750Y-60525000D01*
G75*
G02*
X148225000Y-60281250I0J243750D01*
G01*
X148225000Y-59718750D01*
G75*
G02*
X148468750Y-59475000I243750J0D01*
G01*
X148956250Y-59475000D01*
G75*
G02*
X149200000Y-59718750I0J-243750D01*
G01*
G37*
G36*
G01*
X150775000Y-59718750D02*
X150775000Y-60281250D01*
G75*
G02*
X150531250Y-60525000I-243750J0D01*
G01*
X150043750Y-60525000D01*
G75*
G02*
X149800000Y-60281250I0J243750D01*
G01*
X149800000Y-59718750D01*
G75*
G02*
X150043750Y-59475000I243750J0D01*
G01*
X150531250Y-59475000D01*
G75*
G02*
X150775000Y-59718750I0J-243750D01*
G01*
G37*
%TD*%
%TO.C,C2*%
G36*
G01*
X149200000Y-69218750D02*
X149200000Y-69781250D01*
G75*
G02*
X148956250Y-70025000I-243750J0D01*
G01*
X148468750Y-70025000D01*
G75*
G02*
X148225000Y-69781250I0J243750D01*
G01*
X148225000Y-69218750D01*
G75*
G02*
X148468750Y-68975000I243750J0D01*
G01*
X148956250Y-68975000D01*
G75*
G02*
X149200000Y-69218750I0J-243750D01*
G01*
G37*
G36*
G01*
X150775000Y-69218750D02*
X150775000Y-69781250D01*
G75*
G02*
X150531250Y-70025000I-243750J0D01*
G01*
X150043750Y-70025000D01*
G75*
G02*
X149800000Y-69781250I0J243750D01*
G01*
X149800000Y-69218750D01*
G75*
G02*
X150043750Y-68975000I243750J0D01*
G01*
X150531250Y-68975000D01*
G75*
G02*
X150775000Y-69218750I0J-243750D01*
G01*
G37*
%TD*%
%TO.C,C1*%
G36*
G01*
X165281250Y-55700000D02*
X164718750Y-55700000D01*
G75*
G02*
X164475000Y-55456250I0J243750D01*
G01*
X164475000Y-54968750D01*
G75*
G02*
X164718750Y-54725000I243750J0D01*
G01*
X165281250Y-54725000D01*
G75*
G02*
X165525000Y-54968750I0J-243750D01*
G01*
X165525000Y-55456250D01*
G75*
G02*
X165281250Y-55700000I-243750J0D01*
G01*
G37*
G36*
G01*
X165281250Y-57275000D02*
X164718750Y-57275000D01*
G75*
G02*
X164475000Y-57031250I0J243750D01*
G01*
X164475000Y-56543750D01*
G75*
G02*
X164718750Y-56300000I243750J0D01*
G01*
X165281250Y-56300000D01*
G75*
G02*
X165525000Y-56543750I0J-243750D01*
G01*
X165525000Y-57031250D01*
G75*
G02*
X165281250Y-57275000I-243750J0D01*
G01*
G37*
%TD*%
D37*
%TO.C,U1*%
X124500000Y-89630000D03*
X157520000Y-97250000D03*
X127040000Y-89630000D03*
X154980000Y-97250000D03*
X129580000Y-89630000D03*
X152440000Y-97250000D03*
X132120000Y-89630000D03*
X149900000Y-97250000D03*
X134660000Y-89630000D03*
X147360000Y-97250000D03*
X137200000Y-89630000D03*
X144820000Y-97250000D03*
X139740000Y-89630000D03*
X142280000Y-97250000D03*
X142280000Y-89630000D03*
X139740000Y-97250000D03*
X144820000Y-89630000D03*
X137200000Y-97250000D03*
X147360000Y-89630000D03*
X134660000Y-97250000D03*
X149900000Y-89630000D03*
X132120000Y-97250000D03*
X152440000Y-89630000D03*
X129580000Y-97250000D03*
X154980000Y-89630000D03*
X127040000Y-97250000D03*
X157520000Y-89630000D03*
D38*
X124500000Y-97250000D03*
%TD*%
M02*
