M48
; DRILL file {KiCad (5.1.6)-1} date 11/18/21 16:20:31
; FORMAT={-:-/ absolute / inch / decimal}
; #@! TF.CreationDate,2021-11-18T16:20:31-08:00
; #@! TF.GenerationSoftware,Kicad,Pcbnew,(5.1.6)-1
FMAT,2
INCH
T1C0.0157
T2C0.0177
T3C0.0315
T4C0.0394
T5C0.0433
T6C0.0472
T7C0.0512
T8C0.0551
T9C0.1260
%
G90
G05
T1
X3.8976Y-3.1693
X3.9173Y-4.1437
X4.4291Y-4.1437
X4.4783Y-4.1437
X4.5079Y-3.9665
X4.5374Y-4.1437
X4.5374Y-4.2028
X4.5965Y-4.3209
X4.6752Y-3.7795
X4.6949Y-3.4449
X4.6949Y-3.9665
X4.7259Y-3.6122
X4.8031Y-3.6024
X4.8819Y-3.7303
X4.9409Y-3.3268
X5.1378Y-4.3504
X5.187Y-3.4646
X5.2694Y-3.3873
X5.4035Y-3.3366
X5.4921Y-2.9626
X5.4921Y-3.2579
X5.5413Y-2.9134
X5.5807Y-2.8642
X5.5906Y-2.1654
X5.5906Y-2.3622
X5.5906Y-2.4213
X5.5906Y-2.6476
X5.5906Y-2.7067
X5.5906Y-2.7657
X5.6299Y-3.0906
X5.6791Y-3.0512
X5.689Y-2.5492
X5.7283Y-3.002
X5.7677Y-2.9626
X5.7874Y-2.8051
X5.8661Y-3.435
X5.8858Y-3.6811
X5.9843Y-2.4114
X6.1417Y-3.1791
X6.1516Y-2.3425
X6.1926Y-2.7264
X6.2894Y-3.0118
X6.2992Y-2.5197
X6.3189Y-2.6181
X6.3189Y-2.815
X6.3287Y-3.0315
X6.3489Y-2.583
X6.3976Y-3.0906
X6.3976Y-3.3563
X6.436Y-2.2441
X6.5551Y-2.3327
X6.5551Y-2.7461
X6.565Y-2.3917
X6.565Y-2.4409
X6.6437Y-2.5984
T3
X4.9016Y-3.5287
X4.9016Y-3.8287
X5.0016Y-3.5287
X5.0016Y-3.8287
X5.1016Y-3.5287
X5.1016Y-3.8287
X5.2016Y-3.5287
X5.2016Y-3.8287
X5.3016Y-3.5287
X5.3016Y-3.8287
X5.4016Y-3.5287
X5.4016Y-3.8287
X5.5016Y-3.5287
X5.5016Y-3.8287
X5.6016Y-3.5287
X5.6016Y-3.8287
X5.7016Y-3.5287
X5.7016Y-3.8287
X5.8016Y-3.5287
X5.8016Y-3.8287
X5.9016Y-3.5287
X5.9016Y-3.8287
X6.0016Y-3.5287
X6.0016Y-3.8287
X6.1016Y-3.5287
X6.1016Y-3.8287
X6.2016Y-3.5287
X6.2016Y-3.8287
X4.2126Y-2.1752
X4.3071Y-1.8799
X5.6693Y-4.065
X5.8614Y-4.065
T4
X5.9252Y-1.9193
X5.9252Y-2.1161
X5.8941Y-3.1366
X5.8941Y-3.2366
X5.8941Y-3.3366
X5.9941Y-3.1366
X5.9941Y-3.2366
X5.9941Y-3.3366
T5
X4.787Y-1.8736
X4.787Y-2.0736
X5.587Y-1.8736
X5.587Y-2.2736
T6
X4.9921Y-4.1043
X5.2441Y-4.1043
T7
X4.2323Y-4.5472
X4.4291Y-4.5472
X4.7638Y-4.5472
X4.9606Y-4.5472
X5.1575Y-4.5472
X5.3543Y-4.5472
X6.5945Y-3.5827
X6.5945Y-3.7795
X6.5945Y-3.9764
X6.5945Y-4.1732
X3.9567Y-2.3917
X3.9567Y-2.5886
X5.689Y-4.5472
X5.8858Y-4.5472
X6.0827Y-4.5472
X6.2795Y-4.5472
T8
X4.5177Y-1.811
X4.5177Y-2.611
T9
X6.6142Y-4.5669
X3.937Y-1.9291
X3.937Y-4.5669
X6.6142Y-1.9291
T2
G00X6.7382Y-2.2215
M15
G01X6.7697Y-2.2215
M16
G05
G00X6.7697Y-2.503
M15
G01X6.7382Y-2.503
M16
G05
T0
M30
