%TF.GenerationSoftware,KiCad,Pcbnew,(5.1.6)-1*%
%TF.CreationDate,2021-11-18T16:20:29-08:00*%
%TF.ProjectId,well-monitor,77656c6c-2d6d-46f6-9e69-746f722e6b69,rev?*%
%TF.SameCoordinates,Original*%
%TF.FileFunction,Legend,Top*%
%TF.FilePolarity,Positive*%
%FSLAX46Y46*%
G04 Gerber Fmt 4.6, Leading zero omitted, Abs format (unit mm)*
G04 Created by KiCad (PCBNEW (5.1.6)-1) date 2021-11-18 16:20:29*
%MOMM*%
%LPD*%
G01*
G04 APERTURE LIST*
%ADD10C,0.300000*%
%ADD11C,0.120000*%
%ADD12C,0.150000*%
G04 APERTURE END LIST*
D10*
X127571428Y-108678571D02*
X127071428Y-107964285D01*
X126714285Y-108678571D02*
X126714285Y-107178571D01*
X127285714Y-107178571D01*
X127428571Y-107250000D01*
X127500000Y-107321428D01*
X127571428Y-107464285D01*
X127571428Y-107678571D01*
X127500000Y-107821428D01*
X127428571Y-107892857D01*
X127285714Y-107964285D01*
X126714285Y-107964285D01*
X128214285Y-107892857D02*
X128714285Y-107892857D01*
X128928571Y-108678571D02*
X128214285Y-108678571D01*
X128214285Y-107178571D01*
X128928571Y-107178571D01*
X129500000Y-108607142D02*
X129714285Y-108678571D01*
X130071428Y-108678571D01*
X130214285Y-108607142D01*
X130285714Y-108535714D01*
X130357142Y-108392857D01*
X130357142Y-108250000D01*
X130285714Y-108107142D01*
X130214285Y-108035714D01*
X130071428Y-107964285D01*
X129785714Y-107892857D01*
X129642857Y-107821428D01*
X129571428Y-107750000D01*
X129500000Y-107607142D01*
X129500000Y-107464285D01*
X129571428Y-107321428D01*
X129642857Y-107250000D01*
X129785714Y-107178571D01*
X130142857Y-107178571D01*
X130357142Y-107250000D01*
X131000000Y-107892857D02*
X131500000Y-107892857D01*
X131714285Y-108678571D02*
X131000000Y-108678571D01*
X131000000Y-107178571D01*
X131714285Y-107178571D01*
X132142857Y-107178571D02*
X133000000Y-107178571D01*
X132571428Y-108678571D02*
X132571428Y-107178571D01*
X123130952Y-75754761D02*
X123607142Y-77754761D01*
X123988095Y-76326190D01*
X124369047Y-77754761D01*
X124845238Y-75754761D01*
X126369047Y-77659523D02*
X126178571Y-77754761D01*
X125797619Y-77754761D01*
X125607142Y-77659523D01*
X125511904Y-77469047D01*
X125511904Y-76707142D01*
X125607142Y-76516666D01*
X125797619Y-76421428D01*
X126178571Y-76421428D01*
X126369047Y-76516666D01*
X126464285Y-76707142D01*
X126464285Y-76897619D01*
X125511904Y-77088095D01*
X127607142Y-77754761D02*
X127416666Y-77659523D01*
X127321428Y-77469047D01*
X127321428Y-75754761D01*
X128654761Y-77754761D02*
X128464285Y-77659523D01*
X128369047Y-77469047D01*
X128369047Y-75754761D01*
X130940476Y-77754761D02*
X130940476Y-75754761D01*
X131607142Y-77183333D01*
X132273809Y-75754761D01*
X132273809Y-77754761D01*
X133511904Y-77754761D02*
X133321428Y-77659523D01*
X133226190Y-77564285D01*
X133130952Y-77373809D01*
X133130952Y-76802380D01*
X133226190Y-76611904D01*
X133321428Y-76516666D01*
X133511904Y-76421428D01*
X133797619Y-76421428D01*
X133988095Y-76516666D01*
X134083333Y-76611904D01*
X134178571Y-76802380D01*
X134178571Y-77373809D01*
X134083333Y-77564285D01*
X133988095Y-77659523D01*
X133797619Y-77754761D01*
X133511904Y-77754761D01*
X135035714Y-76421428D02*
X135035714Y-77754761D01*
X135035714Y-76611904D02*
X135130952Y-76516666D01*
X135321428Y-76421428D01*
X135607142Y-76421428D01*
X135797619Y-76516666D01*
X135892857Y-76707142D01*
X135892857Y-77754761D01*
X136845238Y-77754761D02*
X136845238Y-76421428D01*
X136845238Y-75754761D02*
X136750000Y-75850000D01*
X136845238Y-75945238D01*
X136940476Y-75850000D01*
X136845238Y-75754761D01*
X136845238Y-75945238D01*
X137511904Y-76421428D02*
X138273809Y-76421428D01*
X137797619Y-75754761D02*
X137797619Y-77469047D01*
X137892857Y-77659523D01*
X138083333Y-77754761D01*
X138273809Y-77754761D01*
X139226190Y-77754761D02*
X139035714Y-77659523D01*
X138940476Y-77564285D01*
X138845238Y-77373809D01*
X138845238Y-76802380D01*
X138940476Y-76611904D01*
X139035714Y-76516666D01*
X139226190Y-76421428D01*
X139511904Y-76421428D01*
X139702380Y-76516666D01*
X139797619Y-76611904D01*
X139892857Y-76802380D01*
X139892857Y-77373809D01*
X139797619Y-77564285D01*
X139702380Y-77659523D01*
X139511904Y-77754761D01*
X139226190Y-77754761D01*
X140750000Y-77754761D02*
X140750000Y-76421428D01*
X140750000Y-76802380D02*
X140845238Y-76611904D01*
X140940476Y-76516666D01*
X141130952Y-76421428D01*
X141321428Y-76421428D01*
X143226190Y-75754761D02*
X143892857Y-77754761D01*
X144559523Y-75754761D01*
X146273809Y-77754761D02*
X145130952Y-77754761D01*
X145702380Y-77754761D02*
X145702380Y-75754761D01*
X145511904Y-76040476D01*
X145321428Y-76230952D01*
X145130952Y-76326190D01*
X128130952Y-80007142D02*
X128797619Y-80007142D01*
X129083333Y-81054761D02*
X128130952Y-81054761D01*
X128130952Y-79054761D01*
X129083333Y-79054761D01*
X129750000Y-79054761D02*
X130226190Y-81054761D01*
X130607142Y-79626190D01*
X130988095Y-81054761D01*
X131464285Y-79054761D01*
X132892857Y-80007142D02*
X133178571Y-80102380D01*
X133273809Y-80197619D01*
X133369047Y-80388095D01*
X133369047Y-80673809D01*
X133273809Y-80864285D01*
X133178571Y-80959523D01*
X132988095Y-81054761D01*
X132226190Y-81054761D01*
X132226190Y-79054761D01*
X132892857Y-79054761D01*
X133083333Y-79150000D01*
X133178571Y-79245238D01*
X133273809Y-79435714D01*
X133273809Y-79626190D01*
X133178571Y-79816666D01*
X133083333Y-79911904D01*
X132892857Y-80007142D01*
X132226190Y-80007142D01*
X134226190Y-80292857D02*
X135750000Y-80292857D01*
X136607142Y-80959523D02*
X136892857Y-81054761D01*
X137369047Y-81054761D01*
X137559523Y-80959523D01*
X137654761Y-80864285D01*
X137750000Y-80673809D01*
X137750000Y-80483333D01*
X137654761Y-80292857D01*
X137559523Y-80197619D01*
X137369047Y-80102380D01*
X136988095Y-80007142D01*
X136797619Y-79911904D01*
X136702380Y-79816666D01*
X136607142Y-79626190D01*
X136607142Y-79435714D01*
X136702380Y-79245238D01*
X136797619Y-79150000D01*
X136988095Y-79054761D01*
X137464285Y-79054761D01*
X137750000Y-79150000D01*
X139273809Y-80007142D02*
X138607142Y-80007142D01*
X138607142Y-81054761D02*
X138607142Y-79054761D01*
X139559523Y-79054761D01*
X140321428Y-81054761D02*
X140321428Y-79054761D01*
X141083333Y-79054761D01*
X141273809Y-79150000D01*
X141369047Y-79245238D01*
X141464285Y-79435714D01*
X141464285Y-79721428D01*
X141369047Y-79911904D01*
X141273809Y-80007142D01*
X141083333Y-80102380D01*
X140321428Y-80102380D01*
X154785714Y-86928571D02*
X154785714Y-85428571D01*
X155428571Y-86857142D02*
X155642857Y-86928571D01*
X156000000Y-86928571D01*
X156142857Y-86857142D01*
X156214285Y-86785714D01*
X156285714Y-86642857D01*
X156285714Y-86500000D01*
X156214285Y-86357142D01*
X156142857Y-86285714D01*
X156000000Y-86214285D01*
X155714285Y-86142857D01*
X155571428Y-86071428D01*
X155500000Y-86000000D01*
X155428571Y-85857142D01*
X155428571Y-85714285D01*
X155500000Y-85571428D01*
X155571428Y-85500000D01*
X155714285Y-85428571D01*
X156071428Y-85428571D01*
X156285714Y-85500000D01*
X156928571Y-86928571D02*
X156928571Y-85428571D01*
X157500000Y-85428571D01*
X157642857Y-85500000D01*
X157714285Y-85571428D01*
X157785714Y-85714285D01*
X157785714Y-85928571D01*
X157714285Y-86071428D01*
X157642857Y-86142857D01*
X157500000Y-86214285D01*
X156928571Y-86214285D01*
X106321428Y-66178571D02*
X106321428Y-64678571D01*
X107178571Y-66178571D01*
X107178571Y-64678571D01*
X106964285Y-61178571D02*
X106250000Y-61178571D01*
X106250000Y-59678571D01*
D11*
%TO.C,R7*%
X159510000Y-107337221D02*
X159510000Y-107662779D01*
X158490000Y-107337221D02*
X158490000Y-107662779D01*
%TO.C,D8*%
X156765000Y-106700000D02*
X156765000Y-108985000D01*
X156765000Y-108985000D02*
X158235000Y-108985000D01*
X158235000Y-108985000D02*
X158235000Y-106700000D01*
%TO.C,R6*%
X114750000Y-64680000D02*
X114750000Y-63430000D01*
X114750000Y-47640000D02*
X114750000Y-48890000D01*
X117720000Y-63430000D02*
X117720000Y-48890000D01*
X111780000Y-63430000D02*
X117720000Y-63430000D01*
X111780000Y-48890000D02*
X111780000Y-63430000D01*
X117720000Y-48890000D02*
X111780000Y-48890000D01*
%TO.C,U5*%
X120507512Y-86650000D02*
X120507512Y-83725000D01*
X120507512Y-86650000D02*
X120507512Y-88150000D01*
X117287512Y-86650000D02*
X117287512Y-85150000D01*
X117287512Y-86650000D02*
X117287512Y-88150000D01*
%TO.C,D7*%
X158500000Y-65650000D02*
X161050000Y-65650000D01*
X158500000Y-67350000D02*
X161050000Y-67350000D01*
X158500000Y-65650000D02*
X158500000Y-67350000D01*
%TO.C,D6*%
X158500000Y-67650000D02*
X161050000Y-67650000D01*
X158500000Y-69350000D02*
X161050000Y-69350000D01*
X158500000Y-67650000D02*
X158500000Y-69350000D01*
%TO.C,C15*%
X161840000Y-50147936D02*
X161840000Y-51352064D01*
X163660000Y-50147936D02*
X163660000Y-51352064D01*
%TO.C,J6*%
X167940000Y-61760000D02*
X168330000Y-61760000D01*
X167940000Y-61760000D02*
X167940000Y-61310000D01*
X168640000Y-56190000D02*
X168640000Y-56840000D01*
X170370000Y-56190000D02*
X168640000Y-56190000D01*
X172940000Y-63810000D02*
X172730000Y-63810000D01*
X172940000Y-56190000D02*
X172730000Y-56190000D01*
X170370000Y-63810000D02*
X168640000Y-63810000D01*
X168640000Y-63810000D02*
X168640000Y-63150000D01*
%TO.C,J8*%
X109680000Y-115500000D02*
G75*
G03*
X109680000Y-115500000I-2180000J0D01*
G01*
X114680000Y-115500000D02*
G75*
G03*
X114680000Y-115500000I-2180000J0D01*
G01*
X104940000Y-120100000D02*
X115060000Y-120100000D01*
X104940000Y-119000000D02*
X115060000Y-119000000D01*
X104940000Y-111440000D02*
X115060000Y-111440000D01*
X104940000Y-120560000D02*
X115060000Y-120560000D01*
X104940000Y-111440000D02*
X104940000Y-120560000D01*
X115060000Y-111440000D02*
X115060000Y-120560000D01*
X109154000Y-114112000D02*
X109047000Y-114219000D01*
X106218000Y-117047000D02*
X106112000Y-117154000D01*
X108888000Y-113846000D02*
X108781000Y-113953000D01*
X105952000Y-116781000D02*
X105846000Y-116888000D01*
X114154000Y-114112000D02*
X113759000Y-114508000D01*
X111493000Y-116774000D02*
X111113000Y-117154000D01*
X113888000Y-113846000D02*
X113508000Y-114226000D01*
X111242000Y-116492000D02*
X110847000Y-116888000D01*
X104700000Y-120160000D02*
X104700000Y-120800000D01*
X104700000Y-120800000D02*
X105100000Y-120800000D01*
%TO.C,J5*%
X102680000Y-60750000D02*
G75*
G03*
X102680000Y-60750000I-2180000J0D01*
G01*
X102680000Y-65750000D02*
G75*
G03*
X102680000Y-65750000I-2180000J0D01*
G01*
X95900000Y-58190000D02*
X95900000Y-68310000D01*
X97000000Y-58190000D02*
X97000000Y-68310000D01*
X104560000Y-58190000D02*
X104560000Y-68310000D01*
X95440000Y-58190000D02*
X95440000Y-68310000D01*
X104560000Y-58190000D02*
X95440000Y-58190000D01*
X104560000Y-68310000D02*
X95440000Y-68310000D01*
X101888000Y-62404000D02*
X101781000Y-62297000D01*
X98953000Y-59468000D02*
X98846000Y-59362000D01*
X102154000Y-62138000D02*
X102047000Y-62031000D01*
X99219000Y-59202000D02*
X99112000Y-59096000D01*
X101888000Y-67404000D02*
X101492000Y-67009000D01*
X99226000Y-64743000D02*
X98846000Y-64363000D01*
X102154000Y-67138000D02*
X101774000Y-66758000D01*
X99508000Y-64492000D02*
X99112000Y-64097000D01*
X95840000Y-57950000D02*
X95200000Y-57950000D01*
X95200000Y-57950000D02*
X95200000Y-58350000D01*
%TO.C,J3*%
X141700000Y-120800000D02*
X142100000Y-120800000D01*
X141700000Y-120160000D02*
X141700000Y-120800000D01*
X158242000Y-116492000D02*
X157847000Y-116888000D01*
X160888000Y-113846000D02*
X160508000Y-114226000D01*
X158493000Y-116774000D02*
X158113000Y-117154000D01*
X161154000Y-114112000D02*
X160759000Y-114508000D01*
X153242000Y-116492000D02*
X152847000Y-116888000D01*
X155888000Y-113846000D02*
X155508000Y-114226000D01*
X153493000Y-116774000D02*
X153113000Y-117154000D01*
X156154000Y-114112000D02*
X155759000Y-114508000D01*
X148242000Y-116492000D02*
X147847000Y-116888000D01*
X150888000Y-113846000D02*
X150508000Y-114226000D01*
X148493000Y-116774000D02*
X148113000Y-117154000D01*
X151154000Y-114112000D02*
X150759000Y-114508000D01*
X142952000Y-116781000D02*
X142846000Y-116888000D01*
X145888000Y-113846000D02*
X145781000Y-113953000D01*
X143218000Y-117047000D02*
X143112000Y-117154000D01*
X146154000Y-114112000D02*
X146047000Y-114219000D01*
X162061000Y-111440000D02*
X162061000Y-120560000D01*
X141940000Y-111440000D02*
X141940000Y-120560000D01*
X141940000Y-120560000D02*
X162061000Y-120560000D01*
X141940000Y-111440000D02*
X162061000Y-111440000D01*
X141940000Y-119000000D02*
X162061000Y-119000000D01*
X141940000Y-120100000D02*
X162061000Y-120100000D01*
X161680000Y-115500000D02*
G75*
G03*
X161680000Y-115500000I-2180000J0D01*
G01*
X156680000Y-115500000D02*
G75*
G03*
X156680000Y-115500000I-2180000J0D01*
G01*
X151680000Y-115500000D02*
G75*
G03*
X151680000Y-115500000I-2180000J0D01*
G01*
X146680000Y-115500000D02*
G75*
G03*
X146680000Y-115500000I-2180000J0D01*
G01*
%TO.C,J2*%
X118200000Y-120800000D02*
X118600000Y-120800000D01*
X118200000Y-120160000D02*
X118200000Y-120800000D01*
X134742000Y-116492000D02*
X134347000Y-116888000D01*
X137388000Y-113846000D02*
X137008000Y-114226000D01*
X134993000Y-116774000D02*
X134613000Y-117154000D01*
X137654000Y-114112000D02*
X137259000Y-114508000D01*
X129742000Y-116492000D02*
X129347000Y-116888000D01*
X132388000Y-113846000D02*
X132008000Y-114226000D01*
X129993000Y-116774000D02*
X129613000Y-117154000D01*
X132654000Y-114112000D02*
X132259000Y-114508000D01*
X124742000Y-116492000D02*
X124347000Y-116888000D01*
X127388000Y-113846000D02*
X127008000Y-114226000D01*
X124993000Y-116774000D02*
X124613000Y-117154000D01*
X127654000Y-114112000D02*
X127259000Y-114508000D01*
X119452000Y-116781000D02*
X119346000Y-116888000D01*
X122388000Y-113846000D02*
X122281000Y-113953000D01*
X119718000Y-117047000D02*
X119612000Y-117154000D01*
X122654000Y-114112000D02*
X122547000Y-114219000D01*
X138561000Y-111440000D02*
X138561000Y-120560000D01*
X118440000Y-111440000D02*
X118440000Y-120560000D01*
X118440000Y-120560000D02*
X138561000Y-120560000D01*
X118440000Y-111440000D02*
X138561000Y-111440000D01*
X118440000Y-119000000D02*
X138561000Y-119000000D01*
X118440000Y-120100000D02*
X138561000Y-120100000D01*
X138180000Y-115500000D02*
G75*
G03*
X138180000Y-115500000I-2180000J0D01*
G01*
X133180000Y-115500000D02*
G75*
G03*
X133180000Y-115500000I-2180000J0D01*
G01*
X128180000Y-115500000D02*
G75*
G03*
X128180000Y-115500000I-2180000J0D01*
G01*
X123180000Y-115500000D02*
G75*
G03*
X123180000Y-115500000I-2180000J0D01*
G01*
%TO.C,J1*%
X172800000Y-108800000D02*
X172800000Y-108400000D01*
X172160000Y-108800000D02*
X172800000Y-108800000D01*
X168492000Y-92258000D02*
X168888000Y-92653000D01*
X165846000Y-89612000D02*
X166226000Y-89992000D01*
X168774000Y-92007000D02*
X169154000Y-92387000D01*
X166112000Y-89346000D02*
X166508000Y-89741000D01*
X168492000Y-97258000D02*
X168888000Y-97653000D01*
X165846000Y-94612000D02*
X166226000Y-94992000D01*
X168774000Y-97007000D02*
X169154000Y-97387000D01*
X166112000Y-94346000D02*
X166508000Y-94741000D01*
X168492000Y-102258000D02*
X168888000Y-102653000D01*
X165846000Y-99612000D02*
X166226000Y-99992000D01*
X168774000Y-102007000D02*
X169154000Y-102387000D01*
X166112000Y-99346000D02*
X166508000Y-99741000D01*
X168781000Y-107548000D02*
X168888000Y-107654000D01*
X165846000Y-104612000D02*
X165953000Y-104719000D01*
X169047000Y-107282000D02*
X169154000Y-107388000D01*
X166112000Y-104346000D02*
X166219000Y-104453000D01*
X163440000Y-88439000D02*
X172560000Y-88439000D01*
X163440000Y-108560000D02*
X172560000Y-108560000D01*
X172560000Y-108560000D02*
X172560000Y-88439000D01*
X163440000Y-108560000D02*
X163440000Y-88439000D01*
X171000000Y-108560000D02*
X171000000Y-88439000D01*
X172100000Y-108560000D02*
X172100000Y-88439000D01*
X169680000Y-91000000D02*
G75*
G03*
X169680000Y-91000000I-2180000J0D01*
G01*
X169680000Y-96000000D02*
G75*
G03*
X169680000Y-96000000I-2180000J0D01*
G01*
X169680000Y-101000000D02*
G75*
G03*
X169680000Y-101000000I-2180000J0D01*
G01*
X169680000Y-106000000D02*
G75*
G03*
X169680000Y-106000000I-2180000J0D01*
G01*
%TO.C,BT1*%
X102250000Y-76700000D02*
X102250000Y-81500000D01*
X107750000Y-76700000D02*
X102250000Y-76700000D01*
X107750000Y-81500000D02*
X107750000Y-76700000D01*
X107750000Y-107800000D02*
X107750000Y-103000000D01*
X102250000Y-107800000D02*
X107750000Y-107800000D01*
X102250000Y-103000000D02*
X102250000Y-107800000D01*
X95500000Y-81700000D02*
X95500000Y-88400000D01*
X95500000Y-102800000D02*
X95500000Y-96100000D01*
X115850000Y-88300000D02*
X111050000Y-81500000D01*
X115850000Y-96200000D02*
X115850000Y-88300000D01*
X111050000Y-103050000D02*
X115850000Y-96200000D01*
X95498536Y-96096385D02*
G75*
G02*
X95500000Y-88400000I9501464J3846385D01*
G01*
D12*
%TO.C,RV1*%
X105500000Y-57500000D02*
X110900000Y-57500000D01*
X105500000Y-45500000D02*
X110900000Y-45500000D01*
X105500000Y-57500000D02*
X105500000Y-45500000D01*
X110900000Y-57500000D02*
X110900000Y-45500000D01*
D11*
%TO.C,D5*%
X160900000Y-47200000D02*
X160900000Y-52900000D01*
X156600000Y-47200000D02*
X156600000Y-52900000D01*
X160900000Y-47200000D02*
X156600000Y-47200000D01*
%TO.C,C16*%
X153875000Y-46270354D02*
X152875000Y-46270354D01*
X153375000Y-45770354D02*
X153375000Y-46770354D01*
X151099000Y-56331000D02*
X149901000Y-56331000D01*
X151362000Y-56291000D02*
X149638000Y-56291000D01*
X151562000Y-56251000D02*
X149438000Y-56251000D01*
X151730000Y-56211000D02*
X149270000Y-56211000D01*
X151878000Y-56171000D02*
X149122000Y-56171000D01*
X152010000Y-56131000D02*
X148990000Y-56131000D01*
X152130000Y-56091000D02*
X148870000Y-56091000D01*
X152242000Y-56051000D02*
X148758000Y-56051000D01*
X152346000Y-56011000D02*
X148654000Y-56011000D01*
X152444000Y-55971000D02*
X148556000Y-55971000D01*
X152537000Y-55931000D02*
X148463000Y-55931000D01*
X152625000Y-55891000D02*
X148375000Y-55891000D01*
X152709000Y-55851000D02*
X148291000Y-55851000D01*
X152789000Y-55811000D02*
X148211000Y-55811000D01*
X152865000Y-55771000D02*
X148135000Y-55771000D01*
X152939000Y-55731000D02*
X148061000Y-55731000D01*
X153010000Y-55691000D02*
X147990000Y-55691000D01*
X153079000Y-55651000D02*
X147921000Y-55651000D01*
X153145000Y-55611000D02*
X147855000Y-55611000D01*
X153209000Y-55571000D02*
X147791000Y-55571000D01*
X153270000Y-55531000D02*
X147730000Y-55531000D01*
X153330000Y-55491000D02*
X147670000Y-55491000D01*
X153389000Y-55451000D02*
X147611000Y-55451000D01*
X153445000Y-55411000D02*
X147555000Y-55411000D01*
X153500000Y-55371000D02*
X147500000Y-55371000D01*
X153554000Y-55331000D02*
X147446000Y-55331000D01*
X153606000Y-55291000D02*
X147394000Y-55291000D01*
X153656000Y-55251000D02*
X147344000Y-55251000D01*
X153706000Y-55211000D02*
X147294000Y-55211000D01*
X153754000Y-55171000D02*
X147246000Y-55171000D01*
X153801000Y-55131000D02*
X147199000Y-55131000D01*
X153847000Y-55091000D02*
X147153000Y-55091000D01*
X153892000Y-55051000D02*
X147108000Y-55051000D01*
X153936000Y-55011000D02*
X147064000Y-55011000D01*
X149259000Y-54971000D02*
X147022000Y-54971000D01*
X153978000Y-54971000D02*
X151741000Y-54971000D01*
X149259000Y-54931000D02*
X146980000Y-54931000D01*
X154020000Y-54931000D02*
X151741000Y-54931000D01*
X149259000Y-54891000D02*
X146939000Y-54891000D01*
X154061000Y-54891000D02*
X151741000Y-54891000D01*
X149259000Y-54851000D02*
X146899000Y-54851000D01*
X154101000Y-54851000D02*
X151741000Y-54851000D01*
X149259000Y-54811000D02*
X146860000Y-54811000D01*
X154140000Y-54811000D02*
X151741000Y-54811000D01*
X149259000Y-54771000D02*
X146821000Y-54771000D01*
X154179000Y-54771000D02*
X151741000Y-54771000D01*
X149259000Y-54731000D02*
X146784000Y-54731000D01*
X154216000Y-54731000D02*
X151741000Y-54731000D01*
X149259000Y-54691000D02*
X146747000Y-54691000D01*
X154253000Y-54691000D02*
X151741000Y-54691000D01*
X149259000Y-54651000D02*
X146711000Y-54651000D01*
X154289000Y-54651000D02*
X151741000Y-54651000D01*
X149259000Y-54611000D02*
X146676000Y-54611000D01*
X154324000Y-54611000D02*
X151741000Y-54611000D01*
X149259000Y-54571000D02*
X146642000Y-54571000D01*
X154358000Y-54571000D02*
X151741000Y-54571000D01*
X149259000Y-54531000D02*
X146608000Y-54531000D01*
X154392000Y-54531000D02*
X151741000Y-54531000D01*
X149259000Y-54491000D02*
X146575000Y-54491000D01*
X154425000Y-54491000D02*
X151741000Y-54491000D01*
X149259000Y-54451000D02*
X146543000Y-54451000D01*
X154457000Y-54451000D02*
X151741000Y-54451000D01*
X149259000Y-54411000D02*
X146511000Y-54411000D01*
X154489000Y-54411000D02*
X151741000Y-54411000D01*
X149259000Y-54371000D02*
X146480000Y-54371000D01*
X154520000Y-54371000D02*
X151741000Y-54371000D01*
X149259000Y-54331000D02*
X146450000Y-54331000D01*
X154550000Y-54331000D02*
X151741000Y-54331000D01*
X149259000Y-54291000D02*
X146420000Y-54291000D01*
X154580000Y-54291000D02*
X151741000Y-54291000D01*
X149259000Y-54251000D02*
X146390000Y-54251000D01*
X154610000Y-54251000D02*
X151741000Y-54251000D01*
X149259000Y-54211000D02*
X146362000Y-54211000D01*
X154638000Y-54211000D02*
X151741000Y-54211000D01*
X149259000Y-54171000D02*
X146334000Y-54171000D01*
X154666000Y-54171000D02*
X151741000Y-54171000D01*
X149259000Y-54131000D02*
X146306000Y-54131000D01*
X154694000Y-54131000D02*
X151741000Y-54131000D01*
X149259000Y-54091000D02*
X146279000Y-54091000D01*
X154721000Y-54091000D02*
X151741000Y-54091000D01*
X149259000Y-54051000D02*
X146253000Y-54051000D01*
X154747000Y-54051000D02*
X151741000Y-54051000D01*
X149259000Y-54011000D02*
X146227000Y-54011000D01*
X154773000Y-54011000D02*
X151741000Y-54011000D01*
X149259000Y-53971000D02*
X146202000Y-53971000D01*
X154798000Y-53971000D02*
X151741000Y-53971000D01*
X149259000Y-53931000D02*
X146177000Y-53931000D01*
X154823000Y-53931000D02*
X151741000Y-53931000D01*
X149259000Y-53891000D02*
X146153000Y-53891000D01*
X154847000Y-53891000D02*
X151741000Y-53891000D01*
X149259000Y-53851000D02*
X146129000Y-53851000D01*
X154871000Y-53851000D02*
X151741000Y-53851000D01*
X149259000Y-53811000D02*
X146105000Y-53811000D01*
X154895000Y-53811000D02*
X151741000Y-53811000D01*
X149259000Y-53771000D02*
X146083000Y-53771000D01*
X154917000Y-53771000D02*
X151741000Y-53771000D01*
X149259000Y-53731000D02*
X146060000Y-53731000D01*
X154940000Y-53731000D02*
X151741000Y-53731000D01*
X149259000Y-53691000D02*
X146038000Y-53691000D01*
X154962000Y-53691000D02*
X151741000Y-53691000D01*
X149259000Y-53651000D02*
X146017000Y-53651000D01*
X154983000Y-53651000D02*
X151741000Y-53651000D01*
X149259000Y-53611000D02*
X145996000Y-53611000D01*
X155004000Y-53611000D02*
X151741000Y-53611000D01*
X149259000Y-53571000D02*
X145975000Y-53571000D01*
X155025000Y-53571000D02*
X151741000Y-53571000D01*
X149259000Y-53531000D02*
X145955000Y-53531000D01*
X155045000Y-53531000D02*
X151741000Y-53531000D01*
X149259000Y-53491000D02*
X145936000Y-53491000D01*
X155064000Y-53491000D02*
X151741000Y-53491000D01*
X149259000Y-53451000D02*
X145916000Y-53451000D01*
X155084000Y-53451000D02*
X151741000Y-53451000D01*
X149259000Y-53411000D02*
X145897000Y-53411000D01*
X155103000Y-53411000D02*
X151741000Y-53411000D01*
X149259000Y-53371000D02*
X145879000Y-53371000D01*
X155121000Y-53371000D02*
X151741000Y-53371000D01*
X149259000Y-53331000D02*
X145861000Y-53331000D01*
X155139000Y-53331000D02*
X151741000Y-53331000D01*
X149259000Y-53291000D02*
X145843000Y-53291000D01*
X155157000Y-53291000D02*
X151741000Y-53291000D01*
X149259000Y-53251000D02*
X145826000Y-53251000D01*
X155174000Y-53251000D02*
X151741000Y-53251000D01*
X149259000Y-53211000D02*
X145810000Y-53211000D01*
X155190000Y-53211000D02*
X151741000Y-53211000D01*
X149259000Y-53171000D02*
X145793000Y-53171000D01*
X155207000Y-53171000D02*
X151741000Y-53171000D01*
X149259000Y-53131000D02*
X145777000Y-53131000D01*
X155223000Y-53131000D02*
X151741000Y-53131000D01*
X149259000Y-53091000D02*
X145762000Y-53091000D01*
X155238000Y-53091000D02*
X151741000Y-53091000D01*
X149259000Y-53051000D02*
X145746000Y-53051000D01*
X155254000Y-53051000D02*
X151741000Y-53051000D01*
X149259000Y-53011000D02*
X145732000Y-53011000D01*
X155268000Y-53011000D02*
X151741000Y-53011000D01*
X149259000Y-52971000D02*
X145717000Y-52971000D01*
X155283000Y-52971000D02*
X151741000Y-52971000D01*
X149259000Y-52931000D02*
X145703000Y-52931000D01*
X155297000Y-52931000D02*
X151741000Y-52931000D01*
X149259000Y-52891000D02*
X145689000Y-52891000D01*
X155311000Y-52891000D02*
X151741000Y-52891000D01*
X149259000Y-52851000D02*
X145676000Y-52851000D01*
X155324000Y-52851000D02*
X151741000Y-52851000D01*
X149259000Y-52811000D02*
X145663000Y-52811000D01*
X155337000Y-52811000D02*
X151741000Y-52811000D01*
X149259000Y-52771000D02*
X145650000Y-52771000D01*
X155350000Y-52771000D02*
X151741000Y-52771000D01*
X149259000Y-52731000D02*
X145638000Y-52731000D01*
X155362000Y-52731000D02*
X151741000Y-52731000D01*
X149259000Y-52691000D02*
X145626000Y-52691000D01*
X155374000Y-52691000D02*
X151741000Y-52691000D01*
X149259000Y-52651000D02*
X145615000Y-52651000D01*
X155385000Y-52651000D02*
X151741000Y-52651000D01*
X149259000Y-52611000D02*
X145603000Y-52611000D01*
X155397000Y-52611000D02*
X151741000Y-52611000D01*
X149259000Y-52571000D02*
X145593000Y-52571000D01*
X155407000Y-52571000D02*
X151741000Y-52571000D01*
X149259000Y-52531000D02*
X145582000Y-52531000D01*
X155418000Y-52531000D02*
X151741000Y-52531000D01*
X155428000Y-52491000D02*
X145572000Y-52491000D01*
X155438000Y-52451000D02*
X145562000Y-52451000D01*
X155447000Y-52411000D02*
X145553000Y-52411000D01*
X155456000Y-52371000D02*
X145544000Y-52371000D01*
X155465000Y-52331000D02*
X145535000Y-52331000D01*
X155474000Y-52291000D02*
X145526000Y-52291000D01*
X155482000Y-52251000D02*
X145518000Y-52251000D01*
X155490000Y-52211000D02*
X145510000Y-52211000D01*
X155497000Y-52171000D02*
X145503000Y-52171000D01*
X155504000Y-52131000D02*
X145496000Y-52131000D01*
X155511000Y-52091000D02*
X145489000Y-52091000D01*
X155518000Y-52051000D02*
X145482000Y-52051000D01*
X155524000Y-52011000D02*
X145476000Y-52011000D01*
X155530000Y-51971000D02*
X145470000Y-51971000D01*
X155535000Y-51930000D02*
X145465000Y-51930000D01*
X155540000Y-51890000D02*
X145460000Y-51890000D01*
X155545000Y-51850000D02*
X145455000Y-51850000D01*
X155550000Y-51810000D02*
X145450000Y-51810000D01*
X155554000Y-51770000D02*
X145446000Y-51770000D01*
X155558000Y-51730000D02*
X145442000Y-51730000D01*
X155562000Y-51690000D02*
X145438000Y-51690000D01*
X155565000Y-51650000D02*
X145435000Y-51650000D01*
X155568000Y-51610000D02*
X145432000Y-51610000D01*
X155570000Y-51570000D02*
X145430000Y-51570000D01*
X155573000Y-51530000D02*
X145427000Y-51530000D01*
X155575000Y-51490000D02*
X145425000Y-51490000D01*
X155577000Y-51450000D02*
X145423000Y-51450000D01*
X155578000Y-51410000D02*
X145422000Y-51410000D01*
X155579000Y-51370000D02*
X145421000Y-51370000D01*
X155580000Y-51330000D02*
X145420000Y-51330000D01*
X155580000Y-51290000D02*
X145420000Y-51290000D01*
X155580000Y-51250000D02*
X145420000Y-51250000D01*
X155620000Y-51250000D02*
G75*
G03*
X155620000Y-51250000I-5120000J0D01*
G01*
%TO.C,Y2*%
X143315000Y-105775000D02*
X149565000Y-105775000D01*
X143315000Y-100725000D02*
X149565000Y-100725000D01*
X149565000Y-105775000D02*
G75*
G03*
X149565000Y-100725000I0J2525000D01*
G01*
X143315000Y-105775000D02*
G75*
G02*
X143315000Y-100725000I0J2525000D01*
G01*
%TO.C,Y1*%
X121100000Y-82350000D02*
X121100000Y-81150000D01*
X120100000Y-81050000D02*
X119900000Y-81050000D01*
X120100000Y-82450000D02*
X119900000Y-82450000D01*
%TO.C,U4*%
X150810000Y-64750000D02*
X150810000Y-61300000D01*
X150810000Y-64750000D02*
X150810000Y-66700000D01*
X145690000Y-64750000D02*
X145690000Y-62800000D01*
X145690000Y-64750000D02*
X145690000Y-66700000D01*
%TO.C,U3*%
X159890000Y-62885000D02*
X159890000Y-63360000D01*
X165110000Y-58140000D02*
X164635000Y-58140000D01*
X165110000Y-58615000D02*
X165110000Y-58140000D01*
X165110000Y-63360000D02*
X164635000Y-63360000D01*
X165110000Y-62885000D02*
X165110000Y-63360000D01*
X159890000Y-58140000D02*
X160365000Y-58140000D01*
X159890000Y-58615000D02*
X159890000Y-58140000D01*
%TO.C,U2*%
X119050000Y-70450000D02*
X119050000Y-45050000D01*
X144450000Y-70450000D02*
X119050000Y-70450000D01*
X144450000Y-45050000D02*
X144450000Y-70450000D01*
X119050000Y-45050000D02*
X144450000Y-45050000D01*
%TO.C,R5*%
X158490000Y-102087221D02*
X158490000Y-102412779D01*
X159510000Y-102087221D02*
X159510000Y-102412779D01*
%TO.C,R4*%
X122990000Y-86587221D02*
X122990000Y-86912779D01*
X124010000Y-86587221D02*
X124010000Y-86912779D01*
%TO.C,R3*%
X125760000Y-86912779D02*
X125760000Y-86587221D01*
X124740000Y-86912779D02*
X124740000Y-86587221D01*
%TO.C,R2*%
X119240000Y-96374721D02*
X119240000Y-96700279D01*
X120260000Y-96374721D02*
X120260000Y-96700279D01*
%TO.C,R1*%
X114740000Y-108837221D02*
X114740000Y-109162779D01*
X115760000Y-108837221D02*
X115760000Y-109162779D01*
%TO.C,J7*%
X171990641Y-84124700D02*
X172471600Y-84124700D01*
X172471600Y-84124700D02*
X172471600Y-71431241D01*
X170420162Y-69875300D02*
X157028400Y-69875300D01*
X157028400Y-69875300D02*
X157028400Y-75269560D01*
X157028400Y-84124700D02*
X169420161Y-84124700D01*
X157028400Y-77230440D02*
X157028400Y-79732024D01*
X157028400Y-82930440D02*
X157028400Y-84124700D01*
%TO.C,J4*%
X153580000Y-86080000D02*
X152250000Y-86080000D01*
X153580000Y-84750000D02*
X153580000Y-86080000D01*
X150980000Y-86080000D02*
X148380000Y-86080000D01*
X150980000Y-83480000D02*
X150980000Y-86080000D01*
X153580000Y-83480000D02*
X150980000Y-83480000D01*
X148380000Y-86080000D02*
X148380000Y-78340000D01*
X153580000Y-83480000D02*
X153580000Y-78340000D01*
X153580000Y-78340000D02*
X148380000Y-78340000D01*
%TO.C,F1*%
X101102064Y-54090000D02*
X99897936Y-54090000D01*
X101102064Y-55910000D02*
X99897936Y-55910000D01*
%TO.C,D4*%
X158235000Y-103735000D02*
X158235000Y-101450000D01*
X156765000Y-103735000D02*
X158235000Y-103735000D01*
X156765000Y-101450000D02*
X156765000Y-103735000D01*
%TO.C,D3*%
X112250000Y-110750000D02*
X112250000Y-106850000D01*
X114250000Y-110750000D02*
X114250000Y-106850000D01*
X112250000Y-110750000D02*
X114250000Y-110750000D01*
%TO.C,D2*%
X151500000Y-64150000D02*
X154050000Y-64150000D01*
X151500000Y-65850000D02*
X154050000Y-65850000D01*
X151500000Y-64150000D02*
X151500000Y-65850000D01*
%TO.C,D1*%
X151500000Y-66400000D02*
X154050000Y-66400000D01*
X151500000Y-68100000D02*
X154050000Y-68100000D01*
X151500000Y-66400000D02*
X151500000Y-68100000D01*
%TO.C,C14*%
X148990000Y-107587221D02*
X148990000Y-107912779D01*
X150010000Y-107587221D02*
X150010000Y-107912779D01*
%TO.C,C13*%
X144010000Y-107912779D02*
X144010000Y-107587221D01*
X142990000Y-107912779D02*
X142990000Y-107587221D01*
%TO.C,C12*%
X119087221Y-92260000D02*
X119412779Y-92260000D01*
X119087221Y-91240000D02*
X119412779Y-91240000D01*
%TO.C,C11*%
X145587221Y-88010000D02*
X145912779Y-88010000D01*
X145587221Y-86990000D02*
X145912779Y-86990000D01*
%TO.C,C10*%
X140912779Y-98740000D02*
X140587221Y-98740000D01*
X140912779Y-99760000D02*
X140587221Y-99760000D01*
%TO.C,C9*%
X161412779Y-64240000D02*
X161087221Y-64240000D01*
X161412779Y-65260000D02*
X161087221Y-65260000D01*
%TO.C,C8*%
X166912779Y-84490000D02*
X166587221Y-84490000D01*
X166912779Y-85510000D02*
X166587221Y-85510000D01*
%TO.C,C7*%
X140837221Y-88010000D02*
X141162779Y-88010000D01*
X140837221Y-86990000D02*
X141162779Y-86990000D01*
%TO.C,C6*%
X120990000Y-96337221D02*
X120990000Y-96662779D01*
X122010000Y-96337221D02*
X122010000Y-96662779D01*
%TO.C,C5*%
X119510000Y-79412779D02*
X119510000Y-79087221D01*
X118490000Y-79412779D02*
X118490000Y-79087221D01*
%TO.C,C4*%
X120490000Y-79087221D02*
X120490000Y-79412779D01*
X121510000Y-79087221D02*
X121510000Y-79412779D01*
%TO.C,C3*%
X149662779Y-59490000D02*
X149337221Y-59490000D01*
X149662779Y-60510000D02*
X149337221Y-60510000D01*
%TO.C,C2*%
X149662779Y-68990000D02*
X149337221Y-68990000D01*
X149662779Y-70010000D02*
X149337221Y-70010000D01*
%TO.C,C1*%
X165510000Y-56162779D02*
X165510000Y-55837221D01*
X164490000Y-56162779D02*
X164490000Y-55837221D01*
%TO.C,U1*%
X123170000Y-90790000D02*
X123170000Y-92440000D01*
X158850000Y-90790000D02*
X123170000Y-90790000D01*
X158850000Y-96090000D02*
X158850000Y-90790000D01*
X123170000Y-96090000D02*
X158850000Y-96090000D01*
X123170000Y-94440000D02*
X123170000Y-96090000D01*
X123170000Y-92440000D02*
G75*
G02*
X123170000Y-94440000I0J-1000000D01*
G01*
%TO.C,R7*%
D12*
X160882380Y-107666666D02*
X160406190Y-108000000D01*
X160882380Y-108238095D02*
X159882380Y-108238095D01*
X159882380Y-107857142D01*
X159930000Y-107761904D01*
X159977619Y-107714285D01*
X160072857Y-107666666D01*
X160215714Y-107666666D01*
X160310952Y-107714285D01*
X160358571Y-107761904D01*
X160406190Y-107857142D01*
X160406190Y-108238095D01*
X159882380Y-107333333D02*
X159882380Y-106666666D01*
X160882380Y-107095238D01*
%TO.C,D8*%
X156522380Y-108238095D02*
X155522380Y-108238095D01*
X155522380Y-108000000D01*
X155570000Y-107857142D01*
X155665238Y-107761904D01*
X155760476Y-107714285D01*
X155950952Y-107666666D01*
X156093809Y-107666666D01*
X156284285Y-107714285D01*
X156379523Y-107761904D01*
X156474761Y-107857142D01*
X156522380Y-108000000D01*
X156522380Y-108238095D01*
X155950952Y-107095238D02*
X155903333Y-107190476D01*
X155855714Y-107238095D01*
X155760476Y-107285714D01*
X155712857Y-107285714D01*
X155617619Y-107238095D01*
X155570000Y-107190476D01*
X155522380Y-107095238D01*
X155522380Y-106904761D01*
X155570000Y-106809523D01*
X155617619Y-106761904D01*
X155712857Y-106714285D01*
X155760476Y-106714285D01*
X155855714Y-106761904D01*
X155903333Y-106809523D01*
X155950952Y-106904761D01*
X155950952Y-107095238D01*
X155998571Y-107190476D01*
X156046190Y-107238095D01*
X156141428Y-107285714D01*
X156331904Y-107285714D01*
X156427142Y-107238095D01*
X156474761Y-107190476D01*
X156522380Y-107095238D01*
X156522380Y-106904761D01*
X156474761Y-106809523D01*
X156427142Y-106761904D01*
X156331904Y-106714285D01*
X156141428Y-106714285D01*
X156046190Y-106761904D01*
X155998571Y-106809523D01*
X155950952Y-106904761D01*
%TO.C,R6*%
X110952380Y-66166666D02*
X110476190Y-66500000D01*
X110952380Y-66738095D02*
X109952380Y-66738095D01*
X109952380Y-66357142D01*
X110000000Y-66261904D01*
X110047619Y-66214285D01*
X110142857Y-66166666D01*
X110285714Y-66166666D01*
X110380952Y-66214285D01*
X110428571Y-66261904D01*
X110476190Y-66357142D01*
X110476190Y-66738095D01*
X109952380Y-65309523D02*
X109952380Y-65500000D01*
X110000000Y-65595238D01*
X110047619Y-65642857D01*
X110190476Y-65738095D01*
X110380952Y-65785714D01*
X110761904Y-65785714D01*
X110857142Y-65738095D01*
X110904761Y-65690476D01*
X110952380Y-65595238D01*
X110952380Y-65404761D01*
X110904761Y-65309523D01*
X110857142Y-65261904D01*
X110761904Y-65214285D01*
X110523809Y-65214285D01*
X110428571Y-65261904D01*
X110380952Y-65309523D01*
X110333333Y-65404761D01*
X110333333Y-65595238D01*
X110380952Y-65690476D01*
X110428571Y-65738095D01*
X110523809Y-65785714D01*
%TO.C,U5*%
X120799892Y-87411904D02*
X121609416Y-87411904D01*
X121704654Y-87364285D01*
X121752273Y-87316666D01*
X121799892Y-87221428D01*
X121799892Y-87030952D01*
X121752273Y-86935714D01*
X121704654Y-86888095D01*
X121609416Y-86840476D01*
X120799892Y-86840476D01*
X120799892Y-85888095D02*
X120799892Y-86364285D01*
X121276083Y-86411904D01*
X121228464Y-86364285D01*
X121180845Y-86269047D01*
X121180845Y-86030952D01*
X121228464Y-85935714D01*
X121276083Y-85888095D01*
X121371321Y-85840476D01*
X121609416Y-85840476D01*
X121704654Y-85888095D01*
X121752273Y-85935714D01*
X121799892Y-86030952D01*
X121799892Y-86269047D01*
X121752273Y-86364285D01*
X121704654Y-86411904D01*
%TO.C,D7*%
X162011904Y-66952380D02*
X162011904Y-65952380D01*
X162250000Y-65952380D01*
X162392857Y-66000000D01*
X162488095Y-66095238D01*
X162535714Y-66190476D01*
X162583333Y-66380952D01*
X162583333Y-66523809D01*
X162535714Y-66714285D01*
X162488095Y-66809523D01*
X162392857Y-66904761D01*
X162250000Y-66952380D01*
X162011904Y-66952380D01*
X162916666Y-65952380D02*
X163583333Y-65952380D01*
X163154761Y-66952380D01*
%TO.C,D6*%
X162011904Y-68952380D02*
X162011904Y-67952380D01*
X162250000Y-67952380D01*
X162392857Y-68000000D01*
X162488095Y-68095238D01*
X162535714Y-68190476D01*
X162583333Y-68380952D01*
X162583333Y-68523809D01*
X162535714Y-68714285D01*
X162488095Y-68809523D01*
X162392857Y-68904761D01*
X162250000Y-68952380D01*
X162011904Y-68952380D01*
X163440476Y-67952380D02*
X163250000Y-67952380D01*
X163154761Y-68000000D01*
X163107142Y-68047619D01*
X163011904Y-68190476D01*
X162964285Y-68380952D01*
X162964285Y-68761904D01*
X163011904Y-68857142D01*
X163059523Y-68904761D01*
X163154761Y-68952380D01*
X163345238Y-68952380D01*
X163440476Y-68904761D01*
X163488095Y-68857142D01*
X163535714Y-68761904D01*
X163535714Y-68523809D01*
X163488095Y-68428571D01*
X163440476Y-68380952D01*
X163345238Y-68333333D01*
X163154761Y-68333333D01*
X163059523Y-68380952D01*
X163011904Y-68428571D01*
X162964285Y-68523809D01*
%TO.C,C15*%
X163107142Y-47392857D02*
X163154761Y-47440476D01*
X163202380Y-47583333D01*
X163202380Y-47678571D01*
X163154761Y-47821428D01*
X163059523Y-47916666D01*
X162964285Y-47964285D01*
X162773809Y-48011904D01*
X162630952Y-48011904D01*
X162440476Y-47964285D01*
X162345238Y-47916666D01*
X162250000Y-47821428D01*
X162202380Y-47678571D01*
X162202380Y-47583333D01*
X162250000Y-47440476D01*
X162297619Y-47392857D01*
X163202380Y-46440476D02*
X163202380Y-47011904D01*
X163202380Y-46726190D02*
X162202380Y-46726190D01*
X162345238Y-46821428D01*
X162440476Y-46916666D01*
X162488095Y-47011904D01*
X162202380Y-45535714D02*
X162202380Y-46011904D01*
X162678571Y-46059523D01*
X162630952Y-46011904D01*
X162583333Y-45916666D01*
X162583333Y-45678571D01*
X162630952Y-45583333D01*
X162678571Y-45535714D01*
X162773809Y-45488095D01*
X163011904Y-45488095D01*
X163107142Y-45535714D01*
X163154761Y-45583333D01*
X163202380Y-45678571D01*
X163202380Y-45916666D01*
X163154761Y-46011904D01*
X163107142Y-46059523D01*
%TO.C,J6*%
X169166666Y-64952380D02*
X169166666Y-65666666D01*
X169119047Y-65809523D01*
X169023809Y-65904761D01*
X168880952Y-65952380D01*
X168785714Y-65952380D01*
X170071428Y-64952380D02*
X169880952Y-64952380D01*
X169785714Y-65000000D01*
X169738095Y-65047619D01*
X169642857Y-65190476D01*
X169595238Y-65380952D01*
X169595238Y-65761904D01*
X169642857Y-65857142D01*
X169690476Y-65904761D01*
X169785714Y-65952380D01*
X169976190Y-65952380D01*
X170071428Y-65904761D01*
X170119047Y-65857142D01*
X170166666Y-65761904D01*
X170166666Y-65523809D01*
X170119047Y-65428571D01*
X170071428Y-65380952D01*
X169976190Y-65333333D01*
X169785714Y-65333333D01*
X169690476Y-65380952D01*
X169642857Y-65428571D01*
X169595238Y-65523809D01*
%TO.C,J8*%
X109666666Y-109892380D02*
X109666666Y-110606666D01*
X109619047Y-110749523D01*
X109523809Y-110844761D01*
X109380952Y-110892380D01*
X109285714Y-110892380D01*
X110285714Y-110320952D02*
X110190476Y-110273333D01*
X110142857Y-110225714D01*
X110095238Y-110130476D01*
X110095238Y-110082857D01*
X110142857Y-109987619D01*
X110190476Y-109940000D01*
X110285714Y-109892380D01*
X110476190Y-109892380D01*
X110571428Y-109940000D01*
X110619047Y-109987619D01*
X110666666Y-110082857D01*
X110666666Y-110130476D01*
X110619047Y-110225714D01*
X110571428Y-110273333D01*
X110476190Y-110320952D01*
X110285714Y-110320952D01*
X110190476Y-110368571D01*
X110142857Y-110416190D01*
X110095238Y-110511428D01*
X110095238Y-110701904D01*
X110142857Y-110797142D01*
X110190476Y-110844761D01*
X110285714Y-110892380D01*
X110476190Y-110892380D01*
X110571428Y-110844761D01*
X110619047Y-110797142D01*
X110666666Y-110701904D01*
X110666666Y-110511428D01*
X110619047Y-110416190D01*
X110571428Y-110368571D01*
X110476190Y-110320952D01*
%TO.C,J5*%
X95666666Y-56452380D02*
X95666666Y-57166666D01*
X95619047Y-57309523D01*
X95523809Y-57404761D01*
X95380952Y-57452380D01*
X95285714Y-57452380D01*
X96619047Y-56452380D02*
X96142857Y-56452380D01*
X96095238Y-56928571D01*
X96142857Y-56880952D01*
X96238095Y-56833333D01*
X96476190Y-56833333D01*
X96571428Y-56880952D01*
X96619047Y-56928571D01*
X96666666Y-57023809D01*
X96666666Y-57261904D01*
X96619047Y-57357142D01*
X96571428Y-57404761D01*
X96476190Y-57452380D01*
X96238095Y-57452380D01*
X96142857Y-57404761D01*
X96095238Y-57357142D01*
%TO.C,J3*%
X151666666Y-109892380D02*
X151666666Y-110606666D01*
X151619047Y-110749523D01*
X151523809Y-110844761D01*
X151380952Y-110892380D01*
X151285714Y-110892380D01*
X152047619Y-109892380D02*
X152666666Y-109892380D01*
X152333333Y-110273333D01*
X152476190Y-110273333D01*
X152571428Y-110320952D01*
X152619047Y-110368571D01*
X152666666Y-110463809D01*
X152666666Y-110701904D01*
X152619047Y-110797142D01*
X152571428Y-110844761D01*
X152476190Y-110892380D01*
X152190476Y-110892380D01*
X152095238Y-110844761D01*
X152047619Y-110797142D01*
%TO.C,J2*%
X119166666Y-109702380D02*
X119166666Y-110416666D01*
X119119047Y-110559523D01*
X119023809Y-110654761D01*
X118880952Y-110702380D01*
X118785714Y-110702380D01*
X119595238Y-109797619D02*
X119642857Y-109750000D01*
X119738095Y-109702380D01*
X119976190Y-109702380D01*
X120071428Y-109750000D01*
X120119047Y-109797619D01*
X120166666Y-109892857D01*
X120166666Y-109988095D01*
X120119047Y-110130952D01*
X119547619Y-110702380D01*
X120166666Y-110702380D01*
%TO.C,J1*%
X161892380Y-98833333D02*
X162606666Y-98833333D01*
X162749523Y-98880952D01*
X162844761Y-98976190D01*
X162892380Y-99119047D01*
X162892380Y-99214285D01*
X162892380Y-97833333D02*
X162892380Y-98404761D01*
X162892380Y-98119047D02*
X161892380Y-98119047D01*
X162035238Y-98214285D01*
X162130476Y-98309523D01*
X162178095Y-98404761D01*
%TO.C,BT1*%
X114628571Y-102185714D02*
X114676190Y-102042857D01*
X114723809Y-101995238D01*
X114819047Y-101947619D01*
X114961904Y-101947619D01*
X115057142Y-101995238D01*
X115104761Y-102042857D01*
X115152380Y-102138095D01*
X115152380Y-102519047D01*
X114152380Y-102519047D01*
X114152380Y-102185714D01*
X114200000Y-102090476D01*
X114247619Y-102042857D01*
X114342857Y-101995238D01*
X114438095Y-101995238D01*
X114533333Y-102042857D01*
X114580952Y-102090476D01*
X114628571Y-102185714D01*
X114628571Y-102519047D01*
X114152380Y-101661904D02*
X114152380Y-101090476D01*
X115152380Y-101376190D02*
X114152380Y-101376190D01*
X115152380Y-100233333D02*
X115152380Y-100804761D01*
X115152380Y-100519047D02*
X114152380Y-100519047D01*
X114295238Y-100614285D01*
X114390476Y-100709523D01*
X114438095Y-100804761D01*
%TO.C,RV1*%
X104952380Y-46845238D02*
X104476190Y-47178571D01*
X104952380Y-47416666D02*
X103952380Y-47416666D01*
X103952380Y-47035714D01*
X104000000Y-46940476D01*
X104047619Y-46892857D01*
X104142857Y-46845238D01*
X104285714Y-46845238D01*
X104380952Y-46892857D01*
X104428571Y-46940476D01*
X104476190Y-47035714D01*
X104476190Y-47416666D01*
X103952380Y-46559523D02*
X104952380Y-46226190D01*
X103952380Y-45892857D01*
X104952380Y-45035714D02*
X104952380Y-45607142D01*
X104952380Y-45321428D02*
X103952380Y-45321428D01*
X104095238Y-45416666D01*
X104190476Y-45511904D01*
X104238095Y-45607142D01*
%TO.C,D5*%
X158011904Y-55702380D02*
X158011904Y-54702380D01*
X158250000Y-54702380D01*
X158392857Y-54750000D01*
X158488095Y-54845238D01*
X158535714Y-54940476D01*
X158583333Y-55130952D01*
X158583333Y-55273809D01*
X158535714Y-55464285D01*
X158488095Y-55559523D01*
X158392857Y-55654761D01*
X158250000Y-55702380D01*
X158011904Y-55702380D01*
X159488095Y-54702380D02*
X159011904Y-54702380D01*
X158964285Y-55178571D01*
X159011904Y-55130952D01*
X159107142Y-55083333D01*
X159345238Y-55083333D01*
X159440476Y-55130952D01*
X159488095Y-55178571D01*
X159535714Y-55273809D01*
X159535714Y-55511904D01*
X159488095Y-55607142D01*
X159440476Y-55654761D01*
X159345238Y-55702380D01*
X159107142Y-55702380D01*
X159011904Y-55654761D01*
X158964285Y-55607142D01*
%TO.C,C16*%
X149607142Y-57857142D02*
X149559523Y-57904761D01*
X149416666Y-57952380D01*
X149321428Y-57952380D01*
X149178571Y-57904761D01*
X149083333Y-57809523D01*
X149035714Y-57714285D01*
X148988095Y-57523809D01*
X148988095Y-57380952D01*
X149035714Y-57190476D01*
X149083333Y-57095238D01*
X149178571Y-57000000D01*
X149321428Y-56952380D01*
X149416666Y-56952380D01*
X149559523Y-57000000D01*
X149607142Y-57047619D01*
X150559523Y-57952380D02*
X149988095Y-57952380D01*
X150273809Y-57952380D02*
X150273809Y-56952380D01*
X150178571Y-57095238D01*
X150083333Y-57190476D01*
X149988095Y-57238095D01*
X151416666Y-56952380D02*
X151226190Y-56952380D01*
X151130952Y-57000000D01*
X151083333Y-57047619D01*
X150988095Y-57190476D01*
X150940476Y-57380952D01*
X150940476Y-57761904D01*
X150988095Y-57857142D01*
X151035714Y-57904761D01*
X151130952Y-57952380D01*
X151321428Y-57952380D01*
X151416666Y-57904761D01*
X151464285Y-57857142D01*
X151511904Y-57761904D01*
X151511904Y-57523809D01*
X151464285Y-57428571D01*
X151416666Y-57380952D01*
X151321428Y-57333333D01*
X151130952Y-57333333D01*
X151035714Y-57380952D01*
X150988095Y-57428571D01*
X150940476Y-57523809D01*
%TO.C,Y2*%
X145963809Y-99701190D02*
X145963809Y-100177380D01*
X145630476Y-99177380D02*
X145963809Y-99701190D01*
X146297142Y-99177380D01*
X146582857Y-99272619D02*
X146630476Y-99225000D01*
X146725714Y-99177380D01*
X146963809Y-99177380D01*
X147059047Y-99225000D01*
X147106666Y-99272619D01*
X147154285Y-99367857D01*
X147154285Y-99463095D01*
X147106666Y-99605952D01*
X146535238Y-100177380D01*
X147154285Y-100177380D01*
%TO.C,Y1*%
X121773809Y-81726190D02*
X121773809Y-82202380D01*
X121440476Y-81202380D02*
X121773809Y-81726190D01*
X122107142Y-81202380D01*
X122964285Y-82202380D02*
X122392857Y-82202380D01*
X122678571Y-82202380D02*
X122678571Y-81202380D01*
X122583333Y-81345238D01*
X122488095Y-81440476D01*
X122392857Y-81488095D01*
%TO.C,U4*%
X145488095Y-59702380D02*
X145488095Y-60511904D01*
X145535714Y-60607142D01*
X145583333Y-60654761D01*
X145678571Y-60702380D01*
X145869047Y-60702380D01*
X145964285Y-60654761D01*
X146011904Y-60607142D01*
X146059523Y-60511904D01*
X146059523Y-59702380D01*
X146964285Y-60035714D02*
X146964285Y-60702380D01*
X146726190Y-59654761D02*
X146488095Y-60369047D01*
X147107142Y-60369047D01*
%TO.C,U3*%
X158132380Y-61511904D02*
X158941904Y-61511904D01*
X159037142Y-61464285D01*
X159084761Y-61416666D01*
X159132380Y-61321428D01*
X159132380Y-61130952D01*
X159084761Y-61035714D01*
X159037142Y-60988095D01*
X158941904Y-60940476D01*
X158132380Y-60940476D01*
X158132380Y-60559523D02*
X158132380Y-59940476D01*
X158513333Y-60273809D01*
X158513333Y-60130952D01*
X158560952Y-60035714D01*
X158608571Y-59988095D01*
X158703809Y-59940476D01*
X158941904Y-59940476D01*
X159037142Y-59988095D01*
X159084761Y-60035714D01*
X159132380Y-60130952D01*
X159132380Y-60416666D01*
X159084761Y-60511904D01*
X159037142Y-60559523D01*
%TO.C,U2*%
X142988095Y-70952380D02*
X142988095Y-71761904D01*
X143035714Y-71857142D01*
X143083333Y-71904761D01*
X143178571Y-71952380D01*
X143369047Y-71952380D01*
X143464285Y-71904761D01*
X143511904Y-71857142D01*
X143559523Y-71761904D01*
X143559523Y-70952380D01*
X143988095Y-71047619D02*
X144035714Y-71000000D01*
X144130952Y-70952380D01*
X144369047Y-70952380D01*
X144464285Y-71000000D01*
X144511904Y-71047619D01*
X144559523Y-71142857D01*
X144559523Y-71238095D01*
X144511904Y-71380952D01*
X143940476Y-71952380D01*
X144559523Y-71952380D01*
%TO.C,SW1*%
X128666666Y-105154761D02*
X128809523Y-105202380D01*
X129047619Y-105202380D01*
X129142857Y-105154761D01*
X129190476Y-105107142D01*
X129238095Y-105011904D01*
X129238095Y-104916666D01*
X129190476Y-104821428D01*
X129142857Y-104773809D01*
X129047619Y-104726190D01*
X128857142Y-104678571D01*
X128761904Y-104630952D01*
X128714285Y-104583333D01*
X128666666Y-104488095D01*
X128666666Y-104392857D01*
X128714285Y-104297619D01*
X128761904Y-104250000D01*
X128857142Y-104202380D01*
X129095238Y-104202380D01*
X129238095Y-104250000D01*
X129571428Y-104202380D02*
X129809523Y-105202380D01*
X130000000Y-104488095D01*
X130190476Y-105202380D01*
X130428571Y-104202380D01*
X131333333Y-105202380D02*
X130761904Y-105202380D01*
X131047619Y-105202380D02*
X131047619Y-104202380D01*
X130952380Y-104345238D01*
X130857142Y-104440476D01*
X130761904Y-104488095D01*
%TO.C,R5*%
X160882380Y-102416666D02*
X160406190Y-102750000D01*
X160882380Y-102988095D02*
X159882380Y-102988095D01*
X159882380Y-102607142D01*
X159930000Y-102511904D01*
X159977619Y-102464285D01*
X160072857Y-102416666D01*
X160215714Y-102416666D01*
X160310952Y-102464285D01*
X160358571Y-102511904D01*
X160406190Y-102607142D01*
X160406190Y-102988095D01*
X159882380Y-101511904D02*
X159882380Y-101988095D01*
X160358571Y-102035714D01*
X160310952Y-101988095D01*
X160263333Y-101892857D01*
X160263333Y-101654761D01*
X160310952Y-101559523D01*
X160358571Y-101511904D01*
X160453809Y-101464285D01*
X160691904Y-101464285D01*
X160787142Y-101511904D01*
X160834761Y-101559523D01*
X160882380Y-101654761D01*
X160882380Y-101892857D01*
X160834761Y-101988095D01*
X160787142Y-102035714D01*
%TO.C,R4*%
X125382380Y-86916666D02*
X124906190Y-87250000D01*
X125382380Y-87488095D02*
X124382380Y-87488095D01*
X124382380Y-87107142D01*
X124430000Y-87011904D01*
X124477619Y-86964285D01*
X124572857Y-86916666D01*
X124715714Y-86916666D01*
X124810952Y-86964285D01*
X124858571Y-87011904D01*
X124906190Y-87107142D01*
X124906190Y-87488095D01*
X124715714Y-86059523D02*
X125382380Y-86059523D01*
X124334761Y-86297619D02*
X125049047Y-86535714D01*
X125049047Y-85916666D01*
%TO.C,R3*%
X124272380Y-86916666D02*
X123796190Y-87250000D01*
X124272380Y-87488095D02*
X123272380Y-87488095D01*
X123272380Y-87107142D01*
X123320000Y-87011904D01*
X123367619Y-86964285D01*
X123462857Y-86916666D01*
X123605714Y-86916666D01*
X123700952Y-86964285D01*
X123748571Y-87011904D01*
X123796190Y-87107142D01*
X123796190Y-87488095D01*
X123272380Y-86583333D02*
X123272380Y-85964285D01*
X123653333Y-86297619D01*
X123653333Y-86154761D01*
X123700952Y-86059523D01*
X123748571Y-86011904D01*
X123843809Y-85964285D01*
X124081904Y-85964285D01*
X124177142Y-86011904D01*
X124224761Y-86059523D01*
X124272380Y-86154761D01*
X124272380Y-86440476D01*
X124224761Y-86535714D01*
X124177142Y-86583333D01*
%TO.C,R2*%
X120202380Y-99416666D02*
X119726190Y-99750000D01*
X120202380Y-99988095D02*
X119202380Y-99988095D01*
X119202380Y-99607142D01*
X119250000Y-99511904D01*
X119297619Y-99464285D01*
X119392857Y-99416666D01*
X119535714Y-99416666D01*
X119630952Y-99464285D01*
X119678571Y-99511904D01*
X119726190Y-99607142D01*
X119726190Y-99988095D01*
X119297619Y-99035714D02*
X119250000Y-98988095D01*
X119202380Y-98892857D01*
X119202380Y-98654761D01*
X119250000Y-98559523D01*
X119297619Y-98511904D01*
X119392857Y-98464285D01*
X119488095Y-98464285D01*
X119630952Y-98511904D01*
X120202380Y-99083333D01*
X120202380Y-98464285D01*
%TO.C,R1*%
X117132380Y-109166666D02*
X116656190Y-109500000D01*
X117132380Y-109738095D02*
X116132380Y-109738095D01*
X116132380Y-109357142D01*
X116180000Y-109261904D01*
X116227619Y-109214285D01*
X116322857Y-109166666D01*
X116465714Y-109166666D01*
X116560952Y-109214285D01*
X116608571Y-109261904D01*
X116656190Y-109357142D01*
X116656190Y-109738095D01*
X117132380Y-108214285D02*
X117132380Y-108785714D01*
X117132380Y-108500000D02*
X116132380Y-108500000D01*
X116275238Y-108595238D01*
X116370476Y-108690476D01*
X116418095Y-108785714D01*
%TO.C,J7*%
X167867780Y-77333333D02*
X168582066Y-77333333D01*
X168724923Y-77380952D01*
X168820161Y-77476190D01*
X168867780Y-77619047D01*
X168867780Y-77714285D01*
X167867780Y-76952380D02*
X167867780Y-76285714D01*
X168867780Y-76714285D01*
%TO.C,J4*%
X151916666Y-76702380D02*
X151916666Y-77416666D01*
X151869047Y-77559523D01*
X151773809Y-77654761D01*
X151630952Y-77702380D01*
X151535714Y-77702380D01*
X152821428Y-77035714D02*
X152821428Y-77702380D01*
X152583333Y-76654761D02*
X152345238Y-77369047D01*
X152964285Y-77369047D01*
%TO.C,F1*%
X96916666Y-53928571D02*
X96583333Y-53928571D01*
X96583333Y-54452380D02*
X96583333Y-53452380D01*
X97059523Y-53452380D01*
X97964285Y-54452380D02*
X97392857Y-54452380D01*
X97678571Y-54452380D02*
X97678571Y-53452380D01*
X97583333Y-53595238D01*
X97488095Y-53690476D01*
X97392857Y-53738095D01*
%TO.C,D4*%
X156522380Y-102988095D02*
X155522380Y-102988095D01*
X155522380Y-102750000D01*
X155570000Y-102607142D01*
X155665238Y-102511904D01*
X155760476Y-102464285D01*
X155950952Y-102416666D01*
X156093809Y-102416666D01*
X156284285Y-102464285D01*
X156379523Y-102511904D01*
X156474761Y-102607142D01*
X156522380Y-102750000D01*
X156522380Y-102988095D01*
X155855714Y-101559523D02*
X156522380Y-101559523D01*
X155474761Y-101797619D02*
X156189047Y-102035714D01*
X156189047Y-101416666D01*
%TO.C,D3*%
X111702380Y-109238095D02*
X110702380Y-109238095D01*
X110702380Y-109000000D01*
X110750000Y-108857142D01*
X110845238Y-108761904D01*
X110940476Y-108714285D01*
X111130952Y-108666666D01*
X111273809Y-108666666D01*
X111464285Y-108714285D01*
X111559523Y-108761904D01*
X111654761Y-108857142D01*
X111702380Y-109000000D01*
X111702380Y-109238095D01*
X110702380Y-108333333D02*
X110702380Y-107714285D01*
X111083333Y-108047619D01*
X111083333Y-107904761D01*
X111130952Y-107809523D01*
X111178571Y-107761904D01*
X111273809Y-107714285D01*
X111511904Y-107714285D01*
X111607142Y-107761904D01*
X111654761Y-107809523D01*
X111702380Y-107904761D01*
X111702380Y-108190476D01*
X111654761Y-108285714D01*
X111607142Y-108333333D01*
%TO.C,D2*%
X155011904Y-65452380D02*
X155011904Y-64452380D01*
X155250000Y-64452380D01*
X155392857Y-64500000D01*
X155488095Y-64595238D01*
X155535714Y-64690476D01*
X155583333Y-64880952D01*
X155583333Y-65023809D01*
X155535714Y-65214285D01*
X155488095Y-65309523D01*
X155392857Y-65404761D01*
X155250000Y-65452380D01*
X155011904Y-65452380D01*
X155964285Y-64547619D02*
X156011904Y-64500000D01*
X156107142Y-64452380D01*
X156345238Y-64452380D01*
X156440476Y-64500000D01*
X156488095Y-64547619D01*
X156535714Y-64642857D01*
X156535714Y-64738095D01*
X156488095Y-64880952D01*
X155916666Y-65452380D01*
X156535714Y-65452380D01*
%TO.C,D1*%
X155011904Y-67702380D02*
X155011904Y-66702380D01*
X155250000Y-66702380D01*
X155392857Y-66750000D01*
X155488095Y-66845238D01*
X155535714Y-66940476D01*
X155583333Y-67130952D01*
X155583333Y-67273809D01*
X155535714Y-67464285D01*
X155488095Y-67559523D01*
X155392857Y-67654761D01*
X155250000Y-67702380D01*
X155011904Y-67702380D01*
X156535714Y-67702380D02*
X155964285Y-67702380D01*
X156250000Y-67702380D02*
X156250000Y-66702380D01*
X156154761Y-66845238D01*
X156059523Y-66940476D01*
X155964285Y-66988095D01*
%TO.C,C14*%
X151287142Y-108392857D02*
X151334761Y-108440476D01*
X151382380Y-108583333D01*
X151382380Y-108678571D01*
X151334761Y-108821428D01*
X151239523Y-108916666D01*
X151144285Y-108964285D01*
X150953809Y-109011904D01*
X150810952Y-109011904D01*
X150620476Y-108964285D01*
X150525238Y-108916666D01*
X150430000Y-108821428D01*
X150382380Y-108678571D01*
X150382380Y-108583333D01*
X150430000Y-108440476D01*
X150477619Y-108392857D01*
X151382380Y-107440476D02*
X151382380Y-108011904D01*
X151382380Y-107726190D02*
X150382380Y-107726190D01*
X150525238Y-107821428D01*
X150620476Y-107916666D01*
X150668095Y-108011904D01*
X150715714Y-106583333D02*
X151382380Y-106583333D01*
X150334761Y-106821428D02*
X151049047Y-107059523D01*
X151049047Y-106440476D01*
%TO.C,C13*%
X142427142Y-108392857D02*
X142474761Y-108440476D01*
X142522380Y-108583333D01*
X142522380Y-108678571D01*
X142474761Y-108821428D01*
X142379523Y-108916666D01*
X142284285Y-108964285D01*
X142093809Y-109011904D01*
X141950952Y-109011904D01*
X141760476Y-108964285D01*
X141665238Y-108916666D01*
X141570000Y-108821428D01*
X141522380Y-108678571D01*
X141522380Y-108583333D01*
X141570000Y-108440476D01*
X141617619Y-108392857D01*
X142522380Y-107440476D02*
X142522380Y-108011904D01*
X142522380Y-107726190D02*
X141522380Y-107726190D01*
X141665238Y-107821428D01*
X141760476Y-107916666D01*
X141808095Y-108011904D01*
X141522380Y-107107142D02*
X141522380Y-106488095D01*
X141903333Y-106821428D01*
X141903333Y-106678571D01*
X141950952Y-106583333D01*
X141998571Y-106535714D01*
X142093809Y-106488095D01*
X142331904Y-106488095D01*
X142427142Y-106535714D01*
X142474761Y-106583333D01*
X142522380Y-106678571D01*
X142522380Y-106964285D01*
X142474761Y-107059523D01*
X142427142Y-107107142D01*
%TO.C,C12*%
X118607142Y-93607142D02*
X118559523Y-93654761D01*
X118416666Y-93702380D01*
X118321428Y-93702380D01*
X118178571Y-93654761D01*
X118083333Y-93559523D01*
X118035714Y-93464285D01*
X117988095Y-93273809D01*
X117988095Y-93130952D01*
X118035714Y-92940476D01*
X118083333Y-92845238D01*
X118178571Y-92750000D01*
X118321428Y-92702380D01*
X118416666Y-92702380D01*
X118559523Y-92750000D01*
X118607142Y-92797619D01*
X119559523Y-93702380D02*
X118988095Y-93702380D01*
X119273809Y-93702380D02*
X119273809Y-92702380D01*
X119178571Y-92845238D01*
X119083333Y-92940476D01*
X118988095Y-92988095D01*
X119940476Y-92797619D02*
X119988095Y-92750000D01*
X120083333Y-92702380D01*
X120321428Y-92702380D01*
X120416666Y-92750000D01*
X120464285Y-92797619D01*
X120511904Y-92892857D01*
X120511904Y-92988095D01*
X120464285Y-93130952D01*
X119892857Y-93702380D01*
X120511904Y-93702380D01*
%TO.C,C11*%
X145107142Y-86427142D02*
X145059523Y-86474761D01*
X144916666Y-86522380D01*
X144821428Y-86522380D01*
X144678571Y-86474761D01*
X144583333Y-86379523D01*
X144535714Y-86284285D01*
X144488095Y-86093809D01*
X144488095Y-85950952D01*
X144535714Y-85760476D01*
X144583333Y-85665238D01*
X144678571Y-85570000D01*
X144821428Y-85522380D01*
X144916666Y-85522380D01*
X145059523Y-85570000D01*
X145107142Y-85617619D01*
X146059523Y-86522380D02*
X145488095Y-86522380D01*
X145773809Y-86522380D02*
X145773809Y-85522380D01*
X145678571Y-85665238D01*
X145583333Y-85760476D01*
X145488095Y-85808095D01*
X147011904Y-86522380D02*
X146440476Y-86522380D01*
X146726190Y-86522380D02*
X146726190Y-85522380D01*
X146630952Y-85665238D01*
X146535714Y-85760476D01*
X146440476Y-85808095D01*
%TO.C,C10*%
X137107142Y-99607142D02*
X137059523Y-99654761D01*
X136916666Y-99702380D01*
X136821428Y-99702380D01*
X136678571Y-99654761D01*
X136583333Y-99559523D01*
X136535714Y-99464285D01*
X136488095Y-99273809D01*
X136488095Y-99130952D01*
X136535714Y-98940476D01*
X136583333Y-98845238D01*
X136678571Y-98750000D01*
X136821428Y-98702380D01*
X136916666Y-98702380D01*
X137059523Y-98750000D01*
X137107142Y-98797619D01*
X138059523Y-99702380D02*
X137488095Y-99702380D01*
X137773809Y-99702380D02*
X137773809Y-98702380D01*
X137678571Y-98845238D01*
X137583333Y-98940476D01*
X137488095Y-98988095D01*
X138678571Y-98702380D02*
X138773809Y-98702380D01*
X138869047Y-98750000D01*
X138916666Y-98797619D01*
X138964285Y-98892857D01*
X139011904Y-99083333D01*
X139011904Y-99321428D01*
X138964285Y-99511904D01*
X138916666Y-99607142D01*
X138869047Y-99654761D01*
X138773809Y-99702380D01*
X138678571Y-99702380D01*
X138583333Y-99654761D01*
X138535714Y-99607142D01*
X138488095Y-99511904D01*
X138440476Y-99321428D01*
X138440476Y-99083333D01*
X138488095Y-98892857D01*
X138535714Y-98797619D01*
X138583333Y-98750000D01*
X138678571Y-98702380D01*
%TO.C,C9*%
X163583333Y-65357142D02*
X163535714Y-65404761D01*
X163392857Y-65452380D01*
X163297619Y-65452380D01*
X163154761Y-65404761D01*
X163059523Y-65309523D01*
X163011904Y-65214285D01*
X162964285Y-65023809D01*
X162964285Y-64880952D01*
X163011904Y-64690476D01*
X163059523Y-64595238D01*
X163154761Y-64500000D01*
X163297619Y-64452380D01*
X163392857Y-64452380D01*
X163535714Y-64500000D01*
X163583333Y-64547619D01*
X164059523Y-65452380D02*
X164250000Y-65452380D01*
X164345238Y-65404761D01*
X164392857Y-65357142D01*
X164488095Y-65214285D01*
X164535714Y-65023809D01*
X164535714Y-64642857D01*
X164488095Y-64547619D01*
X164440476Y-64500000D01*
X164345238Y-64452380D01*
X164154761Y-64452380D01*
X164059523Y-64500000D01*
X164011904Y-64547619D01*
X163964285Y-64642857D01*
X163964285Y-64880952D01*
X164011904Y-64976190D01*
X164059523Y-65023809D01*
X164154761Y-65071428D01*
X164345238Y-65071428D01*
X164440476Y-65023809D01*
X164488095Y-64976190D01*
X164535714Y-64880952D01*
%TO.C,C8*%
X166583333Y-86787142D02*
X166535714Y-86834761D01*
X166392857Y-86882380D01*
X166297619Y-86882380D01*
X166154761Y-86834761D01*
X166059523Y-86739523D01*
X166011904Y-86644285D01*
X165964285Y-86453809D01*
X165964285Y-86310952D01*
X166011904Y-86120476D01*
X166059523Y-86025238D01*
X166154761Y-85930000D01*
X166297619Y-85882380D01*
X166392857Y-85882380D01*
X166535714Y-85930000D01*
X166583333Y-85977619D01*
X167154761Y-86310952D02*
X167059523Y-86263333D01*
X167011904Y-86215714D01*
X166964285Y-86120476D01*
X166964285Y-86072857D01*
X167011904Y-85977619D01*
X167059523Y-85930000D01*
X167154761Y-85882380D01*
X167345238Y-85882380D01*
X167440476Y-85930000D01*
X167488095Y-85977619D01*
X167535714Y-86072857D01*
X167535714Y-86120476D01*
X167488095Y-86215714D01*
X167440476Y-86263333D01*
X167345238Y-86310952D01*
X167154761Y-86310952D01*
X167059523Y-86358571D01*
X167011904Y-86406190D01*
X166964285Y-86501428D01*
X166964285Y-86691904D01*
X167011904Y-86787142D01*
X167059523Y-86834761D01*
X167154761Y-86882380D01*
X167345238Y-86882380D01*
X167440476Y-86834761D01*
X167488095Y-86787142D01*
X167535714Y-86691904D01*
X167535714Y-86501428D01*
X167488095Y-86406190D01*
X167440476Y-86358571D01*
X167345238Y-86310952D01*
%TO.C,C7*%
X140833333Y-86427142D02*
X140785714Y-86474761D01*
X140642857Y-86522380D01*
X140547619Y-86522380D01*
X140404761Y-86474761D01*
X140309523Y-86379523D01*
X140261904Y-86284285D01*
X140214285Y-86093809D01*
X140214285Y-85950952D01*
X140261904Y-85760476D01*
X140309523Y-85665238D01*
X140404761Y-85570000D01*
X140547619Y-85522380D01*
X140642857Y-85522380D01*
X140785714Y-85570000D01*
X140833333Y-85617619D01*
X141166666Y-85522380D02*
X141833333Y-85522380D01*
X141404761Y-86522380D01*
%TO.C,C6*%
X121857142Y-99416666D02*
X121904761Y-99464285D01*
X121952380Y-99607142D01*
X121952380Y-99702380D01*
X121904761Y-99845238D01*
X121809523Y-99940476D01*
X121714285Y-99988095D01*
X121523809Y-100035714D01*
X121380952Y-100035714D01*
X121190476Y-99988095D01*
X121095238Y-99940476D01*
X121000000Y-99845238D01*
X120952380Y-99702380D01*
X120952380Y-99607142D01*
X121000000Y-99464285D01*
X121047619Y-99416666D01*
X120952380Y-98559523D02*
X120952380Y-98750000D01*
X121000000Y-98845238D01*
X121047619Y-98892857D01*
X121190476Y-98988095D01*
X121380952Y-99035714D01*
X121761904Y-99035714D01*
X121857142Y-98988095D01*
X121904761Y-98940476D01*
X121952380Y-98845238D01*
X121952380Y-98654761D01*
X121904761Y-98559523D01*
X121857142Y-98511904D01*
X121761904Y-98464285D01*
X121523809Y-98464285D01*
X121428571Y-98511904D01*
X121380952Y-98559523D01*
X121333333Y-98654761D01*
X121333333Y-98845238D01*
X121380952Y-98940476D01*
X121428571Y-98988095D01*
X121523809Y-99035714D01*
%TO.C,C5*%
X117927142Y-79416666D02*
X117974761Y-79464285D01*
X118022380Y-79607142D01*
X118022380Y-79702380D01*
X117974761Y-79845238D01*
X117879523Y-79940476D01*
X117784285Y-79988095D01*
X117593809Y-80035714D01*
X117450952Y-80035714D01*
X117260476Y-79988095D01*
X117165238Y-79940476D01*
X117070000Y-79845238D01*
X117022380Y-79702380D01*
X117022380Y-79607142D01*
X117070000Y-79464285D01*
X117117619Y-79416666D01*
X117022380Y-78511904D02*
X117022380Y-78988095D01*
X117498571Y-79035714D01*
X117450952Y-78988095D01*
X117403333Y-78892857D01*
X117403333Y-78654761D01*
X117450952Y-78559523D01*
X117498571Y-78511904D01*
X117593809Y-78464285D01*
X117831904Y-78464285D01*
X117927142Y-78511904D01*
X117974761Y-78559523D01*
X118022380Y-78654761D01*
X118022380Y-78892857D01*
X117974761Y-78988095D01*
X117927142Y-79035714D01*
%TO.C,C4*%
X122787142Y-79416666D02*
X122834761Y-79464285D01*
X122882380Y-79607142D01*
X122882380Y-79702380D01*
X122834761Y-79845238D01*
X122739523Y-79940476D01*
X122644285Y-79988095D01*
X122453809Y-80035714D01*
X122310952Y-80035714D01*
X122120476Y-79988095D01*
X122025238Y-79940476D01*
X121930000Y-79845238D01*
X121882380Y-79702380D01*
X121882380Y-79607142D01*
X121930000Y-79464285D01*
X121977619Y-79416666D01*
X122215714Y-78559523D02*
X122882380Y-78559523D01*
X121834761Y-78797619D02*
X122549047Y-79035714D01*
X122549047Y-78416666D01*
%TO.C,C3*%
X149333333Y-58857142D02*
X149285714Y-58904761D01*
X149142857Y-58952380D01*
X149047619Y-58952380D01*
X148904761Y-58904761D01*
X148809523Y-58809523D01*
X148761904Y-58714285D01*
X148714285Y-58523809D01*
X148714285Y-58380952D01*
X148761904Y-58190476D01*
X148809523Y-58095238D01*
X148904761Y-58000000D01*
X149047619Y-57952380D01*
X149142857Y-57952380D01*
X149285714Y-58000000D01*
X149333333Y-58047619D01*
X149666666Y-57952380D02*
X150285714Y-57952380D01*
X149952380Y-58333333D01*
X150095238Y-58333333D01*
X150190476Y-58380952D01*
X150238095Y-58428571D01*
X150285714Y-58523809D01*
X150285714Y-58761904D01*
X150238095Y-58857142D01*
X150190476Y-58904761D01*
X150095238Y-58952380D01*
X149809523Y-58952380D01*
X149714285Y-58904761D01*
X149666666Y-58857142D01*
%TO.C,C2*%
X149333333Y-71287142D02*
X149285714Y-71334761D01*
X149142857Y-71382380D01*
X149047619Y-71382380D01*
X148904761Y-71334761D01*
X148809523Y-71239523D01*
X148761904Y-71144285D01*
X148714285Y-70953809D01*
X148714285Y-70810952D01*
X148761904Y-70620476D01*
X148809523Y-70525238D01*
X148904761Y-70430000D01*
X149047619Y-70382380D01*
X149142857Y-70382380D01*
X149285714Y-70430000D01*
X149333333Y-70477619D01*
X149714285Y-70477619D02*
X149761904Y-70430000D01*
X149857142Y-70382380D01*
X150095238Y-70382380D01*
X150190476Y-70430000D01*
X150238095Y-70477619D01*
X150285714Y-70572857D01*
X150285714Y-70668095D01*
X150238095Y-70810952D01*
X149666666Y-71382380D01*
X150285714Y-71382380D01*
%TO.C,C1*%
X163927142Y-56166666D02*
X163974761Y-56214285D01*
X164022380Y-56357142D01*
X164022380Y-56452380D01*
X163974761Y-56595238D01*
X163879523Y-56690476D01*
X163784285Y-56738095D01*
X163593809Y-56785714D01*
X163450952Y-56785714D01*
X163260476Y-56738095D01*
X163165238Y-56690476D01*
X163070000Y-56595238D01*
X163022380Y-56452380D01*
X163022380Y-56357142D01*
X163070000Y-56214285D01*
X163117619Y-56166666D01*
X164022380Y-55214285D02*
X164022380Y-55785714D01*
X164022380Y-55500000D02*
X163022380Y-55500000D01*
X163165238Y-55595238D01*
X163260476Y-55690476D01*
X163308095Y-55785714D01*
%TO.C,U1*%
X121622380Y-94201904D02*
X122431904Y-94201904D01*
X122527142Y-94154285D01*
X122574761Y-94106666D01*
X122622380Y-94011428D01*
X122622380Y-93820952D01*
X122574761Y-93725714D01*
X122527142Y-93678095D01*
X122431904Y-93630476D01*
X121622380Y-93630476D01*
X122622380Y-92630476D02*
X122622380Y-93201904D01*
X122622380Y-92916190D02*
X121622380Y-92916190D01*
X121765238Y-93011428D01*
X121860476Y-93106666D01*
X121908095Y-93201904D01*
%TD*%
M02*
