%TF.GenerationSoftware,KiCad,Pcbnew,(5.1.6)-1*%
%TF.CreationDate,2021-11-18T16:20:29-08:00*%
%TF.ProjectId,well-monitor,77656c6c-2d6d-46f6-9e69-746f722e6b69,rev?*%
%TF.SameCoordinates,Original*%
%TF.FileFunction,Copper,L2,Bot*%
%TF.FilePolarity,Positive*%
%FSLAX46Y46*%
G04 Gerber Fmt 4.6, Leading zero omitted, Abs format (unit mm)*
G04 Created by KiCad (PCBNEW (5.1.6)-1) date 2021-11-18 16:20:29*
%MOMM*%
%LPD*%
G01*
G04 APERTURE LIST*
%TA.AperFunction,ComponentPad*%
%ADD10O,2.800000X2.800000*%
%TD*%
%TA.AperFunction,ComponentPad*%
%ADD11C,2.800000*%
%TD*%
%TA.AperFunction,ComponentPad*%
%ADD12O,1.900000X1.050000*%
%TD*%
%TA.AperFunction,ComponentPad*%
%ADD13C,2.600000*%
%TD*%
%TA.AperFunction,ComponentPad*%
%ADD14R,2.600000X2.600000*%
%TD*%
%TA.AperFunction,ComponentPad*%
%ADD15C,1.800000*%
%TD*%
%TA.AperFunction,ComponentPad*%
%ADD16C,2.000000*%
%TD*%
%TA.AperFunction,ComponentPad*%
%ADD17R,2.000000X2.000000*%
%TD*%
%TA.AperFunction,ComponentPad*%
%ADD18C,1.500000*%
%TD*%
%TA.AperFunction,ComponentPad*%
%ADD19C,2.500000*%
%TD*%
%TA.AperFunction,ComponentPad*%
%ADD20O,1.700000X1.700000*%
%TD*%
%TA.AperFunction,ComponentPad*%
%ADD21R,1.700000X1.700000*%
%TD*%
%TA.AperFunction,ComponentPad*%
%ADD22O,1.600000X1.600000*%
%TD*%
%TA.AperFunction,ComponentPad*%
%ADD23R,1.600000X1.600000*%
%TD*%
%TA.AperFunction,ViaPad*%
%ADD24C,0.800000*%
%TD*%
%TA.AperFunction,Conductor*%
%ADD25C,1.000000*%
%TD*%
%TA.AperFunction,Conductor*%
%ADD26C,0.400000*%
%TD*%
%TA.AperFunction,Conductor*%
%ADD27C,0.250000*%
%TD*%
%TA.AperFunction,Conductor*%
%ADD28C,0.254000*%
%TD*%
G04 APERTURE END LIST*
D10*
%TO.P,R6,2*%
%TO.N,Net-(R6-Pad2)*%
X114750000Y-66320000D03*
D11*
%TO.P,R6,1*%
%TO.N,Net-(F1-Pad1)*%
X114750000Y-46000000D03*
%TD*%
D12*
%TO.P,J6,6*%
%TO.N,Net-(J6-Pad6)*%
X171550000Y-56425000D03*
X171550000Y-63575000D03*
%TD*%
D13*
%TO.P,J8,2*%
%TO.N,/DEPTH_SENSE*%
X112500000Y-115500000D03*
D14*
%TO.P,J8,1*%
%TO.N,+24V*%
X107500000Y-115500000D03*
%TD*%
D13*
%TO.P,J5,2*%
%TO.N,Net-(J5-Pad2)*%
X100500000Y-65750000D03*
D14*
%TO.P,J5,1*%
%TO.N,Net-(F1-Pad2)*%
X100500000Y-60750000D03*
%TD*%
D13*
%TO.P,J3,4*%
%TO.N,/GPIO_7*%
X159500000Y-115500000D03*
%TO.P,J3,3*%
%TO.N,/GPIO_6*%
X154500000Y-115500000D03*
%TO.P,J3,2*%
%TO.N,/GPIO_5*%
X149500000Y-115500000D03*
D14*
%TO.P,J3,1*%
%TO.N,/GPIO_4*%
X144500000Y-115500000D03*
%TD*%
D13*
%TO.P,J2,4*%
%TO.N,/GPIO_3*%
X136000000Y-115500000D03*
%TO.P,J2,3*%
%TO.N,/GPIO_2*%
X131000000Y-115500000D03*
%TO.P,J2,2*%
%TO.N,/GPIO_1*%
X126000000Y-115500000D03*
D14*
%TO.P,J2,1*%
%TO.N,/GPIO_0*%
X121000000Y-115500000D03*
%TD*%
D13*
%TO.P,J1,4*%
%TO.N,GND*%
X167500000Y-91000000D03*
%TO.P,J1,3*%
X167500000Y-96000000D03*
%TO.P,J1,2*%
%TO.N,+3V3*%
X167500000Y-101000000D03*
D14*
%TO.P,J1,1*%
X167500000Y-106000000D03*
%TD*%
D15*
%TO.P,RV1,2*%
%TO.N,Net-(F1-Pad1)*%
X109400000Y-47750000D03*
%TO.P,RV1,1*%
%TO.N,Net-(J5-Pad2)*%
X107000000Y-55250000D03*
%TD*%
D16*
%TO.P,C16,2*%
%TO.N,GND*%
X150500000Y-53750000D03*
D17*
%TO.P,C16,1*%
%TO.N,+24V*%
X150500000Y-48750000D03*
%TD*%
D18*
%TO.P,Y2,2*%
%TO.N,Net-(C14-Pad1)*%
X148880000Y-103250000D03*
%TO.P,Y2,1*%
%TO.N,Net-(C13-Pad2)*%
X144000000Y-103250000D03*
%TD*%
D19*
%TO.P,U2,5*%
%TO.N,+24V*%
X141910000Y-47590000D03*
%TO.P,U2,2*%
%TO.N,Net-(R6-Pad2)*%
X121590000Y-52670000D03*
%TO.P,U2,1*%
%TO.N,Net-(J5-Pad2)*%
X121590000Y-47590000D03*
%TO.P,U2,4*%
%TO.N,GND*%
X141910000Y-57750000D03*
%TD*%
D16*
%TO.P,SW1,2*%
%TO.N,GND*%
X133200000Y-104250000D03*
%TO.P,SW1,1*%
%TO.N,/~RESET*%
X126800000Y-104250000D03*
%TD*%
D20*
%TO.P,J4,6*%
%TO.N,GND*%
X149710000Y-79670000D03*
%TO.P,J4,5*%
%TO.N,/~RESET*%
X152250000Y-79670000D03*
%TO.P,J4,4*%
%TO.N,/SDO*%
X149710000Y-82210000D03*
%TO.P,J4,3*%
%TO.N,/SCK*%
X152250000Y-82210000D03*
%TO.P,J4,2*%
%TO.N,+3V3*%
X149710000Y-84750000D03*
D21*
%TO.P,J4,1*%
%TO.N,/SDI*%
X152250000Y-84750000D03*
%TD*%
D22*
%TO.P,U1,28*%
%TO.N,/GPIO_3*%
X124500000Y-89630000D03*
%TO.P,U1,14*%
%TO.N,Net-(D4-Pad2)*%
X157520000Y-97250000D03*
%TO.P,U1,27*%
%TO.N,/GPIO_2*%
X127040000Y-89630000D03*
%TO.P,U1,13*%
%TO.N,/SD_~DET*%
X154980000Y-97250000D03*
%TO.P,U1,26*%
%TO.N,/GPIO_1*%
X129580000Y-89630000D03*
%TO.P,U1,12*%
%TO.N,/GPIO_7*%
X152440000Y-97250000D03*
%TO.P,U1,25*%
%TO.N,/GPIO_0*%
X132120000Y-89630000D03*
%TO.P,U1,11*%
%TO.N,/GPIO_6*%
X149900000Y-97250000D03*
%TO.P,U1,24*%
%TO.N,N/C*%
X134660000Y-89630000D03*
%TO.P,U1,10*%
%TO.N,Net-(C14-Pad1)*%
X147360000Y-97250000D03*
%TO.P,U1,23*%
%TO.N,/DEPTH_SENSE*%
X137200000Y-89630000D03*
%TO.P,U1,9*%
%TO.N,Net-(C13-Pad2)*%
X144820000Y-97250000D03*
%TO.P,U1,22*%
%TO.N,GND*%
X139740000Y-89630000D03*
%TO.P,U1,8*%
X142280000Y-97250000D03*
%TO.P,U1,21*%
%TO.N,Net-(C7-Pad2)*%
X142280000Y-89630000D03*
%TO.P,U1,7*%
%TO.N,+3V3*%
X139740000Y-97250000D03*
%TO.P,U1,20*%
X144820000Y-89630000D03*
%TO.P,U1,6*%
%TO.N,/GPIO_5*%
X137200000Y-97250000D03*
%TO.P,U1,19*%
%TO.N,/SCK*%
X147360000Y-89630000D03*
%TO.P,U1,5*%
%TO.N,/GPIO_4*%
X134660000Y-97250000D03*
%TO.P,U1,18*%
%TO.N,/SDI*%
X149900000Y-89630000D03*
%TO.P,U1,4*%
%TO.N,/RTC_MFP*%
X132120000Y-97250000D03*
%TO.P,U1,17*%
%TO.N,/SDO*%
X152440000Y-89630000D03*
%TO.P,U1,3*%
%TO.N,/TX*%
X129580000Y-97250000D03*
%TO.P,U1,16*%
%TO.N,/~CS*%
X154980000Y-89630000D03*
%TO.P,U1,2*%
%TO.N,/RX*%
X127040000Y-97250000D03*
%TO.P,U1,15*%
%TO.N,Net-(D8-Pad2)*%
X157520000Y-89630000D03*
D23*
%TO.P,U1,1*%
%TO.N,/~RESET*%
X124500000Y-97250000D03*
%TD*%
D24*
%TO.N,GND*%
X122000000Y-91500000D03*
X149500000Y-93500000D03*
X160500000Y-71500000D03*
X166500000Y-69750000D03*
X119250000Y-100750000D03*
X114500000Y-100750000D03*
X149000000Y-87250000D03*
X160750000Y-77000000D03*
X142000000Y-61500000D03*
X142000000Y-60000000D03*
X142000000Y-55000000D03*
X142000000Y-67250000D03*
X142000000Y-68750000D03*
X142000000Y-70250000D03*
X141750000Y-72750000D03*
X140750000Y-74000000D03*
X139500000Y-75250000D03*
X115250000Y-106750000D03*
X115250000Y-105250000D03*
X113750000Y-105250000D03*
X112500000Y-105250000D03*
X137250000Y-84750000D03*
X168750000Y-66000000D03*
X160500000Y-66500000D03*
X143000000Y-78500000D03*
X144250000Y-77500000D03*
X145500000Y-76250000D03*
X146500000Y-75250000D03*
X147000000Y-71250000D03*
%TO.N,+3V3*%
X152000000Y-61250000D03*
X125500000Y-84500000D03*
X139500000Y-82750000D03*
X118750000Y-96000000D03*
X120037500Y-91750000D03*
X160000000Y-64000000D03*
X162500000Y-85250000D03*
X162500000Y-78500000D03*
X157292991Y-69250000D03*
%TO.N,Net-(BT1-Pad1)*%
X99500000Y-105250000D03*
X99000000Y-80500000D03*
%TO.N,/DTR*%
X124000000Y-94750000D03*
X131750000Y-88000000D03*
%TO.N,+5V*%
X166750000Y-62000000D03*
X163474980Y-57000000D03*
X156250000Y-59500000D03*
%TO.N,+24V*%
X144500000Y-64750000D03*
%TO.N,/DEPTH_SENSE*%
X116750000Y-109750000D03*
%TO.N,/GPIO_2*%
X130500000Y-110500000D03*
%TO.N,Net-(J6-Pad2)*%
X166750000Y-60750000D03*
X166500000Y-59250000D03*
%TO.N,/~CS*%
X159750000Y-76500000D03*
%TO.N,/SD_~DET*%
X156000000Y-80750000D03*
%TO.N,/RTC_MFP*%
X133843037Y-86038349D03*
X119250000Y-87500000D03*
%TO.N,/TX*%
X161260797Y-65607818D03*
%TD*%
D25*
%TO.N,GND*%
X168750000Y-66000000D02*
X168750000Y-55000000D01*
X168750000Y-55000000D02*
X167500000Y-53750000D01*
X167500000Y-53750000D02*
X150500000Y-53750000D01*
D26*
%TO.N,+3V3*%
X125500000Y-84500000D02*
X127250000Y-82750000D01*
X127250000Y-82750000D02*
X139500000Y-82750000D01*
X118750000Y-93037500D02*
X120037500Y-91750000D01*
X118750000Y-96000000D02*
X118750000Y-93037500D01*
D25*
X162818716Y-62318716D02*
X161750000Y-61250000D01*
D26*
X162750000Y-64000000D02*
X162818716Y-63931284D01*
X160000000Y-64000000D02*
X162750000Y-64000000D01*
D25*
X162818716Y-63931284D02*
X162818716Y-62318716D01*
X162500000Y-96000000D02*
X162500000Y-85250000D01*
X167500000Y-101000000D02*
X162500000Y-96000000D01*
X162500000Y-85250000D02*
X162500000Y-78500000D01*
X162500000Y-69250000D02*
X162500000Y-78500000D01*
X162850001Y-68899999D02*
X162850001Y-63962569D01*
X162500000Y-69250000D02*
X162850001Y-68899999D01*
X162850001Y-63962569D02*
X162818716Y-63931284D01*
X144820000Y-81722991D02*
X157292991Y-69250000D01*
X162500000Y-69250000D02*
X157292991Y-69250000D01*
X144820000Y-89630000D02*
X144820000Y-81722991D01*
X161750000Y-61250000D02*
X152000000Y-61250000D01*
D26*
%TO.N,Net-(BT1-Pad1)*%
X99500000Y-105250000D02*
X99000000Y-104750000D01*
X99000000Y-104750000D02*
X99000000Y-80500000D01*
%TO.N,/~RESET*%
X152250000Y-79670000D02*
X150920000Y-81000000D01*
X150879999Y-80959999D02*
X148040001Y-80959999D01*
X150920000Y-81000000D02*
X150879999Y-80959999D01*
X146020001Y-82979999D02*
X146020001Y-91479999D01*
X148040001Y-80959999D02*
X146020001Y-82979999D01*
X142050012Y-95449988D02*
X139050012Y-95449988D01*
X146020001Y-91479999D02*
X142050012Y-95449988D01*
X138400001Y-96099999D02*
X138400001Y-98849999D01*
X139050012Y-95449988D02*
X138400001Y-96099999D01*
X138400001Y-98849999D02*
X136000000Y-101250000D01*
X129800000Y-101250000D02*
X126800000Y-104250000D01*
X136000000Y-101250000D02*
X129800000Y-101250000D01*
%TO.N,/DTR*%
X125839999Y-89053999D02*
X126893998Y-88000000D01*
X126893998Y-88000000D02*
X131750000Y-88000000D01*
X124000000Y-94750000D02*
X125839999Y-92910001D01*
X125839999Y-92910001D02*
X125839999Y-89053999D01*
D25*
%TO.N,+5V*%
X156250000Y-59500000D02*
X162500000Y-59500000D01*
X165000000Y-62000000D02*
X166750000Y-62000000D01*
X162500000Y-59500000D02*
X165000000Y-62000000D01*
D27*
X162500000Y-57974980D02*
X163474980Y-57000000D01*
X162500000Y-59250000D02*
X162500000Y-57974980D01*
X166750000Y-62000000D02*
X165250000Y-62000000D01*
X165250000Y-62000000D02*
X162500000Y-59250000D01*
D25*
%TO.N,+24V*%
X114000000Y-77500000D02*
X107500000Y-84000000D01*
X141910000Y-47590000D02*
X141910000Y-48770000D01*
X107500000Y-84000000D02*
X107500000Y-115500000D01*
X144750000Y-51610000D02*
X144750000Y-73750000D01*
X141910000Y-48770000D02*
X144750000Y-51610000D01*
X144750000Y-73750000D02*
X141000000Y-77500000D01*
X141000000Y-77500000D02*
X114000000Y-77500000D01*
D26*
%TO.N,/DEPTH_SENSE*%
X134519998Y-86949998D02*
X137200000Y-89630000D01*
X116750000Y-109750000D02*
X116750000Y-93853496D01*
X116750000Y-93853496D02*
X123653498Y-86949998D01*
X123653498Y-86949998D02*
X134519998Y-86949998D01*
%TO.N,/GPIO_2*%
X131000000Y-115500000D02*
X131000000Y-111000000D01*
X131000000Y-111000000D02*
X130500000Y-110500000D01*
%TO.N,/GPIO_1*%
X129580000Y-89630000D02*
X129580000Y-91920000D01*
X125700001Y-95799999D02*
X125700001Y-99299999D01*
X129580000Y-91920000D02*
X125700001Y-95799999D01*
X125700001Y-99299999D02*
X118500000Y-106500000D01*
X118500000Y-106500000D02*
X118500000Y-118250000D01*
X118500000Y-118250000D02*
X119500000Y-119250000D01*
X122250000Y-119250000D02*
X126000000Y-115500000D01*
X119500000Y-119250000D02*
X122250000Y-119250000D01*
%TO.N,/GPIO_0*%
X121000000Y-115500000D02*
X121000000Y-105750000D01*
X128379999Y-98370001D02*
X128379999Y-95620001D01*
X121000000Y-105750000D02*
X128379999Y-98370001D01*
X132120000Y-91880000D02*
X132120000Y-89630000D01*
X128379999Y-95620001D02*
X132120000Y-91880000D01*
%TO.N,/SCK*%
X147360000Y-89630000D02*
X147360000Y-85140000D01*
X150999999Y-83460001D02*
X152250000Y-82210000D01*
X149039999Y-83460001D02*
X150999999Y-83460001D01*
X147360000Y-85140000D02*
X149039999Y-83460001D01*
%TO.N,/SDI*%
X152250000Y-84750000D02*
X152250000Y-86250000D01*
X149900000Y-88600000D02*
X149900000Y-89630000D01*
X152250000Y-86250000D02*
X149900000Y-88600000D01*
D25*
%TO.N,Net-(J5-Pad2)*%
X107000000Y-55250000D02*
X112500000Y-55250000D01*
X112500000Y-55250000D02*
X117750000Y-60500000D01*
X117750000Y-60500000D02*
X124000000Y-60500000D01*
X124000000Y-60500000D02*
X127500000Y-57000000D01*
X127500000Y-57000000D02*
X127500000Y-51250000D01*
X123840000Y-47590000D02*
X121590000Y-47590000D01*
X127500000Y-51250000D02*
X123840000Y-47590000D01*
D27*
%TO.N,Net-(J6-Pad2)*%
X166750000Y-60750000D02*
X166750000Y-59500000D01*
X166750000Y-59500000D02*
X166500000Y-59250000D01*
D26*
%TO.N,/~CS*%
X154980000Y-88020000D02*
X154980000Y-89630000D01*
X159750000Y-83250000D02*
X154980000Y-88020000D01*
X159750000Y-76500000D02*
X159750000Y-83250000D01*
%TO.N,/SD_~DET*%
X153779999Y-96049999D02*
X153779999Y-82970001D01*
X154980000Y-97250000D02*
X153779999Y-96049999D01*
X153779999Y-82970001D02*
X156000000Y-80750000D01*
%TO.N,/RTC_MFP*%
X133843037Y-86038349D02*
X120711651Y-86038349D01*
X120711651Y-86038349D02*
X119250000Y-87500000D01*
%TO.N,/TX*%
X136250000Y-92500000D02*
X138539999Y-90210001D01*
X138539999Y-86187194D02*
X159119375Y-65607818D01*
X134330000Y-92500000D02*
X136250000Y-92500000D01*
X138539999Y-90210001D02*
X138539999Y-86187194D01*
X159119375Y-65607818D02*
X161260797Y-65607818D01*
X129580000Y-97250000D02*
X134330000Y-92500000D01*
%TD*%
D28*
%TO.N,GND*%
G36*
X172340000Y-49273381D02*
G01*
X172340000Y-55323526D01*
X172202400Y-55281785D01*
X172031979Y-55265000D01*
X171068021Y-55265000D01*
X170897600Y-55281785D01*
X170678940Y-55348115D01*
X170477421Y-55455829D01*
X170300788Y-55600788D01*
X170155829Y-55777421D01*
X170048115Y-55978940D01*
X169981785Y-56197600D01*
X169959388Y-56425000D01*
X169981785Y-56652400D01*
X170048115Y-56871060D01*
X170155829Y-57072579D01*
X170300788Y-57249212D01*
X170477421Y-57394171D01*
X170678940Y-57501885D01*
X170897600Y-57568215D01*
X171068021Y-57585000D01*
X172031979Y-57585000D01*
X172202400Y-57568215D01*
X172340000Y-57526474D01*
X172340000Y-62473526D01*
X172202400Y-62431785D01*
X172031979Y-62415000D01*
X171068021Y-62415000D01*
X170897600Y-62431785D01*
X170678940Y-62498115D01*
X170477421Y-62605829D01*
X170300788Y-62750788D01*
X170155829Y-62927421D01*
X170048115Y-63128940D01*
X169981785Y-63347600D01*
X169959388Y-63575000D01*
X169981785Y-63802400D01*
X170048115Y-64021060D01*
X170155829Y-64222579D01*
X170300788Y-64399212D01*
X170477421Y-64544171D01*
X170678940Y-64651885D01*
X170897600Y-64718215D01*
X171068021Y-64735000D01*
X172031979Y-64735000D01*
X172202400Y-64718215D01*
X172340000Y-64676474D01*
X172340001Y-115726618D01*
X167726620Y-120340000D01*
X100273381Y-120340000D01*
X95713253Y-115779872D01*
X97765000Y-115779872D01*
X97765000Y-116220128D01*
X97850890Y-116651925D01*
X98019369Y-117058669D01*
X98263962Y-117424729D01*
X98575271Y-117736038D01*
X98941331Y-117980631D01*
X99348075Y-118149110D01*
X99779872Y-118235000D01*
X100220128Y-118235000D01*
X100651925Y-118149110D01*
X101058669Y-117980631D01*
X101424729Y-117736038D01*
X101736038Y-117424729D01*
X101980631Y-117058669D01*
X102149110Y-116651925D01*
X102235000Y-116220128D01*
X102235000Y-115779872D01*
X102149110Y-115348075D01*
X101980631Y-114941331D01*
X101736038Y-114575271D01*
X101424729Y-114263962D01*
X101329003Y-114200000D01*
X105561928Y-114200000D01*
X105561928Y-116800000D01*
X105574188Y-116924482D01*
X105610498Y-117044180D01*
X105669463Y-117154494D01*
X105748815Y-117251185D01*
X105845506Y-117330537D01*
X105955820Y-117389502D01*
X106075518Y-117425812D01*
X106200000Y-117438072D01*
X108800000Y-117438072D01*
X108924482Y-117425812D01*
X109044180Y-117389502D01*
X109154494Y-117330537D01*
X109251185Y-117251185D01*
X109330537Y-117154494D01*
X109389502Y-117044180D01*
X109425812Y-116924482D01*
X109438072Y-116800000D01*
X109438072Y-115309419D01*
X110565000Y-115309419D01*
X110565000Y-115690581D01*
X110639361Y-116064419D01*
X110785225Y-116416566D01*
X110996987Y-116733491D01*
X111266509Y-117003013D01*
X111583434Y-117214775D01*
X111935581Y-117360639D01*
X112309419Y-117435000D01*
X112690581Y-117435000D01*
X113064419Y-117360639D01*
X113416566Y-117214775D01*
X113733491Y-117003013D01*
X114003013Y-116733491D01*
X114214775Y-116416566D01*
X114360639Y-116064419D01*
X114435000Y-115690581D01*
X114435000Y-115309419D01*
X114360639Y-114935581D01*
X114214775Y-114583434D01*
X114003013Y-114266509D01*
X113733491Y-113996987D01*
X113416566Y-113785225D01*
X113064419Y-113639361D01*
X112690581Y-113565000D01*
X112309419Y-113565000D01*
X111935581Y-113639361D01*
X111583434Y-113785225D01*
X111266509Y-113996987D01*
X110996987Y-114266509D01*
X110785225Y-114583434D01*
X110639361Y-114935581D01*
X110565000Y-115309419D01*
X109438072Y-115309419D01*
X109438072Y-114200000D01*
X109425812Y-114075518D01*
X109389502Y-113955820D01*
X109330537Y-113845506D01*
X109251185Y-113748815D01*
X109154494Y-113669463D01*
X109044180Y-113610498D01*
X108924482Y-113574188D01*
X108800000Y-113561928D01*
X108635000Y-113561928D01*
X108635000Y-109648061D01*
X115715000Y-109648061D01*
X115715000Y-109851939D01*
X115754774Y-110051898D01*
X115832795Y-110240256D01*
X115946063Y-110409774D01*
X116090226Y-110553937D01*
X116259744Y-110667205D01*
X116448102Y-110745226D01*
X116648061Y-110785000D01*
X116851939Y-110785000D01*
X117051898Y-110745226D01*
X117240256Y-110667205D01*
X117409774Y-110553937D01*
X117553937Y-110409774D01*
X117665000Y-110243556D01*
X117665001Y-118208971D01*
X117660960Y-118250000D01*
X117677082Y-118413688D01*
X117724828Y-118571086D01*
X117802364Y-118716145D01*
X117802365Y-118716146D01*
X117906710Y-118843291D01*
X117938574Y-118869441D01*
X118880563Y-119811432D01*
X118906709Y-119843291D01*
X119033854Y-119947636D01*
X119178913Y-120025172D01*
X119336311Y-120072918D01*
X119458981Y-120085000D01*
X119458982Y-120085000D01*
X119500000Y-120089040D01*
X119541018Y-120085000D01*
X122208982Y-120085000D01*
X122250000Y-120089040D01*
X122291018Y-120085000D01*
X122291019Y-120085000D01*
X122413689Y-120072918D01*
X122571087Y-120025172D01*
X122716146Y-119947636D01*
X122843291Y-119843291D01*
X122869446Y-119811421D01*
X125354015Y-117326853D01*
X125435581Y-117360639D01*
X125809419Y-117435000D01*
X126190581Y-117435000D01*
X126564419Y-117360639D01*
X126916566Y-117214775D01*
X127233491Y-117003013D01*
X127503013Y-116733491D01*
X127714775Y-116416566D01*
X127860639Y-116064419D01*
X127935000Y-115690581D01*
X127935000Y-115309419D01*
X129065000Y-115309419D01*
X129065000Y-115690581D01*
X129139361Y-116064419D01*
X129285225Y-116416566D01*
X129496987Y-116733491D01*
X129766509Y-117003013D01*
X130083434Y-117214775D01*
X130435581Y-117360639D01*
X130809419Y-117435000D01*
X131190581Y-117435000D01*
X131564419Y-117360639D01*
X131916566Y-117214775D01*
X132233491Y-117003013D01*
X132503013Y-116733491D01*
X132714775Y-116416566D01*
X132860639Y-116064419D01*
X132935000Y-115690581D01*
X132935000Y-115309419D01*
X134065000Y-115309419D01*
X134065000Y-115690581D01*
X134139361Y-116064419D01*
X134285225Y-116416566D01*
X134496987Y-116733491D01*
X134766509Y-117003013D01*
X135083434Y-117214775D01*
X135435581Y-117360639D01*
X135809419Y-117435000D01*
X136190581Y-117435000D01*
X136564419Y-117360639D01*
X136916566Y-117214775D01*
X137233491Y-117003013D01*
X137503013Y-116733491D01*
X137714775Y-116416566D01*
X137860639Y-116064419D01*
X137935000Y-115690581D01*
X137935000Y-115309419D01*
X137860639Y-114935581D01*
X137714775Y-114583434D01*
X137503013Y-114266509D01*
X137436504Y-114200000D01*
X142561928Y-114200000D01*
X142561928Y-116800000D01*
X142574188Y-116924482D01*
X142610498Y-117044180D01*
X142669463Y-117154494D01*
X142748815Y-117251185D01*
X142845506Y-117330537D01*
X142955820Y-117389502D01*
X143075518Y-117425812D01*
X143200000Y-117438072D01*
X145800000Y-117438072D01*
X145924482Y-117425812D01*
X146044180Y-117389502D01*
X146154494Y-117330537D01*
X146251185Y-117251185D01*
X146330537Y-117154494D01*
X146389502Y-117044180D01*
X146425812Y-116924482D01*
X146438072Y-116800000D01*
X146438072Y-115309419D01*
X147565000Y-115309419D01*
X147565000Y-115690581D01*
X147639361Y-116064419D01*
X147785225Y-116416566D01*
X147996987Y-116733491D01*
X148266509Y-117003013D01*
X148583434Y-117214775D01*
X148935581Y-117360639D01*
X149309419Y-117435000D01*
X149690581Y-117435000D01*
X150064419Y-117360639D01*
X150416566Y-117214775D01*
X150733491Y-117003013D01*
X151003013Y-116733491D01*
X151214775Y-116416566D01*
X151360639Y-116064419D01*
X151435000Y-115690581D01*
X151435000Y-115309419D01*
X152565000Y-115309419D01*
X152565000Y-115690581D01*
X152639361Y-116064419D01*
X152785225Y-116416566D01*
X152996987Y-116733491D01*
X153266509Y-117003013D01*
X153583434Y-117214775D01*
X153935581Y-117360639D01*
X154309419Y-117435000D01*
X154690581Y-117435000D01*
X155064419Y-117360639D01*
X155416566Y-117214775D01*
X155733491Y-117003013D01*
X156003013Y-116733491D01*
X156214775Y-116416566D01*
X156360639Y-116064419D01*
X156435000Y-115690581D01*
X156435000Y-115309419D01*
X157565000Y-115309419D01*
X157565000Y-115690581D01*
X157639361Y-116064419D01*
X157785225Y-116416566D01*
X157996987Y-116733491D01*
X158266509Y-117003013D01*
X158583434Y-117214775D01*
X158935581Y-117360639D01*
X159309419Y-117435000D01*
X159690581Y-117435000D01*
X160064419Y-117360639D01*
X160416566Y-117214775D01*
X160733491Y-117003013D01*
X161003013Y-116733491D01*
X161214775Y-116416566D01*
X161360639Y-116064419D01*
X161417238Y-115779872D01*
X165765000Y-115779872D01*
X165765000Y-116220128D01*
X165850890Y-116651925D01*
X166019369Y-117058669D01*
X166263962Y-117424729D01*
X166575271Y-117736038D01*
X166941331Y-117980631D01*
X167348075Y-118149110D01*
X167779872Y-118235000D01*
X168220128Y-118235000D01*
X168651925Y-118149110D01*
X169058669Y-117980631D01*
X169424729Y-117736038D01*
X169736038Y-117424729D01*
X169980631Y-117058669D01*
X170149110Y-116651925D01*
X170235000Y-116220128D01*
X170235000Y-115779872D01*
X170149110Y-115348075D01*
X169980631Y-114941331D01*
X169736038Y-114575271D01*
X169424729Y-114263962D01*
X169058669Y-114019369D01*
X168651925Y-113850890D01*
X168220128Y-113765000D01*
X167779872Y-113765000D01*
X167348075Y-113850890D01*
X166941331Y-114019369D01*
X166575271Y-114263962D01*
X166263962Y-114575271D01*
X166019369Y-114941331D01*
X165850890Y-115348075D01*
X165765000Y-115779872D01*
X161417238Y-115779872D01*
X161435000Y-115690581D01*
X161435000Y-115309419D01*
X161360639Y-114935581D01*
X161214775Y-114583434D01*
X161003013Y-114266509D01*
X160733491Y-113996987D01*
X160416566Y-113785225D01*
X160064419Y-113639361D01*
X159690581Y-113565000D01*
X159309419Y-113565000D01*
X158935581Y-113639361D01*
X158583434Y-113785225D01*
X158266509Y-113996987D01*
X157996987Y-114266509D01*
X157785225Y-114583434D01*
X157639361Y-114935581D01*
X157565000Y-115309419D01*
X156435000Y-115309419D01*
X156360639Y-114935581D01*
X156214775Y-114583434D01*
X156003013Y-114266509D01*
X155733491Y-113996987D01*
X155416566Y-113785225D01*
X155064419Y-113639361D01*
X154690581Y-113565000D01*
X154309419Y-113565000D01*
X153935581Y-113639361D01*
X153583434Y-113785225D01*
X153266509Y-113996987D01*
X152996987Y-114266509D01*
X152785225Y-114583434D01*
X152639361Y-114935581D01*
X152565000Y-115309419D01*
X151435000Y-115309419D01*
X151360639Y-114935581D01*
X151214775Y-114583434D01*
X151003013Y-114266509D01*
X150733491Y-113996987D01*
X150416566Y-113785225D01*
X150064419Y-113639361D01*
X149690581Y-113565000D01*
X149309419Y-113565000D01*
X148935581Y-113639361D01*
X148583434Y-113785225D01*
X148266509Y-113996987D01*
X147996987Y-114266509D01*
X147785225Y-114583434D01*
X147639361Y-114935581D01*
X147565000Y-115309419D01*
X146438072Y-115309419D01*
X146438072Y-114200000D01*
X146425812Y-114075518D01*
X146389502Y-113955820D01*
X146330537Y-113845506D01*
X146251185Y-113748815D01*
X146154494Y-113669463D01*
X146044180Y-113610498D01*
X145924482Y-113574188D01*
X145800000Y-113561928D01*
X143200000Y-113561928D01*
X143075518Y-113574188D01*
X142955820Y-113610498D01*
X142845506Y-113669463D01*
X142748815Y-113748815D01*
X142669463Y-113845506D01*
X142610498Y-113955820D01*
X142574188Y-114075518D01*
X142561928Y-114200000D01*
X137436504Y-114200000D01*
X137233491Y-113996987D01*
X136916566Y-113785225D01*
X136564419Y-113639361D01*
X136190581Y-113565000D01*
X135809419Y-113565000D01*
X135435581Y-113639361D01*
X135083434Y-113785225D01*
X134766509Y-113996987D01*
X134496987Y-114266509D01*
X134285225Y-114583434D01*
X134139361Y-114935581D01*
X134065000Y-115309419D01*
X132935000Y-115309419D01*
X132860639Y-114935581D01*
X132714775Y-114583434D01*
X132503013Y-114266509D01*
X132233491Y-113996987D01*
X131916566Y-113785225D01*
X131835000Y-113751439D01*
X131835000Y-111041018D01*
X131839040Y-111000000D01*
X131822918Y-110836312D01*
X131818300Y-110821086D01*
X131775172Y-110678913D01*
X131697636Y-110533854D01*
X131593291Y-110406709D01*
X131561426Y-110380558D01*
X131524092Y-110343225D01*
X131495226Y-110198102D01*
X131417205Y-110009744D01*
X131303937Y-109840226D01*
X131159774Y-109696063D01*
X130990256Y-109582795D01*
X130801898Y-109504774D01*
X130601939Y-109465000D01*
X130398061Y-109465000D01*
X130198102Y-109504774D01*
X130009744Y-109582795D01*
X129840226Y-109696063D01*
X129696063Y-109840226D01*
X129582795Y-110009744D01*
X129504774Y-110198102D01*
X129465000Y-110398061D01*
X129465000Y-110601939D01*
X129504774Y-110801898D01*
X129582795Y-110990256D01*
X129696063Y-111159774D01*
X129840226Y-111303937D01*
X130009744Y-111417205D01*
X130165001Y-111481515D01*
X130165000Y-113751439D01*
X130083434Y-113785225D01*
X129766509Y-113996987D01*
X129496987Y-114266509D01*
X129285225Y-114583434D01*
X129139361Y-114935581D01*
X129065000Y-115309419D01*
X127935000Y-115309419D01*
X127860639Y-114935581D01*
X127714775Y-114583434D01*
X127503013Y-114266509D01*
X127233491Y-113996987D01*
X126916566Y-113785225D01*
X126564419Y-113639361D01*
X126190581Y-113565000D01*
X125809419Y-113565000D01*
X125435581Y-113639361D01*
X125083434Y-113785225D01*
X124766509Y-113996987D01*
X124496987Y-114266509D01*
X124285225Y-114583434D01*
X124139361Y-114935581D01*
X124065000Y-115309419D01*
X124065000Y-115690581D01*
X124139361Y-116064419D01*
X124173147Y-116145985D01*
X121904133Y-118415000D01*
X119845868Y-118415000D01*
X119335000Y-117904132D01*
X119335000Y-117321915D01*
X119345506Y-117330537D01*
X119455820Y-117389502D01*
X119575518Y-117425812D01*
X119700000Y-117438072D01*
X122300000Y-117438072D01*
X122424482Y-117425812D01*
X122544180Y-117389502D01*
X122654494Y-117330537D01*
X122751185Y-117251185D01*
X122830537Y-117154494D01*
X122889502Y-117044180D01*
X122925812Y-116924482D01*
X122938072Y-116800000D01*
X122938072Y-114200000D01*
X122925812Y-114075518D01*
X122889502Y-113955820D01*
X122830537Y-113845506D01*
X122751185Y-113748815D01*
X122654494Y-113669463D01*
X122544180Y-113610498D01*
X122424482Y-113574188D01*
X122300000Y-113561928D01*
X121835000Y-113561928D01*
X121835000Y-106095867D01*
X128941432Y-98989437D01*
X128973290Y-98963292D01*
X129077635Y-98836147D01*
X129155171Y-98691088D01*
X129173045Y-98632164D01*
X129438665Y-98685000D01*
X129721335Y-98685000D01*
X129998574Y-98629853D01*
X130259727Y-98521680D01*
X130494759Y-98364637D01*
X130694637Y-98164759D01*
X130850000Y-97932241D01*
X131005363Y-98164759D01*
X131205241Y-98364637D01*
X131440273Y-98521680D01*
X131701426Y-98629853D01*
X131978665Y-98685000D01*
X132261335Y-98685000D01*
X132538574Y-98629853D01*
X132799727Y-98521680D01*
X133034759Y-98364637D01*
X133234637Y-98164759D01*
X133390000Y-97932241D01*
X133545363Y-98164759D01*
X133745241Y-98364637D01*
X133980273Y-98521680D01*
X134241426Y-98629853D01*
X134518665Y-98685000D01*
X134801335Y-98685000D01*
X135078574Y-98629853D01*
X135339727Y-98521680D01*
X135574759Y-98364637D01*
X135774637Y-98164759D01*
X135930000Y-97932241D01*
X136085363Y-98164759D01*
X136285241Y-98364637D01*
X136520273Y-98521680D01*
X136781426Y-98629853D01*
X137058665Y-98685000D01*
X137341335Y-98685000D01*
X137394758Y-98674373D01*
X135654133Y-100415000D01*
X129841018Y-100415000D01*
X129800000Y-100410960D01*
X129758982Y-100415000D01*
X129758981Y-100415000D01*
X129636311Y-100427082D01*
X129478913Y-100474828D01*
X129333854Y-100552364D01*
X129206709Y-100656709D01*
X129180563Y-100688568D01*
X127205504Y-102663628D01*
X126961033Y-102615000D01*
X126638967Y-102615000D01*
X126323088Y-102677832D01*
X126025537Y-102801082D01*
X125757748Y-102980013D01*
X125530013Y-103207748D01*
X125351082Y-103475537D01*
X125227832Y-103773088D01*
X125165000Y-104088967D01*
X125165000Y-104411033D01*
X125227832Y-104726912D01*
X125351082Y-105024463D01*
X125530013Y-105292252D01*
X125757748Y-105519987D01*
X126025537Y-105698918D01*
X126323088Y-105822168D01*
X126638967Y-105885000D01*
X126961033Y-105885000D01*
X127276912Y-105822168D01*
X127574463Y-105698918D01*
X127842252Y-105519987D01*
X127976826Y-105385413D01*
X132244192Y-105385413D01*
X132339956Y-105649814D01*
X132629571Y-105790704D01*
X132941108Y-105872384D01*
X133262595Y-105891718D01*
X133581675Y-105847961D01*
X133886088Y-105742795D01*
X134060044Y-105649814D01*
X134155808Y-105385413D01*
X133200000Y-104429605D01*
X132244192Y-105385413D01*
X127976826Y-105385413D01*
X128069987Y-105292252D01*
X128248918Y-105024463D01*
X128372168Y-104726912D01*
X128435000Y-104411033D01*
X128435000Y-104312595D01*
X131558282Y-104312595D01*
X131602039Y-104631675D01*
X131707205Y-104936088D01*
X131800186Y-105110044D01*
X132064587Y-105205808D01*
X133020395Y-104250000D01*
X133379605Y-104250000D01*
X134335413Y-105205808D01*
X134599814Y-105110044D01*
X134740704Y-104820429D01*
X134772278Y-104700000D01*
X165561928Y-104700000D01*
X165561928Y-107300000D01*
X165574188Y-107424482D01*
X165610498Y-107544180D01*
X165669463Y-107654494D01*
X165748815Y-107751185D01*
X165845506Y-107830537D01*
X165955820Y-107889502D01*
X166075518Y-107925812D01*
X166200000Y-107938072D01*
X168800000Y-107938072D01*
X168924482Y-107925812D01*
X169044180Y-107889502D01*
X169154494Y-107830537D01*
X169251185Y-107751185D01*
X169330537Y-107654494D01*
X169389502Y-107544180D01*
X169425812Y-107424482D01*
X169438072Y-107300000D01*
X169438072Y-104700000D01*
X169425812Y-104575518D01*
X169389502Y-104455820D01*
X169330537Y-104345506D01*
X169251185Y-104248815D01*
X169154494Y-104169463D01*
X169044180Y-104110498D01*
X168924482Y-104074188D01*
X168800000Y-104061928D01*
X166200000Y-104061928D01*
X166075518Y-104074188D01*
X165955820Y-104110498D01*
X165845506Y-104169463D01*
X165748815Y-104248815D01*
X165669463Y-104345506D01*
X165610498Y-104455820D01*
X165574188Y-104575518D01*
X165561928Y-104700000D01*
X134772278Y-104700000D01*
X134822384Y-104508892D01*
X134841718Y-104187405D01*
X134797961Y-103868325D01*
X134692795Y-103563912D01*
X134599814Y-103389956D01*
X134335413Y-103294192D01*
X133379605Y-104250000D01*
X133020395Y-104250000D01*
X132064587Y-103294192D01*
X131800186Y-103389956D01*
X131659296Y-103679571D01*
X131577616Y-103991108D01*
X131558282Y-104312595D01*
X128435000Y-104312595D01*
X128435000Y-104088967D01*
X128386372Y-103844496D01*
X129116281Y-103114587D01*
X132244192Y-103114587D01*
X133200000Y-104070395D01*
X134155808Y-103114587D01*
X134155447Y-103113589D01*
X142615000Y-103113589D01*
X142615000Y-103386411D01*
X142668225Y-103653989D01*
X142772629Y-103906043D01*
X142924201Y-104132886D01*
X143117114Y-104325799D01*
X143343957Y-104477371D01*
X143596011Y-104581775D01*
X143863589Y-104635000D01*
X144136411Y-104635000D01*
X144403989Y-104581775D01*
X144656043Y-104477371D01*
X144882886Y-104325799D01*
X145075799Y-104132886D01*
X145227371Y-103906043D01*
X145331775Y-103653989D01*
X145385000Y-103386411D01*
X145385000Y-103113589D01*
X147495000Y-103113589D01*
X147495000Y-103386411D01*
X147548225Y-103653989D01*
X147652629Y-103906043D01*
X147804201Y-104132886D01*
X147997114Y-104325799D01*
X148223957Y-104477371D01*
X148476011Y-104581775D01*
X148743589Y-104635000D01*
X149016411Y-104635000D01*
X149283989Y-104581775D01*
X149536043Y-104477371D01*
X149762886Y-104325799D01*
X149955799Y-104132886D01*
X150107371Y-103906043D01*
X150211775Y-103653989D01*
X150265000Y-103386411D01*
X150265000Y-103113589D01*
X150211775Y-102846011D01*
X150107371Y-102593957D01*
X149955799Y-102367114D01*
X149762886Y-102174201D01*
X149536043Y-102022629D01*
X149283989Y-101918225D01*
X149016411Y-101865000D01*
X148743589Y-101865000D01*
X148476011Y-101918225D01*
X148223957Y-102022629D01*
X147997114Y-102174201D01*
X147804201Y-102367114D01*
X147652629Y-102593957D01*
X147548225Y-102846011D01*
X147495000Y-103113589D01*
X145385000Y-103113589D01*
X145331775Y-102846011D01*
X145227371Y-102593957D01*
X145075799Y-102367114D01*
X144882886Y-102174201D01*
X144656043Y-102022629D01*
X144403989Y-101918225D01*
X144136411Y-101865000D01*
X143863589Y-101865000D01*
X143596011Y-101918225D01*
X143343957Y-102022629D01*
X143117114Y-102174201D01*
X142924201Y-102367114D01*
X142772629Y-102593957D01*
X142668225Y-102846011D01*
X142615000Y-103113589D01*
X134155447Y-103113589D01*
X134060044Y-102850186D01*
X133770429Y-102709296D01*
X133458892Y-102627616D01*
X133137405Y-102608282D01*
X132818325Y-102652039D01*
X132513912Y-102757205D01*
X132339956Y-102850186D01*
X132244192Y-103114587D01*
X129116281Y-103114587D01*
X130145869Y-102085000D01*
X135958982Y-102085000D01*
X136000000Y-102089040D01*
X136041018Y-102085000D01*
X136041019Y-102085000D01*
X136163689Y-102072918D01*
X136321087Y-102025172D01*
X136466146Y-101947636D01*
X136593291Y-101843291D01*
X136619446Y-101811421D01*
X138961433Y-99469436D01*
X138993292Y-99443290D01*
X139097637Y-99316145D01*
X139175173Y-99171086D01*
X139222919Y-99013688D01*
X139235001Y-98891018D01*
X139239041Y-98849999D01*
X139235001Y-98808981D01*
X139235001Y-98594055D01*
X139321426Y-98629853D01*
X139598665Y-98685000D01*
X139881335Y-98685000D01*
X140158574Y-98629853D01*
X140419727Y-98521680D01*
X140654759Y-98364637D01*
X140854637Y-98164759D01*
X141011680Y-97929727D01*
X141016067Y-97919135D01*
X141127615Y-98105131D01*
X141316586Y-98313519D01*
X141542580Y-98481037D01*
X141796913Y-98601246D01*
X141930961Y-98641904D01*
X142153000Y-98519915D01*
X142153000Y-97377000D01*
X142133000Y-97377000D01*
X142133000Y-97123000D01*
X142153000Y-97123000D01*
X142153000Y-97103000D01*
X142407000Y-97103000D01*
X142407000Y-97123000D01*
X142427000Y-97123000D01*
X142427000Y-97377000D01*
X142407000Y-97377000D01*
X142407000Y-98519915D01*
X142629039Y-98641904D01*
X142763087Y-98601246D01*
X143017420Y-98481037D01*
X143243414Y-98313519D01*
X143432385Y-98105131D01*
X143543933Y-97919135D01*
X143548320Y-97929727D01*
X143705363Y-98164759D01*
X143905241Y-98364637D01*
X144140273Y-98521680D01*
X144401426Y-98629853D01*
X144678665Y-98685000D01*
X144961335Y-98685000D01*
X145238574Y-98629853D01*
X145499727Y-98521680D01*
X145734759Y-98364637D01*
X145934637Y-98164759D01*
X146090000Y-97932241D01*
X146245363Y-98164759D01*
X146445241Y-98364637D01*
X146680273Y-98521680D01*
X146941426Y-98629853D01*
X147218665Y-98685000D01*
X147501335Y-98685000D01*
X147778574Y-98629853D01*
X148039727Y-98521680D01*
X148274759Y-98364637D01*
X148474637Y-98164759D01*
X148630000Y-97932241D01*
X148785363Y-98164759D01*
X148985241Y-98364637D01*
X149220273Y-98521680D01*
X149481426Y-98629853D01*
X149758665Y-98685000D01*
X150041335Y-98685000D01*
X150318574Y-98629853D01*
X150579727Y-98521680D01*
X150814759Y-98364637D01*
X151014637Y-98164759D01*
X151170000Y-97932241D01*
X151325363Y-98164759D01*
X151525241Y-98364637D01*
X151760273Y-98521680D01*
X152021426Y-98629853D01*
X152298665Y-98685000D01*
X152581335Y-98685000D01*
X152858574Y-98629853D01*
X153119727Y-98521680D01*
X153354759Y-98364637D01*
X153554637Y-98164759D01*
X153710000Y-97932241D01*
X153865363Y-98164759D01*
X154065241Y-98364637D01*
X154300273Y-98521680D01*
X154561426Y-98629853D01*
X154838665Y-98685000D01*
X155121335Y-98685000D01*
X155398574Y-98629853D01*
X155659727Y-98521680D01*
X155894759Y-98364637D01*
X156094637Y-98164759D01*
X156250000Y-97932241D01*
X156405363Y-98164759D01*
X156605241Y-98364637D01*
X156840273Y-98521680D01*
X157101426Y-98629853D01*
X157378665Y-98685000D01*
X157661335Y-98685000D01*
X157938574Y-98629853D01*
X158199727Y-98521680D01*
X158434759Y-98364637D01*
X158634637Y-98164759D01*
X158791680Y-97929727D01*
X158899853Y-97668574D01*
X158955000Y-97391335D01*
X158955000Y-97108665D01*
X158899853Y-96831426D01*
X158791680Y-96570273D01*
X158634637Y-96335241D01*
X158434759Y-96135363D01*
X158199727Y-95978320D01*
X157938574Y-95870147D01*
X157661335Y-95815000D01*
X157378665Y-95815000D01*
X157101426Y-95870147D01*
X156840273Y-95978320D01*
X156605241Y-96135363D01*
X156405363Y-96335241D01*
X156250000Y-96567759D01*
X156094637Y-96335241D01*
X155894759Y-96135363D01*
X155659727Y-95978320D01*
X155398574Y-95870147D01*
X155121335Y-95815000D01*
X154838665Y-95815000D01*
X154744582Y-95833714D01*
X154614999Y-95704132D01*
X154614999Y-91020509D01*
X154838665Y-91065000D01*
X155121335Y-91065000D01*
X155398574Y-91009853D01*
X155659727Y-90901680D01*
X155894759Y-90744637D01*
X156094637Y-90544759D01*
X156250000Y-90312241D01*
X156405363Y-90544759D01*
X156605241Y-90744637D01*
X156840273Y-90901680D01*
X157101426Y-91009853D01*
X157378665Y-91065000D01*
X157661335Y-91065000D01*
X157938574Y-91009853D01*
X158199727Y-90901680D01*
X158434759Y-90744637D01*
X158634637Y-90544759D01*
X158791680Y-90309727D01*
X158899853Y-90048574D01*
X158955000Y-89771335D01*
X158955000Y-89488665D01*
X158899853Y-89211426D01*
X158791680Y-88950273D01*
X158634637Y-88715241D01*
X158434759Y-88515363D01*
X158199727Y-88358320D01*
X157938574Y-88250147D01*
X157661335Y-88195000D01*
X157378665Y-88195000D01*
X157101426Y-88250147D01*
X156840273Y-88358320D01*
X156605241Y-88515363D01*
X156405363Y-88715241D01*
X156250000Y-88947759D01*
X156094637Y-88715241D01*
X155894759Y-88515363D01*
X155815000Y-88462070D01*
X155815000Y-88365867D01*
X160311432Y-83869437D01*
X160343291Y-83843291D01*
X160371400Y-83809041D01*
X160447636Y-83716146D01*
X160525172Y-83571087D01*
X160558869Y-83460001D01*
X160572918Y-83413689D01*
X160585000Y-83291019D01*
X160585000Y-83291018D01*
X160589040Y-83250000D01*
X160585000Y-83208982D01*
X160585000Y-77113285D01*
X160667205Y-76990256D01*
X160745226Y-76801898D01*
X160785000Y-76601939D01*
X160785000Y-76398061D01*
X160745226Y-76198102D01*
X160667205Y-76009744D01*
X160553937Y-75840226D01*
X160409774Y-75696063D01*
X160240256Y-75582795D01*
X160051898Y-75504774D01*
X159851939Y-75465000D01*
X159648061Y-75465000D01*
X159448102Y-75504774D01*
X159259744Y-75582795D01*
X159090226Y-75696063D01*
X158946063Y-75840226D01*
X158832795Y-76009744D01*
X158754774Y-76198102D01*
X158715000Y-76398061D01*
X158715000Y-76601939D01*
X158754774Y-76801898D01*
X158832795Y-76990256D01*
X158915000Y-77113285D01*
X158915001Y-82904130D01*
X154614999Y-87204134D01*
X154614999Y-83315868D01*
X156156776Y-81774092D01*
X156301898Y-81745226D01*
X156490256Y-81667205D01*
X156659774Y-81553937D01*
X156803937Y-81409774D01*
X156917205Y-81240256D01*
X156995226Y-81051898D01*
X157035000Y-80851939D01*
X157035000Y-80648061D01*
X156995226Y-80448102D01*
X156917205Y-80259744D01*
X156803937Y-80090226D01*
X156659774Y-79946063D01*
X156490256Y-79832795D01*
X156301898Y-79754774D01*
X156101939Y-79715000D01*
X155898061Y-79715000D01*
X155698102Y-79754774D01*
X155509744Y-79832795D01*
X155340226Y-79946063D01*
X155196063Y-80090226D01*
X155082795Y-80259744D01*
X155004774Y-80448102D01*
X154975908Y-80593224D01*
X153696905Y-81872227D01*
X153677932Y-81776842D01*
X153565990Y-81506589D01*
X153403475Y-81263368D01*
X153196632Y-81056525D01*
X153022240Y-80940000D01*
X153196632Y-80823475D01*
X153403475Y-80616632D01*
X153565990Y-80373411D01*
X153677932Y-80103158D01*
X153735000Y-79816260D01*
X153735000Y-79523740D01*
X153677932Y-79236842D01*
X153565990Y-78966589D01*
X153403475Y-78723368D01*
X153196632Y-78516525D01*
X152953411Y-78354010D01*
X152683158Y-78242068D01*
X152396260Y-78185000D01*
X152103740Y-78185000D01*
X151816842Y-78242068D01*
X151546589Y-78354010D01*
X151303368Y-78516525D01*
X151096525Y-78723368D01*
X150978900Y-78899406D01*
X150807588Y-78669731D01*
X150591355Y-78474822D01*
X150341252Y-78325843D01*
X150066891Y-78228519D01*
X149837002Y-78349185D01*
X149837002Y-78311120D01*
X157763123Y-70385000D01*
X161365000Y-70385000D01*
X161365001Y-78444248D01*
X161365000Y-85305751D01*
X161365001Y-85305761D01*
X161365000Y-95944248D01*
X161359509Y-96000000D01*
X161365000Y-96055751D01*
X161381423Y-96222498D01*
X161446324Y-96436446D01*
X161551716Y-96633623D01*
X161693551Y-96806449D01*
X161736865Y-96841996D01*
X165588109Y-100693241D01*
X165565000Y-100809419D01*
X165565000Y-101190581D01*
X165639361Y-101564419D01*
X165785225Y-101916566D01*
X165996987Y-102233491D01*
X166266509Y-102503013D01*
X166583434Y-102714775D01*
X166935581Y-102860639D01*
X167309419Y-102935000D01*
X167690581Y-102935000D01*
X168064419Y-102860639D01*
X168416566Y-102714775D01*
X168733491Y-102503013D01*
X169003013Y-102233491D01*
X169214775Y-101916566D01*
X169360639Y-101564419D01*
X169435000Y-101190581D01*
X169435000Y-100809419D01*
X169360639Y-100435581D01*
X169214775Y-100083434D01*
X169003013Y-99766509D01*
X168733491Y-99496987D01*
X168416566Y-99285225D01*
X168064419Y-99139361D01*
X167690581Y-99065000D01*
X167309419Y-99065000D01*
X167193241Y-99088109D01*
X165454356Y-97349224D01*
X166330381Y-97349224D01*
X166462317Y-97644312D01*
X166803045Y-97815159D01*
X167170557Y-97916250D01*
X167550729Y-97943701D01*
X167928951Y-97896457D01*
X168290690Y-97776333D01*
X168537683Y-97644312D01*
X168669619Y-97349224D01*
X167500000Y-96179605D01*
X166330381Y-97349224D01*
X165454356Y-97349224D01*
X164155861Y-96050729D01*
X165556299Y-96050729D01*
X165603543Y-96428951D01*
X165723667Y-96790690D01*
X165855688Y-97037683D01*
X166150776Y-97169619D01*
X167320395Y-96000000D01*
X167679605Y-96000000D01*
X168849224Y-97169619D01*
X169144312Y-97037683D01*
X169315159Y-96696955D01*
X169416250Y-96329443D01*
X169443701Y-95949271D01*
X169396457Y-95571049D01*
X169276333Y-95209310D01*
X169144312Y-94962317D01*
X168849224Y-94830381D01*
X167679605Y-96000000D01*
X167320395Y-96000000D01*
X166150776Y-94830381D01*
X165855688Y-94962317D01*
X165684841Y-95303045D01*
X165583750Y-95670557D01*
X165556299Y-96050729D01*
X164155861Y-96050729D01*
X163635000Y-95529869D01*
X163635000Y-94650776D01*
X166330381Y-94650776D01*
X167500000Y-95820395D01*
X168669619Y-94650776D01*
X168537683Y-94355688D01*
X168196955Y-94184841D01*
X167829443Y-94083750D01*
X167449271Y-94056299D01*
X167071049Y-94103543D01*
X166709310Y-94223667D01*
X166462317Y-94355688D01*
X166330381Y-94650776D01*
X163635000Y-94650776D01*
X163635000Y-92349224D01*
X166330381Y-92349224D01*
X166462317Y-92644312D01*
X166803045Y-92815159D01*
X167170557Y-92916250D01*
X167550729Y-92943701D01*
X167928951Y-92896457D01*
X168290690Y-92776333D01*
X168537683Y-92644312D01*
X168669619Y-92349224D01*
X167500000Y-91179605D01*
X166330381Y-92349224D01*
X163635000Y-92349224D01*
X163635000Y-91050729D01*
X165556299Y-91050729D01*
X165603543Y-91428951D01*
X165723667Y-91790690D01*
X165855688Y-92037683D01*
X166150776Y-92169619D01*
X167320395Y-91000000D01*
X167679605Y-91000000D01*
X168849224Y-92169619D01*
X169144312Y-92037683D01*
X169315159Y-91696955D01*
X169416250Y-91329443D01*
X169443701Y-90949271D01*
X169396457Y-90571049D01*
X169276333Y-90209310D01*
X169144312Y-89962317D01*
X168849224Y-89830381D01*
X167679605Y-91000000D01*
X167320395Y-91000000D01*
X166150776Y-89830381D01*
X165855688Y-89962317D01*
X165684841Y-90303045D01*
X165583750Y-90670557D01*
X165556299Y-91050729D01*
X163635000Y-91050729D01*
X163635000Y-89650776D01*
X166330381Y-89650776D01*
X167500000Y-90820395D01*
X168669619Y-89650776D01*
X168537683Y-89355688D01*
X168196955Y-89184841D01*
X167829443Y-89083750D01*
X167449271Y-89056299D01*
X167071049Y-89103543D01*
X166709310Y-89223667D01*
X166462317Y-89355688D01*
X166330381Y-89650776D01*
X163635000Y-89650776D01*
X163635000Y-69724052D01*
X163656450Y-69706448D01*
X163798285Y-69533622D01*
X163903677Y-69336446D01*
X163960207Y-69150092D01*
X163968578Y-69122499D01*
X163971658Y-69091225D01*
X163985001Y-68955751D01*
X163985001Y-68955744D01*
X163990491Y-68900000D01*
X163985001Y-68844256D01*
X163985001Y-64018321D01*
X163990492Y-63962569D01*
X163978057Y-63836311D01*
X163968578Y-63740070D01*
X163953716Y-63691077D01*
X163953716Y-62558848D01*
X164158009Y-62763141D01*
X164193551Y-62806449D01*
X164366377Y-62948284D01*
X164563553Y-63053676D01*
X164777501Y-63118577D01*
X165000000Y-63140491D01*
X165055751Y-63135000D01*
X166805752Y-63135000D01*
X166972499Y-63118577D01*
X167186447Y-63053676D01*
X167383623Y-62948284D01*
X167556449Y-62806449D01*
X167698284Y-62633623D01*
X167803676Y-62436447D01*
X167868577Y-62222499D01*
X167890491Y-62000000D01*
X167868577Y-61777501D01*
X167803676Y-61563553D01*
X167698284Y-61366377D01*
X167634701Y-61288901D01*
X167667205Y-61240256D01*
X167745226Y-61051898D01*
X167785000Y-60851939D01*
X167785000Y-60648061D01*
X167745226Y-60448102D01*
X167667205Y-60259744D01*
X167553937Y-60090226D01*
X167510000Y-60046289D01*
X167510000Y-59537322D01*
X167513676Y-59499999D01*
X167510985Y-59472673D01*
X167535000Y-59351939D01*
X167535000Y-59148061D01*
X167495226Y-58948102D01*
X167417205Y-58759744D01*
X167303937Y-58590226D01*
X167159774Y-58446063D01*
X166990256Y-58332795D01*
X166801898Y-58254774D01*
X166601939Y-58215000D01*
X166398061Y-58215000D01*
X166198102Y-58254774D01*
X166009744Y-58332795D01*
X165840226Y-58446063D01*
X165696063Y-58590226D01*
X165582795Y-58759744D01*
X165504774Y-58948102D01*
X165465000Y-59148061D01*
X165465000Y-59351939D01*
X165504774Y-59551898D01*
X165582795Y-59740256D01*
X165696063Y-59909774D01*
X165840226Y-60053937D01*
X165930159Y-60114028D01*
X165832795Y-60259744D01*
X165754774Y-60448102D01*
X165715000Y-60648061D01*
X165715000Y-60851939D01*
X165717598Y-60865000D01*
X165470132Y-60865000D01*
X163341996Y-58736865D01*
X163306449Y-58693551D01*
X163260000Y-58655431D01*
X163260000Y-58289781D01*
X163514781Y-58035000D01*
X163576919Y-58035000D01*
X163776878Y-57995226D01*
X163965236Y-57917205D01*
X164134754Y-57803937D01*
X164278917Y-57659774D01*
X164392185Y-57490256D01*
X164470206Y-57301898D01*
X164509980Y-57101939D01*
X164509980Y-56898061D01*
X164470206Y-56698102D01*
X164392185Y-56509744D01*
X164278917Y-56340226D01*
X164134754Y-56196063D01*
X163965236Y-56082795D01*
X163776878Y-56004774D01*
X163576919Y-55965000D01*
X163373041Y-55965000D01*
X163173082Y-56004774D01*
X162984724Y-56082795D01*
X162815206Y-56196063D01*
X162671043Y-56340226D01*
X162557775Y-56509744D01*
X162479754Y-56698102D01*
X162439980Y-56898061D01*
X162439980Y-56960199D01*
X161988998Y-57411181D01*
X161960000Y-57434979D01*
X161936202Y-57463977D01*
X161936201Y-57463978D01*
X161865026Y-57550704D01*
X161794454Y-57682734D01*
X161750998Y-57825995D01*
X161736324Y-57974980D01*
X161740001Y-58012312D01*
X161740001Y-58365000D01*
X156194248Y-58365000D01*
X156027501Y-58381423D01*
X155813553Y-58446324D01*
X155616377Y-58551716D01*
X155443551Y-58693551D01*
X155301716Y-58866377D01*
X155196324Y-59063553D01*
X155131423Y-59277501D01*
X155109509Y-59500000D01*
X155131423Y-59722499D01*
X155196324Y-59936447D01*
X155291762Y-60115000D01*
X151944248Y-60115000D01*
X151777501Y-60131423D01*
X151563553Y-60196324D01*
X151366377Y-60301716D01*
X151193551Y-60443551D01*
X151051716Y-60616377D01*
X150946324Y-60813553D01*
X150881423Y-61027501D01*
X150859509Y-61250000D01*
X150881423Y-61472499D01*
X150946324Y-61686447D01*
X151051716Y-61883623D01*
X151193551Y-62056449D01*
X151366377Y-62198284D01*
X151563553Y-62303676D01*
X151777501Y-62368577D01*
X151944248Y-62385000D01*
X161279868Y-62385000D01*
X161683716Y-62788848D01*
X161683716Y-63165000D01*
X160613285Y-63165000D01*
X160490256Y-63082795D01*
X160301898Y-63004774D01*
X160101939Y-62965000D01*
X159898061Y-62965000D01*
X159698102Y-63004774D01*
X159509744Y-63082795D01*
X159340226Y-63196063D01*
X159196063Y-63340226D01*
X159082795Y-63509744D01*
X159004774Y-63698102D01*
X158965000Y-63898061D01*
X158965000Y-64101939D01*
X159004774Y-64301898D01*
X159082795Y-64490256D01*
X159196063Y-64659774D01*
X159309107Y-64772818D01*
X159160393Y-64772818D01*
X159119375Y-64768778D01*
X159078357Y-64772818D01*
X159078356Y-64772818D01*
X158955686Y-64784900D01*
X158830357Y-64822918D01*
X158798288Y-64832646D01*
X158653229Y-64910182D01*
X158562112Y-64984960D01*
X158526084Y-65014527D01*
X158499938Y-65046386D01*
X140495424Y-83050902D01*
X140535000Y-82851939D01*
X140535000Y-82648061D01*
X140495226Y-82448102D01*
X140417205Y-82259744D01*
X140303937Y-82090226D01*
X140159774Y-81946063D01*
X139990256Y-81832795D01*
X139801898Y-81754774D01*
X139601939Y-81715000D01*
X139398061Y-81715000D01*
X139198102Y-81754774D01*
X139009744Y-81832795D01*
X138886715Y-81915000D01*
X127291018Y-81915000D01*
X127250000Y-81910960D01*
X127208982Y-81915000D01*
X127208981Y-81915000D01*
X127086311Y-81927082D01*
X126928913Y-81974828D01*
X126783854Y-82052364D01*
X126656709Y-82156709D01*
X126630563Y-82188568D01*
X125343225Y-83475907D01*
X125198102Y-83504774D01*
X125009744Y-83582795D01*
X124840226Y-83696063D01*
X124696063Y-83840226D01*
X124582795Y-84009744D01*
X124504774Y-84198102D01*
X124465000Y-84398061D01*
X124465000Y-84601939D01*
X124504774Y-84801898D01*
X124582795Y-84990256D01*
X124696063Y-85159774D01*
X124739638Y-85203349D01*
X120752669Y-85203349D01*
X120711651Y-85199309D01*
X120670633Y-85203349D01*
X120670632Y-85203349D01*
X120547962Y-85215431D01*
X120485390Y-85234412D01*
X120390564Y-85263177D01*
X120245505Y-85340713D01*
X120158615Y-85412022D01*
X120118360Y-85445058D01*
X120092214Y-85476917D01*
X119093225Y-86475907D01*
X118948102Y-86504774D01*
X118759744Y-86582795D01*
X118590226Y-86696063D01*
X118446063Y-86840226D01*
X118332795Y-87009744D01*
X118254774Y-87198102D01*
X118215000Y-87398061D01*
X118215000Y-87601939D01*
X118254774Y-87801898D01*
X118332795Y-87990256D01*
X118446063Y-88159774D01*
X118590226Y-88303937D01*
X118759744Y-88417205D01*
X118948102Y-88495226D01*
X119148061Y-88535000D01*
X119351939Y-88535000D01*
X119551898Y-88495226D01*
X119740256Y-88417205D01*
X119909774Y-88303937D01*
X120053937Y-88159774D01*
X120167205Y-87990256D01*
X120245226Y-87801898D01*
X120274093Y-87656775D01*
X121057520Y-86873349D01*
X122549279Y-86873349D01*
X116188574Y-93234055D01*
X116156710Y-93260205D01*
X116092012Y-93339040D01*
X116052364Y-93387351D01*
X115974828Y-93532410D01*
X115927082Y-93689808D01*
X115910960Y-93853496D01*
X115915001Y-93894525D01*
X115915000Y-109136715D01*
X115832795Y-109259744D01*
X115754774Y-109448102D01*
X115715000Y-109648061D01*
X108635000Y-109648061D01*
X108635000Y-84470131D01*
X114470132Y-78635000D01*
X140944249Y-78635000D01*
X141000000Y-78640491D01*
X141055751Y-78635000D01*
X141055752Y-78635000D01*
X141222499Y-78618577D01*
X141436447Y-78553676D01*
X141633623Y-78448284D01*
X141806449Y-78306449D01*
X141841996Y-78263135D01*
X145513141Y-74591991D01*
X145556449Y-74556449D01*
X145698284Y-74383623D01*
X145803676Y-74186447D01*
X145868577Y-73972499D01*
X145885000Y-73805752D01*
X145890491Y-73750000D01*
X145885000Y-73694248D01*
X145885000Y-54885413D01*
X149544192Y-54885413D01*
X149639956Y-55149814D01*
X149929571Y-55290704D01*
X150241108Y-55372384D01*
X150562595Y-55391718D01*
X150881675Y-55347961D01*
X151186088Y-55242795D01*
X151360044Y-55149814D01*
X151455808Y-54885413D01*
X150500000Y-53929605D01*
X149544192Y-54885413D01*
X145885000Y-54885413D01*
X145885000Y-53812595D01*
X148858282Y-53812595D01*
X148902039Y-54131675D01*
X149007205Y-54436088D01*
X149100186Y-54610044D01*
X149364587Y-54705808D01*
X150320395Y-53750000D01*
X150679605Y-53750000D01*
X151635413Y-54705808D01*
X151899814Y-54610044D01*
X152040704Y-54320429D01*
X152122384Y-54008892D01*
X152141718Y-53687405D01*
X152097961Y-53368325D01*
X151992795Y-53063912D01*
X151899814Y-52889956D01*
X151635413Y-52794192D01*
X150679605Y-53750000D01*
X150320395Y-53750000D01*
X149364587Y-52794192D01*
X149100186Y-52889956D01*
X148959296Y-53179571D01*
X148877616Y-53491108D01*
X148858282Y-53812595D01*
X145885000Y-53812595D01*
X145885000Y-52614587D01*
X149544192Y-52614587D01*
X150500000Y-53570395D01*
X151455808Y-52614587D01*
X151360044Y-52350186D01*
X151070429Y-52209296D01*
X150758892Y-52127616D01*
X150437405Y-52108282D01*
X150118325Y-52152039D01*
X149813912Y-52257205D01*
X149639956Y-52350186D01*
X149544192Y-52614587D01*
X145885000Y-52614587D01*
X145885000Y-51665752D01*
X145890491Y-51610000D01*
X145868577Y-51387501D01*
X145803676Y-51173553D01*
X145698284Y-50976377D01*
X145591989Y-50846856D01*
X145591987Y-50846854D01*
X145556449Y-50803551D01*
X145513146Y-50768013D01*
X143439293Y-48694162D01*
X143580466Y-48482882D01*
X143722561Y-48139834D01*
X143795000Y-47775656D01*
X143795000Y-47750000D01*
X148861928Y-47750000D01*
X148861928Y-49750000D01*
X148874188Y-49874482D01*
X148910498Y-49994180D01*
X148969463Y-50104494D01*
X149048815Y-50201185D01*
X149145506Y-50280537D01*
X149255820Y-50339502D01*
X149375518Y-50375812D01*
X149500000Y-50388072D01*
X151500000Y-50388072D01*
X151624482Y-50375812D01*
X151744180Y-50339502D01*
X151854494Y-50280537D01*
X151951185Y-50201185D01*
X152030537Y-50104494D01*
X152089502Y-49994180D01*
X152125812Y-49874482D01*
X152138072Y-49750000D01*
X152138072Y-48779872D01*
X165765000Y-48779872D01*
X165765000Y-49220128D01*
X165850890Y-49651925D01*
X166019369Y-50058669D01*
X166263962Y-50424729D01*
X166575271Y-50736038D01*
X166941331Y-50980631D01*
X167348075Y-51149110D01*
X167779872Y-51235000D01*
X168220128Y-51235000D01*
X168651925Y-51149110D01*
X169058669Y-50980631D01*
X169424729Y-50736038D01*
X169736038Y-50424729D01*
X169980631Y-50058669D01*
X170149110Y-49651925D01*
X170235000Y-49220128D01*
X170235000Y-48779872D01*
X170149110Y-48348075D01*
X169980631Y-47941331D01*
X169736038Y-47575271D01*
X169424729Y-47263962D01*
X169058669Y-47019369D01*
X168651925Y-46850890D01*
X168220128Y-46765000D01*
X167779872Y-46765000D01*
X167348075Y-46850890D01*
X166941331Y-47019369D01*
X166575271Y-47263962D01*
X166263962Y-47575271D01*
X166019369Y-47941331D01*
X165850890Y-48348075D01*
X165765000Y-48779872D01*
X152138072Y-48779872D01*
X152138072Y-47750000D01*
X152125812Y-47625518D01*
X152089502Y-47505820D01*
X152030537Y-47395506D01*
X151951185Y-47298815D01*
X151854494Y-47219463D01*
X151744180Y-47160498D01*
X151624482Y-47124188D01*
X151500000Y-47111928D01*
X149500000Y-47111928D01*
X149375518Y-47124188D01*
X149255820Y-47160498D01*
X149145506Y-47219463D01*
X149048815Y-47298815D01*
X148969463Y-47395506D01*
X148910498Y-47505820D01*
X148874188Y-47625518D01*
X148861928Y-47750000D01*
X143795000Y-47750000D01*
X143795000Y-47404344D01*
X143722561Y-47040166D01*
X143580466Y-46697118D01*
X143374175Y-46388382D01*
X143111618Y-46125825D01*
X142802882Y-45919534D01*
X142459834Y-45777439D01*
X142095656Y-45705000D01*
X141724344Y-45705000D01*
X141360166Y-45777439D01*
X141017118Y-45919534D01*
X140708382Y-46125825D01*
X140445825Y-46388382D01*
X140239534Y-46697118D01*
X140097439Y-47040166D01*
X140025000Y-47404344D01*
X140025000Y-47775656D01*
X140097439Y-48139834D01*
X140239534Y-48482882D01*
X140445825Y-48791618D01*
X140708382Y-49054175D01*
X140835999Y-49139446D01*
X140856324Y-49206447D01*
X140961717Y-49403623D01*
X141103552Y-49576449D01*
X141146860Y-49611991D01*
X143615000Y-52080133D01*
X143615000Y-56931662D01*
X143513577Y-56741914D01*
X143223605Y-56616000D01*
X142089605Y-57750000D01*
X143223605Y-58884000D01*
X143513577Y-58758086D01*
X143615000Y-58554934D01*
X143615001Y-64211545D01*
X143582795Y-64259744D01*
X143504774Y-64448102D01*
X143465000Y-64648061D01*
X143465000Y-64851939D01*
X143504774Y-65051898D01*
X143582795Y-65240256D01*
X143615001Y-65288455D01*
X143615001Y-73279867D01*
X140529869Y-76365000D01*
X114055751Y-76365000D01*
X113999999Y-76359509D01*
X113777500Y-76381423D01*
X113727705Y-76396529D01*
X113563553Y-76446324D01*
X113366377Y-76551716D01*
X113193551Y-76693551D01*
X113158011Y-76736857D01*
X106736865Y-83158004D01*
X106693551Y-83193551D01*
X106551716Y-83366377D01*
X106466402Y-83525990D01*
X106446324Y-83563554D01*
X106381423Y-83777502D01*
X106359509Y-84000000D01*
X106365000Y-84055751D01*
X106365001Y-113561928D01*
X106200000Y-113561928D01*
X106075518Y-113574188D01*
X105955820Y-113610498D01*
X105845506Y-113669463D01*
X105748815Y-113748815D01*
X105669463Y-113845506D01*
X105610498Y-113955820D01*
X105574188Y-114075518D01*
X105561928Y-114200000D01*
X101329003Y-114200000D01*
X101058669Y-114019369D01*
X100651925Y-113850890D01*
X100220128Y-113765000D01*
X99779872Y-113765000D01*
X99348075Y-113850890D01*
X98941331Y-114019369D01*
X98575271Y-114263962D01*
X98263962Y-114575271D01*
X98019369Y-114941331D01*
X97850890Y-115348075D01*
X97765000Y-115779872D01*
X95713253Y-115779872D01*
X95660000Y-115726620D01*
X95660000Y-80398061D01*
X97965000Y-80398061D01*
X97965000Y-80601939D01*
X98004774Y-80801898D01*
X98082795Y-80990256D01*
X98165001Y-81113286D01*
X98165000Y-104708982D01*
X98160960Y-104750000D01*
X98165000Y-104791018D01*
X98177082Y-104913688D01*
X98224828Y-105071086D01*
X98302364Y-105216145D01*
X98406709Y-105343291D01*
X98438578Y-105369445D01*
X98475907Y-105406775D01*
X98504774Y-105551898D01*
X98582795Y-105740256D01*
X98696063Y-105909774D01*
X98840226Y-106053937D01*
X99009744Y-106167205D01*
X99198102Y-106245226D01*
X99398061Y-106285000D01*
X99601939Y-106285000D01*
X99801898Y-106245226D01*
X99990256Y-106167205D01*
X100159774Y-106053937D01*
X100303937Y-105909774D01*
X100417205Y-105740256D01*
X100495226Y-105551898D01*
X100535000Y-105351939D01*
X100535000Y-105148061D01*
X100495226Y-104948102D01*
X100417205Y-104759744D01*
X100303937Y-104590226D01*
X100159774Y-104446063D01*
X99990256Y-104332795D01*
X99835000Y-104268485D01*
X99835000Y-81113285D01*
X99917205Y-80990256D01*
X99995226Y-80801898D01*
X100035000Y-80601939D01*
X100035000Y-80398061D01*
X99995226Y-80198102D01*
X99917205Y-80009744D01*
X99803937Y-79840226D01*
X99659774Y-79696063D01*
X99490256Y-79582795D01*
X99301898Y-79504774D01*
X99101939Y-79465000D01*
X98898061Y-79465000D01*
X98698102Y-79504774D01*
X98509744Y-79582795D01*
X98340226Y-79696063D01*
X98196063Y-79840226D01*
X98082795Y-80009744D01*
X98004774Y-80198102D01*
X97965000Y-80398061D01*
X95660000Y-80398061D01*
X95660000Y-71877000D01*
X98659735Y-71877000D01*
X98683638Y-71882081D01*
X98692802Y-71883044D01*
X98935595Y-71906850D01*
X98935598Y-71906850D01*
X98967581Y-71910000D01*
X116782419Y-71910000D01*
X116815632Y-71906729D01*
X116831856Y-71906729D01*
X116841021Y-71905765D01*
X117083457Y-71878572D01*
X117090853Y-71877000D01*
X139000000Y-71877000D01*
X139024776Y-71874560D01*
X139048601Y-71867333D01*
X139070557Y-71855597D01*
X139089803Y-71839803D01*
X139105597Y-71820557D01*
X139117333Y-71798601D01*
X139124560Y-71774776D01*
X139127000Y-71750000D01*
X139127000Y-59063605D01*
X140776000Y-59063605D01*
X140901914Y-59353577D01*
X141234126Y-59519433D01*
X141592312Y-59617290D01*
X141962706Y-59643389D01*
X142331075Y-59596725D01*
X142683262Y-59479094D01*
X142918086Y-59353577D01*
X143044000Y-59063605D01*
X141910000Y-57929605D01*
X140776000Y-59063605D01*
X139127000Y-59063605D01*
X139127000Y-57802706D01*
X140016611Y-57802706D01*
X140063275Y-58171075D01*
X140180906Y-58523262D01*
X140306423Y-58758086D01*
X140596395Y-58884000D01*
X141730395Y-57750000D01*
X140596395Y-56616000D01*
X140306423Y-56741914D01*
X140140567Y-57074126D01*
X140042710Y-57432312D01*
X140016611Y-57802706D01*
X139127000Y-57802706D01*
X139127000Y-56436395D01*
X140776000Y-56436395D01*
X141910000Y-57570395D01*
X143044000Y-56436395D01*
X142918086Y-56146423D01*
X142585874Y-55980567D01*
X142227688Y-55882710D01*
X141857294Y-55856611D01*
X141488925Y-55903275D01*
X141136738Y-56020906D01*
X140901914Y-56146423D01*
X140776000Y-56436395D01*
X139127000Y-56436395D01*
X139127000Y-44660000D01*
X167726620Y-44660000D01*
X172340000Y-49273381D01*
G37*
X172340000Y-49273381D02*
X172340000Y-55323526D01*
X172202400Y-55281785D01*
X172031979Y-55265000D01*
X171068021Y-55265000D01*
X170897600Y-55281785D01*
X170678940Y-55348115D01*
X170477421Y-55455829D01*
X170300788Y-55600788D01*
X170155829Y-55777421D01*
X170048115Y-55978940D01*
X169981785Y-56197600D01*
X169959388Y-56425000D01*
X169981785Y-56652400D01*
X170048115Y-56871060D01*
X170155829Y-57072579D01*
X170300788Y-57249212D01*
X170477421Y-57394171D01*
X170678940Y-57501885D01*
X170897600Y-57568215D01*
X171068021Y-57585000D01*
X172031979Y-57585000D01*
X172202400Y-57568215D01*
X172340000Y-57526474D01*
X172340000Y-62473526D01*
X172202400Y-62431785D01*
X172031979Y-62415000D01*
X171068021Y-62415000D01*
X170897600Y-62431785D01*
X170678940Y-62498115D01*
X170477421Y-62605829D01*
X170300788Y-62750788D01*
X170155829Y-62927421D01*
X170048115Y-63128940D01*
X169981785Y-63347600D01*
X169959388Y-63575000D01*
X169981785Y-63802400D01*
X170048115Y-64021060D01*
X170155829Y-64222579D01*
X170300788Y-64399212D01*
X170477421Y-64544171D01*
X170678940Y-64651885D01*
X170897600Y-64718215D01*
X171068021Y-64735000D01*
X172031979Y-64735000D01*
X172202400Y-64718215D01*
X172340000Y-64676474D01*
X172340001Y-115726618D01*
X167726620Y-120340000D01*
X100273381Y-120340000D01*
X95713253Y-115779872D01*
X97765000Y-115779872D01*
X97765000Y-116220128D01*
X97850890Y-116651925D01*
X98019369Y-117058669D01*
X98263962Y-117424729D01*
X98575271Y-117736038D01*
X98941331Y-117980631D01*
X99348075Y-118149110D01*
X99779872Y-118235000D01*
X100220128Y-118235000D01*
X100651925Y-118149110D01*
X101058669Y-117980631D01*
X101424729Y-117736038D01*
X101736038Y-117424729D01*
X101980631Y-117058669D01*
X102149110Y-116651925D01*
X102235000Y-116220128D01*
X102235000Y-115779872D01*
X102149110Y-115348075D01*
X101980631Y-114941331D01*
X101736038Y-114575271D01*
X101424729Y-114263962D01*
X101329003Y-114200000D01*
X105561928Y-114200000D01*
X105561928Y-116800000D01*
X105574188Y-116924482D01*
X105610498Y-117044180D01*
X105669463Y-117154494D01*
X105748815Y-117251185D01*
X105845506Y-117330537D01*
X105955820Y-117389502D01*
X106075518Y-117425812D01*
X106200000Y-117438072D01*
X108800000Y-117438072D01*
X108924482Y-117425812D01*
X109044180Y-117389502D01*
X109154494Y-117330537D01*
X109251185Y-117251185D01*
X109330537Y-117154494D01*
X109389502Y-117044180D01*
X109425812Y-116924482D01*
X109438072Y-116800000D01*
X109438072Y-115309419D01*
X110565000Y-115309419D01*
X110565000Y-115690581D01*
X110639361Y-116064419D01*
X110785225Y-116416566D01*
X110996987Y-116733491D01*
X111266509Y-117003013D01*
X111583434Y-117214775D01*
X111935581Y-117360639D01*
X112309419Y-117435000D01*
X112690581Y-117435000D01*
X113064419Y-117360639D01*
X113416566Y-117214775D01*
X113733491Y-117003013D01*
X114003013Y-116733491D01*
X114214775Y-116416566D01*
X114360639Y-116064419D01*
X114435000Y-115690581D01*
X114435000Y-115309419D01*
X114360639Y-114935581D01*
X114214775Y-114583434D01*
X114003013Y-114266509D01*
X113733491Y-113996987D01*
X113416566Y-113785225D01*
X113064419Y-113639361D01*
X112690581Y-113565000D01*
X112309419Y-113565000D01*
X111935581Y-113639361D01*
X111583434Y-113785225D01*
X111266509Y-113996987D01*
X110996987Y-114266509D01*
X110785225Y-114583434D01*
X110639361Y-114935581D01*
X110565000Y-115309419D01*
X109438072Y-115309419D01*
X109438072Y-114200000D01*
X109425812Y-114075518D01*
X109389502Y-113955820D01*
X109330537Y-113845506D01*
X109251185Y-113748815D01*
X109154494Y-113669463D01*
X109044180Y-113610498D01*
X108924482Y-113574188D01*
X108800000Y-113561928D01*
X108635000Y-113561928D01*
X108635000Y-109648061D01*
X115715000Y-109648061D01*
X115715000Y-109851939D01*
X115754774Y-110051898D01*
X115832795Y-110240256D01*
X115946063Y-110409774D01*
X116090226Y-110553937D01*
X116259744Y-110667205D01*
X116448102Y-110745226D01*
X116648061Y-110785000D01*
X116851939Y-110785000D01*
X117051898Y-110745226D01*
X117240256Y-110667205D01*
X117409774Y-110553937D01*
X117553937Y-110409774D01*
X117665000Y-110243556D01*
X117665001Y-118208971D01*
X117660960Y-118250000D01*
X117677082Y-118413688D01*
X117724828Y-118571086D01*
X117802364Y-118716145D01*
X117802365Y-118716146D01*
X117906710Y-118843291D01*
X117938574Y-118869441D01*
X118880563Y-119811432D01*
X118906709Y-119843291D01*
X119033854Y-119947636D01*
X119178913Y-120025172D01*
X119336311Y-120072918D01*
X119458981Y-120085000D01*
X119458982Y-120085000D01*
X119500000Y-120089040D01*
X119541018Y-120085000D01*
X122208982Y-120085000D01*
X122250000Y-120089040D01*
X122291018Y-120085000D01*
X122291019Y-120085000D01*
X122413689Y-120072918D01*
X122571087Y-120025172D01*
X122716146Y-119947636D01*
X122843291Y-119843291D01*
X122869446Y-119811421D01*
X125354015Y-117326853D01*
X125435581Y-117360639D01*
X125809419Y-117435000D01*
X126190581Y-117435000D01*
X126564419Y-117360639D01*
X126916566Y-117214775D01*
X127233491Y-117003013D01*
X127503013Y-116733491D01*
X127714775Y-116416566D01*
X127860639Y-116064419D01*
X127935000Y-115690581D01*
X127935000Y-115309419D01*
X129065000Y-115309419D01*
X129065000Y-115690581D01*
X129139361Y-116064419D01*
X129285225Y-116416566D01*
X129496987Y-116733491D01*
X129766509Y-117003013D01*
X130083434Y-117214775D01*
X130435581Y-117360639D01*
X130809419Y-117435000D01*
X131190581Y-117435000D01*
X131564419Y-117360639D01*
X131916566Y-117214775D01*
X132233491Y-117003013D01*
X132503013Y-116733491D01*
X132714775Y-116416566D01*
X132860639Y-116064419D01*
X132935000Y-115690581D01*
X132935000Y-115309419D01*
X134065000Y-115309419D01*
X134065000Y-115690581D01*
X134139361Y-116064419D01*
X134285225Y-116416566D01*
X134496987Y-116733491D01*
X134766509Y-117003013D01*
X135083434Y-117214775D01*
X135435581Y-117360639D01*
X135809419Y-117435000D01*
X136190581Y-117435000D01*
X136564419Y-117360639D01*
X136916566Y-117214775D01*
X137233491Y-117003013D01*
X137503013Y-116733491D01*
X137714775Y-116416566D01*
X137860639Y-116064419D01*
X137935000Y-115690581D01*
X137935000Y-115309419D01*
X137860639Y-114935581D01*
X137714775Y-114583434D01*
X137503013Y-114266509D01*
X137436504Y-114200000D01*
X142561928Y-114200000D01*
X142561928Y-116800000D01*
X142574188Y-116924482D01*
X142610498Y-117044180D01*
X142669463Y-117154494D01*
X142748815Y-117251185D01*
X142845506Y-117330537D01*
X142955820Y-117389502D01*
X143075518Y-117425812D01*
X143200000Y-117438072D01*
X145800000Y-117438072D01*
X145924482Y-117425812D01*
X146044180Y-117389502D01*
X146154494Y-117330537D01*
X146251185Y-117251185D01*
X146330537Y-117154494D01*
X146389502Y-117044180D01*
X146425812Y-116924482D01*
X146438072Y-116800000D01*
X146438072Y-115309419D01*
X147565000Y-115309419D01*
X147565000Y-115690581D01*
X147639361Y-116064419D01*
X147785225Y-116416566D01*
X147996987Y-116733491D01*
X148266509Y-117003013D01*
X148583434Y-117214775D01*
X148935581Y-117360639D01*
X149309419Y-117435000D01*
X149690581Y-117435000D01*
X150064419Y-117360639D01*
X150416566Y-117214775D01*
X150733491Y-117003013D01*
X151003013Y-116733491D01*
X151214775Y-116416566D01*
X151360639Y-116064419D01*
X151435000Y-115690581D01*
X151435000Y-115309419D01*
X152565000Y-115309419D01*
X152565000Y-115690581D01*
X152639361Y-116064419D01*
X152785225Y-116416566D01*
X152996987Y-116733491D01*
X153266509Y-117003013D01*
X153583434Y-117214775D01*
X153935581Y-117360639D01*
X154309419Y-117435000D01*
X154690581Y-117435000D01*
X155064419Y-117360639D01*
X155416566Y-117214775D01*
X155733491Y-117003013D01*
X156003013Y-116733491D01*
X156214775Y-116416566D01*
X156360639Y-116064419D01*
X156435000Y-115690581D01*
X156435000Y-115309419D01*
X157565000Y-115309419D01*
X157565000Y-115690581D01*
X157639361Y-116064419D01*
X157785225Y-116416566D01*
X157996987Y-116733491D01*
X158266509Y-117003013D01*
X158583434Y-117214775D01*
X158935581Y-117360639D01*
X159309419Y-117435000D01*
X159690581Y-117435000D01*
X160064419Y-117360639D01*
X160416566Y-117214775D01*
X160733491Y-117003013D01*
X161003013Y-116733491D01*
X161214775Y-116416566D01*
X161360639Y-116064419D01*
X161417238Y-115779872D01*
X165765000Y-115779872D01*
X165765000Y-116220128D01*
X165850890Y-116651925D01*
X166019369Y-117058669D01*
X166263962Y-117424729D01*
X166575271Y-117736038D01*
X166941331Y-117980631D01*
X167348075Y-118149110D01*
X167779872Y-118235000D01*
X168220128Y-118235000D01*
X168651925Y-118149110D01*
X169058669Y-117980631D01*
X169424729Y-117736038D01*
X169736038Y-117424729D01*
X169980631Y-117058669D01*
X170149110Y-116651925D01*
X170235000Y-116220128D01*
X170235000Y-115779872D01*
X170149110Y-115348075D01*
X169980631Y-114941331D01*
X169736038Y-114575271D01*
X169424729Y-114263962D01*
X169058669Y-114019369D01*
X168651925Y-113850890D01*
X168220128Y-113765000D01*
X167779872Y-113765000D01*
X167348075Y-113850890D01*
X166941331Y-114019369D01*
X166575271Y-114263962D01*
X166263962Y-114575271D01*
X166019369Y-114941331D01*
X165850890Y-115348075D01*
X165765000Y-115779872D01*
X161417238Y-115779872D01*
X161435000Y-115690581D01*
X161435000Y-115309419D01*
X161360639Y-114935581D01*
X161214775Y-114583434D01*
X161003013Y-114266509D01*
X160733491Y-113996987D01*
X160416566Y-113785225D01*
X160064419Y-113639361D01*
X159690581Y-113565000D01*
X159309419Y-113565000D01*
X158935581Y-113639361D01*
X158583434Y-113785225D01*
X158266509Y-113996987D01*
X157996987Y-114266509D01*
X157785225Y-114583434D01*
X157639361Y-114935581D01*
X157565000Y-115309419D01*
X156435000Y-115309419D01*
X156360639Y-114935581D01*
X156214775Y-114583434D01*
X156003013Y-114266509D01*
X155733491Y-113996987D01*
X155416566Y-113785225D01*
X155064419Y-113639361D01*
X154690581Y-113565000D01*
X154309419Y-113565000D01*
X153935581Y-113639361D01*
X153583434Y-113785225D01*
X153266509Y-113996987D01*
X152996987Y-114266509D01*
X152785225Y-114583434D01*
X152639361Y-114935581D01*
X152565000Y-115309419D01*
X151435000Y-115309419D01*
X151360639Y-114935581D01*
X151214775Y-114583434D01*
X151003013Y-114266509D01*
X150733491Y-113996987D01*
X150416566Y-113785225D01*
X150064419Y-113639361D01*
X149690581Y-113565000D01*
X149309419Y-113565000D01*
X148935581Y-113639361D01*
X148583434Y-113785225D01*
X148266509Y-113996987D01*
X147996987Y-114266509D01*
X147785225Y-114583434D01*
X147639361Y-114935581D01*
X147565000Y-115309419D01*
X146438072Y-115309419D01*
X146438072Y-114200000D01*
X146425812Y-114075518D01*
X146389502Y-113955820D01*
X146330537Y-113845506D01*
X146251185Y-113748815D01*
X146154494Y-113669463D01*
X146044180Y-113610498D01*
X145924482Y-113574188D01*
X145800000Y-113561928D01*
X143200000Y-113561928D01*
X143075518Y-113574188D01*
X142955820Y-113610498D01*
X142845506Y-113669463D01*
X142748815Y-113748815D01*
X142669463Y-113845506D01*
X142610498Y-113955820D01*
X142574188Y-114075518D01*
X142561928Y-114200000D01*
X137436504Y-114200000D01*
X137233491Y-113996987D01*
X136916566Y-113785225D01*
X136564419Y-113639361D01*
X136190581Y-113565000D01*
X135809419Y-113565000D01*
X135435581Y-113639361D01*
X135083434Y-113785225D01*
X134766509Y-113996987D01*
X134496987Y-114266509D01*
X134285225Y-114583434D01*
X134139361Y-114935581D01*
X134065000Y-115309419D01*
X132935000Y-115309419D01*
X132860639Y-114935581D01*
X132714775Y-114583434D01*
X132503013Y-114266509D01*
X132233491Y-113996987D01*
X131916566Y-113785225D01*
X131835000Y-113751439D01*
X131835000Y-111041018D01*
X131839040Y-111000000D01*
X131822918Y-110836312D01*
X131818300Y-110821086D01*
X131775172Y-110678913D01*
X131697636Y-110533854D01*
X131593291Y-110406709D01*
X131561426Y-110380558D01*
X131524092Y-110343225D01*
X131495226Y-110198102D01*
X131417205Y-110009744D01*
X131303937Y-109840226D01*
X131159774Y-109696063D01*
X130990256Y-109582795D01*
X130801898Y-109504774D01*
X130601939Y-109465000D01*
X130398061Y-109465000D01*
X130198102Y-109504774D01*
X130009744Y-109582795D01*
X129840226Y-109696063D01*
X129696063Y-109840226D01*
X129582795Y-110009744D01*
X129504774Y-110198102D01*
X129465000Y-110398061D01*
X129465000Y-110601939D01*
X129504774Y-110801898D01*
X129582795Y-110990256D01*
X129696063Y-111159774D01*
X129840226Y-111303937D01*
X130009744Y-111417205D01*
X130165001Y-111481515D01*
X130165000Y-113751439D01*
X130083434Y-113785225D01*
X129766509Y-113996987D01*
X129496987Y-114266509D01*
X129285225Y-114583434D01*
X129139361Y-114935581D01*
X129065000Y-115309419D01*
X127935000Y-115309419D01*
X127860639Y-114935581D01*
X127714775Y-114583434D01*
X127503013Y-114266509D01*
X127233491Y-113996987D01*
X126916566Y-113785225D01*
X126564419Y-113639361D01*
X126190581Y-113565000D01*
X125809419Y-113565000D01*
X125435581Y-113639361D01*
X125083434Y-113785225D01*
X124766509Y-113996987D01*
X124496987Y-114266509D01*
X124285225Y-114583434D01*
X124139361Y-114935581D01*
X124065000Y-115309419D01*
X124065000Y-115690581D01*
X124139361Y-116064419D01*
X124173147Y-116145985D01*
X121904133Y-118415000D01*
X119845868Y-118415000D01*
X119335000Y-117904132D01*
X119335000Y-117321915D01*
X119345506Y-117330537D01*
X119455820Y-117389502D01*
X119575518Y-117425812D01*
X119700000Y-117438072D01*
X122300000Y-117438072D01*
X122424482Y-117425812D01*
X122544180Y-117389502D01*
X122654494Y-117330537D01*
X122751185Y-117251185D01*
X122830537Y-117154494D01*
X122889502Y-117044180D01*
X122925812Y-116924482D01*
X122938072Y-116800000D01*
X122938072Y-114200000D01*
X122925812Y-114075518D01*
X122889502Y-113955820D01*
X122830537Y-113845506D01*
X122751185Y-113748815D01*
X122654494Y-113669463D01*
X122544180Y-113610498D01*
X122424482Y-113574188D01*
X122300000Y-113561928D01*
X121835000Y-113561928D01*
X121835000Y-106095867D01*
X128941432Y-98989437D01*
X128973290Y-98963292D01*
X129077635Y-98836147D01*
X129155171Y-98691088D01*
X129173045Y-98632164D01*
X129438665Y-98685000D01*
X129721335Y-98685000D01*
X129998574Y-98629853D01*
X130259727Y-98521680D01*
X130494759Y-98364637D01*
X130694637Y-98164759D01*
X130850000Y-97932241D01*
X131005363Y-98164759D01*
X131205241Y-98364637D01*
X131440273Y-98521680D01*
X131701426Y-98629853D01*
X131978665Y-98685000D01*
X132261335Y-98685000D01*
X132538574Y-98629853D01*
X132799727Y-98521680D01*
X133034759Y-98364637D01*
X133234637Y-98164759D01*
X133390000Y-97932241D01*
X133545363Y-98164759D01*
X133745241Y-98364637D01*
X133980273Y-98521680D01*
X134241426Y-98629853D01*
X134518665Y-98685000D01*
X134801335Y-98685000D01*
X135078574Y-98629853D01*
X135339727Y-98521680D01*
X135574759Y-98364637D01*
X135774637Y-98164759D01*
X135930000Y-97932241D01*
X136085363Y-98164759D01*
X136285241Y-98364637D01*
X136520273Y-98521680D01*
X136781426Y-98629853D01*
X137058665Y-98685000D01*
X137341335Y-98685000D01*
X137394758Y-98674373D01*
X135654133Y-100415000D01*
X129841018Y-100415000D01*
X129800000Y-100410960D01*
X129758982Y-100415000D01*
X129758981Y-100415000D01*
X129636311Y-100427082D01*
X129478913Y-100474828D01*
X129333854Y-100552364D01*
X129206709Y-100656709D01*
X129180563Y-100688568D01*
X127205504Y-102663628D01*
X126961033Y-102615000D01*
X126638967Y-102615000D01*
X126323088Y-102677832D01*
X126025537Y-102801082D01*
X125757748Y-102980013D01*
X125530013Y-103207748D01*
X125351082Y-103475537D01*
X125227832Y-103773088D01*
X125165000Y-104088967D01*
X125165000Y-104411033D01*
X125227832Y-104726912D01*
X125351082Y-105024463D01*
X125530013Y-105292252D01*
X125757748Y-105519987D01*
X126025537Y-105698918D01*
X126323088Y-105822168D01*
X126638967Y-105885000D01*
X126961033Y-105885000D01*
X127276912Y-105822168D01*
X127574463Y-105698918D01*
X127842252Y-105519987D01*
X127976826Y-105385413D01*
X132244192Y-105385413D01*
X132339956Y-105649814D01*
X132629571Y-105790704D01*
X132941108Y-105872384D01*
X133262595Y-105891718D01*
X133581675Y-105847961D01*
X133886088Y-105742795D01*
X134060044Y-105649814D01*
X134155808Y-105385413D01*
X133200000Y-104429605D01*
X132244192Y-105385413D01*
X127976826Y-105385413D01*
X128069987Y-105292252D01*
X128248918Y-105024463D01*
X128372168Y-104726912D01*
X128435000Y-104411033D01*
X128435000Y-104312595D01*
X131558282Y-104312595D01*
X131602039Y-104631675D01*
X131707205Y-104936088D01*
X131800186Y-105110044D01*
X132064587Y-105205808D01*
X133020395Y-104250000D01*
X133379605Y-104250000D01*
X134335413Y-105205808D01*
X134599814Y-105110044D01*
X134740704Y-104820429D01*
X134772278Y-104700000D01*
X165561928Y-104700000D01*
X165561928Y-107300000D01*
X165574188Y-107424482D01*
X165610498Y-107544180D01*
X165669463Y-107654494D01*
X165748815Y-107751185D01*
X165845506Y-107830537D01*
X165955820Y-107889502D01*
X166075518Y-107925812D01*
X166200000Y-107938072D01*
X168800000Y-107938072D01*
X168924482Y-107925812D01*
X169044180Y-107889502D01*
X169154494Y-107830537D01*
X169251185Y-107751185D01*
X169330537Y-107654494D01*
X169389502Y-107544180D01*
X169425812Y-107424482D01*
X169438072Y-107300000D01*
X169438072Y-104700000D01*
X169425812Y-104575518D01*
X169389502Y-104455820D01*
X169330537Y-104345506D01*
X169251185Y-104248815D01*
X169154494Y-104169463D01*
X169044180Y-104110498D01*
X168924482Y-104074188D01*
X168800000Y-104061928D01*
X166200000Y-104061928D01*
X166075518Y-104074188D01*
X165955820Y-104110498D01*
X165845506Y-104169463D01*
X165748815Y-104248815D01*
X165669463Y-104345506D01*
X165610498Y-104455820D01*
X165574188Y-104575518D01*
X165561928Y-104700000D01*
X134772278Y-104700000D01*
X134822384Y-104508892D01*
X134841718Y-104187405D01*
X134797961Y-103868325D01*
X134692795Y-103563912D01*
X134599814Y-103389956D01*
X134335413Y-103294192D01*
X133379605Y-104250000D01*
X133020395Y-104250000D01*
X132064587Y-103294192D01*
X131800186Y-103389956D01*
X131659296Y-103679571D01*
X131577616Y-103991108D01*
X131558282Y-104312595D01*
X128435000Y-104312595D01*
X128435000Y-104088967D01*
X128386372Y-103844496D01*
X129116281Y-103114587D01*
X132244192Y-103114587D01*
X133200000Y-104070395D01*
X134155808Y-103114587D01*
X134155447Y-103113589D01*
X142615000Y-103113589D01*
X142615000Y-103386411D01*
X142668225Y-103653989D01*
X142772629Y-103906043D01*
X142924201Y-104132886D01*
X143117114Y-104325799D01*
X143343957Y-104477371D01*
X143596011Y-104581775D01*
X143863589Y-104635000D01*
X144136411Y-104635000D01*
X144403989Y-104581775D01*
X144656043Y-104477371D01*
X144882886Y-104325799D01*
X145075799Y-104132886D01*
X145227371Y-103906043D01*
X145331775Y-103653989D01*
X145385000Y-103386411D01*
X145385000Y-103113589D01*
X147495000Y-103113589D01*
X147495000Y-103386411D01*
X147548225Y-103653989D01*
X147652629Y-103906043D01*
X147804201Y-104132886D01*
X147997114Y-104325799D01*
X148223957Y-104477371D01*
X148476011Y-104581775D01*
X148743589Y-104635000D01*
X149016411Y-104635000D01*
X149283989Y-104581775D01*
X149536043Y-104477371D01*
X149762886Y-104325799D01*
X149955799Y-104132886D01*
X150107371Y-103906043D01*
X150211775Y-103653989D01*
X150265000Y-103386411D01*
X150265000Y-103113589D01*
X150211775Y-102846011D01*
X150107371Y-102593957D01*
X149955799Y-102367114D01*
X149762886Y-102174201D01*
X149536043Y-102022629D01*
X149283989Y-101918225D01*
X149016411Y-101865000D01*
X148743589Y-101865000D01*
X148476011Y-101918225D01*
X148223957Y-102022629D01*
X147997114Y-102174201D01*
X147804201Y-102367114D01*
X147652629Y-102593957D01*
X147548225Y-102846011D01*
X147495000Y-103113589D01*
X145385000Y-103113589D01*
X145331775Y-102846011D01*
X145227371Y-102593957D01*
X145075799Y-102367114D01*
X144882886Y-102174201D01*
X144656043Y-102022629D01*
X144403989Y-101918225D01*
X144136411Y-101865000D01*
X143863589Y-101865000D01*
X143596011Y-101918225D01*
X143343957Y-102022629D01*
X143117114Y-102174201D01*
X142924201Y-102367114D01*
X142772629Y-102593957D01*
X142668225Y-102846011D01*
X142615000Y-103113589D01*
X134155447Y-103113589D01*
X134060044Y-102850186D01*
X133770429Y-102709296D01*
X133458892Y-102627616D01*
X133137405Y-102608282D01*
X132818325Y-102652039D01*
X132513912Y-102757205D01*
X132339956Y-102850186D01*
X132244192Y-103114587D01*
X129116281Y-103114587D01*
X130145869Y-102085000D01*
X135958982Y-102085000D01*
X136000000Y-102089040D01*
X136041018Y-102085000D01*
X136041019Y-102085000D01*
X136163689Y-102072918D01*
X136321087Y-102025172D01*
X136466146Y-101947636D01*
X136593291Y-101843291D01*
X136619446Y-101811421D01*
X138961433Y-99469436D01*
X138993292Y-99443290D01*
X139097637Y-99316145D01*
X139175173Y-99171086D01*
X139222919Y-99013688D01*
X139235001Y-98891018D01*
X139239041Y-98849999D01*
X139235001Y-98808981D01*
X139235001Y-98594055D01*
X139321426Y-98629853D01*
X139598665Y-98685000D01*
X139881335Y-98685000D01*
X140158574Y-98629853D01*
X140419727Y-98521680D01*
X140654759Y-98364637D01*
X140854637Y-98164759D01*
X141011680Y-97929727D01*
X141016067Y-97919135D01*
X141127615Y-98105131D01*
X141316586Y-98313519D01*
X141542580Y-98481037D01*
X141796913Y-98601246D01*
X141930961Y-98641904D01*
X142153000Y-98519915D01*
X142153000Y-97377000D01*
X142133000Y-97377000D01*
X142133000Y-97123000D01*
X142153000Y-97123000D01*
X142153000Y-97103000D01*
X142407000Y-97103000D01*
X142407000Y-97123000D01*
X142427000Y-97123000D01*
X142427000Y-97377000D01*
X142407000Y-97377000D01*
X142407000Y-98519915D01*
X142629039Y-98641904D01*
X142763087Y-98601246D01*
X143017420Y-98481037D01*
X143243414Y-98313519D01*
X143432385Y-98105131D01*
X143543933Y-97919135D01*
X143548320Y-97929727D01*
X143705363Y-98164759D01*
X143905241Y-98364637D01*
X144140273Y-98521680D01*
X144401426Y-98629853D01*
X144678665Y-98685000D01*
X144961335Y-98685000D01*
X145238574Y-98629853D01*
X145499727Y-98521680D01*
X145734759Y-98364637D01*
X145934637Y-98164759D01*
X146090000Y-97932241D01*
X146245363Y-98164759D01*
X146445241Y-98364637D01*
X146680273Y-98521680D01*
X146941426Y-98629853D01*
X147218665Y-98685000D01*
X147501335Y-98685000D01*
X147778574Y-98629853D01*
X148039727Y-98521680D01*
X148274759Y-98364637D01*
X148474637Y-98164759D01*
X148630000Y-97932241D01*
X148785363Y-98164759D01*
X148985241Y-98364637D01*
X149220273Y-98521680D01*
X149481426Y-98629853D01*
X149758665Y-98685000D01*
X150041335Y-98685000D01*
X150318574Y-98629853D01*
X150579727Y-98521680D01*
X150814759Y-98364637D01*
X151014637Y-98164759D01*
X151170000Y-97932241D01*
X151325363Y-98164759D01*
X151525241Y-98364637D01*
X151760273Y-98521680D01*
X152021426Y-98629853D01*
X152298665Y-98685000D01*
X152581335Y-98685000D01*
X152858574Y-98629853D01*
X153119727Y-98521680D01*
X153354759Y-98364637D01*
X153554637Y-98164759D01*
X153710000Y-97932241D01*
X153865363Y-98164759D01*
X154065241Y-98364637D01*
X154300273Y-98521680D01*
X154561426Y-98629853D01*
X154838665Y-98685000D01*
X155121335Y-98685000D01*
X155398574Y-98629853D01*
X155659727Y-98521680D01*
X155894759Y-98364637D01*
X156094637Y-98164759D01*
X156250000Y-97932241D01*
X156405363Y-98164759D01*
X156605241Y-98364637D01*
X156840273Y-98521680D01*
X157101426Y-98629853D01*
X157378665Y-98685000D01*
X157661335Y-98685000D01*
X157938574Y-98629853D01*
X158199727Y-98521680D01*
X158434759Y-98364637D01*
X158634637Y-98164759D01*
X158791680Y-97929727D01*
X158899853Y-97668574D01*
X158955000Y-97391335D01*
X158955000Y-97108665D01*
X158899853Y-96831426D01*
X158791680Y-96570273D01*
X158634637Y-96335241D01*
X158434759Y-96135363D01*
X158199727Y-95978320D01*
X157938574Y-95870147D01*
X157661335Y-95815000D01*
X157378665Y-95815000D01*
X157101426Y-95870147D01*
X156840273Y-95978320D01*
X156605241Y-96135363D01*
X156405363Y-96335241D01*
X156250000Y-96567759D01*
X156094637Y-96335241D01*
X155894759Y-96135363D01*
X155659727Y-95978320D01*
X155398574Y-95870147D01*
X155121335Y-95815000D01*
X154838665Y-95815000D01*
X154744582Y-95833714D01*
X154614999Y-95704132D01*
X154614999Y-91020509D01*
X154838665Y-91065000D01*
X155121335Y-91065000D01*
X155398574Y-91009853D01*
X155659727Y-90901680D01*
X155894759Y-90744637D01*
X156094637Y-90544759D01*
X156250000Y-90312241D01*
X156405363Y-90544759D01*
X156605241Y-90744637D01*
X156840273Y-90901680D01*
X157101426Y-91009853D01*
X157378665Y-91065000D01*
X157661335Y-91065000D01*
X157938574Y-91009853D01*
X158199727Y-90901680D01*
X158434759Y-90744637D01*
X158634637Y-90544759D01*
X158791680Y-90309727D01*
X158899853Y-90048574D01*
X158955000Y-89771335D01*
X158955000Y-89488665D01*
X158899853Y-89211426D01*
X158791680Y-88950273D01*
X158634637Y-88715241D01*
X158434759Y-88515363D01*
X158199727Y-88358320D01*
X157938574Y-88250147D01*
X157661335Y-88195000D01*
X157378665Y-88195000D01*
X157101426Y-88250147D01*
X156840273Y-88358320D01*
X156605241Y-88515363D01*
X156405363Y-88715241D01*
X156250000Y-88947759D01*
X156094637Y-88715241D01*
X155894759Y-88515363D01*
X155815000Y-88462070D01*
X155815000Y-88365867D01*
X160311432Y-83869437D01*
X160343291Y-83843291D01*
X160371400Y-83809041D01*
X160447636Y-83716146D01*
X160525172Y-83571087D01*
X160558869Y-83460001D01*
X160572918Y-83413689D01*
X160585000Y-83291019D01*
X160585000Y-83291018D01*
X160589040Y-83250000D01*
X160585000Y-83208982D01*
X160585000Y-77113285D01*
X160667205Y-76990256D01*
X160745226Y-76801898D01*
X160785000Y-76601939D01*
X160785000Y-76398061D01*
X160745226Y-76198102D01*
X160667205Y-76009744D01*
X160553937Y-75840226D01*
X160409774Y-75696063D01*
X160240256Y-75582795D01*
X160051898Y-75504774D01*
X159851939Y-75465000D01*
X159648061Y-75465000D01*
X159448102Y-75504774D01*
X159259744Y-75582795D01*
X159090226Y-75696063D01*
X158946063Y-75840226D01*
X158832795Y-76009744D01*
X158754774Y-76198102D01*
X158715000Y-76398061D01*
X158715000Y-76601939D01*
X158754774Y-76801898D01*
X158832795Y-76990256D01*
X158915000Y-77113285D01*
X158915001Y-82904130D01*
X154614999Y-87204134D01*
X154614999Y-83315868D01*
X156156776Y-81774092D01*
X156301898Y-81745226D01*
X156490256Y-81667205D01*
X156659774Y-81553937D01*
X156803937Y-81409774D01*
X156917205Y-81240256D01*
X156995226Y-81051898D01*
X157035000Y-80851939D01*
X157035000Y-80648061D01*
X156995226Y-80448102D01*
X156917205Y-80259744D01*
X156803937Y-80090226D01*
X156659774Y-79946063D01*
X156490256Y-79832795D01*
X156301898Y-79754774D01*
X156101939Y-79715000D01*
X155898061Y-79715000D01*
X155698102Y-79754774D01*
X155509744Y-79832795D01*
X155340226Y-79946063D01*
X155196063Y-80090226D01*
X155082795Y-80259744D01*
X155004774Y-80448102D01*
X154975908Y-80593224D01*
X153696905Y-81872227D01*
X153677932Y-81776842D01*
X153565990Y-81506589D01*
X153403475Y-81263368D01*
X153196632Y-81056525D01*
X153022240Y-80940000D01*
X153196632Y-80823475D01*
X153403475Y-80616632D01*
X153565990Y-80373411D01*
X153677932Y-80103158D01*
X153735000Y-79816260D01*
X153735000Y-79523740D01*
X153677932Y-79236842D01*
X153565990Y-78966589D01*
X153403475Y-78723368D01*
X153196632Y-78516525D01*
X152953411Y-78354010D01*
X152683158Y-78242068D01*
X152396260Y-78185000D01*
X152103740Y-78185000D01*
X151816842Y-78242068D01*
X151546589Y-78354010D01*
X151303368Y-78516525D01*
X151096525Y-78723368D01*
X150978900Y-78899406D01*
X150807588Y-78669731D01*
X150591355Y-78474822D01*
X150341252Y-78325843D01*
X150066891Y-78228519D01*
X149837002Y-78349185D01*
X149837002Y-78311120D01*
X157763123Y-70385000D01*
X161365000Y-70385000D01*
X161365001Y-78444248D01*
X161365000Y-85305751D01*
X161365001Y-85305761D01*
X161365000Y-95944248D01*
X161359509Y-96000000D01*
X161365000Y-96055751D01*
X161381423Y-96222498D01*
X161446324Y-96436446D01*
X161551716Y-96633623D01*
X161693551Y-96806449D01*
X161736865Y-96841996D01*
X165588109Y-100693241D01*
X165565000Y-100809419D01*
X165565000Y-101190581D01*
X165639361Y-101564419D01*
X165785225Y-101916566D01*
X165996987Y-102233491D01*
X166266509Y-102503013D01*
X166583434Y-102714775D01*
X166935581Y-102860639D01*
X167309419Y-102935000D01*
X167690581Y-102935000D01*
X168064419Y-102860639D01*
X168416566Y-102714775D01*
X168733491Y-102503013D01*
X169003013Y-102233491D01*
X169214775Y-101916566D01*
X169360639Y-101564419D01*
X169435000Y-101190581D01*
X169435000Y-100809419D01*
X169360639Y-100435581D01*
X169214775Y-100083434D01*
X169003013Y-99766509D01*
X168733491Y-99496987D01*
X168416566Y-99285225D01*
X168064419Y-99139361D01*
X167690581Y-99065000D01*
X167309419Y-99065000D01*
X167193241Y-99088109D01*
X165454356Y-97349224D01*
X166330381Y-97349224D01*
X166462317Y-97644312D01*
X166803045Y-97815159D01*
X167170557Y-97916250D01*
X167550729Y-97943701D01*
X167928951Y-97896457D01*
X168290690Y-97776333D01*
X168537683Y-97644312D01*
X168669619Y-97349224D01*
X167500000Y-96179605D01*
X166330381Y-97349224D01*
X165454356Y-97349224D01*
X164155861Y-96050729D01*
X165556299Y-96050729D01*
X165603543Y-96428951D01*
X165723667Y-96790690D01*
X165855688Y-97037683D01*
X166150776Y-97169619D01*
X167320395Y-96000000D01*
X167679605Y-96000000D01*
X168849224Y-97169619D01*
X169144312Y-97037683D01*
X169315159Y-96696955D01*
X169416250Y-96329443D01*
X169443701Y-95949271D01*
X169396457Y-95571049D01*
X169276333Y-95209310D01*
X169144312Y-94962317D01*
X168849224Y-94830381D01*
X167679605Y-96000000D01*
X167320395Y-96000000D01*
X166150776Y-94830381D01*
X165855688Y-94962317D01*
X165684841Y-95303045D01*
X165583750Y-95670557D01*
X165556299Y-96050729D01*
X164155861Y-96050729D01*
X163635000Y-95529869D01*
X163635000Y-94650776D01*
X166330381Y-94650776D01*
X167500000Y-95820395D01*
X168669619Y-94650776D01*
X168537683Y-94355688D01*
X168196955Y-94184841D01*
X167829443Y-94083750D01*
X167449271Y-94056299D01*
X167071049Y-94103543D01*
X166709310Y-94223667D01*
X166462317Y-94355688D01*
X166330381Y-94650776D01*
X163635000Y-94650776D01*
X163635000Y-92349224D01*
X166330381Y-92349224D01*
X166462317Y-92644312D01*
X166803045Y-92815159D01*
X167170557Y-92916250D01*
X167550729Y-92943701D01*
X167928951Y-92896457D01*
X168290690Y-92776333D01*
X168537683Y-92644312D01*
X168669619Y-92349224D01*
X167500000Y-91179605D01*
X166330381Y-92349224D01*
X163635000Y-92349224D01*
X163635000Y-91050729D01*
X165556299Y-91050729D01*
X165603543Y-91428951D01*
X165723667Y-91790690D01*
X165855688Y-92037683D01*
X166150776Y-92169619D01*
X167320395Y-91000000D01*
X167679605Y-91000000D01*
X168849224Y-92169619D01*
X169144312Y-92037683D01*
X169315159Y-91696955D01*
X169416250Y-91329443D01*
X169443701Y-90949271D01*
X169396457Y-90571049D01*
X169276333Y-90209310D01*
X169144312Y-89962317D01*
X168849224Y-89830381D01*
X167679605Y-91000000D01*
X167320395Y-91000000D01*
X166150776Y-89830381D01*
X165855688Y-89962317D01*
X165684841Y-90303045D01*
X165583750Y-90670557D01*
X165556299Y-91050729D01*
X163635000Y-91050729D01*
X163635000Y-89650776D01*
X166330381Y-89650776D01*
X167500000Y-90820395D01*
X168669619Y-89650776D01*
X168537683Y-89355688D01*
X168196955Y-89184841D01*
X167829443Y-89083750D01*
X167449271Y-89056299D01*
X167071049Y-89103543D01*
X166709310Y-89223667D01*
X166462317Y-89355688D01*
X166330381Y-89650776D01*
X163635000Y-89650776D01*
X163635000Y-69724052D01*
X163656450Y-69706448D01*
X163798285Y-69533622D01*
X163903677Y-69336446D01*
X163960207Y-69150092D01*
X163968578Y-69122499D01*
X163971658Y-69091225D01*
X163985001Y-68955751D01*
X163985001Y-68955744D01*
X163990491Y-68900000D01*
X163985001Y-68844256D01*
X163985001Y-64018321D01*
X163990492Y-63962569D01*
X163978057Y-63836311D01*
X163968578Y-63740070D01*
X163953716Y-63691077D01*
X163953716Y-62558848D01*
X164158009Y-62763141D01*
X164193551Y-62806449D01*
X164366377Y-62948284D01*
X164563553Y-63053676D01*
X164777501Y-63118577D01*
X165000000Y-63140491D01*
X165055751Y-63135000D01*
X166805752Y-63135000D01*
X166972499Y-63118577D01*
X167186447Y-63053676D01*
X167383623Y-62948284D01*
X167556449Y-62806449D01*
X167698284Y-62633623D01*
X167803676Y-62436447D01*
X167868577Y-62222499D01*
X167890491Y-62000000D01*
X167868577Y-61777501D01*
X167803676Y-61563553D01*
X167698284Y-61366377D01*
X167634701Y-61288901D01*
X167667205Y-61240256D01*
X167745226Y-61051898D01*
X167785000Y-60851939D01*
X167785000Y-60648061D01*
X167745226Y-60448102D01*
X167667205Y-60259744D01*
X167553937Y-60090226D01*
X167510000Y-60046289D01*
X167510000Y-59537322D01*
X167513676Y-59499999D01*
X167510985Y-59472673D01*
X167535000Y-59351939D01*
X167535000Y-59148061D01*
X167495226Y-58948102D01*
X167417205Y-58759744D01*
X167303937Y-58590226D01*
X167159774Y-58446063D01*
X166990256Y-58332795D01*
X166801898Y-58254774D01*
X166601939Y-58215000D01*
X166398061Y-58215000D01*
X166198102Y-58254774D01*
X166009744Y-58332795D01*
X165840226Y-58446063D01*
X165696063Y-58590226D01*
X165582795Y-58759744D01*
X165504774Y-58948102D01*
X165465000Y-59148061D01*
X165465000Y-59351939D01*
X165504774Y-59551898D01*
X165582795Y-59740256D01*
X165696063Y-59909774D01*
X165840226Y-60053937D01*
X165930159Y-60114028D01*
X165832795Y-60259744D01*
X165754774Y-60448102D01*
X165715000Y-60648061D01*
X165715000Y-60851939D01*
X165717598Y-60865000D01*
X165470132Y-60865000D01*
X163341996Y-58736865D01*
X163306449Y-58693551D01*
X163260000Y-58655431D01*
X163260000Y-58289781D01*
X163514781Y-58035000D01*
X163576919Y-58035000D01*
X163776878Y-57995226D01*
X163965236Y-57917205D01*
X164134754Y-57803937D01*
X164278917Y-57659774D01*
X164392185Y-57490256D01*
X164470206Y-57301898D01*
X164509980Y-57101939D01*
X164509980Y-56898061D01*
X164470206Y-56698102D01*
X164392185Y-56509744D01*
X164278917Y-56340226D01*
X164134754Y-56196063D01*
X163965236Y-56082795D01*
X163776878Y-56004774D01*
X163576919Y-55965000D01*
X163373041Y-55965000D01*
X163173082Y-56004774D01*
X162984724Y-56082795D01*
X162815206Y-56196063D01*
X162671043Y-56340226D01*
X162557775Y-56509744D01*
X162479754Y-56698102D01*
X162439980Y-56898061D01*
X162439980Y-56960199D01*
X161988998Y-57411181D01*
X161960000Y-57434979D01*
X161936202Y-57463977D01*
X161936201Y-57463978D01*
X161865026Y-57550704D01*
X161794454Y-57682734D01*
X161750998Y-57825995D01*
X161736324Y-57974980D01*
X161740001Y-58012312D01*
X161740001Y-58365000D01*
X156194248Y-58365000D01*
X156027501Y-58381423D01*
X155813553Y-58446324D01*
X155616377Y-58551716D01*
X155443551Y-58693551D01*
X155301716Y-58866377D01*
X155196324Y-59063553D01*
X155131423Y-59277501D01*
X155109509Y-59500000D01*
X155131423Y-59722499D01*
X155196324Y-59936447D01*
X155291762Y-60115000D01*
X151944248Y-60115000D01*
X151777501Y-60131423D01*
X151563553Y-60196324D01*
X151366377Y-60301716D01*
X151193551Y-60443551D01*
X151051716Y-60616377D01*
X150946324Y-60813553D01*
X150881423Y-61027501D01*
X150859509Y-61250000D01*
X150881423Y-61472499D01*
X150946324Y-61686447D01*
X151051716Y-61883623D01*
X151193551Y-62056449D01*
X151366377Y-62198284D01*
X151563553Y-62303676D01*
X151777501Y-62368577D01*
X151944248Y-62385000D01*
X161279868Y-62385000D01*
X161683716Y-62788848D01*
X161683716Y-63165000D01*
X160613285Y-63165000D01*
X160490256Y-63082795D01*
X160301898Y-63004774D01*
X160101939Y-62965000D01*
X159898061Y-62965000D01*
X159698102Y-63004774D01*
X159509744Y-63082795D01*
X159340226Y-63196063D01*
X159196063Y-63340226D01*
X159082795Y-63509744D01*
X159004774Y-63698102D01*
X158965000Y-63898061D01*
X158965000Y-64101939D01*
X159004774Y-64301898D01*
X159082795Y-64490256D01*
X159196063Y-64659774D01*
X159309107Y-64772818D01*
X159160393Y-64772818D01*
X159119375Y-64768778D01*
X159078357Y-64772818D01*
X159078356Y-64772818D01*
X158955686Y-64784900D01*
X158830357Y-64822918D01*
X158798288Y-64832646D01*
X158653229Y-64910182D01*
X158562112Y-64984960D01*
X158526084Y-65014527D01*
X158499938Y-65046386D01*
X140495424Y-83050902D01*
X140535000Y-82851939D01*
X140535000Y-82648061D01*
X140495226Y-82448102D01*
X140417205Y-82259744D01*
X140303937Y-82090226D01*
X140159774Y-81946063D01*
X139990256Y-81832795D01*
X139801898Y-81754774D01*
X139601939Y-81715000D01*
X139398061Y-81715000D01*
X139198102Y-81754774D01*
X139009744Y-81832795D01*
X138886715Y-81915000D01*
X127291018Y-81915000D01*
X127250000Y-81910960D01*
X127208982Y-81915000D01*
X127208981Y-81915000D01*
X127086311Y-81927082D01*
X126928913Y-81974828D01*
X126783854Y-82052364D01*
X126656709Y-82156709D01*
X126630563Y-82188568D01*
X125343225Y-83475907D01*
X125198102Y-83504774D01*
X125009744Y-83582795D01*
X124840226Y-83696063D01*
X124696063Y-83840226D01*
X124582795Y-84009744D01*
X124504774Y-84198102D01*
X124465000Y-84398061D01*
X124465000Y-84601939D01*
X124504774Y-84801898D01*
X124582795Y-84990256D01*
X124696063Y-85159774D01*
X124739638Y-85203349D01*
X120752669Y-85203349D01*
X120711651Y-85199309D01*
X120670633Y-85203349D01*
X120670632Y-85203349D01*
X120547962Y-85215431D01*
X120485390Y-85234412D01*
X120390564Y-85263177D01*
X120245505Y-85340713D01*
X120158615Y-85412022D01*
X120118360Y-85445058D01*
X120092214Y-85476917D01*
X119093225Y-86475907D01*
X118948102Y-86504774D01*
X118759744Y-86582795D01*
X118590226Y-86696063D01*
X118446063Y-86840226D01*
X118332795Y-87009744D01*
X118254774Y-87198102D01*
X118215000Y-87398061D01*
X118215000Y-87601939D01*
X118254774Y-87801898D01*
X118332795Y-87990256D01*
X118446063Y-88159774D01*
X118590226Y-88303937D01*
X118759744Y-88417205D01*
X118948102Y-88495226D01*
X119148061Y-88535000D01*
X119351939Y-88535000D01*
X119551898Y-88495226D01*
X119740256Y-88417205D01*
X119909774Y-88303937D01*
X120053937Y-88159774D01*
X120167205Y-87990256D01*
X120245226Y-87801898D01*
X120274093Y-87656775D01*
X121057520Y-86873349D01*
X122549279Y-86873349D01*
X116188574Y-93234055D01*
X116156710Y-93260205D01*
X116092012Y-93339040D01*
X116052364Y-93387351D01*
X115974828Y-93532410D01*
X115927082Y-93689808D01*
X115910960Y-93853496D01*
X115915001Y-93894525D01*
X115915000Y-109136715D01*
X115832795Y-109259744D01*
X115754774Y-109448102D01*
X115715000Y-109648061D01*
X108635000Y-109648061D01*
X108635000Y-84470131D01*
X114470132Y-78635000D01*
X140944249Y-78635000D01*
X141000000Y-78640491D01*
X141055751Y-78635000D01*
X141055752Y-78635000D01*
X141222499Y-78618577D01*
X141436447Y-78553676D01*
X141633623Y-78448284D01*
X141806449Y-78306449D01*
X141841996Y-78263135D01*
X145513141Y-74591991D01*
X145556449Y-74556449D01*
X145698284Y-74383623D01*
X145803676Y-74186447D01*
X145868577Y-73972499D01*
X145885000Y-73805752D01*
X145890491Y-73750000D01*
X145885000Y-73694248D01*
X145885000Y-54885413D01*
X149544192Y-54885413D01*
X149639956Y-55149814D01*
X149929571Y-55290704D01*
X150241108Y-55372384D01*
X150562595Y-55391718D01*
X150881675Y-55347961D01*
X151186088Y-55242795D01*
X151360044Y-55149814D01*
X151455808Y-54885413D01*
X150500000Y-53929605D01*
X149544192Y-54885413D01*
X145885000Y-54885413D01*
X145885000Y-53812595D01*
X148858282Y-53812595D01*
X148902039Y-54131675D01*
X149007205Y-54436088D01*
X149100186Y-54610044D01*
X149364587Y-54705808D01*
X150320395Y-53750000D01*
X150679605Y-53750000D01*
X151635413Y-54705808D01*
X151899814Y-54610044D01*
X152040704Y-54320429D01*
X152122384Y-54008892D01*
X152141718Y-53687405D01*
X152097961Y-53368325D01*
X151992795Y-53063912D01*
X151899814Y-52889956D01*
X151635413Y-52794192D01*
X150679605Y-53750000D01*
X150320395Y-53750000D01*
X149364587Y-52794192D01*
X149100186Y-52889956D01*
X148959296Y-53179571D01*
X148877616Y-53491108D01*
X148858282Y-53812595D01*
X145885000Y-53812595D01*
X145885000Y-52614587D01*
X149544192Y-52614587D01*
X150500000Y-53570395D01*
X151455808Y-52614587D01*
X151360044Y-52350186D01*
X151070429Y-52209296D01*
X150758892Y-52127616D01*
X150437405Y-52108282D01*
X150118325Y-52152039D01*
X149813912Y-52257205D01*
X149639956Y-52350186D01*
X149544192Y-52614587D01*
X145885000Y-52614587D01*
X145885000Y-51665752D01*
X145890491Y-51610000D01*
X145868577Y-51387501D01*
X145803676Y-51173553D01*
X145698284Y-50976377D01*
X145591989Y-50846856D01*
X145591987Y-50846854D01*
X145556449Y-50803551D01*
X145513146Y-50768013D01*
X143439293Y-48694162D01*
X143580466Y-48482882D01*
X143722561Y-48139834D01*
X143795000Y-47775656D01*
X143795000Y-47750000D01*
X148861928Y-47750000D01*
X148861928Y-49750000D01*
X148874188Y-49874482D01*
X148910498Y-49994180D01*
X148969463Y-50104494D01*
X149048815Y-50201185D01*
X149145506Y-50280537D01*
X149255820Y-50339502D01*
X149375518Y-50375812D01*
X149500000Y-50388072D01*
X151500000Y-50388072D01*
X151624482Y-50375812D01*
X151744180Y-50339502D01*
X151854494Y-50280537D01*
X151951185Y-50201185D01*
X152030537Y-50104494D01*
X152089502Y-49994180D01*
X152125812Y-49874482D01*
X152138072Y-49750000D01*
X152138072Y-48779872D01*
X165765000Y-48779872D01*
X165765000Y-49220128D01*
X165850890Y-49651925D01*
X166019369Y-50058669D01*
X166263962Y-50424729D01*
X166575271Y-50736038D01*
X166941331Y-50980631D01*
X167348075Y-51149110D01*
X167779872Y-51235000D01*
X168220128Y-51235000D01*
X168651925Y-51149110D01*
X169058669Y-50980631D01*
X169424729Y-50736038D01*
X169736038Y-50424729D01*
X169980631Y-50058669D01*
X170149110Y-49651925D01*
X170235000Y-49220128D01*
X170235000Y-48779872D01*
X170149110Y-48348075D01*
X169980631Y-47941331D01*
X169736038Y-47575271D01*
X169424729Y-47263962D01*
X169058669Y-47019369D01*
X168651925Y-46850890D01*
X168220128Y-46765000D01*
X167779872Y-46765000D01*
X167348075Y-46850890D01*
X166941331Y-47019369D01*
X166575271Y-47263962D01*
X166263962Y-47575271D01*
X166019369Y-47941331D01*
X165850890Y-48348075D01*
X165765000Y-48779872D01*
X152138072Y-48779872D01*
X152138072Y-47750000D01*
X152125812Y-47625518D01*
X152089502Y-47505820D01*
X152030537Y-47395506D01*
X151951185Y-47298815D01*
X151854494Y-47219463D01*
X151744180Y-47160498D01*
X151624482Y-47124188D01*
X151500000Y-47111928D01*
X149500000Y-47111928D01*
X149375518Y-47124188D01*
X149255820Y-47160498D01*
X149145506Y-47219463D01*
X149048815Y-47298815D01*
X148969463Y-47395506D01*
X148910498Y-47505820D01*
X148874188Y-47625518D01*
X148861928Y-47750000D01*
X143795000Y-47750000D01*
X143795000Y-47404344D01*
X143722561Y-47040166D01*
X143580466Y-46697118D01*
X143374175Y-46388382D01*
X143111618Y-46125825D01*
X142802882Y-45919534D01*
X142459834Y-45777439D01*
X142095656Y-45705000D01*
X141724344Y-45705000D01*
X141360166Y-45777439D01*
X141017118Y-45919534D01*
X140708382Y-46125825D01*
X140445825Y-46388382D01*
X140239534Y-46697118D01*
X140097439Y-47040166D01*
X140025000Y-47404344D01*
X140025000Y-47775656D01*
X140097439Y-48139834D01*
X140239534Y-48482882D01*
X140445825Y-48791618D01*
X140708382Y-49054175D01*
X140835999Y-49139446D01*
X140856324Y-49206447D01*
X140961717Y-49403623D01*
X141103552Y-49576449D01*
X141146860Y-49611991D01*
X143615000Y-52080133D01*
X143615000Y-56931662D01*
X143513577Y-56741914D01*
X143223605Y-56616000D01*
X142089605Y-57750000D01*
X143223605Y-58884000D01*
X143513577Y-58758086D01*
X143615000Y-58554934D01*
X143615001Y-64211545D01*
X143582795Y-64259744D01*
X143504774Y-64448102D01*
X143465000Y-64648061D01*
X143465000Y-64851939D01*
X143504774Y-65051898D01*
X143582795Y-65240256D01*
X143615001Y-65288455D01*
X143615001Y-73279867D01*
X140529869Y-76365000D01*
X114055751Y-76365000D01*
X113999999Y-76359509D01*
X113777500Y-76381423D01*
X113727705Y-76396529D01*
X113563553Y-76446324D01*
X113366377Y-76551716D01*
X113193551Y-76693551D01*
X113158011Y-76736857D01*
X106736865Y-83158004D01*
X106693551Y-83193551D01*
X106551716Y-83366377D01*
X106466402Y-83525990D01*
X106446324Y-83563554D01*
X106381423Y-83777502D01*
X106359509Y-84000000D01*
X106365000Y-84055751D01*
X106365001Y-113561928D01*
X106200000Y-113561928D01*
X106075518Y-113574188D01*
X105955820Y-113610498D01*
X105845506Y-113669463D01*
X105748815Y-113748815D01*
X105669463Y-113845506D01*
X105610498Y-113955820D01*
X105574188Y-114075518D01*
X105561928Y-114200000D01*
X101329003Y-114200000D01*
X101058669Y-114019369D01*
X100651925Y-113850890D01*
X100220128Y-113765000D01*
X99779872Y-113765000D01*
X99348075Y-113850890D01*
X98941331Y-114019369D01*
X98575271Y-114263962D01*
X98263962Y-114575271D01*
X98019369Y-114941331D01*
X97850890Y-115348075D01*
X97765000Y-115779872D01*
X95713253Y-115779872D01*
X95660000Y-115726620D01*
X95660000Y-80398061D01*
X97965000Y-80398061D01*
X97965000Y-80601939D01*
X98004774Y-80801898D01*
X98082795Y-80990256D01*
X98165001Y-81113286D01*
X98165000Y-104708982D01*
X98160960Y-104750000D01*
X98165000Y-104791018D01*
X98177082Y-104913688D01*
X98224828Y-105071086D01*
X98302364Y-105216145D01*
X98406709Y-105343291D01*
X98438578Y-105369445D01*
X98475907Y-105406775D01*
X98504774Y-105551898D01*
X98582795Y-105740256D01*
X98696063Y-105909774D01*
X98840226Y-106053937D01*
X99009744Y-106167205D01*
X99198102Y-106245226D01*
X99398061Y-106285000D01*
X99601939Y-106285000D01*
X99801898Y-106245226D01*
X99990256Y-106167205D01*
X100159774Y-106053937D01*
X100303937Y-105909774D01*
X100417205Y-105740256D01*
X100495226Y-105551898D01*
X100535000Y-105351939D01*
X100535000Y-105148061D01*
X100495226Y-104948102D01*
X100417205Y-104759744D01*
X100303937Y-104590226D01*
X100159774Y-104446063D01*
X99990256Y-104332795D01*
X99835000Y-104268485D01*
X99835000Y-81113285D01*
X99917205Y-80990256D01*
X99995226Y-80801898D01*
X100035000Y-80601939D01*
X100035000Y-80398061D01*
X99995226Y-80198102D01*
X99917205Y-80009744D01*
X99803937Y-79840226D01*
X99659774Y-79696063D01*
X99490256Y-79582795D01*
X99301898Y-79504774D01*
X99101939Y-79465000D01*
X98898061Y-79465000D01*
X98698102Y-79504774D01*
X98509744Y-79582795D01*
X98340226Y-79696063D01*
X98196063Y-79840226D01*
X98082795Y-80009744D01*
X98004774Y-80198102D01*
X97965000Y-80398061D01*
X95660000Y-80398061D01*
X95660000Y-71877000D01*
X98659735Y-71877000D01*
X98683638Y-71882081D01*
X98692802Y-71883044D01*
X98935595Y-71906850D01*
X98935598Y-71906850D01*
X98967581Y-71910000D01*
X116782419Y-71910000D01*
X116815632Y-71906729D01*
X116831856Y-71906729D01*
X116841021Y-71905765D01*
X117083457Y-71878572D01*
X117090853Y-71877000D01*
X139000000Y-71877000D01*
X139024776Y-71874560D01*
X139048601Y-71867333D01*
X139070557Y-71855597D01*
X139089803Y-71839803D01*
X139105597Y-71820557D01*
X139117333Y-71798601D01*
X139124560Y-71774776D01*
X139127000Y-71750000D01*
X139127000Y-59063605D01*
X140776000Y-59063605D01*
X140901914Y-59353577D01*
X141234126Y-59519433D01*
X141592312Y-59617290D01*
X141962706Y-59643389D01*
X142331075Y-59596725D01*
X142683262Y-59479094D01*
X142918086Y-59353577D01*
X143044000Y-59063605D01*
X141910000Y-57929605D01*
X140776000Y-59063605D01*
X139127000Y-59063605D01*
X139127000Y-57802706D01*
X140016611Y-57802706D01*
X140063275Y-58171075D01*
X140180906Y-58523262D01*
X140306423Y-58758086D01*
X140596395Y-58884000D01*
X141730395Y-57750000D01*
X140596395Y-56616000D01*
X140306423Y-56741914D01*
X140140567Y-57074126D01*
X140042710Y-57432312D01*
X140016611Y-57802706D01*
X139127000Y-57802706D01*
X139127000Y-56436395D01*
X140776000Y-56436395D01*
X141910000Y-57570395D01*
X143044000Y-56436395D01*
X142918086Y-56146423D01*
X142585874Y-55980567D01*
X142227688Y-55882710D01*
X141857294Y-55856611D01*
X141488925Y-55903275D01*
X141136738Y-56020906D01*
X140901914Y-56146423D01*
X140776000Y-56436395D01*
X139127000Y-56436395D01*
X139127000Y-44660000D01*
X167726620Y-44660000D01*
X172340000Y-49273381D01*
G36*
X125284682Y-88428449D02*
G01*
X125179727Y-88358320D01*
X124918574Y-88250147D01*
X124641335Y-88195000D01*
X124358665Y-88195000D01*
X124081426Y-88250147D01*
X123820273Y-88358320D01*
X123585241Y-88515363D01*
X123385363Y-88715241D01*
X123228320Y-88950273D01*
X123120147Y-89211426D01*
X123065000Y-89488665D01*
X123065000Y-89771335D01*
X123120147Y-90048574D01*
X123228320Y-90309727D01*
X123385363Y-90544759D01*
X123585241Y-90744637D01*
X123820273Y-90901680D01*
X124081426Y-91009853D01*
X124358665Y-91065000D01*
X124641335Y-91065000D01*
X124918574Y-91009853D01*
X125005000Y-90974054D01*
X125004999Y-92564132D01*
X123843225Y-93725907D01*
X123698102Y-93754774D01*
X123509744Y-93832795D01*
X123340226Y-93946063D01*
X123196063Y-94090226D01*
X123082795Y-94259744D01*
X123004774Y-94448102D01*
X122965000Y-94648061D01*
X122965000Y-94851939D01*
X123004774Y-95051898D01*
X123082795Y-95240256D01*
X123196063Y-95409774D01*
X123340226Y-95553937D01*
X123509744Y-95667205D01*
X123698102Y-95745226D01*
X123898061Y-95785000D01*
X124101939Y-95785000D01*
X124301898Y-95745226D01*
X124490256Y-95667205D01*
X124659774Y-95553937D01*
X124803937Y-95409774D01*
X124917205Y-95240256D01*
X124995226Y-95051898D01*
X125024093Y-94906775D01*
X126401432Y-93529437D01*
X126433290Y-93503292D01*
X126537635Y-93376147D01*
X126615171Y-93231088D01*
X126662917Y-93073690D01*
X126674999Y-92951020D01*
X126674999Y-92951019D01*
X126679039Y-92910001D01*
X126674999Y-92868983D01*
X126674999Y-91020509D01*
X126898665Y-91065000D01*
X127181335Y-91065000D01*
X127458574Y-91009853D01*
X127719727Y-90901680D01*
X127954759Y-90744637D01*
X128154637Y-90544759D01*
X128310000Y-90312241D01*
X128465363Y-90544759D01*
X128665241Y-90744637D01*
X128745001Y-90797930D01*
X128745001Y-91574131D01*
X125138580Y-95180553D01*
X125106710Y-95206708D01*
X125027649Y-95303045D01*
X125002365Y-95333854D01*
X124924829Y-95478913D01*
X124877083Y-95636311D01*
X124860961Y-95799999D01*
X124862136Y-95811928D01*
X123700000Y-95811928D01*
X123575518Y-95824188D01*
X123455820Y-95860498D01*
X123345506Y-95919463D01*
X123248815Y-95998815D01*
X123169463Y-96095506D01*
X123110498Y-96205820D01*
X123074188Y-96325518D01*
X123061928Y-96450000D01*
X123061928Y-98050000D01*
X123074188Y-98174482D01*
X123110498Y-98294180D01*
X123169463Y-98404494D01*
X123248815Y-98501185D01*
X123345506Y-98580537D01*
X123455820Y-98639502D01*
X123575518Y-98675812D01*
X123700000Y-98688072D01*
X124865002Y-98688072D01*
X124865002Y-98954130D01*
X117938579Y-105880554D01*
X117906709Y-105906709D01*
X117809490Y-106025172D01*
X117802364Y-106033855D01*
X117724828Y-106178914D01*
X117677082Y-106336312D01*
X117660960Y-106500000D01*
X117665000Y-106541019D01*
X117665000Y-109256444D01*
X117585000Y-109136715D01*
X117585000Y-94199363D01*
X117915001Y-93869362D01*
X117915000Y-95386715D01*
X117832795Y-95509744D01*
X117754774Y-95698102D01*
X117715000Y-95898061D01*
X117715000Y-96101939D01*
X117754774Y-96301898D01*
X117832795Y-96490256D01*
X117946063Y-96659774D01*
X118090226Y-96803937D01*
X118259744Y-96917205D01*
X118448102Y-96995226D01*
X118648061Y-97035000D01*
X118851939Y-97035000D01*
X119051898Y-96995226D01*
X119240256Y-96917205D01*
X119409774Y-96803937D01*
X119553937Y-96659774D01*
X119667205Y-96490256D01*
X119745226Y-96301898D01*
X119785000Y-96101939D01*
X119785000Y-95898061D01*
X119745226Y-95698102D01*
X119667205Y-95509744D01*
X119585000Y-95386715D01*
X119585000Y-93383367D01*
X120194276Y-92774092D01*
X120339398Y-92745226D01*
X120527756Y-92667205D01*
X120697274Y-92553937D01*
X120841437Y-92409774D01*
X120954705Y-92240256D01*
X121032726Y-92051898D01*
X121072500Y-91851939D01*
X121072500Y-91648061D01*
X121032726Y-91448102D01*
X120954705Y-91259744D01*
X120841437Y-91090226D01*
X120767787Y-91016576D01*
X123999366Y-87784998D01*
X125928132Y-87784998D01*
X125284682Y-88428449D01*
G37*
X125284682Y-88428449D02*
X125179727Y-88358320D01*
X124918574Y-88250147D01*
X124641335Y-88195000D01*
X124358665Y-88195000D01*
X124081426Y-88250147D01*
X123820273Y-88358320D01*
X123585241Y-88515363D01*
X123385363Y-88715241D01*
X123228320Y-88950273D01*
X123120147Y-89211426D01*
X123065000Y-89488665D01*
X123065000Y-89771335D01*
X123120147Y-90048574D01*
X123228320Y-90309727D01*
X123385363Y-90544759D01*
X123585241Y-90744637D01*
X123820273Y-90901680D01*
X124081426Y-91009853D01*
X124358665Y-91065000D01*
X124641335Y-91065000D01*
X124918574Y-91009853D01*
X125005000Y-90974054D01*
X125004999Y-92564132D01*
X123843225Y-93725907D01*
X123698102Y-93754774D01*
X123509744Y-93832795D01*
X123340226Y-93946063D01*
X123196063Y-94090226D01*
X123082795Y-94259744D01*
X123004774Y-94448102D01*
X122965000Y-94648061D01*
X122965000Y-94851939D01*
X123004774Y-95051898D01*
X123082795Y-95240256D01*
X123196063Y-95409774D01*
X123340226Y-95553937D01*
X123509744Y-95667205D01*
X123698102Y-95745226D01*
X123898061Y-95785000D01*
X124101939Y-95785000D01*
X124301898Y-95745226D01*
X124490256Y-95667205D01*
X124659774Y-95553937D01*
X124803937Y-95409774D01*
X124917205Y-95240256D01*
X124995226Y-95051898D01*
X125024093Y-94906775D01*
X126401432Y-93529437D01*
X126433290Y-93503292D01*
X126537635Y-93376147D01*
X126615171Y-93231088D01*
X126662917Y-93073690D01*
X126674999Y-92951020D01*
X126674999Y-92951019D01*
X126679039Y-92910001D01*
X126674999Y-92868983D01*
X126674999Y-91020509D01*
X126898665Y-91065000D01*
X127181335Y-91065000D01*
X127458574Y-91009853D01*
X127719727Y-90901680D01*
X127954759Y-90744637D01*
X128154637Y-90544759D01*
X128310000Y-90312241D01*
X128465363Y-90544759D01*
X128665241Y-90744637D01*
X128745001Y-90797930D01*
X128745001Y-91574131D01*
X125138580Y-95180553D01*
X125106710Y-95206708D01*
X125027649Y-95303045D01*
X125002365Y-95333854D01*
X124924829Y-95478913D01*
X124877083Y-95636311D01*
X124860961Y-95799999D01*
X124862136Y-95811928D01*
X123700000Y-95811928D01*
X123575518Y-95824188D01*
X123455820Y-95860498D01*
X123345506Y-95919463D01*
X123248815Y-95998815D01*
X123169463Y-96095506D01*
X123110498Y-96205820D01*
X123074188Y-96325518D01*
X123061928Y-96450000D01*
X123061928Y-98050000D01*
X123074188Y-98174482D01*
X123110498Y-98294180D01*
X123169463Y-98404494D01*
X123248815Y-98501185D01*
X123345506Y-98580537D01*
X123455820Y-98639502D01*
X123575518Y-98675812D01*
X123700000Y-98688072D01*
X124865002Y-98688072D01*
X124865002Y-98954130D01*
X117938579Y-105880554D01*
X117906709Y-105906709D01*
X117809490Y-106025172D01*
X117802364Y-106033855D01*
X117724828Y-106178914D01*
X117677082Y-106336312D01*
X117660960Y-106500000D01*
X117665000Y-106541019D01*
X117665000Y-109256444D01*
X117585000Y-109136715D01*
X117585000Y-94199363D01*
X117915001Y-93869362D01*
X117915000Y-95386715D01*
X117832795Y-95509744D01*
X117754774Y-95698102D01*
X117715000Y-95898061D01*
X117715000Y-96101939D01*
X117754774Y-96301898D01*
X117832795Y-96490256D01*
X117946063Y-96659774D01*
X118090226Y-96803937D01*
X118259744Y-96917205D01*
X118448102Y-96995226D01*
X118648061Y-97035000D01*
X118851939Y-97035000D01*
X119051898Y-96995226D01*
X119240256Y-96917205D01*
X119409774Y-96803937D01*
X119553937Y-96659774D01*
X119667205Y-96490256D01*
X119745226Y-96301898D01*
X119785000Y-96101939D01*
X119785000Y-95898061D01*
X119745226Y-95698102D01*
X119667205Y-95509744D01*
X119585000Y-95386715D01*
X119585000Y-93383367D01*
X120194276Y-92774092D01*
X120339398Y-92745226D01*
X120527756Y-92667205D01*
X120697274Y-92553937D01*
X120841437Y-92409774D01*
X120954705Y-92240256D01*
X121032726Y-92051898D01*
X121072500Y-91851939D01*
X121072500Y-91648061D01*
X121032726Y-91448102D01*
X120954705Y-91259744D01*
X120841437Y-91090226D01*
X120767787Y-91016576D01*
X123999366Y-87784998D01*
X125928132Y-87784998D01*
X125284682Y-88428449D01*
G36*
X151325363Y-90544759D02*
G01*
X151525241Y-90744637D01*
X151760273Y-90901680D01*
X152021426Y-91009853D01*
X152298665Y-91065000D01*
X152581335Y-91065000D01*
X152858574Y-91009853D01*
X152944999Y-90974054D01*
X152944999Y-95905945D01*
X152858574Y-95870147D01*
X152581335Y-95815000D01*
X152298665Y-95815000D01*
X152021426Y-95870147D01*
X151760273Y-95978320D01*
X151525241Y-96135363D01*
X151325363Y-96335241D01*
X151170000Y-96567759D01*
X151014637Y-96335241D01*
X150814759Y-96135363D01*
X150579727Y-95978320D01*
X150318574Y-95870147D01*
X150041335Y-95815000D01*
X149758665Y-95815000D01*
X149481426Y-95870147D01*
X149220273Y-95978320D01*
X148985241Y-96135363D01*
X148785363Y-96335241D01*
X148630000Y-96567759D01*
X148474637Y-96335241D01*
X148274759Y-96135363D01*
X148039727Y-95978320D01*
X147778574Y-95870147D01*
X147501335Y-95815000D01*
X147218665Y-95815000D01*
X146941426Y-95870147D01*
X146680273Y-95978320D01*
X146445241Y-96135363D01*
X146245363Y-96335241D01*
X146090000Y-96567759D01*
X145934637Y-96335241D01*
X145734759Y-96135363D01*
X145499727Y-95978320D01*
X145238574Y-95870147D01*
X144961335Y-95815000D01*
X144678665Y-95815000D01*
X144401426Y-95870147D01*
X144140273Y-95978320D01*
X143905241Y-96135363D01*
X143705363Y-96335241D01*
X143548320Y-96570273D01*
X143543933Y-96580865D01*
X143432385Y-96394869D01*
X143243414Y-96186481D01*
X143017420Y-96018963D01*
X142776007Y-95904860D01*
X146581428Y-92099440D01*
X146613292Y-92073290D01*
X146717637Y-91946145D01*
X146795173Y-91801086D01*
X146842919Y-91643688D01*
X146855001Y-91521018D01*
X146855001Y-91521008D01*
X146859040Y-91480000D01*
X146855001Y-91438992D01*
X146855001Y-90974055D01*
X146941426Y-91009853D01*
X147218665Y-91065000D01*
X147501335Y-91065000D01*
X147778574Y-91009853D01*
X148039727Y-90901680D01*
X148274759Y-90744637D01*
X148474637Y-90544759D01*
X148630000Y-90312241D01*
X148785363Y-90544759D01*
X148985241Y-90744637D01*
X149220273Y-90901680D01*
X149481426Y-91009853D01*
X149758665Y-91065000D01*
X150041335Y-91065000D01*
X150318574Y-91009853D01*
X150579727Y-90901680D01*
X150814759Y-90744637D01*
X151014637Y-90544759D01*
X151170000Y-90312241D01*
X151325363Y-90544759D01*
G37*
X151325363Y-90544759D02*
X151525241Y-90744637D01*
X151760273Y-90901680D01*
X152021426Y-91009853D01*
X152298665Y-91065000D01*
X152581335Y-91065000D01*
X152858574Y-91009853D01*
X152944999Y-90974054D01*
X152944999Y-95905945D01*
X152858574Y-95870147D01*
X152581335Y-95815000D01*
X152298665Y-95815000D01*
X152021426Y-95870147D01*
X151760273Y-95978320D01*
X151525241Y-96135363D01*
X151325363Y-96335241D01*
X151170000Y-96567759D01*
X151014637Y-96335241D01*
X150814759Y-96135363D01*
X150579727Y-95978320D01*
X150318574Y-95870147D01*
X150041335Y-95815000D01*
X149758665Y-95815000D01*
X149481426Y-95870147D01*
X149220273Y-95978320D01*
X148985241Y-96135363D01*
X148785363Y-96335241D01*
X148630000Y-96567759D01*
X148474637Y-96335241D01*
X148274759Y-96135363D01*
X148039727Y-95978320D01*
X147778574Y-95870147D01*
X147501335Y-95815000D01*
X147218665Y-95815000D01*
X146941426Y-95870147D01*
X146680273Y-95978320D01*
X146445241Y-96135363D01*
X146245363Y-96335241D01*
X146090000Y-96567759D01*
X145934637Y-96335241D01*
X145734759Y-96135363D01*
X145499727Y-95978320D01*
X145238574Y-95870147D01*
X144961335Y-95815000D01*
X144678665Y-95815000D01*
X144401426Y-95870147D01*
X144140273Y-95978320D01*
X143905241Y-96135363D01*
X143705363Y-96335241D01*
X143548320Y-96570273D01*
X143543933Y-96580865D01*
X143432385Y-96394869D01*
X143243414Y-96186481D01*
X143017420Y-96018963D01*
X142776007Y-95904860D01*
X146581428Y-92099440D01*
X146613292Y-92073290D01*
X146717637Y-91946145D01*
X146795173Y-91801086D01*
X146842919Y-91643688D01*
X146855001Y-91521018D01*
X146855001Y-91521008D01*
X146859040Y-91480000D01*
X146855001Y-91438992D01*
X146855001Y-90974055D01*
X146941426Y-91009853D01*
X147218665Y-91065000D01*
X147501335Y-91065000D01*
X147778574Y-91009853D01*
X148039727Y-90901680D01*
X148274759Y-90744637D01*
X148474637Y-90544759D01*
X148630000Y-90312241D01*
X148785363Y-90544759D01*
X148985241Y-90744637D01*
X149220273Y-90901680D01*
X149481426Y-91009853D01*
X149758665Y-91065000D01*
X150041335Y-91065000D01*
X150318574Y-91009853D01*
X150579727Y-90901680D01*
X150814759Y-90744637D01*
X151014637Y-90544759D01*
X151170000Y-90312241D01*
X151325363Y-90544759D01*
G36*
X143685000Y-88745716D02*
G01*
X143550000Y-88947759D01*
X143394637Y-88715241D01*
X143194759Y-88515363D01*
X142959727Y-88358320D01*
X142698574Y-88250147D01*
X142421335Y-88195000D01*
X142138665Y-88195000D01*
X141861426Y-88250147D01*
X141600273Y-88358320D01*
X141365241Y-88515363D01*
X141165363Y-88715241D01*
X141008320Y-88950273D01*
X141003933Y-88960865D01*
X140892385Y-88774869D01*
X140703414Y-88566481D01*
X140477420Y-88398963D01*
X140223087Y-88278754D01*
X140089039Y-88238096D01*
X139867000Y-88360085D01*
X139867000Y-89503000D01*
X139887000Y-89503000D01*
X139887000Y-89757000D01*
X139867000Y-89757000D01*
X139867000Y-90899915D01*
X140089039Y-91021904D01*
X140223087Y-90981246D01*
X140477420Y-90861037D01*
X140703414Y-90693519D01*
X140892385Y-90485131D01*
X141003933Y-90299135D01*
X141008320Y-90309727D01*
X141165363Y-90544759D01*
X141365241Y-90744637D01*
X141600273Y-90901680D01*
X141861426Y-91009853D01*
X142138665Y-91065000D01*
X142421335Y-91065000D01*
X142698574Y-91009853D01*
X142959727Y-90901680D01*
X143194759Y-90744637D01*
X143394637Y-90544759D01*
X143550000Y-90312241D01*
X143705363Y-90544759D01*
X143905241Y-90744637D01*
X144140273Y-90901680D01*
X144401426Y-91009853D01*
X144678665Y-91065000D01*
X144961335Y-91065000D01*
X145185002Y-91020509D01*
X145185002Y-91134130D01*
X141704145Y-94614988D01*
X139091019Y-94614988D01*
X139050011Y-94610949D01*
X139009003Y-94614988D01*
X139008993Y-94614988D01*
X138886323Y-94627070D01*
X138728925Y-94674816D01*
X138583866Y-94752352D01*
X138456721Y-94856697D01*
X138430573Y-94888559D01*
X137838579Y-95480553D01*
X137806710Y-95506708D01*
X137718924Y-95613677D01*
X137702365Y-95633854D01*
X137624829Y-95778913D01*
X137598373Y-95866129D01*
X137341335Y-95815000D01*
X137058665Y-95815000D01*
X136781426Y-95870147D01*
X136520273Y-95978320D01*
X136285241Y-96135363D01*
X136085363Y-96335241D01*
X135930000Y-96567759D01*
X135774637Y-96335241D01*
X135574759Y-96135363D01*
X135339727Y-95978320D01*
X135078574Y-95870147D01*
X134801335Y-95815000D01*
X134518665Y-95815000D01*
X134241426Y-95870147D01*
X133980273Y-95978320D01*
X133745241Y-96135363D01*
X133545363Y-96335241D01*
X133390000Y-96567759D01*
X133234637Y-96335241D01*
X133034759Y-96135363D01*
X132799727Y-95978320D01*
X132538574Y-95870147D01*
X132261335Y-95815000D01*
X132195867Y-95815000D01*
X134675868Y-93335000D01*
X136208982Y-93335000D01*
X136250000Y-93339040D01*
X136291018Y-93335000D01*
X136291019Y-93335000D01*
X136413689Y-93322918D01*
X136571087Y-93275172D01*
X136716146Y-93197636D01*
X136843291Y-93093291D01*
X136869446Y-93061421D01*
X139048247Y-90882621D01*
X139256913Y-90981246D01*
X139390961Y-91021904D01*
X139613000Y-90899915D01*
X139613000Y-89757000D01*
X139593000Y-89757000D01*
X139593000Y-89503000D01*
X139613000Y-89503000D01*
X139613000Y-88360085D01*
X139390961Y-88238096D01*
X139374999Y-88242937D01*
X139374999Y-86533061D01*
X143685001Y-82223060D01*
X143685000Y-88745716D01*
G37*
X143685000Y-88745716D02*
X143550000Y-88947759D01*
X143394637Y-88715241D01*
X143194759Y-88515363D01*
X142959727Y-88358320D01*
X142698574Y-88250147D01*
X142421335Y-88195000D01*
X142138665Y-88195000D01*
X141861426Y-88250147D01*
X141600273Y-88358320D01*
X141365241Y-88515363D01*
X141165363Y-88715241D01*
X141008320Y-88950273D01*
X141003933Y-88960865D01*
X140892385Y-88774869D01*
X140703414Y-88566481D01*
X140477420Y-88398963D01*
X140223087Y-88278754D01*
X140089039Y-88238096D01*
X139867000Y-88360085D01*
X139867000Y-89503000D01*
X139887000Y-89503000D01*
X139887000Y-89757000D01*
X139867000Y-89757000D01*
X139867000Y-90899915D01*
X140089039Y-91021904D01*
X140223087Y-90981246D01*
X140477420Y-90861037D01*
X140703414Y-90693519D01*
X140892385Y-90485131D01*
X141003933Y-90299135D01*
X141008320Y-90309727D01*
X141165363Y-90544759D01*
X141365241Y-90744637D01*
X141600273Y-90901680D01*
X141861426Y-91009853D01*
X142138665Y-91065000D01*
X142421335Y-91065000D01*
X142698574Y-91009853D01*
X142959727Y-90901680D01*
X143194759Y-90744637D01*
X143394637Y-90544759D01*
X143550000Y-90312241D01*
X143705363Y-90544759D01*
X143905241Y-90744637D01*
X144140273Y-90901680D01*
X144401426Y-91009853D01*
X144678665Y-91065000D01*
X144961335Y-91065000D01*
X145185002Y-91020509D01*
X145185002Y-91134130D01*
X141704145Y-94614988D01*
X139091019Y-94614988D01*
X139050011Y-94610949D01*
X139009003Y-94614988D01*
X139008993Y-94614988D01*
X138886323Y-94627070D01*
X138728925Y-94674816D01*
X138583866Y-94752352D01*
X138456721Y-94856697D01*
X138430573Y-94888559D01*
X137838579Y-95480553D01*
X137806710Y-95506708D01*
X137718924Y-95613677D01*
X137702365Y-95633854D01*
X137624829Y-95778913D01*
X137598373Y-95866129D01*
X137341335Y-95815000D01*
X137058665Y-95815000D01*
X136781426Y-95870147D01*
X136520273Y-95978320D01*
X136285241Y-96135363D01*
X136085363Y-96335241D01*
X135930000Y-96567759D01*
X135774637Y-96335241D01*
X135574759Y-96135363D01*
X135339727Y-95978320D01*
X135078574Y-95870147D01*
X134801335Y-95815000D01*
X134518665Y-95815000D01*
X134241426Y-95870147D01*
X133980273Y-95978320D01*
X133745241Y-96135363D01*
X133545363Y-96335241D01*
X133390000Y-96567759D01*
X133234637Y-96335241D01*
X133034759Y-96135363D01*
X132799727Y-95978320D01*
X132538574Y-95870147D01*
X132261335Y-95815000D01*
X132195867Y-95815000D01*
X134675868Y-93335000D01*
X136208982Y-93335000D01*
X136250000Y-93339040D01*
X136291018Y-93335000D01*
X136291019Y-93335000D01*
X136413689Y-93322918D01*
X136571087Y-93275172D01*
X136716146Y-93197636D01*
X136843291Y-93093291D01*
X136869446Y-93061421D01*
X139048247Y-90882621D01*
X139256913Y-90981246D01*
X139390961Y-91021904D01*
X139613000Y-90899915D01*
X139613000Y-89757000D01*
X139593000Y-89757000D01*
X139593000Y-89503000D01*
X139613000Y-89503000D01*
X139613000Y-88360085D01*
X139390961Y-88238096D01*
X139374999Y-88242937D01*
X139374999Y-86533061D01*
X143685001Y-82223060D01*
X143685000Y-88745716D01*
G36*
X148394010Y-85453411D02*
G01*
X148556525Y-85696632D01*
X148763368Y-85903475D01*
X149006589Y-86065990D01*
X149276842Y-86177932D01*
X149563740Y-86235000D01*
X149856260Y-86235000D01*
X150143158Y-86177932D01*
X150413411Y-86065990D01*
X150656632Y-85903475D01*
X150788487Y-85771620D01*
X150810498Y-85844180D01*
X150869463Y-85954494D01*
X150948815Y-86051185D01*
X151045506Y-86130537D01*
X151138752Y-86180379D01*
X149338579Y-87980554D01*
X149306709Y-88006709D01*
X149235655Y-88093290D01*
X149202364Y-88133855D01*
X149124828Y-88278914D01*
X149077082Y-88436312D01*
X149075217Y-88455243D01*
X148985241Y-88515363D01*
X148785363Y-88715241D01*
X148630000Y-88947759D01*
X148474637Y-88715241D01*
X148274759Y-88515363D01*
X148195000Y-88462070D01*
X148195000Y-85485867D01*
X148345228Y-85335640D01*
X148394010Y-85453411D01*
G37*
X148394010Y-85453411D02*
X148556525Y-85696632D01*
X148763368Y-85903475D01*
X149006589Y-86065990D01*
X149276842Y-86177932D01*
X149563740Y-86235000D01*
X149856260Y-86235000D01*
X150143158Y-86177932D01*
X150413411Y-86065990D01*
X150656632Y-85903475D01*
X150788487Y-85771620D01*
X150810498Y-85844180D01*
X150869463Y-85954494D01*
X150948815Y-86051185D01*
X151045506Y-86130537D01*
X151138752Y-86180379D01*
X149338579Y-87980554D01*
X149306709Y-88006709D01*
X149235655Y-88093290D01*
X149202364Y-88133855D01*
X149124828Y-88278914D01*
X149077082Y-88436312D01*
X149075217Y-88455243D01*
X148985241Y-88515363D01*
X148785363Y-88715241D01*
X148630000Y-88947759D01*
X148474637Y-88715241D01*
X148274759Y-88515363D01*
X148195000Y-88462070D01*
X148195000Y-85485867D01*
X148345228Y-85335640D01*
X148394010Y-85453411D01*
G36*
X139009744Y-83667205D02*
G01*
X139198102Y-83745226D01*
X139398061Y-83785000D01*
X139601939Y-83785000D01*
X139800902Y-83745424D01*
X137978573Y-85567753D01*
X137946709Y-85593903D01*
X137920561Y-85625765D01*
X137842363Y-85721049D01*
X137764827Y-85866108D01*
X137717081Y-86023506D01*
X137700959Y-86187194D01*
X137705000Y-86228222D01*
X137704999Y-88285946D01*
X137618574Y-88250147D01*
X137341335Y-88195000D01*
X137058665Y-88195000D01*
X136964582Y-88213714D01*
X135139444Y-86388577D01*
X135113289Y-86356707D01*
X134986144Y-86252362D01*
X134868276Y-86189360D01*
X134878037Y-86140288D01*
X134878037Y-85936410D01*
X134838263Y-85736451D01*
X134760242Y-85548093D01*
X134646974Y-85378575D01*
X134502811Y-85234412D01*
X134333293Y-85121144D01*
X134144935Y-85043123D01*
X133944976Y-85003349D01*
X133741098Y-85003349D01*
X133541139Y-85043123D01*
X133352781Y-85121144D01*
X133229752Y-85203349D01*
X126260362Y-85203349D01*
X126303937Y-85159774D01*
X126417205Y-84990256D01*
X126495226Y-84801898D01*
X126524093Y-84656775D01*
X127595869Y-83585000D01*
X138886715Y-83585000D01*
X139009744Y-83667205D01*
G37*
X139009744Y-83667205D02*
X139198102Y-83745226D01*
X139398061Y-83785000D01*
X139601939Y-83785000D01*
X139800902Y-83745424D01*
X137978573Y-85567753D01*
X137946709Y-85593903D01*
X137920561Y-85625765D01*
X137842363Y-85721049D01*
X137764827Y-85866108D01*
X137717081Y-86023506D01*
X137700959Y-86187194D01*
X137705000Y-86228222D01*
X137704999Y-88285946D01*
X137618574Y-88250147D01*
X137341335Y-88195000D01*
X137058665Y-88195000D01*
X136964582Y-88213714D01*
X135139444Y-86388577D01*
X135113289Y-86356707D01*
X134986144Y-86252362D01*
X134868276Y-86189360D01*
X134878037Y-86140288D01*
X134878037Y-85936410D01*
X134838263Y-85736451D01*
X134760242Y-85548093D01*
X134646974Y-85378575D01*
X134502811Y-85234412D01*
X134333293Y-85121144D01*
X134144935Y-85043123D01*
X133944976Y-85003349D01*
X133741098Y-85003349D01*
X133541139Y-85043123D01*
X133352781Y-85121144D01*
X133229752Y-85203349D01*
X126260362Y-85203349D01*
X126303937Y-85159774D01*
X126417205Y-84990256D01*
X126495226Y-84801898D01*
X126524093Y-84656775D01*
X127595869Y-83585000D01*
X138886715Y-83585000D01*
X139009744Y-83667205D01*
G36*
X149837000Y-79543000D02*
G01*
X149857000Y-79543000D01*
X149857000Y-79797000D01*
X149837000Y-79797000D01*
X149837000Y-79817000D01*
X149583000Y-79817000D01*
X149583000Y-79797000D01*
X149563000Y-79797000D01*
X149563000Y-79543000D01*
X149583000Y-79543000D01*
X149583000Y-79523000D01*
X149837000Y-79523000D01*
X149837000Y-79543000D01*
G37*
X149837000Y-79543000D02*
X149857000Y-79543000D01*
X149857000Y-79797000D01*
X149837000Y-79797000D01*
X149837000Y-79817000D01*
X149583000Y-79817000D01*
X149583000Y-79797000D01*
X149563000Y-79797000D01*
X149563000Y-79543000D01*
X149583000Y-79543000D01*
X149583000Y-79523000D01*
X149837000Y-79523000D01*
X149837000Y-79543000D01*
G36*
X160770541Y-66525023D02*
G01*
X160958899Y-66603044D01*
X161158858Y-66642818D01*
X161362736Y-66642818D01*
X161562695Y-66603044D01*
X161715001Y-66539956D01*
X161715001Y-68115000D01*
X157793062Y-68115000D01*
X159465244Y-66442818D01*
X160647512Y-66442818D01*
X160770541Y-66525023D01*
G37*
X160770541Y-66525023D02*
X160958899Y-66603044D01*
X161158858Y-66642818D01*
X161362736Y-66642818D01*
X161562695Y-66603044D01*
X161715001Y-66539956D01*
X161715001Y-68115000D01*
X157793062Y-68115000D01*
X159465244Y-66442818D01*
X160647512Y-66442818D01*
X160770541Y-66525023D01*
%TD*%
M02*
