%TF.GenerationSoftware,KiCad,Pcbnew,(5.1.6)-1*%
%TF.CreationDate,2021-11-18T16:20:29-08:00*%
%TF.ProjectId,well-monitor,77656c6c-2d6d-46f6-9e69-746f722e6b69,rev?*%
%TF.SameCoordinates,Original*%
%TF.FileFunction,Legend,Bot*%
%TF.FilePolarity,Positive*%
%FSLAX46Y46*%
G04 Gerber Fmt 4.6, Leading zero omitted, Abs format (unit mm)*
G04 Created by KiCad (PCBNEW (5.1.6)-1) date 2021-11-18 16:20:29*
%MOMM*%
%LPD*%
G01*
G04 APERTURE LIST*
%ADD10C,0.300000*%
%ADD11C,0.120000*%
G04 APERTURE END LIST*
D10*
X104403571Y-88392857D02*
X104403571Y-87535714D01*
X104403571Y-87964285D02*
X102903571Y-87964285D01*
X103117857Y-87821428D01*
X103260714Y-87678571D01*
X103332142Y-87535714D01*
X104403571Y-88892857D02*
X103403571Y-89678571D01*
X103403571Y-88892857D02*
X104403571Y-89678571D01*
X103046428Y-91321428D02*
X102975000Y-91392857D01*
X102903571Y-91535714D01*
X102903571Y-91892857D01*
X102975000Y-92035714D01*
X103046428Y-92107142D01*
X103189285Y-92178571D01*
X103332142Y-92178571D01*
X103546428Y-92107142D01*
X104403571Y-91250000D01*
X104403571Y-92178571D01*
X102903571Y-93107142D02*
X102903571Y-93250000D01*
X102975000Y-93392857D01*
X103046428Y-93464285D01*
X103189285Y-93535714D01*
X103475000Y-93607142D01*
X103832142Y-93607142D01*
X104117857Y-93535714D01*
X104260714Y-93464285D01*
X104332142Y-93392857D01*
X104403571Y-93250000D01*
X104403571Y-93107142D01*
X104332142Y-92964285D01*
X104260714Y-92892857D01*
X104117857Y-92821428D01*
X103832142Y-92750000D01*
X103475000Y-92750000D01*
X103189285Y-92821428D01*
X103046428Y-92892857D01*
X102975000Y-92964285D01*
X102903571Y-93107142D01*
X102903571Y-94107142D02*
X102903571Y-95035714D01*
X103475000Y-94535714D01*
X103475000Y-94750000D01*
X103546428Y-94892857D01*
X103617857Y-94964285D01*
X103760714Y-95035714D01*
X104117857Y-95035714D01*
X104260714Y-94964285D01*
X104332142Y-94892857D01*
X104403571Y-94750000D01*
X104403571Y-94321428D01*
X104332142Y-94178571D01*
X104260714Y-94107142D01*
X103046428Y-95607142D02*
X102975000Y-95678571D01*
X102903571Y-95821428D01*
X102903571Y-96178571D01*
X102975000Y-96321428D01*
X103046428Y-96392857D01*
X103189285Y-96464285D01*
X103332142Y-96464285D01*
X103546428Y-96392857D01*
X104403571Y-95535714D01*
X104403571Y-96464285D01*
X105453571Y-90857142D02*
X105453571Y-91785714D01*
X106025000Y-91285714D01*
X106025000Y-91500000D01*
X106096428Y-91642857D01*
X106167857Y-91714285D01*
X106310714Y-91785714D01*
X106667857Y-91785714D01*
X106810714Y-91714285D01*
X106882142Y-91642857D01*
X106953571Y-91500000D01*
X106953571Y-91071428D01*
X106882142Y-90928571D01*
X106810714Y-90857142D01*
X105453571Y-92214285D02*
X106953571Y-92714285D01*
X105453571Y-93214285D01*
D11*
X111500000Y-103250000D02*
X95000000Y-103250000D01*
X116250000Y-96500000D02*
X111500000Y-103250000D01*
X116250000Y-88000000D02*
X116250000Y-96500000D01*
X111250000Y-81000000D02*
X116250000Y-88000000D01*
X95000000Y-81000000D02*
X111250000Y-81000000D01*
D10*
X163000000Y-92107142D02*
X162928571Y-91964285D01*
X162928571Y-91750000D01*
X163000000Y-91535714D01*
X163142857Y-91392857D01*
X163285714Y-91321428D01*
X163571428Y-91250000D01*
X163785714Y-91250000D01*
X164071428Y-91321428D01*
X164214285Y-91392857D01*
X164357142Y-91535714D01*
X164428571Y-91750000D01*
X164428571Y-91892857D01*
X164357142Y-92107142D01*
X164285714Y-92178571D01*
X163785714Y-92178571D01*
X163785714Y-91892857D01*
X164428571Y-92821428D02*
X162928571Y-92821428D01*
X164428571Y-93678571D01*
X162928571Y-93678571D01*
X164428571Y-94392857D02*
X162928571Y-94392857D01*
X162928571Y-94750000D01*
X163000000Y-94964285D01*
X163142857Y-95107142D01*
X163285714Y-95178571D01*
X163571428Y-95250000D01*
X163785714Y-95250000D01*
X164071428Y-95178571D01*
X164214285Y-95107142D01*
X164357142Y-94964285D01*
X164428571Y-94750000D01*
X164428571Y-94392857D01*
X163857142Y-100607142D02*
X163857142Y-101750000D01*
X164428571Y-101178571D02*
X163285714Y-101178571D01*
X162928571Y-102321428D02*
X162928571Y-103250000D01*
X163500000Y-102750000D01*
X163500000Y-102964285D01*
X163571428Y-103107142D01*
X163642857Y-103178571D01*
X163785714Y-103250000D01*
X164142857Y-103250000D01*
X164285714Y-103178571D01*
X164357142Y-103107142D01*
X164428571Y-102964285D01*
X164428571Y-102535714D01*
X164357142Y-102392857D01*
X164285714Y-102321428D01*
X162928571Y-103678571D02*
X164428571Y-104178571D01*
X162928571Y-104678571D01*
X162928571Y-105035714D02*
X162928571Y-105964285D01*
X163500000Y-105464285D01*
X163500000Y-105678571D01*
X163571428Y-105821428D01*
X163642857Y-105892857D01*
X163785714Y-105964285D01*
X164142857Y-105964285D01*
X164285714Y-105892857D01*
X164357142Y-105821428D01*
X164428571Y-105678571D01*
X164428571Y-105250000D01*
X164357142Y-105107142D01*
X164285714Y-105035714D01*
D11*
X158500000Y-106000000D02*
X163250000Y-110750000D01*
X117250000Y-106000000D02*
X158500000Y-106000000D01*
X163250000Y-121000000D02*
X163250000Y-110750000D01*
X117250000Y-121000000D02*
X117250000Y-106000000D01*
D10*
X141750000Y-107000000D02*
X141892857Y-106928571D01*
X142107142Y-106928571D01*
X142321428Y-107000000D01*
X142464285Y-107142857D01*
X142535714Y-107285714D01*
X142607142Y-107571428D01*
X142607142Y-107785714D01*
X142535714Y-108071428D01*
X142464285Y-108214285D01*
X142321428Y-108357142D01*
X142107142Y-108428571D01*
X141964285Y-108428571D01*
X141750000Y-108357142D01*
X141678571Y-108285714D01*
X141678571Y-107785714D01*
X141964285Y-107785714D01*
X141035714Y-108428571D02*
X141035714Y-106928571D01*
X140464285Y-106928571D01*
X140321428Y-107000000D01*
X140250000Y-107071428D01*
X140178571Y-107214285D01*
X140178571Y-107428571D01*
X140250000Y-107571428D01*
X140321428Y-107642857D01*
X140464285Y-107714285D01*
X141035714Y-107714285D01*
X139535714Y-108428571D02*
X139535714Y-106928571D01*
X138535714Y-106928571D02*
X138250000Y-106928571D01*
X138107142Y-107000000D01*
X137964285Y-107142857D01*
X137892857Y-107428571D01*
X137892857Y-107928571D01*
X137964285Y-108214285D01*
X138107142Y-108357142D01*
X138250000Y-108428571D01*
X138535714Y-108428571D01*
X138678571Y-108357142D01*
X138821428Y-108214285D01*
X138892857Y-107928571D01*
X138892857Y-107428571D01*
X138821428Y-107142857D01*
X138678571Y-107000000D01*
X138535714Y-106928571D01*
D11*
X103750000Y-106000000D02*
X103750000Y-121000000D01*
X116250000Y-106000000D02*
X103750000Y-106000000D01*
X116250000Y-121000000D02*
X116250000Y-106000000D01*
D10*
X113321428Y-111857142D02*
X112178571Y-111857142D01*
X108071428Y-111607142D02*
X106928571Y-111607142D01*
X107500000Y-112178571D02*
X107500000Y-111035714D01*
X113178571Y-108678571D02*
X113178571Y-107178571D01*
X112821428Y-107178571D01*
X112607142Y-107250000D01*
X112464285Y-107392857D01*
X112392857Y-107535714D01*
X112321428Y-107821428D01*
X112321428Y-108035714D01*
X112392857Y-108321428D01*
X112464285Y-108464285D01*
X112607142Y-108607142D01*
X112821428Y-108678571D01*
X113178571Y-108678571D01*
X111678571Y-107892857D02*
X111178571Y-107892857D01*
X110964285Y-108678571D02*
X111678571Y-108678571D01*
X111678571Y-107178571D01*
X110964285Y-107178571D01*
X110321428Y-108678571D02*
X110321428Y-107178571D01*
X109750000Y-107178571D01*
X109607142Y-107250000D01*
X109535714Y-107321428D01*
X109464285Y-107464285D01*
X109464285Y-107678571D01*
X109535714Y-107821428D01*
X109607142Y-107892857D01*
X109750000Y-107964285D01*
X110321428Y-107964285D01*
X109035714Y-107178571D02*
X108178571Y-107178571D01*
X108607142Y-108678571D02*
X108607142Y-107178571D01*
X107678571Y-108678571D02*
X107678571Y-107178571D01*
X107678571Y-107892857D02*
X106821428Y-107892857D01*
X106821428Y-108678571D02*
X106821428Y-107178571D01*
D11*
X139000000Y-70000000D02*
X139000000Y-44000000D01*
X118250000Y-70000000D02*
X139000000Y-70000000D01*
X95000000Y-70000000D02*
X97750000Y-70000000D01*
D10*
X134714285Y-59475000D02*
X134000000Y-59475000D01*
X134857142Y-59903571D02*
X134357142Y-58403571D01*
X133857142Y-59903571D01*
X132500000Y-59760714D02*
X132571428Y-59832142D01*
X132785714Y-59903571D01*
X132928571Y-59903571D01*
X133142857Y-59832142D01*
X133285714Y-59689285D01*
X133357142Y-59546428D01*
X133428571Y-59260714D01*
X133428571Y-59046428D01*
X133357142Y-58760714D01*
X133285714Y-58617857D01*
X133142857Y-58475000D01*
X132928571Y-58403571D01*
X132785714Y-58403571D01*
X132571428Y-58475000D01*
X132500000Y-58546428D01*
X129928571Y-59903571D02*
X130785714Y-59903571D01*
X130357142Y-59903571D02*
X130357142Y-58403571D01*
X130500000Y-58617857D01*
X130642857Y-58760714D01*
X130785714Y-58832142D01*
X128500000Y-59903571D02*
X129357142Y-59903571D01*
X128928571Y-59903571D02*
X128928571Y-58403571D01*
X129071428Y-58617857D01*
X129214285Y-58760714D01*
X129357142Y-58832142D01*
X127142857Y-58403571D02*
X127857142Y-58403571D01*
X127928571Y-59117857D01*
X127857142Y-59046428D01*
X127714285Y-58975000D01*
X127357142Y-58975000D01*
X127214285Y-59046428D01*
X127142857Y-59117857D01*
X127071428Y-59260714D01*
X127071428Y-59617857D01*
X127142857Y-59760714D01*
X127214285Y-59832142D01*
X127357142Y-59903571D01*
X127714285Y-59903571D01*
X127857142Y-59832142D01*
X127928571Y-59760714D01*
X126428571Y-59332142D02*
X125285714Y-59332142D01*
X124642857Y-58546428D02*
X124571428Y-58475000D01*
X124428571Y-58403571D01*
X124071428Y-58403571D01*
X123928571Y-58475000D01*
X123857142Y-58546428D01*
X123785714Y-58689285D01*
X123785714Y-58832142D01*
X123857142Y-59046428D01*
X124714285Y-59903571D01*
X123785714Y-59903571D01*
X122500000Y-58903571D02*
X122500000Y-59903571D01*
X122857142Y-58332142D02*
X123214285Y-59403571D01*
X122285714Y-59403571D01*
X121428571Y-58403571D02*
X121285714Y-58403571D01*
X121142857Y-58475000D01*
X121071428Y-58546428D01*
X121000000Y-58689285D01*
X120928571Y-58975000D01*
X120928571Y-59332142D01*
X121000000Y-59617857D01*
X121071428Y-59760714D01*
X121142857Y-59832142D01*
X121285714Y-59903571D01*
X121428571Y-59903571D01*
X121571428Y-59832142D01*
X121642857Y-59760714D01*
X121714285Y-59617857D01*
X121785714Y-59332142D01*
X121785714Y-58975000D01*
X121714285Y-58689285D01*
X121642857Y-58546428D01*
X121571428Y-58475000D01*
X121428571Y-58403571D01*
X117285714Y-58403571D02*
X118000000Y-58403571D01*
X118071428Y-59117857D01*
X118000000Y-59046428D01*
X117857142Y-58975000D01*
X117500000Y-58975000D01*
X117357142Y-59046428D01*
X117285714Y-59117857D01*
X117214285Y-59260714D01*
X117214285Y-59617857D01*
X117285714Y-59760714D01*
X117357142Y-59832142D01*
X117500000Y-59903571D01*
X117857142Y-59903571D01*
X118000000Y-59832142D01*
X118071428Y-59760714D01*
X116285714Y-58403571D02*
X116142857Y-58403571D01*
X116000000Y-58475000D01*
X115928571Y-58546428D01*
X115857142Y-58689285D01*
X115785714Y-58975000D01*
X115785714Y-59332142D01*
X115857142Y-59617857D01*
X115928571Y-59760714D01*
X116000000Y-59832142D01*
X116142857Y-59903571D01*
X116285714Y-59903571D01*
X116428571Y-59832142D01*
X116500000Y-59760714D01*
X116571428Y-59617857D01*
X116642857Y-59332142D01*
X116642857Y-58975000D01*
X116571428Y-58689285D01*
X116500000Y-58546428D01*
X116428571Y-58475000D01*
X116285714Y-58403571D01*
X115142857Y-59332142D02*
X114000000Y-59332142D01*
X112642857Y-58403571D02*
X112928571Y-58403571D01*
X113071428Y-58475000D01*
X113142857Y-58546428D01*
X113285714Y-58760714D01*
X113357142Y-59046428D01*
X113357142Y-59617857D01*
X113285714Y-59760714D01*
X113214285Y-59832142D01*
X113071428Y-59903571D01*
X112785714Y-59903571D01*
X112642857Y-59832142D01*
X112571428Y-59760714D01*
X112500000Y-59617857D01*
X112500000Y-59260714D01*
X112571428Y-59117857D01*
X112642857Y-59046428D01*
X112785714Y-58975000D01*
X113071428Y-58975000D01*
X113214285Y-59046428D01*
X113285714Y-59117857D01*
X113357142Y-59260714D01*
X111571428Y-58403571D02*
X111428571Y-58403571D01*
X111285714Y-58475000D01*
X111214285Y-58546428D01*
X111142857Y-58689285D01*
X111071428Y-58975000D01*
X111071428Y-59332142D01*
X111142857Y-59617857D01*
X111214285Y-59760714D01*
X111285714Y-59832142D01*
X111428571Y-59903571D01*
X111571428Y-59903571D01*
X111714285Y-59832142D01*
X111785714Y-59760714D01*
X111857142Y-59617857D01*
X111928571Y-59332142D01*
X111928571Y-58975000D01*
X111857142Y-58689285D01*
X111785714Y-58546428D01*
X111714285Y-58475000D01*
X111571428Y-58403571D01*
X110428571Y-59903571D02*
X110428571Y-58403571D01*
X110428571Y-59117857D02*
X109571428Y-59117857D01*
X109571428Y-59903571D02*
X109571428Y-58403571D01*
X109000000Y-58903571D02*
X108214285Y-58903571D01*
X109000000Y-59903571D01*
X108214285Y-59903571D01*
X136928571Y-62453571D02*
X136928571Y-60953571D01*
X136571428Y-60953571D01*
X136357142Y-61025000D01*
X136214285Y-61167857D01*
X136142857Y-61310714D01*
X136071428Y-61596428D01*
X136071428Y-61810714D01*
X136142857Y-62096428D01*
X136214285Y-62239285D01*
X136357142Y-62382142D01*
X136571428Y-62453571D01*
X136928571Y-62453571D01*
X135428571Y-62453571D02*
X135428571Y-61453571D01*
X135428571Y-60953571D02*
X135500000Y-61025000D01*
X135428571Y-61096428D01*
X135357142Y-61025000D01*
X135428571Y-60953571D01*
X135428571Y-61096428D01*
X134785714Y-62382142D02*
X134642857Y-62453571D01*
X134357142Y-62453571D01*
X134214285Y-62382142D01*
X134142857Y-62239285D01*
X134142857Y-62167857D01*
X134214285Y-62025000D01*
X134357142Y-61953571D01*
X134571428Y-61953571D01*
X134714285Y-61882142D01*
X134785714Y-61739285D01*
X134785714Y-61667857D01*
X134714285Y-61525000D01*
X134571428Y-61453571D01*
X134357142Y-61453571D01*
X134214285Y-61525000D01*
X132857142Y-62382142D02*
X133000000Y-62453571D01*
X133285714Y-62453571D01*
X133428571Y-62382142D01*
X133500000Y-62310714D01*
X133571428Y-62167857D01*
X133571428Y-61739285D01*
X133500000Y-61596428D01*
X133428571Y-61525000D01*
X133285714Y-61453571D01*
X133000000Y-61453571D01*
X132857142Y-61525000D01*
X132000000Y-62453571D02*
X132142857Y-62382142D01*
X132214285Y-62310714D01*
X132285714Y-62167857D01*
X132285714Y-61739285D01*
X132214285Y-61596428D01*
X132142857Y-61525000D01*
X132000000Y-61453571D01*
X131785714Y-61453571D01*
X131642857Y-61525000D01*
X131571428Y-61596428D01*
X131500000Y-61739285D01*
X131500000Y-62167857D01*
X131571428Y-62310714D01*
X131642857Y-62382142D01*
X131785714Y-62453571D01*
X132000000Y-62453571D01*
X130857142Y-61453571D02*
X130857142Y-62453571D01*
X130857142Y-61596428D02*
X130785714Y-61525000D01*
X130642857Y-61453571D01*
X130428571Y-61453571D01*
X130285714Y-61525000D01*
X130214285Y-61667857D01*
X130214285Y-62453571D01*
X129500000Y-61453571D02*
X129500000Y-62453571D01*
X129500000Y-61596428D02*
X129428571Y-61525000D01*
X129285714Y-61453571D01*
X129071428Y-61453571D01*
X128928571Y-61525000D01*
X128857142Y-61667857D01*
X128857142Y-62453571D01*
X127571428Y-62382142D02*
X127714285Y-62453571D01*
X128000000Y-62453571D01*
X128142857Y-62382142D01*
X128214285Y-62239285D01*
X128214285Y-61667857D01*
X128142857Y-61525000D01*
X128000000Y-61453571D01*
X127714285Y-61453571D01*
X127571428Y-61525000D01*
X127500000Y-61667857D01*
X127500000Y-61810714D01*
X128214285Y-61953571D01*
X126214285Y-62382142D02*
X126357142Y-62453571D01*
X126642857Y-62453571D01*
X126785714Y-62382142D01*
X126857142Y-62310714D01*
X126928571Y-62167857D01*
X126928571Y-61739285D01*
X126857142Y-61596428D01*
X126785714Y-61525000D01*
X126642857Y-61453571D01*
X126357142Y-61453571D01*
X126214285Y-61525000D01*
X125785714Y-61453571D02*
X125214285Y-61453571D01*
X125571428Y-60953571D02*
X125571428Y-62239285D01*
X125500000Y-62382142D01*
X125357142Y-62453571D01*
X125214285Y-62453571D01*
X123571428Y-62453571D02*
X123571428Y-60953571D01*
X123571428Y-61525000D02*
X123428571Y-61453571D01*
X123142857Y-61453571D01*
X123000000Y-61525000D01*
X122928571Y-61596428D01*
X122857142Y-61739285D01*
X122857142Y-62167857D01*
X122928571Y-62310714D01*
X123000000Y-62382142D01*
X123142857Y-62453571D01*
X123428571Y-62453571D01*
X123571428Y-62382142D01*
X121642857Y-62382142D02*
X121785714Y-62453571D01*
X122071428Y-62453571D01*
X122214285Y-62382142D01*
X122285714Y-62239285D01*
X122285714Y-61667857D01*
X122214285Y-61525000D01*
X122071428Y-61453571D01*
X121785714Y-61453571D01*
X121642857Y-61525000D01*
X121571428Y-61667857D01*
X121571428Y-61810714D01*
X122285714Y-61953571D01*
X121142857Y-61453571D02*
X120571428Y-61453571D01*
X120928571Y-62453571D02*
X120928571Y-61167857D01*
X120857142Y-61025000D01*
X120714285Y-60953571D01*
X120571428Y-60953571D01*
X119857142Y-62453571D02*
X120000000Y-62382142D01*
X120071428Y-62310714D01*
X120142857Y-62167857D01*
X120142857Y-61739285D01*
X120071428Y-61596428D01*
X120000000Y-61525000D01*
X119857142Y-61453571D01*
X119642857Y-61453571D01*
X119500000Y-61525000D01*
X119428571Y-61596428D01*
X119357142Y-61739285D01*
X119357142Y-62167857D01*
X119428571Y-62310714D01*
X119500000Y-62382142D01*
X119642857Y-62453571D01*
X119857142Y-62453571D01*
X118714285Y-62453571D02*
X118714285Y-61453571D01*
X118714285Y-61739285D02*
X118642857Y-61596428D01*
X118571428Y-61525000D01*
X118428571Y-61453571D01*
X118285714Y-61453571D01*
X117214285Y-62382142D02*
X117357142Y-62453571D01*
X117642857Y-62453571D01*
X117785714Y-62382142D01*
X117857142Y-62239285D01*
X117857142Y-61667857D01*
X117785714Y-61525000D01*
X117642857Y-61453571D01*
X117357142Y-61453571D01*
X117214285Y-61525000D01*
X117142857Y-61667857D01*
X117142857Y-61810714D01*
X117857142Y-61953571D01*
X115428571Y-62382142D02*
X115285714Y-62453571D01*
X115000000Y-62453571D01*
X114857142Y-62382142D01*
X114785714Y-62239285D01*
X114785714Y-62167857D01*
X114857142Y-62025000D01*
X115000000Y-61953571D01*
X115214285Y-61953571D01*
X115357142Y-61882142D01*
X115428571Y-61739285D01*
X115428571Y-61667857D01*
X115357142Y-61525000D01*
X115214285Y-61453571D01*
X115000000Y-61453571D01*
X114857142Y-61525000D01*
X113571428Y-62382142D02*
X113714285Y-62453571D01*
X114000000Y-62453571D01*
X114142857Y-62382142D01*
X114214285Y-62239285D01*
X114214285Y-61667857D01*
X114142857Y-61525000D01*
X114000000Y-61453571D01*
X113714285Y-61453571D01*
X113571428Y-61525000D01*
X113500000Y-61667857D01*
X113500000Y-61810714D01*
X114214285Y-61953571D01*
X112857142Y-62453571D02*
X112857142Y-61453571D01*
X112857142Y-61739285D02*
X112785714Y-61596428D01*
X112714285Y-61525000D01*
X112571428Y-61453571D01*
X112428571Y-61453571D01*
X112071428Y-61453571D02*
X111714285Y-62453571D01*
X111357142Y-61453571D01*
X110785714Y-62453571D02*
X110785714Y-61453571D01*
X110785714Y-60953571D02*
X110857142Y-61025000D01*
X110785714Y-61096428D01*
X110714285Y-61025000D01*
X110785714Y-60953571D01*
X110785714Y-61096428D01*
X109428571Y-62382142D02*
X109571428Y-62453571D01*
X109857142Y-62453571D01*
X110000000Y-62382142D01*
X110071428Y-62310714D01*
X110142857Y-62167857D01*
X110142857Y-61739285D01*
X110071428Y-61596428D01*
X110000000Y-61525000D01*
X109857142Y-61453571D01*
X109571428Y-61453571D01*
X109428571Y-61525000D01*
X108785714Y-62453571D02*
X108785714Y-61453571D01*
X108785714Y-60953571D02*
X108857142Y-61025000D01*
X108785714Y-61096428D01*
X108714285Y-61025000D01*
X108785714Y-60953571D01*
X108785714Y-61096428D01*
X108071428Y-61453571D02*
X108071428Y-62453571D01*
X108071428Y-61596428D02*
X108000000Y-61525000D01*
X107857142Y-61453571D01*
X107642857Y-61453571D01*
X107500000Y-61525000D01*
X107428571Y-61667857D01*
X107428571Y-62453571D01*
X106071428Y-61453571D02*
X106071428Y-62667857D01*
X106142857Y-62810714D01*
X106214285Y-62882142D01*
X106357142Y-62953571D01*
X106571428Y-62953571D01*
X106714285Y-62882142D01*
X106071428Y-62382142D02*
X106214285Y-62453571D01*
X106500000Y-62453571D01*
X106642857Y-62382142D01*
X106714285Y-62310714D01*
X106785714Y-62167857D01*
X106785714Y-61739285D01*
X106714285Y-61596428D01*
X106642857Y-61525000D01*
X106500000Y-61453571D01*
X106214285Y-61453571D01*
X106071428Y-61525000D01*
M02*
