%TF.GenerationSoftware,KiCad,Pcbnew,(5.1.6)-1*%
%TF.CreationDate,2021-11-03T21:47:23-07:00*%
%TF.ProjectId,well-monitor,77656c6c-2d6d-46f6-9e69-746f722e6b69,rev?*%
%TF.SameCoordinates,Original*%
%TF.FileFunction,Soldermask,Bot*%
%TF.FilePolarity,Negative*%
%FSLAX46Y46*%
G04 Gerber Fmt 4.6, Leading zero omitted, Abs format (unit mm)*
G04 Created by KiCad (PCBNEW (5.1.6)-1) date 2021-11-03 21:47:23*
%MOMM*%
%LPD*%
G01*
G04 APERTURE LIST*
%ADD10O,2.500000X2.500000*%
%ADD11C,2.500000*%
%ADD12C,3.300000*%
%ADD13O,2.000000X1.150000*%
%ADD14C,2.700000*%
%ADD15R,2.700000X2.700000*%
%ADD16C,1.900000*%
%ADD17C,2.100000*%
%ADD18R,2.100000X2.100000*%
%ADD19C,1.600000*%
%ADD20C,2.600000*%
%ADD21O,1.800000X1.800000*%
%ADD22R,1.800000X1.800000*%
%ADD23O,1.700000X1.700000*%
%ADD24R,1.700000X1.700000*%
G04 APERTURE END LIST*
D10*
%TO.C,R6*%
X108500000Y-45880000D03*
D11*
X108500000Y-53500000D03*
%TD*%
D12*
%TO.C,H4*%
X100000000Y-116000000D03*
%TD*%
%TO.C,H3*%
X168000000Y-116000000D03*
%TD*%
%TO.C,H2*%
X168000000Y-49000000D03*
%TD*%
%TO.C,H1*%
X100000000Y-49000000D03*
%TD*%
D13*
%TO.C,J6*%
X171550000Y-56425000D03*
X171550000Y-63575000D03*
%TD*%
D14*
%TO.C,J8*%
X112500000Y-115500000D03*
D15*
X107500000Y-115500000D03*
%TD*%
D14*
%TO.C,J5*%
X100500000Y-64250000D03*
D15*
X100500000Y-59250000D03*
%TD*%
D14*
%TO.C,J3*%
X159500000Y-115500000D03*
X154500000Y-115500000D03*
X149500000Y-115500000D03*
D15*
X144500000Y-115500000D03*
%TD*%
D14*
%TO.C,J2*%
X136000000Y-115500000D03*
X131000000Y-115500000D03*
X126000000Y-115500000D03*
D15*
X121000000Y-115500000D03*
%TD*%
D14*
%TO.C,J1*%
X167500000Y-91000000D03*
X167500000Y-96000000D03*
X167500000Y-101000000D03*
D15*
X167500000Y-106000000D03*
%TD*%
D16*
%TO.C,RV1*%
X109650000Y-59500000D03*
X107250000Y-67000000D03*
%TD*%
D17*
%TO.C,C16*%
X145000000Y-53750000D03*
D18*
X145000000Y-48750000D03*
%TD*%
D19*
%TO.C,Y2*%
X148880000Y-103250000D03*
X144000000Y-103250000D03*
%TD*%
D20*
%TO.C,U2*%
X135410000Y-47590000D03*
X115090000Y-52670000D03*
X115090000Y-47590000D03*
X135410000Y-57750000D03*
%TD*%
D17*
%TO.C,SW1*%
X133200000Y-104250000D03*
X126800000Y-104250000D03*
%TD*%
D21*
%TO.C,J4*%
X149710000Y-79670000D03*
X152250000Y-79670000D03*
X149710000Y-82210000D03*
X152250000Y-82210000D03*
X149710000Y-84750000D03*
D22*
X152250000Y-84750000D03*
%TD*%
D23*
%TO.C,U1*%
X124500000Y-89630000D03*
X157520000Y-97250000D03*
X127040000Y-89630000D03*
X154980000Y-97250000D03*
X129580000Y-89630000D03*
X152440000Y-97250000D03*
X132120000Y-89630000D03*
X149900000Y-97250000D03*
X134660000Y-89630000D03*
X147360000Y-97250000D03*
X137200000Y-89630000D03*
X144820000Y-97250000D03*
X139740000Y-89630000D03*
X142280000Y-97250000D03*
X142280000Y-89630000D03*
X139740000Y-97250000D03*
X144820000Y-89630000D03*
X137200000Y-97250000D03*
X147360000Y-89630000D03*
X134660000Y-97250000D03*
X149900000Y-89630000D03*
X132120000Y-97250000D03*
X152440000Y-89630000D03*
X129580000Y-97250000D03*
X154980000Y-89630000D03*
X127040000Y-97250000D03*
X157520000Y-89630000D03*
D24*
X124500000Y-97250000D03*
%TD*%
M02*
