%TF.GenerationSoftware,KiCad,Pcbnew,(5.1.6)-1*%
%TF.CreationDate,2021-11-03T21:47:23-07:00*%
%TF.ProjectId,well-monitor,77656c6c-2d6d-46f6-9e69-746f722e6b69,rev?*%
%TF.SameCoordinates,Original*%
%TF.FileFunction,Legend,Top*%
%TF.FilePolarity,Positive*%
%FSLAX46Y46*%
G04 Gerber Fmt 4.6, Leading zero omitted, Abs format (unit mm)*
G04 Created by KiCad (PCBNEW (5.1.6)-1) date 2021-11-03 21:47:23*
%MOMM*%
%LPD*%
G01*
G04 APERTURE LIST*
%ADD10C,0.300000*%
%ADD11C,0.120000*%
%ADD12C,0.150000*%
G04 APERTURE END LIST*
D10*
X123130952Y-75754761D02*
X123607142Y-77754761D01*
X123988095Y-76326190D01*
X124369047Y-77754761D01*
X124845238Y-75754761D01*
X126369047Y-77659523D02*
X126178571Y-77754761D01*
X125797619Y-77754761D01*
X125607142Y-77659523D01*
X125511904Y-77469047D01*
X125511904Y-76707142D01*
X125607142Y-76516666D01*
X125797619Y-76421428D01*
X126178571Y-76421428D01*
X126369047Y-76516666D01*
X126464285Y-76707142D01*
X126464285Y-76897619D01*
X125511904Y-77088095D01*
X127607142Y-77754761D02*
X127416666Y-77659523D01*
X127321428Y-77469047D01*
X127321428Y-75754761D01*
X128654761Y-77754761D02*
X128464285Y-77659523D01*
X128369047Y-77469047D01*
X128369047Y-75754761D01*
X130940476Y-77754761D02*
X130940476Y-75754761D01*
X131607142Y-77183333D01*
X132273809Y-75754761D01*
X132273809Y-77754761D01*
X133511904Y-77754761D02*
X133321428Y-77659523D01*
X133226190Y-77564285D01*
X133130952Y-77373809D01*
X133130952Y-76802380D01*
X133226190Y-76611904D01*
X133321428Y-76516666D01*
X133511904Y-76421428D01*
X133797619Y-76421428D01*
X133988095Y-76516666D01*
X134083333Y-76611904D01*
X134178571Y-76802380D01*
X134178571Y-77373809D01*
X134083333Y-77564285D01*
X133988095Y-77659523D01*
X133797619Y-77754761D01*
X133511904Y-77754761D01*
X135035714Y-76421428D02*
X135035714Y-77754761D01*
X135035714Y-76611904D02*
X135130952Y-76516666D01*
X135321428Y-76421428D01*
X135607142Y-76421428D01*
X135797619Y-76516666D01*
X135892857Y-76707142D01*
X135892857Y-77754761D01*
X136845238Y-77754761D02*
X136845238Y-76421428D01*
X136845238Y-75754761D02*
X136750000Y-75850000D01*
X136845238Y-75945238D01*
X136940476Y-75850000D01*
X136845238Y-75754761D01*
X136845238Y-75945238D01*
X137511904Y-76421428D02*
X138273809Y-76421428D01*
X137797619Y-75754761D02*
X137797619Y-77469047D01*
X137892857Y-77659523D01*
X138083333Y-77754761D01*
X138273809Y-77754761D01*
X139226190Y-77754761D02*
X139035714Y-77659523D01*
X138940476Y-77564285D01*
X138845238Y-77373809D01*
X138845238Y-76802380D01*
X138940476Y-76611904D01*
X139035714Y-76516666D01*
X139226190Y-76421428D01*
X139511904Y-76421428D01*
X139702380Y-76516666D01*
X139797619Y-76611904D01*
X139892857Y-76802380D01*
X139892857Y-77373809D01*
X139797619Y-77564285D01*
X139702380Y-77659523D01*
X139511904Y-77754761D01*
X139226190Y-77754761D01*
X140750000Y-77754761D02*
X140750000Y-76421428D01*
X140750000Y-76802380D02*
X140845238Y-76611904D01*
X140940476Y-76516666D01*
X141130952Y-76421428D01*
X141321428Y-76421428D01*
X143226190Y-75754761D02*
X143892857Y-77754761D01*
X144559523Y-75754761D01*
X145607142Y-75754761D02*
X145797619Y-75754761D01*
X145988095Y-75850000D01*
X146083333Y-75945238D01*
X146178571Y-76135714D01*
X146273809Y-76516666D01*
X146273809Y-76992857D01*
X146178571Y-77373809D01*
X146083333Y-77564285D01*
X145988095Y-77659523D01*
X145797619Y-77754761D01*
X145607142Y-77754761D01*
X145416666Y-77659523D01*
X145321428Y-77564285D01*
X145226190Y-77373809D01*
X145130952Y-76992857D01*
X145130952Y-76516666D01*
X145226190Y-76135714D01*
X145321428Y-75945238D01*
X145416666Y-75850000D01*
X145607142Y-75754761D01*
X128130952Y-80007142D02*
X128797619Y-80007142D01*
X129083333Y-81054761D02*
X128130952Y-81054761D01*
X128130952Y-79054761D01*
X129083333Y-79054761D01*
X129750000Y-79054761D02*
X130226190Y-81054761D01*
X130607142Y-79626190D01*
X130988095Y-81054761D01*
X131464285Y-79054761D01*
X132892857Y-80007142D02*
X133178571Y-80102380D01*
X133273809Y-80197619D01*
X133369047Y-80388095D01*
X133369047Y-80673809D01*
X133273809Y-80864285D01*
X133178571Y-80959523D01*
X132988095Y-81054761D01*
X132226190Y-81054761D01*
X132226190Y-79054761D01*
X132892857Y-79054761D01*
X133083333Y-79150000D01*
X133178571Y-79245238D01*
X133273809Y-79435714D01*
X133273809Y-79626190D01*
X133178571Y-79816666D01*
X133083333Y-79911904D01*
X132892857Y-80007142D01*
X132226190Y-80007142D01*
X134226190Y-80292857D02*
X135750000Y-80292857D01*
X136607142Y-80959523D02*
X136892857Y-81054761D01*
X137369047Y-81054761D01*
X137559523Y-80959523D01*
X137654761Y-80864285D01*
X137750000Y-80673809D01*
X137750000Y-80483333D01*
X137654761Y-80292857D01*
X137559523Y-80197619D01*
X137369047Y-80102380D01*
X136988095Y-80007142D01*
X136797619Y-79911904D01*
X136702380Y-79816666D01*
X136607142Y-79626190D01*
X136607142Y-79435714D01*
X136702380Y-79245238D01*
X136797619Y-79150000D01*
X136988095Y-79054761D01*
X137464285Y-79054761D01*
X137750000Y-79150000D01*
X139273809Y-80007142D02*
X138607142Y-80007142D01*
X138607142Y-81054761D02*
X138607142Y-79054761D01*
X139559523Y-79054761D01*
X140321428Y-81054761D02*
X140321428Y-79054761D01*
X141083333Y-79054761D01*
X141273809Y-79150000D01*
X141369047Y-79245238D01*
X141464285Y-79435714D01*
X141464285Y-79721428D01*
X141369047Y-79911904D01*
X141273809Y-80007142D01*
X141083333Y-80102380D01*
X140321428Y-80102380D01*
X154785714Y-86928571D02*
X154785714Y-85428571D01*
X155428571Y-86857142D02*
X155642857Y-86928571D01*
X156000000Y-86928571D01*
X156142857Y-86857142D01*
X156214285Y-86785714D01*
X156285714Y-86642857D01*
X156285714Y-86500000D01*
X156214285Y-86357142D01*
X156142857Y-86285714D01*
X156000000Y-86214285D01*
X155714285Y-86142857D01*
X155571428Y-86071428D01*
X155500000Y-86000000D01*
X155428571Y-85857142D01*
X155428571Y-85714285D01*
X155500000Y-85571428D01*
X155571428Y-85500000D01*
X155714285Y-85428571D01*
X156071428Y-85428571D01*
X156285714Y-85500000D01*
X156928571Y-86928571D02*
X156928571Y-85428571D01*
X157500000Y-85428571D01*
X157642857Y-85500000D01*
X157714285Y-85571428D01*
X157785714Y-85714285D01*
X157785714Y-85928571D01*
X157714285Y-86071428D01*
X157642857Y-86142857D01*
X157500000Y-86214285D01*
X156928571Y-86214285D01*
D11*
%TO.C,R6*%
X111620000Y-53500000D02*
G75*
G03*
X111620000Y-53500000I-3120000J0D01*
G01*
X108500000Y-50380000D02*
X108500000Y-47380000D01*
%TO.C,C15*%
X157090000Y-50147936D02*
X157090000Y-51352064D01*
X158910000Y-50147936D02*
X158910000Y-51352064D01*
%TO.C,J6*%
X167940000Y-61760000D02*
X168330000Y-61760000D01*
X167940000Y-61760000D02*
X167940000Y-61310000D01*
X168640000Y-56190000D02*
X168640000Y-56840000D01*
X170370000Y-56190000D02*
X168640000Y-56190000D01*
X172940000Y-63810000D02*
X172730000Y-63810000D01*
X172940000Y-56190000D02*
X172730000Y-56190000D01*
X170370000Y-63810000D02*
X168640000Y-63810000D01*
X168640000Y-63810000D02*
X168640000Y-63150000D01*
%TO.C,J8*%
X109680000Y-115500000D02*
G75*
G03*
X109680000Y-115500000I-2180000J0D01*
G01*
X114680000Y-115500000D02*
G75*
G03*
X114680000Y-115500000I-2180000J0D01*
G01*
X104940000Y-120100000D02*
X115060000Y-120100000D01*
X104940000Y-119000000D02*
X115060000Y-119000000D01*
X104940000Y-111440000D02*
X115060000Y-111440000D01*
X104940000Y-120560000D02*
X115060000Y-120560000D01*
X104940000Y-111440000D02*
X104940000Y-120560000D01*
X115060000Y-111440000D02*
X115060000Y-120560000D01*
X109154000Y-114112000D02*
X109047000Y-114219000D01*
X106218000Y-117047000D02*
X106112000Y-117154000D01*
X108888000Y-113846000D02*
X108781000Y-113953000D01*
X105952000Y-116781000D02*
X105846000Y-116888000D01*
X114154000Y-114112000D02*
X113759000Y-114508000D01*
X111493000Y-116774000D02*
X111113000Y-117154000D01*
X113888000Y-113846000D02*
X113508000Y-114226000D01*
X111242000Y-116492000D02*
X110847000Y-116888000D01*
X104700000Y-120160000D02*
X104700000Y-120800000D01*
X104700000Y-120800000D02*
X105100000Y-120800000D01*
%TO.C,J5*%
X102680000Y-59250000D02*
G75*
G03*
X102680000Y-59250000I-2180000J0D01*
G01*
X102680000Y-64250000D02*
G75*
G03*
X102680000Y-64250000I-2180000J0D01*
G01*
X95900000Y-56690000D02*
X95900000Y-66810000D01*
X97000000Y-56690000D02*
X97000000Y-66810000D01*
X104560000Y-56690000D02*
X104560000Y-66810000D01*
X95440000Y-56690000D02*
X95440000Y-66810000D01*
X104560000Y-56690000D02*
X95440000Y-56690000D01*
X104560000Y-66810000D02*
X95440000Y-66810000D01*
X101888000Y-60904000D02*
X101781000Y-60797000D01*
X98953000Y-57968000D02*
X98846000Y-57862000D01*
X102154000Y-60638000D02*
X102047000Y-60531000D01*
X99219000Y-57702000D02*
X99112000Y-57596000D01*
X101888000Y-65904000D02*
X101492000Y-65509000D01*
X99226000Y-63243000D02*
X98846000Y-62863000D01*
X102154000Y-65638000D02*
X101774000Y-65258000D01*
X99508000Y-62992000D02*
X99112000Y-62597000D01*
X95840000Y-56450000D02*
X95200000Y-56450000D01*
X95200000Y-56450000D02*
X95200000Y-56850000D01*
%TO.C,J3*%
X141700000Y-120800000D02*
X142100000Y-120800000D01*
X141700000Y-120160000D02*
X141700000Y-120800000D01*
X158242000Y-116492000D02*
X157847000Y-116888000D01*
X160888000Y-113846000D02*
X160508000Y-114226000D01*
X158493000Y-116774000D02*
X158113000Y-117154000D01*
X161154000Y-114112000D02*
X160759000Y-114508000D01*
X153242000Y-116492000D02*
X152847000Y-116888000D01*
X155888000Y-113846000D02*
X155508000Y-114226000D01*
X153493000Y-116774000D02*
X153113000Y-117154000D01*
X156154000Y-114112000D02*
X155759000Y-114508000D01*
X148242000Y-116492000D02*
X147847000Y-116888000D01*
X150888000Y-113846000D02*
X150508000Y-114226000D01*
X148493000Y-116774000D02*
X148113000Y-117154000D01*
X151154000Y-114112000D02*
X150759000Y-114508000D01*
X142952000Y-116781000D02*
X142846000Y-116888000D01*
X145888000Y-113846000D02*
X145781000Y-113953000D01*
X143218000Y-117047000D02*
X143112000Y-117154000D01*
X146154000Y-114112000D02*
X146047000Y-114219000D01*
X162061000Y-111440000D02*
X162061000Y-120560000D01*
X141940000Y-111440000D02*
X141940000Y-120560000D01*
X141940000Y-120560000D02*
X162061000Y-120560000D01*
X141940000Y-111440000D02*
X162061000Y-111440000D01*
X141940000Y-119000000D02*
X162061000Y-119000000D01*
X141940000Y-120100000D02*
X162061000Y-120100000D01*
X161680000Y-115500000D02*
G75*
G03*
X161680000Y-115500000I-2180000J0D01*
G01*
X156680000Y-115500000D02*
G75*
G03*
X156680000Y-115500000I-2180000J0D01*
G01*
X151680000Y-115500000D02*
G75*
G03*
X151680000Y-115500000I-2180000J0D01*
G01*
X146680000Y-115500000D02*
G75*
G03*
X146680000Y-115500000I-2180000J0D01*
G01*
%TO.C,J2*%
X118200000Y-120800000D02*
X118600000Y-120800000D01*
X118200000Y-120160000D02*
X118200000Y-120800000D01*
X134742000Y-116492000D02*
X134347000Y-116888000D01*
X137388000Y-113846000D02*
X137008000Y-114226000D01*
X134993000Y-116774000D02*
X134613000Y-117154000D01*
X137654000Y-114112000D02*
X137259000Y-114508000D01*
X129742000Y-116492000D02*
X129347000Y-116888000D01*
X132388000Y-113846000D02*
X132008000Y-114226000D01*
X129993000Y-116774000D02*
X129613000Y-117154000D01*
X132654000Y-114112000D02*
X132259000Y-114508000D01*
X124742000Y-116492000D02*
X124347000Y-116888000D01*
X127388000Y-113846000D02*
X127008000Y-114226000D01*
X124993000Y-116774000D02*
X124613000Y-117154000D01*
X127654000Y-114112000D02*
X127259000Y-114508000D01*
X119452000Y-116781000D02*
X119346000Y-116888000D01*
X122388000Y-113846000D02*
X122281000Y-113953000D01*
X119718000Y-117047000D02*
X119612000Y-117154000D01*
X122654000Y-114112000D02*
X122547000Y-114219000D01*
X138561000Y-111440000D02*
X138561000Y-120560000D01*
X118440000Y-111440000D02*
X118440000Y-120560000D01*
X118440000Y-120560000D02*
X138561000Y-120560000D01*
X118440000Y-111440000D02*
X138561000Y-111440000D01*
X118440000Y-119000000D02*
X138561000Y-119000000D01*
X118440000Y-120100000D02*
X138561000Y-120100000D01*
X138180000Y-115500000D02*
G75*
G03*
X138180000Y-115500000I-2180000J0D01*
G01*
X133180000Y-115500000D02*
G75*
G03*
X133180000Y-115500000I-2180000J0D01*
G01*
X128180000Y-115500000D02*
G75*
G03*
X128180000Y-115500000I-2180000J0D01*
G01*
X123180000Y-115500000D02*
G75*
G03*
X123180000Y-115500000I-2180000J0D01*
G01*
%TO.C,J1*%
X172800000Y-108800000D02*
X172800000Y-108400000D01*
X172160000Y-108800000D02*
X172800000Y-108800000D01*
X168492000Y-92258000D02*
X168888000Y-92653000D01*
X165846000Y-89612000D02*
X166226000Y-89992000D01*
X168774000Y-92007000D02*
X169154000Y-92387000D01*
X166112000Y-89346000D02*
X166508000Y-89741000D01*
X168492000Y-97258000D02*
X168888000Y-97653000D01*
X165846000Y-94612000D02*
X166226000Y-94992000D01*
X168774000Y-97007000D02*
X169154000Y-97387000D01*
X166112000Y-94346000D02*
X166508000Y-94741000D01*
X168492000Y-102258000D02*
X168888000Y-102653000D01*
X165846000Y-99612000D02*
X166226000Y-99992000D01*
X168774000Y-102007000D02*
X169154000Y-102387000D01*
X166112000Y-99346000D02*
X166508000Y-99741000D01*
X168781000Y-107548000D02*
X168888000Y-107654000D01*
X165846000Y-104612000D02*
X165953000Y-104719000D01*
X169047000Y-107282000D02*
X169154000Y-107388000D01*
X166112000Y-104346000D02*
X166219000Y-104453000D01*
X163440000Y-88439000D02*
X172560000Y-88439000D01*
X163440000Y-108560000D02*
X172560000Y-108560000D01*
X172560000Y-108560000D02*
X172560000Y-88439000D01*
X163440000Y-108560000D02*
X163440000Y-88439000D01*
X171000000Y-108560000D02*
X171000000Y-88439000D01*
X172100000Y-108560000D02*
X172100000Y-88439000D01*
X169680000Y-91000000D02*
G75*
G03*
X169680000Y-91000000I-2180000J0D01*
G01*
X169680000Y-96000000D02*
G75*
G03*
X169680000Y-96000000I-2180000J0D01*
G01*
X169680000Y-101000000D02*
G75*
G03*
X169680000Y-101000000I-2180000J0D01*
G01*
X169680000Y-106000000D02*
G75*
G03*
X169680000Y-106000000I-2180000J0D01*
G01*
%TO.C,BT1*%
X102250000Y-76700000D02*
X102250000Y-81500000D01*
X107750000Y-76700000D02*
X102250000Y-76700000D01*
X107750000Y-81500000D02*
X107750000Y-76700000D01*
X107750000Y-107800000D02*
X107750000Y-103000000D01*
X102250000Y-107800000D02*
X107750000Y-107800000D01*
X102250000Y-103000000D02*
X102250000Y-107800000D01*
X95500000Y-81700000D02*
X95500000Y-88400000D01*
X95500000Y-102800000D02*
X95500000Y-96100000D01*
X115850000Y-88300000D02*
X111050000Y-81500000D01*
X115850000Y-96200000D02*
X115850000Y-88300000D01*
X111050000Y-103050000D02*
X115850000Y-96200000D01*
X95498536Y-96096385D02*
G75*
G02*
X95500000Y-88400000I9501464J3846385D01*
G01*
D12*
%TO.C,RV1*%
X105750000Y-69250000D02*
X111150000Y-69250000D01*
X105750000Y-57250000D02*
X111150000Y-57250000D01*
X105750000Y-69250000D02*
X105750000Y-57250000D01*
X111150000Y-69250000D02*
X111150000Y-57250000D01*
D11*
%TO.C,D5*%
X156150000Y-47200000D02*
X156150000Y-52900000D01*
X151850000Y-47200000D02*
X151850000Y-52900000D01*
X156150000Y-47200000D02*
X151850000Y-47200000D01*
%TO.C,C16*%
X148375000Y-46270354D02*
X147375000Y-46270354D01*
X147875000Y-45770354D02*
X147875000Y-46770354D01*
X145599000Y-56331000D02*
X144401000Y-56331000D01*
X145862000Y-56291000D02*
X144138000Y-56291000D01*
X146062000Y-56251000D02*
X143938000Y-56251000D01*
X146230000Y-56211000D02*
X143770000Y-56211000D01*
X146378000Y-56171000D02*
X143622000Y-56171000D01*
X146510000Y-56131000D02*
X143490000Y-56131000D01*
X146630000Y-56091000D02*
X143370000Y-56091000D01*
X146742000Y-56051000D02*
X143258000Y-56051000D01*
X146846000Y-56011000D02*
X143154000Y-56011000D01*
X146944000Y-55971000D02*
X143056000Y-55971000D01*
X147037000Y-55931000D02*
X142963000Y-55931000D01*
X147125000Y-55891000D02*
X142875000Y-55891000D01*
X147209000Y-55851000D02*
X142791000Y-55851000D01*
X147289000Y-55811000D02*
X142711000Y-55811000D01*
X147365000Y-55771000D02*
X142635000Y-55771000D01*
X147439000Y-55731000D02*
X142561000Y-55731000D01*
X147510000Y-55691000D02*
X142490000Y-55691000D01*
X147579000Y-55651000D02*
X142421000Y-55651000D01*
X147645000Y-55611000D02*
X142355000Y-55611000D01*
X147709000Y-55571000D02*
X142291000Y-55571000D01*
X147770000Y-55531000D02*
X142230000Y-55531000D01*
X147830000Y-55491000D02*
X142170000Y-55491000D01*
X147889000Y-55451000D02*
X142111000Y-55451000D01*
X147945000Y-55411000D02*
X142055000Y-55411000D01*
X148000000Y-55371000D02*
X142000000Y-55371000D01*
X148054000Y-55331000D02*
X141946000Y-55331000D01*
X148106000Y-55291000D02*
X141894000Y-55291000D01*
X148156000Y-55251000D02*
X141844000Y-55251000D01*
X148206000Y-55211000D02*
X141794000Y-55211000D01*
X148254000Y-55171000D02*
X141746000Y-55171000D01*
X148301000Y-55131000D02*
X141699000Y-55131000D01*
X148347000Y-55091000D02*
X141653000Y-55091000D01*
X148392000Y-55051000D02*
X141608000Y-55051000D01*
X148436000Y-55011000D02*
X141564000Y-55011000D01*
X143759000Y-54971000D02*
X141522000Y-54971000D01*
X148478000Y-54971000D02*
X146241000Y-54971000D01*
X143759000Y-54931000D02*
X141480000Y-54931000D01*
X148520000Y-54931000D02*
X146241000Y-54931000D01*
X143759000Y-54891000D02*
X141439000Y-54891000D01*
X148561000Y-54891000D02*
X146241000Y-54891000D01*
X143759000Y-54851000D02*
X141399000Y-54851000D01*
X148601000Y-54851000D02*
X146241000Y-54851000D01*
X143759000Y-54811000D02*
X141360000Y-54811000D01*
X148640000Y-54811000D02*
X146241000Y-54811000D01*
X143759000Y-54771000D02*
X141321000Y-54771000D01*
X148679000Y-54771000D02*
X146241000Y-54771000D01*
X143759000Y-54731000D02*
X141284000Y-54731000D01*
X148716000Y-54731000D02*
X146241000Y-54731000D01*
X143759000Y-54691000D02*
X141247000Y-54691000D01*
X148753000Y-54691000D02*
X146241000Y-54691000D01*
X143759000Y-54651000D02*
X141211000Y-54651000D01*
X148789000Y-54651000D02*
X146241000Y-54651000D01*
X143759000Y-54611000D02*
X141176000Y-54611000D01*
X148824000Y-54611000D02*
X146241000Y-54611000D01*
X143759000Y-54571000D02*
X141142000Y-54571000D01*
X148858000Y-54571000D02*
X146241000Y-54571000D01*
X143759000Y-54531000D02*
X141108000Y-54531000D01*
X148892000Y-54531000D02*
X146241000Y-54531000D01*
X143759000Y-54491000D02*
X141075000Y-54491000D01*
X148925000Y-54491000D02*
X146241000Y-54491000D01*
X143759000Y-54451000D02*
X141043000Y-54451000D01*
X148957000Y-54451000D02*
X146241000Y-54451000D01*
X143759000Y-54411000D02*
X141011000Y-54411000D01*
X148989000Y-54411000D02*
X146241000Y-54411000D01*
X143759000Y-54371000D02*
X140980000Y-54371000D01*
X149020000Y-54371000D02*
X146241000Y-54371000D01*
X143759000Y-54331000D02*
X140950000Y-54331000D01*
X149050000Y-54331000D02*
X146241000Y-54331000D01*
X143759000Y-54291000D02*
X140920000Y-54291000D01*
X149080000Y-54291000D02*
X146241000Y-54291000D01*
X143759000Y-54251000D02*
X140890000Y-54251000D01*
X149110000Y-54251000D02*
X146241000Y-54251000D01*
X143759000Y-54211000D02*
X140862000Y-54211000D01*
X149138000Y-54211000D02*
X146241000Y-54211000D01*
X143759000Y-54171000D02*
X140834000Y-54171000D01*
X149166000Y-54171000D02*
X146241000Y-54171000D01*
X143759000Y-54131000D02*
X140806000Y-54131000D01*
X149194000Y-54131000D02*
X146241000Y-54131000D01*
X143759000Y-54091000D02*
X140779000Y-54091000D01*
X149221000Y-54091000D02*
X146241000Y-54091000D01*
X143759000Y-54051000D02*
X140753000Y-54051000D01*
X149247000Y-54051000D02*
X146241000Y-54051000D01*
X143759000Y-54011000D02*
X140727000Y-54011000D01*
X149273000Y-54011000D02*
X146241000Y-54011000D01*
X143759000Y-53971000D02*
X140702000Y-53971000D01*
X149298000Y-53971000D02*
X146241000Y-53971000D01*
X143759000Y-53931000D02*
X140677000Y-53931000D01*
X149323000Y-53931000D02*
X146241000Y-53931000D01*
X143759000Y-53891000D02*
X140653000Y-53891000D01*
X149347000Y-53891000D02*
X146241000Y-53891000D01*
X143759000Y-53851000D02*
X140629000Y-53851000D01*
X149371000Y-53851000D02*
X146241000Y-53851000D01*
X143759000Y-53811000D02*
X140605000Y-53811000D01*
X149395000Y-53811000D02*
X146241000Y-53811000D01*
X143759000Y-53771000D02*
X140583000Y-53771000D01*
X149417000Y-53771000D02*
X146241000Y-53771000D01*
X143759000Y-53731000D02*
X140560000Y-53731000D01*
X149440000Y-53731000D02*
X146241000Y-53731000D01*
X143759000Y-53691000D02*
X140538000Y-53691000D01*
X149462000Y-53691000D02*
X146241000Y-53691000D01*
X143759000Y-53651000D02*
X140517000Y-53651000D01*
X149483000Y-53651000D02*
X146241000Y-53651000D01*
X143759000Y-53611000D02*
X140496000Y-53611000D01*
X149504000Y-53611000D02*
X146241000Y-53611000D01*
X143759000Y-53571000D02*
X140475000Y-53571000D01*
X149525000Y-53571000D02*
X146241000Y-53571000D01*
X143759000Y-53531000D02*
X140455000Y-53531000D01*
X149545000Y-53531000D02*
X146241000Y-53531000D01*
X143759000Y-53491000D02*
X140436000Y-53491000D01*
X149564000Y-53491000D02*
X146241000Y-53491000D01*
X143759000Y-53451000D02*
X140416000Y-53451000D01*
X149584000Y-53451000D02*
X146241000Y-53451000D01*
X143759000Y-53411000D02*
X140397000Y-53411000D01*
X149603000Y-53411000D02*
X146241000Y-53411000D01*
X143759000Y-53371000D02*
X140379000Y-53371000D01*
X149621000Y-53371000D02*
X146241000Y-53371000D01*
X143759000Y-53331000D02*
X140361000Y-53331000D01*
X149639000Y-53331000D02*
X146241000Y-53331000D01*
X143759000Y-53291000D02*
X140343000Y-53291000D01*
X149657000Y-53291000D02*
X146241000Y-53291000D01*
X143759000Y-53251000D02*
X140326000Y-53251000D01*
X149674000Y-53251000D02*
X146241000Y-53251000D01*
X143759000Y-53211000D02*
X140310000Y-53211000D01*
X149690000Y-53211000D02*
X146241000Y-53211000D01*
X143759000Y-53171000D02*
X140293000Y-53171000D01*
X149707000Y-53171000D02*
X146241000Y-53171000D01*
X143759000Y-53131000D02*
X140277000Y-53131000D01*
X149723000Y-53131000D02*
X146241000Y-53131000D01*
X143759000Y-53091000D02*
X140262000Y-53091000D01*
X149738000Y-53091000D02*
X146241000Y-53091000D01*
X143759000Y-53051000D02*
X140246000Y-53051000D01*
X149754000Y-53051000D02*
X146241000Y-53051000D01*
X143759000Y-53011000D02*
X140232000Y-53011000D01*
X149768000Y-53011000D02*
X146241000Y-53011000D01*
X143759000Y-52971000D02*
X140217000Y-52971000D01*
X149783000Y-52971000D02*
X146241000Y-52971000D01*
X143759000Y-52931000D02*
X140203000Y-52931000D01*
X149797000Y-52931000D02*
X146241000Y-52931000D01*
X143759000Y-52891000D02*
X140189000Y-52891000D01*
X149811000Y-52891000D02*
X146241000Y-52891000D01*
X143759000Y-52851000D02*
X140176000Y-52851000D01*
X149824000Y-52851000D02*
X146241000Y-52851000D01*
X143759000Y-52811000D02*
X140163000Y-52811000D01*
X149837000Y-52811000D02*
X146241000Y-52811000D01*
X143759000Y-52771000D02*
X140150000Y-52771000D01*
X149850000Y-52771000D02*
X146241000Y-52771000D01*
X143759000Y-52731000D02*
X140138000Y-52731000D01*
X149862000Y-52731000D02*
X146241000Y-52731000D01*
X143759000Y-52691000D02*
X140126000Y-52691000D01*
X149874000Y-52691000D02*
X146241000Y-52691000D01*
X143759000Y-52651000D02*
X140115000Y-52651000D01*
X149885000Y-52651000D02*
X146241000Y-52651000D01*
X143759000Y-52611000D02*
X140103000Y-52611000D01*
X149897000Y-52611000D02*
X146241000Y-52611000D01*
X143759000Y-52571000D02*
X140093000Y-52571000D01*
X149907000Y-52571000D02*
X146241000Y-52571000D01*
X143759000Y-52531000D02*
X140082000Y-52531000D01*
X149918000Y-52531000D02*
X146241000Y-52531000D01*
X149928000Y-52491000D02*
X140072000Y-52491000D01*
X149938000Y-52451000D02*
X140062000Y-52451000D01*
X149947000Y-52411000D02*
X140053000Y-52411000D01*
X149956000Y-52371000D02*
X140044000Y-52371000D01*
X149965000Y-52331000D02*
X140035000Y-52331000D01*
X149974000Y-52291000D02*
X140026000Y-52291000D01*
X149982000Y-52251000D02*
X140018000Y-52251000D01*
X149990000Y-52211000D02*
X140010000Y-52211000D01*
X149997000Y-52171000D02*
X140003000Y-52171000D01*
X150004000Y-52131000D02*
X139996000Y-52131000D01*
X150011000Y-52091000D02*
X139989000Y-52091000D01*
X150018000Y-52051000D02*
X139982000Y-52051000D01*
X150024000Y-52011000D02*
X139976000Y-52011000D01*
X150030000Y-51971000D02*
X139970000Y-51971000D01*
X150035000Y-51930000D02*
X139965000Y-51930000D01*
X150040000Y-51890000D02*
X139960000Y-51890000D01*
X150045000Y-51850000D02*
X139955000Y-51850000D01*
X150050000Y-51810000D02*
X139950000Y-51810000D01*
X150054000Y-51770000D02*
X139946000Y-51770000D01*
X150058000Y-51730000D02*
X139942000Y-51730000D01*
X150062000Y-51690000D02*
X139938000Y-51690000D01*
X150065000Y-51650000D02*
X139935000Y-51650000D01*
X150068000Y-51610000D02*
X139932000Y-51610000D01*
X150070000Y-51570000D02*
X139930000Y-51570000D01*
X150073000Y-51530000D02*
X139927000Y-51530000D01*
X150075000Y-51490000D02*
X139925000Y-51490000D01*
X150077000Y-51450000D02*
X139923000Y-51450000D01*
X150078000Y-51410000D02*
X139922000Y-51410000D01*
X150079000Y-51370000D02*
X139921000Y-51370000D01*
X150080000Y-51330000D02*
X139920000Y-51330000D01*
X150080000Y-51290000D02*
X139920000Y-51290000D01*
X150080000Y-51250000D02*
X139920000Y-51250000D01*
X150120000Y-51250000D02*
G75*
G03*
X150120000Y-51250000I-5120000J0D01*
G01*
%TO.C,Y2*%
X143315000Y-105775000D02*
X149565000Y-105775000D01*
X143315000Y-100725000D02*
X149565000Y-100725000D01*
X149565000Y-105775000D02*
G75*
G03*
X149565000Y-100725000I0J2525000D01*
G01*
X143315000Y-105775000D02*
G75*
G02*
X143315000Y-100725000I0J2525000D01*
G01*
%TO.C,Y1*%
X121100000Y-82350000D02*
X121100000Y-81150000D01*
X120100000Y-81050000D02*
X119900000Y-81050000D01*
X120100000Y-82450000D02*
X119900000Y-82450000D01*
%TO.C,U5*%
X120507512Y-86650000D02*
X120507512Y-83050000D01*
X120507512Y-86650000D02*
X120507512Y-88850000D01*
X117287512Y-86650000D02*
X117287512Y-84450000D01*
X117287512Y-86650000D02*
X117287512Y-88850000D01*
%TO.C,U4*%
X150060000Y-64750000D02*
X150060000Y-61300000D01*
X150060000Y-64750000D02*
X150060000Y-66700000D01*
X144940000Y-64750000D02*
X144940000Y-62800000D01*
X144940000Y-64750000D02*
X144940000Y-66700000D01*
%TO.C,U3*%
X159890000Y-62885000D02*
X159890000Y-63360000D01*
X165110000Y-58140000D02*
X164635000Y-58140000D01*
X165110000Y-58615000D02*
X165110000Y-58140000D01*
X165110000Y-63360000D02*
X164635000Y-63360000D01*
X165110000Y-62885000D02*
X165110000Y-63360000D01*
X159890000Y-58140000D02*
X160365000Y-58140000D01*
X159890000Y-58615000D02*
X159890000Y-58140000D01*
%TO.C,U2*%
X112550000Y-70450000D02*
X112550000Y-45050000D01*
X137950000Y-70450000D02*
X112550000Y-70450000D01*
X137950000Y-45050000D02*
X137950000Y-70450000D01*
X112550000Y-45050000D02*
X137950000Y-45050000D01*
%TO.C,R5*%
X158490000Y-102087221D02*
X158490000Y-102412779D01*
X159510000Y-102087221D02*
X159510000Y-102412779D01*
%TO.C,R4*%
X122990000Y-86587221D02*
X122990000Y-86912779D01*
X124010000Y-86587221D02*
X124010000Y-86912779D01*
%TO.C,R3*%
X125760000Y-86912779D02*
X125760000Y-86587221D01*
X124740000Y-86912779D02*
X124740000Y-86587221D01*
%TO.C,R2*%
X119240000Y-96374721D02*
X119240000Y-96700279D01*
X120260000Y-96374721D02*
X120260000Y-96700279D01*
%TO.C,R1*%
X114740000Y-108837221D02*
X114740000Y-109162779D01*
X115760000Y-108837221D02*
X115760000Y-109162779D01*
%TO.C,J7*%
X171990641Y-84124700D02*
X172471600Y-84124700D01*
X172471600Y-84124700D02*
X172471600Y-71431241D01*
X170420162Y-69875300D02*
X157028400Y-69875300D01*
X157028400Y-69875300D02*
X157028400Y-75269560D01*
X157028400Y-84124700D02*
X169420161Y-84124700D01*
X157028400Y-77230440D02*
X157028400Y-79732024D01*
X157028400Y-82930440D02*
X157028400Y-84124700D01*
%TO.C,J4*%
X153580000Y-86080000D02*
X152250000Y-86080000D01*
X153580000Y-84750000D02*
X153580000Y-86080000D01*
X150980000Y-86080000D02*
X148380000Y-86080000D01*
X150980000Y-83480000D02*
X150980000Y-86080000D01*
X153580000Y-83480000D02*
X150980000Y-83480000D01*
X148380000Y-86080000D02*
X148380000Y-78340000D01*
X153580000Y-83480000D02*
X153580000Y-78340000D01*
X153580000Y-78340000D02*
X148380000Y-78340000D01*
%TO.C,F1*%
X102352064Y-53590000D02*
X101147936Y-53590000D01*
X102352064Y-55410000D02*
X101147936Y-55410000D01*
%TO.C,D4*%
X158235000Y-103735000D02*
X158235000Y-101450000D01*
X156765000Y-103735000D02*
X158235000Y-103735000D01*
X156765000Y-101450000D02*
X156765000Y-103735000D01*
%TO.C,D3*%
X112250000Y-110750000D02*
X112250000Y-106850000D01*
X114250000Y-110750000D02*
X114250000Y-106850000D01*
X112250000Y-110750000D02*
X114250000Y-110750000D01*
%TO.C,D2*%
X150750000Y-64150000D02*
X153300000Y-64150000D01*
X150750000Y-65850000D02*
X153300000Y-65850000D01*
X150750000Y-64150000D02*
X150750000Y-65850000D01*
%TO.C,D1*%
X150750000Y-66400000D02*
X153300000Y-66400000D01*
X150750000Y-68100000D02*
X153300000Y-68100000D01*
X150750000Y-66400000D02*
X150750000Y-68100000D01*
%TO.C,C14*%
X148990000Y-107587221D02*
X148990000Y-107912779D01*
X150010000Y-107587221D02*
X150010000Y-107912779D01*
%TO.C,C13*%
X144010000Y-107912779D02*
X144010000Y-107587221D01*
X142990000Y-107912779D02*
X142990000Y-107587221D01*
%TO.C,C12*%
X119087221Y-92260000D02*
X119412779Y-92260000D01*
X119087221Y-91240000D02*
X119412779Y-91240000D01*
%TO.C,C11*%
X145587221Y-88010000D02*
X145912779Y-88010000D01*
X145587221Y-86990000D02*
X145912779Y-86990000D01*
%TO.C,C10*%
X140912779Y-98740000D02*
X140587221Y-98740000D01*
X140912779Y-99760000D02*
X140587221Y-99760000D01*
%TO.C,C9*%
X161412779Y-64240000D02*
X161087221Y-64240000D01*
X161412779Y-65260000D02*
X161087221Y-65260000D01*
%TO.C,C8*%
X166912779Y-84490000D02*
X166587221Y-84490000D01*
X166912779Y-85510000D02*
X166587221Y-85510000D01*
%TO.C,C7*%
X140837221Y-88010000D02*
X141162779Y-88010000D01*
X140837221Y-86990000D02*
X141162779Y-86990000D01*
%TO.C,C6*%
X120990000Y-96337221D02*
X120990000Y-96662779D01*
X122010000Y-96337221D02*
X122010000Y-96662779D01*
%TO.C,C5*%
X119510000Y-79412779D02*
X119510000Y-79087221D01*
X118490000Y-79412779D02*
X118490000Y-79087221D01*
%TO.C,C4*%
X120490000Y-79087221D02*
X120490000Y-79412779D01*
X121510000Y-79087221D02*
X121510000Y-79412779D01*
%TO.C,C3*%
X148912779Y-59490000D02*
X148587221Y-59490000D01*
X148912779Y-60510000D02*
X148587221Y-60510000D01*
%TO.C,C2*%
X148912779Y-68990000D02*
X148587221Y-68990000D01*
X148912779Y-70010000D02*
X148587221Y-70010000D01*
%TO.C,C1*%
X165510000Y-56162779D02*
X165510000Y-55837221D01*
X164490000Y-56162779D02*
X164490000Y-55837221D01*
%TO.C,U1*%
X123170000Y-90790000D02*
X123170000Y-92440000D01*
X158850000Y-90790000D02*
X123170000Y-90790000D01*
X158850000Y-96090000D02*
X158850000Y-90790000D01*
X123170000Y-96090000D02*
X158850000Y-96090000D01*
X123170000Y-94440000D02*
X123170000Y-96090000D01*
X123170000Y-92440000D02*
G75*
G02*
X123170000Y-94440000I0J-1000000D01*
G01*
%TO.C,R6*%
D12*
X106452380Y-49856666D02*
X105976190Y-50190000D01*
X106452380Y-50428095D02*
X105452380Y-50428095D01*
X105452380Y-50047142D01*
X105500000Y-49951904D01*
X105547619Y-49904285D01*
X105642857Y-49856666D01*
X105785714Y-49856666D01*
X105880952Y-49904285D01*
X105928571Y-49951904D01*
X105976190Y-50047142D01*
X105976190Y-50428095D01*
X105452380Y-48999523D02*
X105452380Y-49190000D01*
X105500000Y-49285238D01*
X105547619Y-49332857D01*
X105690476Y-49428095D01*
X105880952Y-49475714D01*
X106261904Y-49475714D01*
X106357142Y-49428095D01*
X106404761Y-49380476D01*
X106452380Y-49285238D01*
X106452380Y-49094761D01*
X106404761Y-48999523D01*
X106357142Y-48951904D01*
X106261904Y-48904285D01*
X106023809Y-48904285D01*
X105928571Y-48951904D01*
X105880952Y-48999523D01*
X105833333Y-49094761D01*
X105833333Y-49285238D01*
X105880952Y-49380476D01*
X105928571Y-49428095D01*
X106023809Y-49475714D01*
%TO.C,C15*%
X160177142Y-51392857D02*
X160224761Y-51440476D01*
X160272380Y-51583333D01*
X160272380Y-51678571D01*
X160224761Y-51821428D01*
X160129523Y-51916666D01*
X160034285Y-51964285D01*
X159843809Y-52011904D01*
X159700952Y-52011904D01*
X159510476Y-51964285D01*
X159415238Y-51916666D01*
X159320000Y-51821428D01*
X159272380Y-51678571D01*
X159272380Y-51583333D01*
X159320000Y-51440476D01*
X159367619Y-51392857D01*
X160272380Y-50440476D02*
X160272380Y-51011904D01*
X160272380Y-50726190D02*
X159272380Y-50726190D01*
X159415238Y-50821428D01*
X159510476Y-50916666D01*
X159558095Y-51011904D01*
X159272380Y-49535714D02*
X159272380Y-50011904D01*
X159748571Y-50059523D01*
X159700952Y-50011904D01*
X159653333Y-49916666D01*
X159653333Y-49678571D01*
X159700952Y-49583333D01*
X159748571Y-49535714D01*
X159843809Y-49488095D01*
X160081904Y-49488095D01*
X160177142Y-49535714D01*
X160224761Y-49583333D01*
X160272380Y-49678571D01*
X160272380Y-49916666D01*
X160224761Y-50011904D01*
X160177142Y-50059523D01*
%TO.C,H4*%
X99238095Y-112252380D02*
X99238095Y-111252380D01*
X99238095Y-111728571D02*
X99809523Y-111728571D01*
X99809523Y-112252380D02*
X99809523Y-111252380D01*
X100714285Y-111585714D02*
X100714285Y-112252380D01*
X100476190Y-111204761D02*
X100238095Y-111919047D01*
X100857142Y-111919047D01*
%TO.C,H3*%
X167238095Y-112252380D02*
X167238095Y-111252380D01*
X167238095Y-111728571D02*
X167809523Y-111728571D01*
X167809523Y-112252380D02*
X167809523Y-111252380D01*
X168190476Y-111252380D02*
X168809523Y-111252380D01*
X168476190Y-111633333D01*
X168619047Y-111633333D01*
X168714285Y-111680952D01*
X168761904Y-111728571D01*
X168809523Y-111823809D01*
X168809523Y-112061904D01*
X168761904Y-112157142D01*
X168714285Y-112204761D01*
X168619047Y-112252380D01*
X168333333Y-112252380D01*
X168238095Y-112204761D01*
X168190476Y-112157142D01*
%TO.C,J6*%
X169166666Y-64952380D02*
X169166666Y-65666666D01*
X169119047Y-65809523D01*
X169023809Y-65904761D01*
X168880952Y-65952380D01*
X168785714Y-65952380D01*
X170071428Y-64952380D02*
X169880952Y-64952380D01*
X169785714Y-65000000D01*
X169738095Y-65047619D01*
X169642857Y-65190476D01*
X169595238Y-65380952D01*
X169595238Y-65761904D01*
X169642857Y-65857142D01*
X169690476Y-65904761D01*
X169785714Y-65952380D01*
X169976190Y-65952380D01*
X170071428Y-65904761D01*
X170119047Y-65857142D01*
X170166666Y-65761904D01*
X170166666Y-65523809D01*
X170119047Y-65428571D01*
X170071428Y-65380952D01*
X169976190Y-65333333D01*
X169785714Y-65333333D01*
X169690476Y-65380952D01*
X169642857Y-65428571D01*
X169595238Y-65523809D01*
%TO.C,J8*%
X109666666Y-109892380D02*
X109666666Y-110606666D01*
X109619047Y-110749523D01*
X109523809Y-110844761D01*
X109380952Y-110892380D01*
X109285714Y-110892380D01*
X110285714Y-110320952D02*
X110190476Y-110273333D01*
X110142857Y-110225714D01*
X110095238Y-110130476D01*
X110095238Y-110082857D01*
X110142857Y-109987619D01*
X110190476Y-109940000D01*
X110285714Y-109892380D01*
X110476190Y-109892380D01*
X110571428Y-109940000D01*
X110619047Y-109987619D01*
X110666666Y-110082857D01*
X110666666Y-110130476D01*
X110619047Y-110225714D01*
X110571428Y-110273333D01*
X110476190Y-110320952D01*
X110285714Y-110320952D01*
X110190476Y-110368571D01*
X110142857Y-110416190D01*
X110095238Y-110511428D01*
X110095238Y-110701904D01*
X110142857Y-110797142D01*
X110190476Y-110844761D01*
X110285714Y-110892380D01*
X110476190Y-110892380D01*
X110571428Y-110844761D01*
X110619047Y-110797142D01*
X110666666Y-110701904D01*
X110666666Y-110511428D01*
X110619047Y-110416190D01*
X110571428Y-110368571D01*
X110476190Y-110320952D01*
%TO.C,J5*%
X95666666Y-54952380D02*
X95666666Y-55666666D01*
X95619047Y-55809523D01*
X95523809Y-55904761D01*
X95380952Y-55952380D01*
X95285714Y-55952380D01*
X96619047Y-54952380D02*
X96142857Y-54952380D01*
X96095238Y-55428571D01*
X96142857Y-55380952D01*
X96238095Y-55333333D01*
X96476190Y-55333333D01*
X96571428Y-55380952D01*
X96619047Y-55428571D01*
X96666666Y-55523809D01*
X96666666Y-55761904D01*
X96619047Y-55857142D01*
X96571428Y-55904761D01*
X96476190Y-55952380D01*
X96238095Y-55952380D01*
X96142857Y-55904761D01*
X96095238Y-55857142D01*
%TO.C,J3*%
X151666666Y-109892380D02*
X151666666Y-110606666D01*
X151619047Y-110749523D01*
X151523809Y-110844761D01*
X151380952Y-110892380D01*
X151285714Y-110892380D01*
X152047619Y-109892380D02*
X152666666Y-109892380D01*
X152333333Y-110273333D01*
X152476190Y-110273333D01*
X152571428Y-110320952D01*
X152619047Y-110368571D01*
X152666666Y-110463809D01*
X152666666Y-110701904D01*
X152619047Y-110797142D01*
X152571428Y-110844761D01*
X152476190Y-110892380D01*
X152190476Y-110892380D01*
X152095238Y-110844761D01*
X152047619Y-110797142D01*
%TO.C,J2*%
X128166666Y-109892380D02*
X128166666Y-110606666D01*
X128119047Y-110749523D01*
X128023809Y-110844761D01*
X127880952Y-110892380D01*
X127785714Y-110892380D01*
X128595238Y-109987619D02*
X128642857Y-109940000D01*
X128738095Y-109892380D01*
X128976190Y-109892380D01*
X129071428Y-109940000D01*
X129119047Y-109987619D01*
X129166666Y-110082857D01*
X129166666Y-110178095D01*
X129119047Y-110320952D01*
X128547619Y-110892380D01*
X129166666Y-110892380D01*
%TO.C,J1*%
X161892380Y-98833333D02*
X162606666Y-98833333D01*
X162749523Y-98880952D01*
X162844761Y-98976190D01*
X162892380Y-99119047D01*
X162892380Y-99214285D01*
X162892380Y-97833333D02*
X162892380Y-98404761D01*
X162892380Y-98119047D02*
X161892380Y-98119047D01*
X162035238Y-98214285D01*
X162130476Y-98309523D01*
X162178095Y-98404761D01*
%TO.C,BT1*%
X114628571Y-102185714D02*
X114676190Y-102042857D01*
X114723809Y-101995238D01*
X114819047Y-101947619D01*
X114961904Y-101947619D01*
X115057142Y-101995238D01*
X115104761Y-102042857D01*
X115152380Y-102138095D01*
X115152380Y-102519047D01*
X114152380Y-102519047D01*
X114152380Y-102185714D01*
X114200000Y-102090476D01*
X114247619Y-102042857D01*
X114342857Y-101995238D01*
X114438095Y-101995238D01*
X114533333Y-102042857D01*
X114580952Y-102090476D01*
X114628571Y-102185714D01*
X114628571Y-102519047D01*
X114152380Y-101661904D02*
X114152380Y-101090476D01*
X115152380Y-101376190D02*
X114152380Y-101376190D01*
X115152380Y-100233333D02*
X115152380Y-100804761D01*
X115152380Y-100519047D02*
X114152380Y-100519047D01*
X114295238Y-100614285D01*
X114390476Y-100709523D01*
X114438095Y-100804761D01*
%TO.C,RV1*%
X111702380Y-71595238D02*
X111226190Y-71928571D01*
X111702380Y-72166666D02*
X110702380Y-72166666D01*
X110702380Y-71785714D01*
X110750000Y-71690476D01*
X110797619Y-71642857D01*
X110892857Y-71595238D01*
X111035714Y-71595238D01*
X111130952Y-71642857D01*
X111178571Y-71690476D01*
X111226190Y-71785714D01*
X111226190Y-72166666D01*
X110702380Y-71309523D02*
X111702380Y-70976190D01*
X110702380Y-70642857D01*
X111702380Y-69785714D02*
X111702380Y-70357142D01*
X111702380Y-70071428D02*
X110702380Y-70071428D01*
X110845238Y-70166666D01*
X110940476Y-70261904D01*
X110988095Y-70357142D01*
%TO.C,D5*%
X153261904Y-55702380D02*
X153261904Y-54702380D01*
X153500000Y-54702380D01*
X153642857Y-54750000D01*
X153738095Y-54845238D01*
X153785714Y-54940476D01*
X153833333Y-55130952D01*
X153833333Y-55273809D01*
X153785714Y-55464285D01*
X153738095Y-55559523D01*
X153642857Y-55654761D01*
X153500000Y-55702380D01*
X153261904Y-55702380D01*
X154738095Y-54702380D02*
X154261904Y-54702380D01*
X154214285Y-55178571D01*
X154261904Y-55130952D01*
X154357142Y-55083333D01*
X154595238Y-55083333D01*
X154690476Y-55130952D01*
X154738095Y-55178571D01*
X154785714Y-55273809D01*
X154785714Y-55511904D01*
X154738095Y-55607142D01*
X154690476Y-55654761D01*
X154595238Y-55702380D01*
X154357142Y-55702380D01*
X154261904Y-55654761D01*
X154214285Y-55607142D01*
%TO.C,C16*%
X144107142Y-57857142D02*
X144059523Y-57904761D01*
X143916666Y-57952380D01*
X143821428Y-57952380D01*
X143678571Y-57904761D01*
X143583333Y-57809523D01*
X143535714Y-57714285D01*
X143488095Y-57523809D01*
X143488095Y-57380952D01*
X143535714Y-57190476D01*
X143583333Y-57095238D01*
X143678571Y-57000000D01*
X143821428Y-56952380D01*
X143916666Y-56952380D01*
X144059523Y-57000000D01*
X144107142Y-57047619D01*
X145059523Y-57952380D02*
X144488095Y-57952380D01*
X144773809Y-57952380D02*
X144773809Y-56952380D01*
X144678571Y-57095238D01*
X144583333Y-57190476D01*
X144488095Y-57238095D01*
X145916666Y-56952380D02*
X145726190Y-56952380D01*
X145630952Y-57000000D01*
X145583333Y-57047619D01*
X145488095Y-57190476D01*
X145440476Y-57380952D01*
X145440476Y-57761904D01*
X145488095Y-57857142D01*
X145535714Y-57904761D01*
X145630952Y-57952380D01*
X145821428Y-57952380D01*
X145916666Y-57904761D01*
X145964285Y-57857142D01*
X146011904Y-57761904D01*
X146011904Y-57523809D01*
X145964285Y-57428571D01*
X145916666Y-57380952D01*
X145821428Y-57333333D01*
X145630952Y-57333333D01*
X145535714Y-57380952D01*
X145488095Y-57428571D01*
X145440476Y-57523809D01*
%TO.C,Y2*%
X145963809Y-99701190D02*
X145963809Y-100177380D01*
X145630476Y-99177380D02*
X145963809Y-99701190D01*
X146297142Y-99177380D01*
X146582857Y-99272619D02*
X146630476Y-99225000D01*
X146725714Y-99177380D01*
X146963809Y-99177380D01*
X147059047Y-99225000D01*
X147106666Y-99272619D01*
X147154285Y-99367857D01*
X147154285Y-99463095D01*
X147106666Y-99605952D01*
X146535238Y-100177380D01*
X147154285Y-100177380D01*
%TO.C,Y1*%
X121773809Y-81726190D02*
X121773809Y-82202380D01*
X121440476Y-81202380D02*
X121773809Y-81726190D01*
X122107142Y-81202380D01*
X122964285Y-82202380D02*
X122392857Y-82202380D01*
X122678571Y-82202380D02*
X122678571Y-81202380D01*
X122583333Y-81345238D01*
X122488095Y-81440476D01*
X122392857Y-81488095D01*
%TO.C,U5*%
X120799892Y-87411904D02*
X121609416Y-87411904D01*
X121704654Y-87364285D01*
X121752273Y-87316666D01*
X121799892Y-87221428D01*
X121799892Y-87030952D01*
X121752273Y-86935714D01*
X121704654Y-86888095D01*
X121609416Y-86840476D01*
X120799892Y-86840476D01*
X120799892Y-85888095D02*
X120799892Y-86364285D01*
X121276083Y-86411904D01*
X121228464Y-86364285D01*
X121180845Y-86269047D01*
X121180845Y-86030952D01*
X121228464Y-85935714D01*
X121276083Y-85888095D01*
X121371321Y-85840476D01*
X121609416Y-85840476D01*
X121704654Y-85888095D01*
X121752273Y-85935714D01*
X121799892Y-86030952D01*
X121799892Y-86269047D01*
X121752273Y-86364285D01*
X121704654Y-86411904D01*
%TO.C,U4*%
X144738095Y-59702380D02*
X144738095Y-60511904D01*
X144785714Y-60607142D01*
X144833333Y-60654761D01*
X144928571Y-60702380D01*
X145119047Y-60702380D01*
X145214285Y-60654761D01*
X145261904Y-60607142D01*
X145309523Y-60511904D01*
X145309523Y-59702380D01*
X146214285Y-60035714D02*
X146214285Y-60702380D01*
X145976190Y-59654761D02*
X145738095Y-60369047D01*
X146357142Y-60369047D01*
%TO.C,U3*%
X158132380Y-61511904D02*
X158941904Y-61511904D01*
X159037142Y-61464285D01*
X159084761Y-61416666D01*
X159132380Y-61321428D01*
X159132380Y-61130952D01*
X159084761Y-61035714D01*
X159037142Y-60988095D01*
X158941904Y-60940476D01*
X158132380Y-60940476D01*
X158132380Y-60559523D02*
X158132380Y-59940476D01*
X158513333Y-60273809D01*
X158513333Y-60130952D01*
X158560952Y-60035714D01*
X158608571Y-59988095D01*
X158703809Y-59940476D01*
X158941904Y-59940476D01*
X159037142Y-59988095D01*
X159084761Y-60035714D01*
X159132380Y-60130952D01*
X159132380Y-60416666D01*
X159084761Y-60511904D01*
X159037142Y-60559523D01*
%TO.C,U2*%
X136488095Y-70952380D02*
X136488095Y-71761904D01*
X136535714Y-71857142D01*
X136583333Y-71904761D01*
X136678571Y-71952380D01*
X136869047Y-71952380D01*
X136964285Y-71904761D01*
X137011904Y-71857142D01*
X137059523Y-71761904D01*
X137059523Y-70952380D01*
X137488095Y-71047619D02*
X137535714Y-71000000D01*
X137630952Y-70952380D01*
X137869047Y-70952380D01*
X137964285Y-71000000D01*
X138011904Y-71047619D01*
X138059523Y-71142857D01*
X138059523Y-71238095D01*
X138011904Y-71380952D01*
X137440476Y-71952380D01*
X138059523Y-71952380D01*
%TO.C,SW1*%
X128666666Y-105154761D02*
X128809523Y-105202380D01*
X129047619Y-105202380D01*
X129142857Y-105154761D01*
X129190476Y-105107142D01*
X129238095Y-105011904D01*
X129238095Y-104916666D01*
X129190476Y-104821428D01*
X129142857Y-104773809D01*
X129047619Y-104726190D01*
X128857142Y-104678571D01*
X128761904Y-104630952D01*
X128714285Y-104583333D01*
X128666666Y-104488095D01*
X128666666Y-104392857D01*
X128714285Y-104297619D01*
X128761904Y-104250000D01*
X128857142Y-104202380D01*
X129095238Y-104202380D01*
X129238095Y-104250000D01*
X129571428Y-104202380D02*
X129809523Y-105202380D01*
X130000000Y-104488095D01*
X130190476Y-105202380D01*
X130428571Y-104202380D01*
X131333333Y-105202380D02*
X130761904Y-105202380D01*
X131047619Y-105202380D02*
X131047619Y-104202380D01*
X130952380Y-104345238D01*
X130857142Y-104440476D01*
X130761904Y-104488095D01*
%TO.C,R5*%
X160882380Y-102416666D02*
X160406190Y-102750000D01*
X160882380Y-102988095D02*
X159882380Y-102988095D01*
X159882380Y-102607142D01*
X159930000Y-102511904D01*
X159977619Y-102464285D01*
X160072857Y-102416666D01*
X160215714Y-102416666D01*
X160310952Y-102464285D01*
X160358571Y-102511904D01*
X160406190Y-102607142D01*
X160406190Y-102988095D01*
X159882380Y-101511904D02*
X159882380Y-101988095D01*
X160358571Y-102035714D01*
X160310952Y-101988095D01*
X160263333Y-101892857D01*
X160263333Y-101654761D01*
X160310952Y-101559523D01*
X160358571Y-101511904D01*
X160453809Y-101464285D01*
X160691904Y-101464285D01*
X160787142Y-101511904D01*
X160834761Y-101559523D01*
X160882380Y-101654761D01*
X160882380Y-101892857D01*
X160834761Y-101988095D01*
X160787142Y-102035714D01*
%TO.C,R4*%
X125382380Y-86916666D02*
X124906190Y-87250000D01*
X125382380Y-87488095D02*
X124382380Y-87488095D01*
X124382380Y-87107142D01*
X124430000Y-87011904D01*
X124477619Y-86964285D01*
X124572857Y-86916666D01*
X124715714Y-86916666D01*
X124810952Y-86964285D01*
X124858571Y-87011904D01*
X124906190Y-87107142D01*
X124906190Y-87488095D01*
X124715714Y-86059523D02*
X125382380Y-86059523D01*
X124334761Y-86297619D02*
X125049047Y-86535714D01*
X125049047Y-85916666D01*
%TO.C,R3*%
X124272380Y-86916666D02*
X123796190Y-87250000D01*
X124272380Y-87488095D02*
X123272380Y-87488095D01*
X123272380Y-87107142D01*
X123320000Y-87011904D01*
X123367619Y-86964285D01*
X123462857Y-86916666D01*
X123605714Y-86916666D01*
X123700952Y-86964285D01*
X123748571Y-87011904D01*
X123796190Y-87107142D01*
X123796190Y-87488095D01*
X123272380Y-86583333D02*
X123272380Y-85964285D01*
X123653333Y-86297619D01*
X123653333Y-86154761D01*
X123700952Y-86059523D01*
X123748571Y-86011904D01*
X123843809Y-85964285D01*
X124081904Y-85964285D01*
X124177142Y-86011904D01*
X124224761Y-86059523D01*
X124272380Y-86154761D01*
X124272380Y-86440476D01*
X124224761Y-86535714D01*
X124177142Y-86583333D01*
%TO.C,R2*%
X120202380Y-99416666D02*
X119726190Y-99750000D01*
X120202380Y-99988095D02*
X119202380Y-99988095D01*
X119202380Y-99607142D01*
X119250000Y-99511904D01*
X119297619Y-99464285D01*
X119392857Y-99416666D01*
X119535714Y-99416666D01*
X119630952Y-99464285D01*
X119678571Y-99511904D01*
X119726190Y-99607142D01*
X119726190Y-99988095D01*
X119297619Y-99035714D02*
X119250000Y-98988095D01*
X119202380Y-98892857D01*
X119202380Y-98654761D01*
X119250000Y-98559523D01*
X119297619Y-98511904D01*
X119392857Y-98464285D01*
X119488095Y-98464285D01*
X119630952Y-98511904D01*
X120202380Y-99083333D01*
X120202380Y-98464285D01*
%TO.C,R1*%
X117132380Y-109166666D02*
X116656190Y-109500000D01*
X117132380Y-109738095D02*
X116132380Y-109738095D01*
X116132380Y-109357142D01*
X116180000Y-109261904D01*
X116227619Y-109214285D01*
X116322857Y-109166666D01*
X116465714Y-109166666D01*
X116560952Y-109214285D01*
X116608571Y-109261904D01*
X116656190Y-109357142D01*
X116656190Y-109738095D01*
X117132380Y-108214285D02*
X117132380Y-108785714D01*
X117132380Y-108500000D02*
X116132380Y-108500000D01*
X116275238Y-108595238D01*
X116370476Y-108690476D01*
X116418095Y-108785714D01*
%TO.C,J7*%
X167867780Y-77333333D02*
X168582066Y-77333333D01*
X168724923Y-77380952D01*
X168820161Y-77476190D01*
X168867780Y-77619047D01*
X168867780Y-77714285D01*
X167867780Y-76952380D02*
X167867780Y-76285714D01*
X168867780Y-76714285D01*
%TO.C,J4*%
X151916666Y-76702380D02*
X151916666Y-77416666D01*
X151869047Y-77559523D01*
X151773809Y-77654761D01*
X151630952Y-77702380D01*
X151535714Y-77702380D01*
X152821428Y-77035714D02*
X152821428Y-77702380D01*
X152583333Y-76654761D02*
X152345238Y-77369047D01*
X152964285Y-77369047D01*
%TO.C,F1*%
X98166666Y-53428571D02*
X97833333Y-53428571D01*
X97833333Y-53952380D02*
X97833333Y-52952380D01*
X98309523Y-52952380D01*
X99214285Y-53952380D02*
X98642857Y-53952380D01*
X98928571Y-53952380D02*
X98928571Y-52952380D01*
X98833333Y-53095238D01*
X98738095Y-53190476D01*
X98642857Y-53238095D01*
%TO.C,D4*%
X156522380Y-102988095D02*
X155522380Y-102988095D01*
X155522380Y-102750000D01*
X155570000Y-102607142D01*
X155665238Y-102511904D01*
X155760476Y-102464285D01*
X155950952Y-102416666D01*
X156093809Y-102416666D01*
X156284285Y-102464285D01*
X156379523Y-102511904D01*
X156474761Y-102607142D01*
X156522380Y-102750000D01*
X156522380Y-102988095D01*
X155855714Y-101559523D02*
X156522380Y-101559523D01*
X155474761Y-101797619D02*
X156189047Y-102035714D01*
X156189047Y-101416666D01*
%TO.C,D3*%
X111702380Y-109238095D02*
X110702380Y-109238095D01*
X110702380Y-109000000D01*
X110750000Y-108857142D01*
X110845238Y-108761904D01*
X110940476Y-108714285D01*
X111130952Y-108666666D01*
X111273809Y-108666666D01*
X111464285Y-108714285D01*
X111559523Y-108761904D01*
X111654761Y-108857142D01*
X111702380Y-109000000D01*
X111702380Y-109238095D01*
X110702380Y-108333333D02*
X110702380Y-107714285D01*
X111083333Y-108047619D01*
X111083333Y-107904761D01*
X111130952Y-107809523D01*
X111178571Y-107761904D01*
X111273809Y-107714285D01*
X111511904Y-107714285D01*
X111607142Y-107761904D01*
X111654761Y-107809523D01*
X111702380Y-107904761D01*
X111702380Y-108190476D01*
X111654761Y-108285714D01*
X111607142Y-108333333D01*
%TO.C,D2*%
X154261904Y-65452380D02*
X154261904Y-64452380D01*
X154500000Y-64452380D01*
X154642857Y-64500000D01*
X154738095Y-64595238D01*
X154785714Y-64690476D01*
X154833333Y-64880952D01*
X154833333Y-65023809D01*
X154785714Y-65214285D01*
X154738095Y-65309523D01*
X154642857Y-65404761D01*
X154500000Y-65452380D01*
X154261904Y-65452380D01*
X155214285Y-64547619D02*
X155261904Y-64500000D01*
X155357142Y-64452380D01*
X155595238Y-64452380D01*
X155690476Y-64500000D01*
X155738095Y-64547619D01*
X155785714Y-64642857D01*
X155785714Y-64738095D01*
X155738095Y-64880952D01*
X155166666Y-65452380D01*
X155785714Y-65452380D01*
%TO.C,D1*%
X154261904Y-67702380D02*
X154261904Y-66702380D01*
X154500000Y-66702380D01*
X154642857Y-66750000D01*
X154738095Y-66845238D01*
X154785714Y-66940476D01*
X154833333Y-67130952D01*
X154833333Y-67273809D01*
X154785714Y-67464285D01*
X154738095Y-67559523D01*
X154642857Y-67654761D01*
X154500000Y-67702380D01*
X154261904Y-67702380D01*
X155785714Y-67702380D02*
X155214285Y-67702380D01*
X155500000Y-67702380D02*
X155500000Y-66702380D01*
X155404761Y-66845238D01*
X155309523Y-66940476D01*
X155214285Y-66988095D01*
%TO.C,C14*%
X151287142Y-108392857D02*
X151334761Y-108440476D01*
X151382380Y-108583333D01*
X151382380Y-108678571D01*
X151334761Y-108821428D01*
X151239523Y-108916666D01*
X151144285Y-108964285D01*
X150953809Y-109011904D01*
X150810952Y-109011904D01*
X150620476Y-108964285D01*
X150525238Y-108916666D01*
X150430000Y-108821428D01*
X150382380Y-108678571D01*
X150382380Y-108583333D01*
X150430000Y-108440476D01*
X150477619Y-108392857D01*
X151382380Y-107440476D02*
X151382380Y-108011904D01*
X151382380Y-107726190D02*
X150382380Y-107726190D01*
X150525238Y-107821428D01*
X150620476Y-107916666D01*
X150668095Y-108011904D01*
X150715714Y-106583333D02*
X151382380Y-106583333D01*
X150334761Y-106821428D02*
X151049047Y-107059523D01*
X151049047Y-106440476D01*
%TO.C,C13*%
X142427142Y-108392857D02*
X142474761Y-108440476D01*
X142522380Y-108583333D01*
X142522380Y-108678571D01*
X142474761Y-108821428D01*
X142379523Y-108916666D01*
X142284285Y-108964285D01*
X142093809Y-109011904D01*
X141950952Y-109011904D01*
X141760476Y-108964285D01*
X141665238Y-108916666D01*
X141570000Y-108821428D01*
X141522380Y-108678571D01*
X141522380Y-108583333D01*
X141570000Y-108440476D01*
X141617619Y-108392857D01*
X142522380Y-107440476D02*
X142522380Y-108011904D01*
X142522380Y-107726190D02*
X141522380Y-107726190D01*
X141665238Y-107821428D01*
X141760476Y-107916666D01*
X141808095Y-108011904D01*
X141522380Y-107107142D02*
X141522380Y-106488095D01*
X141903333Y-106821428D01*
X141903333Y-106678571D01*
X141950952Y-106583333D01*
X141998571Y-106535714D01*
X142093809Y-106488095D01*
X142331904Y-106488095D01*
X142427142Y-106535714D01*
X142474761Y-106583333D01*
X142522380Y-106678571D01*
X142522380Y-106964285D01*
X142474761Y-107059523D01*
X142427142Y-107107142D01*
%TO.C,C12*%
X118607142Y-93607142D02*
X118559523Y-93654761D01*
X118416666Y-93702380D01*
X118321428Y-93702380D01*
X118178571Y-93654761D01*
X118083333Y-93559523D01*
X118035714Y-93464285D01*
X117988095Y-93273809D01*
X117988095Y-93130952D01*
X118035714Y-92940476D01*
X118083333Y-92845238D01*
X118178571Y-92750000D01*
X118321428Y-92702380D01*
X118416666Y-92702380D01*
X118559523Y-92750000D01*
X118607142Y-92797619D01*
X119559523Y-93702380D02*
X118988095Y-93702380D01*
X119273809Y-93702380D02*
X119273809Y-92702380D01*
X119178571Y-92845238D01*
X119083333Y-92940476D01*
X118988095Y-92988095D01*
X119940476Y-92797619D02*
X119988095Y-92750000D01*
X120083333Y-92702380D01*
X120321428Y-92702380D01*
X120416666Y-92750000D01*
X120464285Y-92797619D01*
X120511904Y-92892857D01*
X120511904Y-92988095D01*
X120464285Y-93130952D01*
X119892857Y-93702380D01*
X120511904Y-93702380D01*
%TO.C,C11*%
X145107142Y-86427142D02*
X145059523Y-86474761D01*
X144916666Y-86522380D01*
X144821428Y-86522380D01*
X144678571Y-86474761D01*
X144583333Y-86379523D01*
X144535714Y-86284285D01*
X144488095Y-86093809D01*
X144488095Y-85950952D01*
X144535714Y-85760476D01*
X144583333Y-85665238D01*
X144678571Y-85570000D01*
X144821428Y-85522380D01*
X144916666Y-85522380D01*
X145059523Y-85570000D01*
X145107142Y-85617619D01*
X146059523Y-86522380D02*
X145488095Y-86522380D01*
X145773809Y-86522380D02*
X145773809Y-85522380D01*
X145678571Y-85665238D01*
X145583333Y-85760476D01*
X145488095Y-85808095D01*
X147011904Y-86522380D02*
X146440476Y-86522380D01*
X146726190Y-86522380D02*
X146726190Y-85522380D01*
X146630952Y-85665238D01*
X146535714Y-85760476D01*
X146440476Y-85808095D01*
%TO.C,C10*%
X137107142Y-99607142D02*
X137059523Y-99654761D01*
X136916666Y-99702380D01*
X136821428Y-99702380D01*
X136678571Y-99654761D01*
X136583333Y-99559523D01*
X136535714Y-99464285D01*
X136488095Y-99273809D01*
X136488095Y-99130952D01*
X136535714Y-98940476D01*
X136583333Y-98845238D01*
X136678571Y-98750000D01*
X136821428Y-98702380D01*
X136916666Y-98702380D01*
X137059523Y-98750000D01*
X137107142Y-98797619D01*
X138059523Y-99702380D02*
X137488095Y-99702380D01*
X137773809Y-99702380D02*
X137773809Y-98702380D01*
X137678571Y-98845238D01*
X137583333Y-98940476D01*
X137488095Y-98988095D01*
X138678571Y-98702380D02*
X138773809Y-98702380D01*
X138869047Y-98750000D01*
X138916666Y-98797619D01*
X138964285Y-98892857D01*
X139011904Y-99083333D01*
X139011904Y-99321428D01*
X138964285Y-99511904D01*
X138916666Y-99607142D01*
X138869047Y-99654761D01*
X138773809Y-99702380D01*
X138678571Y-99702380D01*
X138583333Y-99654761D01*
X138535714Y-99607142D01*
X138488095Y-99511904D01*
X138440476Y-99321428D01*
X138440476Y-99083333D01*
X138488095Y-98892857D01*
X138535714Y-98797619D01*
X138583333Y-98750000D01*
X138678571Y-98702380D01*
%TO.C,C9*%
X161083333Y-66537142D02*
X161035714Y-66584761D01*
X160892857Y-66632380D01*
X160797619Y-66632380D01*
X160654761Y-66584761D01*
X160559523Y-66489523D01*
X160511904Y-66394285D01*
X160464285Y-66203809D01*
X160464285Y-66060952D01*
X160511904Y-65870476D01*
X160559523Y-65775238D01*
X160654761Y-65680000D01*
X160797619Y-65632380D01*
X160892857Y-65632380D01*
X161035714Y-65680000D01*
X161083333Y-65727619D01*
X161559523Y-66632380D02*
X161750000Y-66632380D01*
X161845238Y-66584761D01*
X161892857Y-66537142D01*
X161988095Y-66394285D01*
X162035714Y-66203809D01*
X162035714Y-65822857D01*
X161988095Y-65727619D01*
X161940476Y-65680000D01*
X161845238Y-65632380D01*
X161654761Y-65632380D01*
X161559523Y-65680000D01*
X161511904Y-65727619D01*
X161464285Y-65822857D01*
X161464285Y-66060952D01*
X161511904Y-66156190D01*
X161559523Y-66203809D01*
X161654761Y-66251428D01*
X161845238Y-66251428D01*
X161940476Y-66203809D01*
X161988095Y-66156190D01*
X162035714Y-66060952D01*
%TO.C,C8*%
X166583333Y-86787142D02*
X166535714Y-86834761D01*
X166392857Y-86882380D01*
X166297619Y-86882380D01*
X166154761Y-86834761D01*
X166059523Y-86739523D01*
X166011904Y-86644285D01*
X165964285Y-86453809D01*
X165964285Y-86310952D01*
X166011904Y-86120476D01*
X166059523Y-86025238D01*
X166154761Y-85930000D01*
X166297619Y-85882380D01*
X166392857Y-85882380D01*
X166535714Y-85930000D01*
X166583333Y-85977619D01*
X167154761Y-86310952D02*
X167059523Y-86263333D01*
X167011904Y-86215714D01*
X166964285Y-86120476D01*
X166964285Y-86072857D01*
X167011904Y-85977619D01*
X167059523Y-85930000D01*
X167154761Y-85882380D01*
X167345238Y-85882380D01*
X167440476Y-85930000D01*
X167488095Y-85977619D01*
X167535714Y-86072857D01*
X167535714Y-86120476D01*
X167488095Y-86215714D01*
X167440476Y-86263333D01*
X167345238Y-86310952D01*
X167154761Y-86310952D01*
X167059523Y-86358571D01*
X167011904Y-86406190D01*
X166964285Y-86501428D01*
X166964285Y-86691904D01*
X167011904Y-86787142D01*
X167059523Y-86834761D01*
X167154761Y-86882380D01*
X167345238Y-86882380D01*
X167440476Y-86834761D01*
X167488095Y-86787142D01*
X167535714Y-86691904D01*
X167535714Y-86501428D01*
X167488095Y-86406190D01*
X167440476Y-86358571D01*
X167345238Y-86310952D01*
%TO.C,C7*%
X140833333Y-86427142D02*
X140785714Y-86474761D01*
X140642857Y-86522380D01*
X140547619Y-86522380D01*
X140404761Y-86474761D01*
X140309523Y-86379523D01*
X140261904Y-86284285D01*
X140214285Y-86093809D01*
X140214285Y-85950952D01*
X140261904Y-85760476D01*
X140309523Y-85665238D01*
X140404761Y-85570000D01*
X140547619Y-85522380D01*
X140642857Y-85522380D01*
X140785714Y-85570000D01*
X140833333Y-85617619D01*
X141166666Y-85522380D02*
X141833333Y-85522380D01*
X141404761Y-86522380D01*
%TO.C,C6*%
X121857142Y-99416666D02*
X121904761Y-99464285D01*
X121952380Y-99607142D01*
X121952380Y-99702380D01*
X121904761Y-99845238D01*
X121809523Y-99940476D01*
X121714285Y-99988095D01*
X121523809Y-100035714D01*
X121380952Y-100035714D01*
X121190476Y-99988095D01*
X121095238Y-99940476D01*
X121000000Y-99845238D01*
X120952380Y-99702380D01*
X120952380Y-99607142D01*
X121000000Y-99464285D01*
X121047619Y-99416666D01*
X120952380Y-98559523D02*
X120952380Y-98750000D01*
X121000000Y-98845238D01*
X121047619Y-98892857D01*
X121190476Y-98988095D01*
X121380952Y-99035714D01*
X121761904Y-99035714D01*
X121857142Y-98988095D01*
X121904761Y-98940476D01*
X121952380Y-98845238D01*
X121952380Y-98654761D01*
X121904761Y-98559523D01*
X121857142Y-98511904D01*
X121761904Y-98464285D01*
X121523809Y-98464285D01*
X121428571Y-98511904D01*
X121380952Y-98559523D01*
X121333333Y-98654761D01*
X121333333Y-98845238D01*
X121380952Y-98940476D01*
X121428571Y-98988095D01*
X121523809Y-99035714D01*
%TO.C,C5*%
X117927142Y-79416666D02*
X117974761Y-79464285D01*
X118022380Y-79607142D01*
X118022380Y-79702380D01*
X117974761Y-79845238D01*
X117879523Y-79940476D01*
X117784285Y-79988095D01*
X117593809Y-80035714D01*
X117450952Y-80035714D01*
X117260476Y-79988095D01*
X117165238Y-79940476D01*
X117070000Y-79845238D01*
X117022380Y-79702380D01*
X117022380Y-79607142D01*
X117070000Y-79464285D01*
X117117619Y-79416666D01*
X117022380Y-78511904D02*
X117022380Y-78988095D01*
X117498571Y-79035714D01*
X117450952Y-78988095D01*
X117403333Y-78892857D01*
X117403333Y-78654761D01*
X117450952Y-78559523D01*
X117498571Y-78511904D01*
X117593809Y-78464285D01*
X117831904Y-78464285D01*
X117927142Y-78511904D01*
X117974761Y-78559523D01*
X118022380Y-78654761D01*
X118022380Y-78892857D01*
X117974761Y-78988095D01*
X117927142Y-79035714D01*
%TO.C,C4*%
X122787142Y-79416666D02*
X122834761Y-79464285D01*
X122882380Y-79607142D01*
X122882380Y-79702380D01*
X122834761Y-79845238D01*
X122739523Y-79940476D01*
X122644285Y-79988095D01*
X122453809Y-80035714D01*
X122310952Y-80035714D01*
X122120476Y-79988095D01*
X122025238Y-79940476D01*
X121930000Y-79845238D01*
X121882380Y-79702380D01*
X121882380Y-79607142D01*
X121930000Y-79464285D01*
X121977619Y-79416666D01*
X122215714Y-78559523D02*
X122882380Y-78559523D01*
X121834761Y-78797619D02*
X122549047Y-79035714D01*
X122549047Y-78416666D01*
%TO.C,C3*%
X148583333Y-58857142D02*
X148535714Y-58904761D01*
X148392857Y-58952380D01*
X148297619Y-58952380D01*
X148154761Y-58904761D01*
X148059523Y-58809523D01*
X148011904Y-58714285D01*
X147964285Y-58523809D01*
X147964285Y-58380952D01*
X148011904Y-58190476D01*
X148059523Y-58095238D01*
X148154761Y-58000000D01*
X148297619Y-57952380D01*
X148392857Y-57952380D01*
X148535714Y-58000000D01*
X148583333Y-58047619D01*
X148916666Y-57952380D02*
X149535714Y-57952380D01*
X149202380Y-58333333D01*
X149345238Y-58333333D01*
X149440476Y-58380952D01*
X149488095Y-58428571D01*
X149535714Y-58523809D01*
X149535714Y-58761904D01*
X149488095Y-58857142D01*
X149440476Y-58904761D01*
X149345238Y-58952380D01*
X149059523Y-58952380D01*
X148964285Y-58904761D01*
X148916666Y-58857142D01*
%TO.C,C2*%
X148583333Y-71287142D02*
X148535714Y-71334761D01*
X148392857Y-71382380D01*
X148297619Y-71382380D01*
X148154761Y-71334761D01*
X148059523Y-71239523D01*
X148011904Y-71144285D01*
X147964285Y-70953809D01*
X147964285Y-70810952D01*
X148011904Y-70620476D01*
X148059523Y-70525238D01*
X148154761Y-70430000D01*
X148297619Y-70382380D01*
X148392857Y-70382380D01*
X148535714Y-70430000D01*
X148583333Y-70477619D01*
X148964285Y-70477619D02*
X149011904Y-70430000D01*
X149107142Y-70382380D01*
X149345238Y-70382380D01*
X149440476Y-70430000D01*
X149488095Y-70477619D01*
X149535714Y-70572857D01*
X149535714Y-70668095D01*
X149488095Y-70810952D01*
X148916666Y-71382380D01*
X149535714Y-71382380D01*
%TO.C,C1*%
X163927142Y-56166666D02*
X163974761Y-56214285D01*
X164022380Y-56357142D01*
X164022380Y-56452380D01*
X163974761Y-56595238D01*
X163879523Y-56690476D01*
X163784285Y-56738095D01*
X163593809Y-56785714D01*
X163450952Y-56785714D01*
X163260476Y-56738095D01*
X163165238Y-56690476D01*
X163070000Y-56595238D01*
X163022380Y-56452380D01*
X163022380Y-56357142D01*
X163070000Y-56214285D01*
X163117619Y-56166666D01*
X164022380Y-55214285D02*
X164022380Y-55785714D01*
X164022380Y-55500000D02*
X163022380Y-55500000D01*
X163165238Y-55595238D01*
X163260476Y-55690476D01*
X163308095Y-55785714D01*
%TO.C,U1*%
X121622380Y-94201904D02*
X122431904Y-94201904D01*
X122527142Y-94154285D01*
X122574761Y-94106666D01*
X122622380Y-94011428D01*
X122622380Y-93820952D01*
X122574761Y-93725714D01*
X122527142Y-93678095D01*
X122431904Y-93630476D01*
X121622380Y-93630476D01*
X122622380Y-92630476D02*
X122622380Y-93201904D01*
X122622380Y-92916190D02*
X121622380Y-92916190D01*
X121765238Y-93011428D01*
X121860476Y-93106666D01*
X121908095Y-93201904D01*
%TD*%
M02*
