M48
; DRILL file {KiCad (5.1.6)-1} date 11/03/21 21:47:25
; FORMAT={-:-/ absolute / inch / decimal}
; #@! TF.CreationDate,2021-11-03T21:47:25-07:00
; #@! TF.GenerationSoftware,Kicad,Pcbnew,(5.1.6)-1
FMAT,2
INCH
T1C0.0157
T2C0.0177
T3C0.0315
T4C0.0394
T5C0.0433
T6C0.0472
T7C0.0512
T8C0.1260
%
G90
G05
T1
X3.8976Y-3.1693
X3.9173Y-4.1437
X4.4291Y-4.1437
X4.4783Y-4.1437
X4.5079Y-3.9665
X4.5374Y-4.1437
X4.5374Y-4.2028
X4.5965Y-4.3209
X4.6752Y-3.7795
X4.6938Y-3.4635
X4.6949Y-3.9665
X4.7259Y-3.6122
X4.8031Y-3.6024
X4.8819Y-3.7303
X4.9409Y-3.3268
X5.1378Y-4.3504
X5.187Y-3.4646
X5.2694Y-3.3873
X5.4035Y-3.3366
X5.4429Y-2.9331
X5.4921Y-3.2579
X5.502Y-2.8839
X5.5413Y-2.5492
X5.5512Y-2.8346
X5.561Y-3.1791
X5.5906Y-2.1654
X5.5906Y-2.2343
X5.5906Y-2.3425
X5.5906Y-2.4016
X5.5906Y-2.6476
X5.5906Y-2.7067
X5.5906Y-2.7657
X5.6496Y-3.0906
X5.748Y-3.002
X5.8661Y-3.435
X5.8858Y-3.6811
X5.9547Y-2.4114
X6.1417Y-3.1791
X6.1516Y-2.3425
X6.2894Y-3.0118
X6.2992Y-2.5197
X6.3189Y-2.6575
X6.3189Y-2.815
X6.3287Y-3.0315
X6.3489Y-2.583
X6.3976Y-3.0906
X6.3976Y-3.3563
X6.436Y-2.2441
X6.5551Y-2.3327
X6.5551Y-2.7461
X6.565Y-2.3917
X6.565Y-2.4409
X6.6437Y-2.5984
T3
X4.9016Y-3.5287
X4.9016Y-3.8287
X5.0016Y-3.5287
X5.0016Y-3.8287
X5.1016Y-3.5287
X5.1016Y-3.8287
X5.2016Y-3.5287
X5.2016Y-3.8287
X5.3016Y-3.5287
X5.3016Y-3.8287
X5.4016Y-3.5287
X5.4016Y-3.8287
X5.5016Y-3.5287
X5.5016Y-3.8287
X5.6016Y-3.5287
X5.6016Y-3.8287
X5.7016Y-3.5287
X5.7016Y-3.8287
X5.8016Y-3.5287
X5.8016Y-3.8287
X5.9016Y-3.5287
X5.9016Y-3.8287
X6.0016Y-3.5287
X6.0016Y-3.8287
X6.1016Y-3.5287
X6.1016Y-3.8287
X6.2016Y-3.5287
X6.2016Y-3.8287
X5.6693Y-4.065
X5.8614Y-4.065
X4.2224Y-2.6378
X4.3169Y-2.3425
T4
X5.8941Y-3.1366
X5.8941Y-3.2366
X5.8941Y-3.3366
X5.9941Y-3.1366
X5.9941Y-3.2366
X5.9941Y-3.3366
X5.7087Y-1.9193
X5.7087Y-2.1161
T5
X4.5311Y-1.8736
X4.5311Y-2.0736
X5.3311Y-1.8736
X5.3311Y-2.2736
T6
X4.9921Y-4.1043
X5.2441Y-4.1043
X4.2717Y-1.8063
X4.2717Y-2.1063
T7
X4.7638Y-4.5472
X4.9606Y-4.5472
X5.1575Y-4.5472
X5.3543Y-4.5472
X5.689Y-4.5472
X5.8858Y-4.5472
X6.0827Y-4.5472
X6.2795Y-4.5472
X3.9567Y-2.3327
X3.9567Y-2.5295
X6.5945Y-3.5827
X6.5945Y-3.7795
X6.5945Y-3.9764
X6.5945Y-4.1732
X4.2323Y-4.5472
X4.4291Y-4.5472
T8
X3.937Y-4.5669
X6.6142Y-4.5669
X3.937Y-1.9291
X6.6142Y-1.9291
T2
G00X6.7382Y-2.2215
M15
G01X6.7697Y-2.2215
M16
G05
G00X6.7697Y-2.503
M15
G01X6.7382Y-2.503
M16
G05
T0
M30
