%TF.GenerationSoftware,KiCad,Pcbnew,(6.0.0)*%
%TF.CreationDate,2022-02-09T06:53:37-08:00*%
%TF.ProjectId,depth-sensor,64657074-682d-4736-956e-736f722e6b69,1*%
%TF.SameCoordinates,Original*%
%TF.FileFunction,Copper,L1,Top*%
%TF.FilePolarity,Positive*%
%FSLAX46Y46*%
G04 Gerber Fmt 4.6, Leading zero omitted, Abs format (unit mm)*
G04 Created by KiCad (PCBNEW (6.0.0)) date 2022-02-09 06:53:37*
%MOMM*%
%LPD*%
G01*
G04 APERTURE LIST*
G04 Aperture macros list*
%AMRoundRect*
0 Rectangle with rounded corners*
0 $1 Rounding radius*
0 $2 $3 $4 $5 $6 $7 $8 $9 X,Y pos of 4 corners*
0 Add a 4 corners polygon primitive as box body*
4,1,4,$2,$3,$4,$5,$6,$7,$8,$9,$2,$3,0*
0 Add four circle primitives for the rounded corners*
1,1,$1+$1,$2,$3*
1,1,$1+$1,$4,$5*
1,1,$1+$1,$6,$7*
1,1,$1+$1,$8,$9*
0 Add four rect primitives between the rounded corners*
20,1,$1+$1,$2,$3,$4,$5,0*
20,1,$1+$1,$4,$5,$6,$7,0*
20,1,$1+$1,$6,$7,$8,$9,0*
20,1,$1+$1,$8,$9,$2,$3,0*%
G04 Aperture macros list end*
%TA.AperFunction,ComponentPad*%
%ADD10R,1.700000X1.700000*%
%TD*%
%TA.AperFunction,ComponentPad*%
%ADD11O,1.700000X1.700000*%
%TD*%
%TA.AperFunction,SMDPad,CuDef*%
%ADD12RoundRect,0.150000X0.150000X-0.587500X0.150000X0.587500X-0.150000X0.587500X-0.150000X-0.587500X0*%
%TD*%
%TA.AperFunction,SMDPad,CuDef*%
%ADD13RoundRect,0.150000X-0.150000X0.675000X-0.150000X-0.675000X0.150000X-0.675000X0.150000X0.675000X0*%
%TD*%
%TA.AperFunction,ComponentPad*%
%ADD14C,1.440000*%
%TD*%
%TA.AperFunction,SMDPad,CuDef*%
%ADD15RoundRect,0.135000X-0.135000X-0.185000X0.135000X-0.185000X0.135000X0.185000X-0.135000X0.185000X0*%
%TD*%
%TA.AperFunction,SMDPad,CuDef*%
%ADD16RoundRect,0.135000X0.185000X-0.135000X0.185000X0.135000X-0.185000X0.135000X-0.185000X-0.135000X0*%
%TD*%
%TA.AperFunction,SMDPad,CuDef*%
%ADD17RoundRect,0.135000X-0.185000X0.135000X-0.185000X-0.135000X0.185000X-0.135000X0.185000X0.135000X0*%
%TD*%
%TA.AperFunction,SMDPad,CuDef*%
%ADD18RoundRect,0.135000X0.135000X0.185000X-0.135000X0.185000X-0.135000X-0.185000X0.135000X-0.185000X0*%
%TD*%
%TA.AperFunction,SMDPad,CuDef*%
%ADD19RoundRect,0.140000X-0.140000X-0.170000X0.140000X-0.170000X0.140000X0.170000X-0.140000X0.170000X0*%
%TD*%
%TA.AperFunction,SMDPad,CuDef*%
%ADD20RoundRect,0.140000X0.170000X-0.140000X0.170000X0.140000X-0.170000X0.140000X-0.170000X-0.140000X0*%
%TD*%
%TA.AperFunction,ViaPad*%
%ADD21C,0.600000*%
%TD*%
%TA.AperFunction,Conductor*%
%ADD22C,0.400000*%
%TD*%
G04 APERTURE END LIST*
D10*
%TO.P,J3,1,Pin_1*%
%TO.N,+9V*%
X121000000Y-56300000D03*
D11*
%TO.P,J3,2,Pin_2*%
%TO.N,VOUT*%
X121000000Y-53760000D03*
%TO.P,J3,3,Pin_3*%
%TO.N,ON*%
X121000000Y-51220000D03*
%TO.P,J3,4,Pin_4*%
%TO.N,GND*%
X121000000Y-48680000D03*
%TD*%
D10*
%TO.P,J2,1,Pin_1*%
%TO.N,VDD*%
X98000000Y-48700000D03*
D11*
%TO.P,J2,2,Pin_2*%
%TO.N,Net-(J2-Pad2)*%
X98000000Y-51240000D03*
%TO.P,J2,3,Pin_3*%
%TO.N,Net-(J2-Pad3)*%
X98000000Y-53780000D03*
%TO.P,J2,4,Pin_4*%
%TO.N,GND*%
X98000000Y-56320000D03*
%TD*%
D10*
%TO.P,J1,1,Pin_1*%
%TO.N,+9V*%
X114600000Y-63000000D03*
D11*
%TO.P,J1,2,Pin_2*%
%TO.N,GND*%
X112060000Y-63000000D03*
%TD*%
D12*
%TO.P,U3,1,K*%
%TO.N,Net-(C8-Pad2)*%
X115550000Y-52812500D03*
%TO.P,U3,2,REF*%
X117450000Y-52812500D03*
%TO.P,U3,3,A*%
%TO.N,Net-(R17-Pad1)*%
X116500000Y-50937500D03*
%TD*%
D13*
%TO.P,U2,8,V+*%
%TO.N,VDD*%
X113655000Y-56500000D03*
%TO.P,U2,7*%
%TO.N,Net-(R13-Pad2)*%
X112385000Y-56500000D03*
%TO.P,U2,6,-*%
X111115000Y-56500000D03*
%TO.P,U2,5,+*%
%TO.N,Net-(C5-Pad2)*%
X109845000Y-56500000D03*
%TO.P,U2,4,V-*%
%TO.N,GND*%
X109845000Y-51250000D03*
%TO.P,U2,3,+*%
%TO.N,Net-(R12-Pad2)*%
X111115000Y-51250000D03*
%TO.P,U2,2,-*%
%TO.N,Net-(C8-Pad1)*%
X112385000Y-51250000D03*
%TO.P,U2,1*%
%TO.N,Net-(C8-Pad2)*%
X113655000Y-51250000D03*
%TD*%
%TO.P,U1,1*%
%TO.N,Net-(C3-Pad2)*%
X106905000Y-49375000D03*
%TO.P,U1,2,-*%
%TO.N,Net-(C3-Pad1)*%
X105635000Y-49375000D03*
%TO.P,U1,3,+*%
%TO.N,Net-(U1-Pad3)*%
X104365000Y-49375000D03*
%TO.P,U1,4,V-*%
%TO.N,GND*%
X103095000Y-49375000D03*
%TO.P,U1,5,+*%
%TO.N,Net-(C2-Pad2)*%
X103095000Y-54625000D03*
%TO.P,U1,6,-*%
%TO.N,Net-(C4-Pad1)*%
X104365000Y-54625000D03*
%TO.P,U1,7*%
%TO.N,Net-(C4-Pad2)*%
X105635000Y-54625000D03*
%TO.P,U1,8,V+*%
%TO.N,VDD*%
X106905000Y-54625000D03*
%TD*%
D14*
%TO.P,RV2,1,1*%
%TO.N,Net-(C3-Pad1)*%
X111025000Y-43925000D03*
%TO.P,RV2,2,2*%
%TO.N,Net-(C4-Pad1)*%
X108485000Y-41385000D03*
%TO.P,RV2,3,3*%
X105945000Y-43925000D03*
%TD*%
%TO.P,RV1,3,3*%
%TO.N,GND*%
X106375000Y-59420000D03*
%TO.P,RV1,2,2*%
%TO.N,Net-(C5-Pad2)*%
X108915000Y-61960000D03*
%TO.P,RV1,1,1*%
%TO.N,VDD*%
X106375000Y-64500000D03*
%TD*%
D15*
%TO.P,R18,1*%
%TO.N,Net-(R17-Pad1)*%
X115740000Y-49375000D03*
%TO.P,R18,2*%
%TO.N,VOUT*%
X116760000Y-49375000D03*
%TD*%
D16*
%TO.P,R17,2*%
%TO.N,GND*%
X114750000Y-48365000D03*
%TO.P,R17,1*%
%TO.N,Net-(R17-Pad1)*%
X114750000Y-49385000D03*
%TD*%
D15*
%TO.P,R14,1*%
%TO.N,Net-(C8-Pad1)*%
X112490000Y-48625000D03*
%TO.P,R14,2*%
%TO.N,Net-(C8-Pad2)*%
X113510000Y-48625000D03*
%TD*%
D17*
%TO.P,R13,1*%
%TO.N,Net-(R12-Pad2)*%
X108500000Y-54240000D03*
%TO.P,R13,2*%
%TO.N,Net-(R13-Pad2)*%
X108500000Y-55260000D03*
%TD*%
%TO.P,R12,1*%
%TO.N,Net-(C4-Pad2)*%
X108500000Y-52240000D03*
%TO.P,R12,2*%
%TO.N,Net-(R12-Pad2)*%
X108500000Y-53260000D03*
%TD*%
D15*
%TO.P,R11,1*%
%TO.N,Net-(C3-Pad2)*%
X108490000Y-49250000D03*
%TO.P,R11,2*%
%TO.N,Net-(C8-Pad1)*%
X109510000Y-49250000D03*
%TD*%
%TO.P,R8,1*%
%TO.N,Net-(C4-Pad1)*%
X104000000Y-56500000D03*
%TO.P,R8,2*%
%TO.N,Net-(C4-Pad2)*%
X105020000Y-56500000D03*
%TD*%
D18*
%TO.P,R7,1*%
%TO.N,Net-(C3-Pad2)*%
X104010000Y-47000000D03*
%TO.P,R7,2*%
%TO.N,Net-(C3-Pad1)*%
X102990000Y-47000000D03*
%TD*%
D15*
%TO.P,R5,2*%
%TO.N,Net-(C2-Pad2)*%
X101510000Y-54500000D03*
%TO.P,R5,1*%
%TO.N,Net-(J2-Pad3)*%
X100490000Y-54500000D03*
%TD*%
%TO.P,R4,2*%
%TO.N,Net-(U1-Pad3)*%
X101520000Y-52000000D03*
%TO.P,R4,1*%
%TO.N,Net-(J2-Pad2)*%
X100500000Y-52000000D03*
%TD*%
%TO.P,R3,1*%
%TO.N,Net-(Q1-Pad3)*%
X114990000Y-59500000D03*
%TO.P,R3,2*%
%TO.N,Net-(Q2-Pad1)*%
X116010000Y-59500000D03*
%TD*%
D18*
%TO.P,R2,2*%
%TO.N,ON*%
X113990000Y-47000000D03*
%TO.P,R2,1*%
%TO.N,GND*%
X115010000Y-47000000D03*
%TD*%
D15*
%TO.P,R1,1*%
%TO.N,Net-(Q2-Pad1)*%
X115990000Y-58500000D03*
%TO.P,R1,2*%
%TO.N,+9V*%
X117010000Y-58500000D03*
%TD*%
D12*
%TO.P,Q2,3,D*%
%TO.N,VDD*%
X116500000Y-55062500D03*
%TO.P,Q2,2,S*%
%TO.N,+9V*%
X117450000Y-56937500D03*
%TO.P,Q2,1,G*%
%TO.N,Net-(Q2-Pad1)*%
X115550000Y-56937500D03*
%TD*%
%TO.P,Q1,1,G*%
%TO.N,ON*%
X113550000Y-45437500D03*
%TO.P,Q1,2,S*%
%TO.N,GND*%
X115450000Y-45437500D03*
%TO.P,Q1,3,D*%
%TO.N,Net-(Q1-Pad3)*%
X114500000Y-43562500D03*
%TD*%
D19*
%TO.P,C10,1*%
%TO.N,GND*%
X115770000Y-48375000D03*
%TO.P,C10,2*%
%TO.N,VOUT*%
X116730000Y-48375000D03*
%TD*%
%TO.P,C9,1*%
%TO.N,GND*%
X112770000Y-58125000D03*
%TO.P,C9,2*%
%TO.N,VDD*%
X113730000Y-58125000D03*
%TD*%
%TO.P,C8,1*%
%TO.N,Net-(C8-Pad1)*%
X112520000Y-49625000D03*
%TO.P,C8,2*%
%TO.N,Net-(C8-Pad2)*%
X113480000Y-49625000D03*
%TD*%
%TO.P,C7,1*%
%TO.N,GND*%
X107500000Y-56250000D03*
%TO.P,C7,2*%
%TO.N,Net-(C5-Pad2)*%
X108460000Y-56250000D03*
%TD*%
D20*
%TO.P,C6,1*%
%TO.N,GND*%
X106500000Y-57230000D03*
%TO.P,C6,2*%
%TO.N,VDD*%
X106500000Y-56270000D03*
%TD*%
D19*
%TO.P,C5,1*%
%TO.N,GND*%
X107500000Y-57250000D03*
%TO.P,C5,2*%
%TO.N,Net-(C5-Pad2)*%
X108460000Y-57250000D03*
%TD*%
%TO.P,C4,1*%
%TO.N,Net-(C4-Pad1)*%
X104030000Y-57500000D03*
%TO.P,C4,2*%
%TO.N,Net-(C4-Pad2)*%
X104990000Y-57500000D03*
%TD*%
%TO.P,C3,1*%
%TO.N,Net-(C3-Pad1)*%
X103020000Y-46000000D03*
%TO.P,C3,2*%
%TO.N,Net-(C3-Pad2)*%
X103980000Y-46000000D03*
%TD*%
%TO.P,C2,2*%
%TO.N,Net-(C2-Pad2)*%
X101490000Y-57000000D03*
%TO.P,C2,1*%
%TO.N,GND*%
X100530000Y-57000000D03*
%TD*%
%TO.P,C1,2*%
%TO.N,Net-(U1-Pad3)*%
X101480000Y-49500000D03*
%TO.P,C1,1*%
%TO.N,GND*%
X100520000Y-49500000D03*
%TD*%
D21*
%TO.N,GND*%
X108585000Y-45720000D03*
X111125000Y-41275000D03*
%TO.N,VDD*%
X113665000Y-54610000D03*
%TO.N,GND*%
X109855000Y-52070000D03*
%TO.N,ON*%
X112500000Y-47000000D03*
%TO.N,Net-(Q1-Pad3)*%
X114509500Y-58000000D03*
X111500000Y-46500000D03*
%TO.N,Net-(C4-Pad1)*%
X104775000Y-53975000D03*
%TO.N,VDD*%
X106045000Y-56515000D03*
%TD*%
D22*
%TO.N,+9V*%
X115570000Y-60325000D02*
X114600000Y-61295000D01*
X116260925Y-60325000D02*
X115570000Y-60325000D01*
X114600000Y-61295000D02*
X114600000Y-63000000D01*
X117010000Y-58500000D02*
X117010000Y-59575925D01*
X117010000Y-59575925D02*
X116260925Y-60325000D01*
%TO.N,GND*%
X109855000Y-51260000D02*
X109855000Y-52070000D01*
X109845000Y-51250000D02*
X109855000Y-51260000D01*
%TO.N,Net-(C4-Pad1)*%
X104365000Y-54385000D02*
X104775000Y-53975000D01*
X104365000Y-54625000D02*
X104365000Y-54385000D01*
%TO.N,Net-(R12-Pad2)*%
X108504123Y-53264123D02*
X108500000Y-53260000D01*
X111115000Y-51799245D02*
X109650122Y-53264123D01*
X111115000Y-51250000D02*
X111115000Y-51799245D01*
X109650122Y-53264123D02*
X108504123Y-53264123D01*
%TO.N,VDD*%
X113655000Y-56500000D02*
X113655000Y-54620000D01*
X113655000Y-54620000D02*
X113665000Y-54610000D01*
X106905000Y-55655000D02*
X106045000Y-56515000D01*
X106905000Y-54625000D02*
X106905000Y-55655000D01*
X106905000Y-55595000D02*
X106905000Y-54625000D01*
X106500000Y-56000000D02*
X106905000Y-55595000D01*
X106500000Y-56270000D02*
X106500000Y-56000000D01*
%TO.N,ON*%
X113990000Y-47000000D02*
X112500000Y-47000000D01*
%TO.N,Net-(Q1-Pad3)*%
X114500000Y-43562500D02*
X113910362Y-43562500D01*
X111500000Y-45972862D02*
X111500000Y-46500000D01*
X113910362Y-43562500D02*
X111500000Y-45972862D01*
X114509500Y-59019500D02*
X114990000Y-59500000D01*
X114509500Y-58000000D02*
X114509500Y-59019500D01*
%TO.N,VDD*%
X113655000Y-56355755D02*
X113655000Y-56500000D01*
X114948255Y-55062500D02*
X113655000Y-56355755D01*
X116500000Y-55062500D02*
X114948255Y-55062500D01*
%TO.N,Net-(R17-Pad1)*%
X115740000Y-49375000D02*
X115740000Y-50177500D01*
X115740000Y-50177500D02*
X116500000Y-50937500D01*
X115730000Y-49385000D02*
X115740000Y-49375000D01*
X114750000Y-49385000D02*
X115730000Y-49385000D01*
%TO.N,GND*%
X115770000Y-47730000D02*
X115834520Y-47665480D01*
X119985480Y-47665480D02*
X121000000Y-48680000D01*
X115770000Y-48375000D02*
X115770000Y-47730000D01*
X115834520Y-47665480D02*
X119985480Y-47665480D01*
%TO.N,VOUT*%
X116760000Y-49520000D02*
X121000000Y-53760000D01*
X116760000Y-49375000D02*
X116760000Y-49520000D01*
X116730000Y-49345000D02*
X116760000Y-49375000D01*
X116730000Y-48375000D02*
X116730000Y-49345000D01*
%TO.N,GND*%
X115010000Y-47000000D02*
X115010000Y-48105000D01*
X115010000Y-48105000D02*
X114750000Y-48365000D01*
X115760000Y-48365000D02*
X115770000Y-48375000D01*
X114750000Y-48365000D02*
X115760000Y-48365000D01*
X115450000Y-46560000D02*
X115010000Y-47000000D01*
X115450000Y-45437500D02*
X115450000Y-46560000D01*
%TO.N,ON*%
X113550000Y-46560000D02*
X113990000Y-47000000D01*
X113550000Y-45437500D02*
X113550000Y-46560000D01*
%TO.N,Net-(C8-Pad1)*%
X112145000Y-49250000D02*
X112520000Y-49625000D01*
X109510000Y-49250000D02*
X112145000Y-49250000D01*
X112385000Y-48730000D02*
X112490000Y-48625000D01*
X112385000Y-51250000D02*
X112385000Y-48730000D01*
%TO.N,Net-(C8-Pad2)*%
X113987500Y-51250000D02*
X115550000Y-52812500D01*
X113655000Y-51250000D02*
X113987500Y-51250000D01*
X113510000Y-51105000D02*
X113655000Y-51250000D01*
X113510000Y-48625000D02*
X113510000Y-51105000D01*
X115550000Y-52812500D02*
X117450000Y-52812500D01*
%TO.N,Net-(Q2-Pad1)*%
X116010000Y-59500000D02*
X116010000Y-58520000D01*
X116010000Y-58520000D02*
X115990000Y-58500000D01*
%TO.N,+9V*%
X117450000Y-56937500D02*
X120362500Y-56937500D01*
X120362500Y-56937500D02*
X121000000Y-56300000D01*
X117010000Y-57377500D02*
X117450000Y-56937500D01*
X117010000Y-58500000D02*
X117010000Y-57377500D01*
%TO.N,Net-(Q2-Pad1)*%
X115990000Y-57377500D02*
X115550000Y-56937500D01*
X115990000Y-58500000D02*
X115990000Y-57377500D01*
%TO.N,VDD*%
X113730000Y-56575000D02*
X113655000Y-56500000D01*
X113730000Y-58125000D02*
X113730000Y-56575000D01*
%TO.N,Net-(R13-Pad2)*%
X112385000Y-56500000D02*
X111115000Y-56500000D01*
X111115000Y-56167862D02*
X111115000Y-56500000D01*
X108500000Y-55260000D02*
X110207138Y-55260000D01*
X110207138Y-55260000D02*
X111115000Y-56167862D01*
%TO.N,GND*%
X96000000Y-48200978D02*
X96000000Y-54320000D01*
X97200978Y-47000000D02*
X96000000Y-48200978D01*
X98799022Y-47000000D02*
X97200978Y-47000000D01*
X96000000Y-54320000D02*
X98000000Y-56320000D01*
X100520000Y-48720978D02*
X98799022Y-47000000D01*
X100520000Y-49500000D02*
X100520000Y-48720978D01*
%TO.N,Net-(C4-Pad2)*%
X105635000Y-53375755D02*
X106770755Y-52240000D01*
X105635000Y-54625000D02*
X105635000Y-53375755D01*
X106770755Y-52240000D02*
X108500000Y-52240000D01*
%TO.N,GND*%
X102510480Y-48790480D02*
X103095000Y-49375000D01*
X101116524Y-48790480D02*
X102510480Y-48790480D01*
X100520000Y-49387004D02*
X101116524Y-48790480D01*
X100520000Y-49500000D02*
X100520000Y-49387004D01*
X102837004Y-59420000D02*
X100530000Y-57112996D01*
X106375000Y-59420000D02*
X102837004Y-59420000D01*
X100530000Y-57112996D02*
X100530000Y-57000000D01*
%TO.N,Net-(R12-Pad2)*%
X108500000Y-54240000D02*
X108500000Y-53260000D01*
%TO.N,Net-(C3-Pad1)*%
X109905489Y-42805489D02*
X111025000Y-43925000D01*
X103694511Y-42805489D02*
X109905489Y-42805489D01*
X103020000Y-43480000D02*
X103694511Y-42805489D01*
X103020000Y-46000000D02*
X103020000Y-43480000D01*
%TO.N,Net-(C3-Pad2)*%
X106905000Y-48405000D02*
X106905000Y-49375000D01*
X105500000Y-47000000D02*
X106905000Y-48405000D01*
X104010000Y-47000000D02*
X105500000Y-47000000D01*
%TO.N,Net-(C3-Pad1)*%
X104765589Y-47719520D02*
X103653595Y-47719520D01*
X105635000Y-48588931D02*
X104765589Y-47719520D01*
X103653595Y-47719520D02*
X102990000Y-47055925D01*
X105635000Y-49375000D02*
X105635000Y-48588931D01*
X102990000Y-47055925D02*
X102990000Y-47000000D01*
X102990000Y-46030000D02*
X103020000Y-46000000D01*
X102990000Y-47000000D02*
X102990000Y-46030000D01*
%TO.N,Net-(C3-Pad2)*%
X107030000Y-49250000D02*
X106905000Y-49375000D01*
X108490000Y-49250000D02*
X107030000Y-49250000D01*
X103980000Y-46970000D02*
X104010000Y-47000000D01*
X103980000Y-46000000D02*
X103980000Y-46970000D01*
%TO.N,Net-(U1-Pad3)*%
X102921069Y-52000000D02*
X101520000Y-52000000D01*
X104365000Y-50556069D02*
X102921069Y-52000000D01*
X104365000Y-49375000D02*
X104365000Y-50556069D01*
X101520000Y-49540000D02*
X101480000Y-49500000D01*
X101520000Y-52000000D02*
X101520000Y-49540000D01*
%TO.N,GND*%
X99850000Y-56320000D02*
X100530000Y-57000000D01*
X98000000Y-56320000D02*
X99850000Y-56320000D01*
%TO.N,Net-(J2-Pad3)*%
X99770000Y-53780000D02*
X100490000Y-54500000D01*
X98000000Y-53780000D02*
X99770000Y-53780000D01*
%TO.N,Net-(J2-Pad2)*%
X98760000Y-52000000D02*
X98000000Y-51240000D01*
X100500000Y-52000000D02*
X98760000Y-52000000D01*
%TO.N,Net-(C2-Pad2)*%
X101635000Y-54625000D02*
X101510000Y-54500000D01*
X103095000Y-54625000D02*
X101635000Y-54625000D01*
X101490000Y-54520000D02*
X101510000Y-54500000D01*
X101490000Y-57000000D02*
X101490000Y-54520000D01*
%TO.N,Net-(C4-Pad1)*%
X104030000Y-54960000D02*
X104030000Y-57500000D01*
X104365000Y-54625000D02*
X104030000Y-54960000D01*
%TO.N,Net-(C4-Pad2)*%
X105635000Y-55885000D02*
X105020000Y-56500000D01*
X105635000Y-54625000D02*
X105635000Y-55885000D01*
X104990000Y-57500000D02*
X104990000Y-56530000D01*
X104990000Y-56530000D02*
X105020000Y-56500000D01*
%TO.N,GND*%
X107500000Y-56250000D02*
X107500000Y-57250000D01*
X106520000Y-57250000D02*
X106500000Y-57230000D01*
X107500000Y-57250000D02*
X106520000Y-57250000D01*
X106375000Y-57355000D02*
X106500000Y-57230000D01*
X106375000Y-59420000D02*
X106375000Y-57355000D01*
%TO.N,Net-(C5-Pad2)*%
X108915000Y-57705000D02*
X108915000Y-61960000D01*
X108460000Y-57250000D02*
X108915000Y-57705000D01*
X109845000Y-56500000D02*
X108710000Y-56500000D01*
X108710000Y-56500000D02*
X108460000Y-56250000D01*
X108460000Y-56250000D02*
X108460000Y-57250000D01*
%TO.N,GND*%
X112060000Y-58835000D02*
X112770000Y-58125000D01*
X112060000Y-63000000D02*
X112060000Y-58835000D01*
%TD*%
%TA.AperFunction,Conductor*%
%TO.N,GND*%
G36*
X108030879Y-40028002D02*
G01*
X108077372Y-40081658D01*
X108087476Y-40151932D01*
X108057982Y-40216512D01*
X108016008Y-40248195D01*
X107873385Y-40314701D01*
X107873382Y-40314703D01*
X107868404Y-40317024D01*
X107692319Y-40440319D01*
X107540319Y-40592319D01*
X107417024Y-40768404D01*
X107414703Y-40773382D01*
X107414701Y-40773385D01*
X107352802Y-40906127D01*
X107326178Y-40963223D01*
X107324756Y-40968531D01*
X107324755Y-40968533D01*
X107300141Y-41060393D01*
X107270542Y-41170858D01*
X107251807Y-41385000D01*
X107270542Y-41599142D01*
X107271966Y-41604455D01*
X107271966Y-41604457D01*
X107318839Y-41779386D01*
X107326178Y-41806777D01*
X107370576Y-41901987D01*
X107377921Y-41917739D01*
X107388582Y-41987930D01*
X107359602Y-42052743D01*
X107300183Y-42091600D01*
X107263726Y-42096989D01*
X103723438Y-42096989D01*
X103714869Y-42096697D01*
X103664736Y-42093279D01*
X103664732Y-42093279D01*
X103657159Y-42092763D01*
X103594192Y-42103753D01*
X103587680Y-42104713D01*
X103524269Y-42112387D01*
X103517168Y-42115070D01*
X103514559Y-42115711D01*
X103498239Y-42120176D01*
X103495706Y-42120941D01*
X103488228Y-42122246D01*
X103429701Y-42147937D01*
X103423619Y-42150419D01*
X103403264Y-42158111D01*
X103370960Y-42170317D01*
X103370958Y-42170318D01*
X103363855Y-42173002D01*
X103357596Y-42177303D01*
X103355231Y-42178540D01*
X103340459Y-42186762D01*
X103338167Y-42188117D01*
X103331206Y-42191173D01*
X103325179Y-42195798D01*
X103325175Y-42195800D01*
X103280498Y-42230082D01*
X103275173Y-42233951D01*
X103222530Y-42270132D01*
X103217478Y-42275802D01*
X103217477Y-42275803D01*
X103181091Y-42316642D01*
X103176111Y-42321918D01*
X102539465Y-42958565D01*
X102533198Y-42964419D01*
X102495340Y-42997444D01*
X102495337Y-42997447D01*
X102489615Y-43002439D01*
X102456661Y-43049328D01*
X102452872Y-43054719D01*
X102448939Y-43060014D01*
X102409524Y-43110282D01*
X102406401Y-43117198D01*
X102405017Y-43119484D01*
X102396643Y-43134165D01*
X102395378Y-43136525D01*
X102391010Y-43142739D01*
X102388250Y-43149818D01*
X102388249Y-43149820D01*
X102367798Y-43202275D01*
X102365247Y-43208344D01*
X102338955Y-43266573D01*
X102337571Y-43274040D01*
X102336770Y-43276595D01*
X102332141Y-43292848D01*
X102331478Y-43295428D01*
X102328718Y-43302509D01*
X102327727Y-43310040D01*
X102327726Y-43310042D01*
X102320379Y-43365852D01*
X102319348Y-43372359D01*
X102307704Y-43435186D01*
X102308141Y-43442766D01*
X102308141Y-43442767D01*
X102311291Y-43497392D01*
X102311500Y-43504646D01*
X102311500Y-45482849D01*
X102293953Y-45546988D01*
X102284144Y-45563575D01*
X102280106Y-45570403D01*
X102277895Y-45578014D01*
X102277894Y-45578016D01*
X102265626Y-45620245D01*
X102234394Y-45727746D01*
X102231500Y-45764516D01*
X102231500Y-46235484D01*
X102231693Y-46237932D01*
X102231693Y-46237940D01*
X102231879Y-46240296D01*
X102234394Y-46272254D01*
X102262283Y-46368249D01*
X102276497Y-46417175D01*
X102281500Y-46452328D01*
X102281500Y-46486125D01*
X102265969Y-46542896D01*
X102266915Y-46543305D01*
X102264038Y-46549953D01*
X102263953Y-46550264D01*
X102263769Y-46550576D01*
X102259731Y-46557404D01*
X102214371Y-46713534D01*
X102213867Y-46719941D01*
X102213866Y-46719945D01*
X102211693Y-46747556D01*
X102211500Y-46750011D01*
X102211501Y-47249988D01*
X102214371Y-47286466D01*
X102259731Y-47442596D01*
X102263766Y-47449418D01*
X102263766Y-47449419D01*
X102327389Y-47557000D01*
X102342494Y-47582541D01*
X102457459Y-47697506D01*
X102597404Y-47780269D01*
X102605015Y-47782480D01*
X102605017Y-47782481D01*
X102728389Y-47818324D01*
X102782331Y-47850226D01*
X102795818Y-47863713D01*
X102829844Y-47926025D01*
X102824779Y-47996840D01*
X102782232Y-48053676D01*
X102741878Y-48073805D01*
X102689209Y-48089108D01*
X102674779Y-48095352D01*
X102545322Y-48171911D01*
X102532896Y-48181551D01*
X102426551Y-48287896D01*
X102416911Y-48300322D01*
X102340352Y-48429779D01*
X102334107Y-48444210D01*
X102291731Y-48590065D01*
X102289430Y-48602667D01*
X102287193Y-48631084D01*
X102287000Y-48636014D01*
X102287000Y-48775693D01*
X102266998Y-48843814D01*
X102213342Y-48890307D01*
X102143068Y-48900411D01*
X102078488Y-48870917D01*
X102071905Y-48864788D01*
X102020629Y-48813512D01*
X101992682Y-48796984D01*
X101886420Y-48734141D01*
X101886419Y-48734141D01*
X101879597Y-48730106D01*
X101871986Y-48727895D01*
X101871984Y-48727894D01*
X101798144Y-48706442D01*
X101722254Y-48684394D01*
X101715849Y-48683890D01*
X101715844Y-48683889D01*
X101687940Y-48681693D01*
X101687932Y-48681693D01*
X101685484Y-48681500D01*
X101274516Y-48681500D01*
X101272068Y-48681693D01*
X101272060Y-48681693D01*
X101244156Y-48683889D01*
X101244151Y-48683890D01*
X101237746Y-48684394D01*
X101161856Y-48706442D01*
X101088016Y-48727894D01*
X101088014Y-48727895D01*
X101080403Y-48730106D01*
X101073576Y-48734143D01*
X101073577Y-48734143D01*
X101063647Y-48740015D01*
X100994830Y-48757474D01*
X100935372Y-48740016D01*
X100926222Y-48734605D01*
X100911784Y-48728357D01*
X100791395Y-48693381D01*
X100777295Y-48693421D01*
X100774000Y-48700691D01*
X100774000Y-48978621D01*
X100756454Y-49042760D01*
X100740106Y-49070403D01*
X100737895Y-49078014D01*
X100737894Y-49078016D01*
X100724956Y-49122550D01*
X100694394Y-49227746D01*
X100693890Y-49234151D01*
X100693889Y-49234156D01*
X100693191Y-49243031D01*
X100691500Y-49264516D01*
X100691500Y-49735484D01*
X100691693Y-49737932D01*
X100691693Y-49737940D01*
X100693184Y-49756876D01*
X100694394Y-49772254D01*
X100740106Y-49929597D01*
X100744141Y-49936419D01*
X100744141Y-49936420D01*
X100756454Y-49957240D01*
X100774000Y-50021379D01*
X100774000Y-50293558D01*
X100782375Y-50322080D01*
X100806396Y-50359457D01*
X100811500Y-50394956D01*
X100811500Y-51045500D01*
X100791498Y-51113621D01*
X100737842Y-51160114D01*
X100685500Y-51171500D01*
X100358307Y-51171501D01*
X100300012Y-51171501D01*
X100263534Y-51174371D01*
X100169942Y-51201562D01*
X100115017Y-51217519D01*
X100115015Y-51217520D01*
X100107404Y-51219731D01*
X100100579Y-51223767D01*
X100100575Y-51223769D01*
X100015718Y-51273953D01*
X99951579Y-51291500D01*
X99483456Y-51291500D01*
X99415335Y-51271498D01*
X99368842Y-51217842D01*
X99357880Y-51175824D01*
X99349547Y-51074474D01*
X99344852Y-51017361D01*
X99290431Y-50800702D01*
X99201354Y-50595840D01*
X99191489Y-50580590D01*
X99082822Y-50412617D01*
X99082820Y-50412614D01*
X99080014Y-50408277D01*
X99065765Y-50392617D01*
X98932798Y-50246488D01*
X98901746Y-50182642D01*
X98910141Y-50112143D01*
X98955317Y-50057375D01*
X98981761Y-50043706D01*
X99088297Y-50003767D01*
X99096705Y-50000615D01*
X99213261Y-49913261D01*
X99300615Y-49796705D01*
X99311085Y-49768775D01*
X99734937Y-49768775D01*
X99736688Y-49778359D01*
X99778357Y-49921784D01*
X99784604Y-49936220D01*
X99859876Y-50063499D01*
X99869516Y-50075926D01*
X99974074Y-50180484D01*
X99986501Y-50190124D01*
X100113780Y-50265396D01*
X100128216Y-50271643D01*
X100248605Y-50306619D01*
X100262705Y-50306579D01*
X100266000Y-50299309D01*
X100266000Y-49772115D01*
X100261525Y-49756876D01*
X100260135Y-49755671D01*
X100252452Y-49754000D01*
X99751576Y-49754000D01*
X99736781Y-49758344D01*
X99734937Y-49768775D01*
X99311085Y-49768775D01*
X99351745Y-49660316D01*
X99358500Y-49598134D01*
X99358500Y-49229609D01*
X99735232Y-49229609D01*
X99738052Y-49243031D01*
X99749513Y-49246000D01*
X100247885Y-49246000D01*
X100263124Y-49241525D01*
X100264329Y-49240135D01*
X100266000Y-49232452D01*
X100266000Y-48706442D01*
X100262027Y-48692911D01*
X100254129Y-48691776D01*
X100128216Y-48728357D01*
X100113780Y-48734604D01*
X99986501Y-48809876D01*
X99974074Y-48819516D01*
X99869516Y-48924074D01*
X99859876Y-48936501D01*
X99784604Y-49063780D01*
X99778357Y-49078216D01*
X99736688Y-49221641D01*
X99735232Y-49229609D01*
X99358500Y-49229609D01*
X99358500Y-47801866D01*
X99351745Y-47739684D01*
X99300615Y-47603295D01*
X99213261Y-47486739D01*
X99096705Y-47399385D01*
X98960316Y-47348255D01*
X98898134Y-47341500D01*
X97101866Y-47341500D01*
X97039684Y-47348255D01*
X96903295Y-47399385D01*
X96786739Y-47486739D01*
X96699385Y-47603295D01*
X96648255Y-47739684D01*
X96641500Y-47801866D01*
X96641500Y-49598134D01*
X96648255Y-49660316D01*
X96699385Y-49796705D01*
X96786739Y-49913261D01*
X96903295Y-50000615D01*
X96911704Y-50003767D01*
X96911705Y-50003768D01*
X97020451Y-50044535D01*
X97077216Y-50087176D01*
X97101916Y-50153738D01*
X97086709Y-50223087D01*
X97067316Y-50249568D01*
X96963313Y-50358401D01*
X96940629Y-50382138D01*
X96814743Y-50566680D01*
X96776308Y-50649481D01*
X96729164Y-50751046D01*
X96720688Y-50769305D01*
X96660989Y-50984570D01*
X96660440Y-50989707D01*
X96659622Y-50997361D01*
X96637251Y-51206695D01*
X96637548Y-51211848D01*
X96637548Y-51211851D01*
X96641975Y-51288621D01*
X96650110Y-51429715D01*
X96651247Y-51434761D01*
X96651248Y-51434767D01*
X96672619Y-51529596D01*
X96699222Y-51647639D01*
X96729340Y-51721811D01*
X96780338Y-51847404D01*
X96783266Y-51854616D01*
X96899987Y-52045088D01*
X97046250Y-52213938D01*
X97218126Y-52356632D01*
X97243159Y-52371260D01*
X97291445Y-52399476D01*
X97340169Y-52451114D01*
X97353240Y-52520897D01*
X97326509Y-52586669D01*
X97286055Y-52620027D01*
X97273607Y-52626507D01*
X97269474Y-52629610D01*
X97269471Y-52629612D01*
X97110769Y-52748769D01*
X97094965Y-52760635D01*
X96940629Y-52922138D01*
X96937715Y-52926410D01*
X96937714Y-52926411D01*
X96897471Y-52985405D01*
X96814743Y-53106680D01*
X96785002Y-53170752D01*
X96725249Y-53299480D01*
X96720688Y-53309305D01*
X96660989Y-53524570D01*
X96637251Y-53746695D01*
X96637548Y-53751848D01*
X96637548Y-53751851D01*
X96644581Y-53873818D01*
X96650110Y-53969715D01*
X96651247Y-53974761D01*
X96651248Y-53974767D01*
X96670075Y-54058307D01*
X96699222Y-54187639D01*
X96729340Y-54261811D01*
X96778269Y-54382309D01*
X96783266Y-54394616D01*
X96799711Y-54421452D01*
X96896229Y-54578955D01*
X96899987Y-54585088D01*
X97046250Y-54753938D01*
X97218126Y-54896632D01*
X97276762Y-54930896D01*
X97291955Y-54939774D01*
X97340679Y-54991412D01*
X97353750Y-55061195D01*
X97327019Y-55126967D01*
X97286562Y-55160327D01*
X97278457Y-55164546D01*
X97269738Y-55170036D01*
X97099433Y-55297905D01*
X97091726Y-55304748D01*
X96944590Y-55458717D01*
X96938104Y-55466727D01*
X96818098Y-55642649D01*
X96813000Y-55651623D01*
X96723338Y-55844783D01*
X96719775Y-55854470D01*
X96664389Y-56054183D01*
X96665912Y-56062607D01*
X96678292Y-56066000D01*
X99318344Y-56066000D01*
X99331875Y-56062027D01*
X99333180Y-56052947D01*
X99291214Y-55885875D01*
X99287894Y-55876124D01*
X99202972Y-55680814D01*
X99198105Y-55671739D01*
X99082426Y-55492926D01*
X99076136Y-55484757D01*
X98932806Y-55327240D01*
X98925273Y-55320215D01*
X98758139Y-55188222D01*
X98749556Y-55182520D01*
X98712602Y-55162120D01*
X98662631Y-55111687D01*
X98647859Y-55042245D01*
X98672975Y-54975839D01*
X98700327Y-54949232D01*
X98752079Y-54912318D01*
X98879860Y-54821173D01*
X98914689Y-54786466D01*
X98971321Y-54730031D01*
X99038096Y-54663489D01*
X99041112Y-54659292D01*
X99126132Y-54540974D01*
X99182127Y-54497326D01*
X99228455Y-54488500D01*
X99424340Y-54488500D01*
X99492461Y-54508502D01*
X99513435Y-54525405D01*
X99676366Y-54688336D01*
X99710392Y-54750648D01*
X99712883Y-54767548D01*
X99714371Y-54786466D01*
X99759731Y-54942596D01*
X99763766Y-54949418D01*
X99763766Y-54949419D01*
X99772723Y-54964565D01*
X99842494Y-55082541D01*
X99957459Y-55197506D01*
X99964280Y-55201540D01*
X99988486Y-55215855D01*
X100097404Y-55280269D01*
X100105015Y-55282480D01*
X100105017Y-55282481D01*
X100153302Y-55296509D01*
X100253534Y-55325629D01*
X100259941Y-55326133D01*
X100259945Y-55326134D01*
X100287556Y-55328307D01*
X100287562Y-55328307D01*
X100290011Y-55328500D01*
X100316732Y-55328500D01*
X100655500Y-55328499D01*
X100723620Y-55348501D01*
X100770113Y-55402156D01*
X100781500Y-55454499D01*
X100781500Y-56482849D01*
X100763953Y-56546988D01*
X100754144Y-56563575D01*
X100750106Y-56570403D01*
X100747895Y-56578014D01*
X100747894Y-56578016D01*
X100743798Y-56592115D01*
X100704394Y-56727746D01*
X100703890Y-56734151D01*
X100703889Y-56734156D01*
X100701693Y-56762060D01*
X100701500Y-56764516D01*
X100701500Y-57235484D01*
X100701693Y-57237932D01*
X100701693Y-57237940D01*
X100703785Y-57264516D01*
X100704394Y-57272254D01*
X100750106Y-57429597D01*
X100754141Y-57436419D01*
X100754141Y-57436420D01*
X100766454Y-57457240D01*
X100784000Y-57521379D01*
X100784000Y-57793558D01*
X100787973Y-57807089D01*
X100795871Y-57808224D01*
X100921784Y-57771643D01*
X100936222Y-57765395D01*
X100945372Y-57759984D01*
X101014188Y-57742526D01*
X101073647Y-57759985D01*
X101081531Y-57764647D01*
X101090403Y-57769894D01*
X101098014Y-57772105D01*
X101098016Y-57772106D01*
X101125560Y-57780108D01*
X101247746Y-57815606D01*
X101254151Y-57816110D01*
X101254156Y-57816111D01*
X101282060Y-57818307D01*
X101282068Y-57818307D01*
X101284516Y-57818500D01*
X101695484Y-57818500D01*
X101697932Y-57818307D01*
X101697940Y-57818307D01*
X101725844Y-57816111D01*
X101725849Y-57816110D01*
X101732254Y-57815606D01*
X101854440Y-57780108D01*
X101881984Y-57772106D01*
X101881986Y-57772105D01*
X101889597Y-57769894D01*
X101897205Y-57765395D01*
X102023808Y-57690522D01*
X102030629Y-57686488D01*
X102146488Y-57570629D01*
X102229894Y-57429597D01*
X102275606Y-57272254D01*
X102276216Y-57264516D01*
X102278307Y-57237940D01*
X102278307Y-57237932D01*
X102278500Y-57235484D01*
X102278500Y-56764516D01*
X102278307Y-56762060D01*
X102276111Y-56734156D01*
X102276110Y-56734151D01*
X102275606Y-56727746D01*
X102236202Y-56592115D01*
X102232106Y-56578016D01*
X102232105Y-56578014D01*
X102229894Y-56570403D01*
X102225856Y-56563575D01*
X102216047Y-56546988D01*
X102198500Y-56482849D01*
X102198500Y-55786940D01*
X102218502Y-55718819D01*
X102272158Y-55672326D01*
X102342432Y-55662222D01*
X102407012Y-55691716D01*
X102419284Y-55704671D01*
X102420547Y-55706807D01*
X102538193Y-55824453D01*
X102545017Y-55828489D01*
X102545020Y-55828491D01*
X102642052Y-55885875D01*
X102681399Y-55909145D01*
X102689010Y-55911356D01*
X102689012Y-55911357D01*
X102741231Y-55926528D01*
X102841169Y-55955562D01*
X102847574Y-55956066D01*
X102847579Y-55956067D01*
X102876042Y-55958307D01*
X102876050Y-55958307D01*
X102878498Y-55958500D01*
X103130649Y-55958500D01*
X103198770Y-55978502D01*
X103245263Y-56032158D01*
X103255367Y-56102432D01*
X103251646Y-56119653D01*
X103224371Y-56213534D01*
X103223867Y-56219941D01*
X103223866Y-56219945D01*
X103222015Y-56243470D01*
X103221500Y-56250011D01*
X103221501Y-56749988D01*
X103224371Y-56786466D01*
X103269731Y-56942596D01*
X103273767Y-56949420D01*
X103273768Y-56949423D01*
X103281379Y-56962293D01*
X103298838Y-57031109D01*
X103289948Y-57070357D01*
X103290106Y-57070403D01*
X103289342Y-57073031D01*
X103289340Y-57073039D01*
X103244394Y-57227746D01*
X103243890Y-57234151D01*
X103243889Y-57234156D01*
X103241693Y-57262060D01*
X103241500Y-57264516D01*
X103241500Y-57735484D01*
X103244394Y-57772254D01*
X103290106Y-57929597D01*
X103294140Y-57936418D01*
X103294141Y-57936420D01*
X103365504Y-58057089D01*
X103373512Y-58070629D01*
X103489371Y-58186488D01*
X103496192Y-58190522D01*
X103614054Y-58260225D01*
X103630403Y-58269894D01*
X103638014Y-58272105D01*
X103638016Y-58272106D01*
X103688995Y-58286916D01*
X103787746Y-58315606D01*
X103794151Y-58316110D01*
X103794156Y-58316111D01*
X103822060Y-58318307D01*
X103822068Y-58318307D01*
X103824516Y-58318500D01*
X104235484Y-58318500D01*
X104237932Y-58318307D01*
X104237940Y-58318307D01*
X104265844Y-58316111D01*
X104265849Y-58316110D01*
X104272254Y-58315606D01*
X104371005Y-58286916D01*
X104421984Y-58272106D01*
X104421986Y-58272105D01*
X104429597Y-58269894D01*
X104439611Y-58263972D01*
X104445863Y-58260275D01*
X104514680Y-58242817D01*
X104574137Y-58260275D01*
X104580389Y-58263972D01*
X104590403Y-58269894D01*
X104598014Y-58272105D01*
X104598016Y-58272106D01*
X104648995Y-58286916D01*
X104747746Y-58315606D01*
X104754151Y-58316110D01*
X104754156Y-58316111D01*
X104782060Y-58318307D01*
X104782068Y-58318307D01*
X104784516Y-58318500D01*
X105195484Y-58318500D01*
X105197932Y-58318307D01*
X105197940Y-58318307D01*
X105225844Y-58316111D01*
X105225849Y-58316110D01*
X105232254Y-58315606D01*
X105331005Y-58286916D01*
X105381984Y-58272106D01*
X105381986Y-58272105D01*
X105389597Y-58269894D01*
X105405947Y-58260225D01*
X105523808Y-58190522D01*
X105530629Y-58186488D01*
X105646488Y-58070629D01*
X105654774Y-58056619D01*
X105700556Y-57979205D01*
X105729894Y-57929597D01*
X105730708Y-57926797D01*
X105774691Y-57873935D01*
X105842398Y-57852573D01*
X105910906Y-57871208D01*
X105922148Y-57878990D01*
X105936501Y-57890124D01*
X106063780Y-57965396D01*
X106078218Y-57971644D01*
X106104245Y-57979205D01*
X106164081Y-58017417D01*
X106193759Y-58081914D01*
X106183856Y-58152216D01*
X106137517Y-58206005D01*
X106101705Y-58221909D01*
X105958702Y-58260227D01*
X105948413Y-58263972D01*
X105763636Y-58350135D01*
X105754150Y-58355613D01*
X105719393Y-58379949D01*
X105711017Y-58390428D01*
X105718083Y-58403872D01*
X106362189Y-59047979D01*
X106376132Y-59055592D01*
X106377966Y-59055461D01*
X106384580Y-59051210D01*
X107032640Y-58403149D01*
X107039067Y-58391379D01*
X107029773Y-58379365D01*
X106995854Y-58355615D01*
X106986359Y-58350132D01*
X106801587Y-58263972D01*
X106791291Y-58260225D01*
X106778352Y-58256758D01*
X106717729Y-58219808D01*
X106686706Y-58155948D01*
X106695133Y-58085454D01*
X106740335Y-58030706D01*
X106775807Y-58014054D01*
X106929396Y-57969431D01*
X106929954Y-57971351D01*
X106989932Y-57963952D01*
X107033641Y-57979831D01*
X107093776Y-58015394D01*
X107108216Y-58021643D01*
X107228605Y-58056619D01*
X107242705Y-58056579D01*
X107246000Y-58049309D01*
X107246000Y-57522115D01*
X107241525Y-57506876D01*
X107240135Y-57505671D01*
X107232452Y-57504000D01*
X106734283Y-57504000D01*
X106688229Y-57490478D01*
X106658452Y-57484000D01*
X106455985Y-57484000D01*
X106387864Y-57463998D01*
X106341371Y-57410342D01*
X106331267Y-57340068D01*
X106360761Y-57275488D01*
X106391468Y-57249771D01*
X106428416Y-57227746D01*
X106488655Y-57191836D01*
X106530860Y-57166677D01*
X106530862Y-57166676D01*
X106536912Y-57163069D01*
X106586628Y-57115725D01*
X106610225Y-57093254D01*
X106673350Y-57060762D01*
X106697117Y-57058500D01*
X106735484Y-57058500D01*
X106737932Y-57058307D01*
X106737940Y-57058307D01*
X106765844Y-57056111D01*
X106765849Y-57056110D01*
X106772254Y-57055606D01*
X106871005Y-57026916D01*
X106921984Y-57012106D01*
X106921986Y-57012105D01*
X106929597Y-57009894D01*
X106957240Y-56993546D01*
X107021379Y-56976000D01*
X107227885Y-56976000D01*
X107243124Y-56971525D01*
X107244329Y-56970135D01*
X107246000Y-56962452D01*
X107246000Y-56744470D01*
X107263546Y-56680331D01*
X107265859Y-56676420D01*
X107265859Y-56676419D01*
X107269894Y-56669597D01*
X107315606Y-56512254D01*
X107317648Y-56486320D01*
X107318307Y-56477940D01*
X107318307Y-56477932D01*
X107318500Y-56475484D01*
X107318500Y-56295660D01*
X107338502Y-56227539D01*
X107355405Y-56206565D01*
X107385520Y-56176450D01*
X107391785Y-56170596D01*
X107429660Y-56137555D01*
X107435385Y-56132561D01*
X107442413Y-56122561D01*
X107497947Y-56078329D01*
X107568579Y-56071143D01*
X107631883Y-56103284D01*
X107667762Y-56164547D01*
X107671500Y-56195011D01*
X107671500Y-56485484D01*
X107671693Y-56487932D01*
X107671693Y-56487940D01*
X107673607Y-56512254D01*
X107674394Y-56522254D01*
X107720106Y-56679597D01*
X107724142Y-56686421D01*
X107727290Y-56693696D01*
X107725946Y-56694278D01*
X107741270Y-56754676D01*
X107726244Y-56805851D01*
X107727290Y-56806304D01*
X107724142Y-56813579D01*
X107720106Y-56820403D01*
X107717895Y-56828014D01*
X107717894Y-56828016D01*
X107703084Y-56878995D01*
X107674394Y-56977746D01*
X107673890Y-56984151D01*
X107673889Y-56984156D01*
X107671693Y-57012060D01*
X107671500Y-57014516D01*
X107671500Y-57485484D01*
X107671693Y-57487932D01*
X107671693Y-57487940D01*
X107673184Y-57506876D01*
X107674394Y-57522254D01*
X107695595Y-57595229D01*
X107713870Y-57658131D01*
X107720106Y-57679597D01*
X107724141Y-57686419D01*
X107724141Y-57686420D01*
X107736454Y-57707240D01*
X107754000Y-57771379D01*
X107754000Y-58043558D01*
X107757973Y-58057089D01*
X107765871Y-58058224D01*
X107891784Y-58021643D01*
X107906222Y-58015395D01*
X107915372Y-58009984D01*
X107984188Y-57992526D01*
X108043647Y-58009985D01*
X108050528Y-58014054D01*
X108060403Y-58019894D01*
X108095779Y-58030172D01*
X108115654Y-58035946D01*
X108175489Y-58074160D01*
X108205166Y-58138656D01*
X108206500Y-58156943D01*
X108206500Y-60890784D01*
X108186498Y-60958905D01*
X108152773Y-60993995D01*
X108122319Y-61015319D01*
X107970319Y-61167319D01*
X107847024Y-61343404D01*
X107756178Y-61538223D01*
X107754756Y-61543531D01*
X107754755Y-61543533D01*
X107717042Y-61684280D01*
X107700542Y-61745858D01*
X107681807Y-61960000D01*
X107700542Y-62174142D01*
X107701966Y-62179455D01*
X107701966Y-62179457D01*
X107753078Y-62370206D01*
X107756178Y-62381777D01*
X107758500Y-62386757D01*
X107758501Y-62386759D01*
X107781071Y-62435159D01*
X107847024Y-62576596D01*
X107970319Y-62752681D01*
X108122319Y-62904681D01*
X108298403Y-63027976D01*
X108303381Y-63030297D01*
X108303384Y-63030299D01*
X108448598Y-63098013D01*
X108493223Y-63118822D01*
X108498531Y-63120244D01*
X108498533Y-63120245D01*
X108695543Y-63173034D01*
X108695545Y-63173034D01*
X108700858Y-63174458D01*
X108915000Y-63193193D01*
X109129142Y-63174458D01*
X109134455Y-63173034D01*
X109134457Y-63173034D01*
X109331467Y-63120245D01*
X109331469Y-63120244D01*
X109336777Y-63118822D01*
X109381402Y-63098013D01*
X109526616Y-63030299D01*
X109526619Y-63030297D01*
X109531597Y-63027976D01*
X109707681Y-62904681D01*
X109859681Y-62752681D01*
X109872633Y-62734183D01*
X110724389Y-62734183D01*
X110725912Y-62742607D01*
X110738292Y-62746000D01*
X111787885Y-62746000D01*
X111803124Y-62741525D01*
X111804329Y-62740135D01*
X111806000Y-62732452D01*
X111806000Y-61683102D01*
X111802082Y-61669758D01*
X111787806Y-61667771D01*
X111749324Y-61673660D01*
X111739288Y-61676051D01*
X111536868Y-61742212D01*
X111527359Y-61746209D01*
X111338463Y-61844542D01*
X111329738Y-61850036D01*
X111159433Y-61977905D01*
X111151726Y-61984748D01*
X111004590Y-62138717D01*
X110998104Y-62146727D01*
X110878098Y-62322649D01*
X110873000Y-62331623D01*
X110783338Y-62524783D01*
X110779775Y-62534470D01*
X110724389Y-62734183D01*
X109872633Y-62734183D01*
X109982976Y-62576596D01*
X110048930Y-62435159D01*
X110071499Y-62386759D01*
X110071500Y-62386757D01*
X110073822Y-62381777D01*
X110076923Y-62370206D01*
X110128034Y-62179457D01*
X110128034Y-62179455D01*
X110129458Y-62174142D01*
X110148193Y-61960000D01*
X110129458Y-61745858D01*
X110112958Y-61684280D01*
X110075245Y-61543533D01*
X110075244Y-61543531D01*
X110073822Y-61538223D01*
X109982976Y-61343404D01*
X109859681Y-61167319D01*
X109707681Y-61015319D01*
X109677228Y-60993996D01*
X109632901Y-60938540D01*
X109623500Y-60890784D01*
X109623500Y-58393775D01*
X111984937Y-58393775D01*
X111986688Y-58403359D01*
X112028357Y-58546784D01*
X112034604Y-58561220D01*
X112109876Y-58688499D01*
X112119516Y-58700926D01*
X112224074Y-58805484D01*
X112236501Y-58815124D01*
X112363780Y-58890396D01*
X112378216Y-58896643D01*
X112498605Y-58931619D01*
X112512705Y-58931579D01*
X112516000Y-58924309D01*
X112516000Y-58397115D01*
X112511525Y-58381876D01*
X112510135Y-58380671D01*
X112502452Y-58379000D01*
X112001576Y-58379000D01*
X111986781Y-58383344D01*
X111984937Y-58393775D01*
X109623500Y-58393775D01*
X109623500Y-57959500D01*
X109643502Y-57891379D01*
X109697158Y-57844886D01*
X109749500Y-57833500D01*
X110061502Y-57833500D01*
X110063950Y-57833307D01*
X110063958Y-57833307D01*
X110092421Y-57831067D01*
X110092426Y-57831066D01*
X110098831Y-57830562D01*
X110226201Y-57793558D01*
X110250988Y-57786357D01*
X110250990Y-57786356D01*
X110258601Y-57784145D01*
X110401807Y-57699453D01*
X110404489Y-57696771D01*
X110468861Y-57671498D01*
X110538484Y-57685400D01*
X110554312Y-57695572D01*
X110558193Y-57699453D01*
X110701399Y-57784145D01*
X110709010Y-57786356D01*
X110709012Y-57786357D01*
X110733799Y-57793558D01*
X110861169Y-57830562D01*
X110867574Y-57831066D01*
X110867579Y-57831067D01*
X110896042Y-57833307D01*
X110896050Y-57833307D01*
X110898498Y-57833500D01*
X111331502Y-57833500D01*
X111333950Y-57833307D01*
X111333958Y-57833307D01*
X111362421Y-57831067D01*
X111362426Y-57831066D01*
X111368831Y-57830562D01*
X111496201Y-57793558D01*
X111520988Y-57786357D01*
X111520990Y-57786356D01*
X111528601Y-57784145D01*
X111671807Y-57699453D01*
X111674489Y-57696771D01*
X111738861Y-57671498D01*
X111808484Y-57685400D01*
X111824312Y-57695572D01*
X111828193Y-57699453D01*
X111884943Y-57733015D01*
X111922530Y-57755244D01*
X111970983Y-57807137D01*
X111981699Y-57837791D01*
X111988052Y-57868031D01*
X111999513Y-57871000D01*
X112815500Y-57871000D01*
X112883621Y-57891002D01*
X112930114Y-57944658D01*
X112941500Y-57997000D01*
X112941500Y-58360484D01*
X112941693Y-58362932D01*
X112941693Y-58362940D01*
X112943857Y-58390428D01*
X112944394Y-58397254D01*
X112990106Y-58554597D01*
X112994141Y-58561419D01*
X112994141Y-58561420D01*
X113006454Y-58582240D01*
X113024000Y-58646379D01*
X113024000Y-58918558D01*
X113027973Y-58932089D01*
X113035871Y-58933224D01*
X113161784Y-58896643D01*
X113176222Y-58890395D01*
X113185372Y-58884984D01*
X113254188Y-58867526D01*
X113313647Y-58884985D01*
X113321531Y-58889647D01*
X113330403Y-58894894D01*
X113338014Y-58897105D01*
X113338016Y-58897106D01*
X113388995Y-58911916D01*
X113487746Y-58940606D01*
X113494151Y-58941110D01*
X113494156Y-58941111D01*
X113522060Y-58943307D01*
X113522068Y-58943307D01*
X113524516Y-58943500D01*
X113672179Y-58943500D01*
X113740300Y-58963502D01*
X113786793Y-59017158D01*
X113796532Y-59056894D01*
X113796775Y-59056852D01*
X113798082Y-59064339D01*
X113807761Y-59119799D01*
X113808723Y-59126321D01*
X113816398Y-59189742D01*
X113819081Y-59196843D01*
X113819722Y-59199452D01*
X113824185Y-59215762D01*
X113824950Y-59218298D01*
X113826257Y-59225784D01*
X113829311Y-59232741D01*
X113851942Y-59284295D01*
X113854433Y-59290399D01*
X113877013Y-59350156D01*
X113881317Y-59356419D01*
X113882554Y-59358785D01*
X113890799Y-59373597D01*
X113892132Y-59375851D01*
X113895185Y-59382805D01*
X113931078Y-59429580D01*
X113934079Y-59433491D01*
X113937959Y-59438832D01*
X113969839Y-59485220D01*
X113969844Y-59485225D01*
X113974143Y-59491481D01*
X113979813Y-59496532D01*
X113979814Y-59496534D01*
X114020670Y-59532935D01*
X114025946Y-59537916D01*
X114176366Y-59688336D01*
X114210392Y-59750648D01*
X114212883Y-59767548D01*
X114214371Y-59786466D01*
X114232998Y-59850580D01*
X114253678Y-59921760D01*
X114259731Y-59942596D01*
X114263766Y-59949418D01*
X114263766Y-59949419D01*
X114337899Y-60074772D01*
X114342494Y-60082541D01*
X114457459Y-60197506D01*
X114467233Y-60203287D01*
X114469078Y-60205262D01*
X114470549Y-60206403D01*
X114470365Y-60206640D01*
X114515687Y-60255175D01*
X114528396Y-60325025D01*
X114501324Y-60390658D01*
X114492193Y-60400837D01*
X114119480Y-60773550D01*
X114113215Y-60779404D01*
X114069615Y-60817439D01*
X114065248Y-60823653D01*
X114032872Y-60869719D01*
X114028939Y-60875014D01*
X113989524Y-60925282D01*
X113986401Y-60932198D01*
X113985017Y-60934484D01*
X113976643Y-60949165D01*
X113975378Y-60951525D01*
X113971010Y-60957739D01*
X113948772Y-61014778D01*
X113947798Y-61017275D01*
X113945247Y-61023344D01*
X113918955Y-61081573D01*
X113917571Y-61089040D01*
X113916770Y-61091595D01*
X113912141Y-61107848D01*
X113911478Y-61110428D01*
X113908718Y-61117509D01*
X113901567Y-61171831D01*
X113900379Y-61180852D01*
X113899348Y-61187359D01*
X113887704Y-61250186D01*
X113888141Y-61257766D01*
X113888141Y-61257767D01*
X113891291Y-61312392D01*
X113891500Y-61319646D01*
X113891500Y-61515500D01*
X113871498Y-61583621D01*
X113817842Y-61630114D01*
X113765500Y-61641500D01*
X113701866Y-61641500D01*
X113639684Y-61648255D01*
X113503295Y-61699385D01*
X113386739Y-61786739D01*
X113299385Y-61903295D01*
X113296233Y-61911703D01*
X113296232Y-61911705D01*
X113254722Y-62022433D01*
X113212081Y-62079198D01*
X113145519Y-62103898D01*
X113076170Y-62088691D01*
X113043546Y-62063004D01*
X112992799Y-62007234D01*
X112985273Y-62000215D01*
X112818139Y-61868222D01*
X112809552Y-61862517D01*
X112623117Y-61759599D01*
X112613705Y-61755369D01*
X112412959Y-61684280D01*
X112402988Y-61681646D01*
X112331837Y-61668972D01*
X112318540Y-61670432D01*
X112314000Y-61684989D01*
X112314000Y-64318517D01*
X112318064Y-64332359D01*
X112331478Y-64334393D01*
X112338184Y-64333534D01*
X112348262Y-64331392D01*
X112552255Y-64270191D01*
X112561842Y-64266433D01*
X112753095Y-64172739D01*
X112761945Y-64167464D01*
X112935328Y-64043792D01*
X112943193Y-64037145D01*
X113047897Y-63932805D01*
X113110268Y-63898889D01*
X113181075Y-63904077D01*
X113237837Y-63946723D01*
X113254819Y-63977826D01*
X113299385Y-64096705D01*
X113386739Y-64213261D01*
X113503295Y-64300615D01*
X113639684Y-64351745D01*
X113701866Y-64358500D01*
X115498134Y-64358500D01*
X115560316Y-64351745D01*
X115696705Y-64300615D01*
X115813261Y-64213261D01*
X115900615Y-64096705D01*
X115951745Y-63960316D01*
X115958500Y-63898134D01*
X115958500Y-62132703D01*
X117890743Y-62132703D01*
X117891302Y-62136947D01*
X117891302Y-62136951D01*
X117896898Y-62179457D01*
X117928268Y-62417734D01*
X118004129Y-62695036D01*
X118116923Y-62959476D01*
X118159310Y-63030299D01*
X118256800Y-63193193D01*
X118264561Y-63206161D01*
X118444313Y-63430528D01*
X118652851Y-63628423D01*
X118886317Y-63796186D01*
X118890112Y-63798195D01*
X118890113Y-63798196D01*
X118909950Y-63808699D01*
X119140392Y-63930712D01*
X119246842Y-63969667D01*
X119348064Y-64006709D01*
X119410373Y-64029511D01*
X119691264Y-64090755D01*
X119719841Y-64093004D01*
X119914282Y-64108307D01*
X119914291Y-64108307D01*
X119916739Y-64108500D01*
X120072271Y-64108500D01*
X120074407Y-64108354D01*
X120074418Y-64108354D01*
X120282548Y-64094165D01*
X120282554Y-64094164D01*
X120286825Y-64093873D01*
X120291020Y-64093004D01*
X120291022Y-64093004D01*
X120427584Y-64064723D01*
X120568342Y-64035574D01*
X120839343Y-63939607D01*
X121094812Y-63807750D01*
X121098313Y-63805289D01*
X121098317Y-63805287D01*
X121243253Y-63703424D01*
X121330023Y-63642441D01*
X121427177Y-63552160D01*
X121537479Y-63449661D01*
X121537481Y-63449658D01*
X121540622Y-63446740D01*
X121722713Y-63224268D01*
X121872927Y-62979142D01*
X121896879Y-62924579D01*
X121986757Y-62719830D01*
X121988483Y-62715898D01*
X122067244Y-62439406D01*
X122107751Y-62154784D01*
X122107794Y-62146727D01*
X122109235Y-61871583D01*
X122109235Y-61871576D01*
X122109257Y-61867297D01*
X122071732Y-61582266D01*
X121995871Y-61304964D01*
X121944328Y-61184124D01*
X121884763Y-61044476D01*
X121884761Y-61044472D01*
X121883077Y-61040524D01*
X121784021Y-60875014D01*
X121737643Y-60797521D01*
X121737640Y-60797517D01*
X121735439Y-60793839D01*
X121555687Y-60569472D01*
X121347149Y-60371577D01*
X121113683Y-60203814D01*
X121109385Y-60201538D01*
X121068654Y-60179972D01*
X120859608Y-60069288D01*
X120589627Y-59970489D01*
X120308736Y-59909245D01*
X120277685Y-59906801D01*
X120085718Y-59891693D01*
X120085709Y-59891693D01*
X120083261Y-59891500D01*
X119927729Y-59891500D01*
X119925593Y-59891646D01*
X119925582Y-59891646D01*
X119717452Y-59905835D01*
X119717446Y-59905836D01*
X119713175Y-59906127D01*
X119708980Y-59906996D01*
X119708978Y-59906996D01*
X119604936Y-59928542D01*
X119431658Y-59964426D01*
X119160657Y-60060393D01*
X118905188Y-60192250D01*
X118901687Y-60194711D01*
X118901683Y-60194713D01*
X118885167Y-60206321D01*
X118669977Y-60357559D01*
X118459378Y-60553260D01*
X118277287Y-60775732D01*
X118166588Y-60956375D01*
X118134804Y-61008243D01*
X118127073Y-61020858D01*
X118125347Y-61024791D01*
X118125346Y-61024792D01*
X118056841Y-61180852D01*
X118011517Y-61284102D01*
X117932756Y-61560594D01*
X117906340Y-61746209D01*
X117899550Y-61793919D01*
X117892249Y-61845216D01*
X117892227Y-61849505D01*
X117892226Y-61849512D01*
X117890765Y-62128417D01*
X117890743Y-62132703D01*
X115958500Y-62132703D01*
X115958500Y-62101866D01*
X115951745Y-62039684D01*
X115900615Y-61903295D01*
X115813261Y-61786739D01*
X115696705Y-61699385D01*
X115560316Y-61648255D01*
X115543172Y-61646393D01*
X115540691Y-61646123D01*
X115475130Y-61618880D01*
X115434704Y-61560516D01*
X115432250Y-61489562D01*
X115465206Y-61431764D01*
X115587868Y-61309103D01*
X115826567Y-61070404D01*
X115888879Y-61036379D01*
X115915662Y-61033500D01*
X116232013Y-61033500D01*
X116240583Y-61033792D01*
X116290701Y-61037209D01*
X116290705Y-61037209D01*
X116298277Y-61037725D01*
X116305754Y-61036420D01*
X116305755Y-61036420D01*
X116332233Y-61031799D01*
X116361228Y-61026738D01*
X116367746Y-61025777D01*
X116431167Y-61018102D01*
X116438268Y-61015419D01*
X116440877Y-61014778D01*
X116457187Y-61010315D01*
X116459723Y-61009550D01*
X116467209Y-61008243D01*
X116525725Y-60982556D01*
X116531829Y-60980065D01*
X116584473Y-60960173D01*
X116584474Y-60960172D01*
X116591581Y-60957487D01*
X116597844Y-60953183D01*
X116600210Y-60951946D01*
X116615022Y-60943701D01*
X116617276Y-60942368D01*
X116624230Y-60939315D01*
X116674927Y-60900413D01*
X116680257Y-60896541D01*
X116726645Y-60864661D01*
X116726650Y-60864656D01*
X116732906Y-60860357D01*
X116774361Y-60813829D01*
X116779341Y-60808554D01*
X117490520Y-60097375D01*
X117496785Y-60091521D01*
X117500653Y-60088147D01*
X117540385Y-60053486D01*
X117577129Y-60001205D01*
X117581061Y-59995911D01*
X117615791Y-59951618D01*
X117620476Y-59945643D01*
X117623599Y-59938727D01*
X117624983Y-59936441D01*
X117633357Y-59921760D01*
X117634622Y-59919400D01*
X117638990Y-59913186D01*
X117662203Y-59853648D01*
X117664759Y-59847567D01*
X117665202Y-59846587D01*
X117691045Y-59789352D01*
X117692429Y-59781885D01*
X117693230Y-59779330D01*
X117697859Y-59763077D01*
X117698522Y-59760497D01*
X117701282Y-59753416D01*
X117709622Y-59690064D01*
X117710653Y-59683557D01*
X117720844Y-59628575D01*
X117722296Y-59620739D01*
X117718709Y-59558533D01*
X117718500Y-59551279D01*
X117718500Y-59013875D01*
X117734031Y-58957104D01*
X117733085Y-58956695D01*
X117735962Y-58950047D01*
X117736047Y-58949736D01*
X117736231Y-58949424D01*
X117736231Y-58949423D01*
X117740269Y-58942596D01*
X117785629Y-58786466D01*
X117787367Y-58764393D01*
X117788307Y-58752444D01*
X117788307Y-58752438D01*
X117788500Y-58749989D01*
X117788499Y-58250012D01*
X117789357Y-58250012D01*
X117805846Y-58184445D01*
X117857637Y-58135883D01*
X117857667Y-58135869D01*
X117863601Y-58134145D01*
X117870424Y-58130110D01*
X117870426Y-58130109D01*
X117999980Y-58053491D01*
X117999983Y-58053489D01*
X118006807Y-58049453D01*
X118124453Y-57931807D01*
X118128489Y-57924983D01*
X118128491Y-57924980D01*
X118205108Y-57795427D01*
X118209145Y-57788601D01*
X118211613Y-57780108D01*
X118224181Y-57736847D01*
X118262394Y-57677011D01*
X118326890Y-57647334D01*
X118345178Y-57646000D01*
X120005014Y-57646000D01*
X120033165Y-57649301D01*
X120039684Y-57651745D01*
X120047532Y-57652598D01*
X120047534Y-57652598D01*
X120098469Y-57658131D01*
X120101866Y-57658500D01*
X121898134Y-57658500D01*
X121960316Y-57651745D01*
X122096705Y-57600615D01*
X122213261Y-57513261D01*
X122300615Y-57396705D01*
X122351745Y-57260316D01*
X122358500Y-57198134D01*
X122358500Y-55401866D01*
X122351745Y-55339684D01*
X122300615Y-55203295D01*
X122213261Y-55086739D01*
X122096705Y-54999385D01*
X122056821Y-54984433D01*
X121978203Y-54954960D01*
X121921439Y-54912318D01*
X121896739Y-54845756D01*
X121911947Y-54776408D01*
X121933493Y-54747727D01*
X121951251Y-54730031D01*
X122038096Y-54643489D01*
X122045924Y-54632596D01*
X122165435Y-54466277D01*
X122168453Y-54462077D01*
X122182516Y-54433624D01*
X122265136Y-54266453D01*
X122265137Y-54266451D01*
X122267430Y-54261811D01*
X122316078Y-54101693D01*
X122330865Y-54053023D01*
X122330865Y-54053021D01*
X122332370Y-54048069D01*
X122361529Y-53826590D01*
X122361981Y-53808100D01*
X122363074Y-53763365D01*
X122363074Y-53763361D01*
X122363156Y-53760000D01*
X122344852Y-53537361D01*
X122290431Y-53320702D01*
X122201354Y-53115840D01*
X122106037Y-52968502D01*
X122082822Y-52932617D01*
X122082820Y-52932614D01*
X122080014Y-52928277D01*
X121929670Y-52763051D01*
X121925619Y-52759852D01*
X121925615Y-52759848D01*
X121758414Y-52627800D01*
X121758410Y-52627798D01*
X121754359Y-52624598D01*
X121713053Y-52601796D01*
X121663084Y-52551364D01*
X121648312Y-52481921D01*
X121673428Y-52415516D01*
X121700780Y-52388909D01*
X121790854Y-52324660D01*
X121879860Y-52261173D01*
X122038096Y-52103489D01*
X122168453Y-51922077D01*
X122205359Y-51847404D01*
X122265136Y-51726453D01*
X122265137Y-51726451D01*
X122267430Y-51721811D01*
X122326535Y-51527275D01*
X122330865Y-51513023D01*
X122330865Y-51513021D01*
X122332370Y-51508069D01*
X122361529Y-51286590D01*
X122362311Y-51254595D01*
X122363074Y-51223365D01*
X122363074Y-51223361D01*
X122363156Y-51220000D01*
X122344852Y-50997361D01*
X122290431Y-50780702D01*
X122201354Y-50575840D01*
X122159386Y-50510968D01*
X122082822Y-50392617D01*
X122082820Y-50392614D01*
X122080014Y-50388277D01*
X121929670Y-50223051D01*
X121925619Y-50219852D01*
X121925615Y-50219848D01*
X121758414Y-50087800D01*
X121758410Y-50087798D01*
X121754359Y-50084598D01*
X121743313Y-50078500D01*
X121712569Y-50061529D01*
X121662598Y-50011097D01*
X121647826Y-49941654D01*
X121672942Y-49875248D01*
X121700294Y-49848641D01*
X121875328Y-49723792D01*
X121883200Y-49717139D01*
X122034052Y-49566812D01*
X122040730Y-49558965D01*
X122165003Y-49386020D01*
X122170313Y-49377183D01*
X122264670Y-49186267D01*
X122268469Y-49176672D01*
X122330377Y-48972910D01*
X122332555Y-48962837D01*
X122333986Y-48951962D01*
X122331775Y-48937778D01*
X122318617Y-48934000D01*
X119683225Y-48934000D01*
X119669694Y-48937973D01*
X119668257Y-48947966D01*
X119698565Y-49082446D01*
X119701645Y-49092275D01*
X119781770Y-49289603D01*
X119786413Y-49298794D01*
X119897694Y-49480388D01*
X119903777Y-49488699D01*
X120043213Y-49649667D01*
X120050580Y-49656883D01*
X120214434Y-49792916D01*
X120222881Y-49798831D01*
X120291969Y-49839203D01*
X120340693Y-49890842D01*
X120353764Y-49960625D01*
X120327033Y-50026396D01*
X120286584Y-50059752D01*
X120273607Y-50066507D01*
X120269474Y-50069610D01*
X120269471Y-50069612D01*
X120099100Y-50197530D01*
X120094965Y-50200635D01*
X120044297Y-50253656D01*
X119961592Y-50340202D01*
X119940629Y-50362138D01*
X119937715Y-50366410D01*
X119937714Y-50366411D01*
X119885950Y-50442295D01*
X119814743Y-50546680D01*
X119769931Y-50643220D01*
X119727626Y-50734359D01*
X119720688Y-50749305D01*
X119660989Y-50964570D01*
X119660440Y-50969707D01*
X119645120Y-51113061D01*
X119617992Y-51178671D01*
X119559700Y-51219199D01*
X119488750Y-51221778D01*
X119430738Y-51188767D01*
X117575404Y-49333434D01*
X117541379Y-49271122D01*
X117538499Y-49244339D01*
X117538499Y-49125012D01*
X117535629Y-49088534D01*
X117490269Y-48932404D01*
X117485343Y-48924074D01*
X117478621Y-48912707D01*
X117461162Y-48843891D01*
X117470052Y-48804643D01*
X117469894Y-48804597D01*
X117470658Y-48801969D01*
X117470660Y-48801961D01*
X117515606Y-48647254D01*
X117517437Y-48623997D01*
X117518307Y-48612940D01*
X117518307Y-48612932D01*
X117518500Y-48610484D01*
X117518500Y-48414183D01*
X119664389Y-48414183D01*
X119665912Y-48422607D01*
X119678292Y-48426000D01*
X120727885Y-48426000D01*
X120743124Y-48421525D01*
X120744329Y-48420135D01*
X120746000Y-48412452D01*
X120746000Y-48407885D01*
X121254000Y-48407885D01*
X121258475Y-48423124D01*
X121259865Y-48424329D01*
X121267548Y-48426000D01*
X122318344Y-48426000D01*
X122331875Y-48422027D01*
X122333180Y-48412947D01*
X122291214Y-48245875D01*
X122287894Y-48236124D01*
X122202972Y-48040814D01*
X122198105Y-48031739D01*
X122082426Y-47852926D01*
X122076136Y-47844757D01*
X121932806Y-47687240D01*
X121925273Y-47680215D01*
X121758139Y-47548222D01*
X121749552Y-47542517D01*
X121563117Y-47439599D01*
X121553705Y-47435369D01*
X121352959Y-47364280D01*
X121342988Y-47361646D01*
X121271837Y-47348972D01*
X121258540Y-47350432D01*
X121254000Y-47364989D01*
X121254000Y-48407885D01*
X120746000Y-48407885D01*
X120746000Y-47363102D01*
X120742082Y-47349758D01*
X120727806Y-47347771D01*
X120689324Y-47353660D01*
X120679288Y-47356051D01*
X120476868Y-47422212D01*
X120467359Y-47426209D01*
X120278463Y-47524542D01*
X120269738Y-47530036D01*
X120099433Y-47657905D01*
X120091726Y-47664748D01*
X119944590Y-47818717D01*
X119938104Y-47826727D01*
X119818098Y-48002649D01*
X119813000Y-48011623D01*
X119723338Y-48204783D01*
X119719775Y-48214470D01*
X119664389Y-48414183D01*
X117518500Y-48414183D01*
X117518500Y-48139516D01*
X117518307Y-48137060D01*
X117516111Y-48109156D01*
X117516110Y-48109151D01*
X117515606Y-48102746D01*
X117483144Y-47991009D01*
X117472106Y-47953016D01*
X117472105Y-47953014D01*
X117469894Y-47945403D01*
X117436629Y-47889154D01*
X117390522Y-47811192D01*
X117386488Y-47804371D01*
X117270629Y-47688512D01*
X117140752Y-47611703D01*
X117136420Y-47609141D01*
X117136419Y-47609141D01*
X117129597Y-47605106D01*
X117121986Y-47602895D01*
X117121984Y-47602894D01*
X117051927Y-47582541D01*
X116972254Y-47559394D01*
X116965849Y-47558890D01*
X116965844Y-47558889D01*
X116937940Y-47556693D01*
X116937932Y-47556693D01*
X116935484Y-47556500D01*
X116524516Y-47556500D01*
X116522068Y-47556693D01*
X116522060Y-47556693D01*
X116494156Y-47558889D01*
X116494151Y-47558890D01*
X116487746Y-47559394D01*
X116408073Y-47582541D01*
X116338016Y-47602894D01*
X116338014Y-47602895D01*
X116330403Y-47605106D01*
X116323576Y-47609143D01*
X116323577Y-47609143D01*
X116313647Y-47615015D01*
X116244830Y-47632474D01*
X116185372Y-47615016D01*
X116176222Y-47609605D01*
X116161784Y-47603357D01*
X116018359Y-47561688D01*
X116005756Y-47559386D01*
X115977898Y-47557193D01*
X115972969Y-47557000D01*
X115874328Y-47557000D01*
X115806207Y-47536998D01*
X115759714Y-47483342D01*
X115749610Y-47413068D01*
X115753331Y-47395847D01*
X115783337Y-47292564D01*
X115785637Y-47279977D01*
X115786260Y-47272057D01*
X115783090Y-47256970D01*
X115771626Y-47254000D01*
X114894500Y-47254000D01*
X114826379Y-47233998D01*
X114779886Y-47180342D01*
X114768500Y-47128000D01*
X114768499Y-46872000D01*
X114788501Y-46803880D01*
X114842156Y-46757387D01*
X114894499Y-46746000D01*
X115769566Y-46746000D01*
X115784361Y-46741656D01*
X115786884Y-46727380D01*
X115818437Y-46663781D01*
X115860920Y-46633673D01*
X115870221Y-46629648D01*
X115999678Y-46553089D01*
X116012104Y-46543449D01*
X116118449Y-46437104D01*
X116128089Y-46424678D01*
X116204650Y-46295217D01*
X116210893Y-46280790D01*
X116253269Y-46134935D01*
X116255570Y-46122333D01*
X116257807Y-46093916D01*
X116258000Y-46088986D01*
X116258000Y-45709615D01*
X116253525Y-45694376D01*
X116252135Y-45693171D01*
X116244452Y-45691500D01*
X114660116Y-45691500D01*
X114644877Y-45695975D01*
X114643672Y-45697365D01*
X114642001Y-45705048D01*
X114642001Y-46088984D01*
X114642195Y-46093922D01*
X114644431Y-46122348D01*
X114629833Y-46191827D01*
X114582959Y-46240682D01*
X114564630Y-46251522D01*
X114495814Y-46268982D01*
X114436354Y-46251523D01*
X114417564Y-46240411D01*
X114369114Y-46188520D01*
X114356094Y-46122074D01*
X114358307Y-46093959D01*
X114358307Y-46093949D01*
X114358500Y-46091502D01*
X114358500Y-44934500D01*
X114378502Y-44866379D01*
X114432158Y-44819886D01*
X114484500Y-44808500D01*
X114516000Y-44808500D01*
X114584121Y-44828502D01*
X114630614Y-44882158D01*
X114642000Y-44934500D01*
X114642000Y-45165385D01*
X114646475Y-45180624D01*
X114647865Y-45181829D01*
X114655548Y-45183500D01*
X115177885Y-45183500D01*
X115193124Y-45179025D01*
X115194329Y-45177635D01*
X115196000Y-45169952D01*
X115196000Y-45165385D01*
X115704000Y-45165385D01*
X115708475Y-45180624D01*
X115709865Y-45181829D01*
X115717548Y-45183500D01*
X116239884Y-45183500D01*
X116255123Y-45179025D01*
X116256328Y-45177635D01*
X116257999Y-45169952D01*
X116257999Y-44786017D01*
X116257805Y-44781080D01*
X116255570Y-44752664D01*
X116253270Y-44740069D01*
X116210893Y-44594210D01*
X116204648Y-44579779D01*
X116128089Y-44450322D01*
X116118449Y-44437896D01*
X116012104Y-44331551D01*
X115999678Y-44321911D01*
X115870221Y-44245352D01*
X115855790Y-44239107D01*
X115721395Y-44200061D01*
X115707294Y-44200101D01*
X115704000Y-44207370D01*
X115704000Y-45165385D01*
X115196000Y-45165385D01*
X115196000Y-44554842D01*
X115213547Y-44490703D01*
X115244777Y-44437896D01*
X115259145Y-44413601D01*
X115305562Y-44253831D01*
X115306230Y-44245352D01*
X115308307Y-44218958D01*
X115308307Y-44218950D01*
X115308500Y-44216502D01*
X115308500Y-43132703D01*
X117890743Y-43132703D01*
X117928268Y-43417734D01*
X118004129Y-43695036D01*
X118005813Y-43698984D01*
X118102218Y-43925000D01*
X118116923Y-43959476D01*
X118264561Y-44206161D01*
X118444313Y-44430528D01*
X118652851Y-44628423D01*
X118886317Y-44796186D01*
X118890112Y-44798195D01*
X118890113Y-44798196D01*
X118909574Y-44808500D01*
X119140392Y-44930712D01*
X119410373Y-45029511D01*
X119691264Y-45090755D01*
X119719841Y-45093004D01*
X119914282Y-45108307D01*
X119914291Y-45108307D01*
X119916739Y-45108500D01*
X120072271Y-45108500D01*
X120074407Y-45108354D01*
X120074418Y-45108354D01*
X120282548Y-45094165D01*
X120282554Y-45094164D01*
X120286825Y-45093873D01*
X120291020Y-45093004D01*
X120291022Y-45093004D01*
X120472122Y-45055500D01*
X120568342Y-45035574D01*
X120839343Y-44939607D01*
X121094812Y-44807750D01*
X121098313Y-44805289D01*
X121098317Y-44805287D01*
X121229387Y-44713169D01*
X121330023Y-44642441D01*
X121493312Y-44490703D01*
X121537479Y-44449661D01*
X121537481Y-44449658D01*
X121540622Y-44446740D01*
X121722713Y-44224268D01*
X121872927Y-43979142D01*
X121899098Y-43919524D01*
X121986757Y-43719830D01*
X121988483Y-43715898D01*
X122067244Y-43439406D01*
X122107751Y-43154784D01*
X122107815Y-43142739D01*
X122109235Y-42871583D01*
X122109235Y-42871576D01*
X122109257Y-42867297D01*
X122095945Y-42766178D01*
X122087834Y-42704573D01*
X122071732Y-42582266D01*
X121995871Y-42304964D01*
X121945453Y-42186762D01*
X121884763Y-42044476D01*
X121884761Y-42044472D01*
X121883077Y-42040524D01*
X121746164Y-41811759D01*
X121737643Y-41797521D01*
X121737640Y-41797517D01*
X121735439Y-41793839D01*
X121555687Y-41569472D01*
X121432289Y-41452372D01*
X121350258Y-41374527D01*
X121350255Y-41374525D01*
X121347149Y-41371577D01*
X121113683Y-41203814D01*
X121091843Y-41192250D01*
X121041402Y-41165543D01*
X120859608Y-41069288D01*
X120664698Y-40997961D01*
X120593658Y-40971964D01*
X120593656Y-40971963D01*
X120589627Y-40970489D01*
X120308736Y-40909245D01*
X120277685Y-40906801D01*
X120085718Y-40891693D01*
X120085709Y-40891693D01*
X120083261Y-40891500D01*
X119927729Y-40891500D01*
X119925593Y-40891646D01*
X119925582Y-40891646D01*
X119717452Y-40905835D01*
X119717446Y-40905836D01*
X119713175Y-40906127D01*
X119708980Y-40906996D01*
X119708978Y-40906996D01*
X119572416Y-40935277D01*
X119431658Y-40964426D01*
X119160657Y-41060393D01*
X118905188Y-41192250D01*
X118901687Y-41194711D01*
X118901683Y-41194713D01*
X118835331Y-41241346D01*
X118669977Y-41357559D01*
X118654892Y-41371577D01*
X118518348Y-41498462D01*
X118459378Y-41553260D01*
X118277287Y-41775732D01*
X118127073Y-42020858D01*
X118125347Y-42024791D01*
X118125346Y-42024792D01*
X118090263Y-42104714D01*
X118011517Y-42284102D01*
X117932756Y-42560594D01*
X117892249Y-42845216D01*
X117892227Y-42849505D01*
X117892226Y-42849512D01*
X117890765Y-43128417D01*
X117890743Y-43132703D01*
X115308500Y-43132703D01*
X115308500Y-42908498D01*
X115306883Y-42887947D01*
X115306067Y-42877579D01*
X115306066Y-42877574D01*
X115305562Y-42871169D01*
X115276528Y-42771231D01*
X115261357Y-42719012D01*
X115261356Y-42719010D01*
X115259145Y-42711399D01*
X115182776Y-42582266D01*
X115178491Y-42575020D01*
X115178489Y-42575017D01*
X115174453Y-42568193D01*
X115056807Y-42450547D01*
X115049983Y-42446511D01*
X115049980Y-42446509D01*
X114920427Y-42369892D01*
X114920428Y-42369892D01*
X114913601Y-42365855D01*
X114905990Y-42363644D01*
X114905988Y-42363643D01*
X114853769Y-42348472D01*
X114753831Y-42319438D01*
X114747426Y-42318934D01*
X114747421Y-42318933D01*
X114718958Y-42316693D01*
X114718950Y-42316693D01*
X114716502Y-42316500D01*
X114283498Y-42316500D01*
X114281050Y-42316693D01*
X114281042Y-42316693D01*
X114252579Y-42318933D01*
X114252574Y-42318934D01*
X114246169Y-42319438D01*
X114146231Y-42348472D01*
X114094012Y-42363643D01*
X114094010Y-42363644D01*
X114086399Y-42365855D01*
X114079572Y-42369892D01*
X114079573Y-42369892D01*
X113950020Y-42446509D01*
X113950017Y-42446511D01*
X113943193Y-42450547D01*
X113825547Y-42568193D01*
X113821511Y-42575017D01*
X113821509Y-42575020D01*
X113817224Y-42582266D01*
X113740855Y-42711399D01*
X113738644Y-42719010D01*
X113738643Y-42719012D01*
X113706947Y-42828112D01*
X113668734Y-42887947D01*
X113630488Y-42910825D01*
X113616921Y-42915951D01*
X113586811Y-42927328D01*
X113586809Y-42927329D01*
X113579706Y-42930013D01*
X113573447Y-42934314D01*
X113571082Y-42935551D01*
X113556310Y-42943773D01*
X113554018Y-42945128D01*
X113547057Y-42948184D01*
X113541030Y-42952809D01*
X113541026Y-42952811D01*
X113496349Y-42987093D01*
X113491024Y-42990962D01*
X113438381Y-43027143D01*
X113433329Y-43032813D01*
X113433328Y-43032814D01*
X113396935Y-43073661D01*
X113391954Y-43078937D01*
X112472404Y-43998487D01*
X112410092Y-44032513D01*
X112339277Y-44027448D01*
X112282441Y-43984901D01*
X112257788Y-43920373D01*
X112239938Y-43716339D01*
X112239937Y-43716334D01*
X112239458Y-43710858D01*
X112238034Y-43705543D01*
X112185245Y-43508533D01*
X112185244Y-43508531D01*
X112183822Y-43503223D01*
X112181103Y-43497392D01*
X112095299Y-43313385D01*
X112095297Y-43313382D01*
X112092976Y-43308404D01*
X111969681Y-43132319D01*
X111817681Y-42980319D01*
X111641597Y-42857024D01*
X111636619Y-42854703D01*
X111636616Y-42854701D01*
X111451759Y-42768501D01*
X111451758Y-42768500D01*
X111446777Y-42766178D01*
X111441469Y-42764756D01*
X111441467Y-42764755D01*
X111244457Y-42711966D01*
X111244455Y-42711966D01*
X111239142Y-42710542D01*
X111025000Y-42691807D01*
X111019525Y-42692286D01*
X111019524Y-42692286D01*
X110870908Y-42705288D01*
X110801304Y-42691299D01*
X110770832Y-42668862D01*
X110426931Y-42324961D01*
X110421077Y-42318695D01*
X110388045Y-42280829D01*
X110388042Y-42280826D01*
X110383050Y-42275104D01*
X110330769Y-42238360D01*
X110325475Y-42234428D01*
X110281182Y-42199698D01*
X110275207Y-42195013D01*
X110268287Y-42191889D01*
X110265994Y-42190500D01*
X110251324Y-42182132D01*
X110248964Y-42180867D01*
X110242750Y-42176499D01*
X110235671Y-42173739D01*
X110235669Y-42173738D01*
X110183214Y-42153287D01*
X110177145Y-42150736D01*
X110118916Y-42124444D01*
X110111449Y-42123060D01*
X110108894Y-42122259D01*
X110092641Y-42117630D01*
X110090061Y-42116967D01*
X110082980Y-42114207D01*
X110075449Y-42113216D01*
X110075447Y-42113215D01*
X110045828Y-42109316D01*
X110019628Y-42105867D01*
X110013130Y-42104837D01*
X109950303Y-42093193D01*
X109942723Y-42093630D01*
X109942722Y-42093630D01*
X109888097Y-42096780D01*
X109880843Y-42096989D01*
X109706274Y-42096989D01*
X109638153Y-42076987D01*
X109591660Y-42023331D01*
X109581556Y-41953057D01*
X109592079Y-41917739D01*
X109599425Y-41901987D01*
X109643822Y-41806777D01*
X109651162Y-41779386D01*
X109698034Y-41604457D01*
X109698034Y-41604455D01*
X109699458Y-41599142D01*
X109718193Y-41385000D01*
X109699458Y-41170858D01*
X109669859Y-41060393D01*
X109645245Y-40968533D01*
X109645244Y-40968531D01*
X109643822Y-40963223D01*
X109617198Y-40906127D01*
X109555299Y-40773385D01*
X109555297Y-40773382D01*
X109552976Y-40768404D01*
X109429681Y-40592319D01*
X109277681Y-40440319D01*
X109101597Y-40317024D01*
X109096619Y-40314703D01*
X109096616Y-40314701D01*
X108953993Y-40248195D01*
X108900708Y-40201278D01*
X108881247Y-40133000D01*
X108901789Y-40065040D01*
X108955812Y-40018975D01*
X109007243Y-40008000D01*
X119950672Y-40008000D01*
X119970057Y-40009500D01*
X119984858Y-40011805D01*
X119984861Y-40011805D01*
X119993730Y-40013186D01*
X120002631Y-40012022D01*
X120002635Y-40012022D01*
X120012411Y-40010743D01*
X120035343Y-40009852D01*
X120306149Y-40024044D01*
X120319265Y-40025422D01*
X120615550Y-40072349D01*
X120628450Y-40075091D01*
X120914757Y-40151807D01*
X120918205Y-40152731D01*
X120930742Y-40156805D01*
X121046599Y-40201278D01*
X121210787Y-40264304D01*
X121222835Y-40269668D01*
X121490117Y-40405855D01*
X121501538Y-40412449D01*
X121753121Y-40575828D01*
X121763791Y-40583581D01*
X121996908Y-40772355D01*
X122006709Y-40781180D01*
X122218820Y-40993291D01*
X122227645Y-41003092D01*
X122416419Y-41236209D01*
X122424172Y-41246879D01*
X122587551Y-41498462D01*
X122594145Y-41509883D01*
X122730332Y-41777165D01*
X122735696Y-41789213D01*
X122833683Y-42044476D01*
X122843193Y-42069251D01*
X122847269Y-42081794D01*
X122871708Y-42173002D01*
X122924909Y-42371550D01*
X122927651Y-42384450D01*
X122955550Y-42560594D01*
X122974578Y-42680735D01*
X122975956Y-42693851D01*
X122989285Y-42948184D01*
X122989764Y-42957330D01*
X122988436Y-42983312D01*
X122988195Y-42984856D01*
X122988195Y-42984860D01*
X122986814Y-42993730D01*
X122987978Y-43002632D01*
X122987978Y-43002635D01*
X122990936Y-43025251D01*
X122992000Y-43041589D01*
X122992000Y-61950672D01*
X122990500Y-61970057D01*
X122988213Y-61984748D01*
X122986814Y-61993730D01*
X122987978Y-62002631D01*
X122987978Y-62002635D01*
X122989257Y-62012411D01*
X122990148Y-62035343D01*
X122984731Y-62138717D01*
X122975956Y-62306148D01*
X122974578Y-62319264D01*
X122954896Y-62443534D01*
X122927651Y-62615550D01*
X122924909Y-62628450D01*
X122847269Y-62918205D01*
X122843195Y-62930742D01*
X122807082Y-63024821D01*
X122735696Y-63210787D01*
X122730332Y-63222835D01*
X122594145Y-63490117D01*
X122587551Y-63501538D01*
X122424172Y-63753121D01*
X122416419Y-63763791D01*
X122227645Y-63996908D01*
X122218820Y-64006709D01*
X122006709Y-64218820D01*
X121996908Y-64227645D01*
X121763791Y-64416419D01*
X121753121Y-64424172D01*
X121501538Y-64587551D01*
X121490117Y-64594145D01*
X121222835Y-64730332D01*
X121210786Y-64735696D01*
X120930742Y-64843195D01*
X120918205Y-64847269D01*
X120628450Y-64924909D01*
X120615550Y-64927651D01*
X120319265Y-64974578D01*
X120306149Y-64975956D01*
X120042666Y-64989764D01*
X120016688Y-64988436D01*
X120015144Y-64988195D01*
X120015140Y-64988195D01*
X120006270Y-64986814D01*
X119997368Y-64987978D01*
X119997365Y-64987978D01*
X119974749Y-64990936D01*
X119958411Y-64992000D01*
X107679213Y-64992000D01*
X107611092Y-64971998D01*
X107564599Y-64918342D01*
X107554495Y-64848068D01*
X107557506Y-64833389D01*
X107588034Y-64719457D01*
X107588034Y-64719455D01*
X107589458Y-64714142D01*
X107608193Y-64500000D01*
X107589458Y-64285858D01*
X107573494Y-64226279D01*
X107535245Y-64083533D01*
X107535244Y-64083531D01*
X107533822Y-64078223D01*
X107531499Y-64073241D01*
X107445299Y-63888385D01*
X107445297Y-63888382D01*
X107442976Y-63883404D01*
X107319681Y-63707319D01*
X107167681Y-63555319D01*
X106991597Y-63432024D01*
X106986619Y-63429703D01*
X106986616Y-63429701D01*
X106801759Y-63343501D01*
X106801758Y-63343500D01*
X106796777Y-63341178D01*
X106791469Y-63339756D01*
X106791467Y-63339755D01*
X106594457Y-63286966D01*
X106594455Y-63286966D01*
X106589142Y-63285542D01*
X106388247Y-63267966D01*
X110728257Y-63267966D01*
X110758565Y-63402446D01*
X110761645Y-63412275D01*
X110841770Y-63609603D01*
X110846413Y-63618794D01*
X110957694Y-63800388D01*
X110963777Y-63808699D01*
X111103213Y-63969667D01*
X111110580Y-63976883D01*
X111274434Y-64112916D01*
X111282881Y-64118831D01*
X111466756Y-64226279D01*
X111476042Y-64230729D01*
X111675001Y-64306703D01*
X111684899Y-64309579D01*
X111788250Y-64330606D01*
X111802299Y-64329410D01*
X111806000Y-64319065D01*
X111806000Y-63272115D01*
X111801525Y-63256876D01*
X111800135Y-63255671D01*
X111792452Y-63254000D01*
X110743225Y-63254000D01*
X110729694Y-63257973D01*
X110728257Y-63267966D01*
X106388247Y-63267966D01*
X106375000Y-63266807D01*
X106160858Y-63285542D01*
X106155545Y-63286966D01*
X106155543Y-63286966D01*
X105958533Y-63339755D01*
X105958531Y-63339756D01*
X105953223Y-63341178D01*
X105948243Y-63343500D01*
X105948241Y-63343501D01*
X105763385Y-63429701D01*
X105763382Y-63429703D01*
X105758404Y-63432024D01*
X105582319Y-63555319D01*
X105430319Y-63707319D01*
X105307024Y-63883404D01*
X105304703Y-63888382D01*
X105304701Y-63888385D01*
X105218501Y-64073241D01*
X105216178Y-64078223D01*
X105214756Y-64083531D01*
X105214755Y-64083533D01*
X105176506Y-64226279D01*
X105160542Y-64285858D01*
X105141807Y-64500000D01*
X105160542Y-64714142D01*
X105161966Y-64719455D01*
X105161966Y-64719457D01*
X105192494Y-64833389D01*
X105190804Y-64904365D01*
X105151010Y-64963161D01*
X105085745Y-64991109D01*
X105070787Y-64992000D01*
X99049328Y-64992000D01*
X99029943Y-64990500D01*
X99015142Y-64988195D01*
X99015139Y-64988195D01*
X99006270Y-64986814D01*
X98997369Y-64987978D01*
X98997365Y-64987978D01*
X98987589Y-64989257D01*
X98964657Y-64990148D01*
X98693851Y-64975956D01*
X98680735Y-64974578D01*
X98384450Y-64927651D01*
X98371550Y-64924909D01*
X98081795Y-64847269D01*
X98069258Y-64843195D01*
X97789214Y-64735696D01*
X97777165Y-64730332D01*
X97509883Y-64594145D01*
X97498462Y-64587551D01*
X97246879Y-64424172D01*
X97236209Y-64416419D01*
X97003092Y-64227645D01*
X96993291Y-64218820D01*
X96781180Y-64006709D01*
X96772355Y-63996908D01*
X96583581Y-63763791D01*
X96575828Y-63753121D01*
X96412449Y-63501538D01*
X96405855Y-63490117D01*
X96269668Y-63222835D01*
X96264304Y-63210787D01*
X96192918Y-63024821D01*
X96156805Y-62930742D01*
X96152731Y-62918205D01*
X96075091Y-62628450D01*
X96072349Y-62615550D01*
X96045104Y-62443534D01*
X96025422Y-62319264D01*
X96024044Y-62306148D01*
X96016839Y-62168662D01*
X96014955Y-62132703D01*
X96890743Y-62132703D01*
X96891302Y-62136947D01*
X96891302Y-62136951D01*
X96896898Y-62179457D01*
X96928268Y-62417734D01*
X97004129Y-62695036D01*
X97116923Y-62959476D01*
X97159310Y-63030299D01*
X97256800Y-63193193D01*
X97264561Y-63206161D01*
X97444313Y-63430528D01*
X97652851Y-63628423D01*
X97886317Y-63796186D01*
X97890112Y-63798195D01*
X97890113Y-63798196D01*
X97909950Y-63808699D01*
X98140392Y-63930712D01*
X98246842Y-63969667D01*
X98348064Y-64006709D01*
X98410373Y-64029511D01*
X98691264Y-64090755D01*
X98719841Y-64093004D01*
X98914282Y-64108307D01*
X98914291Y-64108307D01*
X98916739Y-64108500D01*
X99072271Y-64108500D01*
X99074407Y-64108354D01*
X99074418Y-64108354D01*
X99282548Y-64094165D01*
X99282554Y-64094164D01*
X99286825Y-64093873D01*
X99291020Y-64093004D01*
X99291022Y-64093004D01*
X99427584Y-64064723D01*
X99568342Y-64035574D01*
X99839343Y-63939607D01*
X100094812Y-63807750D01*
X100098313Y-63805289D01*
X100098317Y-63805287D01*
X100243253Y-63703424D01*
X100330023Y-63642441D01*
X100427177Y-63552160D01*
X100537479Y-63449661D01*
X100537481Y-63449658D01*
X100540622Y-63446740D01*
X100722713Y-63224268D01*
X100872927Y-62979142D01*
X100896879Y-62924579D01*
X100986757Y-62719830D01*
X100988483Y-62715898D01*
X101067244Y-62439406D01*
X101107751Y-62154784D01*
X101107794Y-62146727D01*
X101109235Y-61871583D01*
X101109235Y-61871576D01*
X101109257Y-61867297D01*
X101071732Y-61582266D01*
X100995871Y-61304964D01*
X100944328Y-61184124D01*
X100884763Y-61044476D01*
X100884761Y-61044472D01*
X100883077Y-61040524D01*
X100784021Y-60875014D01*
X100737643Y-60797521D01*
X100737640Y-60797517D01*
X100735439Y-60793839D01*
X100555687Y-60569472D01*
X100428337Y-60448621D01*
X105710933Y-60448621D01*
X105720227Y-60460635D01*
X105754146Y-60484385D01*
X105763641Y-60489868D01*
X105948413Y-60576028D01*
X105958705Y-60579774D01*
X106155632Y-60632540D01*
X106166425Y-60634443D01*
X106369525Y-60652212D01*
X106380475Y-60652212D01*
X106583575Y-60634443D01*
X106594368Y-60632540D01*
X106791295Y-60579774D01*
X106801587Y-60576028D01*
X106986359Y-60489868D01*
X106995854Y-60484385D01*
X107030607Y-60460051D01*
X107038983Y-60449572D01*
X107031916Y-60436127D01*
X106387811Y-59792021D01*
X106373868Y-59784408D01*
X106372034Y-59784539D01*
X106365420Y-59788790D01*
X105717360Y-60436851D01*
X105710933Y-60448621D01*
X100428337Y-60448621D01*
X100347149Y-60371577D01*
X100113683Y-60203814D01*
X100109385Y-60201538D01*
X100068654Y-60179972D01*
X99859608Y-60069288D01*
X99589627Y-59970489D01*
X99308736Y-59909245D01*
X99277685Y-59906801D01*
X99085718Y-59891693D01*
X99085709Y-59891693D01*
X99083261Y-59891500D01*
X98927729Y-59891500D01*
X98925593Y-59891646D01*
X98925582Y-59891646D01*
X98717452Y-59905835D01*
X98717446Y-59905836D01*
X98713175Y-59906127D01*
X98708980Y-59906996D01*
X98708978Y-59906996D01*
X98604936Y-59928542D01*
X98431658Y-59964426D01*
X98160657Y-60060393D01*
X97905188Y-60192250D01*
X97901687Y-60194711D01*
X97901683Y-60194713D01*
X97885167Y-60206321D01*
X97669977Y-60357559D01*
X97459378Y-60553260D01*
X97277287Y-60775732D01*
X97166588Y-60956375D01*
X97134804Y-61008243D01*
X97127073Y-61020858D01*
X97125347Y-61024791D01*
X97125346Y-61024792D01*
X97056841Y-61180852D01*
X97011517Y-61284102D01*
X96932756Y-61560594D01*
X96906340Y-61746209D01*
X96899550Y-61793919D01*
X96892249Y-61845216D01*
X96892227Y-61849505D01*
X96892226Y-61849512D01*
X96890765Y-62128417D01*
X96890743Y-62132703D01*
X96014955Y-62132703D01*
X96010236Y-62042666D01*
X96011564Y-62016688D01*
X96011805Y-62015144D01*
X96011805Y-62015140D01*
X96013186Y-62006270D01*
X96011547Y-61993730D01*
X96009064Y-61974749D01*
X96008000Y-61958411D01*
X96008000Y-59425475D01*
X105142788Y-59425475D01*
X105160557Y-59628575D01*
X105162460Y-59639368D01*
X105215226Y-59836295D01*
X105218972Y-59846587D01*
X105305135Y-60031364D01*
X105310613Y-60040850D01*
X105334949Y-60075607D01*
X105345428Y-60083983D01*
X105358872Y-60076917D01*
X106002979Y-59432811D01*
X106009356Y-59421132D01*
X106739408Y-59421132D01*
X106739539Y-59422966D01*
X106743790Y-59429580D01*
X107391851Y-60077640D01*
X107403621Y-60084067D01*
X107415635Y-60074772D01*
X107439387Y-60040850D01*
X107444865Y-60031364D01*
X107531028Y-59846587D01*
X107534774Y-59836295D01*
X107587540Y-59639368D01*
X107589443Y-59628575D01*
X107607212Y-59425475D01*
X107607212Y-59414525D01*
X107589443Y-59211425D01*
X107587540Y-59200632D01*
X107534774Y-59003705D01*
X107531028Y-58993413D01*
X107444865Y-58808636D01*
X107439387Y-58799150D01*
X107415051Y-58764393D01*
X107404572Y-58756017D01*
X107391128Y-58763083D01*
X106747021Y-59407189D01*
X106739408Y-59421132D01*
X106009356Y-59421132D01*
X106010592Y-59418868D01*
X106010461Y-59417034D01*
X106006210Y-59410420D01*
X105358149Y-58762360D01*
X105346379Y-58755933D01*
X105334365Y-58765228D01*
X105310613Y-58799150D01*
X105305135Y-58808636D01*
X105218972Y-58993413D01*
X105215226Y-59003705D01*
X105162460Y-59200632D01*
X105160557Y-59211425D01*
X105142788Y-59414525D01*
X105142788Y-59425475D01*
X96008000Y-59425475D01*
X96008000Y-56587966D01*
X96668257Y-56587966D01*
X96698565Y-56722446D01*
X96701645Y-56732275D01*
X96781770Y-56929603D01*
X96786413Y-56938794D01*
X96897694Y-57120388D01*
X96903777Y-57128699D01*
X97043213Y-57289667D01*
X97050580Y-57296883D01*
X97214434Y-57432916D01*
X97222881Y-57438831D01*
X97406756Y-57546279D01*
X97416042Y-57550729D01*
X97615001Y-57626703D01*
X97624899Y-57629579D01*
X97728250Y-57650606D01*
X97742299Y-57649410D01*
X97746000Y-57639065D01*
X97746000Y-57638517D01*
X98254000Y-57638517D01*
X98258064Y-57652359D01*
X98271478Y-57654393D01*
X98278184Y-57653534D01*
X98288262Y-57651392D01*
X98492255Y-57590191D01*
X98501842Y-57586433D01*
X98693095Y-57492739D01*
X98701945Y-57487464D01*
X98875328Y-57363792D01*
X98883200Y-57357139D01*
X98971873Y-57268775D01*
X99744937Y-57268775D01*
X99746688Y-57278359D01*
X99788357Y-57421784D01*
X99794604Y-57436220D01*
X99869876Y-57563499D01*
X99879516Y-57575926D01*
X99984074Y-57680484D01*
X99996501Y-57690124D01*
X100123780Y-57765396D01*
X100138216Y-57771643D01*
X100258605Y-57806619D01*
X100272705Y-57806579D01*
X100276000Y-57799309D01*
X100276000Y-57272115D01*
X100271525Y-57256876D01*
X100270135Y-57255671D01*
X100262452Y-57254000D01*
X99761576Y-57254000D01*
X99746781Y-57258344D01*
X99744937Y-57268775D01*
X98971873Y-57268775D01*
X99034052Y-57206812D01*
X99040730Y-57198965D01*
X99165003Y-57026020D01*
X99170313Y-57017183D01*
X99264670Y-56826267D01*
X99268469Y-56816672D01*
X99294921Y-56729609D01*
X99745232Y-56729609D01*
X99748052Y-56743031D01*
X99759513Y-56746000D01*
X100257885Y-56746000D01*
X100273124Y-56741525D01*
X100274329Y-56740135D01*
X100276000Y-56732452D01*
X100276000Y-56206442D01*
X100272027Y-56192911D01*
X100264129Y-56191776D01*
X100138216Y-56228357D01*
X100123780Y-56234604D01*
X99996501Y-56309876D01*
X99984074Y-56319516D01*
X99879516Y-56424074D01*
X99869876Y-56436501D01*
X99794604Y-56563780D01*
X99788357Y-56578216D01*
X99746688Y-56721641D01*
X99745232Y-56729609D01*
X99294921Y-56729609D01*
X99330377Y-56612910D01*
X99332555Y-56602837D01*
X99333986Y-56591962D01*
X99331775Y-56577778D01*
X99318617Y-56574000D01*
X98272115Y-56574000D01*
X98256876Y-56578475D01*
X98255671Y-56579865D01*
X98254000Y-56587548D01*
X98254000Y-57638517D01*
X97746000Y-57638517D01*
X97746000Y-56592115D01*
X97741525Y-56576876D01*
X97740135Y-56575671D01*
X97732452Y-56574000D01*
X96683225Y-56574000D01*
X96669694Y-56577973D01*
X96668257Y-56587966D01*
X96008000Y-56587966D01*
X96008000Y-43132703D01*
X96890743Y-43132703D01*
X96928268Y-43417734D01*
X97004129Y-43695036D01*
X97005813Y-43698984D01*
X97102218Y-43925000D01*
X97116923Y-43959476D01*
X97264561Y-44206161D01*
X97444313Y-44430528D01*
X97652851Y-44628423D01*
X97886317Y-44796186D01*
X97890112Y-44798195D01*
X97890113Y-44798196D01*
X97909574Y-44808500D01*
X98140392Y-44930712D01*
X98410373Y-45029511D01*
X98691264Y-45090755D01*
X98719841Y-45093004D01*
X98914282Y-45108307D01*
X98914291Y-45108307D01*
X98916739Y-45108500D01*
X99072271Y-45108500D01*
X99074407Y-45108354D01*
X99074418Y-45108354D01*
X99282548Y-45094165D01*
X99282554Y-45094164D01*
X99286825Y-45093873D01*
X99291020Y-45093004D01*
X99291022Y-45093004D01*
X99472122Y-45055500D01*
X99568342Y-45035574D01*
X99839343Y-44939607D01*
X100094812Y-44807750D01*
X100098313Y-44805289D01*
X100098317Y-44805287D01*
X100229387Y-44713169D01*
X100330023Y-44642441D01*
X100493312Y-44490703D01*
X100537479Y-44449661D01*
X100537481Y-44449658D01*
X100540622Y-44446740D01*
X100722713Y-44224268D01*
X100872927Y-43979142D01*
X100899098Y-43919524D01*
X100986757Y-43719830D01*
X100988483Y-43715898D01*
X101067244Y-43439406D01*
X101107751Y-43154784D01*
X101107815Y-43142739D01*
X101109235Y-42871583D01*
X101109235Y-42871576D01*
X101109257Y-42867297D01*
X101095945Y-42766178D01*
X101087834Y-42704573D01*
X101071732Y-42582266D01*
X100995871Y-42304964D01*
X100945453Y-42186762D01*
X100884763Y-42044476D01*
X100884761Y-42044472D01*
X100883077Y-42040524D01*
X100746164Y-41811759D01*
X100737643Y-41797521D01*
X100737640Y-41797517D01*
X100735439Y-41793839D01*
X100555687Y-41569472D01*
X100432289Y-41452372D01*
X100350258Y-41374527D01*
X100350255Y-41374525D01*
X100347149Y-41371577D01*
X100113683Y-41203814D01*
X100091843Y-41192250D01*
X100041402Y-41165543D01*
X99859608Y-41069288D01*
X99664698Y-40997961D01*
X99593658Y-40971964D01*
X99593656Y-40971963D01*
X99589627Y-40970489D01*
X99308736Y-40909245D01*
X99277685Y-40906801D01*
X99085718Y-40891693D01*
X99085709Y-40891693D01*
X99083261Y-40891500D01*
X98927729Y-40891500D01*
X98925593Y-40891646D01*
X98925582Y-40891646D01*
X98717452Y-40905835D01*
X98717446Y-40905836D01*
X98713175Y-40906127D01*
X98708980Y-40906996D01*
X98708978Y-40906996D01*
X98572416Y-40935277D01*
X98431658Y-40964426D01*
X98160657Y-41060393D01*
X97905188Y-41192250D01*
X97901687Y-41194711D01*
X97901683Y-41194713D01*
X97835331Y-41241346D01*
X97669977Y-41357559D01*
X97654892Y-41371577D01*
X97518348Y-41498462D01*
X97459378Y-41553260D01*
X97277287Y-41775732D01*
X97127073Y-42020858D01*
X97125347Y-42024791D01*
X97125346Y-42024792D01*
X97090263Y-42104714D01*
X97011517Y-42284102D01*
X96932756Y-42560594D01*
X96892249Y-42845216D01*
X96892227Y-42849505D01*
X96892226Y-42849512D01*
X96890765Y-43128417D01*
X96890743Y-43132703D01*
X96008000Y-43132703D01*
X96008000Y-43049328D01*
X96009500Y-43029943D01*
X96011805Y-43015142D01*
X96011805Y-43015139D01*
X96013186Y-43006270D01*
X96012022Y-42997369D01*
X96012022Y-42997365D01*
X96010743Y-42987589D01*
X96009852Y-42964657D01*
X96024044Y-42693851D01*
X96025422Y-42680735D01*
X96044451Y-42560594D01*
X96072349Y-42384450D01*
X96075091Y-42371550D01*
X96128292Y-42173002D01*
X96152731Y-42081794D01*
X96156807Y-42069251D01*
X96166318Y-42044476D01*
X96264304Y-41789213D01*
X96269668Y-41777165D01*
X96405855Y-41509883D01*
X96412449Y-41498462D01*
X96575828Y-41246879D01*
X96583581Y-41236209D01*
X96772355Y-41003092D01*
X96781180Y-40993291D01*
X96993291Y-40781180D01*
X97003092Y-40772355D01*
X97236209Y-40583581D01*
X97246879Y-40575828D01*
X97498462Y-40412449D01*
X97509883Y-40405855D01*
X97777165Y-40269668D01*
X97789213Y-40264304D01*
X97953401Y-40201278D01*
X98069258Y-40156805D01*
X98081795Y-40152731D01*
X98085244Y-40151807D01*
X98371550Y-40075091D01*
X98384450Y-40072349D01*
X98680735Y-40025422D01*
X98693851Y-40024044D01*
X98957334Y-40010236D01*
X98983312Y-40011564D01*
X98984856Y-40011805D01*
X98984860Y-40011805D01*
X98993730Y-40013186D01*
X99002632Y-40012022D01*
X99002635Y-40012022D01*
X99025251Y-40009064D01*
X99041589Y-40008000D01*
X107962758Y-40008000D01*
X108030879Y-40028002D01*
G37*
%TD.AperFunction*%
%TA.AperFunction,Conductor*%
G36*
X108005718Y-49976047D02*
G01*
X108090575Y-50026231D01*
X108090579Y-50026233D01*
X108097404Y-50030269D01*
X108105015Y-50032480D01*
X108105017Y-50032481D01*
X108166413Y-50050318D01*
X108253534Y-50075629D01*
X108259941Y-50076133D01*
X108259945Y-50076134D01*
X108287556Y-50078307D01*
X108287562Y-50078307D01*
X108290011Y-50078500D01*
X108489878Y-50078500D01*
X108689988Y-50078499D01*
X108726466Y-50075629D01*
X108836346Y-50043706D01*
X108874983Y-50032481D01*
X108874985Y-50032480D01*
X108882596Y-50030269D01*
X108889421Y-50026233D01*
X108889425Y-50026231D01*
X108935861Y-49998769D01*
X109004677Y-49981309D01*
X109064138Y-49998768D01*
X109109186Y-50025409D01*
X109157638Y-50077301D01*
X109170343Y-50147152D01*
X109153500Y-50198001D01*
X109090352Y-50304779D01*
X109084107Y-50319210D01*
X109041731Y-50465065D01*
X109039430Y-50477667D01*
X109037193Y-50506084D01*
X109037000Y-50511014D01*
X109037000Y-50977885D01*
X109041475Y-50993124D01*
X109042865Y-50994329D01*
X109050548Y-50996000D01*
X109973000Y-50996000D01*
X110041121Y-51016002D01*
X110087614Y-51069658D01*
X110099000Y-51122000D01*
X110099000Y-51378000D01*
X110078998Y-51446121D01*
X110025342Y-51492614D01*
X109973000Y-51504000D01*
X109055116Y-51504000D01*
X109022421Y-51513600D01*
X108951424Y-51513600D01*
X108945540Y-51511472D01*
X108942596Y-51509731D01*
X108934985Y-51507520D01*
X108934983Y-51507519D01*
X108792644Y-51466166D01*
X108792645Y-51466166D01*
X108786466Y-51464371D01*
X108780059Y-51463867D01*
X108780055Y-51463866D01*
X108752444Y-51461693D01*
X108752438Y-51461693D01*
X108749989Y-51461500D01*
X108500152Y-51461500D01*
X108250012Y-51461501D01*
X108213534Y-51464371D01*
X108116730Y-51492495D01*
X108065017Y-51507519D01*
X108065015Y-51507520D01*
X108057404Y-51509731D01*
X108050577Y-51513769D01*
X108050576Y-51513769D01*
X108050264Y-51513953D01*
X108049953Y-51514038D01*
X108043305Y-51516915D01*
X108042896Y-51515969D01*
X107986125Y-51531500D01*
X106799667Y-51531500D01*
X106791097Y-51531208D01*
X106740979Y-51527791D01*
X106740975Y-51527791D01*
X106733403Y-51527275D01*
X106725926Y-51528580D01*
X106725925Y-51528580D01*
X106699447Y-51533201D01*
X106670452Y-51538262D01*
X106663934Y-51539223D01*
X106600513Y-51546898D01*
X106593412Y-51549581D01*
X106590803Y-51550222D01*
X106574493Y-51554685D01*
X106571957Y-51555450D01*
X106564471Y-51556757D01*
X106543008Y-51566179D01*
X106505960Y-51582442D01*
X106499856Y-51584933D01*
X106440099Y-51607513D01*
X106433836Y-51611817D01*
X106431470Y-51613054D01*
X106416658Y-51621299D01*
X106414404Y-51622632D01*
X106407450Y-51625685D01*
X106356753Y-51664587D01*
X106351423Y-51668459D01*
X106305035Y-51700339D01*
X106305030Y-51700344D01*
X106298774Y-51704643D01*
X106293723Y-51710313D01*
X106293721Y-51710314D01*
X106257320Y-51751170D01*
X106252339Y-51756446D01*
X105154480Y-52854305D01*
X105148215Y-52860159D01*
X105104615Y-52898194D01*
X105087787Y-52922138D01*
X105067872Y-52950474D01*
X105063939Y-52955769D01*
X105024524Y-53006037D01*
X105021401Y-53012953D01*
X105020017Y-53015239D01*
X105011643Y-53029920D01*
X105010378Y-53032280D01*
X105006010Y-53038494D01*
X104985646Y-53090724D01*
X104942267Y-53146925D01*
X104875389Y-53170752D01*
X104853340Y-53170068D01*
X104780680Y-53161404D01*
X104773677Y-53162140D01*
X104773676Y-53162140D01*
X104607288Y-53179628D01*
X104607286Y-53179629D01*
X104600288Y-53180364D01*
X104428579Y-53238818D01*
X104373314Y-53272818D01*
X104307293Y-53291500D01*
X104148498Y-53291500D01*
X104146050Y-53291693D01*
X104146042Y-53291693D01*
X104117579Y-53293933D01*
X104117574Y-53293934D01*
X104111169Y-53294438D01*
X104037110Y-53315954D01*
X103959012Y-53338643D01*
X103959010Y-53338644D01*
X103951399Y-53340855D01*
X103808193Y-53425547D01*
X103805511Y-53428229D01*
X103741139Y-53453502D01*
X103671516Y-53439600D01*
X103655688Y-53429428D01*
X103651807Y-53425547D01*
X103508601Y-53340855D01*
X103500990Y-53338644D01*
X103500988Y-53338643D01*
X103422890Y-53315954D01*
X103348831Y-53294438D01*
X103342426Y-53293934D01*
X103342421Y-53293933D01*
X103313958Y-53291693D01*
X103313950Y-53291693D01*
X103311502Y-53291500D01*
X102878498Y-53291500D01*
X102876050Y-53291693D01*
X102876042Y-53291693D01*
X102847579Y-53293933D01*
X102847574Y-53293934D01*
X102841169Y-53294438D01*
X102767110Y-53315954D01*
X102689012Y-53338643D01*
X102689010Y-53338644D01*
X102681399Y-53340855D01*
X102674572Y-53344892D01*
X102674573Y-53344892D01*
X102545020Y-53421509D01*
X102545017Y-53421511D01*
X102538193Y-53425547D01*
X102420547Y-53543193D01*
X102416511Y-53550017D01*
X102416509Y-53550020D01*
X102379945Y-53611847D01*
X102335855Y-53686399D01*
X102333644Y-53694010D01*
X102333643Y-53694012D01*
X102303128Y-53799047D01*
X102264915Y-53858882D01*
X102200419Y-53888560D01*
X102130117Y-53878657D01*
X102093036Y-53852989D01*
X102042541Y-53802494D01*
X102032243Y-53796404D01*
X101909419Y-53723766D01*
X101909418Y-53723766D01*
X101902596Y-53719731D01*
X101894985Y-53717520D01*
X101894983Y-53717519D01*
X101804250Y-53691159D01*
X101746466Y-53674371D01*
X101740059Y-53673867D01*
X101740055Y-53673866D01*
X101712444Y-53671693D01*
X101712438Y-53671693D01*
X101709989Y-53671500D01*
X101510122Y-53671500D01*
X101310012Y-53671501D01*
X101273534Y-53674371D01*
X101176730Y-53702495D01*
X101125017Y-53717519D01*
X101125015Y-53717520D01*
X101117404Y-53719731D01*
X101110579Y-53723767D01*
X101110575Y-53723769D01*
X101064139Y-53751231D01*
X100995323Y-53768691D01*
X100935861Y-53751231D01*
X100889425Y-53723769D01*
X100889421Y-53723767D01*
X100882596Y-53719731D01*
X100874985Y-53717520D01*
X100874983Y-53717519D01*
X100784250Y-53691159D01*
X100726466Y-53674371D01*
X100720057Y-53673867D01*
X100720054Y-53673866D01*
X100711252Y-53673174D01*
X100707546Y-53672882D01*
X100641204Y-53647598D01*
X100628335Y-53636365D01*
X100291450Y-53299480D01*
X100285596Y-53293215D01*
X100284100Y-53291500D01*
X100247561Y-53249615D01*
X100195280Y-53212871D01*
X100189986Y-53208939D01*
X100145693Y-53174209D01*
X100139718Y-53169524D01*
X100132802Y-53166401D01*
X100130516Y-53165017D01*
X100115835Y-53156643D01*
X100113475Y-53155378D01*
X100107261Y-53151010D01*
X100100182Y-53148250D01*
X100100180Y-53148249D01*
X100047725Y-53127798D01*
X100041656Y-53125247D01*
X99983427Y-53098955D01*
X99975960Y-53097571D01*
X99973405Y-53096770D01*
X99957152Y-53092141D01*
X99954572Y-53091478D01*
X99947491Y-53088718D01*
X99939960Y-53087727D01*
X99939958Y-53087726D01*
X99903967Y-53082988D01*
X99884139Y-53080378D01*
X99877641Y-53079348D01*
X99814814Y-53067704D01*
X99807234Y-53068141D01*
X99807233Y-53068141D01*
X99752608Y-53071291D01*
X99745354Y-53071500D01*
X99228286Y-53071500D01*
X99160165Y-53051498D01*
X99122494Y-53013941D01*
X99093098Y-52968502D01*
X99080014Y-52948277D01*
X99053647Y-52919300D01*
X99022595Y-52855454D01*
X99030991Y-52784955D01*
X99076167Y-52730187D01*
X99146841Y-52708500D01*
X99951579Y-52708500D01*
X100015718Y-52726047D01*
X100100575Y-52776231D01*
X100100579Y-52776233D01*
X100107404Y-52780269D01*
X100115015Y-52782480D01*
X100115017Y-52782481D01*
X100123533Y-52784955D01*
X100263534Y-52825629D01*
X100269941Y-52826133D01*
X100269945Y-52826134D01*
X100297556Y-52828307D01*
X100297562Y-52828307D01*
X100300011Y-52828500D01*
X100499878Y-52828500D01*
X100699988Y-52828499D01*
X100736466Y-52825629D01*
X100876467Y-52784955D01*
X100884983Y-52782481D01*
X100884985Y-52782480D01*
X100892596Y-52780269D01*
X100899421Y-52776233D01*
X100899425Y-52776231D01*
X100945861Y-52748769D01*
X101014677Y-52731309D01*
X101074139Y-52748769D01*
X101120575Y-52776231D01*
X101120579Y-52776233D01*
X101127404Y-52780269D01*
X101135015Y-52782480D01*
X101135017Y-52782481D01*
X101143533Y-52784955D01*
X101283534Y-52825629D01*
X101289941Y-52826133D01*
X101289945Y-52826134D01*
X101317556Y-52828307D01*
X101317562Y-52828307D01*
X101320011Y-52828500D01*
X101519878Y-52828500D01*
X101719988Y-52828499D01*
X101756466Y-52825629D01*
X101896467Y-52784955D01*
X101904983Y-52782481D01*
X101904985Y-52782480D01*
X101912596Y-52780269D01*
X101919421Y-52776233D01*
X101919425Y-52776231D01*
X102004282Y-52726047D01*
X102068421Y-52708500D01*
X102892157Y-52708500D01*
X102900727Y-52708792D01*
X102950845Y-52712209D01*
X102950849Y-52712209D01*
X102958421Y-52712725D01*
X102965898Y-52711420D01*
X102965899Y-52711420D01*
X102992377Y-52706799D01*
X103021372Y-52701738D01*
X103027890Y-52700777D01*
X103091311Y-52693102D01*
X103098412Y-52690419D01*
X103101021Y-52689778D01*
X103117331Y-52685315D01*
X103119867Y-52684550D01*
X103127353Y-52683243D01*
X103185869Y-52657556D01*
X103191973Y-52655065D01*
X103244617Y-52635173D01*
X103244618Y-52635172D01*
X103251725Y-52632487D01*
X103257988Y-52628183D01*
X103260354Y-52626946D01*
X103275166Y-52618701D01*
X103277420Y-52617368D01*
X103284374Y-52614315D01*
X103335071Y-52575413D01*
X103340401Y-52571541D01*
X103386789Y-52539661D01*
X103386794Y-52539656D01*
X103393050Y-52535357D01*
X103405934Y-52520897D01*
X103434504Y-52488830D01*
X103439485Y-52483554D01*
X104845520Y-51077519D01*
X104851785Y-51071665D01*
X104889660Y-51038624D01*
X104895385Y-51033630D01*
X104932114Y-50981369D01*
X104936046Y-50976074D01*
X104975477Y-50925787D01*
X104978602Y-50918865D01*
X104979964Y-50916617D01*
X104988368Y-50901884D01*
X104989622Y-50899545D01*
X104993990Y-50893330D01*
X104996749Y-50886254D01*
X104996751Y-50886250D01*
X105017200Y-50833800D01*
X105019749Y-50827735D01*
X105046045Y-50769496D01*
X105047429Y-50762031D01*
X105048226Y-50759487D01*
X105053792Y-50739946D01*
X105055971Y-50734359D01*
X105056282Y-50733560D01*
X105056282Y-50733559D01*
X105056283Y-50733557D01*
X105058339Y-50734359D01*
X105089026Y-50682816D01*
X105152561Y-50651133D01*
X105221377Y-50659132D01*
X105221399Y-50659145D01*
X105229010Y-50661356D01*
X105229012Y-50661357D01*
X105281231Y-50676528D01*
X105381169Y-50705562D01*
X105387574Y-50706066D01*
X105387579Y-50706067D01*
X105416042Y-50708307D01*
X105416050Y-50708307D01*
X105418498Y-50708500D01*
X105851502Y-50708500D01*
X105853950Y-50708307D01*
X105853958Y-50708307D01*
X105882421Y-50706067D01*
X105882426Y-50706066D01*
X105888831Y-50705562D01*
X105988769Y-50676528D01*
X106040988Y-50661357D01*
X106040990Y-50661356D01*
X106048601Y-50659145D01*
X106191807Y-50574453D01*
X106194489Y-50571771D01*
X106258861Y-50546498D01*
X106328484Y-50560400D01*
X106344312Y-50570572D01*
X106348193Y-50574453D01*
X106491399Y-50659145D01*
X106499010Y-50661356D01*
X106499012Y-50661357D01*
X106551231Y-50676528D01*
X106651169Y-50705562D01*
X106657574Y-50706066D01*
X106657579Y-50706067D01*
X106686042Y-50708307D01*
X106686050Y-50708307D01*
X106688498Y-50708500D01*
X107121502Y-50708500D01*
X107123950Y-50708307D01*
X107123958Y-50708307D01*
X107152421Y-50706067D01*
X107152426Y-50706066D01*
X107158831Y-50705562D01*
X107258769Y-50676528D01*
X107310988Y-50661357D01*
X107310990Y-50661356D01*
X107318601Y-50659145D01*
X107347411Y-50642107D01*
X107454980Y-50578491D01*
X107454983Y-50578489D01*
X107461807Y-50574453D01*
X107579453Y-50456807D01*
X107583489Y-50449983D01*
X107583491Y-50449980D01*
X107657609Y-50324652D01*
X107664145Y-50313601D01*
X107672651Y-50284325D01*
X107696964Y-50200635D01*
X107710562Y-50153831D01*
X107713500Y-50116502D01*
X107713500Y-50084500D01*
X107733502Y-50016379D01*
X107787158Y-49969886D01*
X107839500Y-49958500D01*
X107941579Y-49958500D01*
X108005718Y-49976047D01*
G37*
%TD.AperFunction*%
%TA.AperFunction,Conductor*%
G36*
X115598813Y-48113879D02*
G01*
X115631548Y-48121000D01*
X115815500Y-48121000D01*
X115883621Y-48141002D01*
X115930114Y-48194658D01*
X115941500Y-48247000D01*
X115941500Y-48420500D01*
X115921498Y-48488621D01*
X115867842Y-48535114D01*
X115815500Y-48546500D01*
X115547800Y-48546501D01*
X115540012Y-48546501D01*
X115503534Y-48549371D01*
X115406730Y-48577495D01*
X115355017Y-48592519D01*
X115355015Y-48592520D01*
X115347404Y-48594731D01*
X115340579Y-48598767D01*
X115340575Y-48598769D01*
X115319127Y-48611453D01*
X115254988Y-48629000D01*
X115121962Y-48629000D01*
X115086809Y-48623997D01*
X115084424Y-48623304D01*
X115036466Y-48609371D01*
X115030059Y-48608867D01*
X115030055Y-48608866D01*
X115002444Y-48606693D01*
X115002438Y-48606693D01*
X114999989Y-48606500D01*
X114990070Y-48606500D01*
X114621999Y-48606501D01*
X114553880Y-48586499D01*
X114507387Y-48532844D01*
X114496000Y-48480501D01*
X114496000Y-48237000D01*
X114516002Y-48168879D01*
X114569658Y-48122386D01*
X114622000Y-48111000D01*
X115572030Y-48111000D01*
X115598813Y-48113879D01*
G37*
%TD.AperFunction*%
%TA.AperFunction,Conductor*%
G36*
X104687207Y-43533991D02*
G01*
X104733700Y-43587647D01*
X104743804Y-43657921D01*
X104740793Y-43672600D01*
X104731966Y-43705543D01*
X104730542Y-43710858D01*
X104711807Y-43925000D01*
X104730542Y-44139142D01*
X104731966Y-44144455D01*
X104731966Y-44144457D01*
X104754241Y-44227586D01*
X104786178Y-44346777D01*
X104788500Y-44351757D01*
X104788501Y-44351759D01*
X104832792Y-44446740D01*
X104877024Y-44541596D01*
X105000319Y-44717681D01*
X105152319Y-44869681D01*
X105328403Y-44992976D01*
X105333381Y-44995297D01*
X105333384Y-44995299D01*
X105421618Y-45036443D01*
X105523223Y-45083822D01*
X105528531Y-45085244D01*
X105528533Y-45085245D01*
X105725543Y-45138034D01*
X105725545Y-45138034D01*
X105730858Y-45139458D01*
X105945000Y-45158193D01*
X106159142Y-45139458D01*
X106164455Y-45138034D01*
X106164457Y-45138034D01*
X106361467Y-45085245D01*
X106361469Y-45085244D01*
X106366777Y-45083822D01*
X106468382Y-45036443D01*
X106556616Y-44995299D01*
X106556619Y-44995297D01*
X106561597Y-44992976D01*
X106737681Y-44869681D01*
X106889681Y-44717681D01*
X107012976Y-44541596D01*
X107057209Y-44446740D01*
X107101499Y-44351759D01*
X107101500Y-44351757D01*
X107103822Y-44346777D01*
X107135760Y-44227586D01*
X107158034Y-44144457D01*
X107158034Y-44144455D01*
X107159458Y-44139142D01*
X107178193Y-43925000D01*
X107159458Y-43710858D01*
X107158034Y-43705543D01*
X107149207Y-43672600D01*
X107150897Y-43601623D01*
X107190692Y-43542828D01*
X107255956Y-43514880D01*
X107270914Y-43513989D01*
X109559829Y-43513989D01*
X109627950Y-43533991D01*
X109648924Y-43550894D01*
X109768862Y-43670832D01*
X109802888Y-43733144D01*
X109805288Y-43770908D01*
X109791807Y-43925000D01*
X109810542Y-44139142D01*
X109811966Y-44144455D01*
X109811966Y-44144457D01*
X109834241Y-44227586D01*
X109866178Y-44346777D01*
X109868500Y-44351757D01*
X109868501Y-44351759D01*
X109912792Y-44446740D01*
X109957024Y-44541596D01*
X110080319Y-44717681D01*
X110232319Y-44869681D01*
X110408403Y-44992976D01*
X110413381Y-44995297D01*
X110413384Y-44995299D01*
X110501618Y-45036443D01*
X110603223Y-45083822D01*
X110608531Y-45085244D01*
X110608533Y-45085245D01*
X110805543Y-45138034D01*
X110805545Y-45138034D01*
X110810858Y-45139458D01*
X110816334Y-45139937D01*
X110816339Y-45139938D01*
X110945108Y-45151203D01*
X111020375Y-45157788D01*
X111086493Y-45183651D01*
X111128132Y-45241155D01*
X111132073Y-45312042D01*
X111098488Y-45372404D01*
X111019472Y-45451420D01*
X111013206Y-45457274D01*
X110975340Y-45490306D01*
X110975337Y-45490309D01*
X110969615Y-45495301D01*
X110933289Y-45546988D01*
X110932872Y-45547581D01*
X110928939Y-45552876D01*
X110889524Y-45603144D01*
X110886401Y-45610060D01*
X110885017Y-45612346D01*
X110876643Y-45627027D01*
X110875378Y-45629387D01*
X110871010Y-45635601D01*
X110868250Y-45642680D01*
X110868249Y-45642682D01*
X110847798Y-45695137D01*
X110845247Y-45701206D01*
X110818955Y-45759435D01*
X110817571Y-45766902D01*
X110816770Y-45769457D01*
X110812141Y-45785710D01*
X110811478Y-45788290D01*
X110808718Y-45795371D01*
X110807727Y-45802902D01*
X110807726Y-45802904D01*
X110800379Y-45858714D01*
X110799348Y-45865221D01*
X110787704Y-45928048D01*
X110788141Y-45935628D01*
X110788141Y-45935629D01*
X110791291Y-45990254D01*
X110791500Y-45997508D01*
X110791500Y-46069710D01*
X110775341Y-46124598D01*
X110778183Y-46126009D01*
X110775053Y-46132313D01*
X110771235Y-46138238D01*
X110768826Y-46144858D01*
X110768824Y-46144861D01*
X110716674Y-46288141D01*
X110709197Y-46308685D01*
X110686463Y-46488640D01*
X110704163Y-46669160D01*
X110761418Y-46841273D01*
X110855380Y-46996424D01*
X110981382Y-47126902D01*
X111133159Y-47226222D01*
X111139763Y-47228678D01*
X111139765Y-47228679D01*
X111296558Y-47286990D01*
X111296560Y-47286990D01*
X111303168Y-47289448D01*
X111386995Y-47300633D01*
X111475980Y-47312507D01*
X111475984Y-47312507D01*
X111482961Y-47313438D01*
X111489972Y-47312800D01*
X111489976Y-47312800D01*
X111652485Y-47298010D01*
X111722138Y-47311755D01*
X111771681Y-47358220D01*
X111851732Y-47490401D01*
X111855380Y-47496424D01*
X111981382Y-47626902D01*
X111987274Y-47630757D01*
X111987278Y-47630761D01*
X112041929Y-47666523D01*
X112087978Y-47720560D01*
X112097501Y-47790915D01*
X112067476Y-47855250D01*
X112037075Y-47880408D01*
X111964285Y-47923456D01*
X111964279Y-47923461D01*
X111957459Y-47927494D01*
X111842494Y-48042459D01*
X111838460Y-48049280D01*
X111765937Y-48171911D01*
X111759731Y-48182404D01*
X111757520Y-48190015D01*
X111757519Y-48190017D01*
X111753229Y-48204783D01*
X111714371Y-48338534D01*
X111713867Y-48344941D01*
X111713866Y-48344945D01*
X111713167Y-48353829D01*
X111711500Y-48375011D01*
X111711500Y-48415500D01*
X111691498Y-48483621D01*
X111637842Y-48530114D01*
X111585500Y-48541500D01*
X110058421Y-48541500D01*
X109994282Y-48523953D01*
X109909425Y-48473769D01*
X109909421Y-48473767D01*
X109902596Y-48469731D01*
X109894985Y-48467520D01*
X109894983Y-48467519D01*
X109804250Y-48441159D01*
X109746466Y-48424371D01*
X109740059Y-48423867D01*
X109740055Y-48423866D01*
X109712444Y-48421693D01*
X109712438Y-48421693D01*
X109709989Y-48421500D01*
X109510122Y-48421500D01*
X109310012Y-48421501D01*
X109273534Y-48424371D01*
X109205933Y-48444011D01*
X109125017Y-48467519D01*
X109125015Y-48467520D01*
X109117404Y-48469731D01*
X109110579Y-48473767D01*
X109110575Y-48473769D01*
X109064139Y-48501231D01*
X108995323Y-48518691D01*
X108935861Y-48501231D01*
X108889425Y-48473769D01*
X108889421Y-48473767D01*
X108882596Y-48469731D01*
X108874985Y-48467520D01*
X108874983Y-48467519D01*
X108784250Y-48441159D01*
X108726466Y-48424371D01*
X108720059Y-48423867D01*
X108720055Y-48423866D01*
X108692444Y-48421693D01*
X108692438Y-48421693D01*
X108689989Y-48421500D01*
X108490122Y-48421500D01*
X108290012Y-48421501D01*
X108253534Y-48424371D01*
X108185933Y-48444011D01*
X108105017Y-48467519D01*
X108105015Y-48467520D01*
X108097404Y-48469731D01*
X108090579Y-48473767D01*
X108090575Y-48473769D01*
X108005718Y-48523953D01*
X107941579Y-48541500D01*
X107789283Y-48541500D01*
X107721162Y-48521498D01*
X107674669Y-48467842D01*
X107668286Y-48450654D01*
X107666356Y-48444011D01*
X107664145Y-48436399D01*
X107627027Y-48373636D01*
X107611357Y-48331160D01*
X107606740Y-48304703D01*
X107605777Y-48298180D01*
X107599014Y-48242297D01*
X107598102Y-48234758D01*
X107595419Y-48227657D01*
X107594778Y-48225048D01*
X107590315Y-48208738D01*
X107589550Y-48206202D01*
X107588243Y-48198716D01*
X107562556Y-48140200D01*
X107560065Y-48134096D01*
X107540173Y-48081452D01*
X107540172Y-48081451D01*
X107537487Y-48074344D01*
X107533183Y-48068081D01*
X107531946Y-48065715D01*
X107523701Y-48050903D01*
X107522368Y-48048649D01*
X107519315Y-48041695D01*
X107480413Y-47990998D01*
X107476541Y-47985668D01*
X107444661Y-47939280D01*
X107444656Y-47939275D01*
X107440357Y-47933019D01*
X107419194Y-47914163D01*
X107393830Y-47891565D01*
X107388554Y-47886584D01*
X106021450Y-46519480D01*
X106015596Y-46513215D01*
X106015201Y-46512762D01*
X105977561Y-46469615D01*
X105925280Y-46432871D01*
X105919986Y-46428939D01*
X105875693Y-46394209D01*
X105869718Y-46389524D01*
X105862802Y-46386401D01*
X105860516Y-46385017D01*
X105845835Y-46376643D01*
X105843475Y-46375378D01*
X105837261Y-46371010D01*
X105830182Y-46368250D01*
X105830180Y-46368249D01*
X105777725Y-46347798D01*
X105771656Y-46345247D01*
X105713427Y-46318955D01*
X105705960Y-46317571D01*
X105703405Y-46316770D01*
X105687152Y-46312141D01*
X105684572Y-46311478D01*
X105677491Y-46308718D01*
X105669960Y-46307727D01*
X105669958Y-46307726D01*
X105640339Y-46303827D01*
X105614139Y-46300378D01*
X105607641Y-46299348D01*
X105544814Y-46287704D01*
X105537234Y-46288141D01*
X105537233Y-46288141D01*
X105482608Y-46291291D01*
X105475354Y-46291500D01*
X104894500Y-46291500D01*
X104826379Y-46271498D01*
X104779886Y-46217842D01*
X104768500Y-46165500D01*
X104768500Y-45764516D01*
X104765606Y-45727746D01*
X104734374Y-45620245D01*
X104722106Y-45578016D01*
X104722105Y-45578014D01*
X104719894Y-45570403D01*
X104706047Y-45546988D01*
X104640522Y-45436192D01*
X104636488Y-45429371D01*
X104520629Y-45313512D01*
X104379597Y-45230106D01*
X104371986Y-45227895D01*
X104371984Y-45227894D01*
X104321005Y-45213084D01*
X104222254Y-45184394D01*
X104215849Y-45183890D01*
X104215844Y-45183889D01*
X104187940Y-45181693D01*
X104187932Y-45181693D01*
X104185484Y-45181500D01*
X103854500Y-45181500D01*
X103786379Y-45161498D01*
X103739886Y-45107842D01*
X103728500Y-45055500D01*
X103728500Y-43825660D01*
X103748502Y-43757539D01*
X103765405Y-43736565D01*
X103951076Y-43550894D01*
X104013388Y-43516868D01*
X104040171Y-43513989D01*
X104619086Y-43513989D01*
X104687207Y-43533991D01*
G37*
%TD.AperFunction*%
%TD*%
M02*
