%TF.GenerationSoftware,KiCad,Pcbnew,(6.0.0)*%
%TF.CreationDate,2022-02-09T06:53:37-08:00*%
%TF.ProjectId,depth-sensor,64657074-682d-4736-956e-736f722e6b69,1*%
%TF.SameCoordinates,Original*%
%TF.FileFunction,Legend,Bot*%
%TF.FilePolarity,Positive*%
%FSLAX46Y46*%
G04 Gerber Fmt 4.6, Leading zero omitted, Abs format (unit mm)*
G04 Created by KiCad (PCBNEW (6.0.0)) date 2022-02-09 06:53:37*
%MOMM*%
%LPD*%
G01*
G04 APERTURE LIST*
%ADD10C,0.150000*%
%ADD11C,0.450000*%
G04 APERTURE END LIST*
D10*
X115473809Y-52157380D02*
X115235714Y-53157380D01*
X115045238Y-52443095D01*
X114854761Y-53157380D01*
X114616666Y-52157380D01*
X113854761Y-53109761D02*
X113950000Y-53157380D01*
X114140476Y-53157380D01*
X114235714Y-53109761D01*
X114283333Y-53014523D01*
X114283333Y-52633571D01*
X114235714Y-52538333D01*
X114140476Y-52490714D01*
X113950000Y-52490714D01*
X113854761Y-52538333D01*
X113807142Y-52633571D01*
X113807142Y-52728809D01*
X114283333Y-52824047D01*
X113235714Y-53157380D02*
X113330952Y-53109761D01*
X113378571Y-53014523D01*
X113378571Y-52157380D01*
X112711904Y-53157380D02*
X112807142Y-53109761D01*
X112854761Y-53014523D01*
X112854761Y-52157380D01*
X111569047Y-53157380D02*
X111569047Y-52157380D01*
X111330952Y-52157380D01*
X111188095Y-52205000D01*
X111092857Y-52300238D01*
X111045238Y-52395476D01*
X110997619Y-52585952D01*
X110997619Y-52728809D01*
X111045238Y-52919285D01*
X111092857Y-53014523D01*
X111188095Y-53109761D01*
X111330952Y-53157380D01*
X111569047Y-53157380D01*
X110188095Y-53109761D02*
X110283333Y-53157380D01*
X110473809Y-53157380D01*
X110569047Y-53109761D01*
X110616666Y-53014523D01*
X110616666Y-52633571D01*
X110569047Y-52538333D01*
X110473809Y-52490714D01*
X110283333Y-52490714D01*
X110188095Y-52538333D01*
X110140476Y-52633571D01*
X110140476Y-52728809D01*
X110616666Y-52824047D01*
X109711904Y-52490714D02*
X109711904Y-53490714D01*
X109711904Y-52538333D02*
X109616666Y-52490714D01*
X109426190Y-52490714D01*
X109330952Y-52538333D01*
X109283333Y-52585952D01*
X109235714Y-52681190D01*
X109235714Y-52966904D01*
X109283333Y-53062142D01*
X109330952Y-53109761D01*
X109426190Y-53157380D01*
X109616666Y-53157380D01*
X109711904Y-53109761D01*
X108950000Y-52490714D02*
X108569047Y-52490714D01*
X108807142Y-52157380D02*
X108807142Y-53014523D01*
X108759523Y-53109761D01*
X108664285Y-53157380D01*
X108569047Y-53157380D01*
X108235714Y-53157380D02*
X108235714Y-52157380D01*
X107807142Y-53157380D02*
X107807142Y-52633571D01*
X107854761Y-52538333D01*
X107950000Y-52490714D01*
X108092857Y-52490714D01*
X108188095Y-52538333D01*
X108235714Y-52585952D01*
X106235714Y-52633571D02*
X106569047Y-52633571D01*
X106569047Y-53157380D02*
X106569047Y-52157380D01*
X106092857Y-52157380D01*
X105711904Y-53157380D02*
X105711904Y-52490714D01*
X105711904Y-52681190D02*
X105664285Y-52585952D01*
X105616666Y-52538333D01*
X105521428Y-52490714D01*
X105426190Y-52490714D01*
X104950000Y-53157380D02*
X105045238Y-53109761D01*
X105092857Y-53062142D01*
X105140476Y-52966904D01*
X105140476Y-52681190D01*
X105092857Y-52585952D01*
X105045238Y-52538333D01*
X104950000Y-52490714D01*
X104807142Y-52490714D01*
X104711904Y-52538333D01*
X104664285Y-52585952D01*
X104616666Y-52681190D01*
X104616666Y-52966904D01*
X104664285Y-53062142D01*
X104711904Y-53109761D01*
X104807142Y-53157380D01*
X104950000Y-53157380D01*
X104188095Y-52490714D02*
X104188095Y-53157380D01*
X104188095Y-52585952D02*
X104140476Y-52538333D01*
X104045238Y-52490714D01*
X103902380Y-52490714D01*
X103807142Y-52538333D01*
X103759523Y-52633571D01*
X103759523Y-53157380D01*
X103426190Y-52490714D02*
X103045238Y-52490714D01*
X103283333Y-52157380D02*
X103283333Y-53014523D01*
X103235714Y-53109761D01*
X103140476Y-53157380D01*
X103045238Y-53157380D01*
X102330952Y-53109761D02*
X102426190Y-53157380D01*
X102616666Y-53157380D01*
X102711904Y-53109761D01*
X102759523Y-53014523D01*
X102759523Y-52633571D01*
X102711904Y-52538333D01*
X102616666Y-52490714D01*
X102426190Y-52490714D01*
X102330952Y-52538333D01*
X102283333Y-52633571D01*
X102283333Y-52728809D01*
X102759523Y-52824047D01*
X101854761Y-52490714D02*
X101854761Y-53157380D01*
X101854761Y-52585952D02*
X101807142Y-52538333D01*
X101711904Y-52490714D01*
X101569047Y-52490714D01*
X101473809Y-52538333D01*
X101426190Y-52633571D01*
X101426190Y-53157380D01*
X100521428Y-53157380D02*
X100521428Y-52157380D01*
X100521428Y-53109761D02*
X100616666Y-53157380D01*
X100807142Y-53157380D01*
X100902380Y-53109761D01*
X100950000Y-53062142D01*
X100997619Y-52966904D01*
X100997619Y-52681190D01*
X100950000Y-52585952D01*
X100902380Y-52538333D01*
X100807142Y-52490714D01*
X100616666Y-52490714D01*
X100521428Y-52538333D01*
D11*
X113934047Y-50022142D02*
X113267380Y-50022142D01*
X112981666Y-51069761D02*
X113934047Y-51069761D01*
X113934047Y-49069761D01*
X112981666Y-49069761D01*
X112315000Y-49069761D02*
X111838809Y-51069761D01*
X111457857Y-49641190D01*
X111076904Y-51069761D01*
X110600714Y-49069761D01*
X109172142Y-50022142D02*
X108886428Y-50117380D01*
X108791190Y-50212619D01*
X108695952Y-50403095D01*
X108695952Y-50688809D01*
X108791190Y-50879285D01*
X108886428Y-50974523D01*
X109076904Y-51069761D01*
X109838809Y-51069761D01*
X109838809Y-49069761D01*
X109172142Y-49069761D01*
X108981666Y-49165000D01*
X108886428Y-49260238D01*
X108791190Y-49450714D01*
X108791190Y-49641190D01*
X108886428Y-49831666D01*
X108981666Y-49926904D01*
X109172142Y-50022142D01*
X109838809Y-50022142D01*
X107838809Y-50307857D02*
X106315000Y-50307857D01*
X105457857Y-50974523D02*
X105172142Y-51069761D01*
X104695952Y-51069761D01*
X104505476Y-50974523D01*
X104410238Y-50879285D01*
X104315000Y-50688809D01*
X104315000Y-50498333D01*
X104410238Y-50307857D01*
X104505476Y-50212619D01*
X104695952Y-50117380D01*
X105076904Y-50022142D01*
X105267380Y-49926904D01*
X105362619Y-49831666D01*
X105457857Y-49641190D01*
X105457857Y-49450714D01*
X105362619Y-49260238D01*
X105267380Y-49165000D01*
X105076904Y-49069761D01*
X104600714Y-49069761D01*
X104315000Y-49165000D01*
X102791190Y-50022142D02*
X103457857Y-50022142D01*
X103457857Y-51069761D02*
X103457857Y-49069761D01*
X102505476Y-49069761D01*
X101743571Y-51069761D02*
X101743571Y-49069761D01*
X100981666Y-49069761D01*
X100791190Y-49165000D01*
X100695952Y-49260238D01*
X100600714Y-49450714D01*
X100600714Y-49736428D01*
X100695952Y-49926904D01*
X100791190Y-50022142D01*
X100981666Y-50117380D01*
X101743571Y-50117380D01*
D10*
X112895000Y-60735595D02*
X112942619Y-60830833D01*
X112942619Y-60973690D01*
X112895000Y-61116547D01*
X112799761Y-61211785D01*
X112704523Y-61259404D01*
X112514047Y-61307023D01*
X112371190Y-61307023D01*
X112180714Y-61259404D01*
X112085476Y-61211785D01*
X111990238Y-61116547D01*
X111942619Y-60973690D01*
X111942619Y-60878452D01*
X111990238Y-60735595D01*
X112037857Y-60687976D01*
X112371190Y-60687976D01*
X112371190Y-60878452D01*
X111942619Y-60259404D02*
X112942619Y-60259404D01*
X111942619Y-59687976D01*
X112942619Y-59687976D01*
X111942619Y-59211785D02*
X112942619Y-59211785D01*
X112942619Y-58973690D01*
X112895000Y-58830833D01*
X112799761Y-58735595D01*
X112704523Y-58687976D01*
X112514047Y-58640357D01*
X112371190Y-58640357D01*
X112180714Y-58687976D01*
X112085476Y-58735595D01*
X111990238Y-58830833D01*
X111942619Y-58973690D01*
X111942619Y-59211785D01*
X114863571Y-61259404D02*
X114863571Y-60497500D01*
X114482619Y-60878452D02*
X115244523Y-60878452D01*
X114482619Y-59973690D02*
X114482619Y-59783214D01*
X114530238Y-59687976D01*
X114577857Y-59640357D01*
X114720714Y-59545119D01*
X114911190Y-59497500D01*
X115292142Y-59497500D01*
X115387380Y-59545119D01*
X115435000Y-59592738D01*
X115482619Y-59687976D01*
X115482619Y-59878452D01*
X115435000Y-59973690D01*
X115387380Y-60021309D01*
X115292142Y-60068928D01*
X115054047Y-60068928D01*
X114958809Y-60021309D01*
X114911190Y-59973690D01*
X114863571Y-59878452D01*
X114863571Y-59687976D01*
X114911190Y-59592738D01*
X114958809Y-59545119D01*
X115054047Y-59497500D01*
X115482619Y-59211785D02*
X114482619Y-58878452D01*
X115482619Y-58545119D01*
X98170952Y-58491428D02*
X97409047Y-58491428D01*
X98252500Y-46426428D02*
X97490595Y-46426428D01*
X97871547Y-46807380D02*
X97871547Y-46045476D01*
X119044404Y-56586428D02*
X118282500Y-56586428D01*
X118663452Y-56967380D02*
X118663452Y-56205476D01*
X117758690Y-56967380D02*
X117568214Y-56967380D01*
X117472976Y-56919761D01*
X117425357Y-56872142D01*
X117330119Y-56729285D01*
X117282500Y-56538809D01*
X117282500Y-56157857D01*
X117330119Y-56062619D01*
X117377738Y-56015000D01*
X117472976Y-55967380D01*
X117663452Y-55967380D01*
X117758690Y-56015000D01*
X117806309Y-56062619D01*
X117853928Y-56157857D01*
X117853928Y-56395952D01*
X117806309Y-56491190D01*
X117758690Y-56538809D01*
X117663452Y-56586428D01*
X117472976Y-56586428D01*
X117377738Y-56538809D01*
X117330119Y-56491190D01*
X117282500Y-56395952D01*
X116996785Y-55967380D02*
X116663452Y-56967380D01*
X116330119Y-55967380D01*
X119092023Y-54379761D02*
X118949166Y-54427380D01*
X118711071Y-54427380D01*
X118615833Y-54379761D01*
X118568214Y-54332142D01*
X118520595Y-54236904D01*
X118520595Y-54141666D01*
X118568214Y-54046428D01*
X118615833Y-53998809D01*
X118711071Y-53951190D01*
X118901547Y-53903571D01*
X118996785Y-53855952D01*
X119044404Y-53808333D01*
X119092023Y-53713095D01*
X119092023Y-53617857D01*
X119044404Y-53522619D01*
X118996785Y-53475000D01*
X118901547Y-53427380D01*
X118663452Y-53427380D01*
X118520595Y-53475000D01*
X118092023Y-54427380D02*
X118092023Y-53427380D01*
X117092023Y-53475000D02*
X117187261Y-53427380D01*
X117330119Y-53427380D01*
X117472976Y-53475000D01*
X117568214Y-53570238D01*
X117615833Y-53665476D01*
X117663452Y-53855952D01*
X117663452Y-53998809D01*
X117615833Y-54189285D01*
X117568214Y-54284523D01*
X117472976Y-54379761D01*
X117330119Y-54427380D01*
X117234880Y-54427380D01*
X117092023Y-54379761D01*
X117044404Y-54332142D01*
X117044404Y-53998809D01*
X117234880Y-53998809D01*
X118853928Y-50887380D02*
X118663452Y-50887380D01*
X118568214Y-50935000D01*
X118472976Y-51030238D01*
X118425357Y-51220714D01*
X118425357Y-51554047D01*
X118472976Y-51744523D01*
X118568214Y-51839761D01*
X118663452Y-51887380D01*
X118853928Y-51887380D01*
X118949166Y-51839761D01*
X119044404Y-51744523D01*
X119092023Y-51554047D01*
X119092023Y-51220714D01*
X119044404Y-51030238D01*
X118949166Y-50935000D01*
X118853928Y-50887380D01*
X117996785Y-51887380D02*
X117996785Y-50887380D01*
X117425357Y-51887380D01*
X117425357Y-50887380D01*
X118520595Y-48395000D02*
X118615833Y-48347380D01*
X118758690Y-48347380D01*
X118901547Y-48395000D01*
X118996785Y-48490238D01*
X119044404Y-48585476D01*
X119092023Y-48775952D01*
X119092023Y-48918809D01*
X119044404Y-49109285D01*
X118996785Y-49204523D01*
X118901547Y-49299761D01*
X118758690Y-49347380D01*
X118663452Y-49347380D01*
X118520595Y-49299761D01*
X118472976Y-49252142D01*
X118472976Y-48918809D01*
X118663452Y-48918809D01*
X118044404Y-49347380D02*
X118044404Y-48347380D01*
X117472976Y-49347380D01*
X117472976Y-48347380D01*
X116996785Y-49347380D02*
X116996785Y-48347380D01*
X116758690Y-48347380D01*
X116615833Y-48395000D01*
X116520595Y-48490238D01*
X116472976Y-48585476D01*
X116425357Y-48775952D01*
X116425357Y-48918809D01*
X116472976Y-49109285D01*
X116520595Y-49204523D01*
X116615833Y-49299761D01*
X116758690Y-49347380D01*
X116996785Y-49347380D01*
M02*
